<svg width="63" height="64" viewBox="0 0 63 64" fill="none" xmlns="http://www.w3.org/2000/svg">
<g clip-path="url(#clip0_1_483)">
<path fill-rule="evenodd" clip-rule="evenodd" d="M0.519531 1.31006H62.3395V11.3101H0.519531V1.31006ZM5.51953 57.1301H57.3395V63.1301H5.51953V57.1301Z" fill="#D6DBE9"/>
<path d="M57.3395 63.1301H5.51953M0.519531 11.3101H62.3395M0.519531 1.31006H62.3395V57.1301H0.519531V1.31006Z" stroke="#204ECF" stroke-width="0.75"/>
<path d="M19.6199 24.8901L10.4199 34.0301L19.6199 43.1601M42.7999 43.1601L51.9999 34.0301L42.7999 24.8901M37.7099 23.3701L24.7099 44.6801" stroke="#204ECF" stroke-width="0.75"/>
<path d="M6.18945 7.31006C6.74174 7.31006 7.18945 6.86234 7.18945 6.31006C7.18945 5.75777 6.74174 5.31006 6.18945 5.31006C5.63717 5.31006 5.18945 5.75777 5.18945 6.31006C5.18945 6.86234 5.63717 7.31006 6.18945 7.31006Z" fill="#204ECF"/>
<path d="M12.1895 7.31006C12.7417 7.31006 13.1895 6.86234 13.1895 6.31006C13.1895 5.75777 12.7417 5.31006 12.1895 5.31006C11.6372 5.31006 11.1895 5.75777 11.1895 6.31006C11.1895 6.86234 11.6372 7.31006 12.1895 7.31006Z" fill="#204ECF"/>
<path d="M9.18945 7.31006C9.74174 7.31006 10.1895 6.86234 10.1895 6.31006C10.1895 5.75777 9.74174 5.31006 9.18945 5.31006C8.63717 5.31006 8.18945 5.75777 8.18945 6.31006C8.18945 6.86234 8.63717 7.31006 9.18945 7.31006Z" fill="#204ECF"/>
</g>
<defs>
<clipPath id="clip0_1_483">
<rect width="63" height="64" fill="white"/>
</clipPath>
</defs>
</svg>
