<svg width="611" height="646" viewBox="0 0 611 646" fill="none" xmlns="http://www.w3.org/2000/svg">
<g clip-path="url(#clip0_1_25)">
<path d="M61.2358 414.358C82.973 405.288 93.2269 380.348 84.1385 358.654C75.05 336.96 50.0609 326.726 28.3236 335.797C6.58637 344.867 -3.66752 369.807 5.42091 391.501C14.5093 413.195 39.4985 423.428 61.2358 414.358Z" fill="#040A60" stroke="#192191" stroke-width="2" stroke-miterlimit="10"/>
<path d="M203.439 414.345C225.176 405.275 235.43 380.335 226.342 358.641C217.253 336.947 192.264 326.714 170.527 335.784C148.789 344.855 138.536 369.794 147.624 391.488C156.712 413.182 181.702 423.416 203.439 414.345Z" fill="#040A60" stroke="#192191" stroke-width="2" stroke-miterlimit="10"/>
<path d="M127.329 526.828C149.067 517.757 159.321 492.818 150.232 471.124C141.144 449.43 116.155 439.196 94.4174 448.267C72.6801 457.337 62.4262 482.276 71.5147 503.971C80.6031 525.665 105.592 535.898 127.329 526.828Z" fill="#040A60" stroke="#192191" stroke-width="2" stroke-miterlimit="10"/>
<path d="M192.474 640.597C214.211 631.527 224.465 606.587 215.377 584.893C206.288 563.199 181.299 552.966 159.562 562.036C137.825 571.106 127.571 596.046 136.659 617.74C145.748 639.434 170.737 649.668 192.474 640.597Z" fill="#040A60" stroke="#192191" stroke-width="2" stroke-miterlimit="10"/>
<path d="M263.695 526.836C285.432 517.766 295.686 492.826 286.597 471.132C277.509 449.438 252.52 439.204 230.783 448.275C209.045 457.345 198.791 482.285 207.88 503.979C216.968 525.673 241.957 535.906 263.695 526.836Z" fill="#040A60" stroke="#192191" stroke-width="2" stroke-miterlimit="10"/>
<path d="M322.455 640.599C344.193 631.528 354.447 606.589 345.358 584.895C336.27 563.201 311.281 552.967 289.543 562.038C267.806 571.108 257.552 596.047 266.641 617.742C275.729 639.436 300.718 649.669 322.455 640.599Z" fill="#040A60" stroke="#192191" stroke-width="2" stroke-miterlimit="10"/>
<path d="M452.031 640.594C473.768 631.524 484.022 606.584 474.933 584.89C465.845 563.196 440.856 552.962 419.119 562.033C397.381 571.103 387.127 596.043 396.216 617.737C405.304 639.431 430.293 649.664 452.031 640.594Z" fill="#040A60" stroke="#192191" stroke-width="2" stroke-miterlimit="10"/>
<path d="M385.819 526.817C407.556 517.747 417.81 492.807 408.721 471.113C399.633 449.419 374.644 439.185 352.907 448.256C331.169 457.326 320.915 482.266 330.004 503.96C339.092 525.654 364.082 535.887 385.819 526.817Z" fill="#040A60" stroke="#192191" stroke-width="2" stroke-miterlimit="10"/>
<path d="M518.38 525.995C540.118 516.925 550.371 491.985 541.283 470.291C532.195 448.597 507.205 438.364 485.468 447.434C463.731 456.504 453.477 481.444 462.565 503.138C471.654 524.832 496.643 535.066 518.38 525.995Z" fill="#040A60" stroke="#192191" stroke-width="2" stroke-miterlimit="10"/>
<path d="M448.134 414.347C469.871 405.276 480.125 380.337 471.037 358.643C461.948 336.949 436.959 326.715 415.222 335.786C393.485 344.856 383.231 369.796 392.319 391.49C401.408 413.184 426.397 423.417 448.134 414.347Z" fill="#040A60" stroke="#192191" stroke-width="2" stroke-miterlimit="10"/>
<path d="M582.713 414.33C604.451 405.26 614.704 380.32 605.616 358.626C596.528 336.932 571.538 326.699 549.801 335.769C528.064 344.839 517.81 369.779 526.898 391.473C535.987 413.167 560.976 423.401 582.713 414.33Z" fill="#040A60" stroke="#192191" stroke-width="2" stroke-miterlimit="10"/>
<path d="M519.224 298.964C540.961 289.894 551.215 264.954 542.127 243.26C533.038 221.566 508.049 211.332 486.312 220.403C464.575 229.473 454.321 254.413 463.409 276.107C472.498 297.801 497.487 308.034 519.224 298.964Z" fill="#040A60" stroke="#192191" stroke-width="2" stroke-miterlimit="10"/>
<path d="M408.769 122.111C425.8 120.498 438.297 105.411 436.681 88.414C435.065 71.4165 419.948 58.9447 402.917 60.5575C385.886 62.1702 373.389 77.2567 375.005 94.2542C376.621 111.252 391.737 123.723 408.769 122.111Z" fill="#040A60" stroke="#192191" stroke-width="2" stroke-miterlimit="10"/>
<path d="M520.186 35.7043C523.649 21.0014 514.514 6.28019 499.782 2.82353C485.05 -0.633124 470.299 8.48375 466.836 23.1866C463.372 37.8895 472.507 52.6108 487.239 56.0674C501.972 59.5241 516.722 50.4072 520.186 35.7043Z" fill="#040A60" stroke="#192191" stroke-width="2" stroke-miterlimit="10"/>
<path d="M127.651 298.984C149.388 289.913 159.642 264.974 150.554 243.28C141.465 221.585 116.476 211.352 94.7387 220.422C73.0014 229.493 62.7475 254.432 71.836 276.126C80.9244 297.82 105.914 308.054 127.651 298.984Z" fill="#040A60" stroke="#192191" stroke-width="2" stroke-miterlimit="10"/>
<path d="M194.897 184.356C216.634 175.285 226.888 150.346 217.8 128.652C208.711 106.958 183.722 96.724 161.985 105.794C140.248 114.865 129.994 139.804 139.082 161.498C148.17 183.192 173.16 193.426 194.897 184.356Z" fill="#040A60" stroke="#192191" stroke-width="2" stroke-miterlimit="10"/>
<path d="M266.148 298.977C287.885 289.906 298.139 264.967 289.051 243.273C279.962 221.579 254.973 211.345 233.236 220.415C211.498 229.486 201.245 254.425 210.333 276.12C219.421 297.814 244.411 308.047 266.148 298.977Z" fill="#040A60" stroke="#192191" stroke-width="2" stroke-miterlimit="10"/>
<path d="M327.731 184.347C349.468 175.276 359.722 150.337 350.634 128.643C341.545 106.949 316.556 96.7152 294.819 105.786C273.081 114.856 262.828 139.796 271.916 161.49C281.004 183.184 305.994 193.417 327.731 184.347Z" fill="#040A60" stroke="#192191" stroke-width="2" stroke-miterlimit="10"/>
</g>
<defs>
<clipPath id="clip0_1_25">
<rect width="611" height="646" fill="white"/>
</clipPath>
</defs>
</svg>
