<svg width="434" height="474" viewBox="0 0 434 474" fill="none" xmlns="http://www.w3.org/2000/svg">
<path d="M51.597 301.917C67.8754 295.957 76.1194 278.25 70.0105 262.368C63.9016 246.485 45.7531 238.442 29.4747 244.402C13.1963 250.363 4.95226 268.069 11.0612 283.952C17.1701 299.834 35.3186 307.877 51.597 301.917Z" fill="url(#paint0_linear_1_116)"/>
<path d="M156.569 301.906C172.847 295.946 181.091 278.239 174.982 262.357C168.873 246.475 150.725 238.431 134.446 244.392C118.168 250.352 109.924 268.059 116.033 283.941C122.142 299.823 140.29 307.867 156.569 301.906Z" fill="url(#paint1_linear_1_116)"/>
<path d="M101.251 383.071C117.53 377.111 125.774 359.404 119.665 343.522C113.556 327.64 95.4074 319.596 79.129 325.557C62.8506 331.517 54.6066 349.224 60.7155 365.106C66.8244 380.988 84.9729 389.032 101.251 383.071Z" fill="url(#paint2_linear_1_116)"/>
<path d="M148.476 465.208C164.754 459.248 172.998 441.541 166.889 425.659C160.781 409.777 142.632 401.733 126.354 407.694C110.075 413.654 101.831 431.361 107.94 447.243C114.049 463.125 132.198 471.169 148.476 465.208Z" fill="url(#paint3_linear_1_116)"/>
<path d="M201.052 383.069C217.331 377.109 225.575 359.402 219.466 343.52C213.357 327.638 195.208 319.594 178.93 325.555C162.651 331.515 154.407 349.222 160.516 365.104C166.625 380.986 184.774 389.03 201.052 383.069Z" fill="url(#paint4_linear_1_116)"/>
<path d="M244.44 465.202C260.718 459.241 268.962 441.534 262.853 425.652C256.744 409.77 238.596 401.727 222.317 407.687C206.039 413.647 197.795 431.354 203.904 447.236C210.013 463.119 228.161 471.162 244.44 465.202Z" fill="url(#paint5_linear_1_116)"/>
<path d="M340.078 465.209C356.357 459.249 364.601 441.542 358.492 425.66C352.383 409.778 334.235 401.734 317.956 407.695C301.678 413.655 293.434 431.362 299.543 447.244C305.652 463.126 323.8 471.17 340.078 465.209Z" fill="url(#paint6_linear_1_116)"/>
<path d="M291.204 383.102C307.482 377.142 315.726 359.435 309.617 343.553C303.508 327.671 285.36 319.627 269.081 325.587C252.803 331.548 244.559 349.255 250.668 365.137C256.777 381.019 274.925 389.062 291.204 383.102Z" fill="url(#paint7_linear_1_116)"/>
<path d="M389.299 383.101C405.578 377.141 413.822 359.434 407.713 343.552C401.604 327.67 383.455 319.626 367.177 325.586C350.898 331.547 342.654 349.254 348.763 365.136C354.872 381.018 373.021 389.061 389.299 383.101Z" fill="url(#paint8_linear_1_116)"/>
<path d="M337.202 301.906C353.48 295.946 361.724 278.239 355.615 262.357C349.506 246.475 331.358 238.431 315.079 244.392C298.801 250.352 290.557 268.059 296.666 283.941C302.775 299.823 320.923 307.867 337.202 301.906Z" fill="url(#paint9_linear_1_116)"/>
<path d="M436.525 301.928C452.803 295.967 461.047 278.26 454.938 262.378C448.829 246.496 430.681 238.453 414.402 244.413C398.124 250.373 389.88 268.08 395.989 283.962C402.098 299.844 420.246 307.888 436.525 301.928Z" fill="url(#paint10_linear_1_116)"/>
<path d="M389.7 218.663C405.978 212.703 414.222 194.996 408.113 179.114C402.004 163.231 383.856 155.188 367.577 161.148C351.299 167.108 343.055 184.815 349.164 200.698C355.273 216.58 373.421 224.623 389.7 218.663Z" fill="url(#paint11_linear_1_116)"/>
<path d="M309.059 90.6191C321.638 89.5626 330.957 78.7571 329.874 66.4843C328.792 54.2114 317.716 45.1188 305.138 46.1752C292.559 47.2317 283.239 58.0372 284.322 70.3101C285.405 82.5829 296.48 91.6756 309.059 90.6191Z" fill="url(#paint12_linear_1_116)"/>
<path d="M391.441 28.2569C394.003 17.65 387.267 7.02524 376.395 4.52571C365.524 2.02618 354.634 8.59842 352.072 19.2053C349.51 29.8121 356.247 40.4369 367.118 42.9364C377.989 45.436 388.879 38.8637 391.441 28.2569Z" fill="url(#paint13_linear_1_116)"/>
<path d="M100.649 218.667C116.927 212.706 125.171 194.999 119.062 179.117C112.953 163.235 94.8048 155.192 78.5264 161.152C62.248 167.112 54.004 184.819 60.1129 200.701C66.2219 216.583 84.3704 224.627 100.649 218.667Z" fill="url(#paint14_linear_1_116)"/>
<path d="M150.281 135.94C166.559 129.98 174.803 112.273 168.694 96.3909C162.585 80.5086 144.437 72.4653 128.158 78.4255C111.88 84.3858 103.636 102.093 109.745 117.975C115.854 133.857 134.002 141.901 150.281 135.94Z" fill="url(#paint15_linear_1_116)"/>
<path d="M202.883 218.673C219.162 212.713 227.406 195.006 221.297 179.124C215.188 163.242 197.039 155.198 180.761 161.159C164.482 167.119 156.238 184.826 162.347 200.708C168.456 216.59 186.605 224.634 202.883 218.673Z" fill="url(#paint16_linear_1_116)"/>
<path d="M248.336 135.953C264.615 129.993 272.859 112.286 266.75 96.4038C260.641 80.5216 242.492 72.4782 226.214 78.4385C209.936 84.3987 201.692 102.106 207.8 117.988C213.909 133.87 232.058 141.913 248.336 135.953Z" fill="url(#paint17_linear_1_116)"/>
<defs>
<linearGradient id="paint0_linear_1_116" x1="-46.6306" y1="104.463" x2="218.728" y2="643.944" gradientUnits="userSpaceOnUse">
<stop stop-color="#BCFA01"/>
<stop offset="1" stop-color="#26ED88"/>
</linearGradient>
<linearGradient id="paint1_linear_1_116" x1="37.0842" y1="63.2774" x2="302.42" y2="602.758" gradientUnits="userSpaceOnUse">
<stop stop-color="#BCFA01"/>
<stop offset="1" stop-color="#26ED88"/>
</linearGradient>
<linearGradient id="paint2_linear_1_116" x1="-40.4711" y1="101.427" x2="224.887" y2="640.908" gradientUnits="userSpaceOnUse">
<stop stop-color="#BCFA01"/>
<stop offset="1" stop-color="#26ED88"/>
</linearGradient>
<linearGradient id="paint3_linear_1_116" x1="-36.6502" y1="99.5686" x2="228.708" y2="639.05" gradientUnits="userSpaceOnUse">
<stop stop-color="#BCFA01"/>
<stop offset="1" stop-color="#26ED88"/>
</linearGradient>
<linearGradient id="paint4_linear_1_116" x1="39.1182" y1="62.2726" x2="304.477" y2="601.754" gradientUnits="userSpaceOnUse">
<stop stop-color="#BCFA01"/>
<stop offset="1" stop-color="#26ED88"/>
</linearGradient>
<linearGradient id="paint5_linear_1_116" x1="39.8688" y1="61.8973" x2="305.227" y2="601.378" gradientUnits="userSpaceOnUse">
<stop stop-color="#BCFA01"/>
<stop offset="1" stop-color="#26ED88"/>
</linearGradient>
<linearGradient id="paint6_linear_1_116" x1="116.13" y1="24.3996" x2="381.488" y2="563.881" gradientUnits="userSpaceOnUse">
<stop stop-color="#BCFA01"/>
<stop offset="1" stop-color="#26ED88"/>
</linearGradient>
<linearGradient id="paint7_linear_1_116" x1="110.968" y1="26.9331" x2="376.327" y2="566.415" gradientUnits="userSpaceOnUse">
<stop stop-color="#BCFA01"/>
<stop offset="1" stop-color="#26ED88"/>
</linearGradient>
<linearGradient id="paint8_linear_1_116" x1="189.19" y1="-11.5466" x2="454.549" y2="527.935" gradientUnits="userSpaceOnUse">
<stop stop-color="#BCFA01"/>
<stop offset="1" stop-color="#26ED88"/>
</linearGradient>
<linearGradient id="paint9_linear_1_116" x1="181.093" y1="-7.57119" x2="446.451" y2="531.91" gradientUnits="userSpaceOnUse">
<stop stop-color="#BCFA01"/>
<stop offset="1" stop-color="#26ED88"/>
</linearGradient>
<linearGradient id="paint10_linear_1_116" x1="260.302" y1="-46.5034" x2="525.66" y2="492.978" gradientUnits="userSpaceOnUse">
<stop stop-color="#BCFA01"/>
<stop offset="1" stop-color="#26ED88"/>
</linearGradient>
<linearGradient id="paint11_linear_1_116" x1="257.259" y1="-45.0351" x2="522.617" y2="494.446" gradientUnits="userSpaceOnUse">
<stop stop-color="#BCFA01"/>
<stop offset="1" stop-color="#26ED88"/>
</linearGradient>
<linearGradient id="paint12_linear_1_116" x1="250.261" y1="-41.5766" x2="515.62" y2="497.905" gradientUnits="userSpaceOnUse">
<stop stop-color="#BCFA01"/>
<stop offset="1" stop-color="#26ED88"/>
</linearGradient>
<linearGradient id="paint13_linear_1_116" x1="320.241" y1="-75.9736" x2="585.578" y2="463.507" gradientUnits="userSpaceOnUse">
<stop stop-color="#BCFA01"/>
<stop offset="1" stop-color="#26ED88"/>
</linearGradient>
<linearGradient id="paint14_linear_1_116" x1="26.7702" y1="68.3439" x2="292.129" y2="607.825" gradientUnits="userSpaceOnUse">
<stop stop-color="#BCFA01"/>
<stop offset="1" stop-color="#26ED88"/>
</linearGradient>
<linearGradient id="paint15_linear_1_116" x1="100.433" y1="32.1137" x2="365.792" y2="571.595" gradientUnits="userSpaceOnUse">
<stop stop-color="#BCFA01"/>
<stop offset="1" stop-color="#26ED88"/>
</linearGradient>
<linearGradient id="paint16_linear_1_116" x1="108.291" y1="28.257" x2="373.649" y2="567.738" gradientUnits="userSpaceOnUse">
<stop stop-color="#BCFA01"/>
<stop offset="1" stop-color="#26ED88"/>
</linearGradient>
<linearGradient id="paint17_linear_1_116" x1="178.622" y1="-6.31668" x2="443.98" y2="533.165" gradientUnits="userSpaceOnUse">
<stop stop-color="#BCFA01"/>
<stop offset="1" stop-color="#26ED88"/>
</linearGradient>
</defs>
</svg>
