<svg width="113" height="123" viewBox="0 0 113 123" fill="none" xmlns="http://www.w3.org/2000/svg">
<path d="M10.7306 78.9565C14.8375 77.388 16.9174 72.7284 15.3762 68.5488C13.8349 64.3695 9.2562 62.2528 5.14926 63.8212C1.04233 65.3897 -1.03758 70.0493 0.503664 74.2289C2.0449 78.4082 6.62365 80.5249 10.7306 78.9565Z" fill="url(#paint0_linear_1_9710)"/>
<path d="M37.2138 78.9529C41.3207 77.3845 43.4007 72.7249 41.8594 68.5455C40.3182 64.366 35.7395 62.2495 31.6327 63.8177C27.5258 65.3862 25.4458 70.046 26.987 74.2253C28.5283 78.4047 33.107 80.5214 37.2138 78.9529Z" fill="url(#paint1_linear_1_9710)"/>
<path d="M23.258 100.312C27.3649 98.7439 29.4448 94.0844 27.9036 89.9048C26.3624 85.7254 21.7836 83.6087 17.6766 85.1772C13.5697 86.7457 11.4898 91.4052 13.031 95.5848C14.5723 99.7642 19.151 101.881 23.258 100.312Z" fill="url(#paint2_linear_1_9710)"/>
<path d="M35.1728 121.927C39.2799 120.359 41.3597 115.699 39.8184 111.52C38.2772 107.34 33.6985 105.223 29.5916 106.792C25.4847 108.36 23.4048 113.02 24.946 117.2C26.4873 121.379 31.0659 123.496 35.1728 121.927Z" fill="url(#paint3_linear_1_9710)"/>
<path d="M48.4367 100.312C52.5436 98.7439 54.6235 94.0844 53.0823 89.9048C51.5411 85.7254 46.9622 83.6087 42.8553 85.1772C38.7484 86.7457 36.6685 91.4052 38.2097 95.5848C39.7509 99.7642 44.3298 101.881 48.4367 100.312Z" fill="url(#paint4_linear_1_9710)"/>
<path d="M59.3828 121.925C63.4899 120.356 65.5696 115.697 64.0284 111.517C62.4872 107.338 57.9085 105.221 53.8016 106.789C49.6947 108.358 47.6148 113.018 49.156 117.197C50.6972 121.376 55.2759 123.493 59.3828 121.925Z" fill="url(#paint5_linear_1_9710)"/>
<path d="M83.5118 121.928C87.6187 120.36 89.6986 115.7 88.1574 111.521C86.6162 107.341 82.0375 105.224 77.9304 106.793C73.8235 108.361 71.7436 113.021 73.285 117.201C74.8262 121.38 79.4049 123.497 83.5118 121.928Z" fill="url(#paint6_linear_1_9710)"/>
<path d="M71.1809 100.32C75.2878 98.7517 77.3677 94.0922 75.8265 89.9128C74.285 85.7332 69.7063 83.6165 65.5995 85.185C61.4926 86.7535 59.4126 91.4131 60.9538 95.5926C62.4951 99.772 67.0737 101.889 71.1809 100.32Z" fill="url(#paint7_linear_1_9710)"/>
<path d="M95.9308 100.32C100.038 98.7517 102.118 94.0922 100.576 89.9128C99.0351 85.7332 94.4565 83.6165 90.3496 85.185C86.2424 86.7535 84.1625 91.4131 85.704 95.5926C87.2452 99.772 91.8239 101.889 95.9308 100.32Z" fill="url(#paint8_linear_1_9710)"/>
<path d="M82.7863 78.9545C86.8932 77.386 88.9732 72.7265 87.4319 68.5469C85.8907 64.3675 81.3118 62.2508 77.2049 63.8193C73.098 65.3878 71.0181 70.0473 72.5593 74.2269C74.1005 78.4063 78.6794 80.523 82.7863 78.9545Z" fill="url(#paint9_linear_1_9710)"/>
<path d="M107.846 78.9597C111.953 77.3914 114.033 72.7316 112.492 68.5523C110.95 64.3727 106.371 62.2562 102.264 63.8247C98.1576 65.3932 96.0777 70.0527 97.6189 74.2321C99.1601 78.4117 103.739 80.5282 107.846 78.9597Z" fill="url(#paint10_linear_1_9710)"/>
<path d="M96.0323 57.0478C100.139 55.4793 102.219 50.8197 100.678 46.6401C99.1367 42.4608 94.558 40.3441 90.4511 41.9125C86.344 43.481 84.2641 48.1406 85.8055 52.3199C87.3467 56.4995 91.9254 58.6162 96.0323 57.0478Z" fill="url(#paint11_linear_1_9710)"/>
<path d="M75.6873 23.3523C78.8608 23.0742 81.212 20.2307 80.9388 17.0011C80.6657 13.7715 77.8716 11.3787 74.6979 11.6567C71.5243 11.9348 69.1732 14.7782 69.4464 18.0079C69.7194 21.2375 72.5136 23.6302 75.6873 23.3523Z" fill="url(#paint12_linear_1_9710)"/>
<path d="M96.4709 6.94263C97.1173 4.15141 95.4178 1.35547 92.6751 0.69771C89.9321 0.0399525 87.1848 1.76946 86.5386 4.56066C85.8922 7.35188 87.5916 10.1478 90.3343 10.8056C93.0773 11.4633 95.8247 9.73382 96.4709 6.94263Z" fill="url(#paint13_linear_1_9710)"/>
<path d="M23.1055 57.0485C27.2124 55.4803 29.2923 50.8205 27.7511 46.6411C26.2099 42.4618 21.6312 40.345 17.5242 41.9135C13.4173 43.482 11.3374 48.1416 12.8787 52.3209C14.4199 56.5005 18.9986 58.617 23.1055 57.0485Z" fill="url(#paint14_linear_1_9710)"/>
<path d="M35.628 35.2791C39.7349 33.7106 41.8148 29.0511 40.2736 24.8717C38.7324 20.6922 34.1537 18.5755 30.0468 20.144C25.9397 21.7124 23.8598 26.3721 25.4012 30.5515C26.9424 34.7309 31.5211 36.8476 35.628 35.2791Z" fill="url(#paint15_linear_1_9710)"/>
<path d="M48.8996 57.0505C53.0065 55.482 55.0864 50.8225 53.5452 46.6431C52.004 42.4635 47.4251 40.347 43.3182 41.9155C39.2113 43.4838 37.1314 48.1435 38.6726 52.3229C40.2138 56.5025 44.7927 58.619 48.8996 57.0505Z" fill="url(#paint16_linear_1_9710)"/>
<path d="M60.3664 35.2826C64.4733 33.7141 66.5532 29.0546 65.012 24.875C63.4708 20.6956 58.8919 18.579 54.785 20.1474C50.6781 21.7159 48.5982 26.3754 50.1394 30.555C51.6806 34.7344 56.2595 36.8511 60.3664 35.2826Z" fill="url(#paint17_linear_1_9710)"/>
<defs>
<linearGradient id="paint0_linear_1_9710" x1="-14.0516" y1="26.9959" x2="57.557" y2="166.571" gradientUnits="userSpaceOnUse">
<stop stop-color="#BCFA01"/>
<stop offset="1" stop-color="#26ED88"/>
</linearGradient>
<linearGradient id="paint1_linear_1_9710" x1="7.06878" y1="16.1572" x2="78.6714" y2="155.732" gradientUnits="userSpaceOnUse">
<stop stop-color="#BCFA01"/>
<stop offset="1" stop-color="#26ED88"/>
</linearGradient>
<linearGradient id="paint2_linear_1_9710" x1="-12.4977" y1="26.1968" x2="59.111" y2="165.772" gradientUnits="userSpaceOnUse">
<stop stop-color="#BCFA01"/>
<stop offset="1" stop-color="#26ED88"/>
</linearGradient>
<linearGradient id="paint3_linear_1_9710" x1="-11.5331" y1="25.7082" x2="60.0754" y2="165.283" gradientUnits="userSpaceOnUse">
<stop stop-color="#BCFA01"/>
<stop offset="1" stop-color="#26ED88"/>
</linearGradient>
<linearGradient id="paint4_linear_1_9710" x1="7.58186" y1="15.8939" x2="79.1905" y2="155.469" gradientUnits="userSpaceOnUse">
<stop stop-color="#BCFA01"/>
<stop offset="1" stop-color="#26ED88"/>
</linearGradient>
<linearGradient id="paint5_linear_1_9710" x1="7.771" y1="15.7941" x2="79.3797" y2="155.369" gradientUnits="userSpaceOnUse">
<stop stop-color="#BCFA01"/>
<stop offset="1" stop-color="#26ED88"/>
</linearGradient>
<linearGradient id="paint6_linear_1_9710" x1="27.0112" y1="5.92793" x2="98.6197" y2="145.503" gradientUnits="userSpaceOnUse">
<stop stop-color="#BCFA01"/>
<stop offset="1" stop-color="#26ED88"/>
</linearGradient>
<linearGradient id="paint7_linear_1_9710" x1="25.7085" y1="6.59346" x2="97.3174" y2="146.168" gradientUnits="userSpaceOnUse">
<stop stop-color="#BCFA01"/>
<stop offset="1" stop-color="#26ED88"/>
</linearGradient>
<linearGradient id="paint8_linear_1_9710" x1="45.4447" y1="-3.53232" x2="117.053" y2="136.042" gradientUnits="userSpaceOnUse">
<stop stop-color="#BCFA01"/>
<stop offset="1" stop-color="#26ED88"/>
</linearGradient>
<linearGradient id="paint9_linear_1_9710" x1="43.4011" y1="-2.48526" x2="115.01" y2="137.089" gradientUnits="userSpaceOnUse">
<stop stop-color="#BCFA01"/>
<stop offset="1" stop-color="#26ED88"/>
</linearGradient>
<linearGradient id="paint10_linear_1_9710" x1="63.386" y1="-12.7307" x2="134.995" y2="126.844" gradientUnits="userSpaceOnUse">
<stop stop-color="#BCFA01"/>
<stop offset="1" stop-color="#26ED88"/>
</linearGradient>
<linearGradient id="paint11_linear_1_9710" x1="62.6185" y1="-12.3451" x2="134.227" y2="127.23" gradientUnits="userSpaceOnUse">
<stop stop-color="#BCFA01"/>
<stop offset="1" stop-color="#26ED88"/>
</linearGradient>
<linearGradient id="paint12_linear_1_9710" x1="60.853" y1="-11.4354" x2="132.462" y2="128.139" gradientUnits="userSpaceOnUse">
<stop stop-color="#BCFA01"/>
<stop offset="1" stop-color="#26ED88"/>
</linearGradient>
<linearGradient id="paint13_linear_1_9710" x1="78.5078" y1="-20.4859" x2="150.11" y2="119.089" gradientUnits="userSpaceOnUse">
<stop stop-color="#BCFA01"/>
<stop offset="1" stop-color="#26ED88"/>
</linearGradient>
<linearGradient id="paint14_linear_1_9710" x1="4.46653" y1="17.4908" x2="76.0752" y2="157.066" gradientUnits="userSpaceOnUse">
<stop stop-color="#BCFA01"/>
<stop offset="1" stop-color="#26ED88"/>
</linearGradient>
<linearGradient id="paint15_linear_1_9710" x1="23.0518" y1="7.95691" x2="94.6605" y2="147.532" gradientUnits="userSpaceOnUse">
<stop stop-color="#BCFA01"/>
<stop offset="1" stop-color="#26ED88"/>
</linearGradient>
<linearGradient id="paint16_linear_1_9710" x1="25.0345" y1="6.94199" x2="96.6431" y2="146.517" gradientUnits="userSpaceOnUse">
<stop stop-color="#BCFA01"/>
<stop offset="1" stop-color="#26ED88"/>
</linearGradient>
<linearGradient id="paint17_linear_1_9710" x1="42.7779" y1="-2.15612" x2="114.387" y2="137.419" gradientUnits="userSpaceOnUse">
<stop stop-color="#BCFA01"/>
<stop offset="1" stop-color="#26ED88"/>
</linearGradient>
</defs>
</svg>
