<svg width="63" height="64" viewBox="0 0 63 64" fill="none" xmlns="http://www.w3.org/2000/svg">
<path d="M36.8002 46.3999L41.2002 44.5999L43.4002 45.7999L46.1002 43.0999L44.8002 40.8999L46.7002 36.4999L49.3002 35.6999V31.7999L46.7002 30.8999L44.9002 26.8999L46.3002 24.2999L43.5002 21.5999L40.9002 22.7999L36.6002 21.0999L35.9002 18.3999H34.2002V25.5999C38.6002 25.7999 42.1002 29.2999 42.1002 33.6999C42.1002 38.0999 38.6002 41.6999 34.2002 41.7999V48.8999H35.8002L36.8002 46.3999Z" fill="#D6DBE9"/>
<path d="M33.0004 62.0001H4.00039C3.40039 62.0001 2.90039 60.7001 2.90039 59.3001V4.8001C2.90039 3.2001 3.40039 2.1001 4.00039 2.1001H33.0004C33.6004 2.1001 34.1004 3.4001 34.1004 4.8001V59.1001C34.1004 60.8001 33.6004 62.0001 33.0004 62.0001Z" stroke="#204ECF" stroke-width="0.75"/>
<path d="M12.9 25.8L8.5 30.2L12.9 34.6M24 34.5L28.4 30.1L24 25.8M21.6 25L15.3 35.3" stroke="#204ECF" stroke-width="0.75"/>
<path d="M35.6996 19L36.2996 21.4C36.2996 21.6 36.4996 21.7001 36.5996 21.7001C38.0996 22.0001 39.5996 22.6 40.8996 23.5C40.9996 23.6 41.1996 23.6 41.3996 23.5L43.4996 22.2001L45.7996 24.5L44.4996 26.6C44.3996 26.7001 44.3996 26.9001 44.4996 27.1C45.3996 28.4001 45.9996 29.9 46.2996 31.4C46.2996 31.6 46.4996 31.7001 46.5996 31.7001L48.9996 32.6V35.6L46.5996 36.1C46.3996 36.1 46.2996 36.3001 46.2996 36.4001C45.9996 37.9001 45.3996 39.4001 44.4996 40.7001C44.3996 40.8001 44.3996 41 44.4996 41.2001L45.5996 43.5L43.2996 45.8L41.3996 44.3C41.2996 44.2 41.0996 44.2 40.8996 44.3C39.5996 45.2 38.0996 45.8 36.5996 46.1C36.3996 46.1 36.2996 46.3001 36.2996 46.4001L35.6996 48.8H34.0996V49.7001H35.9996C36.1996 49.7001 36.3996 49.6001 36.3996 49.4001L36.9996 47C38.4996 46.7001 39.7996 46.1 41.0996 45.3L43.1996 46.6C43.3996 46.7 43.5996 46.7001 43.6996 46.5L46.3996 43.8C46.4996 43.7 46.5996 43.4 46.4996 43.3L45.1996 41.2001C45.9996 39.9001 46.5996 38.5 46.8996 37.1L49.2996 36.5C49.4996 36.5 49.5996 36.3 49.5996 36.1V32.2001C49.5996 32.0001 49.4996 31.8 49.2996 31.8L46.8996 30.9C46.5996 29.4 45.9996 28.1 45.1996 26.8L46.4996 24.7001C46.5996 24.5001 46.5996 24.3001 46.3996 24.2001L43.6996 21.5C43.5996 21.4 43.2996 21.3 43.1996 21.4L41.0996 22.7001C39.7996 21.9001 38.3996 21.3 36.9996 21L36.3996 18.6C36.3996 18.4 36.1996 18.3 35.9996 18.3H34.0996V19.2001H35.6996V19Z" fill="#204ECF"/>
<path d="M41.5 33.8001C41.5 37.9001 38.2 41.3001 34 41.3001V42.2001C38.6 42.2001 42.3 38.5001 42.3 33.9001C42.3 29.3001 38.6 25.6001 34 25.6001V26.3001C38.2 26.3001 41.5 29.7001 41.5 33.8001Z" fill="#204ECF"/>
<path d="M54.9002 24.6L57.1002 23.7L58.2002 24.3L59.5002 23L58.9002 21.9L59.8002 19.7L61.1002 19.3V17.4L59.8002 17L58.9002 15L59.6002 13.7L58.2002 12.4L56.9002 13L54.8002 12L54.5002 10.7H53.7002V14.3C55.9002 14.4 57.6002 16.1 57.6002 18.3C57.6002 20.5 55.9002 22.3 53.7002 22.3V25.8H54.5002L54.9002 24.6Z" fill="#D6DBE9"/>
<path d="M54.3 11L54.6 12.2C54.6 12.3 54.7 12.3 54.7 12.3C55.4 12.4 56.2 12.7 56.8 13.2C56.8 13.2 56.9 13.2 57 13.2L58 12.6L59.1 13.7L58.5 14.7C58.5 14.7 58.5 14.8 58.5 14.9C58.9 15.5 59.2 16.3 59.4 17C59.4 17.1 59.5 17.1 59.5 17.1L60.7 17.5V19L59.5 19.2C59.4 19.2 59.4 19.3 59.4 19.3C59.3 20 59 20.8 58.5 21.4C58.5 21.4 58.5 21.5 58.5 21.6L59 22.7L57.9 23.8L57 23.1C57 23.1 56.9 23.1 56.8 23.1C56.2 23.5 55.4 23.8 54.7 24C54.6 24 54.6 24.1 54.6 24.1L54.3 25.3H53.5V25.7H54.4C54.5 25.7 54.6 25.7 54.6 25.6L54.9 24.4C55.6 24.3 56.3 24 56.9 23.6L57.9 24.2C58 24.2 58.1 24.2 58.1 24.2L59.4 22.9C59.4 22.9 59.5 22.7 59.4 22.7L59 22C59.4 21.4 59.7 20.7 59.8 20L61 19.7C61.1 19.7 61.1 19.6 61.1 19.5V17.6C61.1 17.5 61.1 17.4 61 17.4L59.8 17C59.7 16.3 59.4 15.6 59 15L59.6 14C59.6 13.9 59.6 13.8 59.6 13.8L58.3 12.5C58.3 12.5 58.1 12.4 58.1 12.5L57.1 13.1C56.5 12.7 55.8 12.4 55.1 12.3L54.8 11.1C54.8 11 54.7 11 54.6 11H53.7V11.4L54.3 11Z" fill="#204ECF"/>
<path d="M57.2 18.3C57.2 20.3 55.6 22 53.5 22V22.4C55.8 22.4 57.6 20.6 57.6 18.3C57.6 16 55.8 14.2 53.5 14.2V14.5C55.6 14.6 57.2 16.3 57.2 18.3Z" fill="#204ECF"/>
<path d="M17.8004 60.4001C18.8497 60.4001 19.7004 59.5494 19.7004 58.5001C19.7004 57.4508 18.8497 56.6001 17.8004 56.6001C16.751 56.6001 15.9004 57.4508 15.9004 58.5001C15.9004 59.5494 16.751 60.4001 17.8004 60.4001Z" stroke="#204ECF" stroke-width="0.75"/>
<path d="M22.3998 5.49995H14.1998C13.6998 5.49995 13.2998 5.09995 13.2998 4.59995C13.2998 4.09995 13.6998 3.69995 14.1998 3.69995H22.3998C22.8998 3.69995 23.2998 4.09995 23.2998 4.59995C23.2998 5.09995 22.8998 5.49995 22.3998 5.49995Z" fill="#D6DBE9" stroke="#204ECF" stroke-width="0.75"/>
<path d="M52.7996 25.8H53.5996V22.3C51.3996 22.3 49.6996 20.5 49.6996 18.3C49.6996 16.1 51.3996 14.4 53.5996 14.3V10.7H52.7996L52.3996 12L50.2996 12.8L48.9996 12.3L47.5996 13.6L48.2996 14.9L47.3996 16.9L46.0996 17.3V19.2L47.3996 19.6L48.2996 21.8L47.6996 22.9L48.9996 24.2L50.0996 23.6L52.2996 24.5L52.7996 25.8Z" fill="#D6DBE9"/>
<path d="M52.8002 11.1H53.6002V10.7H52.7002C52.6002 10.7 52.5002 10.7 52.5002 10.8L52.2002 12C51.5002 12.1 50.8002 12.4 50.2002 12.8L49.2002 12.2H49.0002L47.7002 13.5C47.6002 13.5 47.6002 13.6 47.7002 13.7L48.3002 14.7C47.9002 15.3 47.6002 16 47.5002 16.7L46.3002 17.1C46.2002 17.1 46.2002 17.2 46.2002 17.3V19.2C46.2002 19.3 46.2002 19.4 46.3002 19.4L47.5002 19.7C47.6002 20.4 47.9002 21.1 48.3002 21.7L47.7002 22.7V22.9L49.0002 24.2C49.0002 24.3 49.1002 24.3 49.2002 24.2L50.2002 23.6C50.8002 24 51.5002 24.3 52.2002 24.4L52.5002 25.6C52.5002 25.7 52.6002 25.7 52.7002 25.7H53.6002V25.3H52.8002L52.5002 24.1C52.5002 24.1 52.5002 24 52.4002 24C51.7002 23.9 50.9002 23.6 50.3002 23.1C50.2002 23.1 50.1002 23.1 50.1002 23.1L49.2002 23.8L48.1002 22.7L48.6002 21.6C48.6002 21.5 48.6002 21.4 48.6002 21.4C48.2002 20.8 47.9002 20 47.7002 19.3C47.7002 19.3 47.7002 19.2 47.6002 19.2L46.4002 19V17.5L47.6002 17.1C47.6002 17.1 47.7002 17.1 47.7002 17C47.8002 16.3 48.1002 15.5 48.6002 14.9C48.6002 14.8 48.6002 14.7 48.6002 14.7L48.0002 13.7L49.1002 12.6L50.1002 13.2C50.2002 13.2 50.3002 13.2 50.3002 13.2C50.9002 12.8 51.7002 12.5 52.4002 12.3C52.4002 12.3 52.5002 12.3 52.5002 12.2L52.8002 11.1Z" fill="#204ECF"/>
<path d="M53.6996 14.6V14.3C51.3996 14.3 49.5996 16.1 49.5996 18.4C49.5996 20.7 51.3996 22.5 53.6996 22.5V22C51.5996 22 49.9996 20.3 49.9996 18.3C49.9996 16.3 51.5996 14.6 53.6996 14.6Z" fill="#204ECF"/>
</svg>
