<svg width="1297" height="180" viewBox="0 0 1297 180" fill="none" xmlns="http://www.w3.org/2000/svg">
<circle cx="208.5" cy="33.5" r="30" stroke="white"/>
<path d="M210.167 44V25.8H208.607L204.317 28.088V29.752L208.607 27.49V44H210.167Z" fill="white"/>
<path d="M580.354 32.3535C580.549 32.1583 580.549 31.8417 580.354 31.6464L577.172 28.4644C576.976 28.2692 576.66 28.2692 576.464 28.4644C576.269 28.6597 576.269 28.9763 576.464 29.1715L579.293 32L576.464 34.8284C576.269 35.0237 576.269 35.3402 576.464 35.5355C576.66 35.7308 576.976 35.7308 577.172 35.5355L580.354 32.3535ZM239 32.5L580 32.5L580 31.5L239 31.5L239 32.5Z" fill="white"/>
<path d="M1036.35 32.3535C1036.55 32.1583 1036.55 31.8417 1036.35 31.6464L1033.17 28.4644C1032.98 28.2692 1032.66 28.2692 1032.46 28.4644C1032.27 28.6597 1032.27 28.9763 1032.46 29.1715L1035.29 32L1032.46 34.8284C1032.27 35.0237 1032.27 35.3402 1032.46 35.5355C1032.66 35.7308 1032.98 35.7308 1033.17 35.5355L1036.35 32.3535ZM695 32.5L1036 32.5L1036 31.5L695 31.5L695 32.5Z" fill="white"/>
<path d="M152.354 32.3536C152.549 32.1583 152.549 31.8417 152.354 31.6465L149.172 28.4645C148.976 28.2692 148.66 28.2692 148.464 28.4645C148.269 28.6597 148.269 28.9763 148.464 29.1716L151.293 32L148.464 34.8284C148.269 35.0237 148.269 35.3403 148.464 35.5355C148.66 35.7308 148.976 35.7308 149.172 35.5355L152.354 32.3536ZM-4.37114e-08 32.5L152 32.5L152 31.5L4.37114e-08 31.5L-4.37114e-08 32.5Z" fill="white" fill-opacity="0.5"/>
<path d="M1296.35 32.3535C1296.55 32.1583 1296.55 31.8417 1296.35 31.6464L1293.17 28.4645C1292.98 28.2692 1292.66 28.2692 1292.46 28.4645C1292.27 28.6597 1292.27 28.9763 1292.46 29.1716L1295.29 32L1292.46 34.8284C1292.27 35.0237 1292.27 35.3403 1292.46 35.5355C1292.66 35.7308 1292.98 35.7308 1293.17 35.5355L1296.35 32.3535ZM1144 32.5L1296 32.5L1296 31.5L1144 31.5L1144 32.5Z" fill="white" fill-opacity="0.5"/>
<circle cx="644.5" cy="33.5" r="30" stroke="white"/>
<path d="M640.285 42.466L646.577 36.486C648.709 34.458 649.905 32.742 649.905 30.636C649.905 27.386 647.487 25.54 644.107 25.54C641.247 25.54 638.517 27.412 638.257 30.662H639.947C640.077 28.504 641.845 26.944 644.133 26.944C646.915 26.944 648.267 28.4 648.267 30.74C648.267 32.326 647.487 33.652 645.277 35.758L638.205 42.544V44H650.035V42.466H640.285Z" fill="white"/>
<circle cx="1089.5" cy="33.5" r="30" stroke="white"/>
<path d="M1091.89 34.562C1093.89 33.756 1094.8 32.092 1094.8 30.324C1094.8 27.386 1092.54 25.54 1089.13 25.54C1085.33 25.54 1082.97 27.62 1082.97 30.766H1084.66C1084.66 28.452 1086.22 26.944 1089.1 26.944C1091.6 26.944 1093.13 28.218 1093.13 30.324C1093.13 32.43 1091.78 33.834 1089.08 33.834H1087.88V35.342H1089.13C1091.94 35.342 1093.65 36.772 1093.65 39.112C1093.65 41.4 1091.94 42.856 1089.1 42.856C1086.22 42.856 1084.66 41.348 1084.66 39.034H1082.97C1082.97 42.18 1085.33 44.26 1089.13 44.26C1092.98 44.26 1095.32 42.258 1095.32 39.138C1095.32 37.058 1094.17 35.16 1091.89 34.562Z" fill="white"/>
<path d="M172.699 108.262V103.026H179.255V101.332H172.699V96.206H180.993V94.468H170.807V110H181.411V108.262H172.699ZM182.636 110H184.77L187.916 105.424L191.062 110H193.196L189.192 104.346L193.218 98.868H191.062L187.916 103.312L184.77 98.868H182.614L186.64 104.368L182.636 110ZM201.02 98.648C199.304 98.648 197.742 99.418 196.95 100.716L196.752 98.868H195.146V114.4H196.95V108.196C197.72 109.516 199.304 110.22 201.02 110.22C203.946 110.22 206.322 108.13 206.322 104.456C206.322 100.716 203.902 98.648 201.02 98.648ZM200.734 108.636C198.644 108.636 197.016 107.096 197.016 104.5C197.016 101.882 198.644 100.232 200.734 100.254C202.934 100.254 204.452 101.86 204.452 104.456C204.452 107.074 202.912 108.636 200.734 108.636ZM210.829 93.808H209.025V110H210.829V93.808ZM213.548 104.456C213.548 107.866 215.814 110.22 219.18 110.22C222.546 110.22 224.834 107.866 224.834 104.456C224.834 101.024 222.546 98.648 219.18 98.648C215.814 98.648 213.548 101.024 213.548 104.456ZM215.396 104.434C215.396 101.838 216.914 100.188 219.18 100.188C221.446 100.188 222.964 101.838 222.964 104.434C222.964 106.986 221.446 108.658 219.18 108.658C216.914 108.658 215.396 106.986 215.396 104.434ZM232.187 98.868C230.889 98.868 229.833 99.572 229.371 100.452L229.129 98.868H227.545V110H229.349V103.862C229.349 101.794 230.207 100.54 232.121 100.54H233.595V98.868H232.187ZM245.75 104.148C245.75 100.848 243.616 98.648 240.404 98.648C237.148 98.648 234.97 100.936 234.97 104.412C234.97 107.888 237.148 110.198 240.426 110.198C243.066 110.198 244.98 108.724 245.618 106.502H243.77C243.22 107.954 241.966 108.68 240.47 108.68C238.468 108.68 236.862 107.404 236.818 104.94H245.75V104.148ZM240.404 100.122C242.274 100.122 243.77 101.288 243.902 103.598H236.84C237.06 101.266 238.534 100.122 240.404 100.122Z" fill="white"/>
<path d="M598.356 106.866L592.658 93.468H590.458V109H592.328V100.706C592.328 99.452 592.328 97.978 592.174 96.658L597.41 109H599.236L604.516 96.79C604.362 98.044 604.318 99.452 604.318 100.706V109H606.188V93.468H604.032L598.356 106.866ZM619.302 107.592C618.664 107.592 618.488 107.438 618.488 106.734V101.96C618.488 99.166 616.684 97.648 613.912 97.648C611.316 97.648 609.402 98.924 609.27 101.278H611.008C611.096 99.958 612.152 99.144 613.846 99.144C615.496 99.144 616.662 99.98 616.662 101.982V102.598H613.142C609.974 102.598 608.874 104.028 608.874 105.81C608.874 107.922 610.414 109.22 612.9 109.22C614.682 109.22 616.134 108.516 616.794 107.482C616.904 108.648 617.718 109 618.598 109H619.698V107.592H619.302ZM616.662 104.446C616.662 106.712 615.034 107.724 613.208 107.724C611.778 107.724 610.744 107.086 610.744 105.788C610.744 104.732 611.404 103.94 613.318 103.94H616.662V104.446ZM625.038 109H626.71V107.372H625.456C624.378 107.372 624.114 106.778 624.114 105.964V99.496H626.732V97.868H624.114V94.964H622.31V96.878C622.31 97.56 622.068 97.868 621.364 97.868H620.308V99.496H622.31V106.206C622.31 108.098 623.388 109 625.038 109ZM639.319 103.148C639.319 99.848 637.185 97.648 633.973 97.648C630.717 97.648 628.539 99.936 628.539 103.412C628.539 106.888 630.717 109.198 633.995 109.198C636.635 109.198 638.549 107.724 639.187 105.502H637.339C636.789 106.954 635.535 107.68 634.039 107.68C632.037 107.68 630.431 106.404 630.387 103.94H639.319V103.148ZM633.973 99.122C635.843 99.122 637.339 100.288 637.471 102.598H630.409C630.629 100.266 632.103 99.122 633.973 99.122ZM646.681 97.868C645.383 97.868 644.327 98.572 643.865 99.452L643.623 97.868H642.039V109H643.843V102.862C643.843 100.794 644.701 99.54 646.615 99.54H648.089V97.868H646.681ZM649.983 95.47H652.227V93.358H649.983V95.47ZM650.203 109H652.007V97.868H650.203V109ZM664.978 107.592C664.34 107.592 664.164 107.438 664.164 106.734V101.96C664.164 99.166 662.36 97.648 659.588 97.648C656.992 97.648 655.078 98.924 654.946 101.278H656.684C656.772 99.958 657.828 99.144 659.522 99.144C661.172 99.144 662.338 99.98 662.338 101.982V102.598H658.818C655.65 102.598 654.55 104.028 654.55 105.81C654.55 107.922 656.09 109.22 658.576 109.22C660.358 109.22 661.81 108.516 662.47 107.482C662.58 108.648 663.394 109 664.274 109H665.374V107.592H664.978ZM662.338 104.446C662.338 106.712 660.71 107.724 658.884 107.724C657.454 107.724 656.42 107.086 656.42 105.788C656.42 104.732 657.08 103.94 658.994 103.94H662.338V104.446ZM669.366 92.808H667.562V109H669.366V92.808ZM672.283 95.47H674.527V93.358H672.283V95.47ZM672.503 109H674.307V97.868H672.503V109ZM679.139 107.394L685.717 99.452V97.868H676.873V99.496H683.517L676.939 107.438V109H685.761V107.394H679.139ZM698.1 103.148C698.1 99.848 695.966 97.648 692.754 97.648C689.498 97.648 687.32 99.936 687.32 103.412C687.32 106.888 689.498 109.198 692.776 109.198C695.416 109.198 697.33 107.724 697.968 105.502H696.12C695.57 106.954 694.316 107.68 692.82 107.68C690.818 107.68 689.212 106.404 689.168 103.94H698.1V103.148ZM692.754 99.122C694.624 99.122 696.12 100.288 696.252 102.598H689.19C689.41 100.266 690.884 99.122 692.754 99.122Z" fill="white"/>
<path d="M1055.45 109.198C1059.85 109.198 1062.82 105.942 1062.82 101.278C1062.82 96.614 1059.85 93.248 1055.45 93.248C1051.02 93.248 1048.03 96.614 1048.03 101.278C1048.03 105.942 1051.02 109.198 1055.45 109.198ZM1055.45 107.416C1052.1 107.416 1050.01 104.952 1050.01 101.278C1050.01 97.604 1052.08 95.03 1055.45 95.03C1058.77 95.03 1060.84 97.604 1060.84 101.278C1060.84 104.952 1058.77 107.416 1055.45 107.416ZM1071.26 97.648C1069.54 97.648 1067.98 98.418 1067.19 99.716L1066.99 97.868H1065.38V113.4H1067.19V107.196C1067.96 108.516 1069.54 109.22 1071.26 109.22C1074.18 109.22 1076.56 107.13 1076.56 103.456C1076.56 99.716 1074.14 97.648 1071.26 97.648ZM1070.97 107.636C1068.88 107.636 1067.25 106.096 1067.25 103.5C1067.25 100.882 1068.88 99.232 1070.97 99.254C1073.17 99.254 1074.69 100.86 1074.69 103.456C1074.69 106.074 1073.15 107.636 1070.97 107.636ZM1089.52 103.148C1089.52 99.848 1087.38 97.648 1084.17 97.648C1080.92 97.648 1078.74 99.936 1078.74 103.412C1078.74 106.888 1080.92 109.198 1084.19 109.198C1086.83 109.198 1088.75 107.724 1089.39 105.502H1087.54C1086.99 106.954 1085.73 107.68 1084.24 107.68C1082.24 107.68 1080.63 106.404 1080.59 103.94H1089.52V103.148ZM1084.17 99.122C1086.04 99.122 1087.54 100.288 1087.67 102.598H1080.61C1080.83 100.266 1082.3 99.122 1084.17 99.122ZM1096.88 97.868C1095.58 97.868 1094.53 98.572 1094.06 99.452L1093.82 97.868H1092.24V109H1094.04V102.862C1094.04 100.794 1094.9 99.54 1096.81 99.54H1098.29V97.868H1096.88ZM1109.83 107.592C1109.19 107.592 1109.01 107.438 1109.01 106.734V101.96C1109.01 99.166 1107.21 97.648 1104.44 97.648C1101.84 97.648 1099.93 98.924 1099.8 101.278H1101.53C1101.62 99.958 1102.68 99.144 1104.37 99.144C1106.02 99.144 1107.19 99.98 1107.19 101.982V102.598H1103.67C1100.5 102.598 1099.4 104.028 1099.4 105.81C1099.4 107.922 1100.94 109.22 1103.43 109.22C1105.21 109.22 1106.66 108.516 1107.32 107.482C1107.43 108.648 1108.24 109 1109.12 109H1110.22V107.592H1109.83ZM1107.19 104.446C1107.19 106.712 1105.56 107.724 1103.73 107.724C1102.3 107.724 1101.27 107.086 1101.27 105.788C1101.27 104.732 1101.93 103.94 1103.84 103.94H1107.19V104.446ZM1115.56 109H1117.24V107.372H1115.98C1114.9 107.372 1114.64 106.778 1114.64 105.964V99.496H1117.26V97.868H1114.64V94.964H1112.84V96.878C1112.84 97.56 1112.59 97.868 1111.89 97.868H1110.83V99.496H1112.84V106.206C1112.84 108.098 1113.91 109 1115.56 109ZM1129.84 103.148C1129.84 99.848 1127.71 97.648 1124.5 97.648C1121.24 97.648 1119.06 99.936 1119.06 103.412C1119.06 106.888 1121.24 109.198 1124.52 109.198C1127.16 109.198 1129.07 107.724 1129.71 105.502H1127.86C1127.31 106.954 1126.06 107.68 1124.56 107.68C1122.56 107.68 1120.96 106.404 1120.91 103.94H1129.84V103.148ZM1124.5 99.122C1126.37 99.122 1127.86 100.288 1128 102.598H1120.93C1121.15 100.266 1122.63 99.122 1124.5 99.122Z" fill="white"/>
<path d="M494.058 135.192C495.162 134.6 495.642 133.672 495.642 132.648C495.642 130.952 494.33 129.8 492.106 129.8H487.578V141H492.538C494.73 141 496.058 139.784 496.058 137.976C496.058 136.6 495.29 135.592 494.058 135.192ZM494.65 132.76C494.65 134.072 493.722 134.792 492.346 134.792H488.554V130.712H492.106C493.77 130.712 494.65 131.48 494.65 132.76ZM492.362 140.088H488.554V135.688H492.538C494.138 135.688 495.034 136.552 495.034 137.912C495.034 139.224 494.17 140.088 492.362 140.088ZM503.645 133V137.384C503.645 139.064 502.781 140.28 501.165 140.28C499.837 140.28 498.877 139.432 498.877 137.624V133H497.949V137.8C497.949 139.848 499.117 141.16 501.021 141.16C502.189 141.16 503.181 140.648 503.661 139.656L503.805 141H504.557V133H503.645ZM506.789 131.048H508.149V129.8H506.789V131.048ZM507.013 141H507.925V133H507.013V141ZM511.3 129.32H510.388V141H511.3V129.32ZM520.339 129.32V134.424C519.715 133.416 518.563 132.84 517.267 132.84C515.251 132.84 513.427 134.344 513.427 137.048C513.427 139.736 515.235 141.16 517.267 141.16C518.499 141.16 519.715 140.584 520.339 139.544L520.499 141H521.267V129.32H520.339ZM517.347 140.36C515.619 140.36 514.387 139.144 514.387 137.048C514.387 134.984 515.587 133.672 517.347 133.656C518.995 133.64 520.307 134.968 520.307 137.048C520.307 139.144 518.995 140.36 517.347 140.36ZM533.831 140.248C533.303 140.248 533.191 140.104 533.191 139.56V135.928C533.191 134.072 532.135 132.84 530.023 132.84C528.263 132.84 526.935 133.688 526.791 135.32H527.735C527.815 134.264 528.631 133.64 529.991 133.64C531.303 133.64 532.263 134.28 532.263 135.96V136.44H529.575C527.191 136.44 526.471 137.496 526.471 138.728C526.471 140.216 527.575 141.16 529.351 141.16C530.679 141.16 531.799 140.6 532.263 139.832C532.311 140.728 532.887 141 533.479 141H534.103V140.248H533.831ZM529.431 140.36C528.247 140.36 527.431 139.816 527.431 138.744C527.431 137.848 527.991 137.208 529.575 137.208H532.263V137.608C532.263 139.544 530.839 140.36 529.431 140.36ZM539.442 132.84C538.21 132.84 537.202 133.352 536.722 134.344L536.578 133H535.826V141H536.738V136.616C536.738 134.936 537.618 133.72 539.298 133.72C540.69 133.72 541.666 134.568 541.666 136.376V141H542.594V136.2C542.594 134.152 541.41 132.84 539.442 132.84ZM551.542 129.32V134.424C550.918 133.416 549.766 132.84 548.47 132.84C546.454 132.84 544.63 134.344 544.63 137.048C544.63 139.736 546.438 141.16 548.47 141.16C549.702 141.16 550.918 140.584 551.542 139.544L551.702 141H552.47V129.32H551.542ZM548.55 140.36C546.822 140.36 545.59 139.144 545.59 137.048C545.59 134.984 546.79 133.672 548.55 133.656C550.198 133.64 551.51 134.968 551.51 137.048C551.51 139.144 550.198 140.36 548.55 140.36ZM560.394 141H561.402V140.152H560.522C559.706 140.152 559.514 139.64 559.514 139.112V133.832H561.418V133H559.514V130.952H558.602V132.328C558.602 132.792 558.426 133 557.914 133H557.082V133.832H558.602V139.16C558.602 140.472 559.386 141 560.394 141ZM570.499 136.76C570.499 134.424 568.979 132.84 566.707 132.84C564.387 132.84 562.835 134.488 562.835 136.984C562.835 139.48 564.387 141.128 566.739 141.128C568.579 141.128 569.891 140.104 570.387 138.536H569.443C568.979 139.72 567.955 140.328 566.739 140.328C565.139 140.328 563.843 139.304 563.795 137.272H570.499V136.76ZM566.707 133.624C568.243 133.624 569.427 134.584 569.539 136.488H563.811C563.987 134.584 565.187 133.624 566.707 133.624ZM572.142 138.712C572.19 140.2 573.358 141.16 575.454 141.16C577.262 141.16 578.638 140.28 578.638 138.76C578.638 137.496 577.918 136.856 576.494 136.648L574.798 136.392C573.71 136.248 573.246 135.848 573.246 135.08C573.246 134.152 574.11 133.624 575.342 133.624C576.606 133.624 577.518 134.2 577.55 135.288H578.478C578.446 133.688 577.134 132.84 575.326 132.84C573.614 132.84 572.35 133.72 572.35 135.08C572.35 136.344 573.118 137 574.622 137.224L576.334 137.48C577.294 137.608 577.71 138.024 577.71 138.84C577.71 139.816 576.814 140.376 575.422 140.376C574.03 140.376 573.15 139.768 573.102 138.712H572.142ZM582.832 141H583.84V140.152H582.96C582.144 140.152 581.952 139.64 581.952 139.112V133.832H583.856V133H581.952V130.952H581.04V132.328C581.04 132.792 580.864 133 580.352 133H579.52V133.832H581.04V139.16C581.04 140.472 581.824 141 582.832 141ZM595.862 140.248C595.334 140.248 595.222 140.104 595.222 139.56V135.928C595.222 134.072 594.166 132.84 592.054 132.84C590.294 132.84 588.966 133.688 588.822 135.32H589.766C589.846 134.264 590.662 133.64 592.022 133.64C593.334 133.64 594.294 134.28 594.294 135.96V136.44H591.606C589.222 136.44 588.502 137.496 588.502 138.728C588.502 140.216 589.606 141.16 591.382 141.16C592.71 141.16 593.83 140.6 594.294 139.832C594.342 140.728 594.918 141 595.51 141H596.134V140.248H595.862ZM591.462 140.36C590.278 140.36 589.462 139.816 589.462 138.744C589.462 137.848 590.022 137.208 591.606 137.208H594.294V137.608C594.294 139.544 592.87 140.36 591.462 140.36ZM609.492 132.84C608.484 132.84 607.38 133.32 606.884 134.456C606.436 133.416 605.476 132.84 604.212 132.84C603.348 132.84 602.42 133.176 601.972 133.976L601.812 133H601.06V141H601.972V136.088C601.972 134.648 602.788 133.72 604.212 133.72C605.508 133.72 606.228 134.584 606.228 136.136V141H607.14V136.2C607.188 134.504 608.164 133.72 609.364 133.72C610.596 133.72 611.396 134.376 611.396 136.04V141H612.34V135.912C612.34 134.072 611.332 132.84 609.492 132.84ZM621.597 140.248C621.069 140.248 620.957 140.104 620.957 139.56V135.928C620.957 134.072 619.901 132.84 617.789 132.84C616.029 132.84 614.701 133.688 614.557 135.32H615.501C615.581 134.264 616.397 133.64 617.757 133.64C619.069 133.64 620.029 134.28 620.029 135.96V136.44H617.341C614.957 136.44 614.237 137.496 614.237 138.728C614.237 140.216 615.341 141.16 617.117 141.16C618.445 141.16 619.565 140.6 620.029 139.832C620.077 140.728 620.653 141 621.245 141H621.869V140.248H621.597ZM617.197 140.36C616.013 140.36 615.197 139.816 615.197 138.744C615.197 137.848 615.757 137.208 617.341 137.208H620.029V137.608C620.029 139.544 618.605 140.36 617.197 140.36ZM626.647 133C625.719 133 624.839 133.528 624.487 134.264L624.343 133H623.591V141H624.503V136.456C624.503 134.856 625.223 133.88 626.631 133.88H627.623V133H626.647ZM629.31 141H630.222V138.488L631.502 137.176L634.51 141H635.662L632.142 136.536L635.63 133H634.446L630.222 137.256V129.32H629.31V141ZM644.171 136.76C644.171 134.424 642.651 132.84 640.379 132.84C638.059 132.84 636.507 134.488 636.507 136.984C636.507 139.48 638.059 141.128 640.411 141.128C642.251 141.128 643.563 140.104 644.059 138.536H643.115C642.651 139.72 641.627 140.328 640.411 140.328C638.811 140.328 637.515 139.304 637.467 137.272H644.171V136.76ZM640.379 133.624C641.915 133.624 643.099 134.584 643.211 136.488H637.483C637.659 134.584 638.859 133.624 640.379 133.624ZM648.566 141H649.574V140.152H648.694C647.878 140.152 647.686 139.64 647.686 139.112V133.832H649.59V133H647.686V130.952H646.774V132.328C646.774 132.792 646.598 133 646.086 133H645.254V133.832H646.774V139.16C646.774 140.472 647.558 141 648.566 141ZM650.913 136.008V136.952H655.601V136.008H650.913ZM660.851 133C659.923 133 659.043 133.528 658.691 134.264L658.547 133H657.795V141H658.707V136.456C658.707 134.856 659.427 133.88 660.835 133.88H661.827V133H660.851ZM670.609 136.76C670.609 134.424 669.089 132.84 666.817 132.84C664.497 132.84 662.945 134.488 662.945 136.984C662.945 139.48 664.497 141.128 666.849 141.128C668.689 141.128 670.001 140.104 670.497 138.536H669.553C669.089 139.72 668.065 140.328 666.849 140.328C665.249 140.328 663.953 139.304 663.905 137.272H670.609V136.76ZM666.817 133.624C668.353 133.624 669.537 134.584 669.649 136.488H663.921C664.097 134.584 665.297 133.624 666.817 133.624ZM679.644 140.248C679.116 140.248 679.004 140.104 679.004 139.56V135.928C679.004 134.072 677.948 132.84 675.836 132.84C674.076 132.84 672.748 133.688 672.604 135.32H673.548C673.628 134.264 674.444 133.64 675.804 133.64C677.116 133.64 678.076 134.28 678.076 135.96V136.44H675.388C673.004 136.44 672.284 137.496 672.284 138.728C672.284 140.216 673.388 141.16 675.164 141.16C676.492 141.16 677.612 140.6 678.076 139.832C678.124 140.728 678.7 141 679.292 141H679.916V140.248H679.644ZM675.244 140.36C674.06 140.36 673.244 139.816 673.244 138.744C673.244 137.848 673.804 137.208 675.388 137.208H678.076V137.608C678.076 139.544 676.652 140.36 675.244 140.36ZM688.214 129.32V134.424C687.59 133.416 686.438 132.84 685.142 132.84C683.126 132.84 681.302 134.344 681.302 137.048C681.302 139.736 683.11 141.16 685.142 141.16C686.374 141.16 687.59 140.584 688.214 139.544L688.374 141H689.142V129.32H688.214ZM685.222 140.36C683.494 140.36 682.262 139.144 682.262 137.048C682.262 134.984 683.462 133.672 685.222 133.656C686.87 133.64 688.182 134.968 688.182 137.048C688.182 139.144 686.87 140.36 685.222 140.36ZM691.591 133H690.567L693.655 141C693.751 141.256 693.799 141.512 693.799 141.752C693.799 142.824 693.207 143.352 692.247 143.352H690.791V144.2H692.215C693.367 144.2 694.135 143.848 694.695 142.312L698.055 133L697.063 132.984L694.439 140.6L691.591 133ZM706.669 132.84C705.437 132.84 704.237 133.384 703.597 134.44L703.453 133H702.685V144.2H703.597V139.608C704.221 140.648 705.437 141.16 706.669 141.16C708.701 141.16 710.509 139.704 710.509 137.016C710.509 134.312 708.685 132.84 706.669 132.84ZM706.589 140.36C704.941 140.36 703.629 139.144 703.629 137.048C703.629 134.952 704.941 133.624 706.589 133.64C708.349 133.656 709.549 134.936 709.549 137.016C709.549 139.112 708.317 140.36 706.589 140.36ZM715.694 133C714.766 133 713.886 133.528 713.534 134.264L713.39 133H712.638V141H713.55V136.456C713.55 134.856 714.27 133.88 715.678 133.88H716.67V133H715.694ZM717.709 137.016C717.709 139.448 719.293 141.16 721.709 141.16C724.125 141.16 725.709 139.448 725.709 137.016C725.709 134.552 724.125 132.84 721.709 132.84C719.293 132.84 717.709 134.552 717.709 137.016ZM718.669 137C718.669 134.952 719.885 133.64 721.709 133.64C723.533 133.64 724.749 134.952 724.749 137C724.749 139.032 723.533 140.344 721.709 140.344C719.885 140.344 718.669 139.032 718.669 137ZM734.261 129.32V134.424C733.637 133.416 732.485 132.84 731.189 132.84C729.173 132.84 727.349 134.344 727.349 137.048C727.349 139.736 729.157 141.16 731.189 141.16C732.421 141.16 733.637 140.584 734.261 139.544L734.421 141H735.189V129.32H734.261ZM731.269 140.36C729.541 140.36 728.309 139.144 728.309 137.048C728.309 134.984 729.509 133.672 731.269 133.656C732.917 133.64 734.229 134.968 734.229 137.048C734.229 139.144 732.917 140.36 731.269 140.36ZM743.254 133V137.384C743.254 139.064 742.39 140.28 740.774 140.28C739.446 140.28 738.486 139.432 738.486 137.624V133H737.558V137.8C737.558 139.848 738.726 141.16 740.63 141.16C741.798 141.16 742.79 140.648 743.27 139.656L743.414 141H744.166V133H743.254ZM752.783 135.48H753.807C753.295 133.832 751.951 132.84 750.143 132.84C747.839 132.84 746.287 134.488 746.287 136.984C746.287 139.48 747.839 141.128 750.143 141.128C751.999 141.128 753.359 140.024 753.839 138.36H752.863C752.415 139.592 751.407 140.312 750.159 140.312C748.511 140.312 747.247 139.192 747.247 136.984C747.247 134.76 748.511 133.64 750.159 133.64C751.359 133.64 752.319 134.328 752.783 135.48ZM757.707 141H758.715V140.152H757.835C757.019 140.152 756.827 139.64 756.827 139.112V133.832H758.731V133H756.827V130.952H755.915V132.328C755.915 132.792 755.739 133 755.227 133H754.395V133.832H755.915V139.16C755.915 140.472 756.699 141 757.707 141ZM769.441 133V137.384C769.441 139.064 768.577 140.28 766.961 140.28C765.633 140.28 764.673 139.432 764.673 137.624V133H763.745V137.8C763.745 139.848 764.913 141.16 766.817 141.16C767.985 141.16 768.977 140.648 769.457 139.656L769.601 141H770.353V133H769.441ZM772.314 138.712C772.362 140.2 773.53 141.16 775.626 141.16C777.434 141.16 778.81 140.28 778.81 138.76C778.81 137.496 778.09 136.856 776.666 136.648L774.97 136.392C773.882 136.248 773.418 135.848 773.418 135.08C773.418 134.152 774.282 133.624 775.514 133.624C776.778 133.624 777.69 134.2 777.722 135.288H778.65C778.618 133.688 777.306 132.84 775.498 132.84C773.786 132.84 772.522 133.72 772.522 135.08C772.522 136.344 773.29 137 774.794 137.224L776.506 137.48C777.466 137.608 777.882 138.024 777.882 138.84C777.882 139.816 776.986 140.376 775.594 140.376C774.202 140.376 773.322 139.768 773.274 138.712H772.314ZM780.68 131.048H782.04V129.8H780.68V131.048ZM780.904 141H781.816V133H780.904V141ZM787.895 132.84C786.663 132.84 785.655 133.352 785.175 134.344L785.031 133H784.279V141H785.191V136.616C785.191 134.936 786.071 133.72 787.751 133.72C789.143 133.72 790.119 134.568 790.119 136.376V141H791.047V136.2C791.047 134.152 789.863 132.84 787.895 132.84ZM799.74 133L799.58 134.456C799.036 133.416 797.884 132.84 796.652 132.84C794.668 132.84 793.084 134.312 793.084 136.856C793.084 139.4 794.7 140.84 796.652 140.84C797.932 140.84 799.1 140.232 799.596 139.144V140.92C799.596 142.504 798.62 143.56 796.844 143.56C795.612 143.56 794.636 142.952 794.332 141.768H793.324C793.66 143.336 794.988 144.36 796.844 144.36C799.068 144.36 800.508 142.92 800.508 140.776V133H799.74ZM796.748 140.04C795.084 140.04 794.044 138.808 794.044 136.872C794.044 134.952 795.068 133.624 796.748 133.624C798.428 133.624 799.548 134.936 799.548 136.872C799.548 138.824 798.412 140.04 796.748 140.04ZM534.779 167.016C534.779 169.448 536.363 171.16 538.779 171.16C541.195 171.16 542.779 169.448 542.779 167.016C542.779 164.552 541.195 162.84 538.779 162.84C536.363 162.84 534.779 164.552 534.779 167.016ZM535.739 167C535.739 164.952 536.955 163.64 538.779 163.64C540.603 163.64 541.819 164.952 541.819 167C541.819 169.032 540.603 170.344 538.779 170.344C536.955 170.344 535.739 169.032 535.739 167ZM550.512 163V167.384C550.512 169.064 549.648 170.28 548.032 170.28C546.704 170.28 545.744 169.432 545.744 167.624V163H544.816V167.8C544.816 169.848 545.984 171.16 547.888 171.16C549.056 171.16 550.048 170.648 550.528 169.656L550.672 171H551.424V163H550.512ZM556.936 163C556.008 163 555.128 163.528 554.776 164.264L554.632 163H553.88V171H554.792V166.456C554.792 164.856 555.512 163.88 556.92 163.88H557.912V163H556.936ZM568.962 165.48H569.986C569.474 163.832 568.13 162.84 566.322 162.84C564.018 162.84 562.466 164.488 562.466 166.984C562.466 169.48 564.018 171.128 566.322 171.128C568.178 171.128 569.538 170.024 570.018 168.36H569.042C568.594 169.592 567.586 170.312 566.338 170.312C564.69 170.312 563.426 169.192 563.426 166.984C563.426 164.76 564.69 163.64 566.338 163.64C567.538 163.64 568.498 164.328 568.962 165.48ZM574.999 163C574.071 163 573.191 163.528 572.839 164.264L572.695 163H571.943V171H572.855V166.456C572.855 164.856 573.575 163.88 574.983 163.88H575.975V163H574.999ZM584.757 166.76C584.757 164.424 583.237 162.84 580.965 162.84C578.645 162.84 577.093 164.488 577.093 166.984C577.093 169.48 578.645 171.128 580.997 171.128C582.837 171.128 584.149 170.104 584.645 168.536H583.701C583.237 169.72 582.213 170.328 580.997 170.328C579.397 170.328 578.101 169.304 578.053 167.272H584.757V166.76ZM580.965 163.624C582.501 163.624 583.685 164.584 583.797 166.488H578.069C578.245 164.584 579.445 163.624 580.965 163.624ZM593.792 170.248C593.264 170.248 593.152 170.104 593.152 169.56V165.928C593.152 164.072 592.096 162.84 589.984 162.84C588.224 162.84 586.896 163.688 586.752 165.32H587.696C587.776 164.264 588.592 163.64 589.952 163.64C591.264 163.64 592.224 164.28 592.224 165.96V166.44H589.536C587.152 166.44 586.432 167.496 586.432 168.728C586.432 170.216 587.536 171.16 589.312 171.16C590.64 171.16 591.76 170.6 592.224 169.832C592.272 170.728 592.848 171 593.44 171H594.064V170.248H593.792ZM589.392 170.36C588.208 170.36 587.392 169.816 587.392 168.744C587.392 167.848 587.952 167.208 589.536 167.208H592.224V167.608C592.224 169.544 590.8 170.36 589.392 170.36ZM597.886 171H598.894V170.152H598.014C597.198 170.152 597.006 169.64 597.006 169.112V163.832H598.91V163H597.006V160.952H596.094V162.328C596.094 162.792 595.918 163 595.406 163H594.574V163.832H596.094V169.16C596.094 170.472 596.878 171 597.886 171ZM600.594 161.048H601.954V159.8H600.594V161.048ZM600.818 171H601.73V163H600.818V171ZM604.177 163H603.153L606.593 171H607.537L610.977 163H609.985L607.073 169.864L604.177 163ZM619.492 166.76C619.492 164.424 617.972 162.84 615.7 162.84C613.38 162.84 611.828 164.488 611.828 166.984C611.828 169.48 613.38 171.128 615.732 171.128C617.572 171.128 618.884 170.104 619.38 168.536H618.436C617.972 169.72 616.948 170.328 615.732 170.328C614.132 170.328 612.836 169.304 612.788 167.272H619.492V166.76ZM615.7 163.624C617.236 163.624 618.42 164.584 618.532 166.488H612.804C612.98 164.584 614.18 163.624 615.7 163.624ZM622.542 159.32H621.63V171H622.542V159.32ZM624.989 163H623.965L627.053 171C627.149 171.256 627.197 171.512 627.197 171.752C627.197 172.824 626.605 173.352 625.645 173.352H624.189V174.2H625.613C626.765 174.2 627.533 173.848 628.093 172.312L631.453 163L630.461 162.984L627.837 170.6L624.989 163ZM640.068 162.84C638.804 162.84 637.636 163.4 637.012 164.472V159.32H636.084V171H636.852L636.996 169.64C637.636 170.664 638.852 171.16 640.068 171.16C642.1 171.16 643.908 169.704 643.908 167.016C643.908 164.312 642.084 162.84 640.068 162.84ZM639.988 170.36C638.34 170.36 637.028 169.144 637.028 167.048C637.028 164.952 638.34 163.624 639.988 163.64C641.748 163.656 642.948 164.936 642.948 167.016C642.948 169.112 641.716 170.36 639.988 170.36ZM649.093 163C648.165 163 647.285 163.528 646.933 164.264L646.789 163H646.037V171H646.949V166.456C646.949 164.856 647.669 163.88 649.077 163.88H650.069V163H649.093ZM658.276 170.248C657.748 170.248 657.636 170.104 657.636 169.56V165.928C657.636 164.072 656.58 162.84 654.468 162.84C652.708 162.84 651.38 163.688 651.236 165.32H652.18C652.26 164.264 653.076 163.64 654.436 163.64C655.748 163.64 656.708 164.28 656.708 165.96V166.44H654.02C651.636 166.44 650.916 167.496 650.916 168.728C650.916 170.216 652.02 171.16 653.796 171.16C655.124 171.16 656.244 170.6 656.708 169.832C656.756 170.728 657.332 171 657.924 171H658.548V170.248H658.276ZM653.876 170.36C652.692 170.36 651.876 169.816 651.876 168.744C651.876 167.848 652.436 167.208 654.02 167.208H656.708V167.608C656.708 169.544 655.284 170.36 653.876 170.36ZM660.099 163H659.075L662.515 171H663.459L666.899 163H665.907L662.995 169.864L660.099 163ZM675.413 166.76C675.413 164.424 673.893 162.84 671.621 162.84C669.301 162.84 667.749 164.488 667.749 166.984C667.749 169.48 669.301 171.128 671.653 171.128C673.493 171.128 674.805 170.104 675.301 168.536H674.357C673.893 169.72 672.869 170.328 671.653 170.328C670.053 170.328 668.757 169.304 668.709 167.272H675.413V166.76ZM671.621 163.624C673.157 163.624 674.341 164.584 674.453 166.488H668.725C668.901 164.584 670.101 163.624 671.621 163.624ZM687.651 170.248C687.123 170.248 687.011 170.104 687.011 169.56V165.928C687.011 164.072 685.955 162.84 683.843 162.84C682.083 162.84 680.755 163.688 680.611 165.32H681.555C681.635 164.264 682.451 163.64 683.811 163.64C685.123 163.64 686.083 164.28 686.083 165.96V166.44H683.395C681.011 166.44 680.291 167.496 680.291 168.728C680.291 170.216 681.395 171.16 683.171 171.16C684.499 171.16 685.619 170.6 686.083 169.832C686.131 170.728 686.707 171 687.299 171H687.923V170.248H687.651ZM683.251 170.36C682.067 170.36 681.251 169.816 681.251 168.744C681.251 167.848 681.811 167.208 683.395 167.208H686.083V167.608C686.083 169.544 684.659 170.36 683.251 170.36ZM693.63 162.84C692.398 162.84 691.198 163.384 690.558 164.44L690.414 163H689.646V174.2H690.558V169.608C691.182 170.648 692.398 171.16 693.63 171.16C695.662 171.16 697.47 169.704 697.47 167.016C697.47 164.312 695.646 162.84 693.63 162.84ZM693.55 170.36C691.902 170.36 690.59 169.144 690.59 167.048C690.59 164.952 691.902 163.624 693.55 163.64C695.31 163.656 696.51 164.936 696.51 167.016C696.51 169.112 695.278 170.36 693.55 170.36ZM703.583 162.84C702.351 162.84 701.151 163.384 700.511 164.44L700.367 163H699.599V174.2H700.511V169.608C701.135 170.648 702.351 171.16 703.583 171.16C705.615 171.16 707.423 169.704 707.423 167.016C707.423 164.312 705.599 162.84 703.583 162.84ZM703.503 170.36C701.855 170.36 700.543 169.144 700.543 167.048C700.543 164.952 701.855 163.624 703.503 163.64C705.263 163.656 706.463 164.936 706.463 167.016C706.463 169.112 705.231 170.36 703.503 170.36ZM712.608 163C711.68 163 710.8 163.528 710.448 164.264L710.304 163H709.552V171H710.464V166.456C710.464 164.856 711.184 163.88 712.592 163.88H713.584V163H712.608ZM714.623 167.016C714.623 169.448 716.207 171.16 718.623 171.16C721.039 171.16 722.623 169.448 722.623 167.016C722.623 164.552 721.039 162.84 718.623 162.84C716.207 162.84 714.623 164.552 714.623 167.016ZM715.583 167C715.583 164.952 716.799 163.64 718.623 163.64C720.447 163.64 721.663 164.952 721.663 167C721.663 169.032 720.447 170.344 718.623 170.344C716.799 170.344 715.583 169.032 715.583 167ZM731.651 170.248C731.123 170.248 731.011 170.104 731.011 169.56V165.928C731.011 164.072 729.955 162.84 727.843 162.84C726.083 162.84 724.755 163.688 724.611 165.32H725.555C725.635 164.264 726.451 163.64 727.811 163.64C729.123 163.64 730.083 164.28 730.083 165.96V166.44H727.395C725.011 166.44 724.291 167.496 724.291 168.728C724.291 170.216 725.395 171.16 727.171 171.16C728.499 171.16 729.619 170.6 730.083 169.832C730.131 170.728 730.707 171 731.299 171H731.923V170.248H731.651ZM727.251 170.36C726.067 170.36 725.251 169.816 725.251 168.744C725.251 167.848 725.811 167.208 727.395 167.208H730.083V167.608C730.083 169.544 728.659 170.36 727.251 170.36ZM739.806 165.48H740.83C740.318 163.832 738.974 162.84 737.166 162.84C734.862 162.84 733.31 164.488 733.31 166.984C733.31 169.48 734.862 171.128 737.166 171.128C739.022 171.128 740.382 170.024 740.862 168.36H739.886C739.438 169.592 738.43 170.312 737.182 170.312C735.534 170.312 734.27 169.192 734.27 166.984C734.27 164.76 735.534 163.64 737.182 163.64C738.382 163.64 739.342 164.328 739.806 165.48ZM746.483 162.84C745.347 162.84 744.211 163.368 743.699 164.312V159.32H742.787V171H743.699V166.616C743.699 164.968 744.627 163.72 746.355 163.72C747.731 163.72 748.627 164.504 748.627 166.376V171H749.555V166.2C749.555 163.672 748.035 162.84 746.483 162.84ZM751.655 171H753.159V169.496H751.655V171Z" fill="white" fill-opacity="0.8"/>
<path d="M70.5073 141V129.8H74.0113C77.6433 129.8 79.6113 132.104 79.6113 135.4C79.6113 138.696 77.6433 141 74.0113 141H70.5073ZM71.4833 140.056H74.2193C76.9553 140.04 78.5873 138.2 78.5873 135.4C78.5873 132.6 76.9553 130.744 74.2193 130.744H71.4833V140.056ZM81.4221 131.048H82.7821V129.8H81.4221V131.048ZM81.6461 141H82.5581V133H81.6461V141ZM85.0051 133H83.9811L87.4211 141H88.3651L91.8051 133H90.8131L87.9011 139.864L85.0051 133ZM100.32 136.76C100.32 134.424 98.7997 132.84 96.5277 132.84C94.2077 132.84 92.6557 134.488 92.6557 136.984C92.6557 139.48 94.2077 141.128 96.5597 141.128C98.3997 141.128 99.7117 140.104 100.208 138.536H99.2637C98.7997 139.72 97.7757 140.328 96.5597 140.328C94.9597 140.328 93.6637 139.304 93.6157 137.272H100.32V136.76ZM96.5277 133.624C98.0637 133.624 99.2477 134.584 99.3597 136.488H93.6317C93.8077 134.584 95.0077 133.624 96.5277 133.624ZM112.238 129.32V134.424C111.614 133.416 110.462 132.84 109.166 132.84C107.15 132.84 105.326 134.344 105.326 137.048C105.326 139.736 107.134 141.16 109.166 141.16C110.398 141.16 111.614 140.584 112.238 139.544L112.398 141H113.166V129.32H112.238ZM109.246 140.36C107.518 140.36 106.286 139.144 106.286 137.048C106.286 134.984 107.486 133.672 109.246 133.656C110.894 133.64 112.206 134.968 112.206 137.048C112.206 139.144 110.894 140.36 109.246 140.36ZM123.038 136.76C123.038 134.424 121.518 132.84 119.246 132.84C116.926 132.84 115.374 134.488 115.374 136.984C115.374 139.48 116.926 141.128 119.278 141.128C121.118 141.128 122.43 140.104 122.926 138.536H121.982C121.518 139.72 120.494 140.328 119.278 140.328C117.678 140.328 116.382 139.304 116.334 137.272H123.038V136.76ZM119.246 133.624C120.782 133.624 121.966 134.584 122.078 136.488H116.35C116.526 134.584 117.726 133.624 119.246 133.624ZM132.429 136.76C132.429 134.424 130.909 132.84 128.637 132.84C126.317 132.84 124.765 134.488 124.765 136.984C124.765 139.48 126.317 141.128 128.669 141.128C130.509 141.128 131.821 140.104 132.317 138.536H131.373C130.909 139.72 129.885 140.328 128.669 140.328C127.069 140.328 125.773 139.304 125.725 137.272H132.429V136.76ZM128.637 133.624C130.173 133.624 131.357 134.584 131.469 136.488H125.741C125.917 134.584 127.117 133.624 128.637 133.624ZM138.552 132.84C137.32 132.84 136.12 133.384 135.48 134.44L135.336 133H134.568V144.2H135.48V139.608C136.104 140.648 137.32 141.16 138.552 141.16C140.584 141.16 142.392 139.704 142.392 137.016C142.392 134.312 140.568 132.84 138.552 132.84ZM138.472 140.36C136.824 140.36 135.512 139.144 135.512 137.048C135.512 134.952 136.824 133.624 138.472 133.64C140.232 133.656 141.432 134.936 141.432 137.016C141.432 139.112 140.2 140.36 138.472 140.36ZM147.5 131.048H148.86V129.8H147.5V131.048ZM147.724 141H148.636V133H147.724V141ZM154.715 132.84C153.483 132.84 152.475 133.352 151.995 134.344L151.851 133H151.099V141H152.011V136.616C152.011 134.936 152.891 133.72 154.571 133.72C155.963 133.72 156.939 134.568 156.939 136.376V141H157.867V136.2C157.867 134.152 156.683 132.84 154.715 132.84ZM162.496 141H163.504V140.152H162.624C161.808 140.152 161.616 139.64 161.616 139.112V133.832H163.52V133H161.616V130.952H160.704V132.328C160.704 132.792 160.528 133 160.016 133H159.184V133.832H160.704V139.16C160.704 140.472 161.488 141 162.496 141ZM164.857 137.016C164.857 139.448 166.441 141.16 168.857 141.16C171.273 141.16 172.857 139.448 172.857 137.016C172.857 134.552 171.273 132.84 168.857 132.84C166.441 132.84 164.857 134.552 164.857 137.016ZM165.817 137C165.817 134.952 167.033 133.64 168.857 133.64C170.681 133.64 171.897 134.952 171.897 137C171.897 139.032 170.681 140.344 168.857 140.344C167.033 140.344 165.817 139.032 165.817 137ZM184.353 135.48H185.377C184.865 133.832 183.521 132.84 181.713 132.84C179.409 132.84 177.857 134.488 177.857 136.984C177.857 139.48 179.409 141.128 181.713 141.128C183.569 141.128 184.929 140.024 185.409 138.36H184.433C183.985 139.592 182.977 140.312 181.729 140.312C180.081 140.312 178.817 139.192 178.817 136.984C178.817 134.76 180.081 133.64 181.729 133.64C182.929 133.64 183.889 134.328 184.353 135.48ZM188.246 129.32H187.334V141H188.246V129.32ZM190.485 131.048H191.845V129.8H190.485V131.048ZM190.709 141H191.621V133H190.709V141ZM201.492 136.76C201.492 134.424 199.972 132.84 197.7 132.84C195.38 132.84 193.828 134.488 193.828 136.984C193.828 139.48 195.38 141.128 197.732 141.128C199.572 141.128 200.884 140.104 201.38 138.536H200.436C199.972 139.72 198.948 140.328 197.732 140.328C196.132 140.328 194.836 139.304 194.788 137.272H201.492V136.76ZM197.7 133.624C199.236 133.624 200.42 134.584 200.532 136.488H194.804C194.98 134.584 196.18 133.624 197.7 133.624ZM207.246 132.84C206.014 132.84 205.006 133.352 204.526 134.344L204.382 133H203.63V141H204.542V136.616C204.542 134.936 205.422 133.72 207.102 133.72C208.494 133.72 209.47 134.568 209.47 136.376V141H210.398V136.2C210.398 134.152 209.214 132.84 207.246 132.84ZM215.027 141H216.035V140.152H215.155C214.339 140.152 214.147 139.64 214.147 139.112V133.832H216.051V133H214.147V130.952H213.235V132.328C213.235 132.792 213.059 133 212.547 133H211.715V133.832H213.235V139.16C213.235 140.472 214.019 141 215.027 141ZM217.687 133.096H218.359L219.239 131.304V129.8H217.735V131.304H218.567L217.687 133.096ZM220.619 138.712C220.667 140.2 221.835 141.16 223.931 141.16C225.739 141.16 227.115 140.28 227.115 138.76C227.115 137.496 226.395 136.856 224.971 136.648L223.275 136.392C222.187 136.248 221.723 135.848 221.723 135.08C221.723 134.152 222.587 133.624 223.819 133.624C225.083 133.624 225.995 134.2 226.027 135.288H226.955C226.923 133.688 225.611 132.84 223.803 132.84C222.091 132.84 220.827 133.72 220.827 135.08C220.827 136.344 221.595 137 223.099 137.224L224.811 137.48C225.771 137.608 226.187 138.024 226.187 138.84C226.187 139.816 225.291 140.376 223.899 140.376C222.507 140.376 221.627 139.768 221.579 138.712H220.619ZM235.468 133C234.54 133 233.66 133.528 233.308 134.264L233.164 133H232.412V141H233.324V136.456C233.324 134.856 234.044 133.88 235.452 133.88H236.444V133H235.468ZM245.226 136.76C245.226 134.424 243.706 132.84 241.434 132.84C239.114 132.84 237.562 134.488 237.562 136.984C237.562 139.48 239.114 141.128 241.466 141.128C243.306 141.128 244.618 140.104 245.114 138.536H244.17C243.706 139.72 242.682 140.328 241.466 140.328C239.866 140.328 238.57 139.304 238.522 137.272H245.226V136.76ZM241.434 133.624C242.97 133.624 244.154 134.584 244.266 136.488H238.538C238.714 134.584 239.914 133.624 241.434 133.624ZM253.945 133L253.785 134.456C253.145 133.4 251.945 132.84 250.713 132.84C248.697 132.84 246.873 134.344 246.873 137.048C246.873 139.736 248.681 141.16 250.713 141.16C251.945 141.16 253.161 140.648 253.785 139.608V144.2H254.713V133H253.945ZM250.793 140.36C249.065 140.36 247.833 139.144 247.833 137.048C247.833 134.984 249.033 133.672 250.793 133.656C252.441 133.64 253.753 134.968 253.753 137.048C253.753 139.144 252.441 140.36 250.793 140.36ZM262.777 133V137.384C262.777 139.064 261.913 140.28 260.297 140.28C258.969 140.28 258.009 139.432 258.009 137.624V133H257.081V137.8C257.081 139.848 258.249 141.16 260.153 141.16C261.321 141.16 262.313 140.648 262.793 139.656L262.937 141H263.689V133H262.777ZM265.922 131.048H267.282V129.8H265.922V131.048ZM266.146 141H267.058V133H266.146V141ZM272.577 133C271.649 133 270.769 133.528 270.417 134.264L270.273 133H269.521V141H270.433V136.456C270.433 134.856 271.153 133.88 272.561 133.88H273.553V133H272.577ZM282.335 136.76C282.335 134.424 280.815 132.84 278.543 132.84C276.223 132.84 274.671 134.488 274.671 136.984C274.671 139.48 276.223 141.128 278.575 141.128C280.415 141.128 281.727 140.104 282.223 138.536H281.279C280.815 139.72 279.791 140.328 278.575 140.328C276.975 140.328 275.679 139.304 275.631 137.272H282.335V136.76ZM278.543 133.624C280.079 133.624 281.263 134.584 281.375 136.488H275.647C275.823 134.584 277.023 133.624 278.543 133.624ZM292.906 132.84C291.898 132.84 290.794 133.32 290.298 134.456C289.85 133.416 288.89 132.84 287.626 132.84C286.762 132.84 285.834 133.176 285.386 133.976L285.226 133H284.474V141H285.386V136.088C285.386 134.648 286.202 133.72 287.626 133.72C288.922 133.72 289.642 134.584 289.642 136.136V141H290.554V136.2C290.602 134.504 291.578 133.72 292.778 133.72C294.01 133.72 294.81 134.376 294.81 136.04V141H295.754V135.912C295.754 134.072 294.746 132.84 292.906 132.84ZM305.523 136.76C305.523 134.424 304.003 132.84 301.731 132.84C299.411 132.84 297.859 134.488 297.859 136.984C297.859 139.48 299.411 141.128 301.763 141.128C303.603 141.128 304.915 140.104 305.411 138.536H304.467C304.003 139.72 302.979 140.328 301.763 140.328C300.163 140.328 298.867 139.304 298.819 137.272H305.523V136.76ZM301.731 133.624C303.267 133.624 304.451 134.584 304.563 136.488H298.835C299.011 134.584 300.211 133.624 301.731 133.624ZM311.278 132.84C310.046 132.84 309.038 133.352 308.558 134.344L308.414 133H307.662V141H308.574V136.616C308.574 134.936 309.454 133.72 311.134 133.72C312.526 133.72 313.502 134.568 313.502 136.376V141H314.43V136.2C314.43 134.152 313.246 132.84 311.278 132.84ZM319.058 141H320.066V140.152H319.186C318.37 140.152 318.178 139.64 318.178 139.112V133.832H320.082V133H318.178V130.952H317.266V132.328C317.266 132.792 317.09 133 316.578 133H315.746V133.832H317.266V139.16C317.266 140.472 318.05 141 319.058 141ZM321.494 138.712C321.542 140.2 322.71 141.16 324.806 141.16C326.614 141.16 327.99 140.28 327.99 138.76C327.99 137.496 327.27 136.856 325.846 136.648L324.15 136.392C323.062 136.248 322.598 135.848 322.598 135.08C322.598 134.152 323.462 133.624 324.694 133.624C325.958 133.624 326.87 134.2 326.902 135.288H327.83C327.798 133.688 326.486 132.84 324.678 132.84C322.966 132.84 321.702 133.72 321.702 135.08C321.702 136.344 322.47 137 323.974 137.224L325.686 137.48C326.646 137.608 327.062 138.024 327.062 138.84C327.062 139.816 326.166 140.376 324.774 140.376C323.382 140.376 322.502 139.768 322.454 138.712H321.494ZM335.543 141H336.551V140.152H335.671C334.855 140.152 334.663 139.64 334.663 139.112V133.832H336.567V133H334.663V130.952H333.751V132.328C333.751 132.792 333.575 133 333.063 133H332.231V133.832H333.751V139.16C333.751 140.472 334.535 141 335.543 141ZM337.904 137.016C337.904 139.448 339.488 141.16 341.904 141.16C344.32 141.16 345.904 139.448 345.904 137.016C345.904 134.552 344.32 132.84 341.904 132.84C339.488 132.84 337.904 134.552 337.904 137.016ZM338.864 137C338.864 134.952 340.08 133.64 341.904 133.64C343.728 133.64 344.944 134.952 344.944 137C344.944 139.032 343.728 140.344 341.904 140.344C340.08 140.344 338.864 139.032 338.864 137ZM114.535 159.32V164.424C113.911 163.416 112.759 162.84 111.463 162.84C109.447 162.84 107.623 164.344 107.623 167.048C107.623 169.736 109.431 171.16 111.463 171.16C112.695 171.16 113.911 170.584 114.535 169.544L114.695 171H115.463V159.32H114.535ZM111.543 170.36C109.815 170.36 108.583 169.144 108.583 167.048C108.583 164.984 109.783 163.672 111.543 163.656C113.191 163.64 114.503 164.968 114.503 167.048C114.503 169.144 113.191 170.36 111.543 170.36ZM125.335 166.76C125.335 164.424 123.815 162.84 121.543 162.84C119.223 162.84 117.671 164.488 117.671 166.984C117.671 169.48 119.223 171.128 121.575 171.128C123.415 171.128 124.727 170.104 125.223 168.536H124.279C123.815 169.72 122.791 170.328 121.575 170.328C119.975 170.328 118.679 169.304 118.631 167.272H125.335V166.76ZM121.543 163.624C123.079 163.624 124.263 164.584 124.375 166.488H118.647C118.823 164.584 120.023 163.624 121.543 163.624ZM129.73 171H130.738V170.152H129.858C129.042 170.152 128.85 169.64 128.85 169.112V163.832H130.754V163H128.85V160.952H127.938V162.328C127.938 162.792 127.762 163 127.25 163H126.418V163.832H127.938V169.16C127.938 170.472 128.722 171 129.73 171ZM139.835 166.76C139.835 164.424 138.315 162.84 136.043 162.84C133.723 162.84 132.171 164.488 132.171 166.984C132.171 169.48 133.723 171.128 136.075 171.128C137.915 171.128 139.227 170.104 139.723 168.536H138.779C138.315 169.72 137.291 170.328 136.075 170.328C134.475 170.328 133.179 169.304 133.131 167.272H139.835V166.76ZM136.043 163.624C137.579 163.624 138.763 164.584 138.875 166.488H133.147C133.323 164.584 134.523 163.624 136.043 163.624ZM145.03 163C144.102 163 143.222 163.528 142.87 164.264L142.726 163H141.974V171H142.886V166.456C142.886 164.856 143.606 163.88 145.014 163.88H146.006V163H145.03ZM156.125 162.84C155.117 162.84 154.013 163.32 153.517 164.456C153.069 163.416 152.109 162.84 150.845 162.84C149.981 162.84 149.053 163.176 148.605 163.976L148.445 163H147.693V171H148.605V166.088C148.605 164.648 149.421 163.72 150.845 163.72C152.141 163.72 152.861 164.584 152.861 166.136V171H153.773V166.2C153.821 164.504 154.797 163.72 155.997 163.72C157.229 163.72 158.029 164.376 158.029 166.04V171H158.973V165.912C158.973 164.072 157.965 162.84 156.125 162.84ZM161.11 161.048H162.47V159.8H161.11V161.048ZM161.334 171H162.246V163H161.334V171ZM168.325 162.84C167.093 162.84 166.085 163.352 165.605 164.344L165.461 163H164.709V171H165.621V166.616C165.621 164.936 166.501 163.72 168.181 163.72C169.573 163.72 170.549 164.568 170.549 166.376V171H171.477V166.2C171.477 164.152 170.293 162.84 168.325 162.84ZM181.257 166.76C181.257 164.424 179.737 162.84 177.465 162.84C175.145 162.84 173.593 164.488 173.593 166.984C173.593 169.48 175.145 171.128 177.497 171.128C179.337 171.128 180.649 170.104 181.145 168.536H180.201C179.737 169.72 178.713 170.328 177.497 170.328C175.897 170.328 174.601 169.304 174.553 167.272H181.257V166.76ZM177.465 163.624C179.001 163.624 180.185 164.584 180.297 166.488H174.569C174.745 164.584 175.945 163.624 177.465 163.624ZM188.855 171H189.863V170.152H188.983C188.167 170.152 187.975 169.64 187.975 169.112V163.832H189.879V163H187.975V160.952H187.063V162.328C187.063 162.792 186.887 163 186.375 163H185.543V163.832H187.063V169.16C187.063 170.472 187.847 171 188.855 171ZM195.483 162.84C194.347 162.84 193.211 163.368 192.699 164.312V159.32H191.787V171H192.699V166.616C192.699 164.968 193.627 163.72 195.355 163.72C196.731 163.72 197.627 164.504 197.627 166.376V171H198.555V166.2C198.555 163.672 197.035 162.84 195.483 162.84ZM208.335 166.76C208.335 164.424 206.815 162.84 204.543 162.84C202.223 162.84 200.671 164.488 200.671 166.984C200.671 169.48 202.223 171.128 204.575 171.128C206.415 171.128 207.727 170.104 208.223 168.536H207.279C206.815 169.72 205.791 170.328 204.575 170.328C202.975 170.328 201.679 169.304 201.631 167.272H208.335V166.76ZM204.543 163.624C206.079 163.624 207.263 164.584 207.375 166.488H201.647C201.823 164.584 203.023 163.624 204.543 163.624ZM217.661 162.84C216.397 162.84 215.229 163.4 214.605 164.472V159.32H213.677V171H214.445L214.589 169.64C215.229 170.664 216.445 171.16 217.661 171.16C219.693 171.16 221.501 169.704 221.501 167.016C221.501 164.312 219.677 162.84 217.661 162.84ZM217.581 170.36C215.933 170.36 214.621 169.144 214.621 167.048C214.621 164.952 215.933 163.624 217.581 163.64C219.341 163.656 220.541 164.936 220.541 167.016C220.541 169.112 219.309 170.36 217.581 170.36ZM230.882 166.76C230.882 164.424 229.362 162.84 227.09 162.84C224.77 162.84 223.218 164.488 223.218 166.984C223.218 169.48 224.77 171.128 227.122 171.128C228.962 171.128 230.274 170.104 230.77 168.536H229.826C229.362 169.72 228.338 170.328 227.122 170.328C225.522 170.328 224.226 169.304 224.178 167.272H230.882V166.76ZM227.09 163.624C228.626 163.624 229.81 164.584 229.922 166.488H224.194C224.37 164.584 225.57 163.624 227.09 163.624ZM232.525 168.712C232.573 170.2 233.741 171.16 235.837 171.16C237.645 171.16 239.021 170.28 239.021 168.76C239.021 167.496 238.301 166.856 236.877 166.648L235.181 166.392C234.093 166.248 233.629 165.848 233.629 165.08C233.629 164.152 234.493 163.624 235.725 163.624C236.989 163.624 237.901 164.2 237.933 165.288H238.861C238.829 163.688 237.517 162.84 235.709 162.84C233.997 162.84 232.733 163.72 232.733 165.08C232.733 166.344 233.501 167 235.005 167.224L236.717 167.48C237.677 167.608 238.093 168.024 238.093 168.84C238.093 169.816 237.197 170.376 235.805 170.376C234.413 170.376 233.533 169.768 233.485 168.712H232.525ZM243.215 171H244.223V170.152H243.343C242.527 170.152 242.335 169.64 242.335 169.112V163.832H244.239V163H242.335V160.952H241.423V162.328C241.423 162.792 241.247 163 240.735 163H239.903V163.832H241.423V169.16C241.423 170.472 242.207 171 243.215 171ZM248.853 168.712C248.901 170.2 250.069 171.16 252.165 171.16C253.973 171.16 255.349 170.28 255.349 168.76C255.349 167.496 254.629 166.856 253.205 166.648L251.509 166.392C250.421 166.248 249.957 165.848 249.957 165.08C249.957 164.152 250.821 163.624 252.053 163.624C253.317 163.624 254.229 164.2 254.261 165.288H255.189C255.157 163.688 253.845 162.84 252.037 162.84C250.325 162.84 249.061 163.72 249.061 165.08C249.061 166.344 249.829 167 251.333 167.224L253.045 167.48C254.005 167.608 254.421 168.024 254.421 168.84C254.421 169.816 253.525 170.376 252.133 170.376C250.741 170.376 249.861 169.768 249.813 168.712H248.853ZM257.107 167.016C257.107 169.448 258.691 171.16 261.107 171.16C263.523 171.16 265.107 169.448 265.107 167.016C265.107 164.552 263.523 162.84 261.107 162.84C258.691 162.84 257.107 164.552 257.107 167.016ZM258.067 167C258.067 164.952 259.283 163.64 261.107 163.64C262.931 163.64 264.147 164.952 264.147 167C264.147 169.032 262.931 170.344 261.107 170.344C259.283 170.344 258.067 169.032 258.067 167ZM268.152 159.32H267.24V171H268.152V159.32ZM276.215 163V167.384C276.215 169.064 275.351 170.28 273.735 170.28C272.407 170.28 271.447 169.432 271.447 167.624V163H270.519V167.8C270.519 169.848 271.687 171.16 273.591 171.16C274.759 171.16 275.751 170.648 276.231 169.656L276.375 171H277.127V163H276.215ZM281.84 171H282.848V170.152H281.968C281.152 170.152 280.96 169.64 280.96 169.112V163.832H282.864V163H280.96V160.952H280.048V162.328C280.048 162.792 279.872 163 279.36 163H278.528V163.832H280.048V169.16C280.048 170.472 280.832 171 281.84 171ZM284.547 161.048H285.907V159.8H284.547V161.048ZM284.771 171H285.683V163H284.771V171ZM287.81 167.016C287.81 169.448 289.394 171.16 291.81 171.16C294.226 171.16 295.81 169.448 295.81 167.016C295.81 164.552 294.226 162.84 291.81 162.84C289.394 162.84 287.81 164.552 287.81 167.016ZM288.77 167C288.77 164.952 289.986 163.64 291.81 163.64C293.634 163.64 294.85 164.952 294.85 167C294.85 169.032 293.634 170.344 291.81 170.344C289.986 170.344 288.77 169.032 288.77 167ZM301.559 162.84C300.327 162.84 299.319 163.352 298.839 164.344L298.695 163H297.943V171H298.855V166.616C298.855 164.936 299.735 163.72 301.415 163.72C302.807 163.72 303.783 164.568 303.783 166.376V171H304.711V166.2C304.711 164.152 303.527 162.84 301.559 162.84ZM306.812 171H308.316V169.496H306.812V171Z" fill="white" fill-opacity="0.8"/>
<path d="M927.468 140.056V129.8H926.492V141H933.324V140.056H927.468ZM942.089 140.248C941.561 140.248 941.449 140.104 941.449 139.56V135.928C941.449 134.072 940.393 132.84 938.281 132.84C936.521 132.84 935.193 133.688 935.049 135.32H935.993C936.073 134.264 936.889 133.64 938.249 133.64C939.561 133.64 940.521 134.28 940.521 135.96V136.44H937.833C935.449 136.44 934.729 137.496 934.729 138.728C934.729 140.216 935.833 141.16 937.609 141.16C938.937 141.16 940.057 140.6 940.521 139.832C940.569 140.728 941.145 141 941.737 141H942.361V140.248H942.089ZM937.689 140.36C936.505 140.36 935.689 139.816 935.689 138.744C935.689 137.848 936.249 137.208 937.833 137.208H940.521V137.608C940.521 139.544 939.097 140.36 937.689 140.36ZM949.449 133V137.384C949.449 139.064 948.585 140.28 946.969 140.28C945.641 140.28 944.681 139.432 944.681 137.624V133H943.753V137.8C943.753 139.848 944.921 141.16 946.825 141.16C947.993 141.16 948.985 140.648 949.465 139.656L949.609 141H950.361V133H949.449ZM956.434 132.84C955.202 132.84 954.194 133.352 953.714 134.344L953.57 133H952.818V141H953.73V136.616C953.73 134.936 954.61 133.72 956.29 133.72C957.682 133.72 958.658 134.568 958.658 136.376V141H959.586V136.2C959.586 134.152 958.402 132.84 956.434 132.84ZM968.119 135.48H969.143C968.631 133.832 967.287 132.84 965.479 132.84C963.175 132.84 961.623 134.488 961.623 136.984C961.623 139.48 963.175 141.128 965.479 141.128C967.335 141.128 968.695 140.024 969.175 138.36H968.199C967.751 139.592 966.743 140.312 965.495 140.312C963.847 140.312 962.583 139.192 962.583 136.984C962.583 134.76 963.847 133.64 965.495 133.64C966.695 133.64 967.655 134.328 968.119 135.48ZM974.795 132.84C973.659 132.84 972.523 133.368 972.011 134.312V129.32H971.099V141H972.011V136.616C972.011 134.968 972.939 133.72 974.667 133.72C976.043 133.72 976.939 134.504 976.939 136.376V141H977.867V136.2C977.867 133.672 976.347 132.84 974.795 132.84ZM990.339 140.248C989.811 140.248 989.699 140.104 989.699 139.56V135.928C989.699 134.072 988.643 132.84 986.531 132.84C984.771 132.84 983.443 133.688 983.299 135.32H984.243C984.323 134.264 985.139 133.64 986.499 133.64C987.811 133.64 988.771 134.28 988.771 135.96V136.44H986.083C983.699 136.44 982.979 137.496 982.979 138.728C982.979 140.216 984.083 141.16 985.859 141.16C987.187 141.16 988.307 140.6 988.771 139.832C988.819 140.728 989.395 141 989.987 141H990.611V140.248H990.339ZM985.939 140.36C984.755 140.36 983.939 139.816 983.939 138.744C983.939 137.848 984.499 137.208 986.083 137.208H988.771V137.608C988.771 139.544 987.347 140.36 985.939 140.36ZM995.95 132.84C994.718 132.84 993.71 133.352 993.23 134.344L993.086 133H992.334V141H993.246V136.616C993.246 134.936 994.126 133.72 995.806 133.72C997.198 133.72 998.174 134.568 998.174 136.376V141H999.102V136.2C999.102 134.152 997.918 132.84 995.95 132.84ZM1008.05 129.32V134.424C1007.43 133.416 1006.27 132.84 1004.98 132.84C1002.96 132.84 1001.14 134.344 1001.14 137.048C1001.14 139.736 1002.95 141.16 1004.98 141.16C1006.21 141.16 1007.43 140.584 1008.05 139.544L1008.21 141H1008.98V129.32H1008.05ZM1005.06 140.36C1003.33 140.36 1002.1 139.144 1002.1 137.048C1002.1 134.984 1003.3 133.672 1005.06 133.656C1006.71 133.64 1008.02 134.968 1008.02 137.048C1008.02 139.144 1006.71 140.36 1005.06 140.36ZM1020.81 135.48H1021.83C1021.32 133.832 1019.97 132.84 1018.17 132.84C1015.86 132.84 1014.31 134.488 1014.31 136.984C1014.31 139.48 1015.86 141.128 1018.17 141.128C1020.02 141.128 1021.38 140.024 1021.86 138.36H1020.89C1020.44 139.592 1019.43 140.312 1018.18 140.312C1016.53 140.312 1015.27 139.192 1015.27 136.984C1015.27 134.76 1016.53 133.64 1018.18 133.64C1019.38 133.64 1020.34 134.328 1020.81 135.48ZM1023.29 137.016C1023.29 139.448 1024.88 141.16 1027.29 141.16C1029.71 141.16 1031.29 139.448 1031.29 137.016C1031.29 134.552 1029.71 132.84 1027.29 132.84C1024.88 132.84 1023.29 134.552 1023.29 137.016ZM1024.25 137C1024.25 134.952 1025.47 133.64 1027.29 133.64C1029.12 133.64 1030.33 134.952 1030.33 137C1030.33 139.032 1029.12 140.344 1027.29 140.344C1025.47 140.344 1024.25 139.032 1024.25 137ZM1037.04 132.84C1035.81 132.84 1034.8 133.352 1034.32 134.344L1034.18 133H1033.43V141H1034.34V136.616C1034.34 134.936 1035.22 133.72 1036.9 133.72C1038.29 133.72 1039.27 134.568 1039.27 136.376V141H1040.2V136.2C1040.2 134.152 1039.01 132.84 1037.04 132.84ZM1044.82 141H1045.83V140.152H1044.95C1044.14 140.152 1043.94 139.64 1043.94 139.112V133.832H1045.85V133H1043.94V130.952H1043.03V132.328C1043.03 132.792 1042.86 133 1042.34 133H1041.51V133.832H1043.03V139.16C1043.03 140.472 1043.82 141 1044.82 141ZM1047.53 131.048H1048.89V129.8H1047.53V131.048ZM1047.76 141H1048.67V133H1047.76V141ZM1054.75 132.84C1053.51 132.84 1052.51 133.352 1052.03 134.344L1051.88 133H1051.13V141H1052.04V136.616C1052.04 134.936 1052.92 133.72 1054.6 133.72C1055.99 133.72 1056.97 134.568 1056.97 136.376V141H1057.9V136.2C1057.9 134.152 1056.71 132.84 1054.75 132.84ZM1065.87 133V137.384C1065.87 139.064 1065.01 140.28 1063.39 140.28C1062.06 140.28 1061.1 139.432 1061.1 137.624V133H1060.18V137.8C1060.18 139.848 1061.34 141.16 1063.25 141.16C1064.42 141.16 1065.41 140.648 1065.89 139.656L1066.03 141H1066.78V133H1065.87ZM1068.9 137.016C1068.9 139.448 1070.49 141.16 1072.9 141.16C1075.32 141.16 1076.9 139.448 1076.9 137.016C1076.9 134.552 1075.32 132.84 1072.9 132.84C1070.49 132.84 1068.9 134.552 1068.9 137.016ZM1069.86 137C1069.86 134.952 1071.08 133.64 1072.9 133.64C1074.73 133.64 1075.94 134.952 1075.94 137C1075.94 139.032 1074.73 140.344 1072.9 140.344C1071.08 140.344 1069.86 139.032 1069.86 137ZM1084.64 133V137.384C1084.64 139.064 1083.77 140.28 1082.16 140.28C1080.83 140.28 1079.87 139.432 1079.87 137.624V133H1078.94V137.8C1078.94 139.848 1080.11 141.16 1082.01 141.16C1083.18 141.16 1084.17 140.648 1084.65 139.656L1084.8 141H1085.55V133H1084.64ZM1087.51 138.712C1087.56 140.2 1088.73 141.16 1090.82 141.16C1092.63 141.16 1094.01 140.28 1094.01 138.76C1094.01 137.496 1093.29 136.856 1091.86 136.648L1090.17 136.392C1089.08 136.248 1088.61 135.848 1088.61 135.08C1088.61 134.152 1089.48 133.624 1090.71 133.624C1091.97 133.624 1092.89 134.2 1092.92 135.288H1093.85C1093.81 133.688 1092.5 132.84 1090.69 132.84C1088.98 132.84 1087.72 133.72 1087.72 135.08C1087.72 136.344 1088.49 137 1089.99 137.224L1091.7 137.48C1092.66 137.608 1093.08 138.024 1093.08 138.84C1093.08 139.816 1092.18 140.376 1090.79 140.376C1089.4 140.376 1088.52 139.768 1088.47 138.712H1087.51ZM1097.01 129.32H1096.1V141H1097.01V129.32ZM1099.46 133H1098.43L1101.52 141C1101.62 141.256 1101.67 141.512 1101.67 141.752C1101.67 142.824 1101.07 143.352 1100.11 143.352H1098.66V144.2H1100.08C1101.23 144.2 1102 143.848 1102.56 142.312L1105.92 133L1104.93 132.984L1102.31 140.6L1099.46 133ZM1117.96 136.76C1117.96 134.424 1116.44 132.84 1114.17 132.84C1111.85 132.84 1110.3 134.488 1110.3 136.984C1110.3 139.48 1111.85 141.128 1114.2 141.128C1116.04 141.128 1117.35 140.104 1117.85 138.536H1116.9C1116.44 139.72 1115.42 140.328 1114.2 140.328C1112.6 140.328 1111.3 139.304 1111.26 137.272H1117.96V136.76ZM1114.17 133.624C1115.7 133.624 1116.89 134.584 1117 136.488H1111.27C1111.45 134.584 1112.65 133.624 1114.17 133.624ZM1123.72 132.84C1122.48 132.84 1121.48 133.352 1121 134.344L1120.85 133H1120.1V141H1121.01V136.616C1121.01 134.936 1121.89 133.72 1123.57 133.72C1124.96 133.72 1125.94 134.568 1125.94 136.376V141H1126.87V136.2C1126.87 134.152 1125.68 132.84 1123.72 132.84ZM1132.94 132.84C1131.8 132.84 1130.66 133.368 1130.15 134.312V129.32H1129.24V141H1130.15V136.616C1130.15 134.968 1131.08 133.72 1132.81 133.72C1134.18 133.72 1135.08 134.504 1135.08 136.376V141H1136.01V136.2C1136.01 133.672 1134.49 132.84 1132.94 132.84ZM1145.28 140.248C1144.75 140.248 1144.64 140.104 1144.64 139.56V135.928C1144.64 134.072 1143.58 132.84 1141.47 132.84C1139.71 132.84 1138.38 133.688 1138.24 135.32H1139.18C1139.26 134.264 1140.08 133.64 1141.44 133.64C1142.75 133.64 1143.71 134.28 1143.71 135.96V136.44H1141.02C1138.64 136.44 1137.92 137.496 1137.92 138.728C1137.92 140.216 1139.02 141.16 1140.8 141.16C1142.12 141.16 1143.24 140.6 1143.71 139.832C1143.76 140.728 1144.33 141 1144.92 141H1145.55V140.248H1145.28ZM1140.88 140.36C1139.69 140.36 1138.88 139.816 1138.88 138.744C1138.88 137.848 1139.44 137.208 1141.02 137.208H1143.71V137.608C1143.71 139.544 1142.28 140.36 1140.88 140.36ZM1150.89 132.84C1149.66 132.84 1148.65 133.352 1148.17 134.344L1148.02 133H1147.27V141H1148.18V136.616C1148.18 134.936 1149.06 133.72 1150.74 133.72C1152.14 133.72 1153.11 134.568 1153.11 136.376V141H1154.04V136.2C1154.04 134.152 1152.86 132.84 1150.89 132.84ZM1162.57 135.48H1163.6C1163.08 133.832 1161.74 132.84 1159.93 132.84C1157.63 132.84 1156.08 134.488 1156.08 136.984C1156.08 139.48 1157.63 141.128 1159.93 141.128C1161.79 141.128 1163.15 140.024 1163.63 138.36H1162.65C1162.2 139.592 1161.2 140.312 1159.95 140.312C1158.3 140.312 1157.04 139.192 1157.04 136.984C1157.04 134.76 1158.3 133.64 1159.95 133.64C1161.15 133.64 1162.11 134.328 1162.57 135.48ZM1172.8 136.76C1172.8 134.424 1171.28 132.84 1169.01 132.84C1166.69 132.84 1165.14 134.488 1165.14 136.984C1165.14 139.48 1166.69 141.128 1169.04 141.128C1170.88 141.128 1172.2 140.104 1172.69 138.536H1171.75C1171.28 139.72 1170.26 140.328 1169.04 140.328C1167.44 140.328 1166.15 139.304 1166.1 137.272H1172.8V136.76ZM1169.01 133.624C1170.55 133.624 1171.73 134.584 1171.84 136.488H1166.12C1166.29 134.584 1167.49 133.624 1169.01 133.624ZM1182.13 132.84C1180.9 132.84 1179.7 133.384 1179.06 134.44L1178.91 133H1178.15V144.2H1179.06V139.608C1179.68 140.648 1180.9 141.16 1182.13 141.16C1184.16 141.16 1185.97 139.704 1185.97 137.016C1185.97 134.312 1184.15 132.84 1182.13 132.84ZM1182.05 140.36C1180.4 140.36 1179.09 139.144 1179.09 137.048C1179.09 134.952 1180.4 133.624 1182.05 133.64C1183.81 133.656 1185.01 134.936 1185.01 137.016C1185.01 139.112 1183.78 140.36 1182.05 140.36ZM1191.16 133C1190.23 133 1189.35 133.528 1189 134.264L1188.85 133H1188.1V141H1189.01V136.456C1189.01 134.856 1189.73 133.88 1191.14 133.88H1192.13V133H1191.16ZM1193.17 137.016C1193.17 139.448 1194.75 141.16 1197.17 141.16C1199.59 141.16 1201.17 139.448 1201.17 137.016C1201.17 134.552 1199.59 132.84 1197.17 132.84C1194.75 132.84 1193.17 134.552 1193.17 137.016ZM1194.13 137C1194.13 134.952 1195.35 133.64 1197.17 133.64C1198.99 133.64 1200.21 134.952 1200.21 137C1200.21 139.032 1198.99 140.344 1197.17 140.344C1195.35 140.344 1194.13 139.032 1194.13 137ZM1209.72 129.32V134.424C1209.1 133.416 1207.95 132.84 1206.65 132.84C1204.63 132.84 1202.81 134.344 1202.81 137.048C1202.81 139.736 1204.62 141.16 1206.65 141.16C1207.88 141.16 1209.1 140.584 1209.72 139.544L1209.88 141H1210.65V129.32H1209.72ZM1206.73 140.36C1205 140.36 1203.77 139.144 1203.77 137.048C1203.77 134.984 1204.97 133.672 1206.73 133.656C1208.38 133.64 1209.69 134.968 1209.69 137.048C1209.69 139.144 1208.38 140.36 1206.73 140.36ZM1218.71 133V137.384C1218.71 139.064 1217.85 140.28 1216.23 140.28C1214.91 140.28 1213.95 139.432 1213.95 137.624V133H1213.02V137.8C1213.02 139.848 1214.19 141.16 1216.09 141.16C1217.26 141.16 1218.25 140.648 1218.73 139.656L1218.87 141H1219.63V133H1218.71ZM1228.24 135.48H1229.27C1228.76 133.832 1227.41 132.84 1225.6 132.84C1223.3 132.84 1221.75 134.488 1221.75 136.984C1221.75 139.48 1223.3 141.128 1225.6 141.128C1227.46 141.128 1228.82 140.024 1229.3 138.36H1228.32C1227.88 139.592 1226.87 140.312 1225.62 140.312C1223.97 140.312 1222.71 139.192 1222.71 136.984C1222.71 134.76 1223.97 133.64 1225.62 133.64C1226.82 133.64 1227.78 134.328 1228.24 135.48ZM1233.17 141H1234.18V140.152H1233.3C1232.48 140.152 1232.29 139.64 1232.29 139.112V133.832H1234.19V133H1232.29V130.952H1231.38V132.328C1231.38 132.792 1231.2 133 1230.69 133H1229.86V133.832H1231.38V139.16C1231.38 140.472 1232.16 141 1233.17 141ZM1241.56 141H1242.57V140.152H1241.69C1240.87 140.152 1240.68 139.64 1240.68 139.112V133.832H1242.58V133H1240.68V130.952H1239.77V132.328C1239.77 132.792 1239.59 133 1239.08 133H1238.25V133.832H1239.77V139.16C1239.77 140.472 1240.55 141 1241.56 141ZM1243.92 137.016C1243.92 139.448 1245.5 141.16 1247.92 141.16C1250.34 141.16 1251.92 139.448 1251.92 137.016C1251.92 134.552 1250.34 132.84 1247.92 132.84C1245.5 132.84 1243.92 134.552 1243.92 137.016ZM1244.88 137C1244.88 134.952 1246.1 133.64 1247.92 133.64C1249.74 133.64 1250.96 134.952 1250.96 137C1250.96 139.032 1249.74 140.344 1247.92 140.344C1246.1 140.344 1244.88 139.032 1244.88 137ZM971.93 162.84C970.922 162.84 969.818 163.32 969.322 164.456C968.874 163.416 967.914 162.84 966.65 162.84C965.786 162.84 964.858 163.176 964.41 163.976L964.25 163H963.498V171H964.41V166.088C964.41 164.648 965.226 163.72 966.65 163.72C967.946 163.72 968.666 164.584 968.666 166.136V171H969.578V166.2C969.626 164.504 970.602 163.72 971.802 163.72C973.034 163.72 973.834 164.376 973.834 166.04V171H974.778V165.912C974.778 164.072 973.77 162.84 971.93 162.84ZM984.546 166.76C984.546 164.424 983.026 162.84 980.754 162.84C978.434 162.84 976.882 164.488 976.882 166.984C976.882 169.48 978.434 171.128 980.786 171.128C982.626 171.128 983.938 170.104 984.434 168.536H983.49C983.026 169.72 982.002 170.328 980.786 170.328C979.186 170.328 977.89 169.304 977.842 167.272H984.546V166.76ZM980.754 163.624C982.29 163.624 983.474 164.584 983.586 166.488H977.858C978.034 164.584 979.234 163.624 980.754 163.624ZM993.937 166.76C993.937 164.424 992.417 162.84 990.145 162.84C987.825 162.84 986.273 164.488 986.273 166.984C986.273 169.48 987.825 171.128 990.177 171.128C992.017 171.128 993.329 170.104 993.825 168.536H992.881C992.417 169.72 991.393 170.328 990.177 170.328C988.577 170.328 987.281 169.304 987.233 167.272H993.937V166.76ZM990.145 163.624C991.681 163.624 992.865 164.584 992.977 166.488H987.249C987.425 164.584 988.625 163.624 990.145 163.624ZM998.332 171H999.34V170.152H998.46C997.644 170.152 997.452 169.64 997.452 169.112V163.832H999.356V163H997.452V160.952H996.54V162.328C996.54 162.792 996.364 163 995.852 163H995.02V163.832H996.54V169.16C996.54 170.472 997.324 171 998.332 171ZM1006.72 171H1007.73V170.152H1006.85C1006.03 170.152 1005.84 169.64 1005.84 169.112V163.832H1007.75V163H1005.84V160.952H1004.93V162.328C1004.93 162.792 1004.75 163 1004.24 163H1003.41V163.832H1004.93V169.16C1004.93 170.472 1005.71 171 1006.72 171ZM1013.35 162.84C1012.21 162.84 1011.08 163.368 1010.57 164.312V159.32H1009.65V171H1010.57V166.616C1010.57 164.968 1011.49 163.72 1013.22 163.72C1014.6 163.72 1015.49 164.504 1015.49 166.376V171H1016.42V166.2C1016.42 163.672 1014.9 162.84 1013.35 162.84ZM1026.2 166.76C1026.2 164.424 1024.68 162.84 1022.41 162.84C1020.09 162.84 1018.54 164.488 1018.54 166.984C1018.54 169.48 1020.09 171.128 1022.44 171.128C1024.28 171.128 1025.59 170.104 1026.09 168.536H1025.15C1024.68 169.72 1023.66 170.328 1022.44 170.328C1020.84 170.328 1019.55 169.304 1019.5 167.272H1026.2V166.76ZM1022.41 163.624C1023.95 163.624 1025.13 164.584 1025.24 166.488H1019.51C1019.69 164.584 1020.89 163.624 1022.41 163.624ZM1039.98 162.84C1038.97 162.84 1037.86 163.32 1037.37 164.456C1036.92 163.416 1035.96 162.84 1034.7 162.84C1033.83 162.84 1032.9 163.176 1032.46 163.976L1032.3 163H1031.54V171H1032.46V166.088C1032.46 164.648 1033.27 163.72 1034.7 163.72C1035.99 163.72 1036.71 164.584 1036.71 166.136V171H1037.62V166.2C1037.67 164.504 1038.65 163.72 1039.85 163.72C1041.08 163.72 1041.88 164.376 1041.88 166.04V171H1042.82V165.912C1042.82 164.072 1041.82 162.84 1039.98 162.84ZM1052.08 170.248C1051.55 170.248 1051.44 170.104 1051.44 169.56V165.928C1051.44 164.072 1050.39 162.84 1048.27 162.84C1046.51 162.84 1045.19 163.688 1045.04 165.32H1045.99C1046.07 164.264 1046.88 163.64 1048.24 163.64C1049.55 163.64 1050.51 164.28 1050.51 165.96V166.44H1047.83C1045.44 166.44 1044.72 167.496 1044.72 168.728C1044.72 170.216 1045.83 171.16 1047.6 171.16C1048.93 171.16 1050.05 170.6 1050.51 169.832C1050.56 170.728 1051.14 171 1051.73 171H1052.35V170.248H1052.08ZM1047.68 170.36C1046.5 170.36 1045.68 169.816 1045.68 168.744C1045.68 167.848 1046.24 167.208 1047.83 167.208H1050.51V167.608C1050.51 169.544 1049.09 170.36 1047.68 170.36ZM1057.13 163C1056.2 163 1055.32 163.528 1054.97 164.264L1054.83 163H1054.08V171H1054.99V166.456C1054.99 164.856 1055.71 163.88 1057.12 163.88H1058.11V163H1057.13ZM1059.79 171H1060.71V168.488L1061.99 167.176L1064.99 171H1066.15L1062.63 166.536L1066.11 163H1064.93L1060.71 167.256V159.32H1059.79V171ZM1074.66 166.76C1074.66 164.424 1073.14 162.84 1070.86 162.84C1068.54 162.84 1066.99 164.488 1066.99 166.984C1066.99 169.48 1068.54 171.128 1070.9 171.128C1072.74 171.128 1074.05 170.104 1074.54 168.536H1073.6C1073.14 169.72 1072.11 170.328 1070.9 170.328C1069.3 170.328 1068 169.304 1067.95 167.272H1074.66V166.76ZM1070.86 163.624C1072.4 163.624 1073.58 164.584 1073.7 166.488H1067.97C1068.14 164.584 1069.34 163.624 1070.86 163.624ZM1079.05 171H1080.06V170.152H1079.18C1078.36 170.152 1078.17 169.64 1078.17 169.112V163.832H1080.07V163H1078.17V160.952H1077.26V162.328C1077.26 162.792 1077.08 163 1076.57 163H1075.74V163.832H1077.26V169.16C1077.26 170.472 1078.04 171 1079.05 171ZM1081.71 163.096H1082.38L1083.26 161.304V159.8H1081.76V161.304H1082.59L1081.71 163.096ZM1084.64 168.712C1084.69 170.2 1085.86 171.16 1087.95 171.16C1089.76 171.16 1091.14 170.28 1091.14 168.76C1091.14 167.496 1090.42 166.856 1088.99 166.648L1087.3 166.392C1086.21 166.248 1085.75 165.848 1085.75 165.08C1085.75 164.152 1086.61 163.624 1087.84 163.624C1089.11 163.624 1090.02 164.2 1090.05 165.288H1090.98C1090.95 163.688 1089.63 162.84 1087.83 162.84C1086.11 162.84 1084.85 163.72 1084.85 165.08C1084.85 166.344 1085.62 167 1087.12 167.224L1088.83 167.48C1089.79 167.608 1090.21 168.024 1090.21 168.84C1090.21 169.816 1089.31 170.376 1087.92 170.376C1086.53 170.376 1085.65 169.768 1085.6 168.712H1084.64ZM1102.6 165.48H1103.62C1103.11 163.832 1101.76 162.84 1099.96 162.84C1097.65 162.84 1096.1 164.488 1096.1 166.984C1096.1 169.48 1097.65 171.128 1099.96 171.128C1101.81 171.128 1103.17 170.024 1103.65 168.36H1102.68C1102.23 169.592 1101.22 170.312 1099.97 170.312C1098.32 170.312 1097.06 169.192 1097.06 166.984C1097.06 164.76 1098.32 163.64 1099.97 163.64C1101.17 163.64 1102.13 164.328 1102.6 165.48ZM1109.27 162.84C1108.14 162.84 1107 163.368 1106.49 164.312V159.32H1105.58V171H1106.49V166.616C1106.49 164.968 1107.42 163.72 1109.14 163.72C1110.52 163.72 1111.42 164.504 1111.42 166.376V171H1112.34V166.2C1112.34 163.672 1110.82 162.84 1109.27 162.84ZM1121.61 170.248C1121.08 170.248 1120.97 170.104 1120.97 169.56V165.928C1120.97 164.072 1119.92 162.84 1117.8 162.84C1116.04 162.84 1114.72 163.688 1114.57 165.32H1115.52C1115.6 164.264 1116.41 163.64 1117.77 163.64C1119.08 163.64 1120.04 164.28 1120.04 165.96V166.44H1117.36C1114.97 166.44 1114.25 167.496 1114.25 168.728C1114.25 170.216 1115.36 171.16 1117.13 171.16C1118.46 171.16 1119.58 170.6 1120.04 169.832C1120.09 170.728 1120.67 171 1121.26 171H1121.88V170.248H1121.61ZM1117.21 170.36C1116.03 170.36 1115.21 169.816 1115.21 168.744C1115.21 167.848 1115.77 167.208 1117.36 167.208H1120.04V167.608C1120.04 169.544 1118.62 170.36 1117.21 170.36ZM1127.22 162.84C1125.99 162.84 1124.98 163.352 1124.5 164.344L1124.36 163H1123.61V171H1124.52V166.616C1124.52 164.936 1125.4 163.72 1127.08 163.72C1128.47 163.72 1129.45 164.568 1129.45 166.376V171H1130.38V166.2C1130.38 164.152 1129.19 162.84 1127.22 162.84ZM1139.07 163L1138.91 164.456C1138.36 163.416 1137.21 162.84 1135.98 162.84C1134 162.84 1132.41 164.312 1132.41 166.856C1132.41 169.4 1134.03 170.84 1135.98 170.84C1137.26 170.84 1138.43 170.232 1138.92 169.144V170.92C1138.92 172.504 1137.95 173.56 1136.17 173.56C1134.94 173.56 1133.96 172.952 1133.66 171.768H1132.65C1132.99 173.336 1134.32 174.36 1136.17 174.36C1138.4 174.36 1139.84 172.92 1139.84 170.776V163H1139.07ZM1136.08 170.04C1134.41 170.04 1133.37 168.808 1133.37 166.872C1133.37 164.952 1134.4 163.624 1136.08 163.624C1137.76 163.624 1138.88 164.936 1138.88 166.872C1138.88 168.824 1137.74 170.04 1136.08 170.04ZM1142.07 161.048H1143.43V159.8H1142.07V161.048ZM1142.29 171H1143.21V163H1142.29V171ZM1149.29 162.84C1148.05 162.84 1147.05 163.352 1146.57 164.344L1146.42 163H1145.67V171H1146.58V166.616C1146.58 164.936 1147.46 163.72 1149.14 163.72C1150.53 163.72 1151.51 164.568 1151.51 166.376V171H1152.44V166.2C1152.44 164.152 1151.25 162.84 1149.29 162.84ZM1161.13 163L1160.97 164.456C1160.43 163.416 1159.27 162.84 1158.04 162.84C1156.06 162.84 1154.47 164.312 1154.47 166.856C1154.47 169.4 1156.09 170.84 1158.04 170.84C1159.32 170.84 1160.49 170.232 1160.99 169.144V170.92C1160.99 172.504 1160.01 173.56 1158.23 173.56C1157 173.56 1156.03 172.952 1155.72 171.768H1154.71C1155.05 173.336 1156.38 174.36 1158.23 174.36C1160.46 174.36 1161.9 172.92 1161.9 170.776V163H1161.13ZM1158.14 170.04C1156.47 170.04 1155.43 168.808 1155.43 166.872C1155.43 164.952 1156.46 163.624 1158.14 163.624C1159.82 163.624 1160.94 164.936 1160.94 166.872C1160.94 168.824 1159.8 170.04 1158.14 170.04ZM1171.18 162.84C1169.94 162.84 1168.94 163.352 1168.46 164.344L1168.31 163H1167.56V171H1168.47V166.616C1168.47 164.936 1169.35 163.72 1171.03 163.72C1172.42 163.72 1173.4 164.568 1173.4 166.376V171H1174.33V166.2C1174.33 164.152 1173.14 162.84 1171.18 162.84ZM1184.11 166.76C1184.11 164.424 1182.59 162.84 1180.32 162.84C1178 162.84 1176.44 164.488 1176.44 166.984C1176.44 169.48 1178 171.128 1180.35 171.128C1182.19 171.128 1183.5 170.104 1184 168.536H1183.05C1182.59 169.72 1181.56 170.328 1180.35 170.328C1178.75 170.328 1177.45 169.304 1177.4 167.272H1184.11V166.76ZM1180.32 163.624C1181.85 163.624 1183.04 164.584 1183.15 166.488H1177.42C1177.6 164.584 1178.8 163.624 1180.32 163.624ZM1193.5 166.76C1193.5 164.424 1191.98 162.84 1189.71 162.84C1187.39 162.84 1185.84 164.488 1185.84 166.984C1185.84 169.48 1187.39 171.128 1189.74 171.128C1191.58 171.128 1192.89 170.104 1193.39 168.536H1192.44C1191.98 169.72 1190.96 170.328 1189.74 170.328C1188.14 170.328 1186.84 169.304 1186.8 167.272H1193.5V166.76ZM1189.71 163.624C1191.24 163.624 1192.43 164.584 1192.54 166.488H1186.81C1186.99 164.584 1188.19 163.624 1189.71 163.624ZM1202.06 159.32V164.424C1201.43 163.416 1200.28 162.84 1198.99 162.84C1196.97 162.84 1195.15 164.344 1195.15 167.048C1195.15 169.736 1196.95 171.16 1198.99 171.16C1200.22 171.16 1201.43 170.584 1202.06 169.544L1202.22 171H1202.99V159.32H1202.06ZM1199.07 170.36C1197.34 170.36 1196.11 169.144 1196.11 167.048C1196.11 164.984 1197.31 163.672 1199.07 163.656C1200.71 163.64 1202.03 164.968 1202.03 167.048C1202.03 169.144 1200.71 170.36 1199.07 170.36ZM1204.95 168.712C1205 170.2 1206.17 171.16 1208.27 171.16C1210.07 171.16 1211.45 170.28 1211.45 168.76C1211.45 167.496 1210.73 166.856 1209.31 166.648L1207.61 166.392C1206.52 166.248 1206.06 165.848 1206.06 165.08C1206.06 164.152 1206.92 163.624 1208.15 163.624C1209.42 163.624 1210.33 164.2 1210.36 165.288H1211.29C1211.26 163.688 1209.95 162.84 1208.14 162.84C1206.43 162.84 1205.16 163.72 1205.16 165.08C1205.16 166.344 1205.93 167 1207.43 167.224L1209.15 167.48C1210.11 167.608 1210.52 168.024 1210.52 168.84C1210.52 169.816 1209.63 170.376 1208.23 170.376C1206.84 170.376 1205.96 169.768 1205.91 168.712H1204.95ZM1213.27 171H1214.78V169.496H1213.27V171Z" fill="white" fill-opacity="0.8"/>
</svg>
