<svg width="63" height="64" viewBox="0 0 63 64" fill="none" xmlns="http://www.w3.org/2000/svg">
<path d="M58.5004 50.4999H52.9004C52.4004 50.4999 51.9004 50.0999 51.9004 49.4999V46.3999C51.9004 45.8999 52.3004 45.3999 52.9004 45.3999H58.5004C59.0004 45.3999 59.5004 45.7999 59.5004 46.3999V49.4999C59.5004 50.0999 59.1004 50.4999 58.5004 50.4999Z" fill="#D6DBE9"/>
<path d="M38.0004 46.7001H32.4004C31.9004 46.7001 31.4004 46.3001 31.4004 45.7001V42.6001C31.4004 42.1001 31.8004 41.6001 32.4004 41.6001H38.0004C38.5004 41.6001 39.0004 42.0001 39.0004 42.6001V45.7001C39.0004 46.3001 38.6004 46.7001 38.0004 46.7001Z" fill="#D6DBE9"/>
<path d="M27.7992 31.6H22.1992C21.6992 31.6 21.1992 31.2 21.1992 30.6V27.5C21.1992 27 21.5992 26.5 22.1992 26.5H27.7992C28.2992 26.5 28.7992 26.9 28.7992 27.5V30.6C28.6992 31.2 28.2992 31.6 27.7992 31.6Z" fill="#D6DBE9"/>
<path d="M10.0004 25.6H4.40039C3.90039 25.6 3.40039 25.2 3.40039 24.6V21.5C3.40039 21 3.80039 20.5 4.40039 20.5H10.0004C10.5004 20.5 11.0004 20.9 11.0004 21.5V24.6C11.0004 25.2 10.5004 25.6 10.0004 25.6Z" fill="#D6DBE9"/>
<path d="M13.8992 62.3001H2.79922C1.59922 62.3001 0.699219 61.1001 0.699219 59.7001V8.7001C0.699219 7.2001 1.69922 6.1001 2.79922 6.1001H60.0992C61.2992 6.1001 62.1992 7.3001 62.1992 8.7001V59.6001C62.2992 61.2001 61.2992 62.3001 60.1992 62.3001H18.3992" stroke="#204ECF" stroke-width="0.75"/>
<path d="M0.699219 15.5H15.2992" stroke="#204ECF" stroke-width="0.75"/>
<path d="M19.4004 15.5H62.3004" stroke="#204ECF" stroke-width="0.75"/>
<path d="M6.59961 10.2002H6.19961C4.99961 10.2002 4.09961 9.0002 4.09961 7.7002V4.7002C4.09961 3.3002 5.09961 2.2002 6.19961 2.2002H6.49961C7.69961 2.2002 8.59961 3.4002 8.59961 4.7002V7.60019C8.69961 9.20019 7.69961 10.2002 6.59961 10.2002Z" fill="#D6DBE9"/>
<path d="M6.59961 10.2002H6.19961C4.99961 10.2002 4.09961 9.0002 4.09961 7.7002V4.7002C4.09961 3.3002 5.09961 2.2002 6.19961 2.2002H6.49961C7.69961 2.2002 8.59961 3.4002 8.59961 4.7002V7.60019C8.69961 9.20019 7.69961 10.2002 6.59961 10.2002Z" stroke="#204ECF" stroke-width="0.75"/>
<path d="M16.5996 10.2002H16.1996C14.9996 10.2002 14.0996 9.0002 14.0996 7.7002V4.7002C14.0996 3.3002 15.0996 2.2002 16.1996 2.2002H16.4996C17.6996 2.2002 18.5996 3.4002 18.5996 4.7002V7.60019C18.5996 9.20019 17.6996 10.2002 16.5996 10.2002Z" fill="#D6DBE9"/>
<path d="M16.5996 10.2002H16.1996C14.9996 10.2002 14.0996 9.0002 14.0996 7.7002V4.7002C14.0996 3.3002 15.0996 2.2002 16.1996 2.2002H16.4996C17.6996 2.2002 18.5996 3.4002 18.5996 4.7002V7.60019C18.5996 9.20019 17.6996 10.2002 16.5996 10.2002Z" stroke="#204ECF" stroke-width="0.75"/>
<path d="M26.5 10.2H26.1C24.9 10.2 24 8.99995 24 7.69995V4.69995C24 3.29995 25 2.19995 26.1 2.19995H26.4C27.6 2.19995 28.5 3.39995 28.5 4.69995V7.59995C28.6 9.19995 27.6 10.2 26.5 10.2Z" fill="#D6DBE9"/>
<path d="M26.5 10.2H26.1C24.9 10.2 24 8.99995 24 7.69995V4.69995C24 3.29995 25 2.19995 26.1 2.19995H26.4C27.6 2.19995 28.5 3.39995 28.5 4.69995V7.59995C28.6 9.19995 27.6 10.2 26.5 10.2Z" stroke="#204ECF" stroke-width="0.75"/>
<path d="M36.5 10.2H36.1C34.9 10.2 34 8.99995 34 7.69995V4.69995C34 3.29995 35 2.19995 36.1 2.19995H36.4C37.6 2.19995 38.5 3.39995 38.5 4.69995V7.59995C38.6 9.19995 37.6 10.2 36.5 10.2Z" fill="#D6DBE9"/>
<path d="M36.5 10.2H36.1C34.9 10.2 34 8.99995 34 7.69995V4.69995C34 3.29995 35 2.19995 36.1 2.19995H36.4C37.6 2.19995 38.5 3.39995 38.5 4.69995V7.59995C38.6 9.19995 37.6 10.2 36.5 10.2Z" stroke="#204ECF" stroke-width="0.75"/>
<path d="M46.5 10.2H46.1C44.9 10.2 44 8.99995 44 7.69995V4.69995C44 3.29995 45 2.19995 46.1 2.19995H46.4C47.6 2.19995 48.5 3.39995 48.5 4.69995V7.59995C48.6 9.19995 47.6 10.2 46.5 10.2Z" fill="#D6DBE9"/>
<path d="M46.5 10.2H46.1C44.9 10.2 44 8.99995 44 7.69995V4.69995C44 3.29995 45 2.19995 46.1 2.19995H46.4C47.6 2.19995 48.5 3.39995 48.5 4.69995V7.59995C48.6 9.19995 47.6 10.2 46.5 10.2Z" stroke="#204ECF" stroke-width="0.75"/>
<path d="M56.5 10.2H56.1C54.9 10.2 54 8.99995 54 7.69995V4.69995C54 3.29995 55 2.19995 56.1 2.19995H56.4C57.6 2.19995 58.5 3.39995 58.5 4.69995V7.59995C58.5 9.19995 57.5 10.2 56.5 10.2Z" fill="#D6DBE9"/>
<path d="M56.5 10.2H56.1C54.9 10.2 54 8.99995 54 7.69995V4.69995C54 3.29995 55 2.19995 56.1 2.19995H56.4C57.6 2.19995 58.5 3.39995 58.5 4.69995V7.59995C58.5 9.19995 57.5 10.2 56.5 10.2Z" stroke="#204ECF" stroke-width="0.75"/>
<path d="M11 15.7V62.5" stroke="#204ECF" stroke-width="0.75"/>
<path d="M21.1992 15.7V62.5" stroke="#204ECF" stroke-width="0.75"/>
<path d="M31.5 15.7V62.5" stroke="#204ECF" stroke-width="0.75"/>
<path d="M41.6992 15.7V62.5" stroke="#204ECF" stroke-width="0.75"/>
<path d="M52 15.7V62.5" stroke="#204ECF" stroke-width="0.75"/>
<path d="M10.0004 25.6H4.40039C3.90039 25.6 3.40039 25.2 3.40039 24.6V21.5C3.40039 21 3.80039 20.5 4.40039 20.5H10.0004C10.5004 20.5 11.0004 20.9 11.0004 21.5V24.6C11.0004 25.2 10.5004 25.6 10.0004 25.6Z" stroke="#204ECF" stroke-width="0.75"/>
<path d="M17.5004 35.3002H11.9004C11.4004 35.3002 10.9004 34.9002 10.9004 34.3002V31.2002C10.9004 30.7002 11.3004 30.2002 11.9004 30.2002H17.5004C18.0004 30.2002 18.5004 30.6002 18.5004 31.2002V34.3002C18.5004 34.8002 18.0004 35.3002 17.5004 35.3002Z" stroke="#204ECF" stroke-width="0.75"/>
<path d="M27.7992 31.6H22.1992C21.6992 31.6 21.1992 31.2 21.1992 30.6V27.5C21.1992 27 21.5992 26.5 22.1992 26.5H27.7992C28.2992 26.5 28.7992 26.9 28.7992 27.5V30.6C28.6992 31.2 28.2992 31.6 27.7992 31.6Z" stroke="#204ECF" stroke-width="0.75"/>
<path d="M38.0004 46.7001H32.4004C31.9004 46.7001 31.4004 46.3001 31.4004 45.7001V42.6001C31.4004 42.1001 31.8004 41.6001 32.4004 41.6001H38.0004C38.5004 41.6001 39.0004 42.0001 39.0004 42.6001V45.7001C39.0004 46.3001 38.6004 46.7001 38.0004 46.7001Z" stroke="#204ECF" stroke-width="0.75"/>
<path d="M48.2992 39.6H42.6992C42.1992 39.6 41.6992 39.2 41.6992 38.6V35.5C41.6992 35 42.0992 34.5 42.6992 34.5H48.2992C48.7992 34.5 49.2992 34.9 49.2992 35.5V38.6C49.1992 39.2 48.7992 39.6 48.2992 39.6Z" stroke="#204ECF" stroke-width="0.75"/>
<path d="M58.5004 31.6H52.9004C52.4004 31.6 51.9004 31.2 51.9004 30.6V27.5C51.9004 27 52.3004 26.5 52.9004 26.5H58.5004C59.0004 26.5 59.5004 26.9 59.5004 27.5V30.6C59.5004 31.2 59.1004 31.6 58.5004 31.6Z" stroke="#204ECF" stroke-width="0.75"/>
<path d="M58.5004 50.4999H52.9004C52.4004 50.4999 51.9004 50.0999 51.9004 49.4999V46.3999C51.9004 45.8999 52.3004 45.3999 52.9004 45.3999H58.5004C59.0004 45.3999 59.5004 45.7999 59.5004 46.3999V49.4999C59.5004 50.0999 59.1004 50.4999 58.5004 50.4999Z" stroke="#204ECF" stroke-width="0.75"/>
<path d="M48.2992 55.6H42.6992C42.1992 55.6 41.6992 55.2 41.6992 54.6V51.5C41.6992 51 42.0992 50.5 42.6992 50.5H48.2992C48.7992 50.5 49.2992 50.9 49.2992 51.5V54.6C49.1992 55.2 48.7992 55.6 48.2992 55.6Z" stroke="#204ECF" stroke-width="0.75"/>
<path d="M27.7992 55.6H22.1992C21.6992 55.6 21.1992 55.2 21.1992 54.6V51.5C21.1992 51 21.5992 50.5 22.1992 50.5H27.7992C28.2992 50.5 28.7992 50.9 28.7992 51.5V54.6C28.6992 55.2 28.2992 55.6 27.7992 55.6Z" stroke="#204ECF" stroke-width="0.75"/>
<path d="M17.5004 35.3002H11.9004C11.4004 35.3002 10.9004 34.9002 10.9004 34.3002V31.2002C10.9004 30.7002 11.3004 30.2002 11.9004 30.2002H17.5004C18.0004 30.2002 18.5004 30.6002 18.5004 31.2002V34.3002C18.5004 34.8002 18.0004 35.3002 17.5004 35.3002Z" stroke="#204ECF" stroke-width="0.75"/>
</svg>
