<svg width="26" height="22" viewBox="0 0 26 22" fill="none" xmlns="http://www.w3.org/2000/svg">
<path d="M13.3906 22L13.3906 16.5C13.3906 14.7812 13.6914 12.9622 14.293 11.043C14.8659 9.15234 15.7109 7.31901 16.8281 5.54297C17.9453 3.79557 19.2917 2.26302 20.8672 0.945312L25.4219 4.08203C24.0755 5.97266 23.0586 7.90625 22.3711 9.88281C21.655 11.888 21.2969 14.0508 21.2969 16.3711L21.2969 22L13.3906 22ZM0.19922 22L0.199221 16.5C0.199221 14.7812 0.500002 12.9622 1.10156 11.043C1.67448 9.15234 2.51953 7.31901 3.63672 5.54297C4.75391 3.79557 6.10026 2.26302 7.67578 0.945311L12.2305 4.08203C10.8841 5.97265 9.86719 7.90625 9.17969 9.88281C8.46354 11.888 8.10547 14.0508 8.10547 16.3711L8.10547 22L0.19922 22Z" fill="#091071"/>
</svg>
