<svg width="465" height="542" viewBox="0 0 465 542" fill="none" xmlns="http://www.w3.org/2000/svg">
<path d="M54.911 480.69V456.84H82.991V451.62H54.911V428.31H90.011V423H49.421V486H91.901V480.69H54.911ZM119.599 441C114.379 441 109.429 443.97 107.449 448.11L106.639 441H102.409V486H107.539V460.44C107.539 451.44 111.589 445.95 119.509 445.95H125.089V441H119.599ZM151.766 441C146.546 441 141.596 443.97 139.616 448.11L138.806 441H134.576V486H139.706V460.44C139.706 451.44 143.756 445.95 151.676 445.95H157.256V441H151.766ZM163.097 463.59C163.097 477.27 172.007 486.9 185.597 486.9C199.187 486.9 208.097 477.27 208.097 463.59C208.097 449.73 199.187 440.1 185.597 440.1C172.007 440.1 163.097 449.73 163.097 463.59ZM168.497 463.5C168.497 451.98 175.337 444.6 185.597 444.6C195.857 444.6 202.697 451.98 202.697 463.5C202.697 474.93 195.857 482.31 185.597 482.31C175.337 482.31 168.497 474.93 168.497 463.5ZM237.284 441C232.064 441 227.114 443.97 225.134 448.11L224.324 441H220.094V486H225.224V460.44C225.224 451.44 229.274 445.95 237.194 445.95H242.774V441H237.284ZM297.1 486H302.5V472.32H312.13V467.19H302.5V423H296.2L265.6 467.46V472.32H297.1V486ZM271.9 467.19L297.1 430.56V467.19H271.9ZM343.137 422.1C359.067 422.1 367.887 434.7 367.887 454.5C367.887 474.3 359.067 486.9 343.137 486.9C327.117 486.9 318.387 474.3 318.387 454.5C318.387 434.7 327.117 422.1 343.137 422.1ZM362.307 454.5C362.307 437.94 356.007 426.96 343.137 426.96C330.177 426.96 323.967 437.94 323.967 454.5C323.967 471.06 330.177 482.04 343.137 482.04C356.007 482.04 362.307 471.06 362.307 454.5ZM406.172 486H411.572V472.32H421.202V467.19H411.572V423H405.272L374.672 467.46V472.32H406.172V486ZM380.972 467.19L406.172 430.56V467.19H380.972Z" fill="#01031C"/>
<path d="M111.182 534H113.378V524.604H120.758C126.446 524.604 129.47 521.04 129.47 516.72C129.47 512.4 126.446 508.8 120.758 508.8H111.182V534ZM113.378 522.516V510.888H121.19C125.042 510.888 127.166 513.408 127.166 516.792C127.166 520.176 125.078 522.516 121.19 522.516H113.378ZM148.667 532.308C147.479 532.308 147.227 531.984 147.227 530.76V522.588C147.227 518.412 144.851 515.64 140.099 515.64C136.139 515.64 133.151 517.548 132.827 521.22H134.951C135.131 518.844 136.967 517.44 140.027 517.44C142.979 517.44 145.139 518.88 145.139 522.66V523.74H139.091C133.727 523.74 132.107 526.116 132.107 528.888C132.107 532.236 134.591 534.36 138.587 534.36C141.575 534.36 144.095 533.1 145.139 531.372C145.247 533.388 146.543 534 147.875 534H149.279V532.308H148.667ZM138.767 532.56C136.103 532.56 134.267 531.336 134.267 528.924C134.267 526.908 135.527 525.468 139.091 525.468H145.139V526.368C145.139 530.724 141.935 532.56 138.767 532.56ZM166.672 516L166.312 519.276C165.088 516.936 162.496 515.64 159.724 515.64C155.26 515.64 151.696 518.952 151.696 524.676C151.696 530.4 155.332 533.64 159.724 533.64C162.604 533.64 165.232 532.272 166.348 529.824V533.82C166.348 537.384 164.152 539.76 160.156 539.76C157.384 539.76 155.188 538.392 154.504 535.728H152.236C152.992 539.256 155.98 541.56 160.156 541.56C165.16 541.56 168.4 538.32 168.4 533.496V516H166.672ZM159.94 531.84C156.196 531.84 153.856 529.068 153.856 524.712C153.856 520.392 156.16 517.404 159.94 517.404C163.72 517.404 166.24 520.356 166.24 524.712C166.24 529.104 163.684 531.84 159.94 531.84ZM190.6 524.46C190.6 519.204 187.18 515.64 182.068 515.64C176.848 515.64 173.356 519.348 173.356 524.964C173.356 530.58 176.848 534.288 182.14 534.288C186.28 534.288 189.232 531.984 190.348 528.456H188.224C187.18 531.12 184.876 532.488 182.14 532.488C178.54 532.488 175.624 530.184 175.516 525.612H190.6V524.46ZM182.068 517.404C185.524 517.404 188.188 519.564 188.44 523.848H175.552C175.948 519.564 178.648 517.404 182.068 517.404ZM210.756 515.64C207.984 515.64 205.716 516.792 204.636 519.024L204.312 516H202.62V534H204.672V524.136C204.672 520.356 206.652 517.62 210.432 517.62C213.564 517.62 215.76 519.528 215.76 523.596V534H217.848V523.2C217.848 518.592 215.184 515.64 210.756 515.64ZM222.43 525.036C222.43 530.508 225.994 534.36 231.43 534.36C236.866 534.36 240.43 530.508 240.43 525.036C240.43 519.492 236.866 515.64 231.43 515.64C225.994 515.64 222.43 519.492 222.43 525.036ZM224.59 525C224.59 520.392 227.326 517.44 231.43 517.44C235.534 517.44 238.27 520.392 238.27 525C238.27 529.572 235.534 532.524 231.43 532.524C227.326 532.524 224.59 529.572 224.59 525ZM250.305 534H252.573V532.092H250.593C248.757 532.092 248.325 530.94 248.325 529.752V517.872H252.609V516H248.325V511.392H246.273V514.488C246.273 515.532 245.877 516 244.725 516H242.853V517.872H246.273V529.86C246.273 532.812 248.037 534 250.305 534ZM262.092 516V517.872H265.332V534H267.42V517.872H272.028V516H267.42V512.04C267.42 510.6 267.816 509.628 269.652 509.628H272.028V507.72H269.76C266.988 507.72 265.332 508.836 265.332 512.04V516H262.092ZM274.567 525.036C274.567 530.508 278.131 534.36 283.567 534.36C289.003 534.36 292.567 530.508 292.567 525.036C292.567 519.492 289.003 515.64 283.567 515.64C278.131 515.64 274.567 519.492 274.567 525.036ZM276.727 525C276.727 520.392 279.463 517.44 283.567 517.44C287.671 517.44 290.407 520.392 290.407 525C290.407 529.572 287.671 532.524 283.567 532.524C279.463 532.524 276.727 529.572 276.727 525ZM309.966 516V525.864C309.966 529.644 308.022 532.38 304.386 532.38C301.398 532.38 299.238 530.472 299.238 526.404V516H297.15V526.8C297.15 531.408 299.778 534.36 304.062 534.36C306.69 534.36 308.922 533.208 310.002 530.976L310.326 534H312.018V516H309.966ZM325.681 515.64C322.909 515.64 320.641 516.792 319.561 519.024L319.237 516H317.545V534H319.597V524.136C319.597 520.356 321.577 517.62 325.357 517.62C328.489 517.62 330.685 519.528 330.685 523.596V534H332.773V523.2C332.773 518.592 330.109 515.64 325.681 515.64ZM352.908 507.72V519.204C351.504 516.936 348.912 515.64 345.996 515.64C341.46 515.64 337.356 519.024 337.356 525.108C337.356 531.156 341.424 534.36 345.996 534.36C348.768 534.36 351.504 533.064 352.908 530.724L353.268 534H354.996V507.72H352.908ZM346.176 532.56C342.288 532.56 339.516 529.824 339.516 525.108C339.516 520.464 342.216 517.512 346.176 517.476C349.884 517.44 352.836 520.428 352.836 525.108C352.836 529.824 349.884 532.56 346.176 532.56Z" fill="#01031C"/>
<g clip-path="url(#clip0_357_32)">
<path d="M239.981 198.688H222.744V372.131H239.981V198.688Z" fill="#020B8B"/>
<path d="M239.98 198.755H222.676V204.752H239.98V198.755Z" fill="#00065A"/>
<path d="M332.268 58.4371V141.08L273.824 199.517H191.172L132.731 141.08V58.4371L191.172 0H273.824L332.268 58.4371Z" fill="#071088"/>
<path d="M332.268 58.4372V141.08L273.824 199.517H191.172L152.068 160.418C299.034 182.074 300.561 26.7344 300.561 26.7344L332.271 58.4402L332.268 58.4372Z" fill="#00065A"/>
<path d="M332.268 99.7588C332.268 99.7588 304.171 204.073 191.172 199.517H273.824L332.268 141.08V99.7588Z" fill="#2B3871"/>
<path d="M322.572 62.4537V137.064L269.811 189.822H195.189L142.428 137.064V62.4537L195.189 9.69531H269.811L322.572 62.4537Z" stroke="white" stroke-width="12" stroke-miterlimit="10"/>
<path d="M239.982 198.688H233.062V372.131H239.982V198.688Z" fill="#00065A"/>
<path d="M359.501 371.596H102.651C100.907 371.596 99.4941 373.009 99.4941 374.752V374.844C99.4941 376.587 100.907 378 102.651 378H359.501C361.245 378 362.658 376.587 362.658 374.844V374.752C362.658 373.009 361.245 371.596 359.501 371.596Z" fill="#071088"/>
<path d="M107.519 371.596H65.9261C64.1828 371.596 62.7695 373.009 62.7695 374.752V374.844C62.7695 376.587 64.1828 378 65.9261 378H107.519C109.262 378 110.675 376.587 110.675 374.844V374.752C110.675 373.009 109.262 371.596 107.519 371.596Z" fill="#00065A"/>
<path d="M46.8555 371.596H3.15656C1.41324 371.596 0 373.009 0 374.752V374.844C0 376.587 1.41324 378 3.15656 378H46.8555C48.5988 378 50.012 376.587 50.012 374.844V374.752C50.012 373.009 48.5988 371.596 46.8555 371.596Z" fill="#071088"/>
<path d="M414.951 371.596H379.08C377.337 371.596 375.924 373.009 375.924 374.752V374.844C375.924 376.587 377.337 378 379.08 378H414.951C416.694 378 418.107 376.587 418.107 374.844V374.752C418.107 373.009 416.694 371.596 414.951 371.596Z" fill="#071088"/>
<path d="M461.843 371.596H434.561C432.818 371.596 431.404 373.009 431.404 374.752V374.844C431.404 376.587 432.818 378 434.561 378H461.843C463.586 378 465 376.587 465 374.844V374.752C465 373.009 463.586 371.596 461.843 371.596Z" fill="#071088"/>
<path d="M197.406 359.424H106.732L108.383 353.454L111.604 341.791L113.557 334.732L116.432 324.32L121.976 304.253L124.854 293.842L145.077 220.655H159.065L166.474 247.478L179.284 293.842L182.162 304.253L187.707 324.32L190.585 334.732L195.756 353.454L197.406 359.424Z" fill="#E44D0B"/>
<path d="M197.406 359.424H106.732L108.383 353.451L111.604 341.791C174.787 338.059 166.474 247.479 166.474 247.479L195.756 353.455L197.406 359.427V359.424Z" fill="#D24508"/>
<path d="M215.96 359.424H88.1816V371.571H215.96V359.424Z" fill="#E44D0B"/>
<path d="M197.406 359.424H106.732L108.383 353.455H195.756L197.406 359.424Z" fill="#A63503"/>
<path d="M182.162 304.253C182.162 304.253 180.264 344.323 134.223 353.488L195.759 353.455L182.165 304.253H182.162Z" fill="#C13D03"/>
<path d="M182.162 304.253H121.977L124.855 293.842H179.284L182.162 304.253Z" fill="white"/>
<path d="M190.585 334.731H113.557L116.432 324.32H187.707L190.585 334.731Z" fill="white"/>
<path d="M186.403 359.424C186.403 359.424 169.466 372.208 106.732 371.571H215.957V359.424H186.403Z" fill="#B53A05"/>
</g>
<path d="M192.72 123H201.808V114.552H207.888V106.68H201.808V76.92H192.272L171.408 106.68V114.552H192.72V123ZM180.368 106.68L192.72 89.528V106.68H180.368ZM231.332 76.28C244.004 76.28 251.236 86.136 251.236 99.96C251.236 113.784 244.004 123.64 231.332 123.64C218.724 123.64 211.748 113.784 211.748 99.96C211.748 86.136 218.724 76.28 231.332 76.28ZM242.083 99.96C242.083 90.168 238.116 84.152 231.332 84.152C224.612 84.152 220.836 90.168 220.836 99.96C220.836 109.816 224.612 115.768 231.332 115.768C238.116 115.768 242.083 109.816 242.083 99.96ZM276.533 123H285.621V114.552H291.701V106.68H285.621V76.92H276.085L255.221 106.68V114.552H276.533V123ZM264.181 106.68L276.533 89.528V106.68H264.181Z" fill="white"/>
<defs>
<clipPath id="clip0_357_32">
<rect width="465" height="378" fill="white"/>
</clipPath>
</defs>
</svg>
