<svg width="196" height="193" viewBox="0 0 196 193" fill="none" xmlns="http://www.w3.org/2000/svg">
<path d="M45.2952 90.1921C49.9989 88.3957 52.381 83.0592 50.6158 78.2723C48.8506 73.4857 43.6066 71.0615 38.903 72.8579C34.1994 74.6542 31.8173 79.9908 33.5824 84.7776C35.3476 89.5642 40.5916 91.9885 45.2952 90.1921Z" fill="url(#paint0_linear_44_2)"/>
<path d="M75.6261 90.1886C80.3297 88.3922 82.7119 83.0556 80.9467 78.2691C79.1816 73.4822 73.9376 71.0582 69.234 72.8543C64.5305 74.6507 62.1483 79.9875 63.9135 84.7741C65.6786 89.5607 70.9226 91.9849 75.6261 90.1886Z" fill="url(#paint1_linear_44_2)"/>
<path d="M59.643 114.651C64.3466 112.855 66.7287 107.518 64.9635 102.731C63.1984 97.9447 57.9543 95.5205 53.2507 97.3168C48.547 99.1132 46.1649 104.45 47.9301 109.237C49.6953 114.023 54.9393 116.447 59.643 114.651Z" fill="url(#paint2_linear_44_2)"/>
<path d="M73.2883 139.406C77.9921 137.61 80.374 132.273 78.6088 127.486C76.8437 122.7 71.5998 120.275 66.8962 122.072C62.1926 123.868 59.8104 129.205 61.5756 133.991C63.3407 138.778 68.5847 141.202 73.2883 139.406Z" fill="url(#paint3_linear_44_2)"/>
<path d="M88.4799 114.651C93.1835 112.855 95.5656 107.518 93.8005 102.731C92.0353 97.9447 86.7912 95.5205 82.0876 97.3168C77.384 99.1132 75.0018 104.45 76.767 109.237C78.5321 114.023 83.7763 116.447 88.4799 114.651Z" fill="url(#paint4_linear_44_2)"/>
<path d="M101.016 139.403C105.72 137.607 108.102 132.271 106.336 127.484C104.571 122.697 99.3273 120.273 94.6237 122.069C89.9201 123.866 87.538 129.202 89.3031 133.989C91.0683 138.776 96.3122 141.2 101.016 139.403Z" fill="url(#paint5_linear_44_2)"/>
<path d="M128.651 139.407C133.354 137.611 135.736 132.274 133.971 127.487C132.206 122.701 126.962 120.276 122.258 122.073C117.555 123.869 115.173 129.206 116.938 133.992C118.703 138.779 123.947 141.203 128.651 139.407Z" fill="url(#paint6_linear_44_2)"/>
<path d="M114.529 114.66C119.232 112.864 121.614 107.527 119.849 102.74C118.084 97.9535 112.84 95.5293 108.136 97.3256C103.433 99.122 101.051 104.459 102.816 109.245C104.581 114.032 109.825 116.456 114.529 114.66Z" fill="url(#paint7_linear_44_2)"/>
<path d="M142.873 114.66C147.577 112.864 149.959 107.527 148.194 102.74C146.429 97.9535 141.185 95.5293 136.481 97.3256C131.777 99.122 129.395 104.459 131.161 109.245C132.926 114.032 138.17 116.456 142.873 114.66Z" fill="url(#paint8_linear_44_2)"/>
<path d="M127.82 90.1897C132.523 88.3933 134.905 83.0567 133.14 78.2699C131.375 73.4833 126.131 71.0591 121.427 72.8554C116.724 74.6518 114.342 79.9883 116.107 84.7752C117.872 89.5618 123.116 91.986 127.82 90.1897Z" fill="url(#paint9_linear_44_2)"/>
<path d="M156.52 90.1958C161.224 88.3997 163.606 83.0629 161.841 78.2763C160.075 73.4894 154.831 71.0654 150.128 72.8618C145.424 74.6582 143.042 79.9947 144.807 84.7813C146.572 89.5681 151.816 91.9922 156.52 90.1958Z" fill="url(#paint10_linear_44_2)"/>
<path d="M142.991 65.1003C147.694 63.3039 150.076 57.9674 148.311 53.1805C146.546 48.394 141.302 45.9697 136.598 47.7661C131.895 49.5624 129.512 54.899 131.278 59.6856C133.043 64.4724 138.287 66.8967 142.991 65.1003Z" fill="url(#paint11_linear_44_2)"/>
<path d="M119.689 26.5094C123.324 26.1909 126.016 22.9343 125.703 19.2354C125.391 15.5365 122.191 12.7961 118.556 13.1145C114.921 13.4329 112.228 16.6896 112.541 20.3884C112.854 24.0873 116.054 26.8277 119.689 26.5094Z" fill="url(#paint12_linear_44_2)"/>
<path d="M143.493 7.71547C144.234 4.51871 142.287 1.31653 139.146 0.563208C136.005 -0.190116 132.858 1.79067 132.118 4.98742C131.378 8.18418 133.324 11.3864 136.465 12.1397C139.607 12.893 142.753 10.9122 143.493 7.71547Z" fill="url(#paint13_linear_44_2)"/>
<path d="M59.468 65.1015C64.1716 63.3054 66.5537 57.9686 64.7886 53.182C63.0234 48.3954 57.7795 45.9712 53.0758 47.7675C48.3722 49.5639 45.9901 54.9005 47.7553 59.687C49.5204 64.4739 54.7644 66.8979 59.468 65.1015Z" fill="url(#paint14_linear_44_2)"/>
<path d="M73.8099 40.169C78.5135 38.3727 80.8956 33.0361 79.1304 28.2495C77.3653 23.4627 72.1214 21.0386 67.4178 22.8349C62.7139 24.6312 60.3318 29.968 62.0972 34.7545C63.8623 39.5411 69.1063 41.9654 73.8099 40.169Z" fill="url(#paint15_linear_44_2)"/>
<path d="M89.0092 65.104C93.7128 63.3076 96.0949 57.9711 94.3298 53.1845C92.5646 48.3976 87.3205 45.9736 82.6169 47.77C77.9133 49.5661 75.5311 54.9029 77.2963 59.6895C79.0614 64.4764 84.3056 66.9004 89.0092 65.104Z" fill="url(#paint16_linear_44_2)"/>
<path d="M102.143 40.1725C106.847 38.3762 109.229 33.0396 107.464 28.2528C105.698 23.4662 100.454 21.042 95.7507 22.8383C91.0471 24.6347 88.6649 29.9712 90.4301 34.7581C92.1952 39.5447 97.4394 41.9689 102.143 40.1725Z" fill="url(#paint17_linear_44_2)"/>
<path d="M23.9657 163.157H29.2168V191.764H24.7948V178.706C24.7948 176.094 24.8738 173.081 25.1896 170.67L16.7009 191.764H12.5158L4.10614 170.188C4.38252 172.88 4.422 176.094 4.38252 178.706V191.764H0V163.157H5.40906L14.6874 186.742L23.9657 163.157Z" fill="white"/>
<path d="M53.6561 188.469V191.764H51.2082C49.55 191.764 48.0497 191.121 47.7338 189.153C46.5888 190.961 44.1014 192.166 40.9429 192.166C36.4814 192.166 33.6387 189.795 33.6387 185.858C33.6387 182.362 35.8102 179.791 41.3377 179.791H47.2205V178.746C47.2205 175.733 45.4438 174.326 42.7985 174.326C40.1532 174.326 38.3765 175.692 38.2581 177.822H34.2704C34.3888 173.362 37.9817 170.791 42.9565 170.791C47.9312 170.791 51.5636 173.201 51.5636 178.786V187.103C51.5636 188.228 51.9979 188.469 52.906 188.469H53.6561ZM47.2205 182.804H41.9299C39.0082 182.804 38.1002 184.13 38.1002 185.657C38.1002 187.746 39.7189 188.67 41.9299 188.67C44.9306 188.67 47.2205 187.023 47.2205 183.648V182.804Z" fill="white"/>
<path d="M75.9997 179.469V191.764H71.6567V180.393C71.6567 176.536 69.722 174.648 66.7609 174.648C63.4049 174.648 61.5887 177.059 61.5887 180.715V191.764H57.2852V171.192H61.1939L61.5097 173.965C62.6547 171.996 64.8262 170.791 67.9059 170.791C72.9991 170.791 75.9997 174.206 75.9997 179.469Z" fill="white"/>
<path d="M100.163 182.684H84.6862C84.7652 186.541 87.2526 188.55 90.4111 188.55C92.7801 188.55 94.7542 187.425 95.5833 185.175H99.9658C98.8998 189.354 95.2675 192.166 90.3322 192.166C84.2914 192.166 80.3037 187.907 80.3037 181.438C80.3037 174.969 84.2914 170.75 90.2927 170.75C96.294 170.75 100.163 174.849 100.163 181.036V182.684ZM84.7257 179.63H95.7807C95.5438 176.054 93.2144 174.246 90.2927 174.246C87.371 174.246 85.0416 176.054 84.7257 179.63Z" fill="white"/>
<path d="M104.585 161.911H108.889V180.313L117.733 171.152H123.102L114.455 180.032L123.181 191.764H117.733L111.376 183.126L109.007 185.577V191.764H104.585V161.911Z" fill="white"/>
<path d="M128.277 185.536C128.317 187.666 130.251 188.911 132.897 188.911C135.542 188.911 137.121 187.907 137.121 186.099C137.121 184.532 136.332 183.688 134.042 183.326L129.975 182.603C126.027 181.92 124.487 179.831 124.487 176.898C124.487 173.201 128.08 170.791 132.66 170.791C137.595 170.791 141.188 173.201 141.227 177.3H136.963C136.924 175.21 135.147 174.045 132.66 174.045C130.172 174.045 128.79 175.05 128.79 176.737C128.79 178.224 129.817 178.907 132.067 179.309L136.055 180.032C139.806 180.715 141.543 182.603 141.543 185.697C141.543 189.956 137.674 192.166 132.976 192.166C127.645 192.166 124.053 189.554 123.974 185.536H128.277Z" fill="white"/>
<path d="M155.319 170.75C161.479 170.75 165.743 175.13 165.743 181.478C165.743 187.827 161.479 192.166 155.319 192.166C149.16 192.166 144.936 187.827 144.936 181.478C144.936 175.13 149.2 170.75 155.319 170.75ZM155.319 188.389C158.952 188.389 161.321 185.657 161.321 181.438C161.321 177.219 158.952 174.487 155.319 174.487C151.687 174.487 149.358 177.179 149.358 181.438C149.358 185.697 151.726 188.389 155.319 188.389Z" fill="white"/>
<path d="M171.547 171.193V167.858C171.547 163.96 173.363 161.871 177.746 161.871H180.707V165.568H178.496C176.324 165.568 175.89 166.652 175.89 168.179V171.193H180.707V175.05H175.89V191.765H171.547V175.05H168.23V171.193H171.547Z" fill="white"/>
<path d="M186.155 186.179V175.089H182.76V171.192H184.497C185.76 171.192 186.155 170.549 186.155 169.263V165.688H190.459V171.192H195.157V175.089H190.459V185.335C190.459 186.983 190.933 187.867 192.828 187.867H195.118V191.764H191.604C188.09 191.764 186.155 189.755 186.155 186.179Z" fill="white"/>
<defs>
<linearGradient id="paint0_linear_44_2" x1="16.9124" y1="30.6821" x2="98.9252" y2="190.536" gradientUnits="userSpaceOnUse">
<stop stop-color="#BCFA01"/>
<stop offset="1" stop-color="#26ED88"/>
</linearGradient>
<linearGradient id="paint1_linear_44_2" x1="41.1012" y1="18.2691" x2="123.107" y2="178.123" gradientUnits="userSpaceOnUse">
<stop stop-color="#BCFA01"/>
<stop offset="1" stop-color="#26ED88"/>
</linearGradient>
<linearGradient id="paint2_linear_44_2" x1="18.6923" y1="29.7671" x2="100.705" y2="189.621" gradientUnits="userSpaceOnUse">
<stop stop-color="#BCFA01"/>
<stop offset="1" stop-color="#26ED88"/>
</linearGradient>
<linearGradient id="paint3_linear_44_2" x1="19.7963" y1="29.2072" x2="101.809" y2="189.061" gradientUnits="userSpaceOnUse">
<stop stop-color="#BCFA01"/>
<stop offset="1" stop-color="#26ED88"/>
</linearGradient>
<linearGradient id="paint4_linear_44_2" x1="41.6892" y1="17.9672" x2="123.702" y2="177.821" gradientUnits="userSpaceOnUse">
<stop stop-color="#BCFA01"/>
<stop offset="1" stop-color="#26ED88"/>
</linearGradient>
<linearGradient id="paint5_linear_44_2" x1="41.9052" y1="17.853" x2="123.918" y2="177.707" gradientUnits="userSpaceOnUse">
<stop stop-color="#BCFA01"/>
<stop offset="1" stop-color="#26ED88"/>
</linearGradient>
<linearGradient id="paint6_linear_44_2" x1="63.9409" y1="6.55282" x2="145.954" y2="166.407" gradientUnits="userSpaceOnUse">
<stop stop-color="#BCFA01"/>
<stop offset="1" stop-color="#26ED88"/>
</linearGradient>
<linearGradient id="paint7_linear_44_2" x1="62.4496" y1="7.31535" x2="144.463" y2="167.169" gradientUnits="userSpaceOnUse">
<stop stop-color="#BCFA01"/>
<stop offset="1" stop-color="#26ED88"/>
</linearGradient>
<linearGradient id="paint8_linear_44_2" x1="85.0521" y1="-4.28162" x2="167.065" y2="155.572" gradientUnits="userSpaceOnUse">
<stop stop-color="#BCFA01"/>
<stop offset="1" stop-color="#26ED88"/>
</linearGradient>
<linearGradient id="paint9_linear_44_2" x1="82.7121" y1="-3.08266" x2="164.725" y2="156.771" gradientUnits="userSpaceOnUse">
<stop stop-color="#BCFA01"/>
<stop offset="1" stop-color="#26ED88"/>
</linearGradient>
<linearGradient id="paint10_linear_44_2" x1="105.6" y1="-14.8165" x2="187.613" y2="145.037" gradientUnits="userSpaceOnUse">
<stop stop-color="#BCFA01"/>
<stop offset="1" stop-color="#26ED88"/>
</linearGradient>
<linearGradient id="paint11_linear_44_2" x1="104.722" y1="-14.3748" x2="186.735" y2="145.479" gradientUnits="userSpaceOnUse">
<stop stop-color="#BCFA01"/>
<stop offset="1" stop-color="#26ED88"/>
</linearGradient>
<linearGradient id="paint12_linear_44_2" x1="102.699" y1="-13.3327" x2="184.712" y2="146.521" gradientUnits="userSpaceOnUse">
<stop stop-color="#BCFA01"/>
<stop offset="1" stop-color="#26ED88"/>
</linearGradient>
<linearGradient id="paint13_linear_44_2" x1="122.921" y1="-23.6982" x2="204.926" y2="136.156" gradientUnits="userSpaceOnUse">
<stop stop-color="#BCFA01"/>
<stop offset="1" stop-color="#26ED88"/>
</linearGradient>
<linearGradient id="paint14_linear_44_2" x1="38.1209" y1="19.7964" x2="120.134" y2="179.65" gradientUnits="userSpaceOnUse">
<stop stop-color="#BCFA01"/>
<stop offset="1" stop-color="#26ED88"/>
</linearGradient>
<linearGradient id="paint15_linear_44_2" x1="59.4065" y1="8.87714" x2="141.419" y2="168.731" gradientUnits="userSpaceOnUse">
<stop stop-color="#BCFA01"/>
<stop offset="1" stop-color="#26ED88"/>
</linearGradient>
<linearGradient id="paint16_linear_44_2" x1="61.6767" y1="7.7151" x2="143.69" y2="167.569" gradientUnits="userSpaceOnUse">
<stop stop-color="#BCFA01"/>
<stop offset="1" stop-color="#26ED88"/>
</linearGradient>
<linearGradient id="paint17_linear_44_2" x1="81.999" y1="-2.70573" x2="164.012" y2="157.148" gradientUnits="userSpaceOnUse">
<stop stop-color="#BCFA01"/>
<stop offset="1" stop-color="#26ED88"/>
</linearGradient>
</defs>
</svg>
