<svg width="63" height="64" viewBox="0 0 63 64" fill="none" xmlns="http://www.w3.org/2000/svg">
<path d="M31.4002 36.0001C34.8244 36.0001 37.6002 33.2243 37.6002 29.8001C37.6002 26.3759 34.8244 23.6001 31.4002 23.6001C27.976 23.6001 25.2002 26.3759 25.2002 29.8001C25.2002 33.2243 27.976 36.0001 31.4002 36.0001Z" fill="#D6DBE9"/>
<path d="M20.9004 63.2001V46.0001C20.9004 42.9001 23.4004 40.4001 26.5004 40.4001H36.2004C39.3004 40.4001 41.8004 42.9001 41.8004 46.0001V63.2001" fill="#D6DBE9"/>
<path d="M32.1 3.19995L33.9 6.69995L37.8 7.29995L34.9 9.99995L35.6 13.9L32.1 12.1L28.6 13.9L29.3 9.99995L26.5 7.29995L30.4 6.69995L32.1 3.19995Z" fill="#D6DBE9"/>
<path d="M10.2998 46.2C13.0612 46.2 15.2998 43.9614 15.2998 41.2C15.2998 38.4385 13.0612 36.2 10.2998 36.2C7.53838 36.2 5.2998 38.4385 5.2998 41.2C5.2998 43.9614 7.53838 46.2 10.2998 46.2Z" stroke="#204ECF" stroke-width="0.75"/>
<path d="M1.7998 63.2V52.5C1.7998 50 3.7998 48 6.2998 48H14.0998C16.5998 48 18.5998 50 18.5998 52.5V63.1" stroke="#204ECF" stroke-width="0.75"/>
<path d="M52.7002 46.2C55.4616 46.2 57.7002 43.9614 57.7002 41.2C57.7002 38.4385 55.4616 36.2 52.7002 36.2C49.9388 36.2 47.7002 38.4385 47.7002 41.2C47.7002 43.9614 49.9388 46.2 52.7002 46.2Z" stroke="#204ECF" stroke-width="0.75"/>
<path d="M44.2998 63.2V52.5C44.2998 50 46.2998 48 48.7998 48H56.5998C59.0998 48 61.0998 50 61.0998 52.5V63.1" stroke="#204ECF" stroke-width="0.75"/>
<path d="M31.4002 36.0001C34.8244 36.0001 37.6002 33.2243 37.6002 29.8001C37.6002 26.3759 34.8244 23.6001 31.4002 23.6001C27.976 23.6001 25.2002 26.3759 25.2002 29.8001C25.2002 33.2243 27.976 36.0001 31.4002 36.0001Z" stroke="#204ECF" stroke-width="0.75"/>
<path d="M20.9004 63.2001V46.0001C20.9004 42.9001 23.4004 40.4001 26.5004 40.4001H36.2004C39.3004 40.4001 41.8004 42.9001 41.8004 46.0001V63.2001" stroke="#204ECF" stroke-width="0.75"/>
<path d="M0.400391 63.2002H62.6004" stroke="#204ECF" stroke-width="0.75"/>
<path d="M32.1 3.19995L33.9 6.69995L37.8 7.29995L34.9 9.99995L35.6 13.9L32.1 12.1L28.6 13.9L29.3 9.99995L26.5 7.29995L30.4 6.69995L32.1 3.19995Z" stroke="#204ECF" stroke-width="0.75"/>
<path d="M42.2004 9L43.1004 10.8L45.1004 11L43.6004 12.4L44.0004 14.4L42.2004 13.4L40.5004 14.4L40.8004 12.4L39.4004 11L41.4004 10.8L42.2004 9Z" stroke="#204ECF" stroke-width="0.75"/>
<path d="M22.6002 9.80005L23.4002 11.6L25.4002 11.9L24.0002 13.2L24.3002 15.2L22.6002 14.3L20.8002 15.2L21.1002 13.2L19.7002 11.9L21.7002 11.6L22.6002 9.80005Z" stroke="#204ECF" stroke-width="0.75"/>
</svg>
