<svg width="214" height="55" viewBox="0 0 214 55" fill="none" xmlns="http://www.w3.org/2000/svg">
<g clip-path="url(#clip0_1_45)">
<path d="M78.1713 23.3301H82.3377V46.0282H78.8291V35.6674C78.8291 33.5953 78.8918 31.2043 79.1424 29.2915L72.4072 46.0282H69.0867L62.4142 28.909C62.6335 31.0449 62.6648 33.5953 62.6335 35.6674V46.0282H59.1562V23.3301H63.4479L70.8096 42.0433L78.1713 23.3301Z" fill="white"/>
<path d="M101.728 43.4142V46.0283H99.7859C98.4702 46.0283 97.2798 45.5182 97.0292 43.9561C96.1207 45.3907 94.1472 46.3471 91.6411 46.3471C88.1012 46.3471 85.8457 44.4662 85.8457 41.342C85.8457 38.5685 87.5686 36.5282 91.9543 36.5282H96.6219V35.6993C96.6219 33.3084 95.2122 32.1926 93.1134 32.1926C91.0145 32.1926 89.6049 33.2765 89.5109 34.9661H86.3469C86.4409 31.4275 89.2916 29.3872 93.2387 29.3872C97.1858 29.3872 100.068 31.3 100.068 35.7312V42.3303C100.068 43.2229 100.412 43.4142 101.133 43.4142H101.728ZM96.6219 38.9192H92.4242C90.1061 38.9192 89.3856 39.9712 89.3856 41.1826C89.3856 42.8403 90.6699 43.5736 92.4242 43.5736C94.805 43.5736 96.6219 42.2665 96.6219 39.5886V38.9192Z" fill="white"/>
<path d="M119.456 36.2732V46.0283H116.01V37.0064C116.01 33.946 114.475 32.4476 112.126 32.4476C109.463 32.4476 108.022 34.3604 108.022 37.2614V46.0283H104.607V29.706H107.709L107.959 31.9057C108.868 30.3436 110.591 29.3872 113.034 29.3872C117.075 29.3872 119.456 32.097 119.456 36.2732Z" fill="white"/>
<path d="M138.628 38.8237H126.348C126.411 41.8841 128.385 43.4781 130.891 43.4781C132.77 43.4781 134.336 42.5854 134.994 40.8002H138.472C137.626 44.1156 134.744 46.3472 130.828 46.3472C126.035 46.3472 122.871 42.968 122.871 37.8354C122.871 32.7028 126.035 29.3555 130.797 29.3555C135.558 29.3555 138.628 32.6072 138.628 37.5166V38.8237ZM126.38 36.4008H135.151C134.963 33.5636 133.115 32.129 130.797 32.129C128.478 32.129 126.63 33.5636 126.38 36.4008Z" fill="white"/>
<path d="M142.137 22.3418H145.551V36.9426L152.568 29.6741H156.829L149.968 36.7194L156.891 46.0282H152.568L147.525 39.1741L145.645 41.1188V46.0282H142.137V22.3418Z" fill="white"/>
<path d="M160.936 41.087C160.967 42.7766 162.502 43.7648 164.601 43.7648C166.7 43.7648 167.953 42.9678 167.953 41.5333C167.953 40.29 167.327 39.6205 165.51 39.3336L162.283 38.7598C159.15 38.2178 157.929 36.5601 157.929 34.2329C157.929 31.3 160.779 29.3872 164.413 29.3872C168.329 29.3872 171.18 31.3 171.211 34.5517H167.828C167.797 32.8939 166.387 31.9694 164.413 31.9694C162.44 31.9694 161.343 32.7664 161.343 34.1054C161.343 35.2849 162.158 35.8269 163.943 36.1456L167.107 36.7195C170.083 37.2614 171.462 38.7598 171.462 41.2145C171.462 44.5937 168.392 46.3471 164.664 46.3471C160.435 46.3471 157.584 44.2749 157.521 41.087H160.936Z" fill="white"/>
<path d="M182.391 29.3555C187.278 29.3555 190.661 32.8303 190.661 37.8673C190.661 42.9042 187.278 46.3472 182.391 46.3472C177.504 46.3472 174.152 42.9042 174.152 37.8673C174.152 32.8303 177.536 29.3555 182.391 29.3555ZM182.391 43.3505C185.273 43.3505 187.153 41.1827 187.153 37.8354C187.153 34.4881 185.273 32.3203 182.391 32.3203C179.509 32.3203 177.661 34.4562 177.661 37.8354C177.661 41.2146 179.54 43.3505 182.391 43.3505Z" fill="white"/>
<path d="M195.266 29.7061V27.0601C195.266 23.9678 196.707 22.3101 200.184 22.3101H202.534V25.243H200.78C199.057 25.243 198.712 26.1037 198.712 27.3151V29.7061H202.534V32.7665H198.712V46.0284H195.266V32.7665H192.635V29.7061H195.266Z" fill="white"/>
<path d="M206.857 41.5969V32.7982H204.163V29.7059H205.541C206.544 29.7059 206.857 29.1958 206.857 28.1756V25.3384H210.272V29.7059H214V32.7982H210.272V40.9274C210.272 42.2345 210.648 42.9358 212.151 42.9358H213.968V46.0281H211.18C208.392 46.0281 206.857 44.4342 206.857 41.5969Z" fill="white"/>
<path d="M4.84313 35.3785C6.69645 34.6707 7.63504 32.568 6.93953 30.6819C6.24402 28.7959 4.17779 27.8407 2.32448 28.5485C0.47116 29.2563 -0.467429 31.359 0.228079 33.2451C0.923587 35.1311 2.98982 36.0863 4.84313 35.3785Z" fill="url(#paint0_linear_1_45)"/>
<path d="M16.7943 35.377C18.6476 34.6692 19.5862 32.5665 18.8907 30.6805C18.1952 28.7944 16.129 27.8393 14.2756 28.547C12.4223 29.2548 11.4837 31.3576 12.1793 33.2436C12.8748 35.1296 14.941 36.0848 16.7943 35.377Z" fill="url(#paint1_linear_1_45)"/>
<path d="M10.4974 45.0157C12.3507 44.3079 13.2893 42.2052 12.5938 40.3191C11.8983 38.4331 9.83209 37.4779 7.97877 38.1857C6.12546 38.8935 5.18687 40.9962 5.88238 42.8823C6.57788 44.7683 8.64412 45.7235 10.4974 45.0157Z" fill="url(#paint2_linear_1_45)"/>
<path d="M15.8724 54.7696C17.7257 54.0618 18.6643 51.9591 17.9688 50.073C17.2733 48.187 15.2071 47.2318 13.3538 47.9396C11.5005 48.6474 10.5619 50.7501 11.2574 52.6362C11.9529 54.5222 14.0191 55.4774 15.8724 54.7696Z" fill="url(#paint3_linear_1_45)"/>
<path d="M21.8588 45.0157C23.7121 44.3079 24.6507 42.2052 23.9552 40.3191C23.2596 38.4331 21.1934 37.4779 19.3401 38.1857C17.4868 38.8935 16.5482 40.9962 17.2437 42.8823C17.9392 44.7683 20.0054 45.7235 21.8588 45.0157Z" fill="url(#paint4_linear_1_45)"/>
<path d="M26.7982 54.7686C28.6515 54.0608 29.5901 51.9581 28.8946 50.0721C28.1991 48.186 26.1329 47.2309 24.2796 47.9386C22.4262 48.6464 21.4876 50.7492 22.1832 52.6352C22.8787 54.5212 24.9449 55.4764 26.7982 54.7686Z" fill="url(#paint5_linear_1_45)"/>
<path d="M37.6869 54.7701C39.5402 54.0623 40.4788 51.9596 39.7833 50.0735C39.0878 48.1875 37.0215 47.2323 35.1682 47.9401C33.3149 48.6479 32.3763 50.7506 33.0718 52.6367C33.7673 54.5227 35.8336 55.4779 37.6869 54.7701Z" fill="url(#paint6_linear_1_45)"/>
<path d="M32.1224 45.0191C33.9758 44.3113 34.9143 42.2086 34.2188 40.3226C33.5233 38.4365 31.4571 37.4813 29.6038 38.1891C27.7505 38.8969 26.8119 40.9996 27.5074 42.8857C28.2029 44.7717 30.2691 45.7269 32.1224 45.0191Z" fill="url(#paint7_linear_1_45)"/>
<path d="M43.2904 45.0191C45.1437 44.3113 46.0823 42.2086 45.3868 40.3226C44.6913 38.4365 42.6251 37.4813 40.7717 38.1891C38.9184 38.8969 37.9798 40.9996 38.6753 42.8857C39.3709 44.7717 41.4371 45.7269 43.2904 45.0191Z" fill="url(#paint8_linear_1_45)"/>
<path d="M37.3588 35.3775C39.2121 34.6697 40.1507 32.567 39.4552 30.6809C38.7597 28.7949 36.6934 27.8397 34.8401 28.5475C32.9868 29.2553 32.0482 31.358 32.7437 33.2441C33.4392 35.1301 35.5054 36.0853 37.3588 35.3775Z" fill="url(#paint9_linear_1_45)"/>
<path d="M48.6674 35.3799C50.5207 34.6722 51.4593 32.5694 50.7637 30.6834C50.0682 28.7973 48.002 27.8422 46.1487 28.55C44.2954 29.2578 43.3568 31.3605 44.0523 33.2465C44.7478 35.1326 46.814 36.0877 48.6674 35.3799Z" fill="url(#paint10_linear_1_45)"/>
<path d="M43.3373 25.4918C45.1906 24.784 46.1292 22.6813 45.4337 20.7952C44.7382 18.9092 42.6719 17.954 40.8186 18.6618C38.9653 19.3696 38.0267 21.4723 38.7222 23.3583C39.4177 25.2444 41.484 26.1996 43.3373 25.4918Z" fill="url(#paint11_linear_1_45)"/>
<path d="M34.1567 10.2865C35.5889 10.161 36.6499 8.87783 36.5266 7.42041C36.4033 5.96299 35.1424 4.88322 33.7103 5.00868C32.2782 5.13414 31.2171 6.41731 31.3404 7.87473C31.4637 9.33215 32.7246 10.4119 34.1567 10.2865Z" fill="url(#paint12_linear_1_45)"/>
<path d="M43.5337 2.88114C43.8254 1.62156 43.0585 0.359847 41.8208 0.0630232C40.583 -0.2338 39.3432 0.546665 39.0516 1.80624C38.7599 3.06582 39.5268 4.32754 40.7645 4.62436C42.0023 4.92118 43.2421 4.14071 43.5337 2.88114Z" fill="url(#paint13_linear_1_45)"/>
<path d="M10.4271 25.4922C12.2804 24.7845 13.219 22.6817 12.5235 20.7957C11.828 18.9097 9.76178 17.9545 7.90846 18.6623C6.05514 19.3701 5.11655 21.4728 5.81206 23.3588C6.50757 25.2449 8.5738 26.2 10.4271 25.4922Z" fill="url(#paint14_linear_1_45)"/>
<path d="M16.0795 15.6685C17.9328 14.9607 18.8714 12.858 18.1759 10.972C17.4804 9.08592 15.4141 8.13076 13.5608 8.83855C11.7075 9.54634 10.7689 11.6491 11.4644 13.5351C12.1599 15.4211 14.2261 16.3763 16.0795 15.6685Z" fill="url(#paint15_linear_1_45)"/>
<path d="M22.0677 25.4932C23.9211 24.7854 24.8596 22.6827 24.1641 20.7967C23.4686 18.9106 21.4024 17.9555 19.5491 18.6633C17.6958 19.371 16.7572 21.4738 17.4527 23.3598C18.1482 25.2459 20.2144 26.201 22.0677 25.4932Z" fill="url(#paint16_linear_1_45)"/>
<path d="M27.2416 15.67C29.0949 14.9622 30.0335 12.8595 29.338 10.9734C28.6425 9.08739 26.5762 8.13222 24.7229 8.84001C22.8696 9.5478 21.931 11.6505 22.6265 13.5366C23.322 15.4226 25.3883 16.3778 27.2416 15.67Z" fill="url(#paint17_linear_1_45)"/>
</g>
<defs>
<linearGradient id="paint0_linear_1_45" x1="-6.3402" y1="11.9305" x2="25.9743" y2="74.9157" gradientUnits="userSpaceOnUse">
<stop stop-color="#BCFA01"/>
<stop offset="1" stop-color="#26ED88"/>
</linearGradient>
<linearGradient id="paint1_linear_1_45" x1="3.19085" y1="7.03944" x2="35.5027" y2="70.0248" gradientUnits="userSpaceOnUse">
<stop stop-color="#BCFA01"/>
<stop offset="1" stop-color="#26ED88"/>
</linearGradient>
<linearGradient id="paint2_linear_1_45" x1="-5.63783" y1="11.5699" x2="26.6767" y2="74.5552" gradientUnits="userSpaceOnUse">
<stop stop-color="#BCFA01"/>
<stop offset="1" stop-color="#26ED88"/>
</linearGradient>
<linearGradient id="paint3_linear_1_45" x1="-5.2044" y1="11.3493" x2="27.1101" y2="74.3345" gradientUnits="userSpaceOnUse">
<stop stop-color="#BCFA01"/>
<stop offset="1" stop-color="#26ED88"/>
</linearGradient>
<linearGradient id="paint4_linear_1_45" x1="3.42239" y1="6.92055" x2="35.7369" y2="69.9058" gradientUnits="userSpaceOnUse">
<stop stop-color="#BCFA01"/>
<stop offset="1" stop-color="#26ED88"/>
</linearGradient>
<linearGradient id="paint5_linear_1_45" x1="3.50756" y1="6.87557" x2="35.822" y2="69.8608" gradientUnits="userSpaceOnUse">
<stop stop-color="#BCFA01"/>
<stop offset="1" stop-color="#26ED88"/>
</linearGradient>
<linearGradient id="paint6_linear_1_45" x1="12.19" y1="2.4232" x2="44.5045" y2="65.4085" gradientUnits="userSpaceOnUse">
<stop stop-color="#BCFA01"/>
<stop offset="1" stop-color="#26ED88"/>
</linearGradient>
<linearGradient id="paint7_linear_1_45" x1="11.6024" y1="2.72345" x2="43.9169" y2="65.7088" gradientUnits="userSpaceOnUse">
<stop stop-color="#BCFA01"/>
<stop offset="1" stop-color="#26ED88"/>
</linearGradient>
<linearGradient id="paint8_linear_1_45" x1="20.5078" y1="-1.84596" x2="52.8223" y2="61.1393" gradientUnits="userSpaceOnUse">
<stop stop-color="#BCFA01"/>
<stop offset="1" stop-color="#26ED88"/>
</linearGradient>
<linearGradient id="paint9_linear_1_45" x1="19.5856" y1="-1.37346" x2="51.9001" y2="61.6118" gradientUnits="userSpaceOnUse">
<stop stop-color="#BCFA01"/>
<stop offset="1" stop-color="#26ED88"/>
</linearGradient>
<linearGradient id="paint10_linear_1_45" x1="28.6042" y1="-5.99681" x2="60.9187" y2="56.9885" gradientUnits="userSpaceOnUse">
<stop stop-color="#BCFA01"/>
<stop offset="1" stop-color="#26ED88"/>
</linearGradient>
<linearGradient id="paint11_linear_1_45" x1="28.2588" y1="-5.82281" x2="60.5733" y2="57.1625" gradientUnits="userSpaceOnUse">
<stop stop-color="#BCFA01"/>
<stop offset="1" stop-color="#26ED88"/>
</linearGradient>
<linearGradient id="paint12_linear_1_45" x1="27.4626" y1="-5.41199" x2="59.7771" y2="57.5733" gradientUnits="userSpaceOnUse">
<stop stop-color="#BCFA01"/>
<stop offset="1" stop-color="#26ED88"/>
</linearGradient>
<linearGradient id="paint13_linear_1_45" x1="35.4276" y1="-9.49639" x2="67.7394" y2="53.4889" gradientUnits="userSpaceOnUse">
<stop stop-color="#BCFA01"/>
<stop offset="1" stop-color="#26ED88"/>
</linearGradient>
<linearGradient id="paint14_linear_1_45" x1="2.01596" y1="7.64119" x2="34.3305" y2="70.6265" gradientUnits="userSpaceOnUse">
<stop stop-color="#BCFA01"/>
<stop offset="1" stop-color="#26ED88"/>
</linearGradient>
<linearGradient id="paint15_linear_1_45" x1="10.4043" y1="3.33894" x2="42.7188" y2="66.3242" gradientUnits="userSpaceOnUse">
<stop stop-color="#BCFA01"/>
<stop offset="1" stop-color="#26ED88"/>
</linearGradient>
<linearGradient id="paint16_linear_1_45" x1="11.2983" y1="2.88096" x2="43.6128" y2="65.8663" gradientUnits="userSpaceOnUse">
<stop stop-color="#BCFA01"/>
<stop offset="1" stop-color="#26ED88"/>
</linearGradient>
<linearGradient id="paint17_linear_1_45" x1="19.3045" y1="-1.2248" x2="51.619" y2="61.7605" gradientUnits="userSpaceOnUse">
<stop stop-color="#BCFA01"/>
<stop offset="1" stop-color="#26ED88"/>
</linearGradient>
<clipPath id="clip0_1_45">
<rect width="214" height="55" fill="white"/>
</clipPath>
</defs>
</svg>
