<svg width="627" height="504" viewBox="0 0 627 504" fill="none" xmlns="http://www.w3.org/2000/svg">
<circle cx="252" cy="252" r="251.5" fill="#F4F4F5" fill-opacity="0.6" stroke="#E1E3EF"/>
<circle cx="252" cy="252" r="195.5" fill="#F4F4F5" stroke="#E1E3EF"/>
<circle cx="252" cy="252" r="118" fill="#091071"/>
<path d="M211.62 266.527C215.286 265.127 217.142 260.968 215.767 257.237C214.391 253.506 210.304 251.617 206.638 253.017C202.972 254.417 201.115 258.576 202.491 262.307C203.867 266.038 207.954 267.927 211.62 266.527Z" fill="url(#paint0_linear_6_72)"/>
<path d="M235.261 266.525C238.927 265.125 240.783 260.965 239.407 257.235C238.032 253.504 233.944 251.614 230.278 253.015C226.612 254.415 224.756 258.574 226.132 262.305C227.507 266.035 231.595 267.925 235.261 266.525Z" fill="url(#paint1_linear_6_72)"/>
<path d="M222.803 285.59C226.469 284.19 228.325 280.031 226.949 276.3C225.574 272.57 221.486 270.68 217.82 272.08C214.154 273.48 212.298 277.64 213.674 281.37C215.049 285.101 219.137 286.99 222.803 285.59Z" fill="url(#paint2_linear_6_72)"/>
<path d="M233.437 304.884C237.103 303.484 238.96 299.325 237.584 295.594C236.208 291.863 232.121 289.974 228.455 291.374C224.789 292.774 222.933 296.933 224.308 300.664C225.684 304.395 229.771 306.284 233.437 304.884Z" fill="url(#paint3_linear_6_72)"/>
<path d="M245.278 285.59C248.944 284.19 250.801 280.03 249.425 276.3C248.049 272.569 243.962 270.679 240.296 272.079C236.63 273.48 234.773 277.639 236.149 281.37C237.525 285.1 241.612 286.99 245.278 285.59Z" fill="url(#paint4_linear_6_72)"/>
<path d="M255.049 304.882C258.715 303.482 260.571 299.323 259.195 295.592C257.82 291.862 253.733 289.972 250.067 291.372C246.401 292.772 244.544 296.932 245.92 300.662C247.296 304.393 251.383 306.282 255.049 304.882Z" fill="url(#paint5_linear_6_72)"/>
<path d="M276.588 304.884C280.254 303.484 282.11 299.325 280.734 295.594C279.359 291.863 275.272 289.974 271.606 291.374C267.94 292.774 266.083 296.934 267.459 300.664C268.835 304.395 272.922 306.284 276.588 304.884Z" fill="url(#paint6_linear_6_72)"/>
<path d="M265.58 285.597C269.246 284.197 271.102 280.038 269.727 276.307C268.351 272.577 264.264 270.687 260.598 272.087C256.932 273.487 255.075 277.647 256.451 281.377C257.827 285.108 261.914 286.997 265.58 285.597Z" fill="url(#paint7_linear_6_72)"/>
<path d="M287.672 285.597C291.338 284.197 293.194 280.038 291.818 276.307C290.443 272.576 286.356 270.687 282.69 272.087C279.024 273.487 277.167 277.646 278.543 281.377C279.919 285.108 284.006 286.997 287.672 285.597Z" fill="url(#paint8_linear_6_72)"/>
<path d="M275.939 266.525C279.605 265.125 281.462 260.965 280.086 257.235C278.71 253.504 274.623 251.614 270.957 253.015C267.291 254.415 265.435 258.574 266.81 262.305C268.186 266.035 272.273 267.925 275.939 266.525Z" fill="url(#paint9_linear_6_72)"/>
<path d="M298.307 266.53C301.973 265.13 303.83 260.97 302.454 257.24C301.078 253.509 296.991 251.62 293.325 253.02C289.659 254.42 287.803 258.579 289.179 262.31C290.554 266.04 294.641 267.93 298.307 266.53Z" fill="url(#paint10_linear_6_72)"/>
<path d="M287.762 246.971C291.428 245.571 293.285 241.412 291.909 237.681C290.534 233.95 286.446 232.061 282.78 233.461C279.114 234.861 277.258 239.02 278.634 242.751C280.009 246.482 284.097 248.371 287.762 246.971Z" fill="url(#paint11_linear_6_72)"/>
<path d="M269.601 216.894C272.434 216.645 274.533 214.107 274.289 211.224C274.045 208.341 271.551 206.206 268.718 206.454C265.885 206.702 263.787 209.24 264.03 212.123C264.274 215.006 266.768 217.142 269.601 216.894Z" fill="url(#paint12_linear_6_72)"/>
<path d="M288.155 202.245C288.732 199.753 287.215 197.258 284.766 196.671C282.318 196.083 279.866 197.627 279.289 200.119C278.712 202.61 280.229 205.106 282.677 205.693C285.125 206.28 287.578 204.737 288.155 202.245Z" fill="url(#paint13_linear_6_72)"/>
<path d="M222.667 246.972C226.333 245.572 228.189 241.412 226.814 237.682C225.438 233.951 221.351 232.062 217.685 233.462C214.019 234.862 212.162 239.021 213.538 242.752C214.914 246.482 219.001 248.372 222.667 246.972Z" fill="url(#paint14_linear_6_72)"/>
<path d="M233.844 227.54C237.51 226.139 239.366 221.98 237.99 218.249C236.615 214.519 232.527 212.629 228.861 214.029C225.195 215.429 223.339 219.589 224.715 223.32C226.09 227.05 230.178 228.94 233.844 227.54Z" fill="url(#paint15_linear_6_72)"/>
<path d="M245.69 246.973C249.356 245.573 251.213 241.414 249.837 237.683C248.461 233.953 244.374 232.063 240.708 233.463C237.042 234.863 235.186 239.023 236.561 242.753C237.937 246.484 242.024 248.373 245.69 246.973Z" fill="url(#paint16_linear_6_72)"/>
<path d="M255.927 227.543C259.593 226.143 261.449 221.983 260.073 218.253C258.698 214.522 254.61 212.633 250.944 214.033C247.279 215.433 245.422 219.592 246.798 223.323C248.173 227.053 252.261 228.943 255.927 227.543Z" fill="url(#paint17_linear_6_72)"/>
<path d="M445.72 377.056C445.72 375.456 444.76 374.352 442.76 374L440.888 373.664C439.576 373.424 438.808 372.88 438.808 371.664C438.808 370.256 440.12 369.552 441.576 369.552C443.448 369.552 444.472 370.416 444.472 371.792H445.528C445.528 369.904 444.04 368.64 441.656 368.64C439.432 368.64 437.784 369.776 437.784 371.632C437.784 373.168 438.68 374.256 440.616 374.608L442.488 374.944C443.864 375.184 444.696 375.744 444.696 377.024C444.696 378.48 443.256 379.248 441.72 379.248C439.72 379.248 438.616 378.384 438.616 377.008H437.56C437.56 378.896 439.128 380.16 441.656 380.16C443.944 380.16 445.72 378.992 445.72 377.056ZM453.254 372V376.384C453.254 378.064 452.39 379.28 450.774 379.28C449.446 379.28 448.486 378.432 448.486 376.624V372H447.558V376.8C447.558 378.848 448.726 380.16 450.63 380.16C451.798 380.16 452.79 379.648 453.27 378.656L453.414 380H454.166V372H453.254ZM462.783 374.48H463.807C463.295 372.832 461.951 371.84 460.143 371.84C457.839 371.84 456.287 373.488 456.287 375.984C456.287 378.48 457.839 380.128 460.143 380.128C461.999 380.128 463.359 379.024 463.839 377.36H462.863C462.415 378.592 461.407 379.312 460.159 379.312C458.511 379.312 457.247 378.192 457.247 375.984C457.247 373.76 458.511 372.64 460.159 372.64C461.359 372.64 462.319 373.328 462.783 374.48ZM471.767 374.48H472.791C472.279 372.832 470.935 371.84 469.127 371.84C466.823 371.84 465.271 373.488 465.271 375.984C465.271 378.48 466.823 380.128 469.127 380.128C470.983 380.128 472.343 379.024 472.823 377.36H471.847C471.399 378.592 470.391 379.312 469.143 379.312C467.495 379.312 466.231 378.192 466.231 375.984C466.231 373.76 467.495 372.64 469.143 372.64C470.343 372.64 471.303 373.328 471.767 374.48ZM481.999 375.76C481.999 373.424 480.479 371.84 478.207 371.84C475.887 371.84 474.335 373.488 474.335 375.984C474.335 378.48 475.887 380.128 478.239 380.128C480.079 380.128 481.391 379.104 481.887 377.536H480.943C480.479 378.72 479.455 379.328 478.239 379.328C476.639 379.328 475.343 378.304 475.295 376.272H481.999V375.76ZM478.207 372.624C479.743 372.624 480.927 373.584 481.039 375.488H475.311C475.487 373.584 476.687 372.624 478.207 372.624ZM483.642 377.712C483.69 379.2 484.858 380.16 486.954 380.16C488.762 380.16 490.138 379.28 490.138 377.76C490.138 376.496 489.418 375.856 487.994 375.648L486.298 375.392C485.21 375.248 484.746 374.848 484.746 374.08C484.746 373.152 485.61 372.624 486.842 372.624C488.106 372.624 489.018 373.2 489.05 374.288H489.978C489.946 372.688 488.634 371.84 486.826 371.84C485.114 371.84 483.85 372.72 483.85 374.08C483.85 375.344 484.618 376 486.122 376.224L487.834 376.48C488.794 376.608 489.21 377.024 489.21 377.84C489.21 378.816 488.314 379.376 486.922 379.376C485.53 379.376 484.65 378.768 484.602 377.712H483.642ZM491.58 377.712C491.628 379.2 492.796 380.16 494.892 380.16C496.7 380.16 498.076 379.28 498.076 377.76C498.076 376.496 497.356 375.856 495.932 375.648L494.236 375.392C493.148 375.248 492.684 374.848 492.684 374.08C492.684 373.152 493.548 372.624 494.78 372.624C496.044 372.624 496.956 373.2 496.988 374.288H497.916C497.884 372.688 496.572 371.84 494.764 371.84C493.052 371.84 491.788 372.72 491.788 374.08C491.788 375.344 492.556 376 494.06 376.224L495.772 376.48C496.732 376.608 497.148 377.024 497.148 377.84C497.148 378.816 496.252 379.376 494.86 379.376C493.468 379.376 492.588 378.768 492.54 377.712H491.58ZM503.453 380H504.413V375.776H507.821L510.253 380H511.389L508.909 375.664C510.717 375.296 511.661 373.984 511.661 372.288C511.661 370.16 510.317 368.8 507.789 368.8H503.453V380ZM504.413 374.848V369.728H507.933C509.677 369.728 510.637 370.64 510.637 372.288C510.637 373.936 509.677 374.848 507.933 374.848H504.413ZM520.534 379.248C520.006 379.248 519.894 379.104 519.894 378.56V374.928C519.894 373.072 518.838 371.84 516.726 371.84C514.966 371.84 513.638 372.688 513.494 374.32H514.438C514.518 373.264 515.334 372.64 516.694 372.64C518.006 372.64 518.966 373.28 518.966 374.96V375.44H516.278C513.894 375.44 513.174 376.496 513.174 377.728C513.174 379.216 514.278 380.16 516.054 380.16C517.382 380.16 518.502 379.6 518.966 378.832C519.014 379.728 519.59 380 520.182 380H520.806V379.248H520.534ZM516.134 379.36C514.95 379.36 514.134 378.816 514.134 377.744C514.134 376.848 514.694 376.208 516.278 376.208H518.966V376.608C518.966 378.544 517.542 379.36 516.134 379.36ZM524.629 380H525.637V379.152H524.757C523.941 379.152 523.749 378.64 523.749 378.112V372.832H525.653V372H523.749V369.952H522.837V371.328C522.837 371.792 522.661 372 522.149 372H521.317V372.832H522.837V378.16C522.837 379.472 523.621 380 524.629 380ZM534.734 375.76C534.734 373.424 533.214 371.84 530.942 371.84C528.622 371.84 527.07 373.488 527.07 375.984C527.07 378.48 528.622 380.128 530.974 380.128C532.814 380.128 534.126 379.104 534.622 377.536H533.678C533.214 378.72 532.19 379.328 530.974 379.328C529.374 379.328 528.078 378.304 528.03 376.272H534.734V375.76ZM530.942 372.624C532.478 372.624 533.662 373.584 533.774 375.488H528.046C528.222 373.584 529.422 372.624 530.942 372.624Z" fill="#01031C" fill-opacity="0.8"/>
<path d="M443.72 338.96C440.288 338.96 437.96 341.336 437.96 344.888C437.96 348.584 440.48 350.768 443.696 350.768C445.928 350.768 447.68 349.688 448.424 348.008C448.448 348.32 448.472 348.608 448.472 348.92C448.472 352.016 447.152 354.896 443.744 354.896C441.968 354.896 440.552 354.08 439.88 352.352H438.32C438.848 354.632 440.96 356.24 443.72 356.24C448.424 356.24 449.912 352.352 449.912 347.744C449.912 341.84 447.464 338.96 443.72 338.96ZM448.016 344.96C447.968 347.624 446.288 349.424 443.696 349.424C440.96 349.424 439.448 347.408 439.448 344.888C439.448 342.392 440.96 340.304 443.672 340.304C446.36 340.304 448.064 342.368 448.016 344.96ZM460.073 340.616C457.073 344.72 454.577 350.648 453.617 356H455.105C455.945 350.936 458.537 344.984 461.825 340.544V339.2H450.881V340.616H460.073ZM466.684 347.624C469.012 347.624 470.212 345.824 470.212 343.28C470.212 340.712 468.964 338.984 466.684 338.984C464.356 338.984 463.132 340.808 463.132 343.28C463.132 345.872 464.38 347.624 466.684 347.624ZM466.756 356H468.412L478.876 339.2H477.196L466.756 356ZM466.684 346.376C465.052 346.376 464.524 345.08 464.524 343.28C464.524 341.456 465.148 340.232 466.684 340.232C468.268 340.232 468.82 341.576 468.82 343.28C468.82 345.152 468.268 346.376 466.684 346.376ZM479.092 356.24C481.42 356.24 482.644 354.416 482.644 351.896C482.644 349.352 481.348 347.6 479.092 347.6C476.764 347.6 475.54 349.4 475.54 351.896C475.54 354.512 476.788 356.24 479.092 356.24ZM479.092 354.992C477.508 354.992 476.956 353.792 476.956 351.896C476.956 350.024 477.508 348.848 479.092 348.848C480.724 348.848 481.228 350.144 481.228 351.896C481.228 353.912 480.628 354.992 479.092 354.992Z" fill="#01031C"/>
<circle cx="422.5" cy="345.5" r="7.5" fill="#091071"/>
<path d="M74.312 128V116.8H77.816C81.448 116.8 83.416 119.104 83.416 122.4C83.416 125.696 81.448 128 77.816 128H74.312ZM75.288 127.056H78.024C80.76 127.04 82.392 125.2 82.392 122.4C82.392 119.6 80.76 117.744 78.024 117.744H75.288V127.056ZM92.3468 127.248C91.8188 127.248 91.7068 127.104 91.7068 126.56V122.928C91.7068 121.072 90.6508 119.84 88.5388 119.84C86.7788 119.84 85.4508 120.688 85.3068 122.32H86.2508C86.3307 121.264 87.1468 120.64 88.5068 120.64C89.8188 120.64 90.7788 121.28 90.7788 122.96V123.44H88.0908C85.7068 123.44 84.9868 124.496 84.9868 125.728C84.9868 127.216 86.0908 128.16 87.8668 128.16C89.1948 128.16 90.3148 127.6 90.7788 126.832C90.8268 127.728 91.4028 128 91.9948 128H92.6188V127.248H92.3468ZM87.9468 127.36C86.7628 127.36 85.9468 126.816 85.9468 125.744C85.9468 124.848 86.5068 124.208 88.0908 124.208H90.7788V124.608C90.7788 126.544 89.3548 127.36 87.9468 127.36ZM94.1174 118.048H95.4774V116.8H94.1174V118.048ZM94.3414 128H95.2534V120H94.3414V128ZM98.6284 116.32H97.7164V128H98.6284V116.32ZM101.075 120H100.051L103.139 128C103.235 128.256 103.283 128.512 103.283 128.752C103.283 129.824 102.691 130.352 101.731 130.352H100.275V131.2H101.699C102.851 131.2 103.619 130.848 104.179 129.312L107.539 120L106.547 119.984L103.923 127.6L101.075 120ZM117.034 128.144C120.186 128.144 122.298 125.792 122.298 122.448C122.298 119.088 120.186 116.64 117.034 116.64C113.882 116.64 111.738 119.088 111.738 122.448C111.738 125.792 113.882 128.144 117.034 128.144ZM117.034 127.216C114.426 127.216 112.762 125.264 112.762 122.432C112.762 119.6 114.41 117.568 117.034 117.568C119.642 117.568 121.274 119.6 121.274 122.432C121.274 125.264 119.642 127.216 117.034 127.216ZM124.31 120H123.286L126.726 128H127.67L131.11 120H130.118L127.206 126.864L124.31 120ZM139.624 123.76C139.624 121.424 138.104 119.84 135.832 119.84C133.512 119.84 131.96 121.488 131.96 123.984C131.96 126.48 133.512 128.128 135.864 128.128C137.704 128.128 139.016 127.104 139.512 125.536H138.568C138.104 126.72 137.08 127.328 135.864 127.328C134.264 127.328 132.968 126.304 132.92 124.272H139.624V123.76ZM135.832 120.624C137.368 120.624 138.552 121.584 138.664 123.488H132.936C133.112 121.584 134.312 120.624 135.832 120.624ZM144.819 120C143.891 120 143.011 120.528 142.659 121.264L142.515 120H141.763V128H142.675V123.456C142.675 121.856 143.395 120.88 144.803 120.88H145.795V120H144.819ZM148.394 116.32H147.482V128H148.394V116.32ZM157.753 127.248C157.225 127.248 157.113 127.104 157.113 126.56V122.928C157.113 121.072 156.057 119.84 153.945 119.84C152.185 119.84 150.857 120.688 150.713 122.32H151.657C151.737 121.264 152.553 120.64 153.913 120.64C155.225 120.64 156.185 121.28 156.185 122.96V123.44H153.497C151.113 123.44 150.393 124.496 150.393 125.728C150.393 127.216 151.497 128.16 153.273 128.16C154.601 128.16 155.721 127.6 156.185 126.832C156.233 127.728 156.809 128 157.401 128H158.025V127.248H157.753ZM153.353 127.36C152.169 127.36 151.353 126.816 151.353 125.744C151.353 124.848 151.913 124.208 153.497 124.208H156.185V124.608C156.185 126.544 154.761 127.36 153.353 127.36ZM163.732 119.84C162.5 119.84 161.3 120.384 160.66 121.44L160.516 120H159.748V131.2H160.66V126.608C161.284 127.648 162.5 128.16 163.732 128.16C165.764 128.16 167.572 126.704 167.572 124.016C167.572 121.312 165.748 119.84 163.732 119.84ZM163.652 127.36C162.004 127.36 160.692 126.144 160.692 124.048C160.692 121.952 162.004 120.624 163.652 120.64C165.412 120.656 166.612 121.936 166.612 124.016C166.612 126.112 165.38 127.36 163.652 127.36Z" fill="#01031C" fill-opacity="0.8"/>
<path d="M82 104H83.44V100.352H86.008V98.984H83.44V87.2H81.76L73.6 99.056V100.352H82V104ZM75.28 98.984L82 89.216V98.984H75.28ZM99.1966 95.36H94.3966V90.56H92.9566V95.36H88.1566V96.8H92.9566V101.6H94.3966V96.8H99.1966V95.36ZM113.064 91.76C111.36 91.76 109.656 92.552 108.888 93.968V86.48H107.52V104H108.888V97.424C108.888 94.952 110.28 93.08 112.872 93.08C114.936 93.08 116.28 94.256 116.28 97.064V104H117.672V96.8C117.672 93.008 115.392 91.76 113.064 91.76ZM125.815 92C124.423 92 123.103 92.792 122.575 93.896L122.359 92H121.231V104H122.599V97.184C122.599 94.784 123.679 93.32 125.791 93.32H127.279V92H125.815ZM128.713 100.568C128.785 102.8 130.537 104.24 133.681 104.24C136.393 104.24 138.457 102.92 138.457 100.64C138.457 98.744 137.377 97.784 135.241 97.472L132.697 97.088C131.065 96.872 130.369 96.272 130.369 95.12C130.369 93.728 131.665 92.936 133.513 92.936C135.409 92.936 136.777 93.8 136.825 95.432H138.217C138.169 93.032 136.201 91.76 133.489 91.76C130.921 91.76 129.025 93.08 129.025 95.12C129.025 97.016 130.177 98 132.433 98.336L135.001 98.72C136.441 98.912 137.065 99.536 137.065 100.76C137.065 102.224 135.721 103.064 133.633 103.064C131.545 103.064 130.225 102.152 130.153 100.568H128.713Z" fill="#01031C"/>
<circle cx="58.5" cy="93.5" r="7.5" fill="#D3D3DD"/>
<path d="M139.096 431.144C142.248 431.144 144.36 428.792 144.36 425.448C144.36 422.088 142.248 419.64 139.096 419.64C135.944 419.64 133.8 422.088 133.8 425.448C133.8 428.792 135.944 431.144 139.096 431.144ZM139.096 430.216C136.488 430.216 134.824 428.264 134.824 425.432C134.824 422.6 136.472 420.568 139.096 420.568C141.704 420.568 143.336 422.6 143.336 425.432C143.336 428.264 141.704 430.216 139.096 430.216ZM149.444 423C148.516 423 147.636 423.528 147.284 424.264L147.14 423H146.388V431H147.3V426.456C147.3 424.856 148.02 423.88 149.428 423.88H150.42V423H149.444ZM156.366 430.056V419.8H155.39V431H162.222V430.056H156.366ZM170.703 426.76C170.703 424.424 169.183 422.84 166.911 422.84C164.591 422.84 163.039 424.488 163.039 426.984C163.039 429.48 164.591 431.128 166.943 431.128C168.783 431.128 170.095 430.104 170.591 428.536H169.647C169.183 429.72 168.159 430.328 166.943 430.328C165.343 430.328 164.047 429.304 163.999 427.272H170.703V426.76ZM166.911 423.624C168.447 423.624 169.631 424.584 169.743 426.488H164.015C164.191 424.584 165.391 423.624 166.911 423.624ZM172.345 428.712C172.393 430.2 173.561 431.16 175.657 431.16C177.465 431.16 178.841 430.28 178.841 428.76C178.841 427.496 178.121 426.856 176.697 426.648L175.001 426.392C173.913 426.248 173.449 425.848 173.449 425.08C173.449 424.152 174.313 423.624 175.545 423.624C176.809 423.624 177.721 424.2 177.753 425.288H178.681C178.649 423.688 177.337 422.84 175.529 422.84C173.817 422.84 172.553 423.72 172.553 425.08C172.553 426.344 173.321 427 174.825 427.224L176.537 427.48C177.497 427.608 177.913 428.024 177.913 428.84C177.913 429.816 177.017 430.376 175.625 430.376C174.233 430.376 173.353 429.768 173.305 428.712H172.345ZM180.283 428.712C180.331 430.2 181.499 431.16 183.595 431.16C185.403 431.16 186.779 430.28 186.779 428.76C186.779 427.496 186.059 426.856 184.635 426.648L182.939 426.392C181.851 426.248 181.387 425.848 181.387 425.08C181.387 424.152 182.251 423.624 183.483 423.624C184.747 423.624 185.659 424.2 185.691 425.288H186.619C186.587 423.688 185.275 422.84 183.467 422.84C181.755 422.84 180.491 423.72 180.491 425.08C180.491 426.344 181.259 427 182.763 427.224L184.475 427.48C185.435 427.608 185.851 428.024 185.851 428.84C185.851 429.816 184.955 430.376 183.563 430.376C182.171 430.376 181.291 429.768 181.243 428.712H180.283ZM194.332 431H195.34V430.152H194.46C193.644 430.152 193.452 429.64 193.452 429.112V423.832H195.356V423H193.452V420.952H192.54V422.328C192.54 422.792 192.364 423 191.852 423H191.02V423.832H192.54V429.16C192.54 430.472 193.324 431 194.332 431ZM196.693 427.016C196.693 429.448 198.277 431.16 200.693 431.16C203.109 431.16 204.693 429.448 204.693 427.016C204.693 424.552 203.109 422.84 200.693 422.84C198.277 422.84 196.693 424.552 196.693 427.016ZM197.653 427C197.653 424.952 198.869 423.64 200.693 423.64C202.517 423.64 203.733 424.952 203.733 427C203.733 429.032 202.517 430.344 200.693 430.344C198.869 430.344 197.653 429.032 197.653 427ZM217.757 425.8V431H218.733V419.8H217.757V424.856H211.085V419.8H210.109V431H211.085V425.8H217.757ZM221.055 421.048H222.415V419.8H221.055V421.048ZM221.279 431H222.191V423H221.279V431ZM227.71 423C226.782 423 225.902 423.528 225.55 424.264L225.406 423H224.654V431H225.566V426.456C225.566 424.856 226.286 423.88 227.694 423.88H228.686V423H227.71ZM237.468 426.76C237.468 424.424 235.948 422.84 233.676 422.84C231.356 422.84 229.804 424.488 229.804 426.984C229.804 429.48 231.356 431.128 233.708 431.128C235.548 431.128 236.86 430.104 237.356 428.536H236.412C235.948 429.72 234.924 430.328 233.708 430.328C232.108 430.328 230.812 429.304 230.764 427.272H237.468V426.76ZM233.676 423.624C235.212 423.624 236.396 424.584 236.508 426.488H230.78C230.956 424.584 232.156 423.624 233.676 423.624Z" fill="#01031C" fill-opacity="0.8"/>
<path d="M144.904 393.248L135.4 398.312V399.992L144.904 405.032V403.4L136.816 399.176L144.904 394.904V393.248ZM153.895 395.792C152.359 395.792 150.943 396.344 150.223 397.136L151.255 391.592H158.815V390.2H150.151L148.591 399.056H150.175C150.919 397.856 152.191 397.088 153.847 397.088C156.319 397.088 157.951 398.816 157.951 401.456C157.951 404.144 156.295 405.944 153.775 405.944C151.687 405.944 150.103 404.84 149.791 402.8H148.231C148.543 405.464 150.847 407.24 153.775 407.24C157.063 407.24 159.439 405.08 159.439 401.504C159.439 398.072 157.207 395.792 153.895 395.792ZM167.054 407V390.2H172.31C177.758 390.2 180.71 393.656 180.71 398.6C180.71 403.544 177.758 407 172.31 407H167.054ZM168.518 405.584H172.622C176.726 405.56 179.174 402.8 179.174 398.6C179.174 394.4 176.726 391.616 172.622 391.616H168.518V405.584ZM194.106 405.872C193.314 405.872 193.146 405.656 193.146 404.84V399.392C193.146 396.608 191.562 394.76 188.394 394.76C185.754 394.76 183.762 396.032 183.546 398.48H184.962C185.082 396.896 186.306 395.96 188.346 395.96C190.314 395.96 191.754 396.92 191.754 399.44V400.16H187.722C184.146 400.16 183.066 401.744 183.066 403.592C183.066 405.824 184.722 407.24 187.386 407.24C189.378 407.24 191.058 406.4 191.754 405.248C191.826 406.592 192.69 407 193.578 407H194.514V405.872H194.106ZM187.506 406.04C185.73 406.04 184.506 405.224 184.506 403.616C184.506 402.272 185.346 401.312 187.722 401.312H191.754V401.912C191.754 404.816 189.618 406.04 187.506 406.04ZM196.605 395H195.069L199.701 407C199.845 407.384 199.917 407.768 199.917 408.128C199.917 409.736 199.029 410.528 197.589 410.528H195.405V411.8H197.541C199.269 411.8 200.421 411.272 201.261 408.968L206.301 395L204.813 394.976L200.877 406.4L196.605 395ZM207.463 403.568C207.535 405.8 209.287 407.24 212.431 407.24C215.143 407.24 217.207 405.92 217.207 403.64C217.207 401.744 216.127 400.784 213.991 400.472L211.447 400.088C209.815 399.872 209.119 399.272 209.119 398.12C209.119 396.728 210.415 395.936 212.263 395.936C214.159 395.936 215.527 396.8 215.575 398.432H216.967C216.919 396.032 214.951 394.76 212.239 394.76C209.671 394.76 207.775 396.08 207.775 398.12C207.775 400.016 208.927 401 211.183 401.336L213.751 401.72C215.191 401.912 215.815 402.536 215.815 403.76C215.815 405.224 214.471 406.064 212.383 406.064C210.295 406.064 208.975 405.152 208.903 403.568H207.463Z" fill="#01031C"/>
<circle cx="118.5" cy="396.5" r="7.5" fill="#D3D3DD"/>
<path d="M516.512 208.744V207.8H509.312V219H510.288V213.992H515.936V213.064H510.288V208.744H516.512ZM523.816 211V215.384C523.816 217.064 522.952 218.28 521.336 218.28C520.008 218.28 519.048 217.432 519.048 215.624V211H518.12V215.8C518.12 217.848 519.288 219.16 521.192 219.16C522.36 219.16 523.352 218.648 523.832 217.656L523.976 219H524.728V211H523.816ZM528.097 207.32H527.185V219H528.097V207.32ZM531.472 207.32H530.56V219H531.472V207.32ZM541.218 208.744H545.202V207.8H536.29V208.744H540.258V219H541.218V208.744ZM546.602 209.048H547.962V207.8H546.602V209.048ZM546.826 219H547.738V211H546.826V219ZM558.633 210.84C557.625 210.84 556.521 211.32 556.025 212.456C555.577 211.416 554.617 210.84 553.353 210.84C552.489 210.84 551.561 211.176 551.113 211.976L550.953 211H550.201V219H551.113V214.088C551.113 212.648 551.929 211.72 553.353 211.72C554.649 211.72 555.369 212.584 555.369 214.136V219H556.281V214.2C556.329 212.504 557.305 211.72 558.505 211.72C559.737 211.72 560.537 212.376 560.537 214.04V219H561.481V213.912C561.481 212.072 560.473 210.84 558.633 210.84ZM571.249 214.76C571.249 212.424 569.729 210.84 567.457 210.84C565.137 210.84 563.585 212.488 563.585 214.984C563.585 217.48 565.137 219.128 567.489 219.128C569.329 219.128 570.641 218.104 571.137 216.536H570.193C569.729 217.72 568.705 218.328 567.489 218.328C565.889 218.328 564.593 217.304 564.545 215.272H571.249V214.76ZM567.457 211.624C568.993 211.624 570.177 212.584 570.289 214.488H564.561C564.737 212.584 565.937 211.624 567.457 211.624Z" fill="#01031C" fill-opacity="0.8"/>
<path d="M513.808 195V178.2H512.368L508.408 180.312V181.848L512.368 179.76V195H513.808ZM523.98 177.96C528.228 177.96 530.58 181.32 530.58 186.6C530.58 191.88 528.228 195.24 523.98 195.24C519.708 195.24 517.38 191.88 517.38 186.6C517.38 181.32 519.708 177.96 523.98 177.96ZM529.092 186.6C529.092 182.184 527.412 179.256 523.98 179.256C520.524 179.256 518.868 182.184 518.868 186.6C518.868 191.016 520.524 193.944 523.98 193.944C527.412 193.944 529.092 191.016 529.092 186.6ZM539.589 177.96C543.837 177.96 546.189 181.32 546.189 186.6C546.189 191.88 543.837 195.24 539.589 195.24C535.317 195.24 532.989 191.88 532.989 186.6C532.989 181.32 535.317 177.96 539.589 177.96ZM544.701 186.6C544.701 182.184 543.021 179.256 539.589 179.256C536.133 179.256 534.477 182.184 534.477 186.6C534.477 191.016 536.133 193.944 539.589 193.944C543.021 193.944 544.701 191.016 544.701 186.6ZM551.91 186.624C554.238 186.624 555.438 184.824 555.438 182.28C555.438 179.712 554.19 177.984 551.91 177.984C549.582 177.984 548.358 179.808 548.358 182.28C548.358 184.872 549.606 186.624 551.91 186.624ZM551.982 195H553.638L564.102 178.2H562.422L551.982 195ZM551.91 185.376C550.278 185.376 549.75 184.08 549.75 182.28C549.75 180.456 550.374 179.232 551.91 179.232C553.494 179.232 554.046 180.576 554.046 182.28C554.046 184.152 553.494 185.376 551.91 185.376ZM564.318 195.24C566.646 195.24 567.87 193.416 567.87 190.896C567.87 188.352 566.574 186.6 564.318 186.6C561.99 186.6 560.766 188.4 560.766 190.896C560.766 193.512 562.014 195.24 564.318 195.24ZM564.318 193.992C562.734 193.992 562.182 192.792 562.182 190.896C562.182 189.024 562.734 187.848 564.318 187.848C565.95 187.848 566.454 189.144 566.454 190.896C566.454 192.912 565.854 193.992 564.318 193.992Z" fill="#01031C"/>
<circle cx="493.5" cy="184.5" r="7.5" fill="#D3D3DD"/>
<defs>
<linearGradient id="paint0_linear_6_72" x1="189.499" y1="220.145" x2="253.419" y2="344.734" gradientUnits="userSpaceOnUse">
<stop stop-color="#BCFA01"/>
<stop offset="1" stop-color="#26ED88"/>
</linearGradient>
<linearGradient id="paint1_linear_6_72" x1="208.352" y1="210.471" x2="272.267" y2="335.06" gradientUnits="userSpaceOnUse">
<stop stop-color="#BCFA01"/>
<stop offset="1" stop-color="#26ED88"/>
</linearGradient>
<linearGradient id="paint2_linear_6_72" x1="190.886" y1="219.432" x2="254.806" y2="344.021" gradientUnits="userSpaceOnUse">
<stop stop-color="#BCFA01"/>
<stop offset="1" stop-color="#26ED88"/>
</linearGradient>
<linearGradient id="paint3_linear_6_72" x1="191.746" y1="218.996" x2="255.666" y2="343.585" gradientUnits="userSpaceOnUse">
<stop stop-color="#BCFA01"/>
<stop offset="1" stop-color="#26ED88"/>
</linearGradient>
<linearGradient id="paint4_linear_6_72" x1="208.81" y1="210.235" x2="272.73" y2="334.824" gradientUnits="userSpaceOnUse">
<stop stop-color="#BCFA01"/>
<stop offset="1" stop-color="#26ED88"/>
</linearGradient>
<linearGradient id="paint5_linear_6_72" x1="208.978" y1="210.147" x2="272.898" y2="334.736" gradientUnits="userSpaceOnUse">
<stop stop-color="#BCFA01"/>
<stop offset="1" stop-color="#26ED88"/>
</linearGradient>
<linearGradient id="paint6_linear_6_72" x1="226.153" y1="201.339" x2="290.073" y2="325.928" gradientUnits="userSpaceOnUse">
<stop stop-color="#BCFA01"/>
<stop offset="1" stop-color="#26ED88"/>
</linearGradient>
<linearGradient id="paint7_linear_6_72" x1="224.99" y1="201.934" x2="288.91" y2="326.523" gradientUnits="userSpaceOnUse">
<stop stop-color="#BCFA01"/>
<stop offset="1" stop-color="#26ED88"/>
</linearGradient>
<linearGradient id="paint8_linear_6_72" x1="242.606" y1="192.895" x2="306.526" y2="317.484" gradientUnits="userSpaceOnUse">
<stop stop-color="#BCFA01"/>
<stop offset="1" stop-color="#26ED88"/>
</linearGradient>
<linearGradient id="paint9_linear_6_72" x1="240.783" y1="193.829" x2="304.703" y2="318.418" gradientUnits="userSpaceOnUse">
<stop stop-color="#BCFA01"/>
<stop offset="1" stop-color="#26ED88"/>
</linearGradient>
<linearGradient id="paint10_linear_6_72" x1="258.621" y1="184.684" x2="322.541" y2="309.273" gradientUnits="userSpaceOnUse">
<stop stop-color="#BCFA01"/>
<stop offset="1" stop-color="#26ED88"/>
</linearGradient>
<linearGradient id="paint11_linear_6_72" x1="257.936" y1="185.029" x2="321.856" y2="309.618" gradientUnits="userSpaceOnUse">
<stop stop-color="#BCFA01"/>
<stop offset="1" stop-color="#26ED88"/>
</linearGradient>
<linearGradient id="paint12_linear_6_72" x1="256.36" y1="185.841" x2="320.28" y2="310.43" gradientUnits="userSpaceOnUse">
<stop stop-color="#BCFA01"/>
<stop offset="1" stop-color="#26ED88"/>
</linearGradient>
<linearGradient id="paint13_linear_6_72" x1="272.12" y1="177.761" x2="336.035" y2="302.35" gradientUnits="userSpaceOnUse">
<stop stop-color="#BCFA01"/>
<stop offset="1" stop-color="#26ED88"/>
</linearGradient>
<linearGradient id="paint14_linear_6_72" x1="206.029" y1="211.661" x2="269.949" y2="336.25" gradientUnits="userSpaceOnUse">
<stop stop-color="#BCFA01"/>
<stop offset="1" stop-color="#26ED88"/>
</linearGradient>
<linearGradient id="paint15_linear_6_72" x1="222.618" y1="203.151" x2="286.538" y2="327.74" gradientUnits="userSpaceOnUse">
<stop stop-color="#BCFA01"/>
<stop offset="1" stop-color="#26ED88"/>
</linearGradient>
<linearGradient id="paint16_linear_6_72" x1="224.388" y1="202.245" x2="288.308" y2="326.834" gradientUnits="userSpaceOnUse">
<stop stop-color="#BCFA01"/>
<stop offset="1" stop-color="#26ED88"/>
</linearGradient>
<linearGradient id="paint17_linear_6_72" x1="240.227" y1="194.124" x2="304.147" y2="318.713" gradientUnits="userSpaceOnUse">
<stop stop-color="#BCFA01"/>
<stop offset="1" stop-color="#26ED88"/>
</linearGradient>
</defs>
</svg>
