<svg width="1297" height="160" viewBox="0 0 1297 160" fill="none" xmlns="http://www.w3.org/2000/svg">
<circle cx="208.5" cy="33.5" r="30" stroke="#01031C"/>
<path d="M210.167 44V25.8H208.607L204.317 28.088V29.752L208.607 27.49V44H210.167Z" fill="#01031C"/>
<path d="M580.354 32.3535C580.549 32.1583 580.549 31.8417 580.354 31.6464L577.172 28.4644C576.976 28.2692 576.66 28.2692 576.464 28.4644C576.269 28.6597 576.269 28.9763 576.464 29.1715L579.293 32L576.464 34.8284C576.269 35.0237 576.269 35.3402 576.464 35.5355C576.66 35.7308 576.976 35.7308 577.172 35.5355L580.354 32.3535ZM239 32.5L580 32.5L580 31.5L239 31.5L239 32.5Z" fill="#01031C"/>
<path d="M1036.35 32.3535C1036.55 32.1583 1036.55 31.8417 1036.35 31.6464L1033.17 28.4644C1032.98 28.2692 1032.66 28.2692 1032.46 28.4644C1032.27 28.6597 1032.27 28.9763 1032.46 29.1715L1035.29 32L1032.46 34.8284C1032.27 35.0237 1032.27 35.3402 1032.46 35.5355C1032.66 35.7308 1032.98 35.7308 1033.17 35.5355L1036.35 32.3535ZM695 32.5L1036 32.5L1036 31.5L695 31.5L695 32.5Z" fill="#01031C"/>
<path d="M152.354 32.3536C152.549 32.1583 152.549 31.8417 152.354 31.6465L149.172 28.4645C148.976 28.2692 148.66 28.2692 148.464 28.4645C148.269 28.6597 148.269 28.9763 148.464 29.1716L151.293 32L148.464 34.8284C148.269 35.0237 148.269 35.3403 148.464 35.5355C148.66 35.7308 148.976 35.7308 149.172 35.5355L152.354 32.3536ZM-4.37114e-08 32.5L152 32.5L152 31.5L4.37114e-08 31.5L-4.37114e-08 32.5Z" fill="#01031C" fill-opacity="0.5"/>
<path d="M1296.35 32.3535C1296.55 32.1583 1296.55 31.8417 1296.35 31.6464L1293.17 28.4645C1292.98 28.2692 1292.66 28.2692 1292.46 28.4645C1292.27 28.6597 1292.27 28.9763 1292.46 29.1716L1295.29 32L1292.46 34.8284C1292.27 35.0237 1292.27 35.3403 1292.46 35.5355C1292.66 35.7308 1292.98 35.7308 1293.17 35.5355L1296.35 32.3535ZM1144 32.5L1296 32.5L1296 31.5L1144 31.5L1144 32.5Z" fill="#01031C" fill-opacity="0.5"/>
<circle cx="644.5" cy="33.5" r="30" stroke="#01031C"/>
<path d="M640.285 42.466L646.577 36.486C648.709 34.458 649.905 32.742 649.905 30.636C649.905 27.386 647.487 25.54 644.107 25.54C641.247 25.54 638.517 27.412 638.257 30.662H639.947C640.077 28.504 641.845 26.944 644.133 26.944C646.915 26.944 648.267 28.4 648.267 30.74C648.267 32.326 647.487 33.652 645.277 35.758L638.205 42.544V44H650.035V42.466H640.285Z" fill="#01031C"/>
<circle cx="1089.5" cy="33.5" r="30" stroke="#01031C"/>
<path d="M1091.89 34.562C1093.89 33.756 1094.8 32.092 1094.8 30.324C1094.8 27.386 1092.54 25.54 1089.13 25.54C1085.33 25.54 1082.97 27.62 1082.97 30.766H1084.66C1084.66 28.452 1086.22 26.944 1089.1 26.944C1091.6 26.944 1093.13 28.218 1093.13 30.324C1093.13 32.43 1091.78 33.834 1089.08 33.834H1087.88V35.342H1089.13C1091.94 35.342 1093.65 36.772 1093.65 39.112C1093.65 41.4 1091.94 42.856 1089.1 42.856C1086.22 42.856 1084.66 41.348 1084.66 39.034H1082.97C1082.97 42.18 1085.33 44.26 1089.13 44.26C1092.98 44.26 1095.32 42.258 1095.32 39.138C1095.32 37.058 1094.17 35.16 1091.89 34.562Z" fill="#01031C"/>
<path d="M506.885 115.162C510.485 115.162 512.915 112.498 512.915 108.682C512.915 104.866 510.485 102.112 506.885 102.112C503.267 102.112 500.819 104.866 500.819 108.682C500.819 112.498 503.267 115.162 506.885 115.162ZM506.885 113.704C504.149 113.704 502.439 111.688 502.439 108.682C502.439 105.676 504.131 103.57 506.885 103.57C509.603 103.57 511.295 105.676 511.295 108.682C511.295 111.688 509.603 113.704 506.885 113.704ZM521.279 105.892V110.878C521.279 112.624 520.397 113.83 518.759 113.83C517.355 113.848 516.365 112.966 516.365 111.112V105.892H514.925V111.346C514.925 113.668 516.257 115.18 518.471 115.18C519.731 115.18 520.739 114.64 521.279 113.65L521.423 115H522.701V105.892H521.279ZM529.097 105.892C528.035 105.892 527.171 106.468 526.793 107.188L526.595 105.892H525.299V115H526.775V109.978C526.775 108.286 527.477 107.26 529.043 107.26H530.249V105.892H529.097ZM539.327 105.892C538.265 105.892 537.401 106.468 537.023 107.188L536.825 105.892H535.529V115H537.005V109.978C537.005 108.286 537.707 107.26 539.273 107.26H540.479V105.892H539.327ZM550.425 110.212C550.425 107.512 548.679 105.712 546.051 105.712C543.387 105.712 541.605 107.584 541.605 110.428C541.605 113.272 543.387 115.162 546.069 115.162C548.229 115.162 549.795 113.956 550.317 112.138H548.805C548.355 113.326 547.329 113.92 546.105 113.92C544.467 113.92 543.153 112.876 543.117 110.86H550.425V110.212ZM546.051 106.918C547.581 106.918 548.805 107.872 548.913 109.762H543.135C543.315 107.854 544.521 106.918 546.051 106.918ZM557.438 105.712C556.034 105.712 554.756 106.342 554.108 107.404L553.946 105.892H552.632V118.6H554.108V113.524C554.738 114.604 556.034 115.18 557.438 115.18C559.832 115.18 561.776 113.47 561.776 110.464C561.776 107.404 559.796 105.712 557.438 105.712ZM557.204 113.884C555.494 113.884 554.162 112.624 554.162 110.5C554.162 108.358 555.494 107.008 557.204 107.026C559.004 107.026 560.246 108.34 560.246 110.464C560.246 112.606 558.986 113.884 557.204 113.884ZM567.804 105.892C566.742 105.892 565.878 106.468 565.5 107.188L565.302 105.892H564.006V115H565.482V109.978C565.482 108.286 566.184 107.26 567.75 107.26H568.956V105.892H567.804ZM578.901 110.212C578.901 107.512 577.155 105.712 574.527 105.712C571.863 105.712 570.081 107.584 570.081 110.428C570.081 113.272 571.863 115.162 574.545 115.162C576.705 115.162 578.271 113.956 578.793 112.138H577.281C576.831 113.326 575.805 113.92 574.581 113.92C572.943 113.92 571.629 112.876 571.593 110.86H578.901V110.212ZM574.527 106.918C576.057 106.918 577.281 107.872 577.389 109.762H571.611C571.791 107.854 572.997 106.918 574.527 106.918ZM580.551 112.318C580.587 114.064 582.063 115.18 584.457 115.18C586.545 115.18 588.183 114.19 588.183 112.39C588.183 110.986 587.391 110.194 585.735 109.924L583.881 109.618C582.747 109.456 582.243 109.078 582.243 108.304C582.243 107.404 583.071 106.864 584.331 106.864C585.609 106.864 586.527 107.458 586.563 108.556H588.021C588.003 106.738 586.455 105.712 584.313 105.712C582.315 105.712 580.785 106.738 580.785 108.34C580.785 109.708 581.577 110.536 583.305 110.824L585.195 111.13C586.257 111.274 586.689 111.706 586.689 112.516C586.689 113.47 585.807 114.028 584.421 114.028C583.017 114.028 582.081 113.398 582.045 112.318H580.551ZM598.852 110.212C598.852 107.512 597.106 105.712 594.478 105.712C591.814 105.712 590.032 107.584 590.032 110.428C590.032 113.272 591.814 115.162 594.496 115.162C596.656 115.162 598.222 113.956 598.744 112.138H597.232C596.782 113.326 595.756 113.92 594.532 113.92C592.894 113.92 591.58 112.876 591.544 110.86H598.852V110.212ZM594.478 106.918C596.008 106.918 597.232 107.872 597.34 109.762H591.562C591.742 107.854 592.948 106.918 594.478 106.918ZM605.506 105.712C604.102 105.712 603.04 106.288 602.518 107.296L602.356 105.892H601.06V115H602.536V110.068C602.536 108.286 603.454 107.062 605.164 107.062C606.64 107.062 607.63 107.962 607.63 109.852V115H609.106V109.546C609.106 107.224 607.774 105.712 605.506 105.712ZM614.344 115H615.712V113.668H614.686C613.804 113.668 613.588 113.182 613.588 112.516V107.224H615.73V105.892H613.588V103.516H612.112V105.082C612.112 105.64 611.914 105.892 611.338 105.892H610.474V107.224H612.112V112.714C612.112 114.262 612.994 115 614.344 115ZM625.753 113.848C625.231 113.848 625.087 113.722 625.087 113.146V109.24C625.087 106.954 623.611 105.712 621.343 105.712C619.219 105.712 617.653 106.756 617.545 108.682H618.967C619.039 107.602 619.903 106.936 621.289 106.936C622.639 106.936 623.593 107.62 623.593 109.258V109.762H620.713C618.121 109.762 617.221 110.932 617.221 112.39C617.221 114.118 618.481 115.18 620.515 115.18C621.973 115.18 623.161 114.604 623.701 113.758C623.791 114.712 624.457 115 625.177 115H626.077V113.848H625.753ZM623.593 111.274C623.593 113.128 622.261 113.956 620.767 113.956C619.597 113.956 618.751 113.434 618.751 112.372C618.751 111.508 619.291 110.86 620.857 110.86H623.593V111.274ZM630.446 115H631.814V113.668H630.788C629.906 113.668 629.69 113.182 629.69 112.516V107.224H631.832V105.892H629.69V103.516H628.214V105.082C628.214 105.64 628.016 105.892 627.44 105.892H626.576V107.224H628.214V112.714C628.214 114.262 629.096 115 630.446 115ZM633.628 103.93H635.464V102.202H633.628V103.93ZM633.808 115H635.284V105.892H633.808V115ZM638.355 105.892H636.771L640.551 115H642.153L645.969 105.892H644.385L641.361 113.344L638.355 105.892ZM655.577 110.212C655.577 107.512 653.831 105.712 651.203 105.712C648.539 105.712 646.757 107.584 646.757 110.428C646.757 113.272 648.539 115.162 651.221 115.162C653.381 115.162 654.947 113.956 655.469 112.138H653.957C653.507 113.326 652.481 113.92 651.257 113.92C649.619 113.92 648.305 112.876 648.269 110.86H655.577V110.212ZM651.203 106.918C652.733 106.918 653.957 107.872 654.065 109.762H648.287C648.467 107.854 649.673 106.918 651.203 106.918ZM661.966 105.892H660.382L663.064 115H664.756L667.114 107.656L669.472 115H671.164L673.792 105.892H672.244L670.264 113.362L667.906 105.892H666.376L664 113.362L661.966 105.892ZM675.253 103.93H677.089V102.202H675.253V103.93ZM675.433 115H676.909V105.892H675.433V115ZM680.952 101.752H679.476V115H680.952V101.752ZM684.995 101.752H683.519V115H684.995V101.752ZM697.845 108.934H699.465C698.943 106.9 697.341 105.712 695.199 105.712C692.535 105.712 690.753 107.584 690.753 110.428C690.753 113.272 692.535 115.162 695.199 115.162C697.377 115.162 698.979 113.848 699.483 111.814H697.917C697.467 113.128 696.477 113.866 695.199 113.866C693.543 113.866 692.265 112.714 692.265 110.428C692.265 108.178 693.525 106.99 695.217 106.99C696.441 106.99 697.413 107.71 697.845 108.934ZM700.984 110.464C700.984 113.254 702.838 115.18 705.592 115.18C708.346 115.18 710.218 113.254 710.218 110.464C710.218 107.656 708.346 105.712 705.592 105.712C702.838 105.712 700.984 107.656 700.984 110.464ZM702.496 110.446C702.496 108.322 703.738 106.972 705.592 106.972C707.446 106.972 708.688 108.322 708.688 110.446C708.688 112.534 707.446 113.902 705.592 113.902C703.738 113.902 702.496 112.534 702.496 110.446ZM716.864 105.712C715.46 105.712 714.398 106.288 713.876 107.296L713.714 105.892H712.418V115H713.894V110.068C713.894 108.286 714.812 107.062 716.522 107.062C717.998 107.062 718.988 107.962 718.988 109.852V115H720.464V109.546C720.464 107.224 719.132 105.712 716.864 105.712ZM725.701 115H727.069V113.668H726.043C725.161 113.668 724.945 113.182 724.945 112.516V107.224H727.087V105.892H724.945V103.516H723.469V105.082C723.469 105.64 723.271 105.892 722.695 105.892H721.831V107.224H723.469V112.714C723.469 114.262 724.351 115 725.701 115ZM737.11 113.848C736.588 113.848 736.444 113.722 736.444 113.146V109.24C736.444 106.954 734.968 105.712 732.7 105.712C730.576 105.712 729.01 106.756 728.902 108.682H730.324C730.396 107.602 731.26 106.936 732.646 106.936C733.996 106.936 734.95 107.62 734.95 109.258V109.762H732.07C729.478 109.762 728.578 110.932 728.578 112.39C728.578 114.118 729.838 115.18 731.872 115.18C733.33 115.18 734.518 114.604 735.058 113.758C735.148 114.712 735.814 115 736.534 115H737.434V113.848H737.11ZM734.95 111.274C734.95 113.128 733.618 113.956 732.124 113.956C730.954 113.956 730.108 113.434 730.108 112.372C730.108 111.508 730.648 110.86 732.214 110.86H734.95V111.274ZM745.922 108.934H747.542C747.02 106.9 745.418 105.712 743.276 105.712C740.612 105.712 738.83 107.584 738.83 110.428C738.83 113.272 740.612 115.162 743.276 115.162C745.454 115.162 747.056 113.848 747.56 111.814H745.994C745.544 113.128 744.554 113.866 743.276 113.866C741.62 113.866 740.342 112.714 740.342 110.428C740.342 108.178 741.602 106.99 743.294 106.99C744.518 106.99 745.49 107.71 745.922 108.934ZM752.033 115H753.401V113.668H752.375C751.493 113.668 751.277 113.182 751.277 112.516V107.224H753.419V105.892H751.277V103.516H749.801V105.082C749.801 105.64 749.603 105.892 749.027 105.892H748.163V107.224H749.801V112.714C749.801 114.262 750.683 115 752.033 115ZM759.451 105.892H757.849L761.341 114.946C761.449 115.234 761.503 115.486 761.503 115.738C761.503 116.764 760.927 117.268 759.991 117.268H758.173V118.6H759.973C761.305 118.6 762.295 118.24 762.943 116.476L766.759 105.892L765.193 105.874L762.439 114.01L759.451 105.892ZM767.587 110.464C767.587 113.254 769.441 115.18 772.195 115.18C774.949 115.18 776.821 113.254 776.821 110.464C776.821 107.656 774.949 105.712 772.195 105.712C769.441 105.712 767.587 107.656 767.587 110.464ZM769.099 110.446C769.099 108.322 770.341 106.972 772.195 106.972C774.049 106.972 775.291 108.322 775.291 110.446C775.291 112.534 774.049 113.902 772.195 113.902C770.341 113.902 769.099 112.534 769.099 110.446ZM785.285 105.892V110.878C785.285 112.624 784.403 113.83 782.765 113.83C781.361 113.848 780.371 112.966 780.371 111.112V105.892H778.931V111.346C778.931 113.668 780.263 115.18 782.477 115.18C783.737 115.18 784.745 114.64 785.285 113.65L785.429 115H786.707V105.892H785.285ZM503.657 140.892H502.073L504.755 150H506.447L508.805 142.656L511.163 150H512.855L515.483 140.892H513.935L511.955 148.362L509.597 140.892H508.067L505.691 148.362L503.657 140.892ZM516.945 138.93H518.781V137.202H516.945V138.93ZM517.125 150H518.601V140.892H517.125V150ZM523.94 150H525.308V148.668H524.282C523.4 148.668 523.184 148.182 523.184 147.516V142.224H525.326V140.892H523.184V138.516H521.708V140.082C521.708 140.64 521.51 140.892 520.934 140.892H520.07V142.224H521.708V147.714C521.708 149.262 522.59 150 523.94 150ZM531.802 140.712C530.488 140.712 529.336 141.27 528.778 142.242V136.752H527.302V150H528.778V145.05C528.778 143.34 529.732 142.098 531.496 142.098C532.954 142.08 533.89 142.926 533.89 144.888V150H535.366V144.636C535.366 141.648 533.548 140.712 531.802 140.712ZM537.652 138.93H539.488V137.202H537.652V138.93ZM537.832 150H539.308V140.892H537.832V150ZM546.321 140.712C544.917 140.712 543.855 141.288 543.333 142.296L543.171 140.892H541.875V150H543.351V145.068C543.351 143.286 544.269 142.062 545.979 142.062C547.455 142.062 548.445 142.962 548.445 144.852V150H549.921V144.546C549.921 142.224 548.589 140.712 546.321 140.712ZM557.288 148.542L561.212 144.924C562.688 143.574 563.606 142.404 563.606 140.82C563.606 138.444 561.824 137.112 559.412 137.112C557.288 137.112 555.344 138.498 555.2 140.928H556.748C556.82 139.506 557.936 138.498 559.412 138.498C561.122 138.498 562.022 139.416 562.022 140.928C562.004 141.972 561.464 142.8 560.096 144.078L555.236 148.614V150H563.642V148.542H557.288ZM570.582 150H572.112V147.372H573.966V145.986H572.112V137.292H570.42L564.372 146.022V147.372H570.582V150ZM566.01 145.986L570.582 139.416V145.986H566.01ZM583.64 140.712C582.326 140.712 581.174 141.27 580.616 142.242V136.752H579.14V150H580.616V145.05C580.616 143.34 581.57 142.098 583.334 142.098C584.792 142.08 585.728 142.926 585.728 144.888V150H587.204V144.636C587.204 141.648 585.386 140.712 583.64 140.712ZM589.328 145.464C589.328 148.254 591.182 150.18 593.936 150.18C596.69 150.18 598.562 148.254 598.562 145.464C598.562 142.656 596.69 140.712 593.936 140.712C591.182 140.712 589.328 142.656 589.328 145.464ZM590.84 145.446C590.84 143.322 592.082 141.972 593.936 141.972C595.79 141.972 597.032 143.322 597.032 145.446C597.032 147.534 595.79 148.902 593.936 148.902C592.082 148.902 590.84 147.534 590.84 145.446ZM607.025 140.892V145.878C607.025 147.624 606.143 148.83 604.505 148.83C603.101 148.848 602.111 147.966 602.111 146.112V140.892H600.671V146.346C600.671 148.668 602.003 150.18 604.217 150.18C605.477 150.18 606.485 149.64 607.025 148.65L607.169 150H608.447V140.892H607.025ZM614.843 140.892C613.781 140.892 612.917 141.468 612.539 142.188L612.341 140.892H611.045V150H612.521V144.978C612.521 143.286 613.223 142.26 614.789 142.26H615.995V140.892H614.843ZM616.955 147.318C616.991 149.064 618.467 150.18 620.861 150.18C622.949 150.18 624.587 149.19 624.587 147.39C624.587 145.986 623.795 145.194 622.139 144.924L620.285 144.618C619.151 144.456 618.647 144.078 618.647 143.304C618.647 142.404 619.475 141.864 620.735 141.864C622.013 141.864 622.931 142.458 622.967 143.556H624.425C624.407 141.738 622.859 140.712 620.717 140.712C618.719 140.712 617.189 141.738 617.189 143.34C617.189 144.708 617.981 145.536 619.709 145.824L621.599 146.13C622.661 146.274 623.093 146.706 623.093 147.516C623.093 148.47 622.211 149.028 620.825 149.028C619.421 149.028 618.485 148.398 618.449 147.318H616.955ZM629.97 143.7C629.97 146.418 630.834 149.28 632.22 151.044H633.552C632.328 149.316 631.5 146.418 631.5 143.646C631.5 140.892 632.328 137.976 633.57 136.248H632.22C630.816 138.066 629.952 140.946 629.97 143.7ZM643.765 145.212C643.765 142.512 642.019 140.712 639.391 140.712C636.727 140.712 634.945 142.584 634.945 145.428C634.945 148.272 636.727 150.162 639.409 150.162C641.569 150.162 643.135 148.956 643.657 147.138H642.145C641.695 148.326 640.669 148.92 639.445 148.92C637.807 148.92 636.493 147.876 636.457 145.86H643.765V145.212ZM639.391 141.918C640.921 141.918 642.145 142.872 642.253 144.762H636.475C636.655 142.854 637.861 141.918 639.391 141.918ZM644.755 150H646.501L649.075 146.256L651.649 150H653.395L650.119 145.374L653.413 140.892H651.649L649.075 144.528L646.501 140.892H644.737L648.031 145.392L644.755 150ZM661.476 143.934H663.096C662.574 141.9 660.972 140.712 658.83 140.712C656.166 140.712 654.384 142.584 654.384 145.428C654.384 148.272 656.166 150.162 658.83 150.162C661.008 150.162 662.61 148.848 663.114 146.814H661.548C661.098 148.128 660.108 148.866 658.83 148.866C657.174 148.866 655.896 147.714 655.896 145.428C655.896 143.178 657.156 141.99 658.848 141.99C660.072 141.99 661.044 142.71 661.476 143.934ZM673.507 145.212C673.507 142.512 671.761 140.712 669.133 140.712C666.469 140.712 664.687 142.584 664.687 145.428C664.687 148.272 666.469 150.162 669.151 150.162C671.311 150.162 672.877 148.956 673.399 147.138H671.887C671.437 148.326 670.411 148.92 669.187 148.92C667.549 148.92 666.235 147.876 666.199 145.86H673.507V145.212ZM669.133 141.918C670.663 141.918 671.887 142.872 671.995 144.762H666.217C666.397 142.854 667.603 141.918 669.133 141.918ZM680.521 140.712C679.117 140.712 677.839 141.342 677.191 142.404L677.029 140.892H675.715V153.6H677.191V148.524C677.821 149.604 679.117 150.18 680.521 150.18C682.915 150.18 684.859 148.47 684.859 145.464C684.859 142.404 682.879 140.712 680.521 140.712ZM680.287 148.884C678.577 148.884 677.245 147.624 677.245 145.5C677.245 143.358 678.577 142.008 680.287 142.026C682.087 142.026 683.329 143.34 683.329 145.464C683.329 147.606 682.069 148.884 680.287 148.884ZM689.842 150H691.21V148.668H690.184C689.302 148.668 689.086 148.182 689.086 147.516V142.224H691.228V140.892H689.086V138.516H687.61V140.082C687.61 140.64 687.412 140.892 686.836 140.892H685.972V142.224H687.61V147.714C687.61 149.262 688.492 150 689.842 150ZM697.386 140.892H695.802L698.484 150H700.176L702.534 142.656L704.892 150H706.584L709.212 140.892H707.664L705.684 148.362L703.326 140.892H701.796L699.42 148.362L697.386 140.892ZM719.14 145.212C719.14 142.512 717.394 140.712 714.766 140.712C712.102 140.712 710.32 142.584 710.32 145.428C710.32 148.272 712.102 150.162 714.784 150.162C716.944 150.162 718.51 148.956 719.032 147.138H717.52C717.07 148.326 716.044 148.92 714.82 148.92C713.182 148.92 711.868 147.876 711.832 145.86H719.14V145.212ZM714.766 141.918C716.296 141.918 717.52 142.872 717.628 144.762H711.85C712.03 142.854 713.236 141.918 714.766 141.918ZM729.739 145.212C729.739 142.512 727.993 140.712 725.365 140.712C722.701 140.712 720.919 142.584 720.919 145.428C720.919 148.272 722.701 150.162 725.383 150.162C727.543 150.162 729.109 148.956 729.631 147.138H728.119C727.669 148.326 726.643 148.92 725.419 148.92C723.781 148.92 722.467 147.876 722.431 145.86H729.739V145.212ZM725.365 141.918C726.895 141.918 728.119 142.872 728.227 144.762H722.449C722.629 142.854 723.835 141.918 725.365 141.918ZM731.947 150H733.441V147.192L734.719 145.914L737.869 150H739.723L735.763 144.87L739.705 140.892H737.833L733.423 145.356V136.752H731.947V150ZM749.286 145.212C749.286 142.512 747.54 140.712 744.912 140.712C742.248 140.712 740.466 142.584 740.466 145.428C740.466 148.272 742.248 150.162 744.93 150.162C747.09 150.162 748.656 148.956 749.178 147.138H747.666C747.216 148.326 746.19 148.92 744.966 148.92C743.328 148.92 742.014 147.876 741.978 145.86H749.286V145.212ZM744.912 141.918C746.442 141.918 747.666 142.872 747.774 144.762H741.996C742.176 142.854 743.382 141.918 744.912 141.918ZM755.94 140.712C754.536 140.712 753.474 141.288 752.952 142.296L752.79 140.892H751.494V150H752.97V145.068C752.97 143.286 753.888 142.062 755.598 142.062C757.074 142.062 758.064 142.962 758.064 144.852V150H759.54V144.546C759.54 142.224 758.208 140.712 755.94 140.712ZM769.332 136.752V142.386C768.702 141.342 767.46 140.712 766.002 140.712C763.644 140.712 761.664 142.422 761.664 145.482C761.664 148.506 763.608 150.18 766.002 150.18C767.424 150.18 768.702 149.532 769.332 148.452L769.512 150H770.808V136.752H769.332ZM766.236 148.884C764.454 148.884 763.194 147.624 763.194 145.482C763.194 143.376 764.436 142.044 766.236 142.026C767.946 142.008 769.296 143.358 769.296 145.482C769.296 147.624 767.946 148.884 766.236 148.884ZM772.821 147.318C772.857 149.064 774.333 150.18 776.727 150.18C778.815 150.18 780.453 149.19 780.453 147.39C780.453 145.986 779.661 145.194 778.005 144.924L776.151 144.618C775.017 144.456 774.513 144.078 774.513 143.304C774.513 142.404 775.341 141.864 776.601 141.864C777.879 141.864 778.797 142.458 778.833 143.556H780.291C780.273 141.738 778.725 140.712 776.583 140.712C774.585 140.712 773.055 141.738 773.055 143.34C773.055 144.708 773.847 145.536 775.575 145.824L777.465 146.13C778.527 146.274 778.959 146.706 778.959 147.516C778.959 148.47 778.077 149.028 776.691 149.028C775.287 149.028 774.351 148.398 774.315 147.318H772.821ZM783.724 143.646C783.724 146.418 782.896 149.316 781.654 151.044H783.004C784.372 149.28 785.236 146.418 785.254 143.7C785.254 140.946 784.39 138.066 783.004 136.248H781.654C782.896 137.976 783.724 140.892 783.724 143.646Z" fill="#01031C"/>
<path d="M85.6951 115H87.4411L90.5371 104.524L93.6331 115H95.3791L99.0691 102.292H97.4851L94.4971 113.002L91.4191 102.292H89.7451L86.6311 112.948L83.6971 102.292H82.0951L85.6951 115ZM108.299 110.212C108.299 107.512 106.553 105.712 103.925 105.712C101.261 105.712 99.4787 107.584 99.4787 110.428C99.4787 113.272 101.261 115.162 103.943 115.162C106.103 115.162 107.669 113.956 108.191 112.138H106.679C106.229 113.326 105.203 113.92 103.979 113.92C102.341 113.92 101.027 112.876 100.991 110.86H108.299V110.212ZM103.925 106.918C105.455 106.918 106.679 107.872 106.787 109.762H101.009C101.189 107.854 102.395 106.918 103.925 106.918ZM109.659 106.288H110.613L111.675 104.236V102.166H109.587V104.236H110.667L109.659 106.288ZM114.825 105.892H113.241L117.021 115H118.623L122.439 105.892H120.855L117.831 113.344L114.825 105.892ZM132.047 110.212C132.047 107.512 130.301 105.712 127.673 105.712C125.009 105.712 123.227 107.584 123.227 110.428C123.227 113.272 125.009 115.162 127.691 115.162C129.851 115.162 131.417 113.956 131.939 112.138H130.427C129.977 113.326 128.951 113.92 127.727 113.92C126.089 113.92 124.775 112.876 124.739 110.86H132.047V110.212ZM127.673 106.918C129.203 106.918 130.427 107.872 130.535 109.762H124.757C124.937 107.854 126.143 106.918 127.673 106.918ZM137.23 112.318C137.266 114.064 138.742 115.18 141.136 115.18C143.224 115.18 144.862 114.19 144.862 112.39C144.862 110.986 144.07 110.194 142.414 109.924L140.56 109.618C139.426 109.456 138.922 109.078 138.922 108.304C138.922 107.404 139.75 106.864 141.01 106.864C142.288 106.864 143.206 107.458 143.242 108.556H144.7C144.682 106.738 143.134 105.712 140.992 105.712C138.994 105.712 137.464 106.738 137.464 108.34C137.464 109.708 138.256 110.536 139.984 110.824L141.874 111.13C142.936 111.274 143.368 111.706 143.368 112.516C143.368 113.47 142.486 114.028 141.1 114.028C139.696 114.028 138.76 113.398 138.724 112.318H137.23ZM155.531 110.212C155.531 107.512 153.785 105.712 151.157 105.712C148.493 105.712 146.711 107.584 146.711 110.428C146.711 113.272 148.493 115.162 151.175 115.162C153.335 115.162 154.901 113.956 155.423 112.138H153.911C153.461 113.326 152.435 113.92 151.211 113.92C149.573 113.92 148.259 112.876 148.223 110.86H155.531V110.212ZM151.157 106.918C152.687 106.918 153.911 107.872 154.019 109.762H148.241C148.421 107.854 149.627 106.918 151.157 106.918ZM162.185 105.712C160.781 105.712 159.719 106.288 159.197 107.296L159.035 105.892H157.739V115H159.215V110.068C159.215 108.286 160.133 107.062 161.843 107.062C163.319 107.062 164.309 107.962 164.309 109.852V115H165.785V109.546C165.785 107.224 164.453 105.712 162.185 105.712ZM171.023 115H172.391V113.668H171.365C170.483 113.668 170.267 113.182 170.267 112.516V107.224H172.409V105.892H170.267V103.516H168.791V105.082C168.791 105.64 168.593 105.892 168.017 105.892H167.153V107.224H168.791V112.714C168.791 114.262 169.673 115 171.023 115ZM185.965 113.848C185.443 113.848 185.299 113.722 185.299 113.146V109.24C185.299 106.954 183.823 105.712 181.555 105.712C179.431 105.712 177.865 106.756 177.757 108.682H179.179C179.251 107.602 180.115 106.936 181.501 106.936C182.851 106.936 183.805 107.62 183.805 109.258V109.762H180.925C178.333 109.762 177.433 110.932 177.433 112.39C177.433 114.118 178.693 115.18 180.727 115.18C182.185 115.18 183.373 114.604 183.913 113.758C184.003 114.712 184.669 115 185.389 115H186.289V113.848H185.965ZM183.805 111.274C183.805 113.128 182.473 113.956 180.979 113.956C179.809 113.956 178.963 113.434 178.963 112.372C178.963 111.508 179.503 110.86 181.069 110.86H183.805V111.274ZM198.362 108.934H199.982C199.46 106.9 197.858 105.712 195.716 105.712C193.052 105.712 191.27 107.584 191.27 110.428C191.27 113.272 193.052 115.162 195.716 115.162C197.894 115.162 199.496 113.848 200 111.814H198.434C197.984 113.128 196.994 113.866 195.716 113.866C194.06 113.866 192.782 112.714 192.782 110.428C192.782 108.178 194.042 106.99 195.734 106.99C196.958 106.99 197.93 107.71 198.362 108.934ZM201.5 110.464C201.5 113.254 203.354 115.18 206.108 115.18C208.862 115.18 210.734 113.254 210.734 110.464C210.734 107.656 208.862 105.712 206.108 105.712C203.354 105.712 201.5 107.656 201.5 110.464ZM203.012 110.446C203.012 108.322 204.254 106.972 206.108 106.972C207.962 106.972 209.204 108.322 209.204 110.446C209.204 112.534 207.962 113.902 206.108 113.902C204.254 113.902 203.012 112.534 203.012 110.446ZM217.38 105.712C215.976 105.712 214.914 106.288 214.392 107.296L214.23 105.892H212.934V115H214.41V110.068C214.41 108.286 215.328 107.062 217.038 107.062C218.514 107.062 219.504 107.962 219.504 109.852V115H220.98V109.546C220.98 107.224 219.648 105.712 217.38 105.712ZM231.33 105.892H225.57V104.218C225.57 103.516 225.75 103.03 226.704 103.03H227.784V101.734H226.578C224.904 101.734 224.076 102.472 224.076 104.146V105.892H222.51V107.206H224.076V115H225.57V107.206H229.854V115H231.33V105.892ZM229.656 101.878V103.588H231.528V101.878H229.656ZM237.721 105.892C236.659 105.892 235.795 106.468 235.417 107.188L235.219 105.892H233.923V115H235.399V109.978C235.399 108.286 236.101 107.26 237.667 107.26H238.873V105.892H237.721ZM250.502 105.712C249.35 105.712 248.144 106.252 247.586 107.476C247.064 106.306 245.984 105.712 244.616 105.712C243.572 105.712 242.6 106.108 242.114 106.954L241.898 105.892H240.602V115H242.078V109.564C242.078 108.016 242.942 107.08 244.382 107.08C245.696 107.08 246.47 107.944 246.47 109.636V115H247.928V109.654C247.982 107.89 248.972 107.08 250.214 107.08C251.492 107.08 252.32 107.782 252.32 109.51V115H253.814V109.258C253.814 107.044 252.5 105.712 250.502 105.712ZM264.328 113.848C263.806 113.848 263.662 113.722 263.662 113.146V109.24C263.662 106.954 262.186 105.712 259.918 105.712C257.794 105.712 256.228 106.756 256.12 108.682H257.542C257.614 107.602 258.478 106.936 259.864 106.936C261.214 106.936 262.168 107.62 262.168 109.258V109.762H259.288C256.696 109.762 255.796 110.932 255.796 112.39C255.796 114.118 257.056 115.18 259.09 115.18C260.548 115.18 261.736 114.604 262.276 113.758C262.366 114.712 263.032 115 263.752 115H264.652V113.848H264.328ZM262.168 111.274C262.168 113.128 260.836 113.956 259.342 113.956C258.172 113.956 257.326 113.434 257.326 112.372C257.326 111.508 257.866 110.86 259.432 110.86H262.168V111.274ZM269.021 115H270.389V113.668H269.363C268.481 113.668 268.265 113.182 268.265 112.516V107.224H270.407V105.892H268.265V103.516H266.789V105.082C266.789 105.64 266.591 105.892 266.015 105.892H265.151V107.224H266.789V112.714C266.789 114.262 267.671 115 269.021 115ZM272.203 103.93H274.039V102.202H272.203V103.93ZM272.383 115H273.859V105.892H272.383V115ZM276.084 110.464C276.084 113.254 277.938 115.18 280.692 115.18C283.446 115.18 285.318 113.254 285.318 110.464C285.318 107.656 283.446 105.712 280.692 105.712C277.938 105.712 276.084 107.656 276.084 110.464ZM277.596 110.446C277.596 108.322 278.838 106.972 280.692 106.972C282.546 106.972 283.788 108.322 283.788 110.446C283.788 112.534 282.546 113.902 280.692 113.902C278.838 113.902 277.596 112.534 277.596 110.446ZM291.964 105.712C290.56 105.712 289.498 106.288 288.976 107.296L288.814 105.892H287.518V115H288.994V110.068C288.994 108.286 289.912 107.062 291.622 107.062C293.098 107.062 294.088 107.962 294.088 109.852V115H295.564V109.546C295.564 107.224 294.232 105.712 291.964 105.712ZM311.463 105.712C310.311 105.712 309.105 106.252 308.547 107.476C308.025 106.306 306.945 105.712 305.577 105.712C304.533 105.712 303.561 106.108 303.075 106.954L302.859 105.892H301.563V115H303.039V109.564C303.039 108.016 303.903 107.08 305.343 107.08C306.657 107.08 307.431 107.944 307.431 109.636V115H308.889V109.654C308.943 107.89 309.933 107.08 311.175 107.08C312.453 107.08 313.281 107.782 313.281 109.51V115H314.775V109.258C314.775 107.044 313.461 105.712 311.463 105.712ZM325.289 113.848C324.767 113.848 324.623 113.722 324.623 113.146V109.24C324.623 106.954 323.147 105.712 320.879 105.712C318.755 105.712 317.189 106.756 317.081 108.682H318.503C318.575 107.602 319.439 106.936 320.825 106.936C322.175 106.936 323.129 107.62 323.129 109.258V109.762H320.249C317.657 109.762 316.757 110.932 316.757 112.39C316.757 114.118 318.017 115.18 320.051 115.18C321.509 115.18 322.697 114.604 323.237 113.758C323.327 114.712 323.993 115 324.713 115H325.613V113.848H325.289ZM323.129 111.274C323.129 113.128 321.797 113.956 320.303 113.956C319.133 113.956 318.287 113.434 318.287 112.372C318.287 111.508 318.827 110.86 320.393 110.86H323.129V111.274ZM327.223 103.93H329.059V102.202H327.223V103.93ZM327.403 115H328.879V105.892H327.403V115ZM332.922 101.752H331.446V115H332.922V101.752Z" fill="#01031C"/>
<path d="M936.218 102.292H934.67V115H936.218V102.292ZM937.968 105.892V107.206H939.534V115H941.028V107.206H943.278V105.892H941.028V104.218C941.028 103.516 941.208 103.03 942.162 103.03H943.278V101.734H942.036C940.362 101.734 939.534 102.472 939.534 104.146V105.892H937.968ZM949.024 105.892H947.422L950.914 114.946C951.022 115.234 951.076 115.486 951.076 115.738C951.076 116.764 950.5 117.268 949.564 117.268H947.746V118.6H949.546C950.878 118.6 951.868 118.24 952.516 116.476L956.332 105.892L954.766 105.874L952.012 114.01L949.024 105.892ZM957.16 110.464C957.16 113.254 959.014 115.18 961.768 115.18C964.522 115.18 966.394 113.254 966.394 110.464C966.394 107.656 964.522 105.712 961.768 105.712C959.014 105.712 957.16 107.656 957.16 110.464ZM958.672 110.446C958.672 108.322 959.914 106.972 961.768 106.972C963.622 106.972 964.864 108.322 964.864 110.446C964.864 112.534 963.622 113.902 961.768 113.902C959.914 113.902 958.672 112.534 958.672 110.446ZM974.857 105.892V110.878C974.857 112.624 973.975 113.83 972.337 113.83C970.933 113.848 969.943 112.966 969.943 111.112V105.892H968.503V111.346C968.503 113.668 969.835 115.18 972.049 115.18C973.309 115.18 974.317 114.64 974.857 113.65L975.001 115H976.279V105.892H974.857ZM986.892 105.712C985.578 105.712 984.426 106.27 983.868 107.242V101.752H982.392V115H983.868V110.05C983.868 108.34 984.822 107.098 986.586 107.098C988.044 107.08 988.98 107.926 988.98 109.888V115H990.456V109.636C990.456 106.648 988.638 105.712 986.892 105.712ZM1000.97 113.848C1000.45 113.848 1000.3 113.722 1000.3 113.146V109.24C1000.3 106.954 998.826 105.712 996.558 105.712C994.434 105.712 992.868 106.756 992.76 108.682H994.182C994.254 107.602 995.118 106.936 996.504 106.936C997.854 106.936 998.808 107.62 998.808 109.258V109.762H995.928C993.336 109.762 992.436 110.932 992.436 112.39C992.436 114.118 993.696 115.18 995.73 115.18C997.188 115.18 998.376 114.604 998.916 113.758C999.006 114.712 999.672 115 1000.39 115H1001.29V113.848H1000.97ZM998.808 111.274C998.808 113.128 997.476 113.956 995.982 113.956C994.812 113.956 993.966 113.434 993.966 112.372C993.966 111.508 994.506 110.86 996.072 110.86H998.808V111.274ZM1003.32 105.892H1001.74L1005.52 115H1007.12L1010.94 105.892H1009.35L1006.33 113.344L1003.32 105.892ZM1020.54 110.212C1020.54 107.512 1018.8 105.712 1016.17 105.712C1013.51 105.712 1011.72 107.584 1011.72 110.428C1011.72 113.272 1013.51 115.162 1016.19 115.162C1018.35 115.162 1019.91 113.956 1020.44 112.138H1018.92C1018.47 113.326 1017.45 113.92 1016.22 113.92C1014.59 113.92 1013.27 112.876 1013.24 110.86H1020.54V110.212ZM1016.17 106.918C1017.7 106.918 1018.92 107.872 1019.03 109.762H1013.25C1013.43 107.854 1014.64 106.918 1016.17 106.918ZM1036.18 105.712C1035.03 105.712 1033.83 106.252 1033.27 107.476C1032.75 106.306 1031.67 105.712 1030.3 105.712C1029.25 105.712 1028.28 106.108 1027.8 106.954L1027.58 105.892H1026.28V115H1027.76V109.564C1027.76 108.016 1028.62 107.08 1030.06 107.08C1031.38 107.08 1032.15 107.944 1032.15 109.636V115H1033.61V109.654C1033.66 107.89 1034.65 107.08 1035.9 107.08C1037.17 107.08 1038 107.782 1038 109.51V115H1039.5V109.258C1039.5 107.044 1038.18 105.712 1036.18 105.712ZM1041.62 110.464C1041.62 113.254 1043.48 115.18 1046.23 115.18C1048.98 115.18 1050.86 113.254 1050.86 110.464C1050.86 107.656 1048.98 105.712 1046.23 105.712C1043.48 105.712 1041.62 107.656 1041.62 110.464ZM1043.13 110.446C1043.13 108.322 1044.38 106.972 1046.23 106.972C1048.08 106.972 1049.33 108.322 1049.33 110.446C1049.33 112.534 1048.08 113.902 1046.23 113.902C1044.38 113.902 1043.13 112.534 1043.13 110.446ZM1056.87 105.892C1055.81 105.892 1054.95 106.468 1054.57 107.188L1054.37 105.892H1053.07V115H1054.55V109.978C1054.55 108.286 1055.25 107.26 1056.82 107.26H1058.02V105.892H1056.87ZM1067.97 110.212C1067.97 107.512 1066.22 105.712 1063.6 105.712C1060.93 105.712 1059.15 107.584 1059.15 110.428C1059.15 113.272 1060.93 115.162 1063.61 115.162C1065.77 115.162 1067.34 113.956 1067.86 112.138H1066.35C1065.9 113.326 1064.87 113.92 1063.65 113.92C1062.01 113.92 1060.7 112.876 1060.66 110.86H1067.97V110.212ZM1063.6 106.918C1065.13 106.918 1066.35 107.872 1066.46 109.762H1060.68C1060.86 107.854 1062.07 106.918 1063.6 106.918ZM1073.53 103.93H1075.37V102.202H1073.53V103.93ZM1073.71 115H1075.19V105.892H1073.71V115ZM1082.2 105.712C1080.8 105.712 1079.73 106.288 1079.21 107.296L1079.05 105.892H1077.75V115H1079.23V110.068C1079.23 108.286 1080.15 107.062 1081.86 107.062C1083.33 107.062 1084.32 107.962 1084.32 109.852V115H1085.8V109.546C1085.8 107.224 1084.47 105.712 1082.2 105.712ZM1087.33 105.892V107.206H1088.9V115H1090.39V107.206H1092.64V105.892H1090.39V104.218C1090.39 103.516 1090.57 103.03 1091.52 103.03H1092.64V101.734H1091.4C1089.72 101.734 1088.9 102.472 1088.9 104.146V105.892H1087.33ZM1093.79 110.464C1093.79 113.254 1095.65 115.18 1098.4 115.18C1101.16 115.18 1103.03 113.254 1103.03 110.464C1103.03 107.656 1101.16 105.712 1098.4 105.712C1095.65 105.712 1093.79 107.656 1093.79 110.464ZM1095.31 110.446C1095.31 108.322 1096.55 106.972 1098.4 106.972C1100.26 106.972 1101.5 108.322 1101.5 110.446C1101.5 112.534 1100.26 113.902 1098.4 113.902C1096.55 113.902 1095.31 112.534 1095.31 110.446ZM1111.53 115H1112.9V113.668H1111.88C1110.99 113.668 1110.78 113.182 1110.78 112.516V107.224H1112.92V105.892H1110.78V103.516H1109.3V105.082C1109.3 105.64 1109.1 105.892 1108.53 105.892H1107.66V107.224H1109.3V112.714C1109.3 114.262 1110.18 115 1111.53 115ZM1114.33 110.464C1114.33 113.254 1116.18 115.18 1118.93 115.18C1121.69 115.18 1123.56 113.254 1123.56 110.464C1123.56 107.656 1121.69 105.712 1118.93 105.712C1116.18 105.712 1114.33 107.656 1114.33 110.464ZM1115.84 110.446C1115.84 108.322 1117.08 106.972 1118.93 106.972C1120.79 106.972 1122.03 108.322 1122.03 110.446C1122.03 112.534 1120.79 113.902 1118.93 113.902C1117.08 113.902 1115.84 112.534 1115.84 110.446ZM1128.73 112.318C1128.77 114.064 1130.25 115.18 1132.64 115.18C1134.73 115.18 1136.37 114.19 1136.37 112.39C1136.37 110.986 1135.57 110.194 1133.92 109.924L1132.06 109.618C1130.93 109.456 1130.43 109.078 1130.43 108.304C1130.43 107.404 1131.25 106.864 1132.51 106.864C1133.79 106.864 1134.71 107.458 1134.75 108.556H1136.2C1136.19 106.738 1134.64 105.712 1132.5 105.712C1130.5 105.712 1128.97 106.738 1128.97 108.34C1128.97 109.708 1129.76 110.536 1131.49 110.824L1133.38 111.13C1134.44 111.274 1134.87 111.706 1134.87 112.516C1134.87 113.47 1133.99 114.028 1132.6 114.028C1131.2 114.028 1130.26 113.398 1130.23 112.318H1128.73ZM1142.99 105.712C1141.67 105.712 1140.52 106.27 1139.96 107.242V101.752H1138.49V115H1139.96V110.05C1139.96 108.34 1140.92 107.098 1142.68 107.098C1144.14 107.08 1145.07 107.926 1145.07 109.888V115H1146.55V109.636C1146.55 106.648 1144.73 105.712 1142.99 105.712ZM1157.06 113.848C1156.54 113.848 1156.4 113.722 1156.4 113.146V109.24C1156.4 106.954 1154.92 105.712 1152.65 105.712C1150.53 105.712 1148.96 106.756 1148.85 108.682H1150.28C1150.35 107.602 1151.21 106.936 1152.6 106.936C1153.95 106.936 1154.9 107.62 1154.9 109.258V109.762H1152.02C1149.43 109.762 1148.53 110.932 1148.53 112.39C1148.53 114.118 1149.79 115.18 1151.82 115.18C1153.28 115.18 1154.47 114.604 1155.01 113.758C1155.1 114.712 1155.77 115 1156.49 115H1157.39V113.848H1157.06ZM1154.9 111.274C1154.9 113.128 1153.57 113.956 1152.08 113.956C1150.91 113.956 1150.06 113.434 1150.06 112.372C1150.06 111.508 1150.6 110.86 1152.17 110.86H1154.9V111.274ZM1162.99 105.892C1161.93 105.892 1161.07 106.468 1160.69 107.188L1160.49 105.892H1159.19V115H1160.67V109.978C1160.67 108.286 1161.37 107.26 1162.94 107.26H1164.14V105.892H1162.99ZM1174.09 110.212C1174.09 107.512 1172.34 105.712 1169.71 105.712C1167.05 105.712 1165.27 107.584 1165.27 110.428C1165.27 113.272 1167.05 115.162 1169.73 115.162C1171.89 115.162 1173.46 113.956 1173.98 112.138H1172.47C1172.02 113.326 1170.99 113.92 1169.77 113.92C1168.13 113.92 1166.82 112.876 1166.78 110.86H1174.09V110.212ZM1169.71 106.918C1171.24 106.918 1172.47 107.872 1172.58 109.762H1166.8C1166.98 107.854 1168.18 106.918 1169.71 106.918ZM1175.75 115H1176.83L1175.82 117.052H1176.77L1177.83 115V112.93H1175.75V115ZM1187.48 105.892C1186.42 105.892 1185.55 106.468 1185.17 107.188L1184.98 105.892H1183.68V115H1185.16V109.978C1185.16 108.286 1185.86 107.26 1187.42 107.26H1188.63V105.892H1187.48ZM1198.58 110.212C1198.58 107.512 1196.83 105.712 1194.2 105.712C1191.54 105.712 1189.76 107.584 1189.76 110.428C1189.76 113.272 1191.54 115.162 1194.22 115.162C1196.38 115.162 1197.95 113.956 1198.47 112.138H1196.96C1196.51 113.326 1195.48 113.92 1194.26 113.92C1192.62 113.92 1191.3 112.876 1191.27 110.86H1198.58V110.212ZM1194.2 106.918C1195.73 106.918 1196.96 107.872 1197.06 109.762H1191.29C1191.47 107.854 1192.67 106.918 1194.2 106.918ZM1205.59 105.712C1204.18 105.712 1202.91 106.342 1202.26 107.404L1202.1 105.892H1200.78V118.6H1202.26V113.524C1202.89 114.604 1204.18 115.18 1205.59 115.18C1207.98 115.18 1209.93 113.47 1209.93 110.464C1209.93 107.404 1207.95 105.712 1205.59 105.712ZM1205.35 113.884C1203.64 113.884 1202.31 112.624 1202.31 110.5C1202.31 108.358 1203.64 107.008 1205.35 107.026C1207.15 107.026 1208.4 108.34 1208.4 110.464C1208.4 112.606 1207.14 113.884 1205.35 113.884ZM1213.61 101.752H1212.14V115H1213.61V101.752ZM1216.7 105.892H1215.1L1218.59 114.946C1218.7 115.234 1218.76 115.486 1218.76 115.738C1218.76 116.764 1218.18 117.268 1217.24 117.268H1215.43V118.6H1217.23C1218.56 118.6 1219.55 118.24 1220.2 116.476L1224.01 105.892L1222.45 105.874L1219.69 114.01L1216.7 105.892ZM1231.77 115H1233.14V113.668H1232.11C1231.23 113.668 1231.01 113.182 1231.01 112.516V107.224H1233.15V105.892H1231.01V103.516H1229.54V105.082C1229.54 105.64 1229.34 105.892 1228.76 105.892H1227.9V107.224H1229.54V112.714C1229.54 114.262 1230.42 115 1231.77 115ZM1234.56 110.464C1234.56 113.254 1236.41 115.18 1239.17 115.18C1241.92 115.18 1243.79 113.254 1243.79 110.464C1243.79 107.656 1241.92 105.712 1239.17 105.712C1236.41 105.712 1234.56 107.656 1234.56 110.464ZM1236.07 110.446C1236.07 108.322 1237.31 106.972 1239.17 106.972C1241.02 106.972 1242.26 108.322 1242.26 110.446C1242.26 112.534 1241.02 113.902 1239.17 113.902C1237.31 113.902 1236.07 112.534 1236.07 110.446ZM932.755 150H934.123V148.668H933.097C932.215 148.668 931.999 148.182 931.999 147.516V142.224H934.141V140.892H931.999V138.516H930.523V140.082C930.523 140.64 930.325 140.892 929.749 140.892H928.885V142.224H930.523V147.714C930.523 149.262 931.405 150 932.755 150ZM940.618 140.712C939.304 140.712 938.152 141.27 937.594 142.242V136.752H936.118V150H937.594V145.05C937.594 143.34 938.548 142.098 940.312 142.098C941.77 142.08 942.706 142.926 942.706 144.888V150H944.182V144.636C944.182 141.648 942.364 140.712 940.618 140.712ZM955.197 145.212C955.197 142.512 953.451 140.712 950.823 140.712C948.159 140.712 946.377 142.584 946.377 145.428C946.377 148.272 948.159 150.162 950.841 150.162C953.001 150.162 954.567 148.956 955.089 147.138H953.577C953.127 148.326 952.101 148.92 950.877 148.92C949.239 148.92 947.925 147.876 947.889 145.86H955.197V145.212ZM950.823 141.918C952.353 141.918 953.577 142.872 953.685 144.762H947.907C948.087 142.854 949.293 141.918 950.823 141.918ZM967.688 143.934H969.308C968.786 141.9 967.184 140.712 965.042 140.712C962.378 140.712 960.596 142.584 960.596 145.428C960.596 148.272 962.378 150.162 965.042 150.162C967.22 150.162 968.822 148.848 969.326 146.814H967.76C967.31 148.128 966.32 148.866 965.042 148.866C963.386 148.866 962.108 147.714 962.108 145.428C962.108 143.178 963.368 141.99 965.06 141.99C966.284 141.99 967.256 142.71 967.688 143.934ZM970.827 145.464C970.827 148.254 972.681 150.18 975.435 150.18C978.189 150.18 980.061 148.254 980.061 145.464C980.061 142.656 978.189 140.712 975.435 140.712C972.681 140.712 970.827 142.656 970.827 145.464ZM972.339 145.446C972.339 143.322 973.581 141.972 975.435 141.972C977.289 141.972 978.531 143.322 978.531 145.446C978.531 147.534 977.289 148.902 975.435 148.902C973.581 148.902 972.339 147.534 972.339 145.446ZM986.706 140.712C985.302 140.712 984.24 141.288 983.718 142.296L983.556 140.892H982.26V150H983.736V145.068C983.736 143.286 984.654 142.062 986.364 142.062C987.84 142.062 988.83 142.962 988.83 144.852V150H990.306V144.546C990.306 142.224 988.974 140.712 986.706 140.712ZM1000.66 140.892H994.897V139.218C994.897 138.516 995.077 138.03 996.031 138.03H997.111V136.734H995.905C994.231 136.734 993.403 137.472 993.403 139.146V140.892H991.837V142.206H993.403V150H994.897V142.206H999.181V150H1000.66V140.892ZM998.983 136.878V138.588H1000.85V136.878H998.983ZM1007.05 140.892C1005.99 140.892 1005.12 141.468 1004.74 142.188L1004.55 140.892H1003.25V150H1004.73V144.978C1004.73 143.286 1005.43 142.26 1006.99 142.26H1008.2V140.892H1007.05ZM1019.83 140.712C1018.68 140.712 1017.47 141.252 1016.91 142.476C1016.39 141.306 1015.31 140.712 1013.94 140.712C1012.9 140.712 1011.93 141.108 1011.44 141.954L1011.22 140.892H1009.93V150H1011.4V144.564C1011.4 143.016 1012.27 142.08 1013.71 142.08C1015.02 142.08 1015.8 142.944 1015.8 144.636V150H1017.25V144.654C1017.31 142.89 1018.3 142.08 1019.54 142.08C1020.82 142.08 1021.65 142.782 1021.65 144.51V150H1023.14V144.258C1023.14 142.044 1021.83 140.712 1019.83 140.712ZM1033.65 148.848C1033.13 148.848 1032.99 148.722 1032.99 148.146V144.24C1032.99 141.954 1031.51 140.712 1029.24 140.712C1027.12 140.712 1025.55 141.756 1025.45 143.682H1026.87C1026.94 142.602 1027.8 141.936 1029.19 141.936C1030.54 141.936 1031.49 142.62 1031.49 144.258V144.762H1028.61C1026.02 144.762 1025.12 145.932 1025.12 147.39C1025.12 149.118 1026.38 150.18 1028.42 150.18C1029.87 150.18 1031.06 149.604 1031.6 148.758C1031.69 149.712 1032.36 150 1033.08 150H1033.98V148.848H1033.65ZM1031.49 146.274C1031.49 148.128 1030.16 148.956 1028.67 148.956C1027.5 148.956 1026.65 148.434 1026.65 147.372C1026.65 146.508 1027.19 145.86 1028.76 145.86H1031.49V146.274ZM1038.35 150H1039.71V148.668H1038.69C1037.81 148.668 1037.59 148.182 1037.59 147.516V142.224H1039.73V140.892H1037.59V138.516H1036.11V140.082C1036.11 140.64 1035.92 140.892 1035.34 140.892H1034.48V142.224H1036.11V147.714C1036.11 149.262 1037 150 1038.35 150ZM1041.53 138.93H1043.37V137.202H1041.53V138.93ZM1041.71 150H1043.19V140.892H1041.71V150ZM1045.41 145.464C1045.41 148.254 1047.26 150.18 1050.02 150.18C1052.77 150.18 1054.64 148.254 1054.64 145.464C1054.64 142.656 1052.77 140.712 1050.02 140.712C1047.26 140.712 1045.41 142.656 1045.41 145.464ZM1046.92 145.446C1046.92 143.322 1048.16 141.972 1050.02 141.972C1051.87 141.972 1053.11 143.322 1053.11 145.446C1053.11 147.534 1051.87 148.902 1050.02 148.902C1048.16 148.902 1046.92 147.534 1046.92 145.446ZM1061.29 140.712C1059.89 140.712 1058.82 141.288 1058.3 142.296L1058.14 140.892H1056.84V150H1058.32V145.068C1058.32 143.286 1059.24 142.062 1060.95 142.062C1062.42 142.062 1063.41 142.962 1063.41 144.852V150H1064.89V144.546C1064.89 142.224 1063.56 140.712 1061.29 140.712ZM1079.44 145.212C1079.44 142.512 1077.69 140.712 1075.07 140.712C1072.4 140.712 1070.62 142.584 1070.62 145.428C1070.62 148.272 1072.4 150.162 1075.08 150.162C1077.24 150.162 1078.81 148.956 1079.33 147.138H1077.82C1077.37 148.326 1076.34 148.92 1075.12 148.92C1073.48 148.92 1072.17 147.876 1072.13 145.86H1079.44V145.212ZM1075.07 141.918C1076.6 141.918 1077.82 142.872 1077.93 144.762H1072.15C1072.33 142.854 1073.54 141.918 1075.07 141.918ZM1091.55 140.712C1090.4 140.712 1089.19 141.252 1088.63 142.476C1088.11 141.306 1087.03 140.712 1085.66 140.712C1084.62 140.712 1083.65 141.108 1083.16 141.954L1082.94 140.892H1081.65V150H1083.12V144.564C1083.12 143.016 1083.99 142.08 1085.43 142.08C1086.74 142.08 1087.52 142.944 1087.52 144.636V150H1088.97V144.654C1089.03 142.89 1090.02 142.08 1091.26 142.08C1092.54 142.08 1093.37 142.782 1093.37 144.51V150H1094.86V144.258C1094.86 142.044 1093.55 140.712 1091.55 140.712ZM1105.37 148.848C1104.85 148.848 1104.71 148.722 1104.71 148.146V144.24C1104.71 141.954 1103.23 140.712 1100.96 140.712C1098.84 140.712 1097.27 141.756 1097.16 143.682H1098.59C1098.66 142.602 1099.52 141.936 1100.91 141.936C1102.26 141.936 1103.21 142.62 1103.21 144.258V144.762H1100.33C1097.74 144.762 1096.84 145.932 1096.84 147.39C1096.84 149.118 1098.1 150.18 1100.13 150.18C1101.59 150.18 1102.78 149.604 1103.32 148.758C1103.41 149.712 1104.08 150 1104.8 150H1105.7V148.848H1105.37ZM1103.21 146.274C1103.21 148.128 1101.88 148.956 1100.39 148.956C1099.22 148.956 1098.37 148.434 1098.37 147.372C1098.37 146.508 1098.91 145.86 1100.48 145.86H1103.21V146.274ZM1107.31 138.93H1109.14V137.202H1107.31V138.93ZM1107.49 150H1108.96V140.892H1107.49V150ZM1113.01 136.752H1111.53V150H1113.01V136.752ZM1119.63 140.892H1118.03L1121.52 149.946C1121.63 150.234 1121.68 150.486 1121.68 150.738C1121.68 151.764 1121.1 152.268 1120.17 152.268H1118.35V153.6H1120.15C1121.48 153.6 1122.47 153.24 1123.12 151.476L1126.94 140.892L1125.37 140.874L1122.62 149.01L1119.63 140.892ZM1127.76 145.464C1127.76 148.254 1129.62 150.18 1132.37 150.18C1135.13 150.18 1137 148.254 1137 145.464C1137 142.656 1135.13 140.712 1132.37 140.712C1129.62 140.712 1127.76 142.656 1127.76 145.464ZM1129.28 145.446C1129.28 143.322 1130.52 141.972 1132.37 141.972C1134.23 141.972 1135.47 143.322 1135.47 145.446C1135.47 147.534 1134.23 148.902 1132.37 148.902C1130.52 148.902 1129.28 147.534 1129.28 145.446ZM1145.46 140.892V145.878C1145.46 147.624 1144.58 148.83 1142.94 148.83C1141.54 148.848 1140.55 147.966 1140.55 146.112V140.892H1139.11V146.346C1139.11 148.668 1140.44 150.18 1142.65 150.18C1143.91 150.18 1144.92 149.64 1145.46 148.65L1145.61 150H1146.88V140.892H1145.46ZM1149.3 141.288H1150.26L1151.32 139.236V137.166H1149.23V139.236H1150.31L1149.3 141.288ZM1154.47 140.892H1152.88L1156.66 150H1158.27L1162.08 140.892H1160.5L1157.47 148.344L1154.47 140.892ZM1171.69 145.212C1171.69 142.512 1169.94 140.712 1167.32 140.712C1164.65 140.712 1162.87 142.584 1162.87 145.428C1162.87 148.272 1164.65 150.162 1167.33 150.162C1169.49 150.162 1171.06 148.956 1171.58 147.138H1170.07C1169.62 148.326 1168.59 148.92 1167.37 148.92C1165.73 148.92 1164.42 147.876 1164.38 145.86H1171.69V145.212ZM1167.32 141.918C1168.85 141.918 1170.07 142.872 1170.18 144.762H1164.4C1164.58 142.854 1165.79 141.918 1167.32 141.918ZM1181.25 140.892C1180.18 140.892 1179.32 141.468 1178.94 142.188L1178.74 140.892H1177.45V150H1178.92V144.978C1178.92 143.286 1179.63 142.26 1181.19 142.26H1182.4V140.892H1181.25ZM1192.34 145.212C1192.34 142.512 1190.6 140.712 1187.97 140.712C1185.31 140.712 1183.52 142.584 1183.52 145.428C1183.52 148.272 1185.31 150.162 1187.99 150.162C1190.15 150.162 1191.71 148.956 1192.24 147.138H1190.72C1190.27 148.326 1189.25 148.92 1188.02 148.92C1186.39 148.92 1185.07 147.876 1185.04 145.86H1192.34V145.212ZM1187.97 141.918C1189.5 141.918 1190.72 142.872 1190.83 144.762H1185.05C1185.23 142.854 1186.44 141.918 1187.97 141.918ZM1201.14 143.934H1202.76C1202.24 141.9 1200.64 140.712 1198.5 140.712C1195.83 140.712 1194.05 142.584 1194.05 145.428C1194.05 148.272 1195.83 150.162 1198.5 150.162C1200.68 150.162 1202.28 148.848 1202.78 146.814H1201.22C1200.77 148.128 1199.78 148.866 1198.5 148.866C1196.84 148.866 1195.56 147.714 1195.56 145.428C1195.56 143.178 1196.82 141.99 1198.52 141.99C1199.74 141.99 1200.71 142.71 1201.14 143.934ZM1213.17 145.212C1213.17 142.512 1211.43 140.712 1208.8 140.712C1206.14 140.712 1204.35 142.584 1204.35 145.428C1204.35 148.272 1206.14 150.162 1208.82 150.162C1210.98 150.162 1212.54 148.956 1213.07 147.138H1211.55C1211.1 148.326 1210.08 148.92 1208.85 148.92C1207.22 148.92 1205.9 147.876 1205.87 145.86H1213.17V145.212ZM1208.8 141.918C1210.33 141.918 1211.55 142.872 1211.66 144.762H1205.88C1206.06 142.854 1207.27 141.918 1208.8 141.918ZM1215.2 138.93H1217.04V137.202H1215.2V138.93ZM1215.38 150H1216.86V140.892H1215.38V150ZM1219.93 140.892H1218.34L1222.12 150H1223.73L1227.54 140.892H1225.96L1222.93 148.344L1219.93 140.892ZM1237.15 145.212C1237.15 142.512 1235.4 140.712 1232.78 140.712C1230.11 140.712 1228.33 142.584 1228.33 145.428C1228.33 148.272 1230.11 150.162 1232.79 150.162C1234.95 150.162 1236.52 148.956 1237.04 147.138H1235.53C1235.08 148.326 1234.05 148.92 1232.83 148.92C1231.19 148.92 1229.88 147.876 1229.84 145.86H1237.15V145.212ZM1232.78 141.918C1234.31 141.918 1235.53 142.872 1235.64 144.762H1229.86C1230.04 142.854 1231.25 141.918 1232.78 141.918ZM1246.53 136.752V142.386C1245.9 141.342 1244.65 140.712 1243.2 140.712C1240.84 140.712 1238.86 142.422 1238.86 145.482C1238.86 148.506 1240.8 150.18 1243.2 150.18C1244.62 150.18 1245.9 149.532 1246.53 148.452L1246.71 150H1248V136.752H1246.53ZM1243.43 148.884C1241.65 148.884 1240.39 147.624 1240.39 145.482C1240.39 143.376 1241.63 142.044 1243.43 142.026C1245.14 142.008 1246.49 143.358 1246.49 145.482C1246.49 147.624 1245.14 148.884 1243.43 148.884Z" fill="#01031C"/>
</svg>
