<svg width="611" height="439" viewBox="0 0 611 439" fill="none" xmlns="http://www.w3.org/2000/svg">
<g clip-path="url(#clip0_1_692)">
<path d="M61.2358 478.358C82.973 469.288 93.2269 444.348 84.1385 422.654C75.05 400.96 50.0609 390.726 28.3236 399.797C6.58637 408.867 -3.66752 433.807 5.42091 455.501C14.5093 477.195 39.4985 487.428 61.2358 478.358Z" fill="#040A60" stroke="#192191" stroke-width="2" stroke-miterlimit="10"/>
<path d="M203.439 478.345C225.176 469.275 235.43 444.335 226.342 422.641C217.253 400.947 192.264 390.714 170.527 399.784C148.789 408.855 138.536 433.794 147.624 455.488C156.712 477.182 181.702 487.416 203.439 478.345Z" fill="#040A60" stroke="#192191" stroke-width="2" stroke-miterlimit="10"/>
<path d="M448.134 478.347C469.871 469.276 480.125 444.337 471.037 422.643C461.948 400.949 436.959 390.715 415.222 399.786C393.485 408.856 383.231 433.796 392.319 455.49C401.408 477.184 426.397 487.417 448.134 478.347Z" fill="#040A60" stroke="#192191" stroke-width="2" stroke-miterlimit="10"/>
<path d="M582.713 478.33C604.451 469.26 614.704 444.32 605.616 422.626C596.528 400.932 571.538 390.699 549.801 399.769C528.064 408.839 517.81 433.779 526.898 455.473C535.987 477.167 560.976 487.401 582.713 478.33Z" fill="#040A60" stroke="#192191" stroke-width="2" stroke-miterlimit="10"/>
<path d="M519.224 362.964C540.961 353.894 551.215 328.954 542.127 307.26C533.038 285.566 508.049 275.332 486.312 284.403C464.575 293.473 454.321 318.413 463.409 340.107C472.498 361.801 497.487 372.034 519.224 362.964Z" fill="#040A60" stroke="#192191" stroke-width="2" stroke-miterlimit="10"/>
<path d="M408.769 186.111C425.8 184.498 438.297 169.411 436.681 152.414C435.065 135.417 419.948 122.945 402.917 124.557C385.886 126.17 373.389 141.257 375.005 158.254C376.621 175.252 391.737 187.723 408.769 186.111Z" fill="#040A60" stroke="#192191" stroke-width="2" stroke-miterlimit="10"/>
<path d="M520.186 99.7043C523.649 85.0014 514.514 70.2802 499.782 66.8235C485.05 63.3669 470.299 72.4838 466.836 87.1866C463.372 101.89 472.507 116.611 487.239 120.067C501.972 123.524 516.722 114.407 520.186 99.7043Z" fill="#040A60" stroke="#192191" stroke-width="2" stroke-miterlimit="10"/>
<path d="M127.651 362.984C149.388 353.913 159.642 328.974 150.554 307.28C141.465 285.585 116.476 275.352 94.7387 284.422C73.0014 293.493 62.7475 318.432 71.836 340.126C80.9244 361.82 105.914 372.054 127.651 362.984Z" fill="#040A60" stroke="#192191" stroke-width="2" stroke-miterlimit="10"/>
<path d="M194.897 248.356C216.634 239.285 226.888 214.346 217.8 192.652C208.711 170.958 183.722 160.724 161.985 169.794C140.248 178.865 129.994 203.804 139.082 225.498C148.17 247.192 173.16 257.426 194.897 248.356Z" fill="#040A60" stroke="#192191" stroke-width="2" stroke-miterlimit="10"/>
<path d="M266.148 362.977C287.885 353.906 298.139 328.967 289.051 307.273C279.962 285.579 254.973 275.345 233.236 284.415C211.498 293.486 201.245 318.425 210.333 340.12C219.421 361.814 244.411 372.047 266.148 362.977Z" fill="#040A60" stroke="#192191" stroke-width="2" stroke-miterlimit="10"/>
<path d="M327.731 248.347C349.468 239.276 359.722 214.337 350.634 192.643C341.545 170.949 316.556 160.715 294.819 169.786C273.081 178.856 262.828 203.796 271.916 225.49C281.004 247.184 305.994 257.417 327.731 248.347Z" fill="#040A60" stroke="#192191" stroke-width="2" stroke-miterlimit="10"/>
</g>
<defs>
<clipPath id="clip0_1_692">
<rect width="611" height="438.576" fill="white" transform="translate(0 0.424316)"/>
</clipPath>
</defs>
</svg>
