<svg width="19" height="22" viewBox="0 0 19 22" fill="none" xmlns="http://www.w3.org/2000/svg">
<path d="M9.62281 12.4299C10.0325 12.4299 10.4382 12.3492 10.8168 12.1924C11.1953 12.0357 11.5393 11.8058 11.829 11.5161C12.1187 11.2264 12.3485 10.8824 12.5053 10.5039C12.6621 10.1254 12.7428 9.71967 12.7428 9.30994C12.7428 8.90022 12.6621 8.49451 12.5053 8.11597C12.3485 7.73743 12.1187 7.39349 11.829 7.10377C11.5393 6.81405 11.1953 6.58423 10.8168 6.42744C10.4382 6.27064 10.0325 6.18994 9.62281 6.18994C8.79533 6.18994 8.00175 6.51865 7.41663 7.10377C6.83152 7.68888 6.50281 8.48247 6.50281 9.30994C6.50281 10.1374 6.83152 10.931 7.41663 11.5161C8.00175 12.1012 8.79533 12.4299 9.62281 12.4299V12.4299Z" stroke="#091071" stroke-width="1.5"/>
<path d="M1.24276 7.49C3.21276 -1.17 16.0428 -1.16 18.0028 7.5C19.1528 12.58 15.9928 16.88 13.2228 19.54C12.2548 20.4735 10.9625 20.9952 9.61776 20.9952C8.273 20.9952 6.98068 20.4735 6.01276 19.54C3.25276 16.88 0.0927559 12.57 1.24276 7.49V7.49Z" stroke="#091071" stroke-width="1.5"/>
</svg>
