<svg width="37" height="33" viewBox="0 0 37 33" fill="none" xmlns="http://www.w3.org/2000/svg">
<g clip-path="url(#clip0_1_5139)">
<path d="M2.58046 27.1865C1.3082 27.1865 0 28.2182 0 30.024C0 31.6749 1.15025 32.8409 2.58046 32.8409C3.76107 32.8409 4.28723 32.039 4.28723 32.039V32.3886C4.28723 32.5538 4.44157 32.7381 4.63266 32.7381H5.48602V27.3099H4.28723V27.9987C4.28718 27.9987 3.75662 27.1865 2.58046 27.1865ZM2.794 28.2965C3.84134 28.2965 4.39073 29.2286 4.39073 30.0236C4.39073 30.9091 3.73844 31.7501 2.79625 31.7501C2.00864 31.7501 1.21967 31.1047 1.21967 30.0119C1.21962 29.0255 1.8986 28.2965 2.794 28.2965Z" fill="black"/>
<path d="M7.15207 32.7381C6.96787 32.7381 6.80664 32.6044 6.80664 32.3885V27.3099H8.00543V27.9816C8.27709 27.5684 8.8078 27.1848 9.6224 27.1848C10.9538 27.1848 11.6628 28.2589 11.6628 29.2632V32.7381H10.8297C10.6113 32.7381 10.464 32.553 10.464 32.368V29.5305C10.464 28.9738 10.1269 28.2977 9.34741 28.2977C8.50627 28.2977 8.00543 29.1021 8.00543 29.8594V32.7381H7.15207V32.7381Z" fill="black"/>
<path d="M15.1576 27.1864C13.8854 27.1864 12.5771 28.2181 12.5771 30.0239C12.5771 31.6748 13.7273 32.8408 15.1576 32.8408C16.3382 32.8408 16.8644 32.0389 16.8644 32.0389V32.3885C16.8644 32.5537 17.0187 32.738 17.2098 32.738H18.0632V24.5957H16.8644V27.9986C16.8644 27.9986 16.3338 27.1864 15.1576 27.1864ZM15.3711 28.2964C16.4185 28.2964 16.9679 29.2285 16.9679 30.0235C16.9679 30.9091 16.3156 31.7501 15.3734 31.7501C14.5858 31.7501 13.7968 31.1046 13.7968 30.0119C13.7968 29.0255 14.4757 28.2964 15.3711 28.2964Z" fill="black"/>
<path d="M19.7292 32.7382C19.545 32.7382 19.3838 32.6045 19.3838 32.3886V27.3099H20.5826V28.2147C20.7889 27.7078 21.2342 27.2483 22.0252 27.2483C22.2457 27.2483 22.4519 27.2894 22.4519 27.2894V28.5436C22.4519 28.5436 22.1945 28.4408 21.883 28.4408C21.0418 28.4408 20.5826 29.2453 20.5826 30.0026V32.7382L19.7292 32.7382Z" fill="black"/>
<path d="M29.7253 32.7383C29.5411 32.7383 29.3799 32.6046 29.3799 32.3887V27.3101H30.5787V32.7383H29.7253Z" fill="black"/>
<path d="M34.0941 27.1864C32.8219 27.1864 31.5137 28.2181 31.5137 30.0239C31.5137 31.6748 32.6639 32.8408 34.0941 32.8408C35.2747 32.8408 35.8009 32.0389 35.8009 32.0389V32.3885C35.8009 32.5537 35.9553 32.738 36.1463 32.738H36.9997V24.5957H35.8009V27.9986C35.8009 27.9986 35.2703 27.1864 34.0941 27.1864ZM34.3077 28.2964C35.355 28.2964 35.9044 29.2285 35.9044 30.0235C35.9044 30.9091 35.2521 31.7501 34.3099 31.7501C33.5223 31.7501 32.7333 31.1046 32.7333 30.0119C32.7333 29.0255 33.4123 28.2964 34.3077 28.2964Z" fill="black"/>
<path d="M29.9706 26.1392C30.4085 26.1392 30.7635 25.7799 30.7635 25.3368C30.7635 24.8937 30.4085 24.5344 29.9706 24.5344C29.5327 24.5344 29.1777 24.8937 29.1777 25.3368C29.1777 25.7799 29.5327 26.1392 29.9706 26.1392Z" fill="black"/>
<path d="M25.6136 27.1848C24.2812 27.1848 22.8174 28.1912 22.8174 30.0144C22.8174 31.6759 24.0642 32.8412 25.6107 32.8412C27.5166 32.8412 28.4472 31.2907 28.4472 30.025C28.4472 28.4717 27.2488 27.1848 25.6136 27.1848ZM25.6179 28.3177C26.5393 28.3177 27.2266 29.0692 27.2266 30.0179C27.2266 30.983 26.497 31.7278 25.6207 31.7278C24.8072 31.7278 24.0164 31.0578 24.0164 30.0341C24.0164 28.9933 24.7685 28.3177 25.6179 28.3177Z" fill="black"/>
<path d="M27.5306 6.48059L30.5977 1.10384C30.7708 0.802424 30.6662 0.419502 30.3723 0.244384C30.0785 0.0692288 29.6961 0.171072 29.527 0.472483L26.4196 5.91847C24.0488 4.82275 21.3801 4.21177 18.5101 4.21177C15.6402 4.21177 12.9715 4.82275 10.6006 5.91847L7.49317 0.472483C7.32008 0.171072 6.94172 0.0692288 6.64387 0.244384C6.34602 0.419539 6.24538 0.802424 6.41847 1.10384L9.48565 6.48059C4.19658 9.38079 0.614165 14.7982 0.0224609 21.1404H36.9977C36.4061 14.7982 32.8237 9.38076 27.5306 6.48059ZM10.021 15.8858C9.16368 15.8858 8.47134 15.1812 8.47134 14.3176C8.47134 13.45 9.16768 12.7494 10.021 12.7494C10.8784 12.7494 11.5708 13.454 11.5708 14.3176C11.5748 15.1811 10.8784 15.8858 10.021 15.8858ZM26.9952 15.8858C26.1378 15.8858 25.4455 15.1812 25.4455 14.3176C25.4455 13.45 26.1418 12.7494 26.9952 12.7494C27.8526 12.7494 28.5449 13.454 28.5449 14.3176C28.5489 15.1811 27.8526 15.8858 26.9952 15.8858Z" fill="#32DE84"/>
</g>
<defs>
<clipPath id="clip0_1_5139">
<rect width="37" height="33" fill="white"/>
</clipPath>
</defs>
</svg>
