<svg width="31" height="37" viewBox="0 0 31 37" fill="none" xmlns="http://www.w3.org/2000/svg">
<g clip-path="url(#clip0_1_5151)">
<path d="M25.6909 19.6569C25.7434 25.2562 30.6482 27.1195 30.7026 27.1433C30.6611 27.2747 29.9188 29.7987 28.1186 32.4057C26.5622 34.6597 24.947 36.9054 22.4024 36.9519C19.902 36.9975 19.0981 35.4827 16.2396 35.4827C13.3819 35.4827 12.4886 36.9053 10.1218 36.9975C7.66568 37.0897 5.79532 34.5602 4.22603 32.3145C1.01941 27.7208 -1.43114 19.334 1.85934 13.6727C3.49394 10.8612 6.41517 9.08098 9.58581 9.03532C11.9976 8.98977 14.2742 10.6431 15.7486 10.6431C17.222 10.6431 19.9885 8.65473 22.8968 8.94682C24.1143 8.99707 27.5318 9.43415 29.7263 12.617C29.5496 12.7254 25.6485 14.9757 25.6909 19.6569ZM20.992 5.90762C22.2959 4.3436 23.1736 2.16633 22.9342 0C21.0546 0.0748471 18.7818 1.2411 17.4336 2.80418C16.2253 4.18838 15.1672 6.40402 15.4527 8.52739C17.5477 8.68815 19.6879 7.47259 20.992 5.90762Z" fill="#424242"/>
</g>
<defs>
<clipPath id="clip0_1_5151">
<rect width="31" height="37" fill="white"/>
</clipPath>
</defs>
</svg>
