<svg width="26" height="46" viewBox="0 0 26 46" fill="none" xmlns="http://www.w3.org/2000/svg">
<g clip-path="url(#clip0_1_4995)">
<path d="M16.2717 0.0126953C17.0157 0.834507 17.2613 2.00962 17.0474 3.06953C16.8179 4.26 16.1371 5.31223 15.3375 6.21852C14.6963 6.94817 13.9601 7.59333 13.1923 8.1924C12.2977 8.89133 11.419 9.64402 10.8569 10.6271C10.3819 11.4259 10.2711 12.409 10.5957 13.2769C11.126 14.7669 12.361 15.8729 13.0339 17.2784C12.2897 16.6409 11.5614 15.9804 10.8806 15.2815C10.1682 14.5442 9.49531 13.7608 9.052 12.8391C8.75119 12.1939 8.61661 11.4412 8.84618 10.7577C9.07575 10.0588 9.5903 9.49809 10.1049 8.97581C11.5377 7.58565 13.3031 6.56414 14.7042 5.15094C15.48 4.37521 16.1212 3.44587 16.3427 2.37828C16.525 1.59487 16.4379 0.788424 16.2717 0.0126953Z" fill="#E92E2F" stroke="#E92E2F" stroke-width="0.00971013" stroke-miterlimit="10"/>
<path d="M15.1006 8.76069C16.6363 7.66238 18.4333 6.96345 20.254 6.45654C18.8134 7.34748 17.3093 8.16161 16.0664 9.306C15.6152 9.72843 15.1877 10.2123 14.9898 10.8037C14.8394 11.2415 14.9027 11.7254 15.0848 12.1401C15.4172 12.8774 15.9793 13.4765 16.4068 14.1524C16.7709 14.7284 16.8342 15.4657 16.5572 16.0879C16.1375 17.0018 15.3142 17.67 14.4594 18.2C14.3486 18.2614 14.2536 18.3766 14.1189 18.392C14.6889 17.8928 15.1323 17.1862 15.1163 16.4258C15.1006 15.8574 14.776 15.3582 14.396 14.9512C13.6123 14.0449 12.9552 12.8928 13.0899 11.6716C13.2245 10.4504 14.1268 9.46721 15.1006 8.76069Z" fill="#E92E2F" stroke="#E92E2F" stroke-width="0.00971013" stroke-miterlimit="10"/>
<path d="M20.5468 17.6394C20.8792 17.2477 21.4095 17.1479 21.8926 17.0864C22.7317 16.9789 23.6261 17.1863 24.2594 17.747C24.782 18.2001 25.0748 18.9067 24.9639 19.5903C24.8452 20.3814 24.299 21.0419 23.6816 21.5411C22.5654 22.409 21.188 22.9159 19.8105 23.2539C19.8897 23.1693 19.9768 23.0925 20.0797 23.0312C21.1246 22.4858 22.1616 21.8484 22.9295 20.9575C23.3966 20.4045 23.7607 19.6825 23.6103 18.9529C23.452 18.108 22.605 17.4936 21.7421 17.4475C21.3304 17.409 20.9426 17.5626 20.5468 17.6394Z" fill="#0774BB" stroke="#0774BB" stroke-width="0.00971013" stroke-miterlimit="10"/>
<path d="M4.63561 18.3382C6.09219 17.7314 7.67542 17.3397 9.26658 17.3628C8.34038 17.6239 7.39044 17.8467 6.51966 18.246C6.31384 18.3536 6.07635 18.4534 5.95761 18.6608C5.89428 18.8221 6.06844 18.9296 6.1951 18.9834C6.7334 19.1984 7.32711 19.2291 7.90499 19.2829C9.93154 19.4135 11.966 19.3367 13.9846 19.2138C15.9794 19.0909 17.9585 18.8298 19.9297 18.5225C19.4943 18.7222 19.051 18.9219 18.6474 19.1754C18.4414 19.3136 18.1881 19.352 17.9586 19.4058C15.5362 19.9281 13.0506 20.0894 10.5807 20.1278C9.62281 20.1354 8.67287 20.1201 7.72292 20.0586C6.66215 19.9895 5.59346 19.9127 4.55644 19.6439C4.25563 19.5594 3.93898 19.4672 3.70149 19.2599C3.58275 19.1677 3.58275 18.9834 3.68566 18.8758C3.9469 18.6148 4.31104 18.4918 4.63561 18.3382Z" fill="#0774BB" stroke="#0774BB" stroke-width="0.00971013" stroke-miterlimit="10"/>
<path d="M6.50314 21.618C6.91478 21.3031 7.40558 21.1265 7.89639 20.9575C7.73806 21.1419 7.51641 21.3185 7.50058 21.572C7.49266 21.7332 7.62724 21.8561 7.76181 21.9329C8.02305 22.0635 8.31595 22.1096 8.60885 22.148C10.1288 22.3016 11.6645 22.3861 13.2002 22.2862C14.6013 22.2171 15.9947 21.9944 17.3801 21.7563C17.76 22.1019 18.2113 22.34 18.6862 22.5474C17.0158 23.0236 15.298 23.3001 13.5722 23.4306C11.9416 23.5382 10.287 23.5306 8.66418 23.277C8.02297 23.1618 7.36592 23.0313 6.78012 22.7394C6.54264 22.6165 6.27349 22.4552 6.20224 22.1864C6.15482 21.956 6.32898 21.7485 6.50314 21.618Z" fill="#0774BB" stroke="#0774BB" stroke-width="0.00971013" stroke-miterlimit="10"/>
<path d="M7.42198 24.9665C7.78612 24.6824 8.23735 24.5364 8.68065 24.4136C8.53816 24.5441 8.28484 24.7054 8.39567 24.9281C8.60941 25.1969 9.00522 25.2276 9.32187 25.2968C10.6597 25.4581 12.0134 25.5656 13.3512 25.4657C14.3644 25.4044 15.3619 25.2276 16.3514 25.0587C16.9213 25.3812 17.515 25.6577 18.1245 25.9036C17.1905 26.3106 16.1851 26.5717 15.1798 26.7561C13.4857 27.0479 11.7362 27.0863 10.0342 26.8252C9.28221 26.6946 8.51434 26.5257 7.83354 26.1646C7.57231 26.0188 7.29524 25.8497 7.18441 25.5656C7.09741 25.3429 7.23991 25.1048 7.42198 24.9665Z" fill="#0774BB" stroke="#0774BB" stroke-width="0.00971013" stroke-miterlimit="10"/>
<path d="M3.02811 27.1403C3.7564 26.9022 4.50844 26.7102 5.27631 26.6871C5.58504 26.6794 5.90169 26.6948 6.17084 26.8484C5.25256 26.9023 4.33428 27.1249 3.511 27.532C3.32892 27.6319 3.1231 27.7471 3.05186 27.9544C3.05186 28.1925 3.32892 28.2693 3.511 28.3461C4.65884 28.7609 5.88585 28.8914 7.08912 29.0144C10.6752 29.3062 14.2849 29.2294 17.871 28.9145C19.2246 28.7685 20.5863 28.6225 21.9003 28.2616C22.3198 28.1233 22.7948 27.9851 23.0718 27.6241C23.2382 27.4091 23.1273 27.1403 22.9612 26.9559C23.2302 27.1019 23.6102 27.2863 23.5549 27.6395C23.4519 28.0081 23.064 28.2001 22.7474 28.3768C21.7342 28.8761 20.6179 29.1296 19.5096 29.3522C16.2878 29.9666 12.9868 30.1049 9.70946 30.0128C7.2396 29.9282 4.76975 29.6978 2.33156 29.2909C1.89617 29.191 1.40537 29.1065 1.08872 28.7762C0.882897 28.5458 1.06497 28.2233 1.26287 28.0544C1.76152 27.6088 2.40273 27.363 3.02811 27.1403Z" fill="#0774BB" stroke="#0774BB" stroke-width="0.00971013" stroke-miterlimit="10"/>
<path d="M22.7553 29.767C23.555 29.4981 24.4098 29.214 25.0035 28.5996C24.9007 29.2677 24.3069 29.7286 23.7211 30.0282C22.597 30.5965 21.3384 30.8577 20.0876 31.0727C17.4436 31.4799 14.7599 31.5796 12.0764 31.5336C10.2478 31.4799 8.40331 31.4107 6.60633 31.042C6.17886 30.9268 5.71972 30.85 5.34766 30.6043C6.94673 30.8654 8.56955 30.973 10.1924 31.0344C12.8601 31.1112 15.5358 31.0114 18.1877 30.6888C19.7235 30.4813 21.2671 30.2278 22.7553 29.767Z" fill="#0774BB" stroke="#0774BB" stroke-width="0.00971013" stroke-miterlimit="10"/>
<path d="M1.89605 41.1571C1.90397 38.6378 1.88813 36.1187 1.90397 33.5918C2.44227 33.6071 2.98057 33.5918 3.51887 33.6071C3.51095 36.4259 3.51887 39.2522 3.51095 42.0787C3.49512 42.8697 3.47929 43.6993 3.08348 44.4058C2.64809 45.1586 1.8723 45.6886 1.04902 45.9958C0.787783 45.7193 0.550297 45.4274 0.289062 45.1509C0.954023 44.7746 1.61898 44.2369 1.77731 43.4612C1.92772 42.7008 1.88022 41.9251 1.89605 41.1571Z" fill="#E92E2F" stroke="#E92E2F" stroke-width="0.00971013" stroke-miterlimit="10"/>
<path d="M5.01472 36.6254C6.08341 36.1799 7.27084 35.9495 8.43452 36.0724C9.03615 36.1415 9.66153 36.3566 10.0494 36.8251C10.374 37.2244 10.4927 37.7391 10.4848 38.2383C10.4848 39.9588 10.4848 41.6714 10.4848 43.3919C10.089 43.3919 9.69319 43.3919 9.28947 43.3919C9.24989 43.1384 9.21031 42.8774 9.17864 42.6162C8.72742 42.9618 8.24453 43.292 7.68248 43.4304C7.04127 43.5916 6.33673 43.5763 5.71135 43.3383C5.22846 43.1463 4.84848 42.7238 4.71391 42.2323C4.516 41.5179 4.61891 40.6807 5.14138 40.1047C5.60844 39.5749 6.31298 39.3137 7.0096 39.1909C7.65082 39.0678 8.30786 39.0678 8.9649 39.0678C8.94907 38.584 9.04407 38.0541 8.75908 37.624C8.52951 37.2936 8.10995 37.1632 7.72206 37.14C6.87503 37.0709 6.03591 37.2784 5.23638 37.5472C5.15721 37.2399 5.08597 36.9327 5.01472 36.6254ZM6.97794 40.1892C6.62963 40.2966 6.30506 40.5425 6.21007 40.8957C6.09924 41.2874 6.13091 41.7482 6.39214 42.0785C6.64546 42.401 7.1046 42.4778 7.50041 42.4318C8.05454 42.3703 8.53743 42.0631 8.9649 41.7329C8.9649 41.1569 8.95699 40.5885 8.9649 40.0125C8.29994 40.0125 7.61915 39.9741 6.97794 40.1892Z" fill="#E92E2F" stroke="#E92E2F" stroke-width="0.00971013" stroke-miterlimit="10"/>
<path d="M18.9316 36.6255C20.0082 36.18 21.1957 35.942 22.3673 36.0725C22.9529 36.1416 23.5547 36.3491 23.9424 36.7944C24.3067 37.2169 24.4174 37.7776 24.4095 38.3152C24.4016 40.0126 24.4174 41.7023 24.3937 43.3996C23.9979 43.3844 23.6021 43.4073 23.2063 43.3844C23.1667 43.1232 23.135 42.8697 23.0875 42.6163C22.5334 43.0771 21.8685 43.4535 21.1164 43.5149C20.4278 43.5764 19.6519 43.4919 19.1135 43.0156C18.5515 42.5087 18.4566 41.687 18.599 40.988C18.7336 40.343 19.2323 39.8129 19.8341 39.5287C20.7759 39.0833 21.8527 39.0602 22.8818 39.0679C22.8659 38.5993 22.9529 38.1001 22.7076 37.6777C22.5176 37.3397 22.1139 37.1861 21.734 37.1477C20.8551 37.0556 19.9765 37.2708 19.1531 37.5472C19.0821 37.24 19.0029 36.9328 18.9316 36.6255ZM20.8711 40.197C20.5385 40.3045 20.2299 40.5503 20.127 40.8882C20.0161 41.2799 20.0478 41.7407 20.301 42.0787C20.5624 42.4089 21.0294 42.478 21.4331 42.432C21.9794 42.3552 22.478 42.0632 22.8897 41.71C22.8738 41.1494 22.8818 40.5811 22.8818 40.0126C22.209 40.0126 21.5202 39.9742 20.8711 40.197Z" fill="#E92E2F" stroke="#E92E2F" stroke-width="0.00971013" stroke-miterlimit="10"/>
<path d="M11.3877 36.1648C11.9418 36.1648 12.496 36.1648 13.0501 36.1648C13.3746 37.1785 13.6912 38.1847 14.016 39.1986C14.2058 39.8207 14.4433 40.4351 14.578 41.0726C14.6492 41.3567 14.7125 41.6487 14.7996 41.9252C15.4805 40.0587 16.0029 38.131 16.2721 36.1648C16.8104 36.1648 17.3487 36.1648 17.8869 36.1648C17.42 38.6533 16.6837 41.1033 15.5754 43.3921C14.9421 43.3921 14.3089 43.3921 13.6756 43.3921C12.9155 40.9804 12.1477 38.5765 11.3877 36.1648Z" fill="#E92E2F" stroke="#E92E2F" stroke-width="0.00971013" stroke-miterlimit="10"/>
<path d="M24.7258 36.0252H24.5312V35.957H25.005V36.0252H24.8093V36.5779H24.7258V36.0252H24.7258Z" fill="#E92E2F" stroke="#E92E2F" stroke-width="0.00971013" stroke-miterlimit="10"/>
<path d="M25.6158 36.3053C25.6111 36.2187 25.6054 36.1137 25.6054 36.0373H25.6035C25.5808 36.1092 25.5551 36.1874 25.5229 36.2731L25.4099 36.5743H25.3472L25.2428 36.2786C25.2124 36.1902 25.1877 36.1109 25.1697 36.0372H25.1678C25.166 36.1146 25.1611 36.2178 25.1555 36.3117L25.1384 36.5779H25.0596L25.1042 35.957H25.2096L25.3187 36.2573C25.3453 36.3338 25.3662 36.402 25.3833 36.4665H25.3852C25.4023 36.4039 25.4251 36.3357 25.4535 36.2573L25.5675 35.957H25.6728L25.7127 36.5779H25.6311L25.6158 36.3053Z" fill="#E92E2F" stroke="#E92E2F" stroke-width="0.00971013" stroke-miterlimit="10"/>
</g>
<defs>
<clipPath id="clip0_1_4995">
<rect width="26" height="46" fill="white"/>
</clipPath>
</defs>
</svg>
