<svg width="41" height="39" viewBox="0 0 41 39" fill="none" xmlns="http://www.w3.org/2000/svg">
<g clip-path="url(#clip0_1_5071)">
<path d="M34.3062 20.4599C34.3062 20.3913 34.2874 20.3423 34.2486 20.3102C34.2057 20.2757 34.1315 20.2573 34.0281 20.2573H33.8795V20.6652H34.0589C34.2245 20.6652 34.3062 20.5966 34.3062 20.4599ZM34.5379 21.3104H34.3337L34.2035 21.0234C34.1374 20.8796 34.0667 20.8077 33.9895 20.8077H33.8795V21.3104H33.7113V20.1141H34.0484C34.1983 20.1141 34.3108 20.1465 34.3881 20.2142C34.4535 20.2723 34.4862 20.3469 34.4862 20.4397C34.4862 20.5221 34.4595 20.5914 34.4057 20.6488C34.3534 20.707 34.2781 20.7463 34.1819 20.7665V20.7717C34.2486 20.7874 34.3154 20.8606 34.3802 20.9927L34.5379 21.311V21.3104ZM34.911 20.724C34.911 20.4887 34.8305 20.29 34.6701 20.1324C34.5091 19.9749 34.3128 19.8958 34.0811 19.8958C33.8422 19.8958 33.6433 19.9749 33.4855 20.1338C33.3278 20.2933 33.2493 20.4906 33.2493 20.724C33.2493 20.9626 33.3311 21.162 33.4934 21.3209C33.6538 21.4797 33.8501 21.5581 34.0811 21.5581C34.3108 21.5581 34.5071 21.479 34.6688 21.3182C34.8305 21.16 34.911 20.9613 34.911 20.724ZM35.0242 20.7188C35.0242 20.983 34.9332 21.2045 34.7506 21.383C34.568 21.5628 34.3442 21.6523 34.0765 21.6523C33.8069 21.6523 33.5831 21.5641 33.405 21.3908C33.2271 21.215 33.1387 20.9941 33.1387 20.7261C33.1387 20.4639 33.229 20.2436 33.4096 20.0626C33.5903 19.8822 33.8154 19.792 34.0844 19.792C34.3481 19.792 34.5693 19.8783 34.7487 20.0502C34.9325 20.2267 35.0242 20.4489 35.0242 20.7188Z" fill="black"/>
<path d="M9.42599 24.0546H8.84551V20.7366C8.84551 20.4745 8.86279 20.1555 8.89368 19.779H8.88059C8.82624 19.9992 8.7765 20.1587 8.73268 20.2575L7.04546 24.0546H6.76272L5.0722 20.2849C5.02456 20.1796 4.97471 20.0103 4.92429 19.779H4.91173C4.92953 19.977 4.93948 20.298 4.93948 20.7431V24.0546H4.37988V19.1135H5.14561L6.66335 22.559C6.77786 22.8185 6.85184 23.0159 6.88781 23.1506H6.9119C7.01069 22.8806 7.08923 22.678 7.14881 22.5446L8.69923 19.1135H9.42568V24.0546H9.42599Z" fill="black"/>
<path d="M11.2111 24.0544H10.647V20.5259H11.2111V24.0544ZM11.3086 19.261C11.3086 19.365 11.2719 19.4519 11.1993 19.5232C11.128 19.5944 11.0396 19.6304 10.9362 19.6304C10.8354 19.6304 10.7477 19.5959 10.6757 19.5271C10.6038 19.4578 10.5684 19.3696 10.5684 19.261C10.5684 19.1591 10.604 19.0722 10.6757 19.0016C10.7477 18.931 10.8354 18.897 10.9362 18.897C11.0396 18.897 11.128 18.931 11.1993 19.0016C11.2719 19.0722 11.3086 19.1591 11.3086 19.261Z" fill="black"/>
<path d="M14.7365 23.8911C14.4656 24.0571 14.1422 24.1395 13.7685 24.1395C13.262 24.1395 12.8543 23.9715 12.5427 23.6361C12.2404 23.3106 12.0879 22.8903 12.0879 22.3752C12.0879 21.7973 12.2534 21.3294 12.5872 20.9738C12.9191 20.6175 13.3654 20.4397 13.927 20.4397C14.2339 20.4397 14.5061 20.4998 14.7444 20.6188V21.1986C14.4806 21.0136 14.2018 20.9221 13.9027 20.9221C13.5427 20.9221 13.2502 21.0476 13.0231 21.298C12.7868 21.5542 12.6671 21.8968 12.6671 22.3243C12.6671 22.7348 12.7764 23.0596 12.9937 23.2995C13.2116 23.5381 13.5015 23.6577 13.8674 23.6577C14.1763 23.6577 14.4656 23.5564 14.7365 23.3544V23.8911Z" fill="black"/>
<path d="M17.4361 21.0984C17.3366 21.022 17.1933 20.9847 17.0041 20.9847C16.7744 20.9847 16.5813 21.0873 16.4249 21.2945C16.2475 21.5259 16.1592 21.8462 16.1592 22.2554V24.0543H15.5938V20.5258H16.1592V21.2534H16.1728C16.256 20.9958 16.3843 20.7977 16.5557 20.6572C16.716 20.5291 16.8973 20.4644 17.0969 20.4644C17.2475 20.4644 17.3594 20.4806 17.4359 20.5125V21.0982L17.4361 21.0984Z" fill="black"/>
<path d="M20.5868 22.2965C20.5868 21.8449 20.4847 21.4997 20.2805 21.2631C20.0822 21.0356 19.8053 20.9219 19.4487 20.9219C19.0972 20.9219 18.8151 21.0369 18.6043 21.267C18.3812 21.5128 18.2699 21.8599 18.2699 22.3103C18.2699 22.7326 18.376 23.0639 18.59 23.3006C18.8027 23.5385 19.0893 23.6575 19.4487 23.6575C19.8204 23.6575 20.1051 23.5366 20.3001 23.296C20.4912 23.0607 20.5868 22.728 20.5868 22.2965ZM21.1666 22.2767C21.1666 22.8388 21.0076 23.2905 20.6908 23.6291C20.3728 23.969 19.9448 24.139 19.4068 24.139C18.8767 24.139 18.4545 23.969 18.145 23.6291C17.8419 23.3016 17.6895 22.8689 17.6895 22.3309C17.6895 21.7171 17.8615 21.2439 18.2071 20.9079C18.5265 20.5961 18.9538 20.4392 19.4892 20.4392C20.0161 20.4392 20.4277 20.6033 20.7242 20.9282C21.0181 21.255 21.1666 21.7047 21.1666 22.2767Z" fill="black"/>
<path d="M23.972 23.1104C23.972 23.3993 23.864 23.6385 23.6474 23.8294C23.4111 24.036 23.0865 24.1392 22.6781 24.1392C22.3437 24.1392 22.0505 24.0693 21.8018 23.9268V23.3195C22.0786 23.5444 22.3842 23.6575 22.72 23.6575C23.1677 23.6575 23.3921 23.4928 23.3921 23.1646C23.3921 23.0267 23.3429 22.9123 23.2436 22.824C23.1441 22.7338 22.951 22.626 22.6637 22.4998C22.3679 22.3704 22.1572 22.2377 22.0328 22.0998C21.8836 21.9364 21.8083 21.7239 21.8083 21.4625C21.8083 21.1696 21.9255 20.9258 22.1572 20.7317C22.3895 20.5369 22.6879 20.4395 23.0544 20.4395C23.3352 20.4395 23.5865 20.4944 23.8097 20.6048V21.1735C23.5767 21.0055 23.3103 20.9219 23.008 20.9219C22.8208 20.9219 22.6703 20.9684 22.5583 21.0591C22.4451 21.1519 22.3882 21.2703 22.3882 21.4147C22.3882 21.571 22.4358 21.6926 22.5302 21.7795C22.614 21.8599 22.792 21.958 23.0603 22.0723C23.362 22.1985 23.58 22.3292 23.7128 22.4632C23.885 22.6325 23.972 22.8483 23.972 23.1104Z" fill="black"/>
<path d="M27.4276 22.2965C27.4276 21.8449 27.3255 21.4997 27.1207 21.2631C26.923 21.0356 26.6455 20.9219 26.2895 20.9219C25.938 20.9219 25.656 21.0369 25.4439 21.267C25.2214 21.5128 25.1108 21.8599 25.1108 22.3103C25.1108 22.7326 25.2168 23.0639 25.4288 23.3006C25.6442 23.5385 25.9308 23.6575 26.2895 23.6575C26.6619 23.6575 26.9459 23.5366 27.1409 23.296C27.332 23.0607 27.4276 22.728 27.4276 22.2965ZM28.0088 22.2767C28.0088 22.8388 27.8484 23.2905 27.531 23.6291C27.2142 23.969 26.7862 24.139 26.2482 24.139C25.7175 24.139 25.2953 23.969 24.9858 23.6291C24.6828 23.3016 24.5303 22.8689 24.5303 22.3309C24.5303 21.7171 24.7037 21.2439 25.0473 20.9079C25.3667 20.5961 25.7947 20.4392 26.3307 20.4392C26.8576 20.4392 27.2686 20.6033 27.5644 20.9282C27.8589 21.255 28.0088 21.7047 28.0088 22.2767Z" fill="black"/>
<path d="M30.5001 19.3269C30.3888 19.2655 30.2652 19.2341 30.1244 19.2341C29.7285 19.2341 29.5321 19.4831 29.5321 19.9819V20.5258H30.3601V21.0043H29.5321V24.0543H28.966V21.0043H28.3652V20.5258H28.966V19.9538C28.966 19.5655 29.0851 19.2609 29.3273 19.0413C29.5348 18.8504 29.7887 18.7556 30.0904 18.7556C30.2652 18.7556 30.4013 18.7765 30.5001 18.8171V19.3269Z" fill="black"/>
<path d="M32.7321 24.0188C32.5986 24.0953 32.4206 24.1332 32.2007 24.1332C31.5842 24.1332 31.276 23.7861 31.276 23.0919V21.0047H30.6699V20.5256H31.276V19.6647C31.4566 19.6078 31.6444 19.5457 31.8427 19.4817V20.5256H32.7321V21.0047H31.8427V22.9958C31.8427 23.2325 31.8815 23.4017 31.9625 23.4998C32.0443 23.6011 32.1778 23.6508 32.3663 23.6508C32.507 23.6508 32.6287 23.6132 32.7321 23.5371V24.0188Z" fill="black"/>
<path d="M2.16258 37.8255C2.16258 38.102 2.06378 38.3412 1.86415 38.5432C1.66519 38.7445 1.42366 38.8459 1.1403 38.8459C0.863434 38.8459 0.627826 38.7445 0.434783 38.5432C0.241689 38.3412 0.145508 38.102 0.145508 37.8255C0.145508 37.5412 0.241689 37.3012 0.434783 37.1025C0.627826 36.9031 0.863434 36.8044 1.1403 36.8044C1.42366 36.8044 1.66519 36.9045 1.86415 37.1064C2.06378 37.3085 2.16258 37.5483 2.16258 37.8255Z" fill="black"/>
<path d="M14.8239 38.6382H12.9796L6.28509 28.3122C6.12865 28.0638 5.99383 27.7938 5.87932 27.499H5.82429C5.87194 27.7755 5.89634 28.369 5.89634 29.2783V38.6382H4.37598V25.6831H6.34923L12.8435 35.8464C13.1021 36.2497 13.2787 36.5386 13.3684 36.7125H13.4045C13.3443 36.3399 13.3129 35.7045 13.3129 34.8077V25.6831H14.8241V38.6382H14.8239Z" fill="black"/>
<path d="M24.5708 38.6382H17.6963V25.6831H24.2724V27.0558H19.2153V31.3654H23.9013V32.7388H19.2153V37.2649H24.5708V38.6382Z" fill="black"/>
<path d="M34.9976 27.0559H31.2613V38.6384H29.7416V27.0559H25.998V25.6826H34.9976V27.0559Z" fill="black"/>
<path d="M14.3086 3.30687C15.7752 7.78645 16.3309 15.7776 20.6196 15.7776C20.9462 15.7776 21.2761 15.7457 21.6072 15.6828C17.7086 14.7749 17.2465 6.87064 14.8675 2.77734C14.681 2.94666 14.4958 3.12315 14.3086 3.30687Z" fill="url(#paint0_linear_1_5071)"/>
<path d="M14.8672 2.77727C17.2462 6.87056 17.7082 14.7748 21.6069 15.6827C21.9132 15.6265 22.2202 15.5415 22.5277 15.4343C19.0283 13.7217 18.061 6.0463 15.3593 2.35107C15.1957 2.48709 15.0315 2.62959 14.8672 2.77727Z" fill="url(#paint1_linear_1_5071)"/>
<path d="M18.2953 0.343018C17.9694 0.343018 17.6389 0.37491 17.3071 0.437828C16.4393 0.601241 15.5577 0.974463 14.6689 1.53924C14.9117 1.77848 15.1427 2.05234 15.36 2.3511C16.2639 1.60199 17.1618 1.04835 18.0565 0.715605C18.3922 0.591413 18.7267 0.497962 19.0624 0.43652C18.8202 0.375014 18.565 0.343018 18.2953 0.343018Z" fill="#14559A"/>
<path d="M25.2594 13.8555C25.6173 13.5712 25.976 13.2568 26.3353 12.9136C24.8451 8.45489 24.3117 0.349365 19.9928 0.349365C19.6839 0.349365 19.3724 0.378124 19.0615 0.435643C22.9955 1.41291 23.4995 9.96162 25.2594 13.8555Z" fill="url(#paint2_linear_1_5071)"/>
<path d="M19.062 0.435967C18.8198 0.374526 18.5646 0.342529 18.2949 0.342529L19.9933 0.348745C19.6844 0.348745 19.3728 0.377504 19.062 0.435708" fill="#3092C4"/>
<path d="M25.1838 14.8029C25.015 14.6421 24.8546 14.4656 24.6969 14.2773C23.9704 14.7911 23.2466 15.1807 22.5273 15.4343C22.7832 15.5592 23.0515 15.652 23.3363 15.7096C23.5568 15.7545 23.7852 15.7775 24.0254 15.7775C24.8324 15.7775 25.4705 15.6821 26.0137 15.4219C25.7146 15.2605 25.4404 15.0513 25.1838 14.8029Z" fill="#1969BC"/>
<path d="M18.0557 0.716248C21.5793 2.55698 21.8856 10.8926 24.6972 14.2773C24.8857 14.1446 25.0722 14.0041 25.2588 13.8557C23.4989 9.96177 22.9956 1.41237 19.0622 0.435791C18.7265 0.498541 18.3914 0.591422 18.0557 0.716248Z" fill="url(#paint3_linear_1_5071)"/>
<path d="M15.3594 2.35111C18.061 6.04634 19.0283 13.7218 22.5278 15.4344C23.247 15.1807 23.9709 14.7912 24.6973 14.2774C21.8857 10.8927 21.5795 2.55704 18.0558 0.716309C17.1611 1.04837 16.2632 1.602 15.3594 2.35111Z" fill="url(#paint4_linear_1_5071)"/>
<path d="M12.5792 3.19873C12.1557 4.15509 11.7231 5.41206 11.2002 7.05278C12.2401 5.58919 13.2768 4.32828 14.3076 3.30662C14.1656 2.8706 14.0131 2.4686 13.8488 2.11035C13.4274 2.43263 13.0026 2.79544 12.5792 3.19873Z" fill="url(#paint5_linear_1_5071)"/>
<path d="M14.2246 1.83472C14.1002 1.92361 13.9753 2.0145 13.8496 2.11056C14.0139 2.46878 14.1657 2.87081 14.3077 3.30678C14.4949 3.12375 14.6807 2.94663 14.8666 2.77731C14.667 2.43477 14.455 2.1184 14.2246 1.83472Z" fill="#2B74B1"/>
<path d="M14.6683 1.53906C14.5204 1.63257 14.3732 1.73123 14.2246 1.83451C14.455 2.11821 14.667 2.43458 14.8673 2.77779C15.0316 2.62939 15.1958 2.48625 15.3595 2.35092C15.1422 2.05222 14.9112 1.7783 14.6683 1.53906Z" fill="#125A9E"/>
<path d="M38.7026 0.00179988C36.7097 7.67784 32.5473 13.8433 29.0576 15.3977H29.051C28.9875 15.4265 28.9247 15.4526 28.8625 15.4781C28.854 15.4833 28.8462 15.4839 28.8396 15.487C28.8213 15.4944 28.8043 15.5001 28.7859 15.5074C28.7774 15.5126 28.7696 15.5143 28.7617 15.5174C28.7323 15.5279 28.7035 15.5367 28.6747 15.5482C28.6623 15.5534 28.6505 15.5566 28.6387 15.5608C28.6256 15.566 28.6105 15.5708 28.5955 15.5749C28.5824 15.5801 28.5687 15.5839 28.5536 15.5896C28.5411 15.5947 28.528 15.5969 28.5163 15.6021C28.4908 15.6095 28.4673 15.6157 28.4417 15.6246C28.4312 15.6246 28.4214 15.6303 28.4103 15.633C28.3946 15.6382 28.3769 15.6419 28.3599 15.6466C28.3481 15.6518 28.3383 15.6535 28.3258 15.6561C28.3081 15.6612 28.2885 15.666 28.2709 15.6702C28.2473 15.6754 28.2264 15.6802 28.2041 15.6848C28.3618 15.743 28.5261 15.7724 28.7035 15.7724C32.0125 15.7724 35.3489 9.84953 40.8694 0H38.7018L38.7026 0.00179988Z" fill="url(#paint6_linear_1_5071)"/>
<path d="M10.4821 0.654384C10.4842 0.654384 10.4868 0.649204 10.4881 0.649204C10.4907 0.649204 10.4947 0.649204 10.496 0.644025H10.5002C10.5185 0.637809 10.5355 0.630428 10.5538 0.62363C10.5585 0.62363 10.561 0.62363 10.5643 0.618451C10.569 0.618451 10.5735 0.613271 10.5781 0.612624C10.5977 0.606408 10.6174 0.599028 10.6357 0.59223H10.6388C10.6827 0.579164 10.7232 0.562953 10.7658 0.54779C10.7717 0.54779 10.7776 0.54261 10.7847 0.54261C10.8024 0.536913 10.8208 0.530568 10.8391 0.526398C10.8476 0.521219 10.8561 0.521219 10.8639 0.518499C10.8829 0.512802 10.9013 0.506457 10.9189 0.502288C10.9268 0.502288 10.934 0.497108 10.9398 0.49659C11.0007 0.47986 11.0609 0.464167 11.1218 0.449522C11.1303 0.449522 11.1375 0.444342 11.1466 0.443824C11.1643 0.438645 11.1807 0.435925 11.1997 0.433336C11.2076 0.428156 11.2167 0.428156 11.2258 0.425437C11.2435 0.420257 11.2605 0.419739 11.2795 0.415466H11.292C11.3286 0.408085 11.3659 0.40187 11.4026 0.395072H11.4248C11.4425 0.389893 11.4582 0.389375 11.4759 0.386137C11.4856 0.386137 11.4955 0.380958 11.5047 0.380958C11.521 0.380958 11.5374 0.375778 11.5537 0.373577C11.5623 0.373577 11.5707 0.373577 11.5806 0.368398C11.6192 0.363218 11.6591 0.361146 11.6997 0.357909C11.5852 0.346903 11.4674 0.3396 11.3476 0.3396C7.62104 0.3396 2.48672 7.24562 0.173828 16.1891H0.619522C1.35973 14.8707 2.02467 13.6235 2.63267 12.4528C4.25248 6.11805 7.55166 1.79791 10.4824 0.653361" fill="url(#paint7_linear_1_5071)"/>
<path d="M12.5791 3.19894C13.0026 2.79565 13.4273 2.43284 13.8488 2.11061C13.7526 1.90013 13.6531 1.70533 13.5464 1.52686C13.2054 1.93997 12.8939 2.48514 12.5791 3.19894Z" fill="#0D82CA"/>
<path d="M12.886 0.70678C13.1295 0.910722 13.3474 1.19117 13.547 1.52716C13.6098 1.45002 13.6733 1.37875 13.7394 1.31208C13.4626 1.0539 13.1635 0.842107 12.8389 0.682617C12.852 0.689868 12.865 0.695695 12.8787 0.701445C12.8787 0.701445 12.8838 0.706624 12.886 0.706624" fill="#0D82CA"/>
<path d="M2.63281 12.4535C6.03082 5.9135 7.64081 1.77444 10.4825 0.654053C7.55246 1.79933 4.25262 6.11942 2.63281 12.4535Z" fill="url(#paint8_linear_1_5071)"/>
<path d="M13.7393 1.31201C13.6732 1.37937 13.6104 1.44997 13.5469 1.5271C13.6536 1.70552 13.753 1.89969 13.8499 2.11081C13.9756 2.01474 14.1006 1.92385 14.2249 1.83496C14.0711 1.64539 13.9088 1.46957 13.7393 1.31201Z" fill="#127BCA"/>
<path d="M4.17463 16.1605C4.15369 16.1657 4.13274 16.1657 4.11311 16.1679H4.10133C4.08363 16.1679 4.0653 16.173 4.04897 16.173H4.04044C3.99792 16.1782 3.95601 16.1782 3.91543 16.1815H3.90234C7.34158 16.0853 8.91361 14.3655 9.69374 11.8711C10.2867 9.98005 10.7736 8.38703 11.2003 7.05029C9.75985 9.07537 8.31281 11.4894 6.85793 14.1936C6.15634 15.497 5.08955 16.0415 4.1746 16.1579" fill="url(#paint9_linear_1_5071)"/>
<path d="M4.1748 16.1592C5.08975 16.0428 6.15654 15.4989 6.85813 14.1949C8.31301 11.4913 9.7607 9.07664 11.1999 7.05156C11.7235 5.41017 12.1554 4.15387 12.5795 3.19751C9.71097 5.92463 6.8313 10.4592 4.1748 16.1579" fill="url(#paint10_linear_1_5071)"/>
<path d="M2.63229 12.4536C2.02431 13.6244 1.35937 14.8716 0.619141 16.19H1.91567C2.08714 14.8807 2.33061 13.6322 2.63229 12.4542" fill="#05A1E6"/>
<path d="M11.5802 0.371703C11.5697 0.371703 11.5619 0.376882 11.5527 0.376882C11.537 0.382062 11.5206 0.382062 11.5043 0.383745C11.4946 0.383745 11.4853 0.383745 11.4755 0.388925C11.4578 0.394104 11.4415 0.394622 11.4244 0.397859C11.4165 0.397859 11.4087 0.397859 11.4022 0.403039C11.3649 0.409254 11.3282 0.416117 11.2916 0.422384H11.2791C11.2602 0.427564 11.2431 0.430283 11.2255 0.432873C11.2163 0.438052 11.2071 0.438052 11.1986 0.440124C11.181 0.445303 11.1633 0.447505 11.1463 0.450612C11.1371 0.455792 11.1299 0.455792 11.1214 0.45631C11.0605 0.470955 11.0003 0.486649 10.9394 0.503379C10.933 0.503379 10.9264 0.508558 10.9185 0.509594C10.9002 0.514774 10.8825 0.520082 10.8635 0.525806C10.8556 0.530985 10.8465 0.530985 10.8387 0.533057C10.8203 0.538237 10.802 0.543546 10.7843 0.549269C10.7772 0.549269 10.7713 0.554448 10.7647 0.554448C10.7228 0.570129 10.6816 0.585823 10.6384 0.598901C10.6201 0.604599 10.6004 0.611967 10.5808 0.618765C10.5729 0.623944 10.5657 0.62511 10.5566 0.628735C10.5383 0.634433 10.52 0.641814 10.5029 0.648612C10.4965 0.653791 10.4899 0.654309 10.4853 0.657028C7.64359 1.77742 6.0336 5.91647 2.63559 12.4565C2.33388 13.6344 2.08976 14.8829 1.91895 16.1922H2.10089C2.61334 16.1922 2.75797 16.187 3.34765 16.187H3.37776H3.46546H3.49556H3.50409H3.5342H3.55121H3.563H3.58656H3.65986H3.73316H3.79468H3.81102H3.919C3.95958 16.1818 4.00147 16.1818 4.04401 16.1786H4.05186C4.06956 16.1786 4.08721 16.1734 4.10422 16.1734H4.11663C4.13558 16.1734 4.15721 16.1682 4.17815 16.166C6.83464 10.4673 9.7143 5.93279 12.5828 3.20567C12.8983 2.49187 13.2092 1.9467 13.5495 1.53425C13.3505 1.19827 13.1326 0.917195 12.8891 0.7132C12.8891 0.7132 12.8825 0.7132 12.882 0.708021C12.8682 0.702323 12.8552 0.69546 12.8414 0.688675C12.8277 0.681294 12.8159 0.675597 12.8015 0.668281C12.7891 0.663101 12.7747 0.656239 12.7623 0.649453C12.7453 0.644274 12.7315 0.636893 12.7165 0.630095C12.704 0.624916 12.6929 0.619607 12.6804 0.614414C12.6549 0.604444 12.6294 0.59402 12.6052 0.583039C12.594 0.57786 12.5836 0.575141 12.5731 0.570997C12.5554 0.564652 12.5351 0.556352 12.5168 0.548505C12.5076 0.543325 12.4972 0.54229 12.4867 0.538534C12.4599 0.5296 12.4337 0.520238 12.4088 0.51186H12.4023C12.3722 0.501889 12.3428 0.494612 12.312 0.486234C12.3049 0.481055 12.2989 0.481055 12.2917 0.480019C12.2649 0.472638 12.2413 0.465374 12.2158 0.458576C12.2093 0.458576 12.2034 0.453396 12.1982 0.453396C12.1367 0.437185 12.0732 0.424119 12.009 0.41209C12.0024 0.41209 11.9959 0.40691 11.9894 0.40691C11.9619 0.401731 11.9351 0.39694 11.9076 0.393832C11.901 0.388653 11.8971 0.388653 11.8913 0.388653C11.8585 0.383473 11.8265 0.379718 11.7944 0.376092H11.7774C11.7512 0.370913 11.727 0.370395 11.7028 0.367676C11.6615 0.372855 11.6223 0.375057 11.5836 0.378682" fill="url(#paint11_linear_1_5071)"/>
<path d="M30.9184 4.25137C30.2646 6.34313 29.7351 8.06882 29.2744 9.4886C31.0683 7.02295 32.8354 3.92124 34.518 0.341797C32.5553 0.957497 31.5081 2.36686 30.9184 4.25137Z" fill="url(#paint12_linear_1_5071)"/>
<path d="M29.3312 15.2669C29.2396 15.3134 29.1479 15.3577 29.0576 15.3976C32.5472 13.8432 36.7097 7.67775 38.7026 0.00170898H38.2987C33.7201 8.17062 32.2475 13.6392 29.3312 15.2669Z" fill="url(#paint13_linear_1_5071)"/>
<path d="M27.0535 14.5806C27.8127 13.655 28.4311 12.0817 29.2755 9.48853C28.3016 10.8246 27.3212 11.9732 26.3401 12.9098C26.3401 12.915 26.3401 12.915 26.335 12.9183C26.549 13.5589 26.7839 14.1243 27.0516 14.5805" fill="#079AE1"/>
<path d="M27.053 14.5806C26.7944 14.8956 26.5209 15.1356 26.2166 15.3134C26.1498 15.3521 26.0824 15.3885 26.0137 15.4219C26.3351 15.5951 26.6858 15.7108 27.0785 15.7572C27.136 15.7629 27.193 15.7682 27.2526 15.7723H27.2631C27.2898 15.7723 27.3181 15.7723 27.3468 15.7775H27.3584H27.4441H27.5365H27.5653H27.6307C27.6412 15.7775 27.6522 15.7775 27.6626 15.7723C27.6831 15.7723 27.7045 15.7723 27.7255 15.7672H27.7329H27.7564C27.7779 15.7672 27.8014 15.762 27.8245 15.7598H27.8297C27.8365 15.7598 27.8438 15.7546 27.8506 15.7546C27.8747 15.7494 27.8998 15.7472 27.9233 15.7436H27.9447C27.9714 15.7384 27.999 15.7352 28.0265 15.73H28.0317H28.0396C28.0946 15.7195 28.1483 15.7091 28.2026 15.6955C27.7523 15.5308 27.3753 15.1425 27.0507 14.5895" fill="#1969BC"/>
<path d="M20.6191 15.7778C20.9457 15.7778 21.2756 15.7459 21.6068 15.6823C21.9131 15.6268 22.22 15.5418 22.5276 15.4346C22.7835 15.5594 23.0518 15.6523 23.3359 15.7098C23.5564 15.7548 23.7855 15.7778 24.0257 15.7778H20.6191Z" fill="#1E5CB3"/>
<path d="M24.0257 15.7777C24.832 15.7777 25.4708 15.6823 26.0134 15.4221C26.3347 15.5953 26.6855 15.711 27.0782 15.7575C27.1358 15.7632 27.1928 15.7685 27.2523 15.7726H27.2628C27.2895 15.7726 27.3178 15.7726 27.3466 15.7778H27.3586H27.4444H24.0234L24.0257 15.7777Z" fill="#1E5CB3"/>
<path d="M27.4463 15.7777H27.5392H27.568H27.6328C27.6439 15.7777 27.6543 15.7777 27.6648 15.7725C27.6852 15.7725 27.7067 15.7725 27.7283 15.7674H27.7352H27.7593C27.7807 15.7674 27.8043 15.7622 27.8267 15.7601H27.8324C27.8393 15.7601 27.846 15.7549 27.8528 15.7549C27.8769 15.7498 27.902 15.7477 27.9254 15.7439C27.9333 15.7439 27.9396 15.7439 27.9479 15.7387C27.9746 15.7336 28.0023 15.7309 28.0298 15.7257H28.035H28.0429C28.0979 15.7152 28.1515 15.7048 28.2058 15.6912C28.3635 15.7493 28.5278 15.7788 28.7051 15.7788L27.4473 15.7839L27.4463 15.7777Z" fill="#1D60B5"/>
<path d="M26.3364 12.9183V12.9131C25.9771 13.2562 25.6184 13.5707 25.2604 13.855C25.0732 14.0034 24.8867 14.1439 24.6982 14.2767C24.8559 14.4649 25.0163 14.6414 25.1852 14.8022C25.4417 15.0505 25.7159 15.2598 26.015 15.4212C26.0831 15.3877 26.1512 15.3512 26.2172 15.3127C26.5222 15.1349 26.7958 14.895 27.0543 14.58C26.7866 14.1237 26.5517 13.5582 26.3377 12.9176" fill="#175FAB"/>
<path d="M37.0197 0.00170898H35.322H35.1531H34.9934H34.9872C34.8773 0.00688848 34.7706 0.0106436 34.6652 0.0174029C34.6155 0.123984 34.5644 0.230552 34.5153 0.337755C32.8327 3.9172 31.0656 7.01891 29.2717 9.48455C28.4281 12.0776 27.809 13.6511 27.0498 14.5767C27.3744 15.1297 27.7521 15.5186 28.201 15.6833C28.2141 15.6781 28.2246 15.6781 28.2364 15.6754H28.2436C28.2515 15.6754 28.26 15.6702 28.2685 15.6702C28.2868 15.665 28.3065 15.6618 28.3248 15.6561C28.3366 15.6509 28.3464 15.6504 28.3582 15.6467C28.3752 15.6415 28.3928 15.6377 28.4086 15.6336C28.4191 15.6284 28.4295 15.6267 28.44 15.6246C28.4661 15.6162 28.4897 15.61 28.5146 15.6021C28.5264 15.597 28.5388 15.5927 28.5519 15.5896C28.5663 15.5844 28.5807 15.5807 28.5938 15.5744C28.6089 15.5692 28.6239 15.5665 28.637 15.5608C28.6488 15.5557 28.6612 15.5524 28.6723 15.5478C28.7017 15.5373 28.7306 15.5284 28.76 15.5169C28.7679 15.5169 28.7757 15.5096 28.7843 15.508C28.8019 15.5006 28.8202 15.4949 28.8379 15.487C28.8444 15.4819 28.8523 15.4813 28.8608 15.4786C28.9223 15.453 28.9858 15.4268 29.0493 15.3982H29.0559C29.1462 15.3585 29.2379 15.3139 29.3288 15.2675C32.2458 13.6399 33.7184 8.17125 38.297 0.00234347H37.0182L37.0197 0.00170898Z" fill="url(#paint14_linear_1_5071)"/>
<path d="M11.6992 0.360794C11.7065 0.360794 11.713 0.360794 11.7202 0.365974C11.7378 0.365974 11.7555 0.365974 11.7732 0.371671H11.7909C11.8229 0.376851 11.855 0.37957 11.8877 0.384231C11.8937 0.384231 11.8989 0.384231 11.9041 0.389411C11.9309 0.39459 11.9584 0.398864 11.9859 0.403007C11.9918 0.403007 11.9996 0.408187 12.0062 0.408187C12.069 0.420747 12.1332 0.433812 12.1947 0.450024C12.2005 0.450024 12.2065 0.455204 12.2117 0.455204C12.2379 0.461419 12.2614 0.469318 12.2876 0.476634C12.2955 0.476634 12.3013 0.481813 12.3086 0.482979C12.3393 0.490877 12.3681 0.498672 12.3982 0.508604C12.3995 0.508604 12.4013 0.508604 12.4048 0.513784C12.4303 0.521553 12.4565 0.531562 12.4834 0.540445C12.4939 0.545625 12.5036 0.547826 12.5135 0.550416C12.5318 0.558314 12.5521 0.566097 12.5697 0.573426C12.5803 0.573426 12.5907 0.580677 12.6018 0.584432C12.626 0.595438 12.6515 0.605344 12.6764 0.615807C12.6895 0.620986 12.7006 0.626813 12.713 0.631488C12.7275 0.638869 12.7425 0.645615 12.7582 0.650846C12.7713 0.657062 12.7857 0.663911 12.7981 0.669661C12.8119 0.677041 12.8249 0.682739 12.838 0.690055C13.1626 0.849557 13.4617 1.06202 13.7386 1.31957C13.8407 1.21237 13.9474 1.11625 14.058 1.02997C13.4526 0.601162 12.7667 0.356689 11.9754 0.356689C11.8838 0.356689 11.7922 0.361869 11.6993 0.368732" fill="#7DCBEC"/>
<path d="M13.7393 1.31182C13.9088 1.46932 14.0711 1.64519 14.2249 1.83476C14.3734 1.73148 14.5207 1.63212 14.6686 1.5393C14.4749 1.34581 14.2707 1.17193 14.058 1.02222C13.9474 1.10787 13.8414 1.20461 13.7393 1.31182Z" fill="#5EC5ED"/>
<path d="M11.6998 0.360701C11.7927 0.352857 11.8843 0.349589 11.9759 0.349589C12.7672 0.349589 13.4531 0.594062 14.0585 1.02222C14.6972 0.51889 15.4695 0.343052 16.5422 0.343052H11.3477C11.4674 0.343052 11.5846 0.350242 11.6998 0.360701Z" fill="url(#paint15_linear_1_5071)"/>
<path d="M16.5423 0.342844C15.4696 0.342844 14.6974 0.518681 14.0586 1.02201C14.2706 1.1717 14.4748 1.34558 14.6686 1.53906C15.558 0.97429 16.4389 0.60039 17.3074 0.436972C17.6385 0.374874 17.9691 0.342844 18.295 0.342844H16.5423Z" fill="url(#paint16_linear_1_5071)"/>
<path d="M29.2745 9.48994C29.7359 8.06886 30.264 6.34385 30.9192 4.25141C31.5095 2.36623 32.5547 0.956915 34.5174 0.341836C34.5693 0.236563 34.6182 0.128053 34.6687 0.0214844C31.4689 0.213035 29.9735 1.83869 29.2208 4.24619C27.9047 8.44929 27.1075 11.1738 26.3398 12.91C27.3202 11.9739 28.3006 10.8247 29.2745 9.48994Z" fill="url(#paint17_linear_1_5071)"/>
<path d="M33.9691 14.6579H33.6065V15.7835H33.4586V14.6579H33.0947V14.5239H33.9691V14.6579Z" fill="black"/>
<path d="M35.4538 15.7833H35.3065V14.9374C35.3065 14.8707 35.3117 14.7891 35.3186 14.6929C35.3034 14.7505 35.2908 14.7904 35.2793 14.8158L34.85 15.7833H34.778L34.3474 14.8231C34.3348 14.7964 34.3222 14.7531 34.3086 14.6929H34.3034C34.3086 14.7437 34.3103 14.8257 34.3103 14.9394V15.7833H34.1689V14.5237H34.364L34.7507 15.4028C34.7801 15.4689 34.7984 15.5199 34.8077 15.5539H34.8134C34.8391 15.4846 34.86 15.4329 34.8743 15.3989L35.2689 14.5237H35.4548V15.7833H35.4538Z" fill="black"/>
</g>
<defs>
<linearGradient id="paint0_linear_1_5071" x1="17.9577" y1="0.240206" x2="17.9577" y2="19.629" gradientUnits="userSpaceOnUse">
<stop stop-color="#0994DC"/>
<stop offset="0.350006" stop-color="#66CEF5"/>
<stop offset="0.846161" stop-color="#127BCA"/>
<stop offset="1" stop-color="#127BCA"/>
</linearGradient>
<linearGradient id="paint1_linear_1_5071" x1="18.6975" y1="-0.250756" x2="18.6975" y2="19.6321" gradientUnits="userSpaceOnUse">
<stop stop-color="#0E76BC"/>
<stop offset="0.360001" stop-color="#36AEE8"/>
<stop offset="0.846161" stop-color="#00ADEF"/>
<stop offset="1" stop-color="#00ADEF"/>
</linearGradient>
<linearGradient id="paint2_linear_1_5071" x1="22.6984" y1="15.3306" x2="22.6984" y2="-0.489901" gradientUnits="userSpaceOnUse">
<stop stop-color="#1C63B7"/>
<stop offset="0.5" stop-color="#33BDF2"/>
<stop offset="1" stop-color="#33BDF2" stop-opacity="0.419608"/>
</linearGradient>
<linearGradient id="paint3_linear_1_5071" x1="21.6573" y1="-2.26538" x2="21.6573" y2="18.3782" gradientUnits="userSpaceOnUse">
<stop stop-color="#166AB8"/>
<stop offset="0.399994" stop-color="#36AEE8"/>
<stop offset="0.846161" stop-color="#0798DD"/>
<stop offset="1" stop-color="#0798DD"/>
</linearGradient>
<linearGradient id="paint4_linear_1_5071" x1="20.0282" y1="-2.15682" x2="20.0282" y2="19.7949" gradientUnits="userSpaceOnUse">
<stop stop-color="#124379"/>
<stop offset="0.389999" stop-color="#1487CB"/>
<stop offset="0.780228" stop-color="#165197"/>
<stop offset="1" stop-color="#165197"/>
</linearGradient>
<linearGradient id="paint5_linear_1_5071" x1="11.2002" y1="4.58159" x2="14.3076" y2="4.58159" gradientUnits="userSpaceOnUse">
<stop stop-color="#33BDF2" stop-opacity="0.698039"/>
<stop offset="1" stop-color="#1DACD8"/>
</linearGradient>
<linearGradient id="paint6_linear_1_5071" x1="34.5379" y1="14.9343" x2="34.5379" y2="-0.477049" gradientUnits="userSpaceOnUse">
<stop stop-color="#136AB4"/>
<stop offset="0.6" stop-color="#59CAF5" stop-opacity="0.54902"/>
<stop offset="1" stop-color="#59CAF5" stop-opacity="0.235294"/>
</linearGradient>
<linearGradient id="paint7_linear_1_5071" x1="0.17374" y1="8.26433" x2="11.6996" y2="8.26433" gradientUnits="userSpaceOnUse">
<stop stop-color="#05A1E6" stop-opacity="0.247059"/>
<stop offset="1" stop-color="#05A1E6"/>
</linearGradient>
<linearGradient id="paint8_linear_1_5071" x1="6.55754" y1="15.3224" x2="6.55754" y2="-0.457618" gradientUnits="userSpaceOnUse">
<stop stop-color="#318ED5"/>
<stop offset="1" stop-color="#38A7E4"/>
</linearGradient>
<linearGradient id="paint9_linear_1_5071" x1="7.55124" y1="15.3779" x2="7.55124" y2="0.0388868" gradientUnits="userSpaceOnUse">
<stop stop-color="#05A1E6"/>
<stop offset="1" stop-color="#05A1E6" stop-opacity="0.54902"/>
</linearGradient>
<linearGradient id="paint10_linear_1_5071" x1="8.37716" y1="16.1606" x2="8.37716" y2="3.19883" gradientUnits="userSpaceOnUse">
<stop stop-color="#1959A6"/>
<stop offset="0.5" stop-color="#05A1E6"/>
<stop offset="0.917587" stop-color="#7EC5EA"/>
<stop offset="1" stop-color="#7EC5EA"/>
</linearGradient>
<linearGradient id="paint11_linear_1_5071" x1="8.8745" y1="15.3326" x2="4.48514" y2="1.90204" gradientUnits="userSpaceOnUse">
<stop stop-color="#165096"/>
<stop offset="1" stop-color="#0D82CA"/>
</linearGradient>
<linearGradient id="paint12_linear_1_5071" x1="31.896" y1="7.38466" x2="31.896" y2="0.0400497" gradientUnits="userSpaceOnUse">
<stop stop-color="#05A1E6"/>
<stop offset="0.873627" stop-color="#0495D6"/>
<stop offset="1" stop-color="#0495D6"/>
</linearGradient>
<linearGradient id="paint13_linear_1_5071" x1="35.3522" y1="-0.638982" x2="28.5126" y2="14.5655" gradientUnits="userSpaceOnUse">
<stop stop-color="#38A7E4" stop-opacity="0.329412"/>
<stop offset="0.961533" stop-color="#0E88D3"/>
<stop offset="1" stop-color="#0E88D3"/>
</linearGradient>
<linearGradient id="paint14_linear_1_5071" x1="32.6753" y1="-0.0446734" x2="32.6753" y2="15.9784" gradientUnits="userSpaceOnUse">
<stop stop-color="#168CD4"/>
<stop offset="0.5" stop-color="#1C87CC"/>
<stop offset="1" stop-color="#154B8D"/>
</linearGradient>
<linearGradient id="paint15_linear_1_5071" x1="12.2138" y1="-0.373908" x2="12.2831" y2="1.30656" gradientUnits="userSpaceOnUse">
<stop stop-color="#97D6EE"/>
<stop offset="0.703293" stop-color="#55C1EA"/>
<stop offset="1" stop-color="#55C1EA"/>
</linearGradient>
<linearGradient id="paint16_linear_1_5071" x1="14.3505" y1="1.4637" x2="14.664" y2="-0.316508" gradientUnits="userSpaceOnUse">
<stop stop-color="#7ACCEC"/>
<stop offset="1" stop-color="#3FB7ED"/>
</linearGradient>
<linearGradient id="paint17_linear_1_5071" x1="30.504" y1="0.841554" x2="30.504" y2="16.5137" gradientUnits="userSpaceOnUse">
<stop stop-color="#1DA7E7"/>
<stop offset="1" stop-color="#37ABE7" stop-opacity="0"/>
</linearGradient>
<clipPath id="clip0_1_5071">
<rect width="41" height="39" fill="white"/>
</clipPath>
</defs>
</svg>
