<svg width="50" height="25" viewBox="0 0 50 25" fill="none" xmlns="http://www.w3.org/2000/svg">
<g clip-path="url(#clip0_1_5127)">
<path d="M25.0001 25C38.6299 25 49.679 19.4036 49.679 12.5C49.679 5.59644 38.6299 0 25.0001 0C11.3704 0 0.321289 5.59644 0.321289 12.5C0.321289 19.4036 11.3704 25 25.0001 25Z" fill="#6181B6"/>
<path d="M14.8625 8.51186C15.9659 8.51186 16.6949 8.70889 17.0693 9.12267C17.4437 9.53645 17.5225 10.2261 17.3255 11.2113C17.1284 12.2358 16.7344 12.9846 16.1629 13.4181C15.5915 13.8515 14.7246 14.0683 13.5621 14.0683H11.8084L12.8921 8.51186H14.8625ZM7.80859 19.7035H10.705L11.3947 16.1766H13.8773C14.9807 16.1766 15.8674 16.0584 16.5767 15.8219C17.2861 15.5855 17.9166 15.2111 18.5077 14.6594C19.0003 14.2062 19.3943 13.7136 19.6899 13.1816C19.9855 12.6496 20.2022 12.0585 20.3204 11.4083C20.6357 9.832 20.3992 8.61037 19.6308 7.72371C18.8623 6.83705 17.6407 6.40356 15.9659 6.40356H10.3898L7.80859 19.7035Z" fill="white"/>
<path d="M22.4484 2.87671H25.3251L24.6355 6.40366H27.1969C28.8126 6.40366 29.9161 6.67951 30.5269 7.25092C31.1377 7.82233 31.315 8.72869 31.0786 9.98973L29.8766 16.1767H26.9605L28.1033 10.2853C28.2412 9.61536 28.1821 9.16218 27.9654 8.92573C27.7487 8.68929 27.2561 8.55136 26.527 8.55136H24.2217L22.7439 16.1767H19.8672L22.4484 2.87671Z" fill="white"/>
<path d="M37.4631 8.51186C38.5665 8.51186 39.2955 8.70889 39.6699 9.12267C40.0443 9.53645 40.1231 10.2261 39.926 11.2113C39.729 12.2358 39.3349 12.9846 38.7635 13.4181C38.1921 13.8515 37.3252 14.0683 36.1626 14.0683H34.409L35.4927 8.51186H37.4631ZM30.4092 19.7035H33.3056L33.9952 16.1766H36.4779C37.5813 16.1766 38.468 16.0584 39.1773 15.8219C39.8866 15.5855 40.5172 15.2111 41.1083 14.6594C41.6009 14.2062 41.9949 13.7136 42.2905 13.1816C42.586 12.6496 42.8028 12.0585 42.921 11.4083C43.2363 9.832 42.9998 8.61037 42.2314 7.72371C41.4629 6.83705 40.2413 6.40356 38.5665 6.40356H32.9904L30.4092 19.7035Z" fill="white"/>
</g>
<defs>
<clipPath id="clip0_1_5127">
<rect width="50" height="25" fill="white"/>
</clipPath>
</defs>
</svg>
