<svg width="40" height="37" viewBox="0 0 40 37" fill="none" xmlns="http://www.w3.org/2000/svg">
<g clip-path="url(#clip0_1_5134)">
<path d="M32.8889 12.0816C32.4444 11.9306 32.0741 11.7796 31.6296 11.7041C31.7037 11.402 31.7778 11.1 31.8519 10.798C32.8148 5.9653 32.2222 2.11428 30 0.830608C27.8519 -0.377555 24.4444 0.906118 21.037 3.92653C20.6667 4.22857 20.3704 4.53061 20 4.83265C19.7778 4.60612 19.5556 4.37959 19.3333 4.22857C15.7037 0.981628 12.0741 -0.453066 9.92593 0.830608C7.85185 2.11428 7.25926 5.73877 8.14815 10.3449C8.22222 10.798 8.2963 11.251 8.44444 11.7041C7.92593 11.8551 7.40741 12.0061 6.96296 12.1571C2.74074 13.6673 0 16.0082 0 18.5C0 20.9918 2.88889 23.5592 7.33333 25.0694C7.7037 25.2204 8.07407 25.2959 8.44444 25.4469C8.2963 25.9755 8.22222 26.4286 8.14815 26.8816C7.33333 31.3367 8 34.9612 10.0741 36.1694C12.2222 37.4531 15.8519 36.1694 19.3333 32.998C19.6296 32.7714 19.9259 32.4694 20.1481 32.2429C20.5185 32.6204 20.8889 32.9224 21.2593 33.2245C24.6667 36.1694 28 37.3775 30.0741 36.1694C32.2222 34.8857 32.8889 31.0347 32 26.4286C31.9259 26.051 31.8519 25.6735 31.7778 25.3714C32 25.2959 32.2963 25.2204 32.5185 25.1449C37.037 23.5592 40 20.9918 40 18.5C40 16.0082 37.1852 13.6673 32.8889 12.0816ZM22.1481 5.2102C25.1111 2.56734 27.8519 1.58571 29.1111 2.2653C30.4444 3.0204 30.963 6.19183 30.1481 10.4204C30.0741 10.7224 30 10.949 30 11.251C28.3704 10.8735 26.5185 10.5714 24.6667 10.4204C23.5556 8.83469 22.4444 7.4 21.2593 6.11632C21.5556 5.81428 21.8519 5.51224 22.1481 5.2102ZM12.7407 18.5C13.2593 17.3673 13.8519 16.3102 14.4444 15.1775C15.037 14.1204 15.7037 13.0633 16.3704 12.0061C17.5556 11.9306 18.8148 11.8551 20 11.8551C21.2593 11.8551 22.4444 11.9306 23.6296 12.0061C24.2963 12.9878 24.963 14.0449 25.5556 15.1775C26.1481 16.3102 26.7407 17.3673 27.2593 18.4245C26.7407 19.4816 26.1481 20.6143 25.5556 21.7469C24.963 22.8796 24.2963 23.9367 23.6296 24.9184C22.4444 24.9939 21.1852 25.0694 20 25.0694C18.7407 25.0694 17.5556 24.9939 16.3704 24.9184C15.7037 23.9367 15.037 22.8796 14.4444 21.7469C13.7778 20.6898 13.2593 19.6326 12.7407 18.5ZM11.7778 20.5388C12.1481 21.2184 12.5185 21.9735 12.8889 22.6531C13.2593 23.3326 13.7037 24.0877 14.1481 24.7673C12.8148 24.6163 11.6296 24.3898 10.4444 24.1633C10.8889 22.9551 11.3333 21.7469 11.7778 20.5388ZM11.7778 16.4612C11.2593 15.2531 10.8889 14.0449 10.5185 12.9122C11.6296 12.6857 12.8889 12.4592 14.1481 12.3082C13.7037 12.9878 13.3333 13.6673 12.8889 14.3469C12.5185 15.0265 12.1481 15.7816 11.7778 16.4612ZM27.037 22.6531C27.4815 21.898 27.8519 21.2184 28.2222 20.4633C28.7407 21.6714 29.1852 22.8796 29.5556 24.0878C28.3704 24.3898 27.1111 24.5408 25.8519 24.7673C26.2222 24.0877 26.6667 23.3326 27.037 22.6531ZM28.2222 16.4612C27.8519 15.7816 27.4815 15.0265 27.037 14.3469C26.6667 13.6673 26.2222 12.9878 25.8519 12.3082C27.1111 12.4592 28.3704 12.6857 29.4815 12.9878C29.1111 14.0449 28.7407 15.2531 28.2222 16.4612ZM20 7.32449C20.8148 8.23061 21.5556 9.13673 22.3704 10.1939C21.5556 10.1939 20.8148 10.1184 20 10.1184C19.1852 10.1184 18.4444 10.1184 17.6296 10.1939C18.4444 9.21224 19.1852 8.23061 20 7.32449ZM10.8148 2.41632C12.1481 1.66122 15.1111 2.71836 18.2222 5.58775C18.4444 5.73877 18.5926 5.9653 18.8148 6.11632C17.6296 7.4 16.5185 8.83469 15.4074 10.4204C13.5556 10.5714 11.7037 10.8735 10.0741 11.251C10 10.798 9.85185 10.4204 9.77778 9.96734C9.03704 6.11632 9.55556 3.09591 10.8148 2.41632ZM8.88889 23.7102C8.51852 23.6347 8.22222 23.4837 7.92593 23.4082C6 22.7286 4.37037 21.8224 3.25926 20.9163C2.2963 20.0857 1.77778 19.1796 1.77778 18.5C1.77778 16.9898 3.92593 15.102 7.55556 13.8184C8 13.6673 8.44444 13.5163 8.96296 13.3653C9.48148 15.0265 10.1481 16.7633 10.8889 18.5C10 20.3122 9.33333 22.049 8.88889 23.7102ZM18.1481 31.6388C16.5926 32.998 15.037 33.9796 13.7037 34.5082C12.4444 34.9612 11.4815 34.9612 10.8889 34.5837C9.62963 33.8286 9.11111 30.9592 9.85185 27.1082C9.92593 26.6551 10 26.202 10.1481 25.749C11.7778 26.1265 13.6296 26.3531 15.5556 26.5796C16.6667 28.1653 17.8519 29.6 18.963 30.8837C18.5926 31.1857 18.3704 31.4122 18.1481 31.6388ZM20.0741 29.6755C19.2593 28.7694 18.4444 27.7878 17.7037 26.7306C18.4444 26.7306 19.2593 26.8061 20.0741 26.8061C20.8889 26.8061 21.7037 26.8061 22.5185 26.7306C21.6296 27.8633 20.8148 28.8449 20.0741 29.6755ZM30.4444 32.0918C30.2222 33.3755 29.7037 34.2816 29.1111 34.6592C27.8519 35.4143 25.1852 34.4326 22.2222 31.8653C21.8519 31.5633 21.5556 31.2612 21.1852 30.9592C22.2963 29.6755 23.4074 28.2408 24.5185 26.6551C26.4444 26.5041 28.2963 26.202 29.9259 25.8245C30 26.1265 30.0741 26.5041 30.1481 26.8061C30.6667 28.7694 30.7407 30.6571 30.4444 32.0918ZM31.9259 23.4082C31.7037 23.4837 31.4815 23.5592 31.2593 23.6347C30.7407 21.9735 30.0741 20.2367 29.2593 18.5C30.0741 16.7633 30.7407 15.0265 31.1852 13.4408C31.6296 13.5918 32 13.6673 32.3704 13.8184C36.0741 15.102 38.2963 17.0653 38.2963 18.5C38.2963 20.0102 35.8518 22.1245 31.9259 23.4082Z" fill="#01D8F8"/>
<path d="M19.9999 14.8C21.9999 14.8 23.5554 16.4613 23.5554 18.4245C23.5554 20.4633 21.9258 22.049 19.9999 22.049C18.074 22.049 16.4443 20.3878 16.4443 18.4245C16.4443 16.4613 17.9999 14.8 19.9999 14.8Z" fill="#01D8F8"/>
</g>
<defs>
<clipPath id="clip0_1_5134">
<rect width="40" height="37" fill="white"/>
</clipPath>
</defs>
</svg>
