<svg width="39" height="40" viewBox="0 0 39 40" fill="none" xmlns="http://www.w3.org/2000/svg">
<path d="M0.279297 6.60285L19.1628 0L38.1422 6.60285L35.1437 31.1962L19.2107 40L3.2458 31.1962L0.279297 6.60285Z" fill="#B3B3B3"/>
<path d="M19.165 2.05078V37.817L33.342 29.98L36.0317 7.91861L19.165 2.05078Z" fill="#A5120D"/>
<path d="M19.1645 2.05078V37.817L4.98752 29.98L2.29785 7.91861L19.1645 2.05078Z" fill="#DC1B16"/>
<path d="M19.1682 3.87549L7.56348 29.6442H11.8267L14.2746 23.8307C14.6516 23.8307 23.65 23.8307 24.062 23.8307L26.5099 29.6442H30.7732L19.1682 3.87549ZM15.7462 20.3356L19.1682 12.2086L22.5902 20.3356C17.178 20.3479 18.6854 20.3486 15.7462 20.3356Z" fill="white"/>
<path d="M19.1689 3.87549V12.2087L22.5909 20.3357C20.8757 20.3395 19.856 20.3423 19.1689 20.3438V23.8308C21.5128 23.8308 23.857 23.8308 24.0627 23.8308L26.5105 29.6443H30.7738L19.1689 3.87549Z" fill="#B3B2B2"/>
</svg>
