<svg width="157" height="40" viewBox="0 0 157 40" fill="none" xmlns="http://www.w3.org/2000/svg">
<g clip-path="url(#clip0_1_1934)">
<path d="M40.5977 12.9692V29.1044H42.5429V15.9244L52.4153 29.1044H54.5068V12.9692H52.5617V25.9431L42.7102 12.9692H40.5977Z" fill="#B3B3B3"/>
<path d="M70.5151 15.2744V13.5439C63.7824 11.7821 57.0137 13.2877 57.5845 21.7239C58.0965 29.0046 64.4746 30.3129 70.5151 28.4566V21.7239H68.4072V27.2297C64.4116 28.1735 59.8812 27.0031 59.6294 21.7239C59.2893 14.2433 64.6319 13.7327 70.5151 15.2744Z" fill="#B3B3B3"/>
<path d="M85.0495 12.9692V23.6134C84.8213 26.157 83.212 27.5263 80.4852 27.5265C77.7585 27.5263 76.1492 26.157 75.921 23.6134V12.9692H73.8221V23.6134C74.248 28.1398 76.5959 29.1807 79.6337 29.2451L79.6336 29.2453C83.3591 29.4524 86.6562 28.8455 87.1485 23.6135V12.9692H85.0495Z" fill="#B3B3B3"/>
<path d="M93.0343 27.3895V12.9692H90.9756C90.9756 13.6557 90.9756 28.4161 90.9756 29.1044C91.102 29.1044 101.395 29.1044 101.502 29.1044V27.3894H93.0343V27.3895Z" fill="#B3B3B3"/>
<path d="M110.347 10.8599L102.402 29.1045H104.578L110.347 14.99L113.344 22.3227H109.201L108.612 23.9687H114.017L116.117 29.1045H118.293L110.347 10.8599Z" fill="#B3B3B3"/>
<path d="M127.511 21.475C130.466 20.5234 132.014 19.0661 132.002 16.7841C131.977 14.0611 130.326 12.9159 127.438 12.9696C126.707 12.9696 121.367 12.9696 120.52 12.9696V14.6831V29.1047H122.675V14.6831H127.438C129.268 14.8098 129.739 15.643 129.739 16.8927C129.739 18.4456 128.946 19.3788 127.264 19.9767C126.621 20.193 125.93 20.3698 125.174 20.4969V21.8191L130.3 29.1047H133.089L127.511 21.475Z" fill="#B3B3B3"/>
<path d="M135.38 27.3508V29.1044C138.698 29.009 140.954 27.8517 140.863 24.3471V12.9692H138.766V24.6022C138.865 26.3024 137.647 27.2985 135.38 27.3508Z" fill="#B3B3B3"/>
<path d="M155.751 13.5022V15.4156C150.884 13.8135 146.114 14.3917 146.097 17.3573C146.151 19.4878 147.195 20.1516 150.778 20.0169C154.841 19.8456 156.332 21.654 156.283 24.6448C156.176 29.3084 151.57 29.9885 144.607 28.5168V26.5598C149.008 27.879 154.286 28.1572 154.155 24.6712C154.173 22.5446 153.304 21.6926 149.341 21.8787C145.73 21.8273 143.856 20.3815 144.049 17.2774C144.389 12.7975 148.813 11.9338 155.751 13.5022Z" fill="#B3B3B3"/>
<path d="M0.279449 6.60285L19.163 0L38.1423 6.60285L35.1439 31.1962L19.2108 40L3.24595 31.1962L0.279449 6.60285Z" fill="#B3B3B3"/>
<path d="M19.165 2.05078V37.817L33.342 29.98L36.0317 7.91861L19.165 2.05078Z" fill="#A5120D"/>
<path d="M19.1647 2.05078V37.817L4.98768 29.98L2.298 7.91861L19.1647 2.05078Z" fill="#DC1B16"/>
<path d="M19.1685 3.87549L7.56369 29.6442H11.8269L14.2748 23.8307C14.6519 23.8307 23.6502 23.8307 24.0622 23.8307L26.5101 29.6442H30.7734L19.1685 3.87549ZM15.7464 20.3356L19.1685 12.2086L22.5905 20.3356C17.1782 20.3479 18.6856 20.3486 15.7464 20.3356Z" fill="white"/>
<path d="M19.1689 3.87549V12.2087L22.5909 20.3357C20.8757 20.3395 19.856 20.3423 19.1689 20.3438V23.8308C21.5128 23.8308 23.857 23.8308 24.0627 23.8308L26.5105 29.6443H30.7738L19.1689 3.87549Z" fill="#B3B2B2"/>
<path d="M41.081 12.4248V28.56H43.0262V15.3799L52.8985 28.56H54.9902V12.4248H53.045V25.3987L43.1935 12.4248H41.081Z" fill="#020202"/>
<path d="M70.9985 14.7304V13C64.2658 11.2382 57.497 12.7438 58.0679 21.18C58.5798 28.4607 64.9579 29.769 70.9985 27.9127V21.18H68.8905V26.6857C64.8949 27.6295 60.3645 26.4592 60.1128 21.18C59.7726 13.6993 65.1152 13.1888 70.9985 14.7304Z" fill="#020202"/>
<path d="M85.5329 12.4248V23.069C85.3047 25.6126 83.6954 26.9818 80.9686 26.9821C78.2419 26.9818 76.6325 25.6126 76.4043 23.069V12.4248H74.3054V23.069C74.7313 27.5954 77.0793 28.6362 80.1171 28.7006L80.117 28.7009C83.8424 28.908 87.1395 28.301 87.6318 23.069V12.4248H85.5329Z" fill="#020202"/>
<path d="M93.5177 26.845V12.4248H91.4589C91.4589 13.1113 91.4589 27.8716 91.4589 28.56C91.5853 28.56 101.878 28.56 101.986 28.56V26.845H93.5177Z" fill="#020202"/>
<path d="M110.83 10.3154L102.885 28.5601H105.061L110.83 14.4455L113.828 21.7783H109.684L109.096 23.4242H114.501L116.6 28.5601H118.776L110.83 10.3154Z" fill="#020202"/>
<path d="M127.994 20.9301C130.949 19.9785 132.497 18.5212 132.486 16.2392C132.461 13.5161 130.809 12.371 127.922 12.4246C127.19 12.4246 121.85 12.4246 121.003 12.4246V14.1382V28.5598H123.158V14.1382H127.922C129.751 14.265 130.222 15.0982 130.222 16.3479C130.222 17.9007 129.43 18.834 127.747 19.4319C127.104 19.6481 126.413 19.825 125.658 19.9521V21.2742L130.783 28.5598H133.573L127.994 20.9301Z" fill="#020202"/>
<path d="M135.863 26.8063V28.5599C139.181 28.4645 141.437 27.3071 141.346 23.8026V12.4248H139.249V24.0577C139.349 25.7579 138.13 26.754 135.863 26.8063Z" fill="#A5120D"/>
<path d="M156.235 12.9583V14.8717C151.367 13.2696 146.597 13.8478 146.58 16.8133C146.634 18.9439 147.679 19.6077 151.261 19.473C155.324 19.3017 156.815 21.1101 156.767 24.1009C156.659 28.7645 152.054 29.4445 145.091 27.9728V26.0159C149.492 27.335 154.77 27.6133 154.639 24.1272C154.656 22.0007 153.788 21.1486 149.825 21.3348C146.213 21.2833 144.34 19.8375 144.532 16.7335C144.872 12.2535 149.296 11.3899 156.235 12.9583Z" fill="#A5120D"/>
<path d="M123.158 34.7181C122.661 34.7181 122.343 34.9113 122.154 35.2132V33.73H121.697V37.6306H122.154V37.2141C122.341 37.5429 122.657 37.7624 123.158 37.745C123.757 37.7242 124.245 37.0481 124.245 36.2524C124.245 35.363 123.758 34.7181 123.158 34.7181ZM123.028 37.3322C122.57 37.3322 122.154 37.1104 122.154 36.232C122.154 35.4773 122.477 35.1318 123.028 35.1318C123.527 35.1318 123.735 35.6244 123.735 36.232C123.735 36.8396 123.506 37.3322 123.028 37.3322Z" fill="#00000D"/>
<path d="M126.484 34.855L125.746 37.1326L124.982 34.855H124.403C124.403 34.855 125.428 37.696 125.476 37.8292C125.45 37.928 125.427 37.972 125.358 38.1568C125.226 38.5083 125.06 38.5596 124.702 38.4177V38.8757C125.219 38.9602 125.501 38.92 125.733 38.3159C125.843 38.0302 127.063 34.855 127.063 34.855H126.484Z" fill="#00000D"/>
<path d="M135.587 34.1263H132.438V35.0526H134.679C134.57 36.3517 133.489 36.9056 132.469 36.9056C131.164 36.9056 130.025 35.8787 130.025 34.4393C130.025 33.0372 131.111 31.9573 132.472 31.9573C133.522 31.9573 134.141 32.6268 134.141 32.6268L134.79 31.9551C134.79 31.9551 133.957 31.0283 132.439 31.0283C130.506 31.0283 129.01 32.6602 129.01 34.4228C129.01 36.15 130.417 37.8341 132.488 37.8341C134.31 37.8341 135.644 36.586 135.644 34.7404C135.644 34.3511 135.587 34.126 135.587 34.126L135.587 34.1263Z" fill="black"/>
<path d="M138.253 33.4556C136.972 33.4556 136.054 34.4571 136.054 35.625C136.054 36.8103 136.944 37.8304 138.268 37.8304C139.466 37.8304 140.448 36.9146 140.448 35.6505C140.448 34.2017 139.306 33.4556 138.253 33.4556ZM138.265 34.3148C138.895 34.3148 139.492 34.8241 139.492 35.6447C139.492 36.4479 138.898 36.9718 138.263 36.9718C137.564 36.9718 137.014 36.4127 137.014 35.6383C137.014 34.8807 137.558 34.3148 138.265 34.3148Z" fill="black"/>
<path d="M143.008 33.4551C141.727 33.4551 140.81 34.4566 140.81 35.6245C140.81 36.8099 141.7 37.8299 143.024 37.8299C144.222 37.8299 145.204 36.9141 145.204 35.65C145.203 34.2012 144.062 33.4551 143.008 33.4551ZM143.021 34.3143C143.651 34.3143 144.248 34.8236 144.248 35.6442C144.248 36.4474 143.654 36.9713 143.018 36.9713C142.32 36.9713 141.769 36.4122 141.769 35.6378C141.769 34.8802 142.313 34.3143 143.021 34.3143Z" fill="black"/>
<path d="M147.7 33.458C146.524 33.458 145.6 34.4878 145.6 35.6437C145.6 36.9603 146.671 37.8334 147.679 37.8334C148.303 37.8334 148.634 37.5859 148.879 37.3019V37.7332C148.879 38.4879 148.421 38.9398 147.729 38.9398C147.061 38.9398 146.726 38.443 146.609 38.161L145.769 38.5124C146.067 39.1431 146.667 39.8006 147.736 39.8006C148.905 39.8006 149.796 39.0643 149.796 37.52V33.5354H148.879V33.96C148.597 33.6562 148.211 33.4581 147.7 33.458ZM147.785 34.3155C148.361 34.3155 148.953 34.8077 148.953 35.6483C148.953 36.5027 148.362 36.9736 147.772 36.9736C147.145 36.9736 146.562 36.4646 146.562 35.6564C146.562 34.8166 147.168 34.3155 147.785 34.3155Z" fill="black"/>
<path d="M153.792 33.4526C152.683 33.4526 151.752 34.3351 151.752 35.6371C151.752 37.015 152.79 37.8321 153.899 37.8321C154.824 37.8321 155.392 37.3258 155.731 36.8721L154.975 36.369C154.779 36.6735 154.451 36.9711 153.903 36.9711C153.289 36.9711 153.006 36.6344 152.831 36.3082L155.764 35.0911L155.611 34.7345C155.328 34.036 154.667 33.4528 153.792 33.4528L153.792 33.4526ZM153.831 34.2939C154.23 34.2939 154.518 34.5063 154.64 34.7611L152.681 35.5798C152.597 34.946 153.197 34.2939 153.831 34.2939Z" fill="black"/>
<path d="M151.307 31.2549H150.408V37.7024H151.307V31.2549Z" fill="black"/>
</g>
<defs>
<clipPath id="clip0_1_1934">
<rect width="157" height="40" fill="white"/>
</clipPath>
</defs>
</svg>
