<svg width="118" height="40" viewBox="0 0 118 40" fill="none" xmlns="http://www.w3.org/2000/svg">
<g clip-path="url(#clip0_1_2364)">
<path d="M17.0211 0.192475C16.3938 0.565903 15.3482 1.6115 14.1084 3.12762L15.2511 5.28604C16.0502 4.13588 16.8718 3.10522 17.6933 2.22393C17.7531 2.15671 17.7904 2.11937 17.7904 2.11937C17.7605 2.15671 17.7232 2.18658 17.6933 2.22393C17.4244 2.5152 16.6178 3.45624 15.4005 5.33085C16.573 5.2711 18.373 5.03211 19.8443 4.77818C20.2849 2.32849 19.4186 1.2082 19.4186 1.2082C19.4186 1.2082 18.3132 -0.576788 17.0211 0.192475Z" fill="url(#paint0_linear_1_2364)"/>
<path d="M13.1746 18.3113C13.0252 18.3412 12.8758 18.3636 12.7264 18.386C12.8011 18.3785 12.8833 18.3636 12.958 18.3486C13.0327 18.3412 13.1073 18.3262 13.1746 18.3113Z" fill="#BE202E"/>
<path opacity="0.35" d="M13.1746 18.3113C13.0252 18.3412 12.8758 18.3636 12.7264 18.386C12.8011 18.3785 12.8833 18.3636 12.958 18.3486C13.0327 18.3412 13.1073 18.3262 13.1746 18.3113Z" fill="#BE202E"/>
<path d="M13.5632 16.4216C13.5558 16.4216 13.5558 16.4216 13.5632 16.4216C13.5856 16.4216 13.608 16.4141 13.6304 16.4141C13.7275 16.3992 13.8246 16.3842 13.9142 16.3618C13.8022 16.3842 13.6827 16.3992 13.5632 16.4216Z" fill="#BE202E"/>
<path opacity="0.35" d="M13.5632 16.4216C13.5558 16.4216 13.5558 16.4216 13.5632 16.4216C13.5856 16.4216 13.608 16.4141 13.6304 16.4141C13.7275 16.3992 13.8246 16.3842 13.9142 16.3618C13.8022 16.3842 13.6827 16.3992 13.5632 16.4216Z" fill="#BE202E"/>
<path d="M11.875 10.8577C12.2261 10.2079 12.5771 9.57306 12.9281 8.95317C13.2941 8.31087 13.6675 7.69098 14.0484 7.08603C14.0708 7.04869 14.0932 7.01134 14.1156 6.98147C14.489 6.39145 14.8625 5.82384 15.2434 5.27863L14.1007 3.12769C14.0185 3.23225 13.9289 3.33681 13.8393 3.44883C13.5106 3.85961 13.1671 4.30025 12.8161 4.77077C12.4202 5.30104 12.0169 5.86118 11.5987 6.4512C11.2178 6.99641 10.8294 7.57149 10.4411 8.1615C10.1124 8.66937 9.78383 9.1847 9.45521 9.71497C9.44028 9.73737 9.43281 9.75231 9.41787 9.77472L10.9041 12.7099C11.2327 12.09 11.5539 11.4701 11.875 10.8577Z" fill="url(#paint1_linear_1_2364)"/>
<path d="M5.10103 27.4155C4.90685 27.9533 4.7052 28.5059 4.51102 29.0736C4.51102 29.081 4.50355 29.0885 4.50355 29.096C4.47367 29.1781 4.4438 29.2528 4.42139 29.335C4.28696 29.7158 4.17493 30.0594 3.90606 30.8361C4.34671 31.0378 4.69773 31.5606 5.02635 32.1581C4.98901 31.5382 4.73507 30.9556 4.24962 30.5075C6.40803 30.6046 8.27518 30.0594 9.23116 28.4761C9.31331 28.3342 9.39546 28.1848 9.47015 28.028C9.0295 28.5806 8.49177 28.8196 7.46857 28.7599H7.4611H7.46857C8.96976 28.0877 9.72408 27.4379 10.3888 26.3699C10.5456 26.116 10.7025 25.8397 10.8593 25.5334C9.54484 26.8853 8.02125 27.2662 6.4155 26.9749L5.21306 27.1093C5.17572 27.2139 5.13838 27.311 5.10103 27.4155Z" fill="url(#paint2_linear_1_2364)"/>
<path d="M5.66073 24.7194C5.92213 24.0472 6.191 23.3676 6.45986 22.6805C6.72126 22.0232 6.99013 21.366 7.26647 20.7013C7.54281 20.0366 7.82661 19.3719 8.11042 18.7072C8.40169 18.0275 8.70044 17.3554 9.00665 16.6832C9.30539 16.0185 9.61907 15.3538 9.92528 14.6965C10.0373 14.4576 10.1493 14.226 10.2688 13.987C10.463 13.5837 10.6647 13.1804 10.8663 12.7771C10.8738 12.7547 10.8887 12.7323 10.8962 12.7099L9.42489 9.78223C9.40248 9.81957 9.38008 9.86438 9.3502 9.90172C9.00665 10.4693 8.65563 11.0444 8.31954 11.6344C7.97599 12.2319 7.6399 12.8369 7.31128 13.4568C7.03495 13.9796 6.76608 14.5024 6.49721 15.0326C6.44493 15.1372 6.39265 15.2492 6.34037 15.3538C6.01922 16.0185 5.72048 16.6683 5.45908 17.2881C5.16033 17.9902 4.89893 18.6624 4.66741 19.2972C4.51804 19.7154 4.37613 20.1187 4.24917 20.5071C4.14461 20.8357 4.04752 21.1718 3.95042 21.5004C3.72637 22.2772 3.53965 23.0539 3.38281 23.8306L4.87653 26.7807C5.07071 26.2504 5.27983 25.7202 5.48148 25.175C5.54123 25.0256 5.60098 24.8762 5.66073 24.7194Z" fill="url(#paint3_linear_1_2364)"/>
<path d="M3.36086 23.9351C3.17414 24.8762 3.03971 25.8172 2.97249 26.7582C2.97249 26.7881 2.96502 26.8255 2.96502 26.8553C2.50197 26.1085 1.24725 25.3766 1.25472 25.384C2.15095 26.6836 2.83059 27.9682 2.92768 29.2303C2.44969 29.3274 1.79246 29.1855 1.03813 28.9092C1.8298 29.6336 2.41982 29.8353 2.65134 29.8876C1.92689 29.9324 1.17257 30.4328 0.410772 31.0079C1.52359 30.5523 2.42729 30.373 3.06958 30.5224C2.04639 33.4127 1.02319 36.6093 0 40C0.31368 39.9104 0.500394 39.6938 0.604954 39.41C0.7842 38.7976 2.00158 34.7646 3.8986 29.4693C3.95088 29.32 4.01062 29.1706 4.0629 29.0138C4.07784 28.9689 4.09278 28.9316 4.10772 28.8868C4.30937 28.3341 4.51849 27.7665 4.73508 27.184C4.78736 27.0495 4.83217 26.9226 4.88445 26.7881V26.7807L3.39073 23.8306C3.3758 23.8679 3.36833 23.8978 3.36086 23.9351Z" fill="url(#paint4_linear_1_2364)"/>
<path d="M11.1431 12.9638C11.0983 13.0534 11.061 13.1356 11.0161 13.2252C10.8892 13.494 10.7547 13.7629 10.6278 14.0393C10.4859 14.338 10.344 14.6442 10.1946 14.9579C10.1199 15.1147 10.0452 15.2716 9.97055 15.4359C9.74649 15.9213 9.52243 16.4217 9.29091 16.9371C9.0071 17.5719 8.72329 18.2291 8.43202 18.9162C8.15568 19.566 7.87188 20.2456 7.58807 20.9402C7.3192 21.6049 7.04287 22.2846 6.76653 22.9941C6.52006 23.6214 6.2736 24.2712 6.01967 24.9359C6.00473 24.9658 5.99726 25.0031 5.98233 25.033C5.73586 25.6902 5.48193 26.3699 5.228 27.0644C5.22053 27.0794 5.21306 27.0943 5.21306 27.1093L6.4155 26.9748C6.3931 26.9674 6.37069 26.9674 6.34082 26.9599C7.78225 26.7806 9.69421 25.7052 10.9265 24.3758C11.4941 23.7633 12.0095 23.0464 12.4875 22.2024C12.8459 21.575 13.1746 20.8805 13.4957 20.1037C13.772 19.4316 14.0409 18.6996 14.2949 17.908C13.9662 18.0798 13.5853 18.2067 13.1671 18.2963C13.0924 18.3113 13.0177 18.3262 12.943 18.3412C12.8684 18.3561 12.7937 18.3636 12.7115 18.3785C14.0559 17.8632 14.8998 16.8698 15.5122 15.645C15.1612 15.884 14.5861 16.1977 13.899 16.3545C13.8094 16.3769 13.7123 16.3919 13.6152 16.4068C13.5928 16.4068 13.5704 16.4143 13.5405 16.4143C14.0036 16.2201 14.3994 16.0035 14.743 15.7421C14.8177 15.6898 14.8849 15.6301 14.9521 15.5703C15.0566 15.4807 15.1537 15.3836 15.2508 15.2865C15.3106 15.2193 15.3703 15.1595 15.4301 15.0923C15.5645 14.9355 15.6915 14.7637 15.8035 14.577C15.8408 14.5172 15.8782 14.465 15.9081 14.4052C15.9529 14.3156 15.9977 14.2334 16.035 14.1513C16.2217 13.7779 16.3711 13.4418 16.4906 13.143C16.5504 12.9937 16.6026 12.8592 16.6475 12.7323C16.6624 12.68 16.6848 12.6352 16.6997 12.5829C16.7445 12.441 16.7894 12.314 16.8192 12.202C16.864 12.0377 16.8939 11.9032 16.9089 11.8062C16.864 11.8435 16.8118 11.8808 16.752 11.9107C16.3487 12.1497 15.6541 12.3738 15.094 12.4783L16.1993 12.3588L15.094 12.4783C15.0865 12.4783 15.0791 12.4783 15.0716 12.4858C15.0193 12.4933 14.9596 12.5007 14.8998 12.5157C14.9073 12.5082 14.9222 12.5082 14.9297 12.5007L11.1506 12.9115C11.158 12.9414 11.1506 12.9563 11.1431 12.9638Z" fill="url(#paint5_linear_1_2364)"/>
<path d="M15.3997 5.33085C15.0636 5.84618 14.6977 6.4362 14.3018 7.09343C14.2794 7.13078 14.257 7.16065 14.2421 7.19799C13.8985 7.77307 13.54 8.40043 13.1591 9.09501C12.8305 9.6925 12.487 10.3273 12.1285 11.0219C11.8148 11.6194 11.5011 12.2542 11.165 12.9264L14.9441 12.5156C16.042 12.0078 16.5349 11.5522 17.0129 10.8875C17.1399 10.7082 17.2669 10.514 17.3938 10.3124C17.7822 9.70744 18.1631 9.04273 18.4992 8.37803C18.8278 7.73573 19.1191 7.1009 19.3357 6.53329C19.4776 6.16733 19.5896 5.83124 19.6717 5.5325C19.739 5.2711 19.7912 5.02464 19.8361 4.78564C18.3722 5.03211 16.5723 5.2711 15.3997 5.33085Z" fill="url(#paint6_linear_1_2364)"/>
<path d="M12.958 18.356C12.8833 18.3709 12.8086 18.3784 12.7264 18.3933C12.8011 18.3784 12.8758 18.3634 12.958 18.356Z" fill="#BE202E"/>
<path opacity="0.35" d="M12.958 18.356C12.8833 18.3709 12.8086 18.3784 12.7264 18.3933C12.8011 18.3784 12.8758 18.3634 12.958 18.356Z" fill="#BE202E"/>
<path d="M12.958 18.356C12.8833 18.3709 12.8086 18.3784 12.7264 18.3933C12.8011 18.3784 12.8758 18.3634 12.958 18.356Z" fill="url(#paint7_linear_1_2364)"/>
<path d="M13.5555 16.4218C13.5779 16.4218 13.6003 16.4143 13.6301 16.4143C13.6077 16.4143 13.5853 16.4218 13.5555 16.4218Z" fill="#BE202E"/>
<path opacity="0.35" d="M13.5555 16.4218C13.5779 16.4218 13.6003 16.4143 13.6301 16.4143C13.6077 16.4143 13.5853 16.4218 13.5555 16.4218Z" fill="#BE202E"/>
<path d="M13.5555 16.4218C13.5779 16.4218 13.6003 16.4143 13.6301 16.4143C13.6077 16.4143 13.5853 16.4218 13.5555 16.4218Z" fill="url(#paint8_linear_1_2364)"/>
<path d="M15.2933 12.4472V12.9931H15.1397V12.4472H14.9464V12.3164H15.4809V12.4472H15.2933Z" fill="#B0AFB0"/>
<path d="M16.1975 12.5666L16.0155 12.9363H15.9245L15.7425 12.5666V12.9931H15.5947V12.3164H15.7994L15.9757 12.6861L16.152 12.3164H16.3567V12.9931H16.2089V12.5666H16.1975Z" fill="#B0AFB0"/>
<path d="M21.4975 38.9338C20.8664 38.9338 20.3131 38.8999 19.8376 38.8319C19.3618 38.7737 18.959 38.701 18.6289 38.6136V34.8568C18.9881 34.9345 19.3666 35.0024 19.7646 35.0607C20.153 35.1189 20.5801 35.1481 21.046 35.1481C21.4927 35.1481 21.9051 35.0995 22.2838 35.0024C22.6722 34.9054 23.0071 34.7354 23.2886 34.4927C23.5799 34.2597 23.8031 33.9442 23.9584 33.5462C24.1234 33.1482 24.2059 32.6484 24.2059 32.0465V11.3838H28.7199V31.9008C28.7199 33.1239 28.5403 34.1773 28.1811 35.0607C27.8317 35.9441 27.3365 36.6722 26.6958 37.245C26.0648 37.8274 25.3075 38.2545 24.4241 38.5264C23.5409 38.798 22.5653 38.9338 21.4975 38.9338Z" fill="url(#paint9_linear_1_2364)" stroke="#D22128" stroke-width="0.185548"/>
<path d="M39.7013 32.6725L35.0272 15.9705H34.8962C34.9545 16.8636 35.0029 17.7277 35.0419 18.5625C35.0613 18.9217 35.0758 19.2906 35.0855 19.6691C35.1049 20.0476 35.1194 20.4215 35.1291 20.7903C35.1486 21.1592 35.1582 21.5136 35.1582 21.8534C35.1678 22.1931 35.1727 22.4989 35.1729 22.7707V32.6725H31.1394V11.3838H37.2844L41.8858 27.6634H41.9732L46.8657 11.3838H53.0107V32.6725H48.8025V22.5959C48.8025 22.3436 48.8025 22.0571 48.8025 21.7368C48.8121 21.4166 48.822 21.0766 48.8316 20.7176C48.8413 20.3584 48.8511 19.9943 48.8608 19.6255C48.8802 19.2566 48.8947 18.8974 48.9044 18.548C48.9431 17.7325 48.9771 16.8831 49.0062 15.9997H48.8897L43.8515 32.6725H39.7013Z" fill="black"/>
<path d="M62.0328 19.247C61.2465 19.247 60.5913 19.5237 60.0671 20.077C59.5526 20.6303 59.2565 21.4992 59.1789 22.6836H64.8433C64.8337 22.1885 64.7706 21.7323 64.6541 21.3148C64.5375 20.8973 64.3628 20.5383 64.1299 20.2373C63.8968 19.9267 63.6057 19.684 63.2561 19.5092C62.9066 19.3344 62.4987 19.247 62.0328 19.247ZM62.6008 32.9639C61.4359 32.9639 60.3633 32.7939 59.3826 32.4542C58.4022 32.1145 57.5576 31.6047 56.849 30.9253C56.1404 30.236 55.5871 29.372 55.1891 28.3333C54.8007 27.285 54.6066 26.0569 54.6066 24.6493C54.6066 23.2222 54.7862 21.9748 55.1455 20.907C55.5047 19.8391 56.0045 18.9509 56.6452 18.2423C57.2956 17.524 58.0723 16.9852 58.975 16.626C59.8875 16.2668 60.8971 16.0872 62.0037 16.0872C63.0812 16.0872 64.052 16.2523 64.9161 16.5822C65.7898 16.9026 66.5275 17.3782 67.1295 18.0093C67.741 18.6403 68.2069 19.4168 68.5274 20.339C68.8575 21.2515 69.0224 22.2999 69.0224 23.4842V25.6394H59.0915C59.111 26.2606 59.208 26.8237 59.3828 27.3284C59.5673 27.8235 59.8196 28.2458 60.14 28.5953C60.4701 28.9351 60.8633 29.1973 61.3196 29.3817C61.7855 29.5661 62.3147 29.6583 62.9068 29.6583C63.4018 29.6583 63.8677 29.634 64.3047 29.5856C64.7513 29.5273 65.1833 29.4448 65.6007 29.3381C66.0182 29.2314 66.4307 29.1002 66.8385 28.9449C67.2462 28.78 67.6637 28.5905 68.0908 28.377V31.8135C67.7024 32.0174 67.3093 32.192 66.9113 32.3377C66.5229 32.4735 66.1104 32.59 65.6735 32.6871C65.2367 32.7841 64.7658 32.852 64.2611 32.891C63.756 32.9396 63.2025 32.9639 62.6008 32.9639Z" fill="black"/>
<path d="M77.9347 29.4253C78.3715 29.4253 78.7841 29.3767 79.1725 29.2796C79.5705 29.1826 79.9733 29.0612 80.3811 28.9156V32.2209C79.9637 32.4345 79.4443 32.6093 78.8231 32.7451C78.2115 32.8908 77.5417 32.9635 76.8136 32.9635C76.105 32.9635 75.4448 32.8809 74.8332 32.716C74.2217 32.551 73.6927 32.2645 73.2461 31.8569C72.7994 31.4394 72.4452 30.8861 72.1831 30.197C71.9307 29.498 71.8045 28.6243 71.8045 27.5759V19.7274H69.6785V17.8491L72.1248 16.3638L73.4062 12.9272H76.2456V16.3929H80.2064V19.7274H76.2456V27.5759C76.2456 28.207 76.4009 28.6729 76.7115 28.9738C77.0222 29.275 77.43 29.4255 77.9347 29.4253Z" fill="black"/>
<path d="M88.7692 19.247C87.9828 19.247 87.3276 19.5237 86.8035 20.077C86.2889 20.6303 85.9928 21.4992 85.9152 22.6836H91.5797C91.57 22.1885 91.5069 21.7323 91.3904 21.3148C91.2739 20.8973 91.0991 20.5383 90.8662 20.2373C90.6332 19.9267 90.3421 19.684 89.9925 19.5092C89.6427 19.3344 89.2351 19.247 88.7692 19.247ZM89.3369 32.9639C88.1721 32.9639 87.0994 32.7939 86.1188 32.4542C85.1384 32.1145 84.2937 31.6047 83.5851 30.9253C82.8765 30.236 82.3232 29.372 81.9252 28.3333C81.5369 27.285 81.3428 26.0569 81.3428 24.6493C81.3428 23.2222 81.5224 21.9748 81.8816 20.907C82.2408 19.8391 82.7407 18.9509 83.3814 18.2423C84.0317 17.524 84.8084 16.9852 85.7111 16.626C86.6237 16.2668 87.6332 16.0872 88.7398 16.0872C89.8173 16.0872 90.7881 16.2523 91.6522 16.5822C92.526 16.9026 93.2637 17.3782 93.8656 18.0093C94.4772 18.6403 94.9431 19.4168 95.2635 20.339C95.5936 21.2515 95.7586 22.2999 95.7586 23.4842V25.6394H85.8277C85.8471 26.2606 85.9442 26.8237 86.119 27.3284C86.3034 27.8235 86.5558 28.2458 86.8762 28.5953C87.2063 28.9351 87.5995 29.1973 88.0557 29.3817C88.5216 29.5661 89.0508 29.6583 89.6429 29.6583C90.1379 29.6583 90.6039 29.634 91.0408 29.5856C91.4874 29.5273 91.9194 29.4448 92.3367 29.3381C92.7542 29.2314 93.1667 29.1002 93.5745 28.9449C93.9821 28.78 94.3996 28.5905 94.8268 28.377V31.8135C94.4384 32.0174 94.0452 32.192 93.6472 32.3377C93.2589 32.4735 92.8464 32.59 92.4094 32.6871C91.9727 32.7841 91.5017 32.852 90.997 32.891C90.4922 32.9396 89.9389 32.9639 89.3369 32.9639Z" fill="black"/>
<path d="M105.437 16.0872C105.553 16.0872 105.679 16.092 105.815 16.1018C105.961 16.1018 106.097 16.1115 106.223 16.1309C106.359 16.1406 106.48 16.1553 106.587 16.1746C106.703 16.1842 106.791 16.1989 106.849 16.2182V20.3828C106.771 20.3633 106.665 20.344 106.529 20.3245C106.393 20.305 106.247 20.2906 106.092 20.2809C105.946 20.2614 105.801 20.2518 105.655 20.2518C105.509 20.2421 105.388 20.2373 105.291 20.2371C104.718 20.2371 104.189 20.3099 103.704 20.4555C103.228 20.6012 102.816 20.8391 102.466 21.169C102.126 21.4894 101.859 21.9165 101.665 22.4504C101.481 22.9745 101.389 23.62 101.389 24.3871V32.6726H96.9473V16.3929H100.311L100.966 18.8392H101.184C101.417 18.4217 101.67 18.0432 101.942 17.7035C102.213 17.3637 102.514 17.0774 102.845 16.8444C103.184 16.6017 103.563 16.4172 103.98 16.2911C104.408 16.1551 104.893 16.0872 105.437 16.0872Z" fill="black"/>
<path d="M111.313 16.0479H110.326V12.2011H109.153V11.3767H112.482V12.2011H111.313V16.0479Z" fill="black"/>
<path d="M115.08 16.048L114.054 12.3834H114.026C114.038 12.5794 114.049 12.769 114.057 12.9521C114.062 13.031 114.065 13.1119 114.067 13.195C114.071 13.2781 114.074 13.3601 114.077 13.441C114.081 13.5219 114.083 13.5997 114.083 13.6743C114.085 13.7489 114.086 13.8159 114.086 13.8756V16.0482H113.201V11.3772H114.549L115.559 14.9492H115.578L116.652 11.3772H118V16.0482H117.076V13.8372C117.076 13.7819 117.076 13.719 117.076 13.6487C117.079 13.5784 117.081 13.5038 117.083 13.4251C117.085 13.3462 117.087 13.2664 117.089 13.1855C117.093 13.1046 117.097 13.0258 117.099 12.9492C117.107 12.7703 117.115 12.5838 117.121 12.3901H117.096L115.99 16.0484H115.08" fill="black"/>
<path d="M24.1453 8.10944L27.3338 0.490723H27.9482L31.1367 8.10944H30.3347L29.3452 5.7294H25.9174L24.9408 8.10944H24.1453ZM27.6442 1.3703L26.0791 5.13439H29.1706L27.6442 1.3703Z" fill="#D22128"/>
<path d="M31.9519 8.10944V0.490723H35.1081C36.4145 0.490723 37.3588 1.70015 37.3588 2.8837C37.3588 4.12546 36.4792 5.29608 35.1728 5.29608H32.6957V8.10944H31.9519ZM32.6957 4.62992H35.134C36.0329 4.62992 36.615 3.80208 36.615 2.8837C36.615 1.92651 35.9101 1.15688 35.0693 1.15688H32.6957V4.62992Z" fill="#D22128"/>
<path d="M36.9441 8.10944L40.1326 0.490723H40.747L43.9355 8.10944H43.1206L42.1311 5.7294H38.7098L37.7332 8.10944H36.9441ZM40.4431 1.3703L38.8779 5.13439H41.9694L40.4431 1.3703Z" fill="#D22128"/>
<path d="M47.5321 0.445557C48.8838 0.445557 49.8734 1.13111 50.3455 2.1077L49.744 2.46988C49.2589 1.46095 48.3147 1.11818 47.4933 1.11818C45.6695 1.11818 44.6735 2.74799 44.6735 4.28079C44.6735 5.96234 45.9088 7.48867 47.5257 7.48867C48.3858 7.48867 49.3948 7.06181 49.8734 6.07228L50.4942 6.39566C50.0027 7.53394 48.651 8.16775 47.4804 8.16775C45.3914 8.16775 43.9168 6.16929 43.9168 4.24198C43.9168 2.41168 45.2362 0.445557 47.5321 0.445557Z" fill="#D22128"/>
<path d="M57.5495 0.490723V8.10944H56.7993V4.54585H52.2849V8.10944H51.5476V0.490723H52.2849V3.87969H56.7993V0.490723H57.5495Z" fill="#D22128"/>
<path d="M64.386 7.44329V8.10944H59.2702V0.490723H64.289V1.15688H60.0075V3.90556H63.7393V4.53938H60.0075V7.44329H64.386Z" fill="#D22128"/>
</g>
<defs>
<linearGradient id="paint0_linear_1_2364" x1="15.0876" y1="3.39296" x2="18.4585" y2="2.4557" gradientUnits="userSpaceOnUse">
<stop stop-color="#F69923"/>
<stop offset="0.3123" stop-color="#F79A23"/>
<stop offset="0.8383" stop-color="#E97826"/>
</linearGradient>
<linearGradient id="paint1_linear_1_2364" x1="-3.25849" y1="40.9709" x2="3.59762" y2="26.2671" gradientUnits="userSpaceOnUse">
<stop offset="0.3233" stop-color="#9E2064"/>
<stop offset="0.6302" stop-color="#C92037"/>
<stop offset="0.7514" stop-color="#CD2335"/>
<stop offset="1" stop-color="#E97826"/>
</linearGradient>
<linearGradient id="paint2_linear_1_2364" x1="2.46882" y1="38.273" x2="6.55438" y2="29.5111" gradientUnits="userSpaceOnUse">
<stop stop-color="#282662"/>
<stop offset="0.0955" stop-color="#662E8D"/>
<stop offset="0.7882" stop-color="#9F2064"/>
<stop offset="0.9487" stop-color="#CD2032"/>
</linearGradient>
<linearGradient id="paint3_linear_1_2364" x1="-2.6397" y1="38.7619" x2="4.21644" y2="24.0581" gradientUnits="userSpaceOnUse">
<stop offset="0.3233" stop-color="#9E2064"/>
<stop offset="0.6302" stop-color="#C92037"/>
<stop offset="0.7514" stop-color="#CD2335"/>
<stop offset="1" stop-color="#E97826"/>
</linearGradient>
<linearGradient id="paint4_linear_1_2364" x1="-0.896492" y1="36.331" x2="2.70659" y2="28.6037" gradientUnits="userSpaceOnUse">
<stop stop-color="#282662"/>
<stop offset="0.0955" stop-color="#662E8D"/>
<stop offset="0.7882" stop-color="#9F2064"/>
<stop offset="0.9487" stop-color="#CD2032"/>
</linearGradient>
<linearGradient id="paint5_linear_1_2364" x1="1.14111" y1="40.5246" x2="7.99724" y2="25.8208" gradientUnits="userSpaceOnUse">
<stop offset="0.3233" stop-color="#9E2064"/>
<stop offset="0.6302" stop-color="#C92037"/>
<stop offset="0.7514" stop-color="#CD2335"/>
<stop offset="1" stop-color="#E97826"/>
</linearGradient>
<linearGradient id="paint6_linear_1_2364" x1="-0.0991944" y1="42.7051" x2="6.75692" y2="28.0013" gradientUnits="userSpaceOnUse">
<stop offset="0.3233" stop-color="#9E2064"/>
<stop offset="0.6302" stop-color="#C92037"/>
<stop offset="0.7514" stop-color="#CD2335"/>
<stop offset="1" stop-color="#E97826"/>
</linearGradient>
<linearGradient id="paint7_linear_1_2364" x1="2.27341" y1="41.0524" x2="9.12956" y2="26.3486" gradientUnits="userSpaceOnUse">
<stop offset="0.3233" stop-color="#9E2064"/>
<stop offset="0.6302" stop-color="#C92037"/>
<stop offset="0.7514" stop-color="#CD2335"/>
<stop offset="1" stop-color="#E97826"/>
</linearGradient>
<linearGradient id="paint8_linear_1_2364" x1="2.14045" y1="40.9883" x2="8.99555" y2="26.2854" gradientUnits="userSpaceOnUse">
<stop offset="0.3233" stop-color="#9E2064"/>
<stop offset="0.6302" stop-color="#C92037"/>
<stop offset="0.7514" stop-color="#CD2335"/>
<stop offset="1" stop-color="#E97826"/>
</linearGradient>
<linearGradient id="paint9_linear_1_2364" x1="654.955" y1="-1325.19" x2="659.219" y2="-1334.34" gradientUnits="userSpaceOnUse">
<stop stop-color="#F69923"/>
<stop offset="0.3123" stop-color="#F79A23"/>
<stop offset="0.8383" stop-color="#E97826"/>
</linearGradient>
<clipPath id="clip0_1_2364">
<rect width="118" height="40" fill="white"/>
</clipPath>
</defs>
</svg>
