<svg width="44" height="53" viewBox="0 0 44 53" fill="none" xmlns="http://www.w3.org/2000/svg">
<g clip-path="url(#clip0_1_2152)">
<path d="M36.4646 28.1572C36.5391 36.1778 43.5007 38.8468 43.5779 38.8809C43.5191 39.0692 42.4655 42.6846 39.9102 46.419C37.7012 49.6477 35.4086 52.8645 31.7969 52.9311C28.2481 52.9965 27.107 50.8266 23.0498 50.8266C18.9937 50.8266 17.7258 52.8643 14.3665 52.9965C10.8804 53.1285 8.22565 49.5051 5.99828 46.2884C1.44693 39.7082 -2.03127 27.6946 2.63909 19.5852C4.95918 15.5579 9.10544 13.0079 13.6057 12.9425C17.0289 12.8772 20.2602 15.2455 22.3529 15.2455C24.4442 15.2455 28.3708 12.3973 32.4987 12.8157C34.2268 12.8877 39.0775 13.5138 42.1922 18.073C41.9414 18.2283 36.4044 21.4516 36.4646 28.1572ZM29.7951 8.46227C31.6459 6.22192 32.8916 3.10312 32.5518 0C29.8839 0.107213 26.6581 1.77779 24.7444 4.01679C23.0295 5.99957 21.5277 9.17332 21.933 12.2149C24.9064 12.4452 27.9442 10.704 29.7951 8.46227Z" fill="#424242"/>
</g>
<defs>
<clipPath id="clip0_1_2152">
<rect width="44" height="53" fill="white"/>
</clipPath>
</defs>
</svg>
