<svg width="64" height="38" viewBox="0 0 64 38" fill="none" xmlns="http://www.w3.org/2000/svg">
<g clip-path="url(#clip0_1_2298)">
<path d="M18.1358 13.8009C18.1358 14.5829 18.2203 15.2169 18.3683 15.6819C18.5373 16.1468 18.7487 16.6541 19.0446 17.2036C19.1502 17.3726 19.1925 17.5417 19.1925 17.6897C19.1925 17.901 19.0657 18.1123 18.791 18.3237L17.4595 19.2113C17.2693 19.3382 17.0791 19.4016 16.91 19.4016C16.6986 19.4016 16.4873 19.2959 16.2759 19.1057C15.9801 18.7887 15.7264 18.4505 15.5151 18.1123C15.3037 17.7531 15.0924 17.3515 14.8599 16.8654C13.2114 18.8098 11.1402 19.782 8.64635 19.782C6.87104 19.782 5.45502 19.2747 4.41943 18.2603C3.38383 17.2458 2.85547 15.8932 2.85547 14.2024C2.85547 12.406 3.48951 10.9477 4.77872 9.84872C6.06793 8.74972 7.77983 8.20022 9.95669 8.20022C10.6753 8.20022 11.415 8.26363 12.197 8.3693C12.9789 8.47497 13.7821 8.64405 14.6274 8.83426V7.29143C14.6274 5.68521 14.2893 4.56507 13.6341 3.9099C12.9578 3.25473 11.8165 2.93771 10.1892 2.93771C9.44946 2.93771 8.68862 3.02225 7.90664 3.21246C7.12466 3.40267 6.36381 3.63515 5.6241 3.93103C5.28595 4.07898 5.03233 4.16352 4.88439 4.20578C4.73645 4.24805 4.63077 4.26919 4.54624 4.26919C4.25035 4.26919 4.10241 4.05784 4.10241 3.61402V2.57842C4.10241 2.24027 4.14468 1.98665 4.25035 1.83871C4.35602 1.69077 4.54624 1.54283 4.84212 1.39488C5.58183 1.01446 6.46948 0.697442 7.50508 0.443826C8.54067 0.169077 9.63967 0.0422692 10.8021 0.0422692C13.3171 0.0422692 15.1558 0.612903 16.3393 1.75417C17.5017 2.89544 18.0935 4.62848 18.0935 6.95328V13.8009H18.1358ZM9.55514 17.0133C10.2526 17.0133 10.9712 16.8865 11.732 16.6329C12.4928 16.3793 13.1692 15.9143 13.7398 15.2803C14.0779 14.8788 14.3316 14.4349 14.4584 13.9277C14.5852 13.4205 14.6697 12.8076 14.6697 12.089V11.2013C14.0568 11.0534 13.4016 10.9266 12.7253 10.842C12.049 10.7575 11.3938 10.7152 10.7387 10.7152C9.32265 10.7152 8.28706 10.99 7.58962 11.5606C6.89218 12.1313 6.55402 12.9344 6.55402 13.9911C6.55402 14.9844 6.80764 15.7241 7.336 16.2314C7.84323 16.7597 8.58294 17.0133 9.55514 17.0133ZM26.5262 19.2959C26.1458 19.2959 25.8922 19.2325 25.7231 19.0845C25.554 18.9577 25.4061 18.6618 25.2793 18.2603L20.3126 1.92325C20.1858 1.50056 20.1224 1.22581 20.1224 1.07786C20.1224 0.739711 20.2915 0.549499 20.6297 0.549499H22.7009C23.1024 0.549499 23.3772 0.612903 23.5251 0.760845C23.6942 0.887653 23.821 1.18354 23.9478 1.58509L27.4984 15.5762L30.7954 1.58509C30.9011 1.1624 31.0279 0.887653 31.197 0.760845C31.366 0.634038 31.6619 0.549499 32.0423 0.549499H33.7331C34.1347 0.549499 34.4094 0.612903 34.5785 0.760845C34.7476 0.887653 34.8955 1.18354 34.9801 1.58509L38.3193 15.7453L41.9756 1.58509C42.1024 1.1624 42.2504 0.887653 42.3983 0.760845C42.5674 0.634038 42.8421 0.549499 43.2225 0.549499H45.1881C45.5262 0.549499 45.7164 0.718576 45.7164 1.07786C45.7164 1.18354 45.6953 1.28921 45.6742 1.41602C45.653 1.54283 45.6108 1.7119 45.5262 1.94438L40.4328 18.2814C40.306 18.7041 40.158 18.9789 39.9889 19.1057C39.8199 19.2325 39.5451 19.317 39.1858 19.317H37.3683C36.9667 19.317 36.692 19.2536 36.5229 19.1057C36.3538 18.9577 36.2059 18.683 36.1213 18.2603L32.8455 4.62848L29.5907 18.2392C29.4851 18.6618 29.3582 18.9366 29.1892 19.0845C29.0201 19.2325 28.7242 19.2959 28.3438 19.2959H26.5262ZM53.6842 19.8665C52.5852 19.8665 51.4862 19.7397 50.4294 19.4861C49.3727 19.2325 48.5485 18.9577 47.999 18.6407C47.6608 18.4505 47.4283 18.2392 47.3438 18.0489C47.2593 17.8587 47.217 17.6474 47.217 17.4572V16.3793C47.217 15.9355 47.3861 15.7241 47.7031 15.7241C47.8299 15.7241 47.9567 15.7453 48.0835 15.7875C48.2103 15.8298 48.4005 15.9143 48.6119 15.9989C49.3304 16.3159 50.1124 16.5695 50.9367 16.7386C51.7821 16.9077 52.6063 16.9922 53.4517 16.9922C54.7832 16.9922 55.8188 16.7597 56.5373 16.2948C57.2559 15.8298 57.6363 15.1535 57.6363 14.287C57.6363 13.6952 57.4461 13.2091 57.0657 12.8076C56.6853 12.406 55.9667 12.0467 54.9311 11.7086L51.8666 10.7575C50.3238 10.2714 49.1825 9.55284 48.4851 8.60178C47.7876 7.67186 47.4283 6.63626 47.4283 5.53726C47.4283 4.64961 47.6185 3.86763 47.999 3.19132C48.3794 2.51502 48.8866 1.92325 49.5206 1.45829C50.1547 0.972191 50.8733 0.612903 51.7187 0.359288C52.564 0.105673 53.4517 0 54.3816 0C54.8466 0 55.3327 0.0211346 55.7976 0.0845384C56.2837 0.147942 56.7276 0.232481 57.1714 0.317019C57.5941 0.422692 57.9956 0.528365 58.376 0.655172C58.7565 0.78198 59.0524 0.908788 59.2637 1.0356C59.5596 1.20467 59.7709 1.37375 59.8977 1.56396C60.0245 1.73304 60.0879 1.96552 60.0879 2.2614V3.25473C60.0879 3.69855 59.9189 3.93103 59.6019 3.93103C59.4328 3.93103 59.158 3.8465 58.7987 3.67742C57.5941 3.12792 56.2415 2.85317 54.7409 2.85317C53.5362 2.85317 52.5852 3.04338 51.93 3.44494C51.2748 3.8465 50.9367 4.4594 50.9367 5.32592C50.9367 5.91769 51.148 6.42492 51.5707 6.82647C51.9934 7.22803 52.7754 7.62959 53.8955 7.98888L56.8966 8.93993C58.4183 9.42603 59.5173 10.1023 60.1725 10.9689C60.8277 11.8354 61.1447 12.8287 61.1447 13.9277C61.1447 14.8365 60.9545 15.6607 60.5952 16.3793C60.2148 17.0979 59.7075 17.7319 59.0524 18.2392C58.3972 18.7675 57.6152 19.1479 56.7064 19.4227C55.7554 19.7186 54.762 19.8665 53.6842 19.8665Z" fill="#252F3E"/>
<path d="M57.6781 30.1379C50.7248 35.2736 40.6225 37.9999 31.9362 37.9999C19.7627 37.9999 8.79381 33.4983 0.509052 26.0166C-0.146121 25.4249 0.445648 24.6217 1.22763 25.0867C10.1887 30.2858 21.2421 33.4349 32.6759 33.4349C40.39 33.4349 48.865 31.8286 56.6637 28.5316C57.8261 28.0033 58.8194 29.2925 57.6781 30.1379ZM60.5736 26.8409C59.6859 25.6996 54.6982 26.2914 52.4367 26.5661C51.7604 26.6507 51.6548 26.0589 52.2677 25.6151C56.241 22.8253 62.7716 23.6284 63.5324 24.5583C64.2933 25.5094 63.3211 32.04 59.6014 35.1679C59.0307 35.654 58.4812 35.4004 58.7349 34.7664C59.5802 32.674 61.4612 27.961 60.5736 26.8409Z" fill="#FF9900"/>
</g>
<defs>
<clipPath id="clip0_1_2298">
<rect width="64" height="38" fill="white"/>
</clipPath>
</defs>
</svg>
