<svg width="54" height="46" viewBox="0 0 54 46" fill="none" xmlns="http://www.w3.org/2000/svg">
<g clip-path="url(#clip0_1_2260)">
<path fill-rule="evenodd" clip-rule="evenodd" d="M8.1557 37.0931V33.6372C8.1557 33.1833 8.43955 32.8184 8.90969 32.8184H9.04C9.50992 32.8184 9.79251 33.1835 9.79251 33.6372V40.9127C9.79251 42.6867 8.91581 44.0984 7.38861 44.9977C6.68045 45.4144 5.89795 45.6282 5.07701 45.6282H4.75239C2.97788 45.6282 1.5679 44.751 0.667335 43.2245C0.249367 42.5159 0.0371094 41.7344 0.0371094 40.9127V40.5885C0.0371094 38.8137 0.914229 37.4029 2.44037 36.5021C3.14916 36.0837 3.93061 35.8717 4.75261 35.8717H5.07722C6.27769 35.8715 7.29653 36.337 8.1557 37.0931ZM1.67329 40.7502C1.67329 42.0318 2.29443 42.9953 3.41739 43.6097C3.87147 43.8583 4.36442 43.9918 4.88249 43.9918C6.14041 43.9918 7.07329 43.3983 7.71703 42.3324C8.0163 41.8365 8.1557 41.2941 8.1557 40.7171C8.1557 39.6062 7.6298 38.7392 6.73452 38.0952C6.19173 37.7049 5.58073 37.5091 4.91439 37.5091C3.54327 37.5091 2.55674 38.2017 1.96432 39.4323C1.76453 39.8482 1.67329 40.29 1.67329 40.7502ZM15.4698 35.8715H15.6966C17.5928 35.8715 19.0349 36.7913 19.9488 38.4465C20.3141 39.1086 20.5097 39.8311 20.5097 40.5883V40.9124C20.5097 42.6865 19.6349 44.1001 18.1052 44.9977C17.397 45.4131 16.6147 45.6279 15.794 45.6279H15.47C13.6955 45.6279 12.2853 44.7508 11.385 43.2243C10.967 42.5157 10.7543 41.7342 10.7543 40.9124V40.5883C10.7543 38.8133 11.6346 37.4071 13.1569 36.5023C13.8645 36.0818 14.6474 35.8715 15.4698 35.8715ZM12.3903 40.7502C12.3903 41.9942 13.0009 42.9094 14.0516 43.5527C14.545 43.8549 15.0882 43.9918 15.6648 43.9918C16.8939 43.9918 17.8025 43.3685 18.4349 42.3311C18.7365 41.8365 18.8729 41.2932 18.8729 40.7173C18.8729 39.5605 18.3158 38.6769 17.3632 38.0365C16.8411 37.6853 16.2601 37.5094 15.6316 37.5094C14.2605 37.5094 13.274 38.2019 12.682 39.4326C12.4817 39.8482 12.3903 40.29 12.3903 40.7502ZM27.3132 37.6399C27.066 37.5241 26.6035 37.4857 26.3363 37.4756C24.969 37.424 23.9798 38.1941 23.3994 39.4002C23.1992 39.8163 23.1075 40.2567 23.1075 40.7171C23.1075 42.1188 23.8433 43.1003 25.0947 43.6984C25.5517 43.9168 26.1418 43.9584 26.6413 43.9584C27.0808 43.9584 27.7015 43.6891 28.0914 43.5039L28.159 43.4718H28.4615L28.4948 43.4785C28.8672 43.5558 29.1481 43.792 29.1481 44.1924V44.3544C29.1481 45.3506 27.3271 45.5789 26.6322 45.6273C24.1802 45.7971 22.3463 44.4503 21.6472 42.1114C21.5258 41.7055 21.4711 41.3019 21.4711 40.8787V40.5549C21.4711 38.7802 22.3516 37.3746 23.8737 36.4702C24.5817 36.05 25.3644 35.8388 26.1866 35.8388H26.5108C27.3831 35.8388 28.1865 36.0865 28.9067 36.5784L28.966 36.6194L29.0034 36.681C29.0811 36.8101 29.1481 36.959 29.1481 37.1125V37.2745C29.1481 37.6923 28.8355 37.9168 28.4583 37.9896L28.427 37.9951H28.3303C28.0861 37.9953 27.5311 37.7425 27.3132 37.6399ZM32.6215 38.7481C33.257 38.1115 33.895 37.4762 34.5403 36.8502C34.7202 36.6757 35.4009 35.9365 35.6687 35.9365H35.9619L35.9952 35.9433C36.3684 36.0208 36.6483 36.2574 36.6483 36.6584V36.8202C36.6483 37.0939 36.3277 37.412 36.1509 37.5991C35.7749 37.9977 35.3789 38.3833 34.9941 38.7736L33.0171 40.7807C33.8684 41.6339 34.7189 42.488 35.5633 43.3478C35.7969 43.5856 36.0305 43.8236 36.2605 44.0648C36.3418 44.1504 36.4618 44.2568 36.53 44.3755C36.6033 44.4864 36.6483 44.6116 36.6483 44.7453V44.9145L36.6388 44.9534C36.5469 45.3266 36.3099 45.6279 35.896 45.6279H35.7659C35.4951 45.6279 35.1893 45.3215 35.0036 45.1466C34.6216 44.7863 34.2524 44.4074 33.8779 44.0393L32.6215 42.8059V44.7772C32.6215 45.2313 32.3372 45.5961 31.8677 45.5961H31.7387C31.2687 45.5961 30.9849 45.2311 30.9849 44.7772V33.6689C30.9849 33.2146 31.269 32.8513 31.7387 32.8513H31.8677C32.3372 32.8513 32.6215 33.2146 32.6215 33.6689V38.7481ZM53.0187 35.9363H53.1811C53.6719 35.9363 53.9995 36.2671 53.9995 36.7549C53.9995 37.4325 53.3518 37.6059 52.7914 37.6059C52.0565 37.6059 51.3549 38.0509 50.8482 38.5499C50.2163 39.1728 49.9398 39.9705 49.9398 40.8474V44.8093C49.9398 45.2636 49.6564 45.6279 49.1858 45.6279H49.0568C48.5864 45.6279 48.303 45.2634 48.303 44.8093V40.6199C48.303 39.0112 49.0861 37.698 50.3916 36.7769C51.1713 36.2269 52.0643 35.9363 53.0187 35.9363ZM41.3868 43.788C41.9824 43.9958 42.6614 43.9662 43.2724 43.8598C43.5847 43.7269 44.3841 43.3784 44.6781 43.4293L44.724 43.4369L44.7662 43.4578C44.9455 43.5449 45.117 43.668 45.2087 43.8505C45.4228 44.2788 45.32 44.709 44.8993 44.9521L44.7592 45.033C43.2067 45.9291 41.5557 45.8049 40.0083 44.9679C39.2684 44.5681 38.7024 43.9742 38.2849 43.2507L38.1871 43.0815C37.1906 41.3555 37.3249 39.5401 38.449 37.8988C38.8372 37.3315 39.344 36.8933 39.9371 36.5505L40.1614 36.421C41.6233 35.5771 43.1902 35.6347 44.6917 36.3756C45.4989 36.774 46.153 37.3676 46.6039 38.1485L46.6848 38.2891C47.0121 38.8564 46.588 39.3508 46.1502 39.6887C45.6421 40.0807 45.1291 40.5526 44.642 40.9728C43.5564 41.9102 42.4721 42.8498 41.3868 43.788ZM39.9814 42.8008C41.1961 41.7594 42.4109 40.7173 43.6219 39.6716C44.0359 39.3147 44.4897 38.9443 44.9003 38.5687C44.5706 38.1535 44.0205 37.8542 43.5526 37.6758C42.6088 37.3161 41.678 37.4369 40.8123 37.9366C39.679 38.5909 39.1964 39.6328 39.2389 40.9296C39.2555 41.4402 39.3928 41.9321 39.664 42.3666C39.7595 42.5199 39.8661 42.6637 39.9814 42.8008Z" fill="#364548"/>
<path fill-rule="evenodd" clip-rule="evenodd" d="M31.1497 10.0061H35.979V14.9429H38.4209C39.5485 14.9429 40.7085 14.7421 41.7763 14.3803C42.3009 14.2024 42.89 13.9547 43.4076 13.6434C42.7259 12.7534 42.3778 11.6294 42.2754 10.5216C42.1362 9.01491 42.4401 7.05369 43.46 5.87434L43.9677 5.2872L44.5726 5.77339C46.0956 6.99709 47.3765 8.70677 47.6023 10.6559C49.4362 10.1165 51.5894 10.2441 53.2057 11.177L53.8689 11.5597L53.5197 12.241C52.1526 14.9091 49.2946 15.7356 46.5005 15.5894C42.3193 26.0033 33.2163 30.9338 22.1791 30.9338C16.4769 30.9338 11.2452 28.8022 8.26601 23.743L8.21722 23.6605L7.7832 22.7774C6.77619 20.5505 6.44165 18.1109 6.66869 15.6733L6.7367 14.9431H10.8663V10.0061H15.6954V5.17675H25.3543V0.347412H31.1497V10.0061Z" fill="#364548"/>
<path fill-rule="evenodd" clip-rule="evenodd" d="M46.7959 11.8326C47.1197 9.31609 45.2364 7.33925 44.0685 6.40088C42.7225 7.95701 42.5134 12.0353 44.625 13.7522C43.4465 14.7989 40.9634 15.7476 38.4207 15.7476H7.47019C7.22287 18.4018 7.68899 20.846 8.75303 22.938L9.1051 23.5819C9.32813 23.9602 9.57164 24.3253 9.8348 24.677H9.83501C11.1075 24.7587 12.2805 24.787 13.3538 24.7632H13.3543C15.4635 24.7165 17.1846 24.4677 18.489 24.0155C18.6833 23.9479 18.8949 24.051 18.9621 24.2451C19.0292 24.439 18.9264 24.6508 18.7325 24.7182C18.5591 24.7782 18.3783 24.8345 18.1914 24.8878C18.1912 24.888 18.191 24.888 18.1908 24.888C17.1637 25.1811 16.0625 25.3786 14.6415 25.4662C14.7258 25.4675 14.5537 25.4789 14.5533 25.4791C14.5049 25.4821 14.4441 25.4891 14.3955 25.4916C13.8362 25.5229 13.2326 25.5294 12.6155 25.5294C11.9405 25.5294 11.2758 25.5165 10.5326 25.4789L10.5136 25.4914C13.0924 28.3899 17.1246 30.1283 22.1789 30.1283C32.8758 30.1283 41.9493 25.3864 45.9669 14.7406C48.8175 15.0331 51.557 14.3062 52.8031 11.8737C50.8182 10.7286 48.2657 11.0938 46.7959 11.8326Z" fill="#22A0C8"/>
<path fill-rule="evenodd" clip-rule="evenodd" d="M46.7959 11.8326C47.1197 9.31609 45.2364 7.33925 44.0685 6.40088C42.7225 7.95701 42.5134 12.0353 44.625 13.7522C43.4465 14.7989 40.9634 15.7476 38.4207 15.7476H9.303C9.1767 19.8124 10.6851 22.8978 13.3541 24.7632H13.3545C15.4637 24.7165 17.1848 24.4677 18.4892 24.0155C18.6835 23.9479 18.8951 24.051 18.9623 24.2451C19.0295 24.439 18.9266 24.6508 18.7327 24.7182C18.5593 24.7782 18.3785 24.8345 18.1916 24.8878C18.1914 24.888 18.1912 24.888 18.191 24.888C17.1639 25.1811 15.9681 25.4039 14.5469 25.4916C14.5465 25.4916 14.5125 25.4586 14.5121 25.4589C18.1526 27.3263 23.4311 27.3195 29.4831 24.9948C36.2692 22.388 42.5837 17.4212 46.9896 11.7405C46.9233 11.7705 46.8584 11.8011 46.7959 11.8326Z" fill="#37B1D9"/>
<path fill-rule="evenodd" clip-rule="evenodd" d="M7.52829 18.9724C7.72069 20.3942 8.13655 21.7254 8.75326 22.9379L9.10533 23.5819C9.32836 23.9601 9.57188 24.3253 9.83503 24.6769C11.1077 24.7587 12.281 24.787 13.3545 24.7631C15.4638 24.7164 17.1848 24.4676 18.4892 24.0155C18.6835 23.9479 18.8952 24.0509 18.9623 24.245C19.0295 24.4389 18.9266 24.6507 18.7327 24.7181C18.5593 24.7781 18.3786 24.8345 18.1916 24.8877C18.1914 24.8879 18.1912 24.8879 18.191 24.8879C17.1639 25.1811 15.9744 25.3912 14.5533 25.4789C14.5045 25.4818 14.4194 25.4825 14.3702 25.485C13.8111 25.5165 13.2136 25.5355 12.5965 25.5355C11.9217 25.5355 11.2315 25.5226 10.4885 25.485C13.0673 28.3835 17.1247 30.1283 22.1789 30.1283C31.3366 30.1283 39.304 26.6523 43.9282 18.9722H7.52829" fill="#1B81A5"/>
<path fill-rule="evenodd" clip-rule="evenodd" d="M9.58203 18.9724C10.1295 21.4686 11.445 23.4285 13.3549 24.7631C15.4642 24.7164 17.1853 24.4676 18.4897 24.0155C18.684 23.9479 18.8956 24.0509 18.9628 24.245C19.0299 24.4389 18.9271 24.6507 18.7332 24.7181C18.5598 24.7781 18.379 24.8345 18.1921 24.8877C18.1919 24.8879 18.1917 24.8879 18.1914 24.8879C17.1644 25.1811 15.9495 25.3912 14.5286 25.4789C18.1689 27.3459 23.4322 27.3191 29.4838 24.9946C33.1447 23.588 36.6682 21.4941 39.8293 18.9722H9.58203" fill="#1D91B4"/>
<path fill-rule="evenodd" clip-rule="evenodd" d="M11.6709 10.811H15.8563V14.9966H11.6709V10.811ZM12.0194 11.1599H12.3497V14.6479H12.0194V11.1599ZM12.6405 11.1599H12.9841V14.6479H12.6405V11.1599ZM13.2743 11.1599H13.618V14.6479H13.2743V11.1599ZM13.9088 11.1599H14.2524V14.6479H13.9088V11.1599ZM14.543 11.1599H14.8867V14.6479H14.543V11.1599ZM15.1771 11.1599H15.5076V14.6479H15.1771V11.1599Z" fill="#23A3C2"/>
<path fill-rule="evenodd" clip-rule="evenodd" d="M16.5 5.98169H20.6858V10.1671H16.5V5.98169ZM16.8489 6.33059H17.179V9.81838H16.8489V6.33059ZM17.47 6.33059H17.8133V9.81838H17.47V6.33059ZM18.1039 6.33059H18.4475V9.81838H18.1039V6.33059ZM18.7381 6.33059H19.0817V9.81838H18.7381V6.33059ZM19.3723 6.33059H19.716V9.81838H19.3723V6.33059ZM20.0064 6.33059H20.3371V9.81838H20.0064V6.33059Z" fill="#23A3C2"/>
<path fill-rule="evenodd" clip-rule="evenodd" d="M16.5 10.811H20.6858V14.9966H16.5V10.811ZM16.8489 11.1599H17.179V14.6479H16.8489V11.1599ZM17.47 11.1599H17.8133V14.6479H17.47V11.1599ZM18.1039 11.1599H18.4475V14.6479H18.1039V11.1599ZM18.7381 11.1599H19.0817V14.6479H18.7381V11.1599ZM19.3723 11.1599H19.716V14.6479H19.3723V11.1599ZM20.0064 11.1599H20.3371V14.6479H20.0064V11.1599Z" fill="#34BBDE"/>
<path fill-rule="evenodd" clip-rule="evenodd" d="M21.3299 10.811H25.5155V14.9966H21.3299V10.811ZM21.6786 11.1599H22.0087V14.6479H21.6786V11.1599ZM22.2995 11.1599H22.6431V14.6479H22.2995V11.1599ZM22.9337 11.1599H23.2774V14.6479H22.9337V11.1599ZM23.568 11.1599H23.9116V14.6479H23.568V11.1599ZM24.202 11.1599H24.5458V14.6479H24.202V11.1599ZM24.8362 11.1599H25.1666V14.6479H24.8362V11.1599Z" fill="#23A3C2"/>
<path fill-rule="evenodd" clip-rule="evenodd" d="M21.3299 5.98169H25.5155V10.1671H21.3299V5.98169ZM21.6786 6.33059H22.0087V9.81838H21.6786V6.33059ZM22.2995 6.33059H22.6431V9.81838H22.2995V6.33059ZM22.9337 6.33059H23.2774V9.81838H22.9337V6.33059ZM23.568 6.33059H23.9116V9.81838H23.568V6.33059ZM24.202 6.33059H24.5458V9.81838H24.202V6.33059ZM24.8362 6.33059H25.1666V9.81838H24.8362V6.33059Z" fill="#34BBDE"/>
<path fill-rule="evenodd" clip-rule="evenodd" d="M26.1592 10.811H30.3446V14.9966H26.1592V10.811ZM26.5081 11.1599H26.8382V14.6479H26.5081V11.1599ZM27.129 11.1599H27.4727V14.6479H27.129V11.1599ZM27.7631 11.1599H28.1067V14.6479H27.7631V11.1599ZM28.3973 11.1599H28.7409V14.6479H28.3973V11.1599ZM29.0316 11.1599H29.3752V14.6479H29.0316V11.1599ZM29.6658 11.1599H29.9961V14.6479H29.6658V11.1599Z" fill="#34BBDE"/>
<path fill-rule="evenodd" clip-rule="evenodd" d="M26.1592 5.98169H30.3446V10.1671H26.1592V5.98169ZM26.5081 6.33059H26.8382V9.81838H26.5081V6.33059ZM27.129 6.33059H27.4727V9.81838H27.129V6.33059ZM27.7631 6.33059H28.1067V9.81838H27.7631V6.33059ZM28.3973 6.33059H28.7409V9.81838H28.3973V6.33059ZM29.0316 6.33059H29.3752V9.81838H29.0316V6.33059ZM29.6658 6.33059H29.9961V9.81838H29.6658V6.33059Z" fill="#23A3C2"/>
<path fill-rule="evenodd" clip-rule="evenodd" d="M26.1592 1.15234H30.3446V5.33793H26.1592V1.15234ZM26.5081 1.50083H26.8382V4.98903H26.5081V1.50083ZM27.129 1.50083H27.4727V4.98903H27.129V1.50083ZM27.7631 1.50083H28.1067V4.98903H27.7631V1.50083ZM28.3973 1.50083H28.7409V4.98903H28.3973V1.50083ZM29.0316 1.50083H29.3752V4.98903H29.0316V1.50083ZM29.6658 1.50083H29.9961V4.98903H29.6658V1.50083Z" fill="#34BBDE"/>
<path fill-rule="evenodd" clip-rule="evenodd" d="M30.9883 10.811H35.1739V14.9966H30.9883V10.811ZM31.337 11.1599H31.6675V14.6479H31.337V11.1599ZM31.9579 11.1599H32.3015V14.6479H31.9579V11.1599ZM32.5921 11.1599H32.9358V14.6479H32.5921V11.1599ZM33.2262 11.1599H33.5698V14.6479H33.2262V11.1599ZM33.8606 11.1599H34.204V14.6479H33.8606V11.1599ZM34.4946 11.1599H34.825V14.6479H34.4946V11.1599Z" fill="#23A3C2"/>
<path fill-rule="evenodd" clip-rule="evenodd" d="M20.4244 21.7827C21.062 21.7827 21.579 22.2999 21.579 22.9376C21.579 23.5752 21.062 24.0922 20.4244 24.0922C19.7866 24.0922 19.2695 23.5752 19.2695 22.9376C19.2695 22.2997 19.7866 21.7827 20.4244 21.7827Z" fill="#D3ECEC"/>
<path fill-rule="evenodd" clip-rule="evenodd" d="M20.4237 22.1104C20.5293 22.1104 20.6301 22.1302 20.7232 22.1663C20.6225 22.2246 20.5543 22.3338 20.5543 22.4586C20.5543 22.6451 20.7055 22.7959 20.8918 22.7959C21.0195 22.7959 21.1304 22.7249 21.1879 22.6202C21.2284 22.7178 21.2508 22.8251 21.2508 22.9374C21.2508 23.394 20.8806 23.7643 20.4237 23.7643C19.9671 23.7643 19.5967 23.394 19.5967 22.9374C19.5967 22.4806 19.9671 22.1104 20.4237 22.1104Z" fill="#364548"/>
<path fill-rule="evenodd" clip-rule="evenodd" d="M0 19.3897H53.7142C52.5446 19.093 50.0138 18.6923 50.4311 17.1594C48.3045 19.6203 43.1757 18.8858 41.8815 17.6724C40.44 19.7629 32.049 18.9684 31.4637 17.3398C29.6567 19.4605 24.0575 19.4605 22.2505 17.3398C21.6651 18.9684 13.2742 19.7629 11.8326 17.6724C10.5383 18.886 5.40993 19.6203 3.28313 17.1594C3.70067 18.6923 1.16985 19.0932 0 19.3897Z" fill="#364548"/>
<path fill-rule="evenodd" clip-rule="evenodd" d="M23.493 30.1036C20.6333 28.7466 19.0636 26.902 18.1903 24.8882C17.1282 25.1915 15.8513 25.3851 14.3678 25.4684C13.809 25.4996 13.221 25.5157 12.6041 25.5157C11.8927 25.5157 11.1434 25.4945 10.3564 25.4529C12.9789 28.0737 16.205 30.0918 22.1784 30.1285C22.6196 30.1285 23.0575 30.1201 23.493 30.1036Z" fill="#BDD9D7"/>
<path fill-rule="evenodd" clip-rule="evenodd" d="M19.2531 26.7463C18.8576 26.2092 18.4736 25.5342 18.1916 24.8879C17.1293 25.1912 15.8522 25.3851 14.3683 25.4685C15.3875 26.0217 16.845 26.5343 19.2531 26.7463Z" fill="#D3ECEC"/>
</g>
<defs>
<clipPath id="clip0_1_2260">
<rect width="54" height="46" fill="white"/>
</clipPath>
</defs>
</svg>
