<svg width="99" height="54" viewBox="0 0 99 54" fill="none" xmlns="http://www.w3.org/2000/svg">
<g clip-path="url(#clip0_1_2105)">
<path fill-rule="evenodd" clip-rule="evenodd" d="M63.4177 5.57683L63.4198 5.57341C60.5745 2.16816 56.2971 0 51.5123 0C45.4234 0 40.1567 3.51137 37.6182 8.61719H57.8347C59.2854 8.61719 60.6971 8.11742 61.8068 7.18361C62.3839 6.69754 62.9234 6.16902 63.4177 5.57683Z" fill="#FEC514"/>
<path fill-rule="evenodd" clip-rule="evenodd" d="M36.0002 15.5111C36.0002 16.9023 36.1864 18.2496 36.5301 19.5325H55.5321C57.753 19.5325 59.5535 17.732 59.5535 15.5111C59.5535 13.2903 57.753 11.4897 55.5321 11.4897H36.5301C36.1864 12.7727 36.0002 14.1193 36.0002 15.5111Z" fill="#343741"/>
<path fill-rule="evenodd" clip-rule="evenodd" d="M63.4177 25.4449L63.4198 25.4483C60.5745 28.8536 56.2971 31.0217 51.5123 31.0217C45.4234 31.0217 40.1567 27.5104 37.6182 22.4045H57.8347C59.2854 22.4045 60.6971 22.9043 61.8068 23.8381C62.3839 24.3242 62.9234 24.8527 63.4177 25.4449Z" fill="#00BFB3"/>
<path fill-rule="evenodd" clip-rule="evenodd" d="M12.6068 53.7467V41.9358H10.4407V53.7467H12.6068ZM8.48136 53.7467V51.7052H2.65327V48.8367H7.05463V46.7952H2.65327V43.9773H8.48136V41.9358H0.383789V53.7467H8.48136ZM19.5351 52.9539C19.1401 53.5612 18.1597 53.9829 17.18 53.9829C15.4952 53.9829 14.3088 52.9368 14.3088 51.469C14.3088 49.7985 15.6328 48.8031 17.816 48.8031C18.5212 48.8031 19.2256 48.9551 19.5008 49.1071V48.5163C19.5008 47.6386 18.9853 47.1327 18.1083 47.1327C17.369 47.1327 16.9048 47.4873 16.7159 47.9254L14.5497 47.757C15.031 46.2892 16.3722 45.4458 18.246 45.4458C20.4292 45.4458 21.6498 46.5932 21.6498 48.6518V53.7474H19.6042V52.9546H19.5351V52.9539ZM17.7989 52.3295C16.9739 52.3295 16.492 51.9249 16.492 51.3006C16.492 50.6762 17.0595 50.2716 18.0563 50.2716C18.6923 50.2716 19.2941 50.4236 19.5351 50.6262V51.1493C19.5358 51.773 18.7272 52.3295 17.7989 52.3295ZM29.885 51.3006C29.885 52.9375 28.5267 54 26.5154 54C24.7443 54 23.4552 53.1901 23.0081 51.773L25.0024 51.4019C25.1742 52.0263 25.8102 52.4309 26.5667 52.4309C27.3061 52.4309 27.736 52.0427 27.736 51.4526C27.736 50.8097 27.0001 50.6625 26.1313 50.4886C24.8798 50.2381 23.3525 49.9327 23.3525 48.0103C23.3525 46.4748 24.6245 45.4458 26.4982 45.4458C28.1831 45.4458 29.4893 46.2728 29.8337 47.5044L27.8223 47.9261C27.7189 47.4031 27.2034 47.0485 26.5503 47.0485C25.88 47.0485 25.5015 47.4031 25.5015 47.8584C25.5015 48.5115 26.2443 48.6607 27.1185 48.8367C28.3672 49.0886 29.885 49.3946 29.885 51.3006ZM34.8539 53.9158C35.4728 53.9158 35.9712 53.8145 36.2635 53.6967L36.0403 52.0091C35.8514 52.0934 35.6104 52.1611 35.2838 52.1611C34.476 52.1611 34.0632 51.8236 34.0632 50.744V47.5044H36.1779V45.6991H34.0632V43.151L31.8971 43.5727V45.6984H30.4875V47.5037H31.8971V51.0808C31.8971 53.2072 33.1349 53.9158 34.8539 53.9158ZM39.5983 41.9358V43.9773H37.4322V41.9358H39.5983ZM39.5983 53.7467V45.6984H37.4322V53.7467H39.5983ZM49.0363 51.4019C48.5379 53.0723 47.1796 54 45.3401 54C42.7954 54 41.0934 52.2282 41.0934 49.7143C41.0934 47.082 42.933 45.4458 45.2196 45.4458C47.3344 45.4458 48.6755 46.4241 49.1397 48.2636L47.042 48.5505C46.801 47.7741 46.1822 47.3189 45.2716 47.3189C43.9818 47.3189 43.2596 48.3143 43.2596 49.7314C43.2596 51.1322 43.9818 52.144 45.2716 52.144C46.1822 52.144 46.7668 51.6545 47.0078 50.8953L49.0363 51.4019ZM53.4205 54C55.4319 54 56.7895 52.9368 56.7895 51.3006C56.7895 49.3946 55.2724 49.0893 54.023 48.8373C53.1488 48.6614 52.4059 48.5115 52.4059 47.859C52.4059 47.4031 52.7839 47.0491 53.4548 47.0491C54.1079 47.0491 54.6234 47.4038 54.7268 47.9268L56.7382 47.5051C56.3945 46.2735 55.0876 45.4465 53.4027 45.4465C51.529 45.4465 50.257 46.4754 50.257 48.011C50.257 49.9334 51.7843 50.2387 53.0358 50.4893C53.9046 50.6632 54.6405 50.8104 54.6405 51.4532C54.6405 52.0441 54.2113 52.4315 53.4719 52.4315C52.7154 52.4315 52.0794 52.0269 51.9076 51.4026L49.9133 51.7736C50.3603 53.1901 51.6495 54 53.4205 54ZM65.6963 51.7558C65.0083 53.2408 63.7876 54 62.1028 54C59.5588 54 57.7534 52.2118 57.7534 49.7479C57.7534 47.3011 59.4896 45.4451 61.8967 45.4451C64.2175 45.4451 66.0057 47.0478 66.0228 49.815V50.3209H59.9538C60.1605 51.4854 60.9855 52.2611 62.1199 52.2611C62.9284 52.2611 63.5473 51.89 63.891 51.2485L65.6963 51.7558ZM63.7698 48.8709H59.9702C60.1941 47.6728 60.9163 47.0827 61.9302 47.0827C62.8928 47.0827 63.7013 47.6564 63.7698 48.8709ZM72.4171 52.9539C72.0214 53.5612 71.0417 53.9829 70.0614 53.9829C68.3765 53.9829 67.1908 52.9368 67.1908 51.469C67.1908 49.7985 68.5141 48.8031 70.6974 48.8031C71.4025 48.8031 72.1077 48.9551 72.3822 49.1071V48.5163C72.3822 47.6386 71.8667 47.1327 70.9897 47.1327C70.251 47.1327 69.7868 47.4873 69.5972 47.9254L67.4311 47.757C67.9124 46.2892 69.2535 45.4458 71.1273 45.4458C73.3105 45.4458 74.5312 46.5932 74.5312 48.6518V53.7474H72.4856V52.9546H72.4171V52.9539ZM70.6809 52.3295C69.856 52.3295 69.374 51.9249 69.374 51.3006C69.374 50.6762 69.9416 50.2716 70.939 50.2716C71.575 50.2716 72.1768 50.4236 72.4171 50.6262V51.1493C72.4171 51.773 71.6093 52.3295 70.6809 52.3295ZM78.5389 50.1361V53.7467H76.3728V45.6991H78.3842V46.9985H78.4184C78.8312 46.0873 79.6562 45.5642 80.6016 45.5642C80.8768 45.5642 81.1 45.6149 81.2205 45.6827V47.7242C81.0658 47.6564 80.8255 47.6228 80.6187 47.6228C79.433 47.6222 78.5389 48.2465 78.5389 50.1361ZM86.1367 54C87.9762 54 89.3345 53.0723 89.8329 51.4019L87.8044 50.896C87.5634 51.6552 86.9788 52.1447 86.0675 52.1447C84.7784 52.1447 84.0562 51.1322 84.0562 49.7321C84.0562 48.315 84.7784 47.3196 86.0675 47.3196C86.9788 47.3196 87.5976 47.7748 87.8386 48.5512L89.9363 48.2643C89.4721 46.4255 88.131 45.4465 86.0162 45.4465C83.7296 45.4465 81.8901 47.0834 81.8901 49.715C81.8901 52.2282 83.592 54 86.1367 54ZM93.3566 49.1235V53.7467H91.1905V41.9358H93.3566V46.5925C93.7865 45.9853 94.7149 45.4451 95.7459 45.4451C97.517 45.4451 98.6171 46.6261 98.6171 48.6005V53.7467H96.451V48.9886C96.451 47.8748 95.9526 47.3182 95.0756 47.3182C94.1302 47.3182 93.3566 48.0439 93.3566 49.1235Z" fill="#343741"/>
</g>
<defs>
<clipPath id="clip0_1_2105">
<rect width="99" height="54" fill="white"/>
</clipPath>
</defs>
</svg>
