<svg width="99" height="36" viewBox="0 0 99 36" fill="none" xmlns="http://www.w3.org/2000/svg">
<g clip-path="url(#clip0_1_2155)">
<path d="M13.8119 31.8138L29.0072 16.615H17.9583L8.28928 26.2876L13.8119 31.8138Z" fill="#39CEFD"/>
<path d="M1.52588e-05 17.9982L17.9583 0.0397949H29.0072L5.52617 23.5244L1.52588e-05 17.9982Z" fill="#39CEFD"/>
<path d="M17.9579 35.9567H29.0068L19.3377 26.2876L13.8115 31.8138L17.9579 35.9567Z" fill="#03569B"/>
<path d="M19.3377 26.2876L13.8115 31.8138L22.0074 28.9746L19.3377 26.2876Z" fill="url(#paint0_linear_1_2155)"/>
<path d="M8.28928 26.284L13.8154 20.7578L19.3416 26.284L13.8154 31.8137L8.28928 26.284Z" fill="#16B9FD"/>
<path d="M29.0072 16.615L19.3381 26.2875L29.0072 35.9601H17.9583L13.8119 31.8137L8.28579 26.2875L17.9583 16.615H29.0072ZM17.9583 0.0397949L1.52588e-05 17.9982L5.52617 23.5244L29.0072 0.0397949C29.0072 0.0397949 17.9583 0.0397949 17.9583 0.0397949Z" fill="url(#paint1_radial_1_2155)"/>
<path d="M32.5049 9.66724H42.1889V11.5121H34.5347V17.2296H41.4514V19.0745H34.5347V26.268H32.5978V9.66724H32.5049Z" fill="#808080"/>
<path d="M44.4941 9.66724H46.431V26.36H44.4941V9.66724Z" fill="#808080"/>
<path d="M53.7173 26.7286C52.2412 26.7286 51.2268 26.2679 50.3973 25.4374C49.6598 24.6069 49.291 23.4087 49.291 21.9326V14.4622H51.2278V21.6557C51.2278 22.762 51.5047 23.5926 51.9654 24.1462C52.519 24.6999 53.1646 24.9767 54.0861 24.9767C54.7317 24.9767 55.3773 24.7918 55.838 24.4231C56.3916 24.0543 56.7604 23.5926 57.0372 23.0399C57.3141 22.4862 57.4979 21.8406 57.4979 21.195V14.4622H59.4347V26.3599H57.5899V24.608H57.4979C57.1292 25.1616 56.6674 25.7143 55.9299 26.0841C55.2853 26.5448 54.5478 26.7286 53.7173 26.7286Z" fill="#808080"/>
<path d="M67.182 26.5448C66.7213 26.5448 66.2595 26.4529 65.7988 26.268C65.4301 26.0831 65.0613 25.8992 64.7845 25.6224C64.5076 25.3455 64.2308 24.9767 64.0469 24.608C63.862 24.2392 63.7701 23.7775 63.7701 23.2248V16.2162H61.6494V14.4642H63.7701V11.1443H65.7069V14.4642H68.5662V16.2162H65.7069V22.6722C65.7069 23.3178 65.7988 23.7785 66.0757 24.1483C66.3525 24.5171 66.8132 24.702 67.3669 24.702C67.8276 24.702 68.2893 24.61 68.6581 24.3332V26.27C68.3813 26.362 68.1974 26.4549 67.9206 26.5469C67.9195 26.5448 67.5508 26.5448 67.182 26.5448Z" fill="#808080"/>
<path d="M75.5744 26.5448C75.1137 26.5448 74.652 26.4529 74.1913 26.268C73.8225 26.0831 73.4538 25.8992 73.1769 25.6224C72.9001 25.3455 72.6233 24.9767 72.4384 24.608C72.2535 24.2392 72.1615 23.7775 72.1615 23.2248V16.2162H70.2247V14.4642H72.3454V11.1443H74.2822V14.4642H77.1415V16.2162H74.2822V22.6722C74.2822 23.3178 74.3741 23.7785 74.651 24.1483C74.9278 24.5171 75.3885 24.702 75.9422 24.702C76.4029 24.702 76.8646 24.61 77.2334 24.3332V26.27C76.9566 26.362 76.7727 26.4549 76.4959 26.5469C76.312 26.5448 75.9432 26.5448 75.5744 26.5448Z" fill="#808080"/>
<path d="M84.3361 26.7287C83.2298 26.7287 82.2154 26.4518 81.2929 25.8982C80.3705 25.3445 79.7249 24.607 79.1723 23.6845C78.7116 22.7621 78.4347 21.6558 78.4347 20.4565C78.4347 19.3502 78.7116 18.2429 79.1723 17.3204C79.633 16.398 80.3715 15.5685 81.201 15.0148C82.0305 14.4612 83.0459 14.1843 84.2441 14.1843C85.4424 14.1843 86.4578 14.4612 87.2873 15.0148C88.1178 15.5685 88.7634 16.2141 89.2241 17.1355C89.6848 18.058 89.9616 19.0723 89.9616 20.2716C89.9616 20.5484 89.9616 20.7323 89.8697 20.9172H80.3705C80.4624 21.8396 80.6473 22.5772 81.0161 23.2228C81.3849 23.8684 81.9386 24.3291 82.4922 24.6059C83.1378 24.8828 83.6915 25.0666 84.3371 25.0666C85.9051 25.0666 87.0115 24.3291 87.842 22.946L89.5019 23.7765C88.9483 24.6989 88.3027 25.5284 87.3813 26.082C86.6417 26.4529 85.6262 26.7287 84.3361 26.7287ZM87.748 19.1663C87.748 18.7056 87.5631 18.152 87.2873 17.6902C87.0115 17.2285 86.6416 16.7678 86.088 16.399C85.5343 16.0302 84.8887 15.8453 84.0592 15.8453C83.1368 15.8453 82.3073 16.1222 81.6617 16.7678C81.0161 17.3214 80.6473 18.1509 80.3705 19.1653H87.748V19.1663Z" fill="#808080"/>
<path d="M92.1739 14.4634H94.0188V16.4002H94.1107C94.3875 15.7546 94.7563 15.2009 95.4938 14.8321C96.1394 14.3714 96.877 14.1865 97.6145 14.1865C98.1682 14.1865 98.6289 14.2785 98.9977 14.4634V16.584C98.537 16.3072 97.9833 16.2153 97.3377 16.2153C96.784 16.2153 96.2314 16.4002 95.7696 16.676C95.3089 17.0447 94.9391 17.4135 94.5704 17.9672C94.2935 18.5209 94.1097 19.0735 94.1097 19.7191V26.359H92.1729V14.4634H92.1739Z" fill="#808080"/>
</g>
<defs>
<linearGradient id="paint0_linear_1_2155" x1="-8098.77" y1="-3443.7" x2="-8098.77" y2="-3443.7" gradientUnits="userSpaceOnUse">
<stop stop-color="#1A237E" stop-opacity="0.4"/>
<stop offset="1" stop-color="#1A237E" stop-opacity="0"/>
</linearGradient>
<radialGradient id="paint1_radial_1_2155" cx="0" cy="0" r="1" gradientUnits="userSpaceOnUse" gradientTransform="translate(-8098.77 -3443.7) scale(1.2603e-07)">
<stop stop-color="white" stop-opacity="0.1"/>
<stop offset="1" stop-color="white" stop-opacity="0"/>
</radialGradient>
<clipPath id="clip0_1_2155">
<rect width="99" height="36" fill="white"/>
</clipPath>
</defs>
</svg>
