<svg width="87" height="47" viewBox="0 0 87 47" fill="none" xmlns="http://www.w3.org/2000/svg">
<g clip-path="url(#clip0_1_2282)">
<path d="M47.979 8.35393H48.994L51.8873 5.46072L52.0291 4.23187C46.6443 -0.521574 38.4261 -0.00810379 33.6727 5.37682C32.352 6.87136 31.3948 8.65172 30.8713 10.5778C31.193 10.4459 31.5507 10.424 31.8864 10.5179L37.6728 9.56276C37.6728 9.56276 37.9666 9.07525 38.1204 9.10523C40.6939 6.27791 45.0258 5.94824 47.999 8.35393H47.979Z" fill="#EA4335"/>
<path d="M56.0091 10.5777C55.3437 8.128 53.979 5.92612 52.0809 4.24365L48.0208 8.30374C49.7351 9.70443 50.7122 11.8164 50.6702 14.0303V14.7516C52.6664 14.7516 54.2847 16.3701 54.2847 18.3661C54.2847 20.3623 52.6663 21.9807 50.6702 21.9807H43.4412L42.7198 22.712V27.0478L43.4412 27.7691H50.6702C55.8613 27.809 60.1031 23.6331 60.1432 18.442C60.167 15.2891 58.6145 12.34 56.0091 10.5777Z" fill="#4285F4"/>
<path d="M36.2019 27.7235H43.431V21.937H36.2019C35.6865 21.937 35.1789 21.8251 34.7094 21.6113L33.6943 21.927L30.7811 24.8202L30.5274 25.8353C32.1598 27.0701 34.1539 27.7335 36.2019 27.7235Z" fill="#34A853"/>
<path d="M36.2019 8.9532C31.0089 8.98318 26.8268 13.2171 26.8568 18.4102C26.8748 21.3094 28.2275 24.0388 30.5273 25.8051L34.7193 21.6132C32.901 20.7919 32.0917 18.65 32.9129 16.8317C33.7342 15.0135 35.8761 14.2042 37.6944 15.0254C38.4955 15.3871 39.137 16.0304 39.5007 16.8317L43.6926 12.6398C41.9105 10.3059 39.1371 8.94123 36.2019 8.9532Z" fill="#FBBC05"/>
<path d="M6.06036 42.5669C4.45756 42.5872 2.91704 41.9546 1.79168 40.8139C0.629358 39.7216 -0.0199215 38.1913 0.000418135 36.5962C-0.0186503 35.001 0.63063 33.472 1.79168 32.3784C2.91206 31.2263 4.45374 30.5808 6.06036 30.5935C7.5906 30.5732 9.06618 31.1677 10.1547 32.2435L9.00379 33.4147C8.21573 32.6521 7.15648 32.2346 6.06036 32.2498C4.91075 32.2358 3.80701 32.7056 3.02022 33.5433C2.20293 34.3542 1.75217 35.4644 1.77135 36.6153C1.76118 37.7535 2.21183 38.8471 3.02022 39.6491C4.68542 41.3092 7.37036 41.341 9.07508 39.7204C9.58304 39.1653 9.89365 38.4574 9.96113 37.7089H6.07943V36.0539H11.5716C11.6251 36.3875 11.6467 36.7248 11.6365 37.0634C11.7053 38.4753 11.1935 39.8541 10.2195 40.8802C9.13621 42.0067 7.62376 42.6204 6.06036 42.5669ZM18.8295 41.467C17.298 42.9348 14.8816 42.9348 13.3501 41.467C12.6079 40.7477 12.203 39.7508 12.2311 38.7184C12.2031 37.6859 12.6092 36.6891 13.3501 35.9698C14.8829 34.5057 17.2967 34.5057 18.8295 35.9698C19.5704 36.6891 19.9766 37.6859 19.9485 38.7184C19.9752 39.7521 19.5666 40.7489 18.8231 41.467H18.8295ZM14.5596 40.3874C15.3502 41.2327 16.6767 41.276 17.5221 40.4841C17.5551 40.4523 17.5883 40.4204 17.6188 40.3874C18.0504 39.9405 18.2833 39.3396 18.2655 38.7184C18.2846 38.0958 18.0516 37.4911 17.6188 37.043C16.8053 36.1951 15.4583 36.1658 14.6092 36.9793C14.5876 36.9997 14.5658 37.0214 14.5455 37.043C14.1126 37.4911 13.8797 38.0959 13.8988 38.7184C13.8822 39.3397 14.1177 39.9418 14.5519 40.3874C14.552 40.3874 14.5596 40.3874 14.5596 40.3874ZM27.2511 41.467C25.7196 42.9348 23.3032 42.9348 21.7717 41.467C21.0295 40.7477 20.6246 39.7508 20.6527 38.7184C20.6247 37.6859 21.0308 36.6891 21.7717 35.9698C23.3032 34.5019 25.7196 34.5019 27.2511 35.9698C27.992 36.6891 28.3982 37.6859 28.3701 38.7184C28.3994 39.7508 27.9933 40.7477 27.2511 41.467ZM22.9824 40.3874C23.773 41.2327 25.0995 41.276 25.9449 40.4841C25.978 40.4523 26.0111 40.4204 26.0416 40.3874C26.4732 39.9405 26.7062 39.3396 26.6884 38.7184C26.7074 38.0958 26.4745 37.4911 26.0416 37.043C25.2282 36.1951 23.8812 36.1658 23.0333 36.9793C23.0117 36.9997 22.9899 37.0214 22.9696 37.043C22.5368 37.4911 22.3038 38.0959 22.3229 38.7184C22.3063 39.3397 22.5418 39.9418 22.976 40.3874C22.9761 40.3874 22.9824 40.3874 22.9824 40.3874ZM32.7877 46.0208C32.0124 46.045 31.2524 45.8031 30.6336 45.3347C30.0849 44.9222 29.652 44.3735 29.3784 43.7433L30.8526 43.1284C31.013 43.5052 31.2638 43.8362 31.5833 44.0921C31.9246 44.3671 32.3536 44.5122 32.7928 44.4995C33.3555 44.5338 33.9054 44.3213 34.3002 43.9177C34.6897 43.448 34.882 42.8445 34.8374 42.236V41.6796H34.7788C34.2785 42.2728 33.5286 42.5962 32.7546 42.5529C31.773 42.5555 30.8347 42.148 30.1676 41.4275C29.4445 40.7132 29.0447 39.7343 29.0613 38.717C29.0435 37.6947 29.4432 36.7093 30.1676 35.9874C30.8334 35.2643 31.7717 34.8531 32.7546 34.8556C33.1658 34.8544 33.5731 34.946 33.945 35.1205C34.267 35.2605 34.5535 35.4706 34.7865 35.7354H34.8451V35.1205H36.4492V42.0091C36.5345 43.1104 36.1627 44.1988 35.4205 45.0175C34.714 45.6937 33.7655 46.0552 32.7877 46.0208ZM32.9049 41.0532C33.4638 41.0659 33.9997 40.8279 34.3664 40.4064C34.7648 39.9494 34.9761 39.3574 34.9545 38.7501C34.9787 38.1326 34.7686 37.5305 34.3664 37.0621C33.9997 36.6394 33.4637 36.4026 32.9049 36.4153C32.3307 36.4039 31.7794 36.6394 31.3912 37.0621C30.9634 37.514 30.7305 38.1162 30.7444 38.7374C30.7317 39.3537 30.9634 39.9494 31.3912 40.3937C31.7769 40.8202 32.3282 41.0608 32.9049 41.0532ZM39.3022 31.0275V42.334H37.6142V31.0275H39.3022ZM43.9337 42.5669C42.9115 42.5936 41.9248 42.1926 41.2106 41.4606C40.4862 40.735 40.0902 39.7432 40.117 38.7184C40.0787 37.691 40.4595 36.6916 41.1712 35.9494C41.8433 35.2416 42.7829 34.8495 43.7581 34.8686C44.2024 34.8635 44.6416 34.95 45.0516 35.1207C45.4208 35.2696 45.7569 35.4899 46.0408 35.7674C46.2852 36.0029 46.5016 36.2652 46.6875 36.5504C46.8378 36.791 46.9651 37.0444 47.0694 37.3066L47.2438 37.747L42.0699 39.8756C42.3908 40.6114 43.1304 41.0749 43.9325 41.0405C44.7078 41.043 45.4271 40.6369 45.8281 39.9736L47.1216 40.8469C46.7918 41.3192 46.3692 41.7203 45.879 42.0245C45.2985 42.3913 44.6212 42.5796 43.9337 42.5669ZM41.7733 38.6012L45.2145 37.1715C45.1089 36.9194 44.9192 36.7119 44.6773 36.5833C44.4074 36.4306 44.1019 36.3529 43.7913 36.3567C43.2655 36.3707 42.7652 36.591 42.4011 36.9717C41.9591 37.3944 41.7287 37.9914 41.7733 38.6012Z" fill="#5F6368"/>
<path d="M56.0876 42.5668C53.1442 42.6178 50.7178 40.2727 50.6668 37.3293C50.6655 37.2581 50.6655 37.1855 50.6681 37.1142C50.5993 34.1708 52.9303 31.7302 55.8725 31.6616C55.9438 31.6603 56.0163 31.6603 56.0876 31.6603C57.5593 31.6144 58.9725 32.2434 59.9235 33.3676L58.9915 34.2728C58.2926 33.3931 57.2155 32.9004 56.094 32.9463C55.0182 32.9221 53.9781 33.3383 53.2155 34.0971C52.4224 34.8954 51.9984 35.9877 52.0443 37.1119C51.9971 38.2361 52.4224 39.3284 53.2155 40.1266C53.9781 40.8867 55.0182 41.3016 56.094 41.2775C57.3467 41.2915 58.5371 40.7338 59.3277 39.7638L60.2596 40.6957C59.772 41.2787 59.1597 41.7447 58.4683 42.0604C57.7223 42.4064 56.9087 42.5795 56.0876 42.5668Z" fill="#5F6368"/>
<path d="M62.7622 42.3338H61.4228V31.8867H62.7622V42.3338Z" fill="#5F6368"/>
<path d="M64.9497 36.046C66.4099 34.596 68.7677 34.596 70.2279 36.046C70.9205 36.778 71.2935 37.7558 71.2629 38.7629C71.2934 39.7699 70.9204 40.7476 70.2279 41.4797C68.7677 42.9297 66.4099 42.9297 64.9497 41.4797C64.2571 40.7477 63.8841 39.7699 63.9147 38.7629C63.8841 37.7558 64.2558 36.778 64.9497 36.046ZM65.9453 40.6394C66.8021 41.5446 68.2305 41.584 69.1369 40.7272C69.1674 40.6993 69.1968 40.6686 69.2247 40.6394C69.6971 40.1327 69.9466 39.4567 69.9173 38.7641C69.9478 38.0715 69.6984 37.3955 69.2247 36.8889C68.3679 35.9836 66.9395 35.9442 66.0331 36.801C66.0026 36.829 65.9732 36.8596 65.9453 36.8889C65.4729 37.3955 65.2234 38.0715 65.2527 38.7641C65.226 39.4555 65.478 40.1289 65.9516 40.633L65.9453 40.6394Z" fill="#5F6368"/>
<path d="M78.6813 42.3338H77.3878V41.3446H77.3497C77.1193 41.7201 76.7933 42.0282 76.405 42.237C76.0027 42.4699 75.5444 42.5935 75.0785 42.5922C74.3121 42.6444 73.5648 42.344 73.0479 41.7774C72.5578 41.1574 72.3121 40.3796 72.3553 39.5916V35.1931H73.6947V39.3459C73.6947 40.6788 74.2828 41.3447 75.4604 41.3447C75.9913 41.3612 76.4967 41.1206 76.8188 40.698C77.1664 40.2587 77.3509 39.7125 77.3433 39.1525V35.1931H78.6827V42.3339L78.6813 42.3338Z" fill="#5F6368"/>
<path d="M83.2288 42.5668C82.3096 42.5694 81.435 42.171 80.8354 41.4733C80.1645 40.7323 79.8055 39.7622 79.8322 38.7628C79.8055 37.7634 80.1645 36.7933 80.8354 36.0523C81.435 35.3559 82.3096 34.9562 83.2288 34.9587C83.738 34.9511 84.2409 35.0708 84.6903 35.3076C85.0862 35.5062 85.421 35.8079 85.6603 36.1809H85.7189L85.6603 35.1917V31.8867H86.9997V42.3338H85.7062V41.3446H85.6476C85.4083 41.7175 85.0734 42.0193 84.6776 42.2179C84.232 42.4523 83.7342 42.5732 83.2288 42.5668ZM83.449 41.3447C84.0613 41.3536 84.6483 41.099 85.0595 40.6457C85.5139 40.1276 85.747 39.4515 85.7062 38.7628C85.747 38.0753 85.5139 37.398 85.0595 36.8799C84.2473 35.9862 82.8647 35.9213 81.9709 36.7348C81.92 36.7806 81.8716 36.8302 81.8258 36.8799C81.37 37.3942 81.1371 38.0689 81.179 38.7552C81.137 39.4414 81.37 40.1161 81.8258 40.6304C82.2383 41.0939 82.8303 41.3536 83.449 41.3447Z" fill="#5F6368"/>
</g>
<defs>
<clipPath id="clip0_1_2282">
<rect width="87" height="47" fill="white"/>
</clipPath>
</defs>
</svg>
