<svg width="30" height="30" viewBox="0 0 30 30" fill="none" xmlns="http://www.w3.org/2000/svg">
<g opacity="0.5">
<path d="M8.7508 22.5005C7.19114 22.5005 5.69537 21.9079 4.59253 20.853C3.48969 19.7981 2.87012 18.3673 2.87012 16.8755C2.87012 15.3836 3.48969 13.9529 4.59253 12.898C5.69537 11.8431 7.19114 11.2505 8.7508 11.2505C9.11915 9.60946 10.1968 8.16734 11.7465 7.24138C12.5139 6.78289 13.3741 6.46492 14.278 6.30563C15.1819 6.14634 16.1118 6.14884 17.0147 6.31299C17.9175 6.47714 18.7756 6.79973 19.5399 7.26234C20.3042 7.72495 20.9598 8.31851 21.4692 9.00915C21.9787 9.69978 22.332 10.474 22.509 11.2875C22.686 12.101 22.6832 12.9379 22.5008 13.7505H23.7508C24.9111 13.7505 26.0239 14.2114 26.8444 15.0319C27.6649 15.8524 28.1258 16.9652 28.1258 18.1255C28.1258 19.2858 27.6649 20.3986 26.8444 21.2191C26.0239 22.0396 24.9111 22.5005 23.7508 22.5005H22.5008" stroke="black" stroke-width="2" stroke-linecap="round" stroke-linejoin="round"/>
<path d="M11.25 18.75L15 15L18.75 18.75" stroke="black" stroke-width="2" stroke-linecap="round" stroke-linejoin="round"/>
<path d="M15 15V26.25" stroke="black" stroke-width="2" stroke-linecap="round" stroke-linejoin="round"/>
</g>
</svg>
