<svg width="34" height="62" viewBox="0 0 34 62" fill="none" xmlns="http://www.w3.org/2000/svg">
<g clip-path="url(#clip0_1_1895)">
<path d="M21.2786 0.0170898C22.2515 1.12475 22.5726 2.7086 22.293 4.13717C21.9928 5.74172 21.1026 7.15993 20.057 8.38146C19.2185 9.3649 18.2558 10.2345 17.2516 11.0419C16.0819 11.9839 14.9328 12.9984 14.1977 14.3235C13.5766 15.4001 13.4317 16.7251 13.8561 17.8949C14.5497 19.9032 16.1646 21.3939 17.0445 23.2883C16.0714 22.4291 15.119 21.5388 14.2288 20.5968C13.2971 19.603 12.4172 18.5471 11.8375 17.3048C11.4441 16.4353 11.2681 15.4208 11.5683 14.4995C11.8685 13.5574 12.5414 12.8017 13.2143 12.0978C15.088 10.2241 17.3966 8.8473 19.2288 6.94254C20.2433 5.897 21.0818 4.64441 21.3715 3.20549C21.6098 2.14959 21.4959 1.06264 21.2786 0.0170898Z" fill="#E92E2F" stroke="#E92E2F" stroke-width="0.00971013" stroke-miterlimit="10"/>
<path d="M19.7471 11.8077C21.7554 10.3274 24.1053 9.38538 26.4863 8.70215C24.6023 9.90297 22.6354 11.0003 21.0101 12.5427C20.4201 13.1121 19.861 13.7643 19.6022 14.5614C19.4055 15.1514 19.4884 15.8036 19.7265 16.3626C20.1612 17.3564 20.8962 18.1638 21.4552 19.0748C21.9314 19.8512 22.0142 20.845 21.6519 21.6835C21.1032 22.9154 20.0265 23.816 18.9086 24.5303C18.7637 24.6131 18.6395 24.7684 18.4634 24.7891C19.2088 24.1162 19.7886 23.1638 19.7677 22.139C19.7471 21.3729 19.3227 20.7001 18.8257 20.1514C17.8009 18.9299 16.9417 17.3771 17.1178 15.7311C17.2938 14.0852 18.4738 12.76 19.7471 11.8077Z" fill="#E92E2F" stroke="#E92E2F" stroke-width="0.00971013" stroke-miterlimit="10"/>
<path d="M26.8691 23.7749C27.3038 23.2469 27.9972 23.1124 28.6289 23.0295C29.7262 22.8846 30.8958 23.1641 31.7239 23.9198C32.4074 24.5306 32.7903 25.483 32.6453 26.4043C32.49 27.4705 31.7757 28.3608 30.9684 29.0337C29.5087 30.2034 27.7075 30.8867 25.9062 31.3423C26.0098 31.2282 26.1236 31.1247 26.2582 31.0421C27.6246 30.307 28.9807 29.4479 29.9849 28.247C30.5957 27.5017 31.0719 26.5286 30.8752 25.5452C30.6681 24.4065 29.5606 23.5783 28.4321 23.5162C27.8937 23.4643 27.3867 23.6714 26.8691 23.7749Z" fill="#0774BB" stroke="#0774BB" stroke-width="0.00971013" stroke-miterlimit="10"/>
<path d="M6.06157 24.7169C7.96633 23.8991 10.0367 23.3711 12.1175 23.4022C10.9063 23.7541 9.66405 24.0544 8.52534 24.5927C8.25619 24.7376 7.94563 24.8722 7.79035 25.1517C7.70753 25.369 7.93528 25.514 8.10091 25.5864C8.80484 25.8763 9.58124 25.9177 10.3369 25.9902C12.987 26.1661 15.6475 26.0626 18.2872 25.897C20.8958 25.7314 23.4838 25.3794 26.0615 24.9653C25.4922 25.2345 24.9125 25.5036 24.3846 25.8452C24.1153 26.0316 23.7841 26.0833 23.4839 26.1558C20.3162 26.8597 17.0658 27.0771 13.8359 27.1289C12.5833 27.1392 11.3411 27.1185 10.0988 27.0357C8.71167 26.9425 7.31416 26.839 5.95805 26.4767C5.56468 26.3628 5.1506 26.2386 4.84004 25.9591C4.68476 25.8349 4.68476 25.5864 4.81934 25.4415C5.16095 25.0896 5.63714 24.9239 6.06157 24.7169Z" fill="#0774BB" stroke="#0774BB" stroke-width="0.00971013" stroke-miterlimit="10"/>
<path d="M8.50462 29.1373C9.04292 28.7129 9.68474 28.4748 10.3266 28.2471C10.1195 28.4955 9.82967 28.7336 9.80896 29.0752C9.79861 29.2926 9.97459 29.4582 10.1506 29.5618C10.4922 29.7378 10.8752 29.7999 11.2582 29.8516C13.2458 30.0587 15.2541 30.1725 17.2624 30.038C19.0946 29.9448 20.9167 29.6446 22.7283 29.3237C23.2251 29.7895 23.8153 30.1104 24.4364 30.3899C22.2519 31.0317 20.0056 31.4044 17.7488 31.5804C15.6164 31.7253 13.4527 31.7151 11.3306 31.3734C10.4921 31.2181 9.63288 31.0422 8.86683 30.6487C8.55627 30.4831 8.20431 30.2657 8.11114 29.9034C8.04913 29.5928 8.27687 29.3132 8.50462 29.1373Z" fill="#0774BB" stroke="#0774BB" stroke-width="0.00971013" stroke-miterlimit="10"/>
<path d="M9.70544 33.6505C10.1816 33.2676 10.7717 33.0708 11.3514 32.9053C11.1651 33.0812 10.8338 33.2985 10.9787 33.5988C11.2582 33.9611 11.7758 34.0025 12.1899 34.0957C13.9394 34.3131 15.7096 34.4581 17.4591 34.3234C18.784 34.2407 20.0884 34.0025 21.3824 33.7748C22.1277 34.2095 22.9041 34.5822 23.7011 34.9136C22.4796 35.4621 21.1648 35.8141 19.8502 36.0626C17.6349 36.4559 15.3472 36.5076 13.1215 36.1558C12.138 35.9797 11.1339 35.7521 10.2436 35.2653C9.90203 35.0688 9.53971 34.8409 9.39478 34.458C9.28101 34.1579 9.46735 33.8369 9.70544 33.6505Z" fill="#0774BB" stroke="#0774BB" stroke-width="0.00971013" stroke-miterlimit="10"/>
<path d="M3.96011 36.5802C4.91249 36.2593 5.89593 36.0005 6.90007 35.9694C7.30379 35.9591 7.71787 35.9798 8.06984 36.1868C6.86901 36.2594 5.66819 36.5595 4.59158 37.1081C4.35349 37.2428 4.08434 37.3981 3.99117 37.6775C3.99117 37.9984 4.35349 38.1019 4.59158 38.2054C6.09262 38.7644 7.69717 38.9404 9.27066 39.1062C13.9601 39.4994 18.6805 39.3959 23.37 38.9715C25.1402 38.7748 26.9208 38.578 28.6392 38.0916C29.1877 37.9051 29.8088 37.7189 30.1711 37.2322C30.3887 36.9425 30.2437 36.5802 30.0264 36.3317C30.3782 36.5284 30.8752 36.777 30.8028 37.253C30.6681 37.7498 30.1609 38.0086 29.7468 38.2468C28.4219 38.9197 26.9621 39.2614 25.5129 39.5614C21.2997 40.3896 16.983 40.576 12.6973 40.4519C9.46745 40.3378 6.23765 40.0273 3.04925 39.4788C2.47989 39.3441 1.83807 39.2304 1.42399 38.7851C1.15484 38.4746 1.39293 38.0399 1.65173 37.8123C2.3038 37.2116 3.14231 36.8804 3.96011 36.5802Z" fill="#0774BB" stroke="#0774BB" stroke-width="0.00971013" stroke-miterlimit="10"/>
<path d="M29.7571 40.1208C30.8028 39.7584 31.9206 39.3755 32.697 38.5474C32.5625 39.4479 31.7861 40.069 31.0201 40.4728C29.55 41.2389 27.9042 41.5909 26.2686 41.8807C22.811 42.4294 19.3016 42.5639 15.7924 42.5018C13.4011 42.4294 10.9891 42.3362 8.63919 41.8393C8.08018 41.684 7.47977 41.5805 6.99323 41.2493C9.08432 41.6013 11.2065 41.7463 13.3286 41.829C16.8172 41.9326 20.3162 41.7981 23.7841 41.3632C25.7924 41.0836 27.811 40.7419 29.7571 40.1208Z" fill="#0774BB" stroke="#0774BB" stroke-width="0.00971013" stroke-miterlimit="10"/>
<path d="M2.47938 55.4726C2.48973 52.077 2.46902 48.6817 2.48973 45.2759C3.19366 45.2965 3.89759 45.2759 4.60153 45.2965C4.59117 49.0957 4.60152 52.9052 4.59117 56.7148C4.57047 57.7809 4.54977 58.899 4.03217 59.8513C3.46281 60.8659 2.44832 61.5802 1.37172 61.9943C1.0301 61.6216 0.719544 61.2282 0.37793 60.8556C1.24749 60.3483 2.11706 59.6237 2.3241 58.5781C2.52078 57.5533 2.45867 56.5077 2.47938 55.4726Z" fill="#E92E2F" stroke="#E92E2F" stroke-width="0.00971013" stroke-miterlimit="10"/>
<path d="M6.55801 49.3649C7.95553 48.7644 9.50832 48.4538 11.0301 48.6194C11.8168 48.7126 12.6346 49.0026 13.1419 49.634C13.5663 50.1722 13.7216 50.8659 13.7112 51.5388C13.7112 53.8576 13.7112 56.166 13.7112 58.4849C13.1936 58.4849 12.676 58.4849 12.1481 58.4849C12.0963 58.1432 12.0445 57.7915 12.0031 57.4394C11.4131 57.9052 10.7816 58.3503 10.0466 58.5367C9.20811 58.7541 8.28679 58.7334 7.46898 58.4126C6.83752 58.1538 6.34062 57.5844 6.16464 56.9219C5.90584 55.9591 6.04042 54.8307 6.72364 54.0543C7.33441 53.3402 8.25573 52.9882 9.1667 52.8226C10.0052 52.6568 10.8644 52.6568 11.7236 52.6568C11.7029 52.0047 11.8272 51.2904 11.4545 50.7107C11.1543 50.2655 10.6056 50.0896 10.0984 50.0585C8.99072 49.9653 7.89342 50.2449 6.84787 50.6072C6.74435 50.193 6.65118 49.779 6.55801 49.3649ZM9.1253 54.1682C8.66981 54.3129 8.24538 54.6444 8.12116 55.1205C7.97623 55.6484 8.01764 56.2695 8.35925 56.7147C8.69052 57.1493 9.29093 57.2529 9.80853 57.1909C10.5332 57.1079 11.1646 56.6939 11.7236 56.2488C11.7236 55.4724 11.7133 54.7064 11.7236 53.93C10.8541 53.9301 9.9638 53.8783 9.1253 54.1682Z" fill="#E92E2F" stroke="#E92E2F" stroke-width="0.00971013" stroke-miterlimit="10"/>
<path d="M24.7572 49.3647C26.1651 48.7642 27.7178 48.4434 29.2499 48.6193C30.0158 48.7124 30.8027 48.9922 31.3098 49.5924C31.7862 50.1617 31.9309 50.9175 31.9205 51.6422C31.9102 53.9299 31.9309 56.2074 31.8999 58.495C31.3823 58.4744 30.8647 58.5054 30.3471 58.4744C30.2954 58.1225 30.254 57.7808 30.1919 57.4392C29.4672 58.0604 28.5977 58.5676 27.6142 58.6503C26.7137 58.7332 25.6991 58.6194 24.9951 57.9774C24.2601 57.2942 24.136 56.1867 24.3222 55.2445C24.4983 54.3752 25.1504 53.6608 25.9373 53.2777C27.169 52.6773 28.5771 52.6462 29.9228 52.6565C29.902 52.0251 30.0158 51.3522 29.695 50.7828C29.4465 50.3274 28.9186 50.1203 28.4218 50.0686C27.2725 49.9444 26.1235 50.2344 25.0468 50.607C24.954 50.1929 24.8505 49.7788 24.7572 49.3647ZM27.2934 54.1784C26.8585 54.3233 26.4549 54.6546 26.3203 55.1101C26.1754 55.638 26.2168 56.2591 26.548 56.7146C26.8897 57.1596 27.5005 57.2528 28.0284 57.1908C28.7427 57.0873 29.3948 56.6938 29.9332 56.2177C29.9124 55.4621 29.9228 54.6961 29.9228 53.9299C29.043 53.9299 28.1423 53.8782 27.2934 54.1784Z" fill="#E92E2F" stroke="#E92E2F" stroke-width="0.00971013" stroke-miterlimit="10"/>
<path d="M14.8918 48.7437C15.6164 48.7437 16.3411 48.7437 17.0657 48.7437C17.49 50.11 17.9041 51.4661 18.3287 52.8327C18.577 53.6712 18.8875 54.4993 19.0637 55.3585C19.1569 55.7415 19.2396 56.1349 19.3535 56.5076C20.2439 53.992 20.9271 51.3938 21.2791 48.7437C21.983 48.7437 22.687 48.7437 23.3907 48.7437C22.7802 52.0977 21.8173 55.3999 20.3681 58.4848C19.5399 58.4848 18.7118 58.4848 17.8836 58.4848C16.8897 55.2342 15.8856 51.9942 14.8918 48.7437Z" fill="#E92E2F" stroke="#E92E2F" stroke-width="0.00971013" stroke-miterlimit="10"/>
<path d="M32.3338 48.5558H32.0793V48.4639H32.6988V48.5558H32.443V49.3007H32.3337V48.5558H32.3338Z" fill="#E92E2F" stroke="#E92E2F" stroke-width="0.00971013" stroke-miterlimit="10"/>
<path d="M33.4972 48.9333C33.491 48.8166 33.4835 48.675 33.4835 48.572H33.481C33.4513 48.6689 33.4178 48.7744 33.3756 48.8898L33.2278 49.2959H33.1459L33.0094 48.8973C32.9696 48.7782 32.9373 48.6712 32.9137 48.5719H32.9113C32.9089 48.6763 32.9026 48.8153 32.8952 48.9419L32.8729 49.3007H32.7697L32.8281 48.4639H32.9659L33.1087 48.8686C33.1435 48.9716 33.1708 49.0636 33.193 49.1505H33.1955C33.2179 49.0661 33.2477 48.9742 33.2849 48.8686L33.4339 48.4639H33.5717L33.6239 49.3007H33.5172L33.4972 48.9333Z" fill="#E92E2F" stroke="#E92E2F" stroke-width="0.00971013" stroke-miterlimit="10"/>
</g>
<defs>
<clipPath id="clip0_1_1895">
<rect width="34" height="62" fill="white"/>
</clipPath>
</defs>
</svg>
