<svg width="71" height="48" viewBox="0 0 71 48" fill="none" xmlns="http://www.w3.org/2000/svg">
<path d="M44.9336 15.1858C44.9336 20.5146 40.7102 24.8345 35.5002 24.8345C30.2904 24.8345 26.067 20.5146 26.067 15.1858C26.067 9.85696 30.2904 5.53687 35.5002 5.53687C40.7099 5.53659 44.9336 9.85696 44.9336 15.1858Z" fill="#D33833"/>
<path d="M26.4517 17.5757C26.4517 17.5757 25.7687 7.51361 35.0403 7.22606L34.3934 6.14795L29.3622 7.83694L27.9244 9.49015L26.6666 11.8982L25.9479 14.7013L26.1633 16.57" fill="#EF3D3A"/>
<path d="M29.0394 8.60369C27.3843 10.2973 26.3602 12.6351 26.3602 15.222C26.3602 17.8083 27.3843 20.1464 29.0394 21.8398C30.6953 23.5329 32.9772 24.5777 35.5001 24.5777C38.0231 24.5777 40.3052 23.5329 41.9609 21.8398C43.616 20.1467 44.6401 17.8083 44.6401 15.222C44.6401 12.6354 43.6155 10.297 41.9609 8.60369C40.3052 6.91088 38.0231 5.86608 35.5001 5.86581C32.9775 5.86608 30.6951 6.91088 29.0394 8.60369ZM28.6205 22.2491C26.8613 20.4504 25.7742 17.964 25.7742 15.2217C25.7742 12.4789 26.8616 9.99311 28.6205 8.19407C30.3788 6.39476 32.8133 5.27951 35.5001 5.27979C38.1872 5.27951 40.6217 6.39476 42.3798 8.19407C44.139 9.99311 45.2264 12.4792 45.2264 15.2217C45.2266 17.964 44.139 20.4501 42.3798 22.2491C40.6217 24.0484 38.187 25.1634 35.5001 25.1634C32.8131 25.164 30.3791 24.0487 28.6205 22.2491Z" fill="#231F20"/>
<path d="M39.4709 15.2395L38.0334 15.4549L36.0927 15.6709L34.8351 15.7064L33.6134 15.6709L32.6789 15.3831L31.8523 14.4847L31.2054 12.6518L31.0617 12.2566L30.1991 11.9694L29.6961 11.1428L29.3367 9.95678L29.7321 8.91472L30.6666 8.59112L31.4208 8.95076L31.7805 9.74132L32.2117 9.66923L32.3553 9.48955L32.2117 8.66294L32.1756 7.62087L32.3911 6.18339L32.3829 5.36225L33.0383 4.31472L34.1879 3.48811L36.2005 2.62573L38.4286 2.94933L40.369 4.35077L41.2677 5.78798L41.8426 6.83059L41.9862 9.41773L41.5553 11.646L40.7645 13.622L40.0097 14.6646" fill="#F0D6B7"/>
<path d="M38.2492 21.4563L33.1102 21.6717V22.5344L33.5416 25.553L33.3256 25.8048L29.7322 24.5827L29.4804 24.1515L29.121 20.0909L28.295 17.6468L28.115 17.072L30.99 15.0957L31.8884 14.7361L32.679 15.7063L33.3617 16.3175L34.1522 16.5687L34.5113 16.6766L34.9428 18.5452L35.2661 18.9409L36.0927 18.6531L35.5176 19.7675L38.6444 21.2405L38.2492 21.4563Z" fill="#335061"/>
<path d="M29.7325 8.91461L30.6669 8.59101L31.4212 8.95065L31.7808 9.74121L32.212 9.66912L32.3196 9.23793L32.1042 8.41132L32.3196 6.43479L32.1402 5.35667L32.7871 4.60216L34.1883 3.488L33.7931 2.94922L31.8169 3.91946L30.9903 4.56611L30.5228 5.57241L29.8043 6.54265L29.5886 7.69258L29.7325 8.91461Z" fill="#6D6B6D"/>
<path d="M31.2057 5.53627C31.2057 5.53627 31.7448 4.20665 33.901 3.55973C36.0572 2.91281 34.0089 3.0925 34.0089 3.0925L31.6732 3.99092L30.7748 4.88935L30.3797 5.60809L31.2057 5.53627Z" fill="#DCD9D8"/>
<path d="M30.128 8.66284C30.128 8.66284 29.3732 6.14725 32.2482 5.78788L32.1403 5.35669L30.1638 5.82393L29.5887 7.6926L29.7323 8.91435L30.128 8.66284Z" fill="#DCD9D8"/>
<path d="M31.2771 12.0051L31.7476 11.5491C31.7476 11.5491 31.9601 11.5736 31.9959 11.8252C32.0319 12.0769 32.1395 14.3407 33.6846 15.5625C33.8255 15.6742 32.5347 15.3825 32.5347 15.3825L31.3847 13.5857" fill="#F7E4CD"/>
<path d="M37.8901 11.3223C37.8901 11.3223 37.974 10.233 38.2673 10.3169C38.5605 10.4007 38.5605 10.694 38.5605 10.694C38.5605 10.694 37.8484 11.1549 37.8901 11.3223Z" fill="#F7E4CD"/>
<path d="M40.8724 7.33325C40.8724 7.33325 40.2798 7.45832 40.2255 7.98017C40.1709 8.50203 40.8724 8.08804 40.9803 8.05199" fill="#F7E4CD"/>
<path d="M36.5247 7.36938C36.5247 7.36938 35.7342 7.47725 35.7342 7.97999C35.7342 8.48327 36.6326 8.44722 36.8841 8.23149" fill="#F7E4CD"/>
<path d="M31.6375 9.70515C31.6375 9.70515 30.2718 8.87854 30.1279 9.66911C29.9842 10.4597 29.6606 11.0348 30.3433 11.8611L29.8764 11.7175L29.4452 10.6036L29.3015 9.52547L30.1282 8.66309L31.0626 8.73491L31.6017 9.1661L31.6375 9.70515Z" fill="#F7E4CD"/>
<path d="M32.2838 7.44102C32.2838 7.44102 32.895 4.27878 35.9854 3.66763C38.5297 3.16462 39.8667 3.7755 40.3694 4.3506C40.3694 4.3506 38.1056 1.65559 35.9491 2.48193C33.7929 3.30853 32.2117 4.81756 32.2475 5.78808C32.309 7.44048 32.2838 7.44102 32.2838 7.44102Z" fill="#F7E4CD"/>
<path d="M40.6209 4.70966C40.6209 4.70966 39.5788 4.67361 39.5428 5.60808C39.5428 5.60808 39.5428 5.75172 39.6146 5.89536C39.6146 5.89536 40.4412 4.96089 40.9445 5.46417" fill="#F7E4CD"/>
<path d="M36.0578 5.99293C36.0578 5.99293 35.8784 4.55873 34.6558 5.39271C33.8652 5.93149 33.9371 6.68628 34.0807 6.82992C34.2243 6.97356 34.1853 7.26329 34.2948 7.06449C34.4043 6.86569 34.3683 6.21904 34.7634 6.03936C35.1588 5.85995 35.8068 5.65923 36.0578 5.99293Z" fill="#F7E4CD"/>
<path d="M32.6792 15.7064L29.3013 17.216C29.3013 17.216 30.7027 22.7862 29.984 24.5113L29.481 24.3316L29.4449 22.2114L28.5104 18.1865L28.115 17.0726L31.6366 14.7009L32.6792 15.7064Z" fill="#49728B"/>
<path d="M33.0266 18.7876L33.5059 19.3723V21.5285H32.9308C32.9308 21.5285 32.8589 20.0189 32.8589 19.8395C32.8589 19.6598 32.9308 19.0129 32.9308 19.0129" fill="#49728B"/>
<path d="M33.0391 21.8518L31.4217 21.9236L31.8892 22.247L33.0391 22.4266" fill="#49728B"/>
<path d="M38.5728 21.4921L39.9024 21.4563L40.2258 24.7627L38.8601 24.9421L38.5728 21.4921Z" fill="#335061"/>
<path d="M38.9322 21.492L40.9445 21.3841C40.9445 21.3841 41.7711 19.2997 41.7711 19.1921C41.7711 19.0842 42.4898 16.1735 42.4898 16.1735L40.8727 14.4848L40.5494 14.1975L39.687 15.0599V18.4018L38.9322 21.492Z" fill="#335061"/>
<path d="M39.8306 21.2405L38.5728 21.492L38.7525 22.4983C39.2195 22.7137 40.0103 22.1386 40.0103 22.1386" fill="#49728B"/>
<path d="M39.866 14.9518L42.3819 16.8207L42.4537 15.9581L40.549 14.1973L39.866 14.9518Z" fill="#49728B"/>
<path d="M34.2852 28.572L33.5416 25.5529L33.1713 23.3251L33.1101 21.6716L36.4775 21.4925L38.5725 21.4919L38.3819 25.2656L38.7055 28.1766L38.6695 28.7157L35.9384 28.9314L34.2852 28.572Z" fill="white"/>
<path d="M38.1053 21.4562C38.1053 21.4562 37.9256 25.1936 38.465 27.8528C38.465 27.8528 37.3868 28.5358 35.8055 28.7152L38.8241 28.6073L39.1834 28.3919L38.7522 22.4983L38.6444 21.2402" fill="#DCD9D8"/>
<path d="M40.2869 24.4755L41.6883 24.08L44.3476 23.9364L44.7427 22.7146L44.024 20.5945L43.1976 20.4863L42.0474 20.846L40.9442 21.3845L40.3587 21.2769L39.9021 21.4563" fill="white"/>
<path d="M40.2615 23.7564C40.2615 23.7564 41.196 23.3253 41.3396 23.3613L40.9445 21.3848L41.4115 21.2051C41.4115 21.2051 41.7348 23.0738 41.7348 23.2895C41.7348 23.2895 43.7471 23.3973 43.9268 23.3973C43.9268 23.3973 44.358 22.5707 44.2501 21.7084L44.6453 22.8583L44.6813 23.5052L44.1065 24.3676L43.4596 24.5112L42.3814 24.4752L42.0221 24.0082L40.7643 24.1879L40.3689 24.3315" fill="#DCD9D8"/>
<path d="M38.8494 21.205L38.0589 19.1926L37.2323 18.0069C37.2323 18.0069 37.412 17.5037 37.6635 17.5037C37.915 17.5037 38.4901 17.5037 38.4901 17.5037L39.2806 17.7909L39.2088 19.1206L38.8494 21.205Z" fill="white"/>
<path d="M39.0036 20.5219C39.0036 20.5219 37.9973 18.5814 37.9973 18.2938C37.9973 18.2938 38.177 17.8626 38.4285 17.9705C38.68 18.0784 39.219 18.3657 39.219 18.3657V17.6827L37.9973 17.4309L37.1707 17.5388L38.5721 20.8449L38.8594 20.881" fill="#DCD9D8"/>
<path d="M34.6091 15.7787L33.6137 15.6709L32.6793 15.3831V15.7064L33.1356 16.2099L34.5733 16.8569" fill="white"/>
<path d="M33.0026 15.8865C33.0026 15.8865 34.1165 16.3537 34.4761 16.2461L34.5116 16.677L33.5056 16.4619L32.8944 16.0307L33.0026 15.8865Z" fill="#DCD9D8"/>
<path d="M40.2836 17.6261C39.6738 17.6081 39.123 17.5357 38.6405 17.3997C38.6732 17.202 38.6118 17.0081 38.6612 16.8656C38.7958 16.7689 39.0211 16.7703 39.2243 16.7474C39.0484 16.6611 38.8016 16.6269 38.5987 16.6769C38.594 16.5398 38.5326 16.4546 38.4949 16.3473C38.8379 16.225 39.647 15.4227 40.1025 15.6884C40.3193 15.8148 40.4116 16.5363 40.4283 16.8874C40.4428 17.1783 40.4024 17.4718 40.2836 17.6261Z" fill="#D33833"/>
<path d="M40.2827 17.6262L40.2852 17.5399C39.6809 17.5222 39.1366 17.4503 38.6631 17.3168L38.6399 17.3998L38.7251 17.414C38.7335 17.3616 38.7365 17.3111 38.7365 17.2627C38.7365 17.1691 38.7267 17.0839 38.727 17.0134C38.727 16.9648 38.7314 16.9247 38.7426 16.8935L38.6609 16.8651L38.7114 16.935C38.7592 16.9001 38.8365 16.8771 38.9296 16.8635C39.0222 16.8496 39.1287 16.8444 39.2338 16.8326L39.5271 16.7999L39.262 16.6696C39.1276 16.6038 38.9635 16.5672 38.7999 16.5669C38.7245 16.5669 38.6497 16.5748 38.5776 16.5923L38.5981 16.6762L38.6844 16.6734C38.6819 16.5923 38.6615 16.5249 38.6388 16.4686C38.6161 16.4118 38.5921 16.3648 38.576 16.3187L38.4946 16.3471L38.5235 16.4285C38.6118 16.3962 38.709 16.3362 38.8196 16.2633C38.9848 16.1543 39.1759 16.0161 39.3665 15.9069C39.5566 15.7968 39.7458 15.7193 39.8911 15.7207C39.9547 15.7207 40.0091 15.7338 40.0585 15.7624C40.0714 15.7698 40.0891 15.7856 40.1074 15.8116C40.1399 15.8566 40.1732 15.9296 40.2013 16.0167C40.2871 16.2791 40.3311 16.6669 40.3417 16.8908C40.3433 16.9257 40.3442 16.961 40.3442 16.9959C40.3442 17.1174 40.3335 17.2357 40.3114 17.3365C40.2893 17.4375 40.2549 17.5208 40.2147 17.5727L40.2827 17.6262L40.2852 17.5399L40.2827 17.6262L40.351 17.6789C40.4143 17.5959 40.4537 17.491 40.4796 17.3744C40.505 17.2575 40.5165 17.1284 40.5165 16.9965C40.5165 16.9588 40.5157 16.9208 40.5137 16.8831C40.505 16.7032 40.4774 16.4323 40.4239 16.1852C40.3969 16.0617 40.3638 15.944 40.3209 15.8452C40.2996 15.7958 40.2756 15.7507 40.2475 15.7114C40.2191 15.6723 40.1866 15.6379 40.1451 15.6136C40.0664 15.5677 39.9788 15.5481 39.8911 15.5483C39.7562 15.5486 39.6194 15.5912 39.4834 15.6527C39.2794 15.745 39.0757 15.8818 38.8949 16.0044C38.8048 16.0656 38.7207 16.1232 38.647 16.1696C38.5735 16.216 38.5093 16.2507 38.4651 16.2663L38.3846 16.2949L38.4127 16.3755C38.434 16.4367 38.4597 16.4858 38.4779 16.5328C38.4965 16.5798 38.5093 16.6234 38.5113 16.68L38.5151 16.7862L38.618 16.7608C38.674 16.7469 38.736 16.7403 38.7988 16.7403C38.9356 16.7401 39.0784 16.7728 39.1844 16.825L39.2226 16.7474L39.2131 16.6617C39.115 16.6726 39.0069 16.6781 38.9026 16.6931C38.7983 16.7089 38.6956 16.7335 38.6093 16.7952L38.5872 16.8113L38.5784 16.8373C38.5582 16.896 38.5539 16.9552 38.5536 17.0134C38.5539 17.0975 38.5634 17.1811 38.5631 17.2627C38.5631 17.3045 38.5607 17.346 38.5541 17.3859L38.5416 17.4621L38.6158 17.4828C39.1071 17.6216 39.6645 17.6942 40.2797 17.7125L40.324 17.7139L40.3507 17.6789L40.2827 17.6262Z" fill="#D33833"/>
<path d="M37.3672 16.629C37.3655 16.6749 37.3636 16.7216 37.3617 16.7683C37.1714 16.8934 36.8642 16.8917 36.6553 16.9971C36.963 17.0108 37.2058 17.0848 37.4158 17.1894C37.4111 17.3057 37.4068 17.4215 37.4021 17.5378C37.0534 17.7768 36.7344 18.1326 36.3235 18.3565C36.1293 18.4625 35.4474 18.735 35.2407 18.6867C35.1238 18.6596 35.1132 18.5144 35.0665 18.3775C34.9668 18.0848 34.7374 17.6184 34.7178 17.1776C34.6924 16.6208 34.6361 15.6874 35.2361 15.8021C35.7202 15.8944 36.2836 16.1175 36.6583 16.3224C36.8871 16.4474 37.0195 16.6025 37.3672 16.629Z" fill="#D33833"/>
<path d="M37.3672 16.6291L37.2811 16.6258C37.2795 16.6714 37.2776 16.7179 37.2757 16.7648L37.3617 16.7684L37.3145 16.6963C37.2375 16.7474 37.1222 16.7782 36.9966 16.8061C36.8713 16.8345 36.7364 16.8601 36.6165 16.9202L36.321 17.0691L36.6517 17.0835C36.948 17.0966 37.1768 17.1671 37.377 17.2665L37.4155 17.1892L37.3295 17.1857C37.3248 17.302 37.3205 17.4183 37.3158 17.5341L37.4018 17.5377L37.353 17.4664C37.1722 17.5904 37.0034 17.7408 36.8303 17.8864C36.6569 18.0322 36.4788 18.1731 36.282 18.2807C36.2003 18.3255 36.0081 18.4096 35.8106 18.4798C35.7112 18.515 35.6102 18.5472 35.5198 18.5702C35.4297 18.5931 35.3494 18.6065 35.2989 18.6065C35.2817 18.6065 35.268 18.6048 35.2601 18.6029C35.2473 18.5994 35.2421 18.5964 35.2336 18.5879C35.2213 18.5756 35.2066 18.5456 35.1932 18.5027C35.1795 18.4601 35.167 18.4066 35.1479 18.3501C35.0963 18.1982 35.0143 18.0098 34.9433 17.805C34.8723 17.6005 34.8125 17.3809 34.8035 17.1739C34.7972 17.0387 34.7893 16.8828 34.7893 16.7266C34.789 16.5013 34.8071 16.2744 34.8639 16.1163C34.892 16.0371 34.9291 15.9767 34.9725 15.9382C35.0162 15.9 35.0654 15.8792 35.1397 15.8787C35.1637 15.8787 35.1905 15.8812 35.2197 15.8869C35.691 15.9765 36.2506 16.1977 36.6168 16.3981C36.7243 16.4563 36.8139 16.5262 36.927 16.5884C37.0395 16.6504 37.1752 16.7012 37.3609 16.7151L37.3672 16.6291L37.2811 16.6258L37.3672 16.6291L37.3737 16.5431C37.2118 16.5303 37.1075 16.4901 37.0094 16.4369C36.9119 16.3836 36.821 16.3134 36.6989 16.2465C36.3155 16.0374 35.7486 15.8123 35.2516 15.717C35.2129 15.7094 35.1754 15.7056 35.1391 15.7056C35.0283 15.705 34.9302 15.7433 34.8576 15.8085C34.7484 15.9068 34.6924 16.0513 34.6588 16.211C34.6257 16.3711 34.6165 16.5505 34.6162 16.7261C34.6162 16.8877 34.6244 17.0461 34.6304 17.181C34.641 17.4148 34.706 17.6488 34.7798 17.861C34.8532 18.0726 34.936 18.264 34.984 18.4049C35.0053 18.4667 35.0192 18.5371 35.0463 18.6051C35.0602 18.6392 35.0782 18.6734 35.1064 18.704C35.1345 18.7346 35.1744 18.7597 35.2202 18.7698C35.2454 18.7758 35.271 18.7777 35.2981 18.7777C35.3745 18.7774 35.4635 18.761 35.5616 18.7362C35.7082 18.6991 35.8723 18.642 36.0184 18.5849C36.1645 18.5276 36.2907 18.4708 36.3639 18.4312C36.578 18.3143 36.7648 18.1655 36.9406 18.0177C37.1165 17.87 37.282 17.7231 37.4499 17.6081L37.486 17.5835L37.4876 17.5401C37.492 17.4238 37.4963 17.308 37.5012 17.1917L37.5034 17.136L37.4537 17.1111C37.2347 17.0019 36.9786 16.9235 36.6585 16.9101L36.6547 16.9961L36.6935 17.0731C36.7828 17.0278 36.9059 17.0016 37.0337 16.9732C37.1618 16.9443 37.2951 16.9134 37.4087 16.8394L37.4458 16.8151L37.4477 16.7706C37.4496 16.7242 37.4515 16.6777 37.4532 16.631L37.4559 16.5486L37.3734 16.5423L37.3672 16.6291Z" fill="#D33833"/>
<path d="M37.7133 17.2937C37.6601 16.9903 37.5986 16.904 37.6221 16.6391C38.4315 16.0995 38.5834 17.5657 37.7133 17.2937Z" fill="#D33833"/>
<path d="M37.714 17.2937L37.7992 17.279C37.776 17.1468 37.7509 17.054 37.7334 16.9759C37.7154 16.8972 37.7044 16.8344 37.7044 16.7492C37.7044 16.7186 37.7061 16.685 37.7094 16.6471L37.6233 16.6392L37.6711 16.711C37.7891 16.6326 37.8841 16.605 37.9557 16.605C37.9988 16.605 38.034 16.6146 38.0646 16.6301C38.1105 16.6539 38.1479 16.6935 38.1744 16.7454C38.2009 16.797 38.2154 16.8601 38.2154 16.9232C38.2154 17.0073 38.1894 17.0889 38.1416 17.1457C38.093 17.2022 38.0264 17.2402 37.9166 17.2413C37.8666 17.2413 37.8079 17.2325 37.7399 17.2112L37.714 17.2937L37.7992 17.279L37.714 17.2937L37.6881 17.3759C37.77 17.4013 37.8462 17.4136 37.9161 17.4136C38.0698 17.4144 38.1949 17.3516 38.2735 17.2563C38.3522 17.1615 38.3874 17.0411 38.3874 16.9232C38.3871 16.8049 38.3527 16.6864 38.2806 16.5922C38.2443 16.5452 38.1987 16.5048 38.1433 16.4764C38.0881 16.448 38.0242 16.4319 37.9551 16.4319C37.8393 16.4319 37.7124 16.475 37.575 16.5668L37.5406 16.5897L37.5368 16.6307C37.5329 16.6733 37.531 16.7121 37.531 16.7481C37.531 16.8491 37.5455 16.9303 37.5644 17.0133C37.5832 17.0966 37.6067 17.1828 37.6285 17.3079L37.6375 17.3595L37.6875 17.3754L37.714 17.2937Z" fill="#D33833"/>
<path d="M38.8858 17.5398C38.8858 17.5398 38.6343 17.1801 38.8139 17.0725C38.9936 16.9647 39.1736 17.0725 39.2812 16.8928C39.389 16.7132 39.2812 16.6056 39.3172 16.3896C39.3533 16.1741 39.533 16.1378 39.7126 16.1023C39.8923 16.0662 40.3956 15.9944 40.4674 16.1741L40.252 15.5272L39.8208 15.3835L38.4554 16.1741L38.3836 16.5692V17.3598" fill="#EF3D3A"/>
<path d="M35.1118 18.7256C35.0687 18.1647 35.0231 17.6046 34.9723 17.0442C34.8964 16.2075 35.1733 16.3534 35.8986 16.3534C36.0094 16.3534 36.5804 16.4855 36.6214 16.5688C36.8175 16.9691 36.2937 16.8801 36.847 17.1821C37.3142 17.4367 38.1397 17.0273 37.9507 16.4612C37.8451 16.3351 37.4002 16.4219 37.2407 16.3392C36.96 16.1936 36.6793 16.0481 36.3983 15.9025C36.0414 15.7171 35.2156 15.447 34.8346 15.7059C33.8696 16.3621 34.8955 18.0019 35.2399 18.6863" fill="#EF3D3A"/>
<path d="M36.058 5.99305C35.0785 5.76503 34.5916 6.40294 34.2948 7.06488C34.0296 7.00071 34.135 6.63997 34.2022 6.45646C34.3775 5.97421 35.084 5.33275 35.6613 5.41959C35.91 5.45672 36.2462 5.68393 36.058 5.99305Z" fill="#231F20"/>
<path d="M40.8305 7.10864C40.8461 7.10919 40.8617 7.11001 40.8772 7.11055C41.0984 7.57042 41.2901 8.05759 41.5692 8.46338C41.3822 8.89894 40.1528 9.28453 40.1719 8.50243C40.4379 8.3861 40.8966 8.47867 41.1323 8.33039C40.996 7.956 40.7994 7.63759 40.8305 7.10864Z" fill="#231F20"/>
<path d="M36.5591 7.12061C36.7691 7.50565 36.8374 7.91007 37.1361 8.20118C37.2708 8.33225 37.5318 8.49173 37.4024 8.85602C37.3721 8.94204 37.1509 9.13374 37.0231 9.17115C36.5564 9.30878 35.4687 9.19955 35.8374 8.61789C36.2235 8.63592 36.7421 8.8683 37.0307 8.5884C36.8087 8.23394 36.4139 7.5335 36.5591 7.12061Z" fill="#231F20"/>
<path d="M40.6552 11.0331C39.9525 11.4845 39.1691 11.9752 38.0175 11.8616C37.7714 11.6475 37.6778 11.1718 37.9167 10.8572C38.0413 11.0713 37.9632 11.4645 38.3097 11.5238C38.9629 11.6358 39.7234 11.1243 40.1931 10.9454C40.4845 10.4542 40.168 10.2737 39.9053 9.95715C39.3679 9.30914 38.6469 8.50629 38.6732 7.53659C38.8903 7.37903 38.9091 7.7769 38.9405 7.84954C39.2209 8.50629 39.9274 9.34628 40.4427 9.90827C40.5694 10.0467 40.7778 10.1797 40.801 10.2709C40.8679 10.5374 40.6273 10.8564 40.6552 11.0331Z" fill="#231F20"/>
<path d="M31.3906 10.5581C31.1702 10.4325 31.1181 9.87867 30.8592 9.86283C30.4894 9.84044 30.5569 10.581 30.5585 11.0144C30.3043 10.7834 30.2595 10.0726 30.4463 9.70718C30.2333 9.60259 30.138 9.82242 30.0203 9.89997C30.1721 8.79756 31.6336 9.38904 31.3906 10.5581Z" fill="#231F20"/>
<path d="M41.1019 11.4927C40.7748 12.1153 40.3122 12.8007 39.3523 12.8209C39.3327 12.6199 39.3179 12.3138 39.3531 12.1928C40.0869 12.1224 40.5402 11.7488 41.1019 11.4927Z" fill="#231F20"/>
<path d="M36.5037 11.8962C37.1159 12.2182 38.241 12.2526 39.0731 12.2283C39.1179 12.4107 39.1165 12.6357 39.1184 12.8583C38.0488 12.9115 36.7841 12.6469 36.5037 11.8962Z" fill="#231F20"/>
<path d="M36.3874 12.4963C36.8107 13.5592 38.2656 13.4371 39.4925 13.4073C39.4388 13.5452 39.3213 13.7083 39.1758 13.7672C38.7826 13.9273 37.6982 14.0488 37.1523 13.7588C36.806 13.5747 36.5837 13.1588 36.3939 12.9152C36.303 12.7981 35.8467 12.4974 36.3874 12.4963Z" fill="#231F20"/>
<path d="M40.604 18.3593C40.1072 19.2102 39.6318 20.0841 39.0425 20.8348C39.2896 20.1084 39.3953 18.8924 39.4327 17.9653C39.9494 17.7233 40.3921 18.0196 40.604 18.3593Z" fill="#81B0C4"/>
<path d="M43.2775 21.4175C42.7213 21.5286 42.3305 22.0696 41.7879 22.0349C42.0861 21.6144 42.6085 21.4374 43.2775 21.4175Z" fill="#231F20"/>
<path d="M43.5224 22.2879C43.0688 22.3356 42.5366 22.4091 42.077 22.3714C42.2946 22.0391 43.133 22.1538 43.5224 22.2879Z" fill="#231F20"/>
<path d="M43.6796 23.0384C43.1701 23.0493 42.5371 23.0392 42.0526 22.9988C42.3388 22.6908 43.3489 22.8844 43.6796 23.0384Z" fill="#231F20"/>
<path d="M39.6448 25.0923C39.718 25.7321 39.9717 26.3806 39.9397 27.0814C39.6579 27.1761 39.4962 27.2594 39.1188 27.2589C39.0924 26.6633 39.0126 25.7528 39.0364 25.1854C39.2218 25.1971 39.4957 25.0521 39.6448 25.0923Z" fill="#DCD9D8"/>
<path d="M38.8242 15.6619C38.5683 15.829 38.3506 16.0376 38.1046 16.2157C37.5598 16.2427 37.2622 16.178 36.8621 15.865C36.8686 15.8399 36.9091 15.8511 36.9104 15.8202C37.494 16.0805 38.2351 15.7146 38.8242 15.6619Z" fill="#F0D6B7"/>
<path d="M35.7615 19.6376C35.9218 18.9434 36.5496 18.5835 37.1198 18.2012C37.7086 18.948 38.066 19.9085 38.4603 20.8356C37.5294 20.5548 36.5777 20.0993 35.7615 19.6376Z" fill="#81B0C4"/>
<path d="M39.0368 25.1849C39.0127 25.7529 39.0925 26.6631 39.1193 27.2584C39.4966 27.2589 39.6583 27.1759 39.9401 27.0809C39.9721 26.3801 39.7184 25.7319 39.6452 25.0918C39.4961 25.0522 39.2222 25.1972 39.0368 25.1849ZM33.1596 21.9563C33.4086 24.2444 33.7691 26.1677 34.4302 28.1937C35.8977 28.6393 37.6667 28.6781 38.9636 28.2759C38.7255 27.1322 38.8292 25.74 38.6902 24.5199C38.5854 23.6027 38.6389 22.6799 38.495 21.7438C36.9234 21.4172 34.7022 21.6676 33.1596 21.9563ZM38.8667 21.7583C38.8535 22.7408 38.9109 23.7103 38.9857 24.6942C39.3628 24.6374 39.6193 24.5997 39.9696 24.5227C39.8557 23.5754 39.8697 22.5095 39.6378 21.6717C39.3699 21.6747 39.134 21.669 38.8667 21.7583ZM40.7809 21.5999C40.6021 21.559 40.3934 21.5983 40.2222 21.6018C40.3025 22.4028 40.4977 23.2867 40.5663 24.1275C40.8355 24.136 40.9795 24.009 41.2006 23.9661C41.2127 23.2283 41.1365 22.2113 40.7809 21.5999ZM43.6791 24.2482C44.2403 24.112 44.5931 23.4249 44.4361 22.719C44.3309 22.2447 44.1433 21.3514 43.9424 21.0478C43.7938 20.8233 43.3918 20.5294 43.0707 20.7351C42.5483 21.0699 41.628 21.1668 41.2468 21.5718C41.4377 22.2078 41.4969 23.0816 41.5759 23.8875C42.2285 23.9282 43.0316 23.7078 43.5745 23.9416C43.1955 24.0644 42.7039 24.0655 42.3765 24.2441C42.6444 24.3733 43.2709 24.3474 43.6791 24.2482ZM38.4609 20.8358C38.0665 19.9087 37.7085 18.9483 37.1203 18.2015C36.5501 18.5838 35.9223 18.9437 35.762 19.6378C36.578 20.0993 37.5297 20.5548 38.4609 20.8358ZM39.4325 17.9652C39.3953 18.8923 39.2894 20.1081 39.0422 20.8348C39.6315 20.0841 40.107 19.2102 40.6037 18.3593C40.3921 18.0196 39.9494 17.7233 39.4325 17.9652ZM38.3311 17.5739C38.1078 17.5499 37.9183 17.8309 37.628 17.7091C37.5616 17.7826 37.501 17.8623 37.4333 17.9341C38.0745 18.7069 38.3661 19.8031 38.8612 20.7113C39.1269 19.8391 39.0963 18.8833 39.155 17.9308C38.7896 17.9546 38.587 17.601 38.3311 17.5739ZM37.6231 16.6392C37.599 16.9038 37.6607 16.9906 37.7143 17.2937C38.5837 17.5657 38.4319 16.0996 37.6231 16.6392ZM36.658 16.3224C36.2831 16.1176 35.72 15.8945 35.2358 15.8022C34.6356 15.6875 34.6918 16.6209 34.7175 17.1777C34.7374 17.6184 34.9668 18.0849 35.0662 18.3776C35.1129 18.5144 35.1236 18.6597 35.2404 18.6867C35.4472 18.7351 36.1288 18.4622 36.3232 18.3566C36.7342 18.1326 37.0529 17.7768 37.4019 17.5379C37.4062 17.4215 37.4106 17.3058 37.4155 17.1894C37.2055 17.0848 36.9633 17.0108 36.655 16.9972C36.8639 16.8921 37.1711 16.8934 37.3614 16.7683C37.3634 16.7216 37.3653 16.6755 37.3669 16.6291C37.0196 16.6026 36.8871 16.4475 36.658 16.3224ZM33.0774 15.6719C32.7664 15.9876 33.9499 16.4185 34.327 16.4415C34.3248 16.2416 34.4409 16.0532 34.4174 15.9098C33.9698 15.8314 33.3813 15.883 33.0774 15.6719ZM36.9103 15.8205C36.9087 15.8513 36.8688 15.8402 36.862 15.8653C37.2623 16.1782 37.5597 16.2427 38.1045 16.2159C38.3503 16.0376 38.5682 15.8292 38.8241 15.6621C38.2347 15.7145 37.4936 16.0805 36.9103 15.8205ZM40.4284 16.8871C40.4117 16.536 40.3194 15.8145 40.1026 15.688C39.6471 15.4223 38.838 16.2246 38.495 16.347C38.5321 16.4546 38.5938 16.5395 38.5988 16.6766C38.8014 16.6269 39.0485 16.6608 39.2244 16.747C39.0212 16.7697 38.7959 16.7681 38.6613 16.8653C38.6121 17.0078 38.6733 17.2017 38.6405 17.3994C39.1231 17.5357 39.6739 17.6081 40.2837 17.6258C40.4019 17.4718 40.4423 17.1782 40.4284 16.8871ZM32.5536 15.9772C32.4559 15.9076 31.795 15.0477 31.7044 15.0832C30.5086 15.5551 29.39 16.3705 28.3908 17.1419C29.3439 19.1865 29.7284 21.6911 29.7964 24.1054C30.8879 24.6158 31.8466 25.3517 33.3278 25.4287C33.1563 24.216 33.0001 23.1343 32.9026 21.9926C32.5304 21.8356 31.9966 22 31.6484 21.944C31.6457 21.5243 32.1803 21.7602 32.2248 21.4778C32.2584 21.2646 31.9305 21.2482 32.0372 20.9123C32.3095 21.0112 32.4526 21.2299 32.7429 21.3118C33.0083 20.7313 32.7391 19.7042 32.7776 19.2192C32.7849 19.128 32.8229 18.7146 33.0272 18.7872C33.2077 18.8514 33.0168 19.8869 33.0367 20.3462C33.0547 20.7692 32.9856 21.1786 33.1569 21.4443C34.5881 21.2496 36.0425 21.1234 37.5911 21.0808C37.2506 20.9347 36.8459 20.7962 36.4021 20.5461C36.1618 20.4107 35.4035 20.1283 35.3338 19.8997C35.223 19.5357 35.6244 19.3416 35.6932 19.0297C34.9709 19.4235 34.8297 18.6523 34.6591 18.1053C34.5042 17.6102 34.416 17.2402 34.3781 16.9549C33.7544 16.6583 33.0891 16.3579 32.5536 15.9772ZM39.7962 15.1878C40.7927 14.7047 40.9724 16.9939 40.5819 17.7312C40.6425 17.951 40.8497 18.0354 40.9344 18.2331C40.3781 19.2293 39.761 20.1592 39.1933 21.1436C39.6152 20.8809 40.2181 21.0966 40.7151 20.9C40.8967 20.8282 41.0281 20.4126 41.1654 20.08C41.5436 19.1652 41.9404 18.0119 42.1171 17.1392C42.1572 16.9404 42.2657 16.507 42.2414 16.3301C42.1979 16.013 41.7678 15.7779 41.5491 15.5818C41.146 15.2197 40.8923 14.901 40.4721 14.5627C40.3014 14.8139 39.9355 14.9827 39.7962 15.1878ZM30.2745 6.35069C29.7996 6.87309 29.8993 7.85208 29.9567 8.54843C30.8149 8.00855 31.954 8.5913 31.9433 9.50966C32.3529 9.49874 32.0965 8.99791 32.0225 8.67513C31.7803 7.62133 32.4305 6.47604 32.052 5.51262C31.3166 5.56805 30.7128 5.86817 30.2745 6.35069ZM33.6722 3.31844C32.5973 3.62319 31.2194 4.40419 30.7781 5.37007C31.12 5.32037 31.3576 5.14779 31.6951 5.12649C31.8226 5.11829 31.9897 5.18001 32.1364 5.14342C32.4286 5.07105 32.6749 4.41621 32.8953 4.17262C33.1102 3.93477 33.3682 3.83292 33.5446 3.61609C33.658 3.5612 33.8262 3.56503 33.8325 3.39463C33.7828 3.34192 33.7311 3.30178 33.6722 3.31844ZM39.2678 3.6049C38.1523 2.97518 36.2637 2.50193 35.0769 3.09342C34.1192 3.57076 32.8245 4.36078 32.3835 5.36215C32.7956 6.3283 32.2612 7.21362 32.2273 8.19424C32.2093 8.7161 32.4731 9.17186 32.4933 9.73986C32.3521 9.9728 31.9212 10.0015 31.623 9.98536C31.5225 9.48263 31.3466 8.91763 30.8291 8.86137C30.0968 8.78136 29.5612 9.38732 29.5279 10.0209C29.4886 10.7658 30.0998 12.0001 30.9668 11.9144C31.3016 11.8813 31.3838 11.5457 31.7486 11.5493C31.9463 11.9439 31.4436 12.0676 31.392 12.3497C31.3783 12.4226 31.4335 12.7074 31.4657 12.8409C31.6233 13.4914 31.9739 14.333 32.3193 14.8281C32.7576 15.4562 33.6189 15.5507 34.5457 15.6124C34.7112 15.256 35.321 15.2853 35.7181 15.3787C35.2418 15.1902 34.7994 14.7328 34.4327 14.3284C34.0113 13.8642 33.5848 13.3663 33.5629 12.7593C34.3592 13.8639 35.0171 14.8284 36.4647 15.3145C37.56 15.682 38.8399 15.1463 39.6815 14.555C40.0308 14.3093 40.2394 13.9193 40.4876 13.5627C41.4167 12.2265 41.8503 10.3191 41.7547 8.4706C41.7154 7.70816 41.7173 6.94819 41.4614 6.43535C41.1941 5.89902 40.2897 5.41895 39.7604 5.90448C39.6624 5.38291 40.2006 5.06013 40.8328 5.24801C40.3817 4.6658 39.9087 3.96645 39.2678 3.6049ZM41.3462 20.8077C42.2181 20.3743 43.847 19.6411 44.3935 20.8094C44.5953 21.2397 44.8318 21.9678 44.9364 22.4123C45.0838 23.0393 44.7763 24.3577 44.1319 24.5677C43.5625 24.7537 42.8981 24.7422 42.2124 24.6046C42.1318 24.5374 42.0417 24.4203 41.9789 24.2982C41.4893 24.2794 41.0308 24.3244 40.6441 24.5257C40.6807 24.8878 40.4358 24.9459 40.2061 25.0205C40.036 25.6955 40.5466 26.577 40.4246 27.1923C40.3372 27.6306 39.7978 27.6986 39.4013 27.7808C39.3885 28.0243 39.4185 28.2281 39.4459 28.434C39.3552 28.7679 38.9486 28.9583 38.5633 29.0047C37.2954 29.1573 35.3707 29.2256 34.1514 28.7873C33.8112 27.9525 33.5433 26.9375 33.2595 25.9845C32.0703 26.1114 31.1085 25.4713 30.2016 25.0519C29.8878 24.9063 29.4534 24.8263 29.336 24.5765C29.2221 24.3345 29.2688 23.8708 29.2404 23.4328C29.1686 22.314 29.1071 21.2351 28.8119 20.0895C28.6792 19.5756 28.4479 19.122 28.2868 18.6266C28.1377 18.1676 27.8772 17.6001 27.8095 17.1427C27.7087 16.4641 28.3477 16.4265 28.7562 16.1323C29.3878 15.6777 29.8835 15.4262 30.5673 15.0157C30.7699 14.8942 31.3805 14.5865 31.4501 14.445C31.588 14.1643 31.2131 13.768 31.1126 13.5482C30.9542 13.2 30.8712 12.9043 30.8485 12.561C30.2748 12.4704 29.8398 12.129 29.5774 11.744C29.1429 11.1069 28.8414 9.92829 29.2174 9.03123C29.2469 8.96077 29.3939 8.82178 29.4157 8.71336C29.4586 8.49982 29.3354 8.21582 29.3275 7.98862C29.2882 6.82339 29.5247 5.81901 30.3092 5.46756C30.6279 4.19884 31.7677 3.77693 32.8417 3.1464C33.2432 2.91073 33.6855 2.75999 34.1429 2.59205C35.7825 1.98855 38.2984 2.10242 39.6591 3.13165C40.2361 3.56803 41.1586 4.48967 41.4885 5.1568C42.3599 6.91815 42.2982 9.86166 41.6886 12.004C41.6067 12.2918 41.4879 12.7145 41.3219 13.0599C41.2061 13.3013 40.8467 13.7842 40.8904 13.9972C40.9355 14.2175 41.7102 14.8057 41.8765 14.9658C42.1755 15.2544 42.7441 15.6373 42.79 16.0015C42.8394 16.389 42.6193 16.9191 42.5076 17.2932C42.1332 18.5412 41.7692 19.6949 41.3462 20.8077Z" fill="#231F20"/>
<path d="M35.5302 12.168C35.5774 12.1049 35.8374 12.0096 36.2014 12.1846C36.2014 12.1846 35.7702 12.2564 35.806 12.9757L35.6263 12.9397C35.6263 12.9397 35.4403 12.2876 35.5302 12.168Z" fill="#F7E4CD"/>
<path d="M38.6804 18.3479C38.6804 18.4568 38.5919 18.5456 38.4827 18.5456C38.3734 18.5456 38.2849 18.4571 38.2849 18.3479C38.2849 18.2389 38.3734 18.1501 38.4827 18.1501C38.5916 18.1501 38.6804 18.2389 38.6804 18.3479Z" fill="#1D1919"/>
<path d="M38.8786 19.2644C38.8786 19.3733 38.7901 19.4621 38.6809 19.4621C38.5717 19.4621 38.4832 19.3736 38.4832 19.2644C38.4832 19.1554 38.5717 19.0667 38.6809 19.0667C38.7901 19.0667 38.8786 19.1551 38.8786 19.2644Z" fill="#1D1919"/>
<path d="M69.8877 44.9526C70.6292 44.4332 71 43.7005 71 42.7538C71 42.0441 70.7608 41.4597 70.2826 41.0009C69.8042 40.5421 69.0497 40.18 68.0185 39.9146C67.3503 39.7415 66.8304 39.5569 66.4587 39.3605C66.0871 39.1644 65.9014 38.8469 65.9014 38.4083C65.9014 38.0792 66.0283 37.8225 66.2823 37.6379C66.5363 37.4533 66.8853 37.361 67.3298 37.361C67.8954 37.361 68.4235 37.579 68.914 38.0145C69.4044 38.4503 69.7507 38.9681 69.9527 39.5683H70.5587L70.4203 36.6164H69.7624L69.5805 37.127C69.2804 37 68.9096 36.8834 68.4683 36.7764C68.0267 36.6696 67.5434 36.6164 67.0182 36.6164C65.9104 36.6164 65.0144 36.8673 64.3303 37.3695C63.6466 37.8717 63.3047 38.5295 63.3047 39.3433C63.3047 39.7819 63.3825 40.1601 63.5384 40.4774C63.6943 40.7947 63.9019 41.0662 64.1616 41.2912C64.4614 41.5451 64.7517 41.7314 65.0316 41.8496C65.3115 41.9679 65.6477 42.0847 66.0401 42.2003C66.4325 42.3158 66.7629 42.4138 67.0314 42.4946C67.2998 42.5755 67.5464 42.6735 67.7714 42.789C67.9735 42.8988 68.1319 43.0285 68.2474 43.1784C68.3629 43.3286 68.4205 43.5189 68.4205 43.7497C68.4205 44.1768 68.2922 44.4927 68.0352 44.6976C67.7785 44.9024 67.3875 45.0048 66.8623 45.0048C66.4642 45.0048 66.0906 44.9155 65.7413 44.7363C65.3921 44.5575 65.0821 44.3382 64.8107 44.0785C64.551 43.8188 64.3202 43.526 64.1182 43.2C63.9161 42.8739 63.7719 42.5809 63.6853 42.3215H63.0534L63.1659 45.5504H63.8413L64.101 44.9616C64.3953 45.1465 64.8093 45.321 65.3432 45.4854C65.8768 45.6498 66.4238 45.7322 66.9836 45.7322C68.178 45.7317 69.1463 45.472 69.8877 44.9526ZM62.1706 44.8054C61.9974 44.7882 61.8429 44.7593 61.7074 44.7188C61.5717 44.6784 61.4578 44.638 61.3655 44.5976C61.1924 44.5228 61.0742 44.4217 61.0105 44.2948C60.9469 44.1678 60.9152 43.9977 60.9152 43.7841V39.5424C60.9152 38.6595 60.6801 37.9512 60.2096 37.4173C59.7391 36.8837 59.0337 36.6166 58.0932 36.6166C57.7008 36.6166 57.3314 36.6658 56.9851 36.7638C56.6388 36.8621 56.3589 36.9804 56.1454 37.1188C55.9493 37.2458 55.7355 37.4102 55.5047 37.6123C55.274 37.8143 55.0776 37.9875 54.916 38.1317H54.8813V36.8766L54.7516 36.7466L50.6224 36.9716V37.6035C50.8127 37.6207 50.9872 37.6527 51.1461 37.6988C51.3048 37.745 51.4361 37.8026 51.5399 37.872C51.6898 37.9817 51.8111 38.1229 51.9034 38.2961C51.9957 38.4692 52.0418 38.6453 52.0418 38.8242V43.8622C52.0418 44.0758 52.0072 44.2489 51.9381 44.3816C51.8687 44.5143 51.7417 44.6126 51.5571 44.676C51.4534 44.7107 51.3277 44.738 51.1805 44.7582C51.0334 44.7784 50.8875 44.7942 50.7434 44.8057V45.4376H56.0064V44.8057C55.8737 44.7885 55.7379 44.7595 55.5995 44.7191C55.461 44.6787 55.3455 44.6326 55.2532 44.5807C55.1205 44.5113 55.0252 44.4089 54.9676 44.2735C54.91 44.138 54.881 43.9693 54.881 43.7672V39.118C54.9504 39.0257 55.0359 38.9189 55.1372 38.7977C55.2382 38.6765 55.3728 38.5582 55.5408 38.4427C55.7317 38.31 55.9272 38.2089 56.1268 38.1396C56.3264 38.0702 56.5419 38.0358 56.7735 38.0358C57.1959 38.0358 57.5157 38.1844 57.7325 38.4815C57.9496 38.7789 58.058 39.2215 58.058 39.8103V43.8614C58.058 44.0981 58.0321 44.277 57.9802 44.398C57.9283 44.5192 57.8417 44.6115 57.7205 44.6749C57.6397 44.7153 57.5214 44.7442 57.3655 44.7615C57.2098 44.7787 57.0768 44.7931 56.9673 44.8049V45.4368H62.1697V44.8054H62.1706ZM48.1816 32.5046C47.8468 32.193 47.4459 32.0371 46.9784 32.0371C46.5109 32.0371 46.1084 32.193 45.7709 32.5046C45.4333 32.8162 45.2646 33.1914 45.2646 33.63C45.2646 34.0685 45.4333 34.4424 45.7709 34.751C46.1084 35.0598 46.5109 35.2141 46.9784 35.2141C47.4402 35.2141 47.8397 35.0598 48.1772 34.751C48.5148 34.4424 48.6835 34.0685 48.6835 33.63C48.6838 33.1914 48.5164 32.8162 48.1816 32.5046ZM49.9476 44.8054C49.7974 44.7882 49.6532 44.7593 49.5148 44.7188C49.3763 44.6784 49.2493 44.6323 49.1338 44.5804C48.9722 44.511 48.8482 44.4059 48.7616 44.2645C48.6751 44.123 48.6316 43.9515 48.6316 43.7494V36.8761L48.5019 36.7461L44.2602 36.9711V37.603C44.4333 37.6202 44.625 37.6609 44.8358 37.7242C45.0464 37.7879 45.2037 37.8542 45.3077 37.9233C45.4462 38.0156 45.5617 38.1385 45.654 38.2911C45.7463 38.4441 45.7924 38.6216 45.7924 38.8236V43.8617C45.7924 44.0752 45.7548 44.247 45.6799 44.3767C45.6048 44.5064 45.4751 44.6061 45.2905 44.6754C45.1868 44.7158 45.0625 44.7448 44.9183 44.762C44.7741 44.7792 44.6269 44.7937 44.4768 44.8054V45.4373H49.9476V44.8054ZM44.3814 44.8054C44.1163 44.7825 43.8511 44.7246 43.586 44.6323C43.3208 44.54 43.0991 44.3584 42.9205 44.0872C42.3962 43.3084 41.8951 42.5703 41.4169 41.8723C40.9388 41.1743 40.4174 40.416 39.853 39.5967C40.1405 39.3419 40.3953 39.1292 40.6168 38.9585C40.8385 38.7879 41.0671 38.6246 41.3036 38.4686C41.6608 38.2322 41.9907 38.0432 42.2932 37.9017C42.5955 37.7603 43.0352 37.609 43.6114 37.4473V36.8501H39.214V37.4648C39.5802 37.5167 39.8544 37.5773 40.0365 37.6467C40.2187 37.716 40.3099 37.8026 40.3099 37.9064C40.3099 37.9296 40.2998 37.9916 40.2795 38.0923C40.2593 38.1931 40.1539 38.3419 39.9636 38.538C39.6408 38.8671 39.2129 39.2824 38.6796 39.7843C38.1465 40.2865 37.6667 40.7278 37.2402 41.1088V32.1756L37.1099 32.0371L32.7994 32.2621V32.894C32.9783 32.9058 33.1773 32.9344 33.3966 32.9806C33.6159 33.0267 33.7803 33.0844 33.8901 33.1537C34.0515 33.2575 34.1743 33.4121 34.2579 33.6169C34.3415 33.8217 34.3835 34.0194 34.3835 34.2097V43.8617C34.3835 44.0752 34.3502 44.2483 34.2833 44.3811C34.2164 44.5138 34.09 44.6121 33.904 44.6754C33.7937 44.7101 33.6659 44.7374 33.5206 44.7576C33.3753 44.7778 33.23 44.7937 33.0848 44.8051V45.437H38.4603V44.8051C38.3218 44.7937 38.1834 44.7705 38.0447 44.7358C37.9059 44.7011 37.785 44.661 37.6812 44.6145C37.5081 44.5512 37.3912 44.4531 37.3306 44.3202C37.27 44.1874 37.2396 44.017 37.2396 43.8095V41.9223L37.7498 41.4911C38.1187 42.0148 38.5108 42.5834 38.9262 43.1964C39.3413 43.8095 39.7997 44.5564 40.3014 45.437H44.3814V44.8054ZM32.4703 44.8054C32.2972 44.7882 32.1426 44.7593 32.0072 44.7188C31.8715 44.6784 31.7576 44.638 31.6653 44.5976C31.4922 44.5228 31.3739 44.4217 31.3103 44.2948C31.2467 44.1678 31.215 43.9977 31.215 43.7841V39.5424C31.215 38.6595 30.9799 37.9512 30.5094 37.4173C30.0388 36.8837 29.3335 36.6166 28.3927 36.6166C28.0003 36.6166 27.6311 36.6658 27.2849 36.7638C26.9386 36.8621 26.6587 36.9804 26.4451 37.1188C26.2491 37.2458 26.0353 37.4102 25.8045 37.6123C25.5738 37.8143 25.3774 37.9875 25.2157 38.1317H25.1811V36.8766L25.0511 36.7466L20.9219 36.9716V37.6035C21.1122 37.6207 21.2867 37.6527 21.4456 37.6988C21.6043 37.745 21.7356 37.8026 21.8394 37.872C21.9893 37.9817 22.1106 38.1229 22.2029 38.2961C22.2952 38.4692 22.3413 38.6453 22.3413 38.8242V43.8622C22.3413 44.0758 22.3066 44.2489 22.2376 44.3816C22.1682 44.5143 22.0412 44.6126 21.8566 44.676C21.7528 44.7107 21.6272 44.738 21.48 44.7582C21.3328 44.7784 21.187 44.7942 21.0428 44.8057V45.4376H26.3059V44.8057C26.1732 44.7885 26.0374 44.7595 25.899 44.7191C25.7605 44.6787 25.645 44.6326 25.5527 44.5807C25.42 44.5113 25.3247 44.4089 25.2671 44.2735C25.2095 44.138 25.1805 43.9693 25.1805 43.7672V39.118C25.2499 39.0257 25.3354 38.9189 25.4367 38.7977C25.5377 38.6765 25.6723 38.5582 25.8403 38.4427C26.0314 38.31 26.2267 38.2089 26.4263 38.1396C26.6259 38.0702 26.8414 38.0358 27.0729 38.0358C27.4954 38.0358 27.8152 38.1844 28.032 38.4815C28.2491 38.7789 28.3575 39.2215 28.3575 39.8103V43.8614C28.3575 44.0981 28.3316 44.277 28.2797 44.398C28.2278 44.5192 28.1412 44.6115 28.02 44.6749C27.9392 44.7153 27.8209 44.7442 27.665 44.7615C27.5091 44.7787 27.3763 44.7931 27.2668 44.8049V45.4368H32.4692V44.8054H32.4703ZM14.1274 40.1137C14.1504 39.1385 14.2948 38.4258 14.5602 37.9755C14.8257 37.5254 15.1804 37.3001 15.625 37.3001C15.8847 37.3001 16.0996 37.3695 16.27 37.508C16.4401 37.6464 16.5742 37.8515 16.6725 38.1227C16.7591 38.3537 16.8197 38.6508 16.8544 39.0143C16.8891 39.3777 16.9063 39.7327 16.9063 40.079L14.1274 40.1137ZM19.5548 42.8922C19.249 43.3483 18.8795 43.7248 18.4467 44.022C18.0139 44.3193 17.5261 44.4679 16.9838 44.4679C15.9912 44.4679 15.267 44.1593 14.8112 43.5416C14.3552 42.9242 14.1274 42.0238 14.1274 40.8409H19.9792V40.2783C19.9792 39.7879 19.9041 39.319 19.7542 38.8717C19.604 38.4244 19.3648 38.0364 19.0357 37.7073C18.6952 37.361 18.2654 37.0899 17.746 36.8935C17.2266 36.6975 16.563 36.5992 15.755 36.5992C15.0163 36.5992 14.3483 36.7261 13.7511 36.9801C13.1539 37.2341 12.6588 37.5658 12.2664 37.9755C11.8682 38.3968 11.561 38.8772 11.3445 39.4168C11.1282 39.9564 11.0198 40.5205 11.0198 41.109C11.0198 41.7611 11.1192 42.3657 11.3185 42.9225C11.5176 43.4796 11.8191 43.9627 12.2232 44.3726C12.6271 44.7825 13.1394 45.1083 13.7599 45.3508C14.38 45.5932 15.1176 45.7142 15.9715 45.7142C16.4852 45.7142 16.9396 45.658 17.335 45.5455C17.7301 45.433 18.1212 45.2672 18.5079 45.0476C18.8713 44.8398 19.196 44.5902 19.4817 44.2989C19.7673 44.0075 20.0112 43.6973 20.2132 43.3682L19.5548 42.8922ZM9.94632 33.154H3.3848V33.829C3.54701 33.8523 3.75154 33.8899 3.99813 33.9418C4.24445 33.9937 4.45472 34.0573 4.62867 34.1324C4.87226 34.2365 5.02573 34.3577 5.08963 34.4962C5.15353 34.6349 5.18548 34.808 5.18548 35.0161V41.9553C5.18548 42.9602 4.98722 43.7112 4.59071 44.2076C4.1942 44.7044 3.64887 44.9526 2.95443 44.9526C2.77502 44.9526 2.59861 44.9122 2.42493 44.8314C2.25125 44.7505 2.13847 44.6525 2.08632 44.537V44.4245C2.41537 44.159 2.70811 43.869 2.96508 43.5544C3.22177 43.2401 3.35039 42.898 3.35039 42.5288C3.35039 42.0959 3.20184 41.7325 2.90473 41.4381C2.60735 41.1437 2.20784 40.9965 1.70592 40.9965C1.17478 40.9965 0.758064 41.1727 0.454948 41.5247C0.151558 41.8767 0 42.321 0 42.8578C0 43.7639 0.330424 44.4766 0.991273 44.996C1.65212 45.5154 2.52215 45.7751 3.60108 45.7751C4.22424 45.7751 4.81 45.6869 5.35834 45.511C5.90668 45.3349 6.40286 45.0736 6.84716 44.727C7.28572 44.3748 7.63062 43.9389 7.88158 43.419C8.13253 42.8993 8.25815 42.3275 8.25815 41.7038V34.9296C8.25815 34.7217 8.29147 34.5369 8.35782 34.3752C8.42418 34.2135 8.57547 34.101 8.81223 34.0374C9.0143 33.9855 9.1959 33.9451 9.35756 33.9162C9.51895 33.8872 9.71529 33.8583 9.94605 33.8293L9.94632 33.154Z" fill="black"/>
</svg>
