<svg width="65" height="48" viewBox="0 0 65 48" fill="none" xmlns="http://www.w3.org/2000/svg">
<g clip-path="url(#clip0_1_2302)">
<path d="M1.7985 42.0542C1.97616 41.8543 2.15374 41.6544 2.35364 41.4545C2.55354 41.2324 2.73138 41.0326 2.90878 40.8329C3.08644 40.6106 3.26401 40.4107 3.4197 40.2331C3.57539 40.0556 3.73054 39.8779 3.84148 39.7447H5.99557C5.57361 40.2331 5.15166 40.7218 4.72988 41.1658C4.33016 41.61 3.88605 42.0764 3.39746 42.5649C3.66525 42.8157 3.9174 43.0827 4.1525 43.3643C4.41886 43.6752 4.66315 43.9859 4.90754 44.2968C5.14969 44.6084 5.3721 44.9348 5.57361 45.2741C5.77352 45.6072 5.95136 45.8957 6.08454 46.1623H3.99717C3.86381 45.9402 3.70839 45.7181 3.55297 45.4739C3.39049 45.2047 3.21247 44.9452 3.0198 44.6968C2.83928 44.4304 2.63893 44.1781 2.42045 43.9418C2.2435 43.7203 2.04235 43.5191 1.82083 43.3422V46.1401H0V36.969L1.82083 36.6802V42.0542" fill="black"/>
<path d="M12.4131 45.9402C12.0197 46.0499 11.619 46.1315 11.2141 46.1845C10.7077 46.2672 10.1948 46.3044 9.68163 46.2954C9.2126 46.3125 8.74491 46.2371 8.305 46.0736C7.63142 45.8191 7.14193 45.2282 7.01706 44.5191C6.9264 44.1258 6.88165 43.7234 6.8837 43.3198V39.7447H8.70472V43.0978C8.70472 43.6752 8.77144 44.0971 8.92686 44.3637C9.08228 44.6302 9.37088 44.7634 9.79284 44.7634C9.93388 44.7665 10.0749 44.7591 10.2148 44.7411C10.3702 44.7189 10.4813 44.7189 10.6145 44.6966V39.7446H12.4353L12.4131 45.9402Z" fill="black"/>
<path d="M18.2539 42.898C18.2539 41.7213 17.8319 41.1439 16.9658 41.1439C16.7787 41.1441 16.5924 41.1664 16.4106 41.2103C16.2549 41.248 16.1054 41.3079 15.9666 41.388V44.6968C16.0553 44.7191 16.1665 44.7191 16.2997 44.7413C16.4329 44.7413 16.5883 44.7636 16.7439 44.7636C17.1812 44.7833 17.6017 44.5936 17.8764 44.2526C18.142 43.8521 18.2742 43.378 18.2539 42.898ZM20.097 42.9424C20.1063 43.4182 20.0311 43.8919 19.8748 44.3414C19.7411 44.7397 19.5213 45.1036 19.231 45.4072C18.9284 45.699 18.5745 45.9324 18.1872 46.0957C17.7304 46.2536 17.249 46.3288 16.7659 46.3176C16.544 46.3176 16.3218 46.2954 16.0775 46.2734C15.8333 46.2514 15.6113 46.2289 15.367 46.2065C15.1448 46.1845 14.9228 46.14 14.7006 46.0955C14.5107 46.0629 14.3247 46.0109 14.1455 45.9401V36.9688L15.9665 36.6802V39.8778C16.1732 39.788 16.3891 39.721 16.6104 39.6779C16.8446 39.6327 17.0826 39.6105 17.3211 39.6115C17.7338 39.6039 18.1432 39.6872 18.5201 39.8556C18.8641 40.0054 19.1684 40.2335 19.4085 40.5219C19.6639 40.8327 19.846 41.1969 19.9414 41.5877C20.0421 42.0324 20.0943 42.4866 20.097 42.9424Z" fill="black"/>
<path d="M21.1849 43.0091C21.1728 42.5004 21.2635 41.9943 21.4513 41.5214C21.6118 41.1259 21.8453 40.7643 22.1397 40.4553C22.412 40.169 22.7462 39.9487 23.1167 39.8115C23.4829 39.6611 23.8755 39.5855 24.2714 39.5892C25.0767 39.5523 25.8597 39.8591 26.4255 40.4331C26.9584 40.9882 27.2248 41.8102 27.2248 42.8758C27.2279 42.9947 27.2205 43.1136 27.2028 43.2313C27.2028 43.3422 27.1806 43.4532 27.1806 43.5644H23.0498C23.0864 43.925 23.2818 44.2506 23.5829 44.4526C23.9527 44.6903 24.3874 44.8066 24.8264 44.7857C25.1543 44.7902 25.4817 44.7605 25.8035 44.697C26.077 44.651 26.3449 44.5766 26.603 44.4748L26.8471 45.9626C26.7584 46.007 26.6252 46.0515 26.4476 46.118C26.268 46.1784 26.0813 46.2158 25.8923 46.2291C25.6798 46.2726 25.4648 46.3022 25.2484 46.3178C25.0263 46.34 24.7823 46.3623 24.5599 46.3623C24.0439 46.3742 23.5307 46.2837 23.0499 46.0959C22.6531 45.9382 22.2911 45.7043 21.9841 45.4074C21.7098 45.0958 21.4988 44.7338 21.3626 44.3416C21.2461 43.9071 21.1862 43.4592 21.1847 43.0092M25.4704 42.2986C25.4644 42.1467 25.4344 41.9968 25.3814 41.8544C25.3375 41.7109 25.27 41.5759 25.1815 41.4547C24.9678 41.1853 24.6367 41.0364 24.2933 41.0549C24.1098 41.0551 23.9284 41.0928 23.7601 41.1659C23.6211 41.223 23.4988 41.3148 23.4051 41.4324C23.3053 41.5497 23.2297 41.6856 23.1828 41.8321C23.1353 41.9774 23.0983 42.1258 23.0718 42.2763H25.4702" fill="black"/>
<path d="M32.4878 41.3438C32.299 41.2898 32.1058 41.2526 31.9104 41.2326C31.6763 41.1874 31.4384 41.1651 31.1999 41.1659C31.0585 41.1731 30.9176 41.188 30.7779 41.2104C30.6584 41.2265 30.5399 41.2487 30.4227 41.2771V46.1847H28.6017V40.0779C28.9796 39.95 29.3653 39.8462 29.7564 39.767C30.2443 39.6558 30.7439 39.6037 31.2442 39.6116C31.363 39.6092 31.4819 39.6165 31.5994 39.6336C31.7409 39.6385 31.8819 39.6534 32.0214 39.6781C32.1547 39.7003 32.2879 39.7226 32.4433 39.7448C32.5765 39.767 32.7099 39.8115 32.7986 39.8335L32.4878 41.3438Z" fill="black"/>
<path d="M33.7754 39.9668C34.6668 39.7316 35.5849 39.6122 36.5069 39.6116C36.9688 39.5923 37.4298 39.6679 37.8615 39.8335C38.2009 39.9478 38.501 40.1557 38.7275 40.4331C38.9366 40.7111 39.0876 41.0282 39.1717 41.3657C39.2648 41.7585 39.3095 42.1612 39.3049 42.5649V46.1845H37.4839V42.7873C37.4839 42.2099 37.4174 41.7879 37.262 41.5436C37.1066 41.2993 36.8178 41.1884 36.3958 41.1884C36.2548 41.1853 36.1138 41.1927 35.9739 41.2106C35.8396 41.2132 35.7059 41.2281 35.5743 41.2551V46.2071H33.7755V39.9672" fill="black"/>
<path d="M40.6593 43.0091C40.6472 42.5004 40.7378 41.9943 40.9256 41.5214C41.0861 41.1259 41.3197 40.7643 41.6141 40.4553C41.8864 40.169 42.2206 39.9487 42.5912 39.8115C42.9574 39.6611 43.3501 39.5855 43.746 39.5892C44.5512 39.5523 45.3342 39.8591 45.9001 40.4331C46.4328 40.9882 46.6993 41.8102 46.6993 42.8758C46.7024 42.9947 46.6949 43.1136 46.6771 43.2313C46.6771 43.3422 46.6548 43.4532 46.6548 43.5644H42.5245C42.5611 43.925 42.7565 44.2506 43.0577 44.4526C43.4274 44.6902 43.8619 44.8066 44.3009 44.7857C44.6289 44.7902 44.9565 44.7605 45.2783 44.697C45.5517 44.651 45.8196 44.5765 46.0775 44.4748L46.3218 45.9626C46.2332 46.007 46.0997 46.0515 45.9221 46.118C45.7425 46.1784 45.556 46.2157 45.367 46.2291C45.1544 46.2726 44.9393 46.3022 44.7229 46.3178C44.501 46.34 44.2567 46.3623 44.0346 46.3623C43.5186 46.3742 43.0053 46.2837 42.5246 46.0959C42.1277 45.9382 41.7657 45.7043 41.4588 45.4074C41.1844 45.0958 40.9732 44.7338 40.8369 44.3416C40.7205 43.9069 40.6608 43.459 40.6593 43.0091ZM44.945 42.2986C44.9391 42.1467 44.9092 41.9968 44.8563 41.8544C44.8124 41.7109 44.7449 41.5759 44.6564 41.4547C44.4426 41.1853 44.1115 41.0363 43.768 41.0549C43.5847 41.0551 43.4033 41.0929 43.2351 41.1659C43.096 41.223 42.9737 41.3148 42.8799 41.4324C42.7802 41.5497 42.7047 41.6856 42.6579 41.8321C42.6104 41.9774 42.5734 42.1258 42.5469 42.2763H44.9451" fill="black"/>
<path d="M48.0547 38.1458L49.8755 37.8572V39.7447H52.0519V41.2547H49.8755V43.5198C49.8603 43.8356 49.9293 44.1497 50.0754 44.4302C50.2088 44.6525 50.4974 44.7635 50.8971 44.7635C51.0976 44.7597 51.2978 44.7449 51.4967 44.719C51.6931 44.6833 51.8863 44.6313 52.0741 44.5636L52.3405 45.9847C52.1049 46.085 51.8593 46.1595 51.6077 46.2068C51.2792 46.2756 50.9437 46.3054 50.6083 46.2955C50.1851 46.3071 49.7634 46.2394 49.365 46.0959C49.0659 45.9744 48.7996 45.7842 48.5876 45.5405C48.3818 45.28 48.2375 44.9764 48.1656 44.6523C48.0913 44.2794 48.0542 43.9 48.0547 43.5198V38.1458Z" fill="black"/>
<path d="M52.9843 43.0091C52.9723 42.5004 53.063 41.9943 53.2508 41.5214C53.4113 41.1259 53.6448 40.7643 53.9391 40.4553C54.2114 40.169 54.5456 39.9487 54.9162 39.8115C55.2825 39.6611 55.6751 39.5855 56.071 39.5892C56.8762 39.5523 57.6592 39.8591 58.2251 40.4331C58.758 40.9882 59.0243 41.8102 59.0243 42.8758C59.0274 42.9947 59.0199 43.1136 59.0021 43.2313C59.0021 43.3422 58.9799 43.4532 58.9799 43.5644H54.8495C54.8861 43.925 55.0816 44.2506 55.3827 44.4526C55.7524 44.6902 56.1869 44.8066 56.626 44.7857C56.954 44.7902 57.2815 44.7605 57.6033 44.697C57.8767 44.651 58.1446 44.5765 58.4026 44.4748L58.6469 45.9626C58.5582 46.007 58.4248 46.0515 58.2472 46.118C58.0675 46.1784 57.881 46.2157 57.692 46.2291C57.4795 46.2726 57.2644 46.3022 57.0482 46.3178C56.8259 46.34 56.5819 46.3623 56.3597 46.3623C55.8437 46.3742 55.3304 46.2837 54.8497 46.0959C54.4528 45.9382 54.0908 45.7043 53.7839 45.4074C53.5096 45.0958 53.2985 44.7338 53.1623 44.3416C53.0348 43.9091 52.9748 43.4598 52.9843 43.0091ZM57.248 42.2986C57.242 42.1467 57.212 41.9968 57.159 41.8544C57.1151 41.7109 57.0476 41.5759 56.9591 41.4547C56.7454 41.1853 56.4143 41.0364 56.0709 41.0549C55.8874 41.0551 55.706 41.0928 55.5377 41.1659C55.3986 41.223 55.2763 41.3148 55.1825 41.4324C55.0828 41.5497 55.0074 41.6856 54.9606 41.8321C54.9132 41.9774 54.876 42.1258 54.8494 42.2763H57.2478" fill="black"/>
<path d="M62.2445 44.8523C62.485 44.87 62.7266 44.8398 62.9553 44.7636C63.0912 44.6887 63.1696 44.5403 63.1549 44.3858C63.1549 44.2304 63.0662 44.1195 62.8885 44.0085C62.629 43.8535 62.3535 43.7269 62.0669 43.6308C61.7783 43.5198 61.5117 43.4089 61.2898 43.2977C61.0773 43.196 60.8824 43.061 60.7123 42.898C60.5491 42.7327 60.4207 42.5364 60.3348 42.3206C60.2402 42.0651 60.195 41.7938 60.2016 41.5214C60.1768 40.9669 60.4257 40.4356 60.8677 40.1001C61.3119 39.7448 61.9338 39.5669 62.711 39.5669C63.091 39.5698 63.4701 39.607 63.8435 39.678C64.1319 39.722 64.4148 39.7965 64.6874 39.9003L64.3764 41.3215C64.1542 41.2547 63.9322 41.1881 63.6879 41.1215C63.4192 41.0554 63.1429 41.0255 62.8664 41.0326C62.289 41.0326 62.0225 41.188 62.0225 41.4988C62.0266 41.5674 62.0416 41.6349 62.0669 41.6988C62.0981 41.7733 62.1527 41.8357 62.2224 41.8765C62.2891 41.921 62.4 41.9874 62.5111 42.0542C62.6443 42.1206 62.7997 42.1651 62.9996 42.2541C63.3433 42.377 63.6773 42.5253 63.9989 42.6981C64.2322 42.8051 64.4375 42.9647 64.5985 43.1645C64.7518 43.317 64.8595 43.5093 64.9094 43.7197C64.9758 43.9505 65.0058 44.1902 64.9982 44.4302C65.0268 45.002 64.758 45.5478 64.2875 45.8738C63.8213 46.2068 63.155 46.3622 62.2668 46.3622C61.7882 46.3769 61.3098 46.3246 60.8456 46.2067C60.579 46.1516 60.3186 46.0697 60.0684 45.9624L60.3792 44.4747C60.69 44.5942 61.0091 44.6907 61.3341 44.7633C61.6333 44.8271 61.9387 44.8568 62.2445 44.8523Z" fill="black"/>
<path d="M35.6972 20.444C35.6503 20.4348 35.6026 20.4311 35.5549 20.4331C35.4725 20.4375 35.3919 20.4584 35.3178 20.4947C35.0189 20.6389 34.8867 20.9928 35.0177 21.2976L35.0133 21.3038L36.4324 24.7319C37.7899 23.8655 38.8199 22.5715 39.3598 21.0544L35.7033 20.4365L35.6972 20.444ZM30.0076 20.9299C29.9443 20.6518 29.6991 20.453 29.414 20.4484C29.3731 20.4479 29.3321 20.4515 29.292 20.4593L29.2858 20.4517L25.6611 21.0672C26.2054 22.5724 27.2313 23.8559 28.5795 24.7186L29.984 21.3246L29.9731 21.3112C30.0251 21.191 30.0372 21.0573 30.0076 20.9299ZM33.0433 22.2609C32.8818 21.9598 32.5067 21.8468 32.2056 22.0083C32.0979 22.066 32.0098 22.1545 31.9522 22.2624H31.9494L30.167 25.4856C31.4432 25.92 32.8153 25.9907 34.1294 25.6894C34.3731 25.6339 34.6112 25.5674 34.8436 25.4899L33.0568 22.2609H33.0433ZM38.6861 14.7738L35.9437 17.2281L35.9451 17.236C35.6874 17.4613 35.6612 17.8528 35.8865 18.1105C35.9663 18.2018 36.0711 18.2676 36.1881 18.3L36.1913 18.3148L39.7439 19.3381C39.8973 17.7421 39.526 16.1396 38.6861 14.7738ZM33.591 15.0485C33.6068 15.3905 33.8968 15.6549 34.2387 15.639C34.3599 15.6334 34.4768 15.5924 34.575 15.521L34.5859 15.5257L37.5869 13.3979C36.4445 12.279 34.9662 11.5664 33.3794 11.3696L33.5879 15.0475L33.591 15.0485ZM30.413 15.5347C30.6896 15.7358 31.0767 15.6746 31.2778 15.3981C31.3494 15.2995 31.3903 15.1822 31.3955 15.0605L31.4107 15.0533L31.6192 11.3696C31.3674 11.3998 31.1175 11.4428 30.8702 11.4985C29.5547 11.7943 28.3483 12.4518 27.3867 13.3968L30.4072 15.538L30.413 15.5347ZM28.8029 18.3181C29.1327 18.2281 29.3271 17.8877 29.2371 17.558C29.2049 17.44 29.1384 17.3341 29.0461 17.2538L29.049 17.2393L26.2914 14.7727C25.45 16.142 25.0889 17.7527 25.2651 19.3501L28.8001 18.33L28.8029 18.3181ZM31.4813 19.4016L32.4985 19.8906L33.5129 19.4026L33.7648 18.3076L33.063 17.4298H31.9332L31.2292 18.3062L31.4813 19.4016Z" fill="#326CE5"/>
<path d="M49.3162 21.5589L46.4173 8.96764C46.2595 8.30809 45.8141 7.75411 45.2039 7.4581L33.4702 1.8559C32.8543 1.56203 32.1386 1.56203 31.5226 1.8559L19.7914 7.46096C19.1809 7.7567 18.7355 8.31077 18.5776 8.9705L15.6834 21.5614C15.6121 21.8796 15.6118 22.2097 15.6827 22.528C15.7036 22.625 15.731 22.7206 15.7646 22.814C15.8212 22.9734 15.8961 23.1256 15.9879 23.2676C16.0277 23.3284 16.0697 23.3874 16.1153 23.4446L24.2356 33.5407C24.2711 33.5845 24.3102 33.6247 24.3489 33.6656C24.4762 33.8012 24.6201 33.9204 24.7771 34.0204C24.9756 34.1453 25.1921 34.2395 25.4188 34.2995C25.6048 34.3504 25.7966 34.3769 25.9893 34.378H26.1157L39.0114 34.3752C39.0898 34.3748 39.168 34.3702 39.2459 34.3614C39.3577 34.3487 39.4682 34.3276 39.5768 34.2984C39.6547 34.278 39.7314 34.2534 39.8066 34.2249C39.8653 34.2025 39.9239 34.18 39.9803 34.1529C40.0651 34.1124 40.1473 34.0666 40.2265 34.0161C40.4309 33.8876 40.6128 33.7266 40.7651 33.5394L41.0127 33.2317L48.8825 23.4415C49.0334 23.2523 49.1519 23.0395 49.2333 22.8116C49.2673 22.718 49.2951 22.6221 49.3165 22.5249C49.3876 22.2066 49.3874 21.8765 49.3158 21.5583V21.5589H49.3162ZM37.1456 26.456C37.1786 26.5529 37.2176 26.6475 37.2625 26.7394C37.1908 26.865 37.1713 27.0138 37.2082 27.1535C37.379 27.5446 37.5875 27.9181 37.8309 28.2685C37.9671 28.4476 38.0928 28.6344 38.2074 28.8281C38.2356 28.8806 38.2725 28.9616 38.2993 29.0171C38.4996 29.3513 38.391 29.7846 38.0569 29.985C37.7227 30.1853 37.2893 30.0767 37.089 29.7425C37.0652 29.7028 37.0454 29.6608 37.0297 29.6172C37.0029 29.5622 36.9657 29.4891 36.9428 29.4373C36.8626 29.2269 36.7946 29.012 36.739 28.7937C36.6173 28.3853 36.4559 27.9898 36.2572 27.6128C36.1708 27.4963 36.0421 27.4181 35.8988 27.3953C35.8764 27.3565 35.7932 27.2041 35.7486 27.1252C33.6598 27.9163 31.3529 27.9104 29.2682 27.1086L29.1093 27.3968C28.9958 27.4144 28.8904 27.4656 28.8067 27.5441C28.5672 27.937 28.3842 28.3617 28.263 28.8056C28.2079 29.024 28.1402 29.2389 28.0602 29.4493C28.0378 29.5007 28.0001 29.5731 27.9733 29.6278V29.6292L27.9722 29.6306C27.8414 29.9975 27.4379 30.1887 27.0711 30.0579C26.7043 29.927 26.513 29.5235 26.6439 29.1568C26.6598 29.1123 26.6801 29.0695 26.7046 29.029C26.731 28.9733 26.7665 28.8926 26.7943 28.84C26.9089 28.6459 27.0346 28.4585 27.1708 28.2789C27.4186 27.9192 27.6314 27.5366 27.8065 27.1365C27.8251 27.0008 27.8033 26.8627 27.7439 26.7394L27.8717 26.4331C25.9498 25.2988 24.5093 23.5004 23.822 21.3771L23.5162 21.4292C23.3975 21.345 23.2575 21.2957 23.1122 21.287C22.6935 21.3671 22.2836 21.4877 21.8883 21.6471C21.6829 21.7395 21.4726 21.8201 21.258 21.8885C21.2074 21.9023 21.1342 21.9164 21.0764 21.9291C21.0716 21.9305 21.0677 21.9328 21.063 21.9338C21.0594 21.9344 21.0557 21.9347 21.0521 21.9349C20.6824 22.0566 20.284 21.8555 20.1622 21.4857C20.0406 21.116 20.2416 20.7175 20.6114 20.5959C20.6534 20.582 20.6966 20.5722 20.7404 20.5665L20.7505 20.564L20.7567 20.5622C20.8154 20.5484 20.8906 20.5289 20.9442 20.5188C21.1675 20.4878 21.3924 20.4697 21.6178 20.4645C22.0431 20.4367 22.4647 20.3675 22.8765 20.2578C22.9986 20.1801 23.1017 20.076 23.1784 19.9534L23.4723 19.8676C23.1533 17.6515 23.6637 15.3957 24.9055 13.5327L24.6803 13.3322C24.6721 13.1865 24.6232 13.046 24.5391 12.9268C24.2157 12.6488 23.8659 12.403 23.4948 12.193C23.2944 12.0908 23.1 11.9772 22.9126 11.8527C22.87 11.8208 22.8135 11.773 22.7671 11.7354L22.7566 11.7281C22.4241 11.4893 22.3469 11.0267 22.5839 10.6928C22.7203 10.5258 22.9283 10.4339 23.1435 10.4452C23.3222 10.4529 23.4938 10.5176 23.6329 10.6298C23.6807 10.6674 23.7462 10.7175 23.7886 10.754C23.9521 10.9086 24.1066 11.0725 24.2512 11.2448C24.5382 11.56 24.8552 11.8466 25.1979 12.1003C25.3262 12.1678 25.4759 12.1823 25.6149 12.1408C25.6551 12.1705 25.7909 12.2675 25.8683 12.3207C27.1023 11.0091 28.7001 10.0963 30.4566 9.69946C30.8747 9.60478 31.2989 9.53957 31.7262 9.50438L31.7428 9.20756C31.8518 9.11065 31.931 8.98452 31.9708 8.84411C31.9862 8.41804 31.9599 7.99153 31.8927 7.57064C31.848 7.35002 31.8159 7.12707 31.7967 6.90278C31.7949 6.85178 31.7978 6.78112 31.7985 6.72289C31.7985 6.71637 31.7967 6.70985 31.7967 6.70332C31.7571 6.31549 32.0393 5.96901 32.4272 5.92935C32.815 5.88969 33.1615 6.17204 33.2011 6.55978C33.206 6.60721 33.206 6.65509 33.2012 6.70261C33.2012 6.76415 33.2049 6.84597 33.2026 6.90242C33.1834 7.12662 33.1513 7.34948 33.1064 7.56993C33.0386 7.99099 33.0119 8.4176 33.0267 8.84375C33.0545 8.98622 33.1368 9.11225 33.2562 9.19488C33.2587 9.24552 33.267 9.41497 33.2731 9.5084C35.493 9.71027 37.5643 10.711 39.102 12.3247L39.3692 12.1339C39.5127 12.1586 39.6604 12.1425 39.7952 12.0876C40.1378 11.8335 40.4548 11.5466 40.7419 11.2311C40.8869 11.0586 41.0417 10.8947 41.2056 10.7402C41.2486 10.7034 41.3138 10.6537 41.3612 10.6161C41.6389 10.3423 42.0857 10.3454 42.3595 10.623C42.6333 10.9007 42.6302 11.3475 42.3525 11.6213C42.3171 11.6562 42.2781 11.6873 42.2362 11.714C42.1891 11.7521 42.1268 11.8052 42.0815 11.8389C41.8938 11.9635 41.6989 12.0771 41.498 12.1792C41.1269 12.3893 40.7772 12.6351 40.4536 12.913C40.3594 13.0233 40.3122 13.1661 40.3219 13.3108C40.2828 13.3467 40.1456 13.4683 40.0729 13.5342C41.3181 15.3905 41.8387 17.6393 41.5357 19.854L41.8191 19.9365C41.8899 20.0641 41.9949 20.1696 42.1221 20.2413C42.534 20.3509 42.9557 20.4204 43.3811 20.4483C43.6064 20.4535 43.8312 20.4714 44.0544 20.5023C44.1134 20.5132 44.1988 20.5366 44.2589 20.5504C44.6448 20.6015 44.9162 20.9557 44.8651 21.3416C44.814 21.7275 44.4597 21.9989 44.0739 21.9478C44.0306 21.942 43.988 21.9323 43.9466 21.9187L43.9365 21.9173C43.9318 21.9162 43.9275 21.9136 43.9227 21.9126C43.8649 21.8999 43.7921 21.8872 43.7414 21.8738C43.527 21.8049 43.3166 21.7237 43.1115 21.6306C42.7158 21.471 42.3056 21.3504 41.8865 21.2704C41.7415 21.2658 41.6004 21.3182 41.4934 21.4163C41.3938 21.3973 41.2937 21.3798 41.1933 21.3638C40.5144 23.5003 39.0738 25.3125 37.1456 26.456Z" fill="#326CE5"/>
<path d="M44.2591 20.5503C44.199 20.5366 44.1136 20.5131 44.0549 20.5022C43.8317 20.4713 43.6069 20.4531 43.3816 20.4479C42.9561 20.42 42.5343 20.3508 42.1223 20.2412C41.9951 20.1695 41.8901 20.064 41.8193 19.9364L41.5359 19.8539C41.8389 17.6393 41.3186 15.3904 40.0734 13.5341C40.1458 13.4682 40.2834 13.3467 40.3221 13.3108C40.3123 13.1661 40.3597 13.0232 40.4538 12.9129C40.7773 12.635 41.127 12.3893 41.4982 12.1791C41.6991 12.077 41.894 11.9634 42.0817 11.8388C42.127 11.8051 42.1889 11.7519 42.2363 11.7139C42.5655 11.505 42.6629 11.0689 42.4541 10.7397C42.2452 10.4106 41.809 10.3131 41.4799 10.5219C41.4373 10.549 41.3977 10.5805 41.3618 10.616C41.314 10.6536 41.2489 10.7033 41.2061 10.7402C41.042 10.8947 40.8871 11.0586 40.7421 11.231C40.4551 11.5465 40.138 11.8334 39.7954 12.0875C39.6606 12.1424 39.5129 12.1584 39.3694 12.1338L39.1022 12.3246C37.5644 10.7109 35.4932 9.71018 33.2733 9.50831C33.2668 9.41488 33.2588 9.24588 33.2563 9.19479C33.1371 9.11208 33.0548 8.98613 33.0272 8.84366C33.0124 8.41751 33.0391 7.99082 33.1069 7.56984C33.1516 7.34939 33.1834 7.12645 33.2025 6.90234C33.2046 6.84588 33.2014 6.76371 33.2014 6.70252C33.2406 6.31469 32.958 5.96838 32.5702 5.92917C32.1823 5.88996 31.836 6.17257 31.7968 6.56041C31.792 6.60793 31.792 6.65572 31.7969 6.70324C31.7969 6.70976 31.7983 6.71628 31.7987 6.7228C31.798 6.78104 31.795 6.85169 31.7969 6.90269C31.8161 7.12698 31.8482 7.34993 31.8928 7.57055C31.9602 7.99153 31.9864 8.41804 31.971 8.84402C31.9311 8.98426 31.852 9.11029 31.7429 9.20712L31.7263 9.50429C31.2991 9.53957 30.8749 9.60478 30.4568 9.69937C28.7004 10.0963 27.1028 11.0091 25.8689 12.3206C25.7835 12.2618 25.6989 12.2017 25.6151 12.1407C25.4761 12.1823 25.3264 12.1677 25.198 12.1002C24.8554 11.8465 24.5384 11.56 24.2514 11.2447C24.1069 11.0723 23.9525 10.9085 23.7892 10.7539C23.7465 10.7174 23.6809 10.6674 23.6331 10.6294C23.4939 10.5171 23.3224 10.4524 23.1437 10.4448C22.9284 10.4334 22.7205 10.5253 22.5841 10.6924C22.3472 11.0263 22.4242 11.4888 22.7568 11.7277L22.7677 11.7353C22.8137 11.7729 22.8701 11.821 22.9128 11.8522C23.1001 11.9768 23.2945 12.0905 23.4949 12.1929C23.8662 12.403 24.2159 12.6489 24.5393 12.927C24.6233 13.0462 24.6722 13.1865 24.6805 13.3321L24.9053 13.533C23.6636 15.396 23.1534 17.6519 23.4725 19.8679L23.1786 19.9533C23.1018 20.0758 22.9987 20.1797 22.8767 20.2573C22.4649 20.3672 22.0433 20.4367 21.618 20.4647C21.3926 20.4699 21.1677 20.4881 20.9443 20.5191C20.8904 20.5288 20.8155 20.548 20.7569 20.5625L20.7507 20.5639L20.7406 20.5668C20.3546 20.6176 20.083 20.9716 20.1337 21.3575C20.1846 21.7435 20.5386 22.0151 20.9245 21.9644C20.968 21.9587 21.011 21.9488 21.0526 21.9352L21.0631 21.9337C21.0679 21.9327 21.0718 21.9301 21.0765 21.9294C21.1344 21.9163 21.2072 21.9022 21.2582 21.8885C21.4726 21.82 21.6829 21.7394 21.8881 21.647C22.2836 21.4876 22.6936 21.3669 23.1124 21.2869C23.2576 21.2958 23.3974 21.3452 23.516 21.4295L23.8223 21.377C24.5096 23.5003 25.95 25.2987 27.872 26.433L27.7442 26.7393C27.8036 26.8626 27.8254 27.0007 27.8068 27.1364C27.6317 27.5365 27.4189 27.9189 27.1711 28.2785C27.0349 28.4581 26.9092 28.6454 26.7946 28.8396C26.7667 28.8925 26.7313 28.9736 26.7045 29.029C26.5038 29.3628 26.6118 29.796 26.9457 29.9966C27.2795 30.1972 27.7127 30.0892 27.9134 29.7553C27.9371 29.7158 27.9569 29.6739 27.9726 29.6305L27.9736 29.6291V29.6277C28.0004 29.5727 28.038 29.5007 28.0606 29.4492C28.1406 29.2388 28.2082 29.0239 28.2633 28.8056C28.3845 28.3616 28.5675 27.937 28.807 27.544C28.8907 27.4655 28.9962 27.4139 29.1096 27.3963L29.2689 27.1085C31.3535 27.9101 33.6603 27.9159 35.749 27.1248C35.7935 27.2045 35.8768 27.3565 35.8988 27.3948C36.0422 27.4178 36.1708 27.496 36.2572 27.6127C36.456 27.9897 36.6175 28.3852 36.7394 28.7936C36.7949 29.0119 36.8629 29.2268 36.9432 29.4372C36.966 29.4891 37.0033 29.5621 37.0301 29.6171C37.1612 29.9841 37.5651 30.1751 37.9319 30.044C38.2988 29.9129 38.4899 29.5091 38.3588 29.1422C38.3432 29.0986 38.3234 29.0566 38.2996 29.017C38.2728 28.9616 38.2359 28.8805 38.208 28.828C38.0934 28.6343 37.9677 28.4475 37.8315 28.2684C37.5881 27.9179 37.3796 27.5445 37.2088 27.1535C37.1719 27.0137 37.1912 26.8649 37.2628 26.7394C37.2179 26.6474 37.1788 26.5528 37.1459 26.4559C39.0741 25.3125 40.5147 23.5002 41.1937 21.3638C41.2845 21.3782 41.4427 21.4058 41.4942 21.4163C41.601 21.3182 41.7419 21.2659 41.8869 21.2704C42.3058 21.3505 42.716 21.471 43.1115 21.6306C43.3167 21.7237 43.5271 21.8049 43.7418 21.8738C43.7924 21.8872 43.8649 21.8999 43.9231 21.9126C43.9278 21.914 43.9321 21.9162 43.9369 21.9173L43.9469 21.9187C44.3167 22.0401 44.715 21.8388 44.8364 21.4689C44.9578 21.0991 44.7565 20.7008 44.3866 20.5794C44.345 20.5658 44.3024 20.556 44.2591 20.5503ZM37.5869 13.398L34.5859 15.5255L34.5754 15.5208C34.3076 15.7161 33.9334 15.666 33.7264 15.4071C33.6443 15.305 33.5969 15.1793 33.5914 15.0483L33.5882 15.0469L33.3797 11.3691C34.9665 11.566 36.4447 12.2789 37.5869 13.398ZM31.9336 17.4292H33.063L33.7652 18.3071L33.5132 19.4021L32.4989 19.89L31.4817 19.401L31.2293 18.3056L31.9336 17.4292ZM30.8707 11.4979C31.1181 11.4421 31.3682 11.3992 31.62 11.369L31.4112 15.0523L31.396 15.0595C31.3816 15.4011 31.093 15.6663 30.7515 15.6519C30.6297 15.6467 30.5122 15.6058 30.4136 15.5341L30.4078 15.5373L27.3872 13.3957C28.3488 12.4508 29.5554 11.7935 30.8707 11.4979ZM26.2918 14.7725L29.0494 17.2388L29.0466 17.254C29.3044 17.4785 29.3313 17.8695 29.1069 18.1273C29.0267 18.2194 28.9211 18.2856 28.8034 18.3178L28.8005 18.3298L25.2656 19.3498C25.0894 17.7525 25.4506 16.1418 26.2918 14.7725ZM29.9842 21.3246L28.5797 24.7184C27.2316 23.8554 26.206 22.5718 25.662 21.0665L29.2863 20.4511L29.2925 20.459C29.3326 20.4513 29.3733 20.4477 29.4141 20.4481C29.756 20.4533 30.0289 20.7346 30.0237 21.0764C30.0224 21.157 30.0055 21.2367 29.9737 21.3107L29.9842 21.3246ZM34.1297 25.6892C32.8156 25.9905 31.4435 25.9199 30.1673 25.4854L31.9497 22.2622H31.9526C32.1147 21.9607 32.4905 21.8478 32.7919 22.0098C32.8986 22.0672 32.9861 22.1545 33.0437 22.261H33.0571L34.8439 25.4897C34.6121 25.5672 34.374 25.6337 34.1297 25.6892ZM36.4328 24.7321L35.0137 21.3037L35.0181 21.2975C34.8874 20.9928 35.0196 20.6391 35.3182 20.4949C35.3923 20.4587 35.473 20.4378 35.5553 20.4334C35.603 20.4312 35.6507 20.4347 35.6976 20.4439L35.7038 20.4363L39.3603 21.0543C38.8205 22.5715 37.7903 23.8657 36.4328 24.7321ZM39.7443 19.3379L36.1917 18.3146L36.1885 18.2998C35.8586 18.2088 35.6648 17.8675 35.7557 17.5376C35.7881 17.4205 35.8541 17.3154 35.9456 17.2355L35.9441 17.2282L38.6866 14.7739C39.5264 16.1397 39.8977 17.742 39.7443 19.3379Z" fill="white"/>
</g>
<defs>
<clipPath id="clip0_1_2302">
<rect width="65" height="48" fill="white"/>
</clipPath>
</defs>
</svg>
