<svg width="74" height="60" viewBox="0 0 74 60" fill="none" xmlns="http://www.w3.org/2000/svg">
<g clip-path="url(#clip0_1_2063)">
<path d="M50.1702 19.1362L41.998 21.8048L34.8883 24.9426L32.8992 25.4678C32.3926 25.9496 31.8615 26.4376 31.287 26.9318C30.657 27.4753 30.0702 27.9696 29.6192 28.3277C29.1189 28.7231 28.3776 29.4643 28.0008 29.9337C27.4387 30.6379 26.994 31.3853 26.8025 31.9598C26.4627 32.9976 26.6296 34.0477 27.2843 35.0175C28.1244 36.2529 29.7984 37.513 31.7503 38.3716C32.7448 38.8102 34.4188 39.3723 35.6789 39.6873C37.7728 40.2185 41.825 40.793 44.0549 40.8796C44.5057 40.8981 45.1112 40.8981 45.1358 40.8796C45.1853 40.8486 45.5312 40.1877 45.9328 39.3662C47.3041 36.5679 48.2924 33.9427 48.8297 31.7005C49.1509 30.3416 49.4042 28.5317 49.5709 26.3883C49.6142 25.7891 49.6327 23.7816 49.5956 23.102C49.54 21.9902 49.4412 21.0884 49.2868 20.2051C49.2621 20.0753 49.2559 19.9579 49.2683 19.9518C49.2929 19.9333 49.367 19.9086 50.3739 19.6182L50.1701 19.1364V19.1363H50.1703L50.1702 19.1362ZM48.3048 20.2296C48.3789 20.2296 48.5765 22.126 48.6259 23.3244C48.6383 23.5776 48.632 23.7444 48.6197 23.7444C48.5704 23.7444 47.5758 23.1576 46.8656 22.7129C46.2478 22.3237 45.0742 21.5454 44.889 21.3972C44.8271 21.354 44.8332 21.3478 45.3398 21.1748C46.1983 20.8844 48.2369 20.2296 48.3048 20.2296ZM44.1415 21.601C44.1971 21.601 44.3391 21.6812 44.6788 21.8913C45.9513 22.6881 47.6809 23.6518 48.4221 23.973C48.6506 24.0718 48.6753 24.0347 48.1503 24.393C47.0261 25.159 45.6238 25.9125 43.9066 26.6723C43.604 26.8082 43.3508 26.9132 43.3446 26.9132C43.3323 26.9132 43.3692 26.7589 43.4186 26.5735C43.8325 25.0353 44.0673 23.4788 44.0797 22.231C44.0858 21.6132 44.0858 21.6132 44.1415 21.5948C44.129 21.601 44.1352 21.601 44.1415 21.601ZM43.2829 21.9283C43.3198 21.9653 43.2952 23.349 43.2457 23.7258C43.1346 24.6277 42.9616 25.4677 42.6776 26.4129C42.6096 26.6413 42.5477 26.8329 42.5355 26.8452C42.5107 26.8761 41.6644 26.0484 41.3865 25.7272C40.9046 25.1712 40.5279 24.6153 40.2499 24.0717C40.1078 23.7937 39.8855 23.2502 39.904 23.2316C40.0028 23.1637 43.2581 21.9037 43.2829 21.9283ZM39.243 23.5158C39.2492 23.5158 39.2553 23.5158 39.2616 23.522C39.2739 23.5343 39.3172 23.6332 39.3543 23.7443C39.5519 24.2818 39.9966 25.0724 40.3796 25.5789C40.7997 26.1349 41.3495 26.7278 41.8065 27.117C41.9548 27.2405 42.0906 27.3579 42.1091 27.3764C42.1462 27.4135 42.1586 27.4073 41.1517 27.7903C39.9843 28.2351 38.7118 28.6798 37.254 29.1492C36.9057 29.2615 36.5578 29.3747 36.2102 29.489C36.1545 29.5076 36.1731 29.4766 36.3337 29.2234C37.0564 28.093 38.1559 25.8754 38.7736 24.3064C38.8786 24.0346 38.9836 23.7629 39.0022 23.7011C39.0269 23.6146 39.0578 23.5837 39.138 23.5405C39.1812 23.5282 39.2245 23.5158 39.243 23.5158ZM38.0077 24.0285C38.0262 24.0409 37.7112 24.7018 37.4023 25.3071C36.8031 26.4746 36.1483 27.6236 35.2712 29.0196C35.123 29.2604 34.981 29.4829 34.9624 29.5076C34.9316 29.5508 34.9191 29.5384 34.8203 29.347C34.6103 28.9331 34.4373 28.4018 34.3447 27.9138C34.252 27.432 34.2705 26.592 34.3756 26.0731C34.4558 25.6902 34.4497 25.6963 34.635 25.6037C35.4256 25.2022 37.983 24.0038 38.0077 24.0285ZM48.663 24.461V24.7204C48.663 26.0979 48.5148 27.988 48.2985 29.3655C48.2615 29.6064 48.2305 29.804 48.2244 29.8103C48.2244 29.8103 48.0453 29.7609 47.8353 29.699C46.9088 29.4087 45.9019 28.9825 44.9938 28.4822C44.3946 28.1548 43.5237 27.6173 43.5484 27.5926C43.5545 27.5865 43.814 27.4506 44.1166 27.29C45.3274 26.6599 46.4886 25.9805 47.4955 25.3072C47.8723 25.0539 48.4405 24.6463 48.5642 24.5351L48.663 24.461ZM33.344 26.2892C33.3687 26.2892 33.3625 26.3387 33.3254 26.561C33.3007 26.7217 33.2698 27.0182 33.2576 27.2219C33.208 28.1238 33.3564 28.791 33.8011 29.7051C33.9246 29.9584 34.0236 30.1684 34.0173 30.1746C33.974 30.2117 29.8849 31.4101 28.6 31.7621C28.2171 31.8671 27.8836 31.9598 27.8587 31.9659C27.8156 31.9783 27.8093 31.9721 27.8279 31.867C27.9699 30.9591 28.6618 29.7731 29.6254 28.7723C30.2678 28.1053 30.7805 27.7161 31.6576 27.2157C32.2877 26.8575 33.2575 26.3202 33.3316 26.2954C33.3316 26.2892 33.3378 26.2892 33.344 26.2892ZM42.9802 28.0126C42.9863 28.0065 43.1346 28.0868 43.3137 28.1918C44.6356 28.9578 46.4763 29.6682 48.0452 30.0326L48.1873 30.0635L47.9896 30.1746C47.1681 30.6317 44.4688 31.7559 41.7077 32.7875C41.3061 32.9357 40.9108 33.084 40.8366 33.1149C40.7625 33.1457 40.6945 33.1643 40.6945 33.1582C40.6945 33.1519 40.8058 32.9357 40.9478 32.6702C41.7199 31.2247 42.4983 29.4643 42.8936 28.2412C42.9431 28.1239 42.9739 28.0189 42.9802 28.0126ZM41.998 28.3339C42.0043 28.3402 41.9548 28.4698 41.893 28.618C41.3556 29.9214 40.6513 31.3422 39.7495 32.9358C39.521 33.3435 39.3295 33.6709 39.3233 33.6709C39.3172 33.6709 39.1318 33.5597 38.9095 33.4238C37.5998 32.6208 36.4386 31.6325 35.6789 30.675L35.5677 30.5391L36.1297 30.3847C38.1435 29.835 39.8544 29.242 41.5532 28.5131C41.7941 28.4142 41.9919 28.3339 41.998 28.3339ZM48.1009 30.465C48.1009 30.465 48.1071 30.4711 48.1009 30.465C48.1071 30.607 47.792 31.8795 47.5326 32.7998C47.3164 33.572 47.131 34.1774 46.7913 35.2459C46.6431 35.7155 46.5135 36.1045 46.5072 36.1045C46.5011 36.1045 46.464 36.0984 46.427 36.0861C44.5924 35.7524 42.9493 35.2892 41.405 34.6715C40.9726 34.4985 40.3549 34.2205 40.3179 34.1897C40.3056 34.1772 40.6762 34.0043 41.1456 33.8005C43.9562 32.5713 46.8717 31.1752 47.8723 30.5761C47.9897 30.502 48.0824 30.465 48.1009 30.465ZM34.0111 30.9468C34.0235 30.9591 33.239 32.0896 32.1394 33.6276C31.7565 34.165 31.3117 34.7951 31.145 35.0298C30.9782 35.2645 30.725 35.6351 30.5829 35.8575L30.3233 36.259L30.0454 36.0243C29.718 35.7525 29.1498 35.1719 28.8965 34.8507C28.3652 34.1898 28.007 33.4918 27.865 32.8556C27.797 32.559 27.797 32.4107 27.8587 32.3923C27.9513 32.3676 29.6006 31.9784 31.145 31.6201C32.0036 31.4225 32.998 31.1878 33.3563 31.1013C33.7146 31.0147 34.005 30.9468 34.0111 30.9468ZM34.8017 31.2495L34.9993 31.4718C35.8889 32.4663 36.797 33.2015 37.8965 33.8438C38.0942 33.9551 38.2424 34.0538 38.23 34.0601C38.1868 34.091 34.4126 35.4313 32.6645 36.0366C31.6824 36.3825 30.8732 36.6605 30.8671 36.6605C30.8609 36.6605 30.8053 36.6235 30.7434 36.5802L30.6323 36.4999L30.8114 36.2405C31.392 35.4004 32.121 34.4801 33.7085 32.5652L34.8017 31.2495ZM39.7311 34.7765C39.7372 34.7704 40.009 34.8691 40.3425 34.9928C41.1456 35.2954 41.7817 35.4869 42.6343 35.7031C43.6844 35.9688 45.2039 36.2282 46.0996 36.3023C46.2355 36.3146 46.3096 36.327 46.2849 36.3456C46.2416 36.3703 45.3336 36.673 44.6665 36.883C43.604 37.2165 40.3611 38.1739 37.7173 38.9337C37.2293 39.0758 36.8093 39.1932 36.7846 39.1993C36.7229 39.2117 36.519 39.156 36.519 39.1313C36.519 39.119 36.6672 38.9276 36.8464 38.7175C37.7358 37.6551 38.6192 36.4691 39.3543 35.3449C39.558 35.0359 39.7311 34.7827 39.7311 34.7765ZM38.6438 34.8075C38.65 34.8136 38.2115 35.5178 37.4456 36.7284C37.1182 37.2411 36.7537 37.8218 36.6239 38.0256C36.5004 38.2233 36.3151 38.5322 36.2101 38.7051L36.031 39.0202L35.9383 38.9955C35.7159 38.9337 34.1532 38.3839 33.7393 38.2171C33.2266 38.0133 32.6954 37.7662 32.3 37.5562C31.8059 37.2906 31.1882 36.8952 31.2376 36.8829C31.2499 36.8768 32.0962 36.6481 33.1154 36.3702C35.8209 35.6351 37.3219 35.2089 38.3042 34.9001C38.4833 34.8445 38.6377 34.8012 38.6438 34.8075ZM46.3342 36.6111H46.3404C46.3651 36.6729 45.3645 39.4525 44.9999 40.3296C44.9197 40.5273 44.8889 40.5768 44.8456 40.5705C44.7406 40.5645 43.2891 40.3606 42.4056 40.2308C40.8676 39.9961 38.2856 39.5451 37.637 39.3969L37.4888 39.3661L38.4091 39.1559C40.3858 38.7112 41.337 38.4703 42.3006 38.1738C43.5175 37.8032 44.7221 37.3399 45.9389 36.7717C46.1304 36.6852 46.291 36.6172 46.3342 36.6111Z" fill="url(#paint0_linear_1_2063)"/>
<path d="M41.7448 0.0862538C41.6089 0.0678262 39.416 0.858479 38.0015 1.43287C36.0927 2.21126 34.6103 2.95256 33.6961 3.59483C33.3564 3.83584 32.9301 4.262 32.8623 4.42874C32.8376 4.49053 32.8252 4.56464 32.8252 4.63875L33.6529 5.42324L35.6234 6.05329L40.3118 6.89338L45.6734 7.81377L45.729 7.3505C45.7105 7.3505 45.6981 7.34435 45.6797 7.34435L44.9753 7.23311L44.8334 6.97987C44.1044 5.69503 43.3014 4.10134 42.832 3.02652C42.4676 2.19261 42.1217 1.22909 41.9301 0.537225C41.8251 0.117197 41.8128 0.0925029 41.7449 0.0863379V0.0862032H41.7448L41.7448 0.0862538ZM41.6458 0.401376H41.6522C41.6583 0.407474 41.683 0.580549 41.7077 0.784264C41.8126 1.64917 42.0043 2.48294 42.3069 3.38482C42.5354 4.06432 42.5354 4.02729 42.2699 3.94693C41.6398 3.77402 38.8169 3.28603 36.7723 3.0019C36.4449 2.95862 36.1669 2.91542 36.1669 2.90927C36.1422 2.88458 37.6432 2.10002 38.3042 1.79125C39.1504 1.40201 41.473 0.432235 41.6458 0.401376ZM35.6912 3.16865L35.9322 3.24887C37.2417 3.69369 40.5339 4.32377 42.3501 4.472C42.5539 4.49054 42.7269 4.5091 42.733 4.5091C42.7391 4.51525 42.5663 4.60791 42.3439 4.71289C41.4668 5.15146 40.5032 5.68888 39.836 6.10276C39.6384 6.22624 39.4592 6.32514 39.4346 6.32514C39.4098 6.32514 39.2802 6.30041 39.1443 6.28186L38.8972 6.24476L38.2796 5.63937C37.1924 4.58317 36.3399 3.76782 36.0125 3.4589L35.6912 3.16865ZM35.4442 3.36011L36.3152 4.4473C36.7908 5.04647 37.2726 5.63326 37.3777 5.76293C37.4826 5.89273 37.5691 5.99778 37.563 6.00393C37.5382 6.02244 36.3029 5.7815 35.6481 5.63333C34.9748 5.47885 34.6968 5.40473 34.283 5.27508L33.9432 5.16384V5.07731C33.9494 4.66343 34.4745 4.04577 35.3639 3.41578L35.4442 3.36011ZM42.8443 4.84262C42.869 4.84262 42.8998 4.89819 42.9739 5.06497C43.184 5.52822 43.8388 6.77604 43.9993 7.0169C44.0489 7.09728 44.1352 7.10343 43.2643 6.96134C41.1704 6.62153 40.497 6.51046 40.497 6.49809C40.497 6.49195 40.5588 6.44867 40.6391 6.4054C41.2877 6.04721 41.9424 5.59005 42.5231 5.10206C42.6652 4.98467 42.7949 4.8735 42.8195 4.85492C42.8257 4.84262 42.8381 4.83646 42.8443 4.84262Z" fill="url(#paint1_linear_1_2063)"/>
<path d="M32.9057 4.34229C32.9057 4.34229 32.7699 4.55857 32.8996 4.87979C32.9799 5.07739 33.2146 5.31824 33.4802 5.56538C33.4802 5.56538 36.229 8.24618 36.5625 8.62922C38.082 10.3834 38.743 12.113 38.8048 14.4974C38.8419 16.0293 38.5515 17.3759 37.8288 18.9387C36.544 21.7431 33.8322 24.8378 29.6504 28.2722L30.262 28.0684C30.6573 27.7718 31.1947 27.4569 32.4548 26.765C35.3641 25.1713 38.638 23.7073 42.6531 22.2001C48.4346 20.0258 57.9412 17.4808 63.3522 16.6532L63.9144 16.5666L63.8278 16.4307C63.3338 15.6648 62.9939 15.1892 62.5862 14.6826C61.4003 13.2125 59.9611 12.0204 58.2006 11.032C55.7792 9.67933 52.6473 8.62307 48.6818 7.83857C47.9344 7.69025 46.2913 7.40614 44.9571 7.20231C42.128 6.76385 40.2996 6.46111 38.2859 6.1152C37.5633 5.99161 36.4822 5.80634 35.7657 5.65194C35.395 5.57156 34.6847 5.40481 34.1288 5.21334C33.6841 5.0403 33.0416 4.86734 32.9057 4.34229ZM34.4995 5.8866C34.5056 5.8805 34.6044 5.91744 34.7342 5.96072C34.9689 6.04093 35.2715 6.13362 35.6299 6.23252C35.901 6.30709 36.1728 6.37915 36.4453 6.44868C36.8159 6.54129 37.1247 6.62778 37.1308 6.62778C37.1741 6.67106 37.798 8.66609 38.008 9.43207C38.0882 9.72246 38.1501 9.96949 38.1439 9.96949C38.1376 9.97575 38.0697 9.87068 37.9895 9.72861C37.2667 8.45611 36.124 7.16513 34.8021 6.12736C34.6292 6.00396 34.4995 5.89275 34.4995 5.8866ZM37.5385 6.72666C37.5695 6.72666 37.7054 6.7452 37.872 6.78223C38.9222 7.01694 40.8062 7.37521 42.0107 7.57908C42.2145 7.60992 42.3752 7.64708 42.3752 7.65934C42.3752 7.67176 42.301 7.71491 42.2083 7.7644C42.0045 7.86937 41.1829 8.3573 40.9112 8.54266C40.2255 8.99974 39.6079 9.4939 39.1631 9.93863C38.984 10.1178 38.8295 10.266 38.8295 10.266C38.8295 10.266 38.7925 10.1611 38.7615 10.0313C38.5393 9.17263 38.0759 7.90015 37.6559 7.00454C37.5879 6.86251 37.5323 6.73277 37.5323 6.72046C37.5323 6.73282 37.5323 6.72666 37.5385 6.72666ZM42.8878 7.74587C42.9249 7.75819 42.9867 7.96822 43.1102 8.43147C43.3388 9.3272 43.4438 10.3279 43.4067 11.2606C43.3943 11.52 43.382 11.7609 43.3696 11.7918L43.3511 11.8536L43.0299 11.7486C42.3689 11.5386 41.2942 11.2235 40.3738 10.9641C39.8487 10.822 39.4226 10.6923 39.4226 10.68C39.4226 10.6429 40.1886 9.87693 40.5159 9.58663C41.1397 9.0368 42.8322 7.72731 42.8878 7.74587ZM43.314 7.80757C43.3326 7.78914 45.8714 8.2276 47.0265 8.45001C47.8851 8.61676 49.1328 8.87622 49.2069 8.90717C49.244 8.91948 49.1142 8.9936 48.7003 9.17888C47.0696 9.91402 45.8589 10.5749 44.6545 11.378C44.3395 11.588 44.0738 11.7609 44.0677 11.7609C44.0615 11.7609 44.0553 11.5818 44.0553 11.3656C44.0553 10.192 43.8206 9.00598 43.3881 8.00531C43.3449 7.90647 43.3079 7.81384 43.314 7.80757ZM49.8802 9.10482C49.8988 9.12333 49.8184 9.62372 49.7443 9.92016C49.5219 10.8406 48.9228 12.2058 48.1878 13.4905C48.058 13.7191 47.9407 13.9044 47.9282 13.9105C47.916 13.9167 47.7492 13.824 47.5577 13.7128C46.8411 13.2928 46.0258 12.8975 45.1363 12.5268C44.8893 12.4218 44.673 12.3353 44.6668 12.3231C44.6235 12.2859 46.6126 10.9702 47.6627 10.3402C48.4966 9.8337 49.8555 9.08006 49.8802 9.10482ZM50.3496 9.17892C50.4053 9.17892 51.5295 9.48781 52.1162 9.66076C53.5679 10.0932 55.2356 10.7047 56.3228 11.1988L56.7736 11.4027L56.4587 11.4768C53.8027 12.0883 51.5295 12.7926 49.3366 13.682C49.1575 13.7561 48.9968 13.8179 48.9846 13.8179C48.9722 13.8179 49.034 13.6759 49.1143 13.5028C49.7752 12.1007 50.2014 10.6367 50.3064 9.3889C50.3126 9.27151 50.331 9.1789 50.3496 9.17892ZM39.1569 11.7486C39.1754 11.73 40.0341 11.9339 40.4973 12.0635C41.2015 12.2612 42.6963 12.7615 42.6963 12.7986C42.6963 12.8048 42.5296 12.9469 42.332 13.1199C41.5228 13.7932 40.7444 14.5035 39.8116 15.4053C39.5336 15.671 39.299 15.8872 39.2867 15.8872C39.2743 15.8872 39.2682 15.8501 39.2743 15.8007C39.4163 14.7629 39.3855 13.4287 39.1878 12.0759C39.1692 11.9029 39.1507 11.7547 39.1569 11.7486ZM57.2 11.7672C57.2122 11.7794 56.8046 12.4218 56.5452 12.7863C56.1747 13.3175 55.6309 14.0218 54.4017 15.566C53.7532 16.3813 53.0242 17.3017 52.7834 17.6106C52.5362 17.9194 52.3325 18.1788 52.3262 18.1788C52.3201 18.1788 52.2399 18.0677 52.1534 17.9318C51.4615 16.894 50.6337 15.986 49.6516 15.1707C49.4663 15.0162 49.2625 14.8494 49.1946 14.8C49.1266 14.7506 49.071 14.7012 49.071 14.695C49.071 14.6765 50.121 14.2255 50.918 13.9044C52.314 13.336 54.2163 12.6566 55.6433 12.218C56.3908 11.9833 57.1876 11.7547 57.2 11.7672ZM57.6756 11.8906C57.7002 11.8845 57.8486 11.9586 58.0277 12.0635C59.5288 12.9221 60.9988 14.0279 62.1602 15.1645C62.4875 15.4857 63.2967 16.3258 63.2843 16.3319C63.2843 16.3319 63.0001 16.3566 62.6666 16.3813C60.0661 16.579 56.7368 17.1287 53.537 17.9008C53.3209 17.9502 53.1294 17.9934 53.117 17.9934C53.1048 17.9934 53.3456 17.7526 53.6483 17.4623C55.5261 15.6524 56.3847 14.5097 57.3977 12.4712C57.5397 12.1686 57.6633 11.9092 57.6756 11.8906C57.6695 11.8906 57.6695 11.8906 57.6756 11.8906ZM43.9194 13.2991C44.0059 13.3175 44.8089 13.6944 45.4142 13.997C45.9702 14.2749 46.8041 14.7197 46.8473 14.7567C46.8535 14.7629 46.5569 14.9173 46.1926 15.0965C45.0313 15.6771 44.0368 16.2268 42.999 16.8569C42.7025 17.0361 42.4555 17.1844 42.4493 17.1844C42.4246 17.1844 42.4307 17.1595 42.5975 16.8569C43.1535 15.844 43.5982 14.6333 43.8515 13.4534C43.8761 13.3608 43.9009 13.2991 43.9194 13.2991ZM43.1163 13.4472C43.1349 13.4658 42.9249 14.2255 42.7952 14.6394C42.5419 15.4239 42.1157 16.406 41.7019 17.1473C41.6029 17.3202 41.4547 17.5734 41.3744 17.7155L41.22 17.9626L40.8741 17.6291C40.4727 17.2399 40.1452 16.999 39.7253 16.7828C39.5584 16.6964 39.4287 16.6222 39.4287 16.6099C39.4287 16.5605 40.485 15.603 41.2942 14.9112C41.8748 14.4108 43.0978 13.4287 43.1163 13.4472ZM48.0272 15.4672L48.3299 15.6648C49.0216 16.1158 49.8369 16.7149 50.4609 17.2399C50.8129 17.5302 51.4923 18.1418 51.6284 18.29L51.7024 18.3704L51.2021 18.5124C48.373 19.2969 46.1864 19.9949 43.6352 20.9338C43.3511 21.0388 43.1102 21.1253 43.0916 21.1253C43.0547 21.1253 43.0237 21.1561 43.66 20.5693C45.2907 19.0684 46.7361 17.4129 47.8109 15.8007L48.0272 15.4672ZM46.7361 15.7884C46.7485 15.8007 45.9022 16.9928 45.3957 17.6661C44.7903 18.4692 43.7155 19.8157 42.9743 20.6928C42.6655 21.0573 42.3999 21.36 42.3875 21.3662C42.3689 21.3723 42.3628 21.2797 42.3628 21.1376C42.3628 20.3901 42.1713 19.5933 41.8377 18.9139C41.6956 18.6297 41.6709 18.5618 41.7019 18.5309C41.8192 18.4259 43.6167 17.4005 44.7533 16.789C45.5192 16.3813 46.7175 15.776 46.7361 15.7884ZM38.9283 17.7032C38.9469 17.7032 39.089 17.7773 39.2496 17.8638C39.6449 18.08 39.997 18.3209 40.312 18.5804C40.3243 18.5927 40.1638 18.7225 39.9537 18.8768C39.3669 19.2968 38.4774 19.9702 37.9587 20.3841C37.4149 20.8165 37.3965 20.8288 37.4582 20.7362C37.866 20.1123 38.0697 19.7602 38.286 19.3093C38.4775 18.9078 38.6689 18.4321 38.8048 18.0183C38.8542 17.8391 38.916 17.7032 38.9283 17.7032ZM41.01 19.3339C41.0408 19.3278 41.078 19.3833 41.2447 19.6305C41.5968 20.1554 41.8686 20.8597 41.9367 21.428L41.9489 21.5516L41.1027 21.879C39.5892 22.4657 38.1933 23.0464 37.2481 23.4787C36.9826 23.6023 36.5193 23.8246 36.2167 23.973C35.914 24.1273 35.6669 24.2447 35.6669 24.2386C35.6669 24.2324 35.8583 24.0903 36.0931 23.9173C37.9401 22.577 39.5399 21.1068 40.7382 19.6367C40.868 19.4822 40.9854 19.3401 40.9976 19.334L41.01 19.3339ZM40.0526 19.5687C40.0774 19.5934 39.3732 20.3902 38.8914 20.8782C37.6992 22.0951 36.5194 23.0464 35.0554 23.973C34.8701 24.0903 34.7033 24.1953 34.6848 24.2077C34.6415 24.2324 34.6971 24.1706 35.3395 23.4726C35.7473 23.034 36.0561 22.6634 36.4082 22.2064C36.6429 21.9037 36.6861 21.8605 37.0259 21.6195C37.9339 20.9647 40.0279 19.5439 40.0526 19.5687Z" fill="url(#paint2_radial_1_2063)"/>
<path d="M13.3035 45.1458C13.1896 45.1458 13.0756 45.1566 12.9627 45.1566C10.6611 45.2793 9.10882 46.2922 8.20124 48.2702C7.42498 50.0591 7.50974 52.3975 8.20994 54.1974C9.02418 55.956 10.3399 56.8842 12.536 57.2348C13.0006 57.3109 13.3123 57.566 14.2122 58.6168L15.3195 59.9141H17.3278L15.9924 58.5679C15.2542 57.8297 14.6571 57.187 14.6571 57.1305C14.6571 57.0741 14.9395 56.9504 15.2813 56.8462C16.4082 56.5052 17.344 55.6346 17.9986 54.3004C18.5284 53.229 18.6044 52.8978 18.6804 51.5648C18.8791 47.597 16.7871 45.1163 13.3034 45.1446L13.3035 45.1458ZM15.0643 55.5219C14.0873 55.9951 12.6685 56.0896 11.7424 55.7498C10.7849 55.3981 9.85787 54.4037 9.44091 53.278C8.97738 52.0469 9.04357 49.7759 9.57338 48.7532C10.4256 47.1248 11.5525 46.3758 13.1993 46.3758C15.6419 46.3758 17.0314 47.8718 17.2127 50.6834C17.3561 53.0305 16.57 54.7913 15.0654 55.5209L15.0643 55.5219ZM49.7577 48.535C48.9153 48.535 48.2705 48.8759 47.8361 49.5478L47.4953 50.0798V48.6967H46.0374V56.9907H47.4943V54.3396C47.4943 51.9155 47.5245 51.6321 47.8633 50.9688C48.3302 50.0591 49.1334 49.6054 49.9098 49.8225L50.4308 49.9745V48.5372H49.7578V48.535H49.7577ZM41.1924 48.459C40.9068 48.459 40.6039 48.497 40.3023 48.5633C38.3513 49.0734 37.2516 50.9406 37.3189 52.8622C37.3189 54.4711 37.6315 55.2754 38.4078 56.119C39.9983 57.4238 41.4366 57.528 43.3776 56.8279C43.7088 56.6867 44.0692 56.5239 44.0692 56.5239V55.2191L43.3776 55.5773C41.8068 56.2612 40.6235 56.2612 39.6757 55.4557C39.0712 54.8401 38.8051 54.1019 38.6825 53.2596H44.5609V52.1413C44.5609 49.8616 43.1888 48.4221 41.1912 48.459H41.1924V48.459ZM38.8149 52.0957C38.8149 52.0957 39.0321 50.6736 39.8376 50.1156C40.2253 49.842 40.6702 49.7096 41.1055 49.7096C41.542 49.7096 41.9773 49.8507 42.3366 50.1254C43.0749 50.6932 43.1986 52.085 43.1986 52.085H38.815V52.0958L38.8149 52.0957ZM3.66664 50.5998C2.08606 49.6423 1.38476 48.9518 1.47052 48.1376C1.71581 45.885 4.49935 46.1966 6.04082 47.0488L6.05178 45.5334C6.05178 45.5334 5.19953 45.1643 3.97821 45.1447C2.10447 45.1164 0.892957 45.7309 0.325284 46.9815C-0.508522 48.827 0.229755 50.2187 2.89823 51.7712C4.3963 52.6428 5.05844 53.3995 5.05844 54.2245C5.05844 55.9289 3.00343 56.5239 0.883306 55.4545C0.446983 55.2374 0.0778305 55.0561 0.0582923 55.0561C-0.0177586 55.5392 0.0214362 56.6953 0.0214362 56.6953C0.0214362 56.6953 0.672827 56.969 1.64977 57.1577C4.07271 57.6408 6.27765 56.5042 6.48606 54.6587C6.66738 52.9262 6.04085 52.0175 3.66673 50.5986L3.66664 50.5998ZM62.661 48.4395C62.3766 48.4395 62.0748 48.4785 61.7599 48.5447C59.8114 49.055 58.7137 50.9222 58.7886 52.8438C58.7886 54.4505 59.1003 55.2472 59.8764 56.0896C61.4669 57.3957 62.9053 57.5009 64.8561 56.7997C65.1861 56.6586 65.5454 56.498 65.5454 56.498V55.191L64.855 55.5513C63.281 56.2331 62.0976 56.2331 61.1532 55.4276C60.5452 54.8132 60.2814 54.0836 60.1587 53.2314H66.0275V52.1132C66.0275 49.8444 64.6552 48.4037 62.6577 48.4418L62.661 48.4395ZM60.2836 52.0762C60.2836 52.0762 60.5029 50.6562 61.3072 50.0873C61.6937 49.8127 62.1388 49.6802 62.5741 49.6802C63.0083 49.6802 63.4459 49.8213 63.8053 50.0971C64.5435 50.6649 64.6673 52.0664 64.6673 52.0664H60.2847L60.2836 52.0762ZM33.5606 50.6183C31.9801 49.663 31.2809 48.9703 31.3656 48.156C31.6108 45.9023 34.3944 46.215 35.9359 47.0672L35.9468 45.5518C35.9468 45.5518 35.0946 45.1826 33.8733 45.1652C31.9995 45.1371 30.788 45.7515 30.2193 47.0021C29.3866 48.8475 30.1346 50.2393 32.7943 51.7917C34.2903 52.6624 34.9524 53.4093 34.9524 54.2343C34.9524 55.9387 32.8985 56.5434 30.7783 55.4642C30.3441 55.2471 29.975 55.068 29.9533 55.068C29.8772 55.551 29.9164 56.7072 29.9164 56.7072C29.9164 56.7072 30.5601 56.9711 31.5339 57.1696C33.9591 57.6538 36.165 56.5182 36.3724 54.6727C36.5527 52.9488 35.9274 52.0402 33.5607 50.6202V50.6182L33.5606 50.6183ZM71.2274 48.5155C70.385 48.5155 69.7327 48.8573 69.306 49.5294L68.965 50.0592V48.6783H67.507V56.9701H68.9639V54.3191C68.9639 51.896 68.9932 51.6116 69.3331 50.9494C69.7999 50.0407 70.6031 49.586 71.3793 49.8041L71.9004 49.956V48.5155H71.2274V48.5155H71.2274ZM21.9665 50.5705V45.2879H20.4967V56.9885H26.6781V55.6066H21.9666V50.5705H21.9665ZM55.9586 52.2173L54.7471 55.3698L53.5822 52.1999L52.3989 48.687H50.8943C51.8692 51.4509 52.9297 54.2625 53.9991 56.9885C54.4626 56.9993 54.9273 56.9885 55.3907 56.9885L57.0268 52.8806L58.6932 48.688H57.2548C57.2548 48.688 56.6196 50.3533 55.9575 52.2183L55.9586 52.2173ZM25.3536 42.0995C25.5902 42.0995 25.7878 42.0236 25.9506 41.8608C26.1112 41.7 26.1959 41.5112 26.1959 41.2745C26.1959 41.0378 26.1112 40.8402 25.9506 40.6882C25.7878 40.5363 25.6 40.4602 25.3644 40.4602C25.1256 40.4602 24.928 40.5363 24.7673 40.6969C24.6045 40.8576 24.5307 41.0552 24.5307 41.2832C24.5307 41.522 24.6067 41.7195 24.7673 41.8695C24.9193 42.0214 25.1169 42.0974 25.3536 42.0974V42.0995ZM24.8325 40.7534C24.9736 40.6124 25.1452 40.5471 25.3644 40.5471C25.5707 40.5471 25.7423 40.6123 25.8856 40.7534C26.0267 40.8945 26.1027 41.0661 26.1027 41.2745C26.1027 41.4829 26.0267 41.6632 25.8856 41.8043C25.7423 41.9453 25.5707 42.0127 25.3644 42.0127C25.1549 42.0127 24.9844 41.9475 24.8434 41.8043C24.7023 41.6632 24.6263 41.4829 24.6263 41.2745C24.6263 41.0661 24.6914 40.8946 24.8325 40.7534ZM25.1831 41.3506H25.2786C25.346 41.3506 25.4122 41.4156 25.4686 41.5394L25.5827 41.7955H25.7618L25.6207 41.511C25.5632 41.3972 25.5068 41.3309 25.4405 41.3123C25.5241 41.2928 25.5903 41.2646 25.6381 41.2081C25.6858 41.1593 25.7032 41.0931 25.7032 41.0181C25.7032 40.9313 25.676 40.8662 25.6186 40.8184C25.5534 40.7641 25.4492 40.7349 25.3145 40.7349H25.0129V41.7955H25.1648V41.3504L25.1831 41.3506ZM25.1831 40.8577H25.3156C25.4111 40.8577 25.4785 40.8772 25.5153 40.9054C25.5512 40.9336 25.561 40.9706 25.561 41.0378C25.561 41.1605 25.4849 41.2181 25.3439 41.2181H25.1811V40.8576H25.1831V40.8577ZM0.902697 41.256C0.902697 40.8869 0.891891 40.6123 0.883158 40.4506H0.891862C0.929813 40.6415 0.976527 40.7838 1.01451 40.8782L2.42573 44.0308H2.66241L4.07362 40.8501C4.11172 40.7633 4.1497 40.6329 4.19636 40.4516H4.20716C4.17898 40.7665 4.16921 41.04 4.16921 41.2582V44.0406H4.65219V39.9045H4.04645L2.74923 42.7813C2.70142 42.8952 2.6352 43.0658 2.55053 43.2916H2.53091C2.50273 43.1797 2.4365 43.0093 2.34207 42.8008L1.07404 39.8946H0.430406V44.0307H0.895029V41.2581L0.902697 41.256ZM5.71077 41.2638H6.12774V43.8398H5.71077V41.2638ZM5.91924 40.3192C6.00616 40.3192 6.07993 40.2898 6.13635 40.2324C6.19393 40.1759 6.23197 40.1021 6.23197 40.0153C6.23197 39.9306 6.2037 39.8546 6.13751 39.7982C6.07889 39.7406 6.00394 39.7112 5.91818 39.7112C5.83357 39.7112 5.75758 39.7406 5.70101 39.7982C5.64363 39.8546 5.60554 39.9306 5.60554 40.0153C5.60554 40.1098 5.63487 40.1759 5.70101 40.2324C5.76628 40.2898 5.83351 40.3192 5.91818 40.3192H5.91924ZM9.10012 43.8963V43.4424C8.87208 43.6129 8.62673 43.6977 8.37273 43.6977C8.06885 43.6977 7.82232 43.5935 7.64209 43.3938C7.46302 43.1962 7.36752 42.9214 7.36752 42.5795C7.36752 42.2212 7.46305 41.9367 7.66057 41.7196C7.85056 41.5112 8.09704 41.4069 8.39887 41.4069C8.64526 41.4069 8.88182 41.483 9.10017 41.6351V41.152C8.90154 41.0477 8.67466 40.9999 8.41838 40.9999C7.94499 40.9999 7.57602 41.152 7.30026 41.4452C7.02664 41.7382 6.88552 42.1367 6.88552 42.6176C6.88552 43.0453 7.00817 43.4046 7.26338 43.6793C7.5293 43.9615 7.86921 44.1048 8.28603 44.1048C8.60832 44.096 8.87208 44.0287 9.10012 43.8963ZM10.2931 42.523C10.2931 42.1832 10.3691 41.9086 10.5102 41.7196C10.6427 41.5492 10.8033 41.4635 10.9933 41.4635C11.154 41.4635 11.2679 41.4927 11.3515 41.559V41.0661C11.2864 41.0379 11.1919 41.0281 11.0693 41.0281C10.8988 41.0281 10.7469 41.0855 10.6134 41.191C10.4723 41.3027 10.3594 41.4732 10.2932 41.6903H10.2824V41.0856H9.81012V44.0384H10.2834V42.523H10.2931ZM13.0104 44.0971C13.4555 44.0971 13.8137 43.9537 14.0797 43.6694C14.3445 43.387 14.4769 43.0071 14.4769 42.5337C14.4769 42.0508 14.3554 41.6816 14.1079 41.4068C13.8626 41.1323 13.5216 40.9997 13.0765 40.9997C12.6313 40.9997 12.2731 41.1322 12.0072 41.3884C11.7228 41.6708 11.573 42.0692 11.573 42.5805C11.573 43.0256 11.6946 43.3947 11.9508 43.6694C12.2157 43.9537 12.5663 44.0959 13.0104 44.0959V44.0971ZM12.3373 41.6914C12.5175 41.5014 12.7543 41.4069 13.0473 41.4069C13.3513 41.4069 13.5793 41.5014 13.7486 41.6914C13.919 41.8901 14.0038 42.1735 14.0038 42.5523C14.0038 42.9126 13.9277 43.196 13.767 43.386C13.6064 43.5847 13.3698 43.6899 13.057 43.6899C12.7531 43.6899 12.5175 43.5846 12.3373 43.386C12.1583 43.1863 12.0725 42.9126 12.0725 42.5523C12.054 42.194 12.1485 41.901 12.3373 41.6914ZM16.5495 43.8398C16.7296 43.6792 16.8252 43.4816 16.8252 43.2339C16.8252 43.0168 16.7492 42.8367 16.6081 42.6945C16.4929 42.5806 16.315 42.4773 16.0577 42.3731C15.8297 42.2777 15.6886 42.1929 15.6125 42.1267C15.5366 42.0507 15.4899 41.9564 15.4899 41.8228C15.4899 41.7001 15.5377 41.6056 15.6311 41.5297C15.7266 41.4538 15.8482 41.4169 16.0111 41.4169C16.2662 41.4169 16.4843 41.4841 16.684 41.6264V41.153C16.493 41.0576 16.2857 41.012 16.049 41.012C15.745 41.012 15.4888 41.0956 15.2998 41.2572C15.1011 41.418 15.0068 41.6264 15.0068 41.8717C15.0068 42.0888 15.0719 42.2691 15.1956 42.4014C15.2998 42.5143 15.478 42.6295 15.7254 42.7325C15.9621 42.8368 16.1228 42.9312 16.2085 43.0071C16.2931 43.0832 16.3311 43.1775 16.3311 43.2895C16.3311 43.5651 16.1423 43.7074 15.7731 43.7074C15.4887 43.7074 15.2337 43.614 15.0055 43.4252V43.9353C15.2118 44.0592 15.4594 44.1156 15.7329 44.1156C16.0836 44.0971 16.3582 44.0114 16.5471 43.8409L16.5495 43.8398ZM18.8031 40.9998C18.3579 40.9998 17.9998 41.1323 17.7338 41.3885C17.4515 41.6709 17.2995 42.0693 17.2995 42.5806C17.2995 43.0257 17.4223 43.3948 17.6773 43.6695C17.9433 43.9538 18.2929 44.096 18.738 44.096C19.1939 44.096 19.5413 43.9528 19.8073 43.6683C20.0733 43.386 20.2056 43.0061 20.2056 42.5327C20.2056 42.0496 20.0819 41.6806 19.8365 41.4059C19.5804 41.1312 19.2394 40.9988 18.8052 40.9988L18.8031 40.9998ZM19.7215 42.5523C19.7215 42.9127 19.6455 43.1961 19.4849 43.386C19.3242 43.5847 19.0875 43.69 18.7748 43.69C18.4707 43.69 18.2352 43.5846 18.055 43.386C17.8759 43.1863 17.7901 42.9127 17.7901 42.5523C17.7901 42.1724 17.8847 41.8793 18.0746 41.6816C18.2536 41.4927 18.4904 41.3971 18.7846 41.3971C19.0776 41.3971 19.3133 41.4926 19.4836 41.6816C19.6357 41.89 19.7204 42.1734 19.7204 42.5523H19.7215ZM21.0004 44.0298H21.4726V41.4733H22.1641V41.0759H21.4726V40.6199C21.4726 40.2053 21.6332 39.9969 21.9654 39.9969C22.0773 39.9969 22.1913 40.025 22.276 40.0728V39.6463C22.1913 39.6083 22.0773 39.5996 21.9349 39.5996C21.6799 39.5996 21.4715 39.6757 21.301 39.8363C21.1023 40.0251 20.9971 40.2705 20.9971 40.6028V41.087H20.4976V41.4842H20.9971V44.0311L21.0004 44.0298ZM22.9403 43.2242C22.9403 43.8018 23.1955 44.096 23.7165 44.096C23.9054 44.096 24.0476 44.0657 24.1616 43.9983V43.5924C24.0748 43.6575 23.9716 43.688 23.8577 43.688C23.6971 43.688 23.5841 43.6498 23.5179 43.5641C23.4505 43.4795 23.4126 43.3361 23.4126 43.1385V41.4722H24.1616V41.0748H23.4126V40.2042C23.2497 40.2606 23.0902 40.3085 22.9392 40.3561V41.0747H22.429V41.4721H22.9392V43.2232L22.9403 43.2242ZM73.746 48.6674C73.5854 48.5155 73.3954 48.4394 73.1598 48.4394C72.9211 48.4394 72.7234 48.5155 72.5627 48.6783C72.402 48.8379 72.326 49.0365 72.326 49.2645C72.326 49.5012 72.402 49.6988 72.5615 49.8507C72.7222 50.0027 72.9197 50.0788 73.1586 50.0788C73.3941 50.0788 73.5928 50.0027 73.7557 49.8421C73.9153 49.6792 74 49.4914 74 49.2559C73.9913 49.017 73.9055 48.8194 73.7449 48.6675L73.746 48.6674ZM73.6701 49.7856C73.5289 49.9267 73.3574 49.9918 73.1489 49.9918C72.9427 49.9918 72.7712 49.9267 72.6279 49.7856C72.4868 49.6423 72.4107 49.4632 72.4107 49.2536C72.4107 49.0473 72.4758 48.8759 72.6192 48.7326C72.7602 48.5916 72.9308 48.5263 73.1489 48.5263C73.3552 48.5263 73.5268 48.5916 73.67 48.7326C73.8111 48.8759 73.8871 49.0473 73.8871 49.2536C73.8871 49.473 73.822 49.6423 73.6701 49.7856ZM73.2444 49.3025C73.3291 49.2829 73.3965 49.245 73.4431 49.1983C73.4909 49.1494 73.5084 49.0831 73.5084 49.0073C73.5084 48.9226 73.4812 48.8553 73.4237 48.8086C73.3586 48.7543 73.2533 48.725 73.1198 48.725H72.818V49.7845H72.97V49.3394H73.0644C73.1296 49.3394 73.1948 49.4045 73.2533 49.5283L73.3661 49.7834H73.5464L73.4054 49.4989C73.3565 49.3751 73.3 49.3186 73.2426 49.3002L73.2444 49.3025ZM73.1402 49.207H72.9774V48.8488H73.111C73.2055 48.8488 73.2717 48.8661 73.3097 48.8955C73.3477 48.9237 73.3564 48.9606 73.3564 49.0279C73.3564 49.1506 73.2804 49.2071 73.1393 49.2071L73.1402 49.207ZM46.7289 40.9532H46.8614V39.8926H47.2119V39.7601H46.3783V39.8926H46.729V40.9532H46.7289ZM47.5323 40.1564C47.5323 40.0532 47.5323 39.9685 47.5247 39.9209C47.5334 39.9773 47.5529 40.0154 47.5616 40.0435L47.9687 40.9532H48.0339L48.4419 40.0348C48.4529 40.0066 48.4616 39.9697 48.48 39.9209C48.4713 40.0154 48.4713 40.0911 48.4713 40.1488V40.9522H48.6125V39.7601H48.4419L48.0729 40.5831C48.0642 40.6125 48.0348 40.6699 48.0164 40.7351H48.0056C47.998 40.697 47.9785 40.659 47.9513 40.594L47.5822 39.7603H47.3912V40.9544H47.5246V40.1576L47.5323 40.1564Z" fill="#231F1F"/>
</g>
<defs>
<linearGradient id="paint0_linear_1_2063" x1="32.792" y1="36.8656" x2="34.4729" y2="35.8723" gradientUnits="userSpaceOnUse">
<stop stop-color="#909CA9"/>
<stop offset="1" stop-color="#EDEDEE"/>
</linearGradient>
<linearGradient id="paint1_linear_1_2063" x1="32.8583" y1="3.96661" x2="34.2108" y2="3.96661" gradientUnits="userSpaceOnUse">
<stop stop-color="#939FAB"/>
<stop offset="1" stop-color="#DCDEE1"/>
</linearGradient>
<radialGradient id="paint2_radial_1_2063" cx="0" cy="0" r="1" gradientUnits="userSpaceOnUse" gradientTransform="translate(44.8466 14.8355) rotate(-171.469) scale(1.74391 3.48871)">
<stop stop-color="#EE352C"/>
<stop offset="1" stop-color="#A91D22"/>
</radialGradient>
<clipPath id="clip0_1_2063">
<rect width="74" height="60" fill="white"/>
</clipPath>
</defs>
</svg>
