<svg width="63" height="60" viewBox="0 0 63 60" fill="none" xmlns="http://www.w3.org/2000/svg">
<g clip-path="url(#clip0_1_1968)">
<path d="M52.7142 31.4768C52.7142 31.3713 52.6852 31.2958 52.6256 31.2465C52.5597 31.1934 52.4456 31.1651 52.2868 31.1651H52.0585V31.7926H52.334C52.5885 31.7926 52.7142 31.687 52.7142 31.4768ZM53.0701 32.7852H52.7564L52.5563 32.3437C52.4547 32.1225 52.3461 32.0118 52.2274 32.0118H52.0585V32.7852H51.8V30.9448H52.3179C52.5483 30.9448 52.7211 30.9947 52.8399 31.0987C52.9405 31.1882 52.9907 31.3029 52.9907 31.4457C52.9907 31.5724 52.9497 31.679 52.867 31.7674C52.7865 31.857 52.6709 31.9173 52.5231 31.9485V31.9565C52.6256 31.9806 52.7282 32.0933 52.8277 32.2964L53.0701 32.7862V32.7852ZM53.6434 31.8831C53.6434 31.5211 53.5197 31.2154 53.2733 30.973C53.0259 30.7306 52.7242 30.609 52.3682 30.609C52.0011 30.609 51.6955 30.7306 51.4531 30.9751C51.2107 31.2204 51.0901 31.524 51.0901 31.8831C51.0901 32.2502 51.2157 32.5569 51.4651 32.8013C51.7116 33.0456 52.0132 33.1663 52.3682 33.1663C52.7211 33.1663 53.0228 33.0447 53.2713 32.7972C53.5197 32.5538 53.6434 32.2482 53.6434 31.8831ZM53.8173 31.8751C53.8173 32.2815 53.6776 32.6224 53.397 32.8969C53.1164 33.1735 52.7725 33.3112 52.3611 33.3112C51.9469 33.3112 51.603 33.1755 51.3293 32.9089C51.0559 32.6385 50.9201 32.2986 50.9201 31.8863C50.9201 31.4829 51.0588 31.1441 51.3364 30.8656C51.614 30.588 51.9599 30.4492 52.3733 30.4492C52.7785 30.4492 53.1184 30.582 53.394 30.8464C53.6765 31.1179 53.8173 31.4599 53.8173 31.8751Z" fill="black"/>
<path d="M14.4834 37.0069H13.5915V31.9022C13.5915 31.499 13.618 31.0083 13.6655 30.429H13.6454C13.5619 30.7679 13.4854 31.0133 13.4181 31.1652L10.8255 37.0069H10.3911L7.79345 31.2074C7.72024 31.0454 7.64365 30.785 7.56618 30.429H7.54687C7.57423 30.7337 7.58952 31.2275 7.58952 31.9123V37.0069H6.72964V29.4053H7.90625L10.2384 34.706C10.4143 35.1053 10.528 35.409 10.5833 35.6161H10.6203C10.7721 35.2008 10.8928 34.889 10.9843 34.6839L13.3667 29.4053H14.4829V37.0069H14.4834Z" fill="black"/>
<path d="M17.227 37.0063H16.3602V31.5778H17.227V37.0063ZM17.3768 29.6319C17.3768 29.7918 17.3205 29.9255 17.2089 30.0352C17.0993 30.1448 16.9636 30.2001 16.8046 30.2001C16.6497 30.2001 16.515 30.147 16.4044 30.0412C16.2938 29.9346 16.2394 29.7988 16.2394 29.6319C16.2394 29.475 16.2941 29.3413 16.4044 29.2327C16.515 29.1241 16.6497 29.0718 16.8046 29.0718C16.9635 29.0718 17.0993 29.1241 17.2089 29.2327C17.3205 29.3413 17.3768 29.475 17.3768 29.6319Z" fill="black"/>
<path d="M22.6442 36.7551C22.2278 37.0106 21.7311 37.1373 21.1568 37.1373C20.3785 37.1373 19.752 36.8789 19.2733 36.3629C18.8086 35.8621 18.5744 35.2155 18.5744 34.4231C18.5744 33.534 18.8288 32.814 19.3416 32.267C19.8515 31.7188 20.5374 31.4453 21.4002 31.4453C21.8719 31.4453 22.2902 31.5378 22.6563 31.7209V32.6129C22.251 32.3283 21.8226 32.1875 21.363 32.1875C20.8099 32.1875 20.3604 32.3806 20.0114 32.7658C19.6483 33.16 19.4643 33.6869 19.4643 34.3446C19.4643 34.9762 19.6323 35.476 19.9662 35.8451C20.301 36.2121 20.7466 36.3962 21.3087 36.3962C21.7833 36.3962 22.2278 36.2402 22.6442 35.9295V36.7551Z" fill="black"/>
<path d="M26.7909 32.4589C26.638 32.3413 26.4178 32.2839 26.1272 32.2839C25.7742 32.2839 25.4775 32.4418 25.2372 32.7606C24.9646 33.1166 24.8289 33.6093 24.8289 34.2389V37.0064H23.96V31.5779H24.8289V32.6973H24.8498C24.9776 32.301 25.1747 31.9963 25.4382 31.7801C25.6845 31.583 25.9631 31.4834 26.2698 31.4834C26.5011 31.4834 26.6731 31.5083 26.7907 31.5574V32.4585L26.7909 32.4589Z" fill="black"/>
<path d="M31.6335 34.3022C31.6335 33.6074 31.4766 33.0764 31.1629 32.7123C30.8582 32.3624 30.4328 32.1874 29.8847 32.1874C29.3446 32.1874 28.9113 32.3644 28.5874 32.7184C28.2445 33.0965 28.0735 33.6305 28.0735 34.3234C28.0735 34.9731 28.2364 35.4829 28.5653 35.8469C28.8921 36.213 29.3326 36.396 29.8847 36.396C30.4559 36.396 30.8934 36.21 31.193 35.8399C31.4867 35.4779 31.6335 34.966 31.6335 34.3022ZM32.5245 34.2717C32.5245 35.1365 32.2802 35.8315 31.7934 36.3524C31.3047 36.8753 30.647 37.1368 29.8204 37.1368C29.0058 37.1368 28.3571 36.8753 27.8815 36.3524C27.4158 35.8485 27.1815 35.1828 27.1815 34.3552C27.1815 33.4108 27.446 32.6827 27.977 32.1659C28.4677 31.6862 29.1244 31.4448 29.9471 31.4448C30.7566 31.4448 31.3892 31.6972 31.8447 32.1971C32.2963 32.6999 32.5245 33.3918 32.5245 34.2717Z" fill="black"/>
<path d="M36.8339 35.5544C36.8339 35.9989 36.668 36.367 36.3351 36.6606C35.9721 36.9784 35.4733 37.1373 34.8458 37.1373C34.3319 37.1373 33.8813 37.0297 33.4992 36.8105V35.8762C33.9246 36.2221 34.3942 36.3962 34.9101 36.3962C35.598 36.3962 35.9429 36.1427 35.9429 35.6379C35.9429 35.4257 35.8673 35.2497 35.7147 35.1139C35.5618 34.9751 35.2651 34.8092 34.8237 34.6151C34.3691 34.416 34.0453 34.2119 33.8542 33.9997C33.6249 33.7482 33.5092 33.4215 33.5092 33.0192C33.5092 32.5686 33.6893 32.1935 34.0453 31.8949C34.4022 31.5952 34.8608 31.4453 35.424 31.4453C35.8555 31.4453 36.2416 31.5298 36.5845 31.6998V32.5747C36.2265 32.3162 35.8172 32.1875 35.3526 32.1875C35.065 32.1875 34.8337 32.2591 34.6617 32.3987C34.4878 32.5415 34.4002 32.7235 34.4002 32.9457C34.4002 33.1861 34.4734 33.3732 34.6185 33.5069C34.7472 33.6306 35.0208 33.7815 35.4331 33.9574C35.8966 34.1515 36.2316 34.3527 36.4357 34.5588C36.7002 34.8193 36.8339 35.1512 36.8339 35.5544Z" fill="black"/>
<path d="M42.1438 34.3022C42.1438 33.6074 41.9869 33.0764 41.6721 32.7123C41.3684 32.3624 40.942 32.1874 40.395 32.1874C39.8549 32.1874 39.4215 32.3644 39.0957 32.7184C38.7538 33.0965 38.5837 33.6305 38.5837 34.3234C38.5837 34.9731 38.7467 35.4829 39.0725 35.8469C39.4034 36.213 39.8439 36.396 40.395 36.396C40.9671 36.396 41.4036 36.21 41.7033 35.8399C41.9969 35.4779 42.1438 34.966 42.1438 34.3022ZM43.0368 34.2717C43.0368 35.1365 42.7904 35.8315 42.3026 36.3524C41.8159 36.8753 41.1582 37.1368 40.3316 37.1368C39.516 37.1368 38.8673 36.8753 38.3917 36.3524C37.9261 35.8485 37.6918 35.1828 37.6918 34.3552C37.6918 33.4108 37.9582 32.6827 38.4862 32.1659C38.977 31.6862 39.6347 31.4448 40.4583 31.4448C41.2679 31.4448 41.8994 31.6972 42.354 32.1971C42.8065 32.6999 43.0368 33.3918 43.0368 34.2717Z" fill="black"/>
<path d="M46.8656 29.7334C46.6946 29.6389 46.5046 29.5906 46.2883 29.5906C45.6799 29.5906 45.3782 29.9737 45.3782 30.7411V31.5778H46.6504V32.3139H45.3782V37.0063H44.5083V32.3139H43.5851V31.5778H44.5083V30.6979C44.5083 30.1005 44.6913 29.6318 45.0635 29.2939C45.3823 29.0003 45.7724 28.8545 46.236 28.8545C46.5046 28.8545 46.7138 28.8867 46.8656 28.949V29.7334Z" fill="black"/>
<path d="M50.295 36.9518C50.0898 37.0695 49.8163 37.1279 49.4784 37.1279C48.5311 37.1279 48.0575 36.5938 48.0575 35.5258V32.3148H47.1262V31.5777H48.0575V30.2533C48.335 30.1657 48.6236 30.0702 48.9283 29.9717V31.5777H50.295V32.3148H48.9283V35.3781C48.9283 35.7421 48.9879 36.0025 49.1123 36.1534C49.2381 36.3093 49.4432 36.3857 49.7329 36.3857C49.949 36.3857 50.1361 36.3278 50.295 36.2107V36.9518Z" fill="black"/>
<path d="M3.32323 58.1934C3.32323 58.6187 3.17141 58.9868 2.86465 59.2976C2.55893 59.6073 2.18781 59.7632 1.7524 59.7632C1.32697 59.7632 0.964938 59.6073 0.668312 59.2976C0.371607 58.9868 0.223816 58.6187 0.223816 58.1934C0.223816 57.756 0.371607 57.3869 0.668312 57.0811C0.964938 56.7744 1.32697 56.6226 1.7524 56.6226C2.18781 56.6226 2.55893 56.7765 2.86465 57.0872C3.17141 57.398 3.32323 57.767 3.32323 58.1934Z" fill="black"/>
<path d="M22.7782 59.4431H19.9443L9.65752 43.5569C9.41712 43.1748 9.20996 42.7594 9.03401 42.3059H8.94946C9.02267 42.7312 9.06016 43.6444 9.06016 45.0433V59.4431H6.724V39.5122H9.75607L19.7351 55.148C20.1324 55.7685 20.4038 56.213 20.5416 56.4805H20.5971C20.5046 55.9072 20.4564 54.9298 20.4564 53.55V39.5122H22.7784V59.4431H22.7782Z" fill="black"/>
<path d="M37.7548 59.4431H27.1914V39.5122H37.2962V41.6241H29.5256V48.2543H36.726V50.3672H29.5256V57.3303H37.7548V59.4431Z" fill="black"/>
<path d="M53.777 41.6245H48.0359V59.4437H45.7007V41.6245H39.9484V39.5117H53.777V41.6245Z" fill="black"/>
<path d="M21.9855 5.08712C24.2392 11.9788 25.093 24.2729 31.683 24.2729C32.1848 24.2729 32.6917 24.2238 33.2005 24.127C27.2099 22.7302 26.4999 10.5698 22.8444 4.27246C22.5577 4.53295 22.2731 4.80447 21.9855 5.08712Z" fill="url(#paint0_linear_1_1968)"/>
<path d="M22.8439 4.27287C26.4995 10.5702 27.2095 22.7306 33.2001 24.1274C33.6707 24.0409 34.1424 23.9102 34.615 23.7453C29.2378 21.1105 27.7515 9.30215 23.6002 3.61719C23.3488 3.82644 23.0964 4.04567 22.8439 4.27287Z" fill="url(#paint1_linear_1_1968)"/>
<path d="M28.1114 0.527344C27.6105 0.527344 27.1026 0.57641 26.5928 0.673206C25.2593 0.924611 23.9048 1.4988 22.5391 2.36768C22.9122 2.73574 23.2671 3.15707 23.601 3.6167C24.9898 2.46422 26.3696 1.61247 27.7443 1.10055C28.2602 0.909491 28.7741 0.76572 29.29 0.671194C28.9179 0.576569 28.5257 0.527344 28.1114 0.527344Z" fill="#14559A"/>
<path d="M38.8127 21.3163C39.3628 20.8789 39.9139 20.3951 40.466 19.8672C38.1762 13.0076 37.3566 0.537598 30.7203 0.537598C30.2456 0.537598 29.7669 0.581843 29.2892 0.670332C35.3342 2.17382 36.1086 15.3257 38.8127 21.3163Z" fill="url(#paint2_linear_1_1968)"/>
<path d="M29.2901 0.671095C28.918 0.576569 28.5259 0.527344 28.1115 0.527344L30.7212 0.536906C30.2465 0.536906 29.7678 0.581151 29.2901 0.670696" fill="#3092C4"/>
<path d="M38.6971 22.7739C38.4377 22.5265 38.1913 22.255 37.9489 21.9653C36.8327 22.7558 35.7204 23.3551 34.6153 23.7453C35.0084 23.9374 35.4207 24.0803 35.8582 24.1687C36.1971 24.2379 36.5481 24.2733 36.9172 24.2733C38.1571 24.2733 39.1376 24.1265 39.9723 23.7263C39.5128 23.4778 39.0914 23.156 38.6971 22.7739Z" fill="#1969BC"/>
<path d="M27.7443 1.10188C33.1588 3.93377 33.6294 16.7578 37.9496 21.9651C38.2393 21.7609 38.5259 21.5447 38.8125 21.3164C36.1083 15.3258 35.335 2.17284 29.291 0.67041C28.7751 0.766948 28.2602 0.909842 27.7443 1.10188Z" fill="url(#paint3_linear_1_1968)"/>
<path d="M23.6006 3.61714C27.7519 9.30209 29.2383 21.1104 34.6154 23.7452C35.7207 23.355 36.8329 22.7557 37.9492 21.9652C33.6289 16.758 33.1583 3.93394 27.7438 1.10205C26.3691 1.61291 24.9894 2.46466 23.6006 3.61714Z" fill="url(#paint4_linear_1_1968)"/>
<path d="M19.3291 4.9215C18.6784 6.39282 18.0137 8.32662 17.2101 10.8508C18.8081 8.59913 20.4011 6.65926 21.985 5.08749C21.7667 4.41668 21.5324 3.79823 21.28 3.24707C20.6324 3.74289 19.9797 4.30106 19.3291 4.9215Z" fill="url(#paint5_linear_1_1968)"/>
<path d="M21.8574 2.82275C21.6664 2.95951 21.4743 3.09934 21.2812 3.24713C21.5336 3.79823 21.7669 4.41674 21.9852 5.08747C22.2727 4.80588 22.5583 4.53338 22.8439 4.27289C22.5373 3.74592 22.2114 3.25919 21.8574 2.82275Z" fill="#2B74B1"/>
<path d="M22.5394 2.36816C22.3121 2.51201 22.0859 2.66381 21.8576 2.8227C22.2116 3.25916 22.5374 3.74589 22.8452 4.2739C23.0976 4.04558 23.35 3.82538 23.6014 3.61718C23.2675 3.15764 22.9126 2.73623 22.5394 2.36816Z" fill="#125A9E"/>
<path d="M59.4701 0.00276904C56.4079 11.8121 50.0119 21.2973 44.6498 23.6888H44.6397C44.5421 23.733 44.4456 23.7733 44.3501 23.8124C44.3369 23.8204 44.325 23.8214 44.3148 23.8262C44.2866 23.8375 44.2605 23.8463 44.2323 23.8575C44.2192 23.8655 44.2072 23.8681 44.1952 23.8729C44.15 23.889 44.1057 23.9027 44.0614 23.9204C44.0423 23.9283 44.0243 23.9333 44.0061 23.9397C43.986 23.9476 43.9628 23.955 43.9397 23.9614C43.9196 23.9694 43.8985 23.9752 43.8753 23.9839C43.8562 23.9919 43.8361 23.9953 43.8181 24.0032C43.7788 24.0146 43.7427 24.0242 43.7034 24.0378C43.6873 24.0378 43.6723 24.0466 43.6551 24.0508C43.631 24.0587 43.6038 24.0645 43.5777 24.0717C43.5595 24.0797 43.5445 24.0823 43.5254 24.0862C43.4982 24.0942 43.468 24.1016 43.4409 24.108C43.4047 24.1159 43.3725 24.1233 43.3383 24.1305C43.5807 24.22 43.8331 24.2652 44.1056 24.2652C49.1902 24.2652 54.3169 15.1531 62.7996 0H59.4689L59.4701 0.00276904Z" fill="url(#paint6_linear_1_1968)"/>
<path d="M16.1064 1.00674C16.1096 1.00674 16.1136 0.998775 16.1156 0.998775C16.1195 0.998775 16.1257 0.998776 16.1277 0.990807H16.1341C16.1622 0.981245 16.1884 0.96989 16.2165 0.959431C16.2237 0.959431 16.2275 0.959431 16.2327 0.951463C16.2399 0.951463 16.2468 0.943494 16.2538 0.942498C16.284 0.932936 16.3142 0.921581 16.3423 0.911122H16.3471C16.4145 0.891022 16.4769 0.866081 16.5422 0.842753C16.5514 0.842753 16.5603 0.834785 16.5713 0.834785C16.5985 0.826019 16.6267 0.816258 16.6548 0.809843C16.668 0.801875 16.681 0.801875 16.693 0.797691C16.7221 0.788926 16.7504 0.779165 16.7775 0.77275C16.7897 0.77275 16.8007 0.764782 16.8097 0.763985C16.9032 0.738247 16.9957 0.714102 17.0893 0.691572C17.1024 0.691572 17.1134 0.683603 17.1275 0.682806C17.1546 0.674838 17.1798 0.670654 17.2089 0.66667C17.2211 0.658702 17.2351 0.658702 17.2492 0.654518C17.2763 0.64655 17.3024 0.645753 17.3316 0.639179H17.3507C17.4071 0.627824 17.4644 0.618262 17.5207 0.607803H17.5549C17.582 0.599835 17.6061 0.599038 17.6333 0.594058C17.6483 0.594058 17.6635 0.586089 17.6776 0.586089C17.7027 0.586089 17.7279 0.578121 17.753 0.574734C17.7661 0.574734 17.7791 0.574734 17.7942 0.566766C17.8535 0.558797 17.9149 0.55561 17.9773 0.550629C17.8013 0.533696 17.6202 0.522461 17.4362 0.522461C11.7101 0.522461 3.82075 11.1471 0.266785 24.9064H0.951632C2.08902 22.878 3.11076 20.9592 4.04501 19.1581C6.53399 9.41239 11.6035 2.76602 16.1068 1.00517" fill="url(#paint7_linear_1_1968)"/>
<path d="M19.3293 4.92107C19.98 4.30063 20.6326 3.74246 21.2802 3.24672C21.1324 2.9229 20.9796 2.62321 20.8156 2.34863C20.2917 2.9842 19.813 3.82292 19.3293 4.92107Z" fill="#0D82CA"/>
<path d="M19.8 1.08747C20.1741 1.40122 20.5089 1.83268 20.8157 2.34959C20.9122 2.23092 21.0098 2.12127 21.1113 2.0187C20.686 1.62149 20.2263 1.29566 19.7275 1.05029C19.7477 1.06145 19.7678 1.07041 19.7887 1.07926C19.7887 1.07926 19.7966 1.08723 19.8 1.08723" fill="#0D82CA"/>
<path d="M4.0451 19.1594C9.26643 9.0978 11.7403 2.73002 16.1069 1.00635C11.6046 2.76831 6.53408 9.4146 4.0451 19.1594Z" fill="url(#paint8_linear_1_1968)"/>
<path d="M21.1113 2.01855C21.0097 2.12218 20.9132 2.23079 20.8156 2.34946C20.9796 2.62396 21.1324 2.92268 21.2813 3.24747C21.4743 3.09968 21.6664 2.95985 21.8575 2.82309C21.6212 2.53144 21.3718 2.26096 21.1113 2.01855Z" fill="#127BCA"/>
<path d="M6.41467 24.8624C6.38249 24.8703 6.35031 24.8703 6.32014 24.8737H6.30203C6.27484 24.8737 6.24668 24.8817 6.22158 24.8817H6.20847C6.14314 24.8897 6.07874 24.8897 6.01639 24.8946H5.99628C11.281 24.7468 13.6965 22.1009 14.8953 18.2633C15.8064 15.354 16.5546 12.9032 17.2103 10.8467C14.9968 13.9622 12.7733 17.676 10.5378 21.8364C9.45973 23.8417 7.82052 24.6793 6.41463 24.8584" fill="url(#paint9_linear_1_1968)"/>
<path d="M6.41507 24.8605C7.82097 24.6814 9.46017 23.8447 10.5382 21.8385C12.7738 17.6791 14.9983 13.9643 17.2097 10.8487C18.0142 8.32352 18.6779 6.39075 19.3296 4.91943C14.9219 9.11501 10.497 16.0912 6.41507 24.8585" fill="url(#paint10_linear_1_1968)"/>
<path d="M4.04449 19.1597C3.11028 20.9608 2.08854 22.8796 0.951111 24.908H2.94334C3.20682 22.8936 3.58092 20.9728 4.04449 19.1606" fill="#05A1E6"/>
<path d="M17.794 0.572113C17.7778 0.572113 17.7658 0.580082 17.7517 0.580082C17.7276 0.58805 17.7024 0.58805 17.6773 0.59064C17.6624 0.59064 17.6482 0.59064 17.6331 0.598609C17.6059 0.606577 17.5808 0.607374 17.5546 0.612354C17.5425 0.612354 17.5305 0.612354 17.5204 0.620323C17.4631 0.629885 17.4068 0.640443 17.3505 0.650085H17.3313C17.3022 0.658053 17.276 0.662237 17.2489 0.666221C17.2347 0.674189 17.2207 0.674189 17.2076 0.677377C17.1805 0.685345 17.1533 0.688732 17.1272 0.693513C17.113 0.701481 17.1021 0.701481 17.0889 0.702278C16.9954 0.724809 16.9029 0.748953 16.8094 0.774692C16.7994 0.774692 16.7893 0.78266 16.7772 0.784254C16.7491 0.792222 16.7219 0.80039 16.6927 0.809195C16.6806 0.817163 16.6666 0.817163 16.6545 0.820351C16.6264 0.828319 16.5982 0.836487 16.571 0.845292C16.5601 0.845292 16.5509 0.853261 16.5409 0.853261C16.4765 0.877385 16.4132 0.901529 16.3468 0.92165C16.3186 0.930415 16.2885 0.94175 16.2583 0.952209C16.2461 0.960177 16.2351 0.96197 16.2211 0.967548C16.193 0.976313 16.1648 0.987669 16.1386 0.998127C16.1287 1.0061 16.1185 1.00689 16.1115 1.01108C11.745 2.73475 9.27112 9.10253 4.04979 19.1641C3.58619 20.9763 3.21108 22.897 2.94861 24.9113H3.22818C4.0156 24.9113 4.23785 24.9034 5.14394 24.9034H5.1902H5.32495H5.37121H5.38432H5.43058H5.45673H5.47484H5.51104H5.62367H5.73631H5.83084H5.85594H6.02187C6.08422 24.8954 6.14858 24.8954 6.21395 24.8904H6.22602C6.25321 24.8904 6.28033 24.8824 6.30647 24.8824H6.32554C6.35466 24.8824 6.38789 24.8745 6.42007 24.8711C10.502 16.1039 14.9268 9.12763 19.3346 4.93206C19.8193 3.8339 20.297 2.99518 20.82 2.36065C20.5142 1.84376 20.1794 1.41133 19.8053 1.09749C19.8053 1.09749 19.7951 1.09749 19.7943 1.08953C19.7731 1.08076 19.7531 1.0702 19.732 1.05976C19.7108 1.04841 19.6927 1.03964 19.6706 1.02839C19.6515 1.02042 19.6294 1.00986 19.6103 0.999422C19.5842 0.991454 19.563 0.980098 19.5399 0.96964C19.5208 0.961671 19.5037 0.953504 19.4846 0.945515C19.4453 0.930176 19.4061 0.91414 19.3689 0.897246C19.3518 0.889278 19.3358 0.885095 19.3196 0.87872C19.2925 0.868958 19.2613 0.856189 19.2331 0.844117C19.219 0.836148 19.2029 0.834555 19.1869 0.828777C19.1457 0.815032 19.1054 0.800629 19.0672 0.78774H19.0572C19.0109 0.772401 18.9657 0.761205 18.9184 0.748316C18.9075 0.740348 18.8983 0.740347 18.8873 0.738754C18.846 0.727399 18.8098 0.716223 18.7706 0.705764C18.7607 0.705764 18.7515 0.697796 18.7435 0.697796C18.649 0.672855 18.5514 0.652754 18.4529 0.634247C18.4427 0.634247 18.4328 0.626279 18.4227 0.626279C18.3805 0.618311 18.3393 0.61094 18.297 0.606159C18.2869 0.59819 18.2809 0.59819 18.2719 0.59819C18.2216 0.590222 18.1724 0.584445 18.1231 0.578867H18.0969C18.0567 0.570898 18.0195 0.570101 17.9823 0.565918C17.9189 0.573886 17.8586 0.577273 17.7993 0.582851" fill="url(#paint11_linear_1_1968)"/>
<path d="M47.5089 6.54061C46.5042 9.75869 45.6907 12.4136 44.9827 14.5979C47.7392 10.8046 50.4544 6.03272 53.04 0.525879C50.024 1.47311 48.415 3.64137 47.5089 6.54061Z" fill="url(#paint12_linear_1_1968)"/>
<path d="M45.0702 23.4878C44.9294 23.5594 44.7886 23.6276 44.6498 23.6889C50.0119 21.2975 56.4079 11.8122 59.4701 0.00292969H58.8496C51.8141 12.5705 49.5514 20.9837 45.0702 23.4878Z" fill="url(#paint13_linear_1_1968)"/>
<path d="M41.5692 22.4316C42.7357 21.0077 43.686 18.5871 44.9834 14.5977C43.4869 16.6532 41.9805 18.4202 40.473 19.8612C40.473 19.8692 40.473 19.8692 40.465 19.8742C40.7939 20.8597 41.1549 21.7295 41.5662 22.4315" fill="#079AE1"/>
<path d="M41.5688 22.4316C41.1715 22.9164 40.7512 23.2855 40.2836 23.559C40.181 23.6186 40.0774 23.6746 39.9718 23.726C40.4656 23.9924 41.0046 24.1705 41.6079 24.2418C41.6964 24.2506 41.7839 24.2587 41.8755 24.2651H41.8916C41.9326 24.2651 41.9761 24.2651 42.0203 24.2731H42.0381H42.1698H42.3117H42.3559H42.4565C42.4726 24.2731 42.4895 24.2731 42.5056 24.2651C42.5369 24.2651 42.5699 24.2651 42.6021 24.2572H42.6135H42.6497C42.6827 24.2572 42.7189 24.2492 42.7543 24.2458H42.7622C42.7728 24.2458 42.7839 24.2379 42.7944 24.2379C42.8314 24.2299 42.87 24.2265 42.9061 24.2209H42.9391C42.9801 24.213 43.0225 24.208 43.0647 24.2H43.0727H43.0848C43.1693 24.1839 43.2518 24.1678 43.3352 24.1469C42.6433 23.8935 42.0641 23.2961 41.5653 22.4453" fill="#1969BC"/>
<path d="M31.6828 24.2731C32.1847 24.2731 32.6915 24.2241 33.2004 24.1263C33.671 24.0409 34.1426 23.91 34.6153 23.7451C35.0085 23.9372 35.4208 24.0801 35.8573 24.1685C36.1962 24.2377 36.5481 24.2731 36.9172 24.2731H31.6828Z" fill="#1E5CB3"/>
<path d="M36.9176 24.2731C38.1566 24.2731 39.1381 24.1263 39.9718 23.7261C40.4655 23.9925 41.0046 24.1706 41.6079 24.242C41.6965 24.2508 41.784 24.2589 41.8755 24.2653H41.8916C41.9326 24.2653 41.9761 24.2653 42.0203 24.2733H42.0389H42.1706H36.9141L36.9176 24.2731Z" fill="#1E5CB3"/>
<path d="M42.1738 24.2733H42.3166H42.3608H42.4604C42.4774 24.2733 42.4934 24.2733 42.5095 24.2653C42.5409 24.2653 42.5739 24.2653 42.6071 24.2574H42.6176H42.6547C42.6876 24.2574 42.7238 24.2494 42.7583 24.2462H42.767C42.7776 24.2462 42.788 24.2383 42.7984 24.2383C42.8354 24.2303 42.8741 24.2271 42.91 24.2213C42.9222 24.2213 42.9317 24.2213 42.9446 24.2133C42.9856 24.2054 43.0281 24.2012 43.0704 24.1932H43.0783H43.0905C43.175 24.1771 43.2574 24.1611 43.3408 24.1401C43.5832 24.2296 43.8356 24.2749 44.1081 24.2749L42.1753 24.2829L42.1738 24.2733Z" fill="#1D60B5"/>
<path d="M40.4675 19.8742V19.8662C39.9154 20.3941 39.3643 20.8779 38.8142 21.3153C38.5266 21.5436 38.24 21.7598 37.9504 21.964C38.1927 22.2536 38.4391 22.5251 38.6986 22.7725C39.0928 23.1546 39.5141 23.4765 39.9737 23.7249C40.0783 23.6734 40.1829 23.6172 40.2844 23.5579C40.7531 23.2844 41.1734 22.9153 41.5707 22.4306C41.1594 21.7287 40.7984 20.8587 40.4695 19.8732" fill="#175FAB"/>
<path d="M56.8842 0.00292969H54.2755H54.0161H53.7707H53.7611C53.5922 0.0108981 53.4283 0.0166753 53.2664 0.0270741C53.1899 0.191045 53.1115 0.354996 53.036 0.519923C50.4505 6.02677 47.7353 10.7986 44.9788 14.5919C43.6825 18.5813 42.7312 21.0019 41.5646 22.4259C42.0634 23.2767 42.6437 23.875 43.3336 24.1285C43.3537 24.1205 43.3698 24.1205 43.3879 24.1163H43.399C43.4112 24.1163 43.4241 24.1083 43.4373 24.1083C43.4654 24.1004 43.4956 24.0954 43.5237 24.0866C43.5419 24.0786 43.5569 24.0779 43.5751 24.0721C43.6012 24.0641 43.6283 24.0583 43.6525 24.052C43.6686 24.044 43.6846 24.0414 43.7007 24.0382C43.741 24.0253 43.7772 24.0157 43.8154 24.0036C43.8335 23.9956 43.8526 23.9891 43.8727 23.9843C43.8949 23.9763 43.917 23.9705 43.9371 23.961C43.9603 23.953 43.9834 23.9488 44.0035 23.94C44.0216 23.9321 44.0407 23.9271 44.0578 23.9199C44.103 23.9038 44.1473 23.8902 44.1925 23.8724C44.2047 23.8724 44.2167 23.8613 44.2298 23.8587C44.2569 23.8473 44.2851 23.8386 44.3123 23.8265C44.3222 23.8185 44.3344 23.8177 44.3474 23.8136C44.4419 23.7741 44.5395 23.7339 44.637 23.6899H44.6472C44.786 23.6288 44.9268 23.5601 45.0666 23.4888C49.5487 20.9847 51.8115 12.5715 58.847 0.00390582H56.8819L56.8842 0.00292969Z" fill="url(#paint14_linear_1_1968)"/>
<path d="M17.9767 0.555143C17.9879 0.555143 17.9979 0.555143 18.0089 0.563112C18.036 0.563112 18.0632 0.563112 18.0904 0.571877H18.1176C18.1668 0.579845 18.2161 0.584029 18.2664 0.5912C18.2756 0.5912 18.2835 0.5912 18.2915 0.599169C18.3327 0.607137 18.375 0.613711 18.4172 0.620086C18.4264 0.620086 18.4384 0.628055 18.4484 0.628055C18.545 0.647378 18.6435 0.667478 18.7381 0.69242C18.747 0.69242 18.7562 0.700388 18.7642 0.700388C18.8044 0.70995 18.8406 0.722102 18.8808 0.733358C18.893 0.733358 18.9019 0.741326 18.913 0.743119C18.9603 0.755271 19.0046 0.767264 19.0508 0.782543C19.0528 0.782543 19.0556 0.782543 19.061 0.790511C19.1001 0.802464 19.1404 0.817863 19.1816 0.831529C19.1978 0.839498 19.2128 0.842884 19.2279 0.846868C19.2561 0.85902 19.2873 0.870993 19.3144 0.882268C19.3305 0.882268 19.3466 0.893424 19.3636 0.899201C19.4008 0.916134 19.4401 0.931374 19.4783 0.94747C19.4984 0.955439 19.5154 0.964403 19.5346 0.971595C19.5567 0.98295 19.5798 0.993329 19.6039 1.00138C19.624 1.01094 19.6462 1.02148 19.6652 1.03032C19.6864 1.04168 19.7064 1.05044 19.7266 1.0617C20.2254 1.30709 20.685 1.63395 21.1104 2.03018C21.2673 1.86526 21.4312 1.71738 21.6012 1.58465C20.6709 0.92494 19.617 0.548828 18.4012 0.548828C18.2604 0.548828 18.1196 0.556797 17.9768 0.567355" fill="#7DCBEC"/>
<path d="M21.1105 2.01829C21.371 2.26061 21.6204 2.53118 21.8567 2.82283C22.085 2.66393 22.3113 2.51106 22.5386 2.36827C22.2409 2.07058 21.9271 1.80308 21.6003 1.57275C21.4303 1.70453 21.2674 1.85336 21.1105 2.01829Z" fill="#5EC5ED"/>
<path d="M17.977 0.555038C18.1198 0.54297 18.2606 0.537942 18.4014 0.537942C19.6172 0.537942 20.6711 0.914054 21.6013 1.57275C22.5829 0.798405 23.7695 0.527885 25.4178 0.527885H17.4359C17.62 0.527885 17.8 0.538947 17.977 0.555038Z" fill="url(#paint15_linear_1_1968)"/>
<path d="M25.4182 0.527827C23.7699 0.527827 22.5833 0.798347 21.6017 1.5727C21.9276 1.80299 22.2413 2.07049 22.539 2.36816C23.9057 1.49928 25.2593 0.924053 26.5938 0.672641C27.1026 0.577104 27.6105 0.527827 28.1113 0.527827H25.4182Z" fill="url(#paint16_linear_1_1968)"/>
<path d="M44.9831 14.6001C45.6921 12.4138 46.5037 9.75992 47.5103 6.54078C48.4174 3.6405 50.0235 1.47233 53.0394 0.526052C53.119 0.364093 53.1943 0.197154 53.2717 0.0332031C48.3551 0.327897 46.0572 2.8289 44.9007 6.53276C42.8783 12.9991 41.6534 17.1906 40.4738 19.8616C41.9803 18.4215 43.4867 16.6536 44.9831 14.6001Z" fill="url(#paint17_linear_1_1968)"/>
<path d="M52.1963 22.5508H51.6391V24.2826H51.4119V22.5508H50.8527V22.3447H52.1963V22.5508Z" fill="black"/>
<path d="M54.4774 24.2821H54.2511V22.9808C54.2511 22.8782 54.2591 22.7525 54.2697 22.6046C54.2463 22.6932 54.227 22.7545 54.2093 22.7937L53.5496 24.2821H53.439L52.7773 22.8048C52.7579 22.7638 52.7387 22.6972 52.7177 22.6046H52.7098C52.7177 22.6827 52.7203 22.8088 52.7203 22.9838V24.2821H52.5031V22.3442H52.8028L53.3971 23.6968C53.4421 23.7984 53.4703 23.8768 53.4846 23.9291H53.4934C53.5328 23.8225 53.565 23.743 53.587 23.6907L54.1933 22.3442H54.4789V24.2821H54.4774Z" fill="black"/>
</g>
<defs>
<linearGradient id="paint0_linear_1_1968" x1="27.5927" y1="0.369172" x2="27.5927" y2="30.198" gradientUnits="userSpaceOnUse">
<stop stop-color="#0994DC"/>
<stop offset="0.350006" stop-color="#66CEF5"/>
<stop offset="0.846161" stop-color="#127BCA"/>
<stop offset="1" stop-color="#127BCA"/>
</linearGradient>
<linearGradient id="paint1_linear_1_1968" x1="28.7296" y1="-0.385628" x2="28.7296" y2="30.2034" gradientUnits="userSpaceOnUse">
<stop stop-color="#0E76BC"/>
<stop offset="0.360001" stop-color="#36AEE8"/>
<stop offset="0.846161" stop-color="#00ADEF"/>
<stop offset="1" stop-color="#00ADEF"/>
</linearGradient>
<linearGradient id="paint2_linear_1_1968" x1="34.8775" y1="23.5857" x2="34.8775" y2="-0.753581" gradientUnits="userSpaceOnUse">
<stop stop-color="#1C63B7"/>
<stop offset="0.5" stop-color="#33BDF2"/>
<stop offset="1" stop-color="#33BDF2" stop-opacity="0.419608"/>
</linearGradient>
<linearGradient id="paint3_linear_1_1968" x1="33.2785" y1="-3.48524" x2="33.2785" y2="28.2741" gradientUnits="userSpaceOnUse">
<stop stop-color="#166AB8"/>
<stop offset="0.399994" stop-color="#36AEE8"/>
<stop offset="0.846161" stop-color="#0798DD"/>
<stop offset="1" stop-color="#0798DD"/>
</linearGradient>
<linearGradient id="paint4_linear_1_1968" x1="30.7747" y1="-3.31815" x2="30.7747" y2="30.4537" gradientUnits="userSpaceOnUse">
<stop stop-color="#124379"/>
<stop offset="0.389999" stop-color="#1487CB"/>
<stop offset="0.780228" stop-color="#165197"/>
<stop offset="1" stop-color="#165197"/>
</linearGradient>
<linearGradient id="paint5_linear_1_1968" x1="17.2102" y1="7.04898" x2="21.985" y2="7.04898" gradientUnits="userSpaceOnUse">
<stop stop-color="#33BDF2" stop-opacity="0.698039"/>
<stop offset="1" stop-color="#1DACD8"/>
</linearGradient>
<linearGradient id="paint6_linear_1_1968" x1="53.0708" y1="22.9759" x2="53.0708" y2="-0.733922" gradientUnits="userSpaceOnUse">
<stop stop-color="#136AB4"/>
<stop offset="0.6" stop-color="#59CAF5" stop-opacity="0.54902"/>
<stop offset="1" stop-color="#59CAF5" stop-opacity="0.235294"/>
</linearGradient>
<linearGradient id="paint7_linear_1_1968" x1="0.26665" y1="12.7144" x2="17.9771" y2="12.7144" gradientUnits="userSpaceOnUse">
<stop stop-color="#05A1E6" stop-opacity="0.247059"/>
<stop offset="1" stop-color="#05A1E6"/>
</linearGradient>
<linearGradient id="paint8_linear_1_1968" x1="10.0758" y1="23.573" x2="10.0758" y2="-0.703915" gradientUnits="userSpaceOnUse">
<stop stop-color="#318ED5"/>
<stop offset="1" stop-color="#38A7E4"/>
</linearGradient>
<linearGradient id="paint9_linear_1_1968" x1="11.6031" y1="23.6584" x2="11.6031" y2="0.0599015" gradientUnits="userSpaceOnUse">
<stop stop-color="#05A1E6"/>
<stop offset="1" stop-color="#05A1E6" stop-opacity="0.54902"/>
</linearGradient>
<linearGradient id="paint10_linear_1_1968" x1="12.8723" y1="24.8626" x2="12.8723" y2="4.92147" gradientUnits="userSpaceOnUse">
<stop stop-color="#1959A6"/>
<stop offset="0.5" stop-color="#05A1E6"/>
<stop offset="0.917587" stop-color="#7EC5EA"/>
<stop offset="1" stop-color="#7EC5EA"/>
</linearGradient>
<linearGradient id="paint11_linear_1_1968" x1="13.6364" y1="23.5888" x2="6.87689" y2="2.93135" gradientUnits="userSpaceOnUse">
<stop stop-color="#165096"/>
<stop offset="1" stop-color="#0D82CA"/>
</linearGradient>
<linearGradient id="paint12_linear_1_1968" x1="49.0109" y1="11.3611" x2="49.0109" y2="0.0616525" gradientUnits="userSpaceOnUse">
<stop stop-color="#05A1E6"/>
<stop offset="0.873627" stop-color="#0495D6"/>
<stop offset="1" stop-color="#0495D6"/>
</linearGradient>
<linearGradient id="paint13_linear_1_1968" x1="54.322" y1="-0.982749" x2="43.7909" y2="22.3992" gradientUnits="userSpaceOnUse">
<stop stop-color="#38A7E4" stop-opacity="0.329412"/>
<stop offset="0.961533" stop-color="#0E88D3"/>
<stop offset="1" stop-color="#0E88D3"/>
</linearGradient>
<linearGradient id="paint14_linear_1_1968" x1="50.2087" y1="-0.0684279" x2="50.2087" y2="24.5825" gradientUnits="userSpaceOnUse">
<stop stop-color="#168CD4"/>
<stop offset="0.5" stop-color="#1C87CC"/>
<stop offset="1" stop-color="#154B8D"/>
</linearGradient>
<linearGradient id="paint15_linear_1_1968" x1="18.7668" y1="-0.57513" x2="18.8736" y2="2.0102" gradientUnits="userSpaceOnUse">
<stop stop-color="#97D6EE"/>
<stop offset="0.703293" stop-color="#55C1EA"/>
<stop offset="1" stop-color="#55C1EA"/>
</linearGradient>
<linearGradient id="paint16_linear_1_1968" x1="22.0503" y1="2.25222" x2="22.5331" y2="-0.486358" gradientUnits="userSpaceOnUse">
<stop stop-color="#7ACCEC"/>
<stop offset="1" stop-color="#3FB7ED"/>
</linearGradient>
<linearGradient id="paint17_linear_1_1968" x1="46.8723" y1="1.29485" x2="46.8723" y2="25.4059" gradientUnits="userSpaceOnUse">
<stop stop-color="#1DA7E7"/>
<stop offset="1" stop-color="#37ABE7" stop-opacity="0"/>
</linearGradient>
<clipPath id="clip0_1_1968">
<rect width="63" height="60" fill="white"/>
</clipPath>
</defs>
</svg>
