<svg width="133" height="38" viewBox="0 0 133 38" fill="none" xmlns="http://www.w3.org/2000/svg">
<g clip-path="url(#clip0_1_2120)">
<path d="M123.976 15.7239C123.856 15.7478 123.736 16.0121 123.736 16.1557C123.712 17.116 123.688 19.66 123.688 21.3872C123.688 21.4351 123.76 21.5308 123.832 21.5308C124.192 21.5547 125.056 21.5787 125.8 21.5787C126.832 21.5787 127.431 21.4351 127.768 21.2915C128.632 20.8597 129.04 19.9233 129.04 18.8911C129.04 16.5636 127.408 15.675 124.984 15.675C124.816 15.6521 124.337 15.6521 123.976 15.7239ZM130.168 26.4511C130.168 24.0747 128.416 22.7554 125.248 22.7554C125.104 22.7554 124.096 22.7315 123.856 22.7793C123.784 22.8033 123.688 22.8511 123.688 22.9239C123.688 24.6272 123.664 27.3397 123.736 28.3957C123.784 28.8515 124.12 29.4997 124.528 29.6911C124.96 29.9315 125.944 29.9793 126.616 29.9793C128.512 29.9793 130.168 28.9233 130.168 26.4511ZM119.08 14.4046C119.32 14.4046 120.04 14.4764 121.887 14.4764C123.64 14.4764 125.032 14.4285 126.735 14.4285C128.823 14.4285 131.703 15.1724 131.703 18.2928C131.703 19.8285 130.623 21.0531 129.207 21.6525C129.135 21.6764 129.135 21.7243 129.207 21.7482C131.222 22.2528 133 23.5003 133 25.8518C133 28.1564 131.56 29.6203 129.471 30.5318C128.199 31.0833 126.615 31.2758 125.008 31.2758C123.784 31.2758 120.496 31.1322 118.672 31.18C118.481 31.1082 118.84 30.2436 119.008 30.1C119.44 30.0761 119.776 30.0521 120.233 29.9075C120.881 29.74 120.953 29.5475 121.049 28.5643C121.097 27.7246 121.097 24.7479 121.097 22.6367C121.097 19.7328 121.121 17.7652 121.097 16.8049C121.073 16.061 120.808 15.8206 120.281 15.677C119.873 15.6052 119.201 15.5095 118.648 15.4377C118.528 15.316 118.937 14.4993 119.08 14.4046ZM105.233 29.3311C105.809 29.7869 106.937 29.9784 107.945 29.9784C109.24 29.9784 110.537 29.739 111.785 28.6101C113.058 27.4583 113.945 25.6823 113.945 22.8511C113.945 20.1387 112.913 17.9308 110.801 16.6354C109.601 15.8914 108.066 15.5793 106.29 15.5793C105.762 15.5793 105.258 15.6032 104.946 15.7468C104.875 15.7947 104.706 16.0111 104.706 16.1308C104.658 16.6104 104.658 20.3062 104.658 22.4672C104.658 24.699 104.658 27.8193 104.706 28.1793C104.705 28.5393 104.873 29.0918 105.233 29.3311ZM99.7847 14.4036C100.24 14.4036 101.993 14.4754 102.832 14.4754C104.344 14.4754 105.424 14.4036 108.28 14.4036C110.68 14.4036 112.696 15.0518 114.136 16.2754C115.888 17.7872 116.801 19.8754 116.801 22.4193C116.801 26.0433 115.144 28.1315 113.489 29.3311C111.833 30.5548 109.673 31.2748 106.601 31.2748C104.969 31.2748 102.161 31.2269 99.8326 31.203H99.8087C99.689 30.9876 100 30.1469 100.193 30.123C100.817 30.0511 100.984 30.0262 101.297 29.9075C101.8 29.7151 101.897 29.4518 101.969 28.5633C102.04 26.9069 102.017 24.9154 102.017 22.6597C102.017 21.0521 102.04 17.9078 101.993 16.8996C101.921 16.06 101.561 15.8436 100.841 15.7C100.481 15.6282 100.001 15.5324 99.329 15.4606C99.2333 15.2921 99.6651 14.5482 99.7847 14.4036Z" fill="#3A3A3A"/>
<path d="M70.746 30.2676C70.1457 30.1958 69.7139 30.1001 69.1864 29.8597C69.1146 29.8119 68.9939 29.5715 68.9939 29.4758C68.946 28.6361 68.946 26.2358 68.946 24.6282C68.946 23.3318 68.7306 22.204 68.1782 21.4122C67.53 20.4997 66.5946 19.9722 65.3939 19.9722C64.3378 19.9722 62.9218 20.6922 61.746 21.7004C61.7221 21.7243 61.5306 21.8928 61.5545 21.6286C61.5545 21.3643 61.6024 20.8368 61.6263 20.4768C61.6503 20.1407 61.4588 19.9732 61.4588 19.9732C60.6909 20.3571 58.5309 20.8607 57.7391 20.9325C57.1637 21.0532 57.0191 21.6046 57.6195 21.7971H57.6434C58.2906 21.9886 58.7234 22.205 59.0585 22.4214C59.2988 22.6128 59.2749 22.8771 59.2749 23.0935C59.2988 24.8935 59.2988 27.6529 59.227 29.1657C59.2031 29.766 59.0355 29.9814 58.6027 30.0771L58.6506 30.0532C58.3145 30.125 58.0503 30.1968 57.6424 30.2447C57.4988 30.3883 57.4988 31.1571 57.6424 31.3247C57.9067 31.3247 59.2978 31.2529 60.4506 31.2529C62.0342 31.2529 62.8509 31.3247 63.2578 31.3247C63.4254 31.1332 63.4742 30.4122 63.3775 30.2447C62.9218 30.2207 62.5857 30.1729 62.2735 30.0771C61.8417 29.9804 61.7211 29.765 61.6971 29.2614C61.6493 27.9889 61.6493 25.3014 61.6493 23.4774C61.6493 22.9738 61.7929 22.7335 61.9365 22.5889C62.489 22.1092 63.3765 21.7732 64.1683 21.7732C64.9362 21.7732 65.4398 22.0135 65.8237 22.3256C66.3512 22.7574 66.5198 23.3817 66.5916 23.8374C66.7112 24.8696 66.6634 26.9089 66.6634 28.685C66.6634 29.6453 66.5916 29.8847 66.2316 30.0043C66.063 30.0761 65.6312 30.1729 65.1276 30.2197C64.9601 30.3883 65.008 31.1322 65.1276 31.2997C65.8237 31.2997 66.6394 31.2279 67.8391 31.2279C69.327 31.2279 70.2873 31.2997 70.6712 31.2997C70.7939 31.1551 70.8418 30.4591 70.746 30.2676ZM77.3936 21.1C76.1221 21.1 75.3293 22.0843 75.3293 23.62C75.3293 25.1797 76.0254 26.9797 77.9929 26.9797C78.329 26.9797 78.9533 26.8361 79.2405 26.5001C79.6962 26.0683 80.0083 25.2046 80.0083 24.2922C80.0093 22.2997 79.0251 21.1 77.3936 21.1ZM77.2251 31.7076C76.7454 31.7076 76.4093 31.8512 76.1929 31.9719C75.1847 32.6191 74.729 33.2433 74.729 33.9883C74.729 34.6843 74.9933 35.2358 75.5687 35.7155C76.2647 36.3158 77.2241 36.604 78.4487 36.604C80.8969 36.604 81.9769 35.2837 81.9769 33.9883C81.9769 33.0758 81.5211 32.4765 80.5847 32.1404C79.9136 31.8512 78.69 31.7076 77.2251 31.7076ZM77.3936 37.9473C75.9297 37.9473 74.8736 37.6352 73.9621 36.9391C73.0736 36.267 72.6896 35.2588 72.6896 34.5627C72.6896 34.3712 72.7375 33.8427 73.1693 33.363C73.4326 33.0748 74.009 32.5233 75.3772 31.5869C75.4251 31.563 75.449 31.5391 75.449 31.4902C75.449 31.4423 75.4011 31.3945 75.3533 31.3705C74.2254 30.9387 73.8893 30.2427 73.7936 29.8587V29.8109C73.7697 29.6673 73.7218 29.5227 73.9382 29.3791C74.1057 29.2594 74.3461 29.1148 74.6103 28.9473C75.0182 28.7069 75.45 28.4427 75.7143 28.2273C75.7621 28.1794 75.7621 28.1315 75.7621 28.0837C75.7621 28.0358 75.7143 27.9869 75.6654 27.964C73.9861 27.4115 73.1454 26.164 73.1454 24.2922C73.1454 23.0686 73.6969 21.9646 74.6811 21.2686C75.3533 20.741 77.0336 20.0928 78.1375 20.0928H78.2093C79.3372 20.1168 79.9615 20.3571 80.849 20.6692C81.3287 20.8368 81.7854 20.9086 82.4097 20.9086C83.3451 20.9086 83.753 20.6204 84.089 20.2853C84.113 20.3332 84.1618 20.4528 84.1858 20.765C84.2097 21.0771 84.114 21.5328 83.8736 21.8689C83.6822 22.1332 83.2494 22.3246 82.8175 22.3246H82.6979C82.2661 22.2768 82.0736 22.2279 82.0736 22.2279L81.9779 22.2758C81.9539 22.3236 81.9779 22.3715 82.0018 22.4433L82.0257 22.4912C82.0736 22.7066 82.1694 23.3548 82.1694 23.5233C82.1694 25.4909 81.3775 26.3545 80.5379 27.0027C79.7221 27.603 78.7857 27.9869 77.7297 28.0827C77.7057 28.0827 77.61 28.0827 77.3936 28.1066C77.2739 28.1066 77.1054 28.1305 77.0815 28.1305H77.0575C76.8661 28.1784 76.3854 28.4187 76.3854 28.8266C76.3854 29.1866 76.6008 29.6184 77.6329 29.6912C77.8483 29.7151 78.0647 29.7151 78.3051 29.7391C79.6733 29.8348 81.3766 29.9545 82.1694 30.2187C83.2733 30.6266 83.9694 31.6109 83.9694 32.7866C83.9694 34.5627 82.6979 36.2191 80.5857 37.2502C79.5536 37.707 78.5215 37.9473 77.3936 37.9473ZM91.0726 21.2197C90.569 21.2197 90.1123 21.3394 89.7772 21.5797C88.8418 22.1561 88.3612 23.3079 88.3612 24.9873C88.3612 28.1315 89.9448 30.3394 92.2015 30.3394C92.8737 30.3394 93.4012 30.1469 93.8569 29.763C94.553 29.1866 94.913 28.0348 94.913 26.4273C94.913 23.3079 93.3533 21.2197 91.0726 21.2197ZM91.5055 31.4912C87.4258 31.4912 85.9618 28.4915 85.9618 25.6833C85.9618 23.7158 86.7536 22.203 88.3372 21.123C89.4651 20.4269 90.8094 20.043 92.0091 20.043C95.1284 20.043 97.3123 22.2748 97.3123 25.4909C97.3123 27.6748 96.4487 29.402 94.7923 30.4591C94.0005 30.9876 92.6333 31.4912 91.5055 31.4912ZM48.7381 21.2197C48.2345 21.2197 47.7778 21.3394 47.4417 21.5797C46.5063 22.1561 46.0256 23.3079 46.0256 24.9873C46.0256 28.1315 47.6092 30.3394 49.866 30.3394C50.5381 30.3394 51.0656 30.1469 51.5224 29.763C52.2184 29.1866 52.5784 28.0348 52.5784 26.4273C52.5784 23.3079 51.0427 21.2197 48.7381 21.2197ZM49.1699 31.4912C45.0902 31.4912 43.6263 28.4915 43.6263 25.6833C43.6263 23.7158 44.4181 22.203 46.0017 21.123C47.1296 20.4269 48.4738 20.043 49.6735 20.043C52.7939 20.043 54.9768 22.2748 54.9768 25.4909C54.9768 27.6748 54.1132 29.402 52.4568 30.4591C51.6899 30.9876 50.3217 31.4912 49.1699 31.4912ZM21.739 31.2519C21.6911 31.1801 21.6423 30.9637 21.6672 30.7004C21.6672 30.5079 21.7151 30.3883 21.739 30.3404C22.2426 30.2686 22.5069 30.1958 22.7951 30.124C23.2748 30.0043 23.4672 29.7401 23.4912 29.1397C23.563 27.6997 23.563 24.9633 23.539 23.0676V23.0197C23.539 22.8043 23.539 22.54 23.2748 22.3476C22.8908 22.1082 22.4351 21.8918 21.8347 21.7233C21.6193 21.6515 21.4747 21.5318 21.4987 21.3882C21.4987 21.2446 21.6423 21.0761 21.9544 21.0282C22.7462 20.9564 24.8095 20.4528 25.6262 20.0918C25.6741 20.1397 25.7459 20.2843 25.7459 20.4758L25.722 20.739C25.698 21.0033 25.6741 21.3154 25.6741 21.6276C25.6741 21.7233 25.7708 21.7951 25.8656 21.7951C25.9134 21.7951 25.9623 21.7712 26.0092 21.7472C27.5449 20.5476 28.937 20.1158 29.657 20.1158C30.8338 20.1158 31.7453 20.6682 32.4413 21.82C32.4892 21.8918 32.5371 21.9168 32.6089 21.9168C32.6567 21.9168 32.7285 21.8928 32.7525 21.845C34.1685 20.765 35.5846 20.1168 36.52 20.1168C38.7518 20.1168 40.0721 21.7732 40.0721 24.5804C40.0721 25.3722 40.0721 26.4043 40.0482 27.3407C40.0482 28.1804 40.0243 28.9483 40.0243 29.5007C40.0243 29.6204 40.1918 30.0043 40.4561 30.0761C40.7922 30.2437 41.2479 30.3165 41.8482 30.4122H41.8722C41.92 30.5797 41.8243 31.204 41.7286 31.3247C41.585 31.3247 41.3686 31.3247 41.1282 31.3007C40.5209 31.2688 39.9126 31.2529 39.3043 31.2529C37.8164 31.2529 37.0485 31.2768 36.3046 31.3247C36.2567 31.1332 36.2328 30.5568 36.3046 30.4122C36.7364 30.3404 36.9528 30.2686 37.2171 30.1968C37.6967 30.0532 37.8174 29.8368 37.8413 29.2125C37.8413 28.7568 37.9371 24.8686 37.7935 23.9332C37.6499 22.9728 36.9299 21.845 35.3453 21.845C34.7449 21.845 33.8095 22.0853 32.8971 22.7804C32.8492 22.8282 32.8003 22.9479 32.8003 23.0207V23.0446C32.8971 23.5482 32.8971 24.1246 32.8971 25.0122V26.5719C32.8971 27.6519 32.8731 28.6601 32.8971 29.4279C32.8971 29.9565 33.2092 30.0761 33.4735 30.1719C33.6171 30.1958 33.7128 30.2197 33.8335 30.2437C34.0489 30.2915 34.2653 30.3404 34.6013 30.4112C34.6492 30.5079 34.6492 30.8191 34.5774 31.0833C34.5535 31.2269 34.5056 31.2987 34.4807 31.3237C33.6649 31.2997 32.8253 31.2758 31.6006 31.2758C31.2406 31.2758 30.6164 31.2997 30.0888 31.2997C29.657 31.2997 29.2492 31.3237 29.0088 31.3237C28.9849 31.2758 28.937 31.1083 28.937 30.844C28.937 30.6286 28.9849 30.4601 29.0338 30.4122C29.1534 30.3883 29.2492 30.3643 29.3698 30.3643C29.657 30.3165 29.8974 30.2676 30.1377 30.2207C30.5456 30.1011 30.6902 29.8847 30.7141 29.3571C30.7859 28.1575 30.8577 24.725 30.6902 23.8614C30.402 22.4692 29.6102 21.7732 28.3377 21.7732C27.5938 21.7732 26.6574 22.1332 25.8895 22.7096C25.7698 22.8053 25.6731 23.0446 25.6731 23.261V24.6771C25.6731 26.4053 25.6731 28.5653 25.697 29.5007C25.721 29.7879 25.8167 30.125 26.3692 30.2447C26.4888 30.2686 26.6813 30.3165 26.9216 30.3414L27.3534 30.4132C27.4013 30.5568 27.3774 31.1332 27.2816 31.3257C27.0413 31.3257 26.7541 31.3017 26.417 31.3017C25.9134 31.2778 25.2652 31.2539 24.5452 31.2539C23.7056 31.2539 23.1052 31.2778 22.6256 31.3017C22.2915 31.2519 22.0272 31.2519 21.739 31.2519Z" fill="#3A3A3A"/>
<path d="M9.11529 37.011L8.13102 36.6749C8.13102 36.6749 8.25069 31.6588 6.45068 31.2998C5.25101 29.9077 6.64315 -27.7384 10.9632 31.1073C10.9632 31.1073 9.47529 31.8513 9.21102 33.1237C8.92382 34.3713 9.11529 37.011 9.11529 37.011Z" fill="white"/>
<path d="M9.11529 37.011L8.13102 36.6749C8.13102 36.6749 8.25069 31.6588 6.45068 31.2998C5.25101 29.9077 6.64315 -27.7384 10.9632 31.1073C10.9632 31.1073 9.47529 31.8513 9.21102 33.1237C8.92382 34.3713 9.11529 37.011 9.11529 37.011Z" fill="#A6A385"/>
<path d="M9.64382 32.1634C9.64382 32.1634 18.2599 26.4991 16.2435 14.7158C14.2999 6.14855 9.71563 3.34034 9.21202 2.26033C8.66055 1.49246 8.13202 0.148193 8.13202 0.148193L8.49202 23.9791C8.49202 24.004 7.74808 31.2758 9.64382 32.1634Z" fill="white"/>
<path d="M9.64382 32.1634C9.64382 32.1634 18.2599 26.4991 16.2435 14.7158C14.2999 6.14855 9.71563 3.34034 9.21202 2.26033C8.66055 1.49246 8.13202 0.148193 8.13202 0.148193L8.49202 23.9791C8.49202 24.004 7.74808 31.2758 9.64382 32.1634Z" fill="#499D4A"/>
<path d="M7.62842 32.4755C7.62842 32.4755 -0.459146 26.9558 0.0205233 17.2358C0.476259 7.51678 6.18741 2.74103 7.29135 1.87643C8.01235 1.10856 8.03628 0.82036 8.08415 0.0524902C8.58775 1.13249 8.49202 16.2037 8.56382 17.9797C8.77922 24.8198 8.17989 31.1801 7.62842 32.4755Z" fill="white"/>
<path d="M7.62842 32.4755C7.62842 32.4755 -0.459146 26.9558 0.0205233 17.2358C0.476259 7.51678 6.18741 2.74103 7.29135 1.87643C8.01235 1.10856 8.03628 0.82036 8.08415 0.0524902C8.58775 1.13249 8.49202 16.2037 8.56382 17.9797C8.77922 24.8198 8.17989 31.1801 7.62842 32.4755Z" fill="#58AA50"/>
</g>
<defs>
<clipPath id="clip0_1_2120">
<rect width="133" height="38" fill="white"/>
</clipPath>
</defs>
</svg>
