<svg width="67" height="46" viewBox="0 0 67 46" fill="none" xmlns="http://www.w3.org/2000/svg">
<g clip-path="url(#clip0_1_2110)">
<path fill-rule="evenodd" clip-rule="evenodd" d="M45.7986 4.86304C45.4821 4.86304 45.2585 4.90063 45.033 4.95701V4.9946H45.0696C45.2199 5.29235 45.4811 5.49909 45.6671 5.76023C45.8174 6.05897 45.948 6.35672 46.0974 6.65545C46.1162 6.63765 46.134 6.61787 46.134 6.61787C46.3971 6.4319 46.5267 6.13316 46.5267 5.68506C46.4139 5.55349 46.3961 5.42391 46.3021 5.29334C46.1913 5.10638 45.949 5.01241 45.7986 4.86304Z" fill="#5D87A1"/>
<path d="M16.108 41.7016H13.5233C13.4322 37.3383 13.18 33.2351 12.7685 29.3911H12.7457L8.80876 41.7016H6.84027L2.929 29.3911H2.90526C2.61543 33.0828 2.43242 37.1859 2.35626 41.7016H0C0.152336 36.2096 0.533175 31.0618 1.14351 26.2563H4.3475L8.07775 37.6054H8.1005L11.8535 26.2563H14.919C15.5897 31.8839 15.9863 37.0336 16.108 41.7016Z" fill="#00758F"/>
<path d="M27.3201 30.3062C26.2676 36.0178 24.8788 40.1684 23.1556 42.7581C21.8123 44.7533 20.3414 45.7514 18.7399 45.7514C18.3126 45.7514 17.7863 45.6228 17.1611 45.3666V43.9907C17.4668 44.0352 17.8249 44.0589 18.2364 44.0589C18.9832 44.0589 19.5856 43.8522 20.0446 43.4397C20.5936 42.9372 20.8676 42.3723 20.8676 41.7472C20.8676 41.3198 20.654 40.4424 20.2276 39.1159L17.3906 30.3052H19.9299L21.9656 36.8942C22.4226 38.3898 22.6136 39.4344 22.5374 40.0299C23.6512 37.0554 24.4287 33.8138 24.8719 30.3052L27.3201 30.3062Z" fill="#00758F"/>
<path d="M61.7335 41.7016H54.3888V26.2554H56.8608V39.8014H61.7335V41.7016Z" fill="#F29111"/>
<path fill-rule="evenodd" clip-rule="evenodd" d="M52.4665 42.0735L49.6275 40.6738C49.8807 40.4661 50.1201 40.2425 50.3377 39.9844C51.5425 38.5668 52.146 36.4698 52.146 33.6931C52.146 28.5839 50.1399 26.0269 46.1277 26.0269C44.1602 26.0269 42.627 26.6748 41.528 27.9726C40.3221 29.3911 39.7207 31.4803 39.7207 34.2421C39.7207 36.9574 40.2539 38.9497 41.3222 40.2148C42.2985 41.3584 43.7705 41.9311 45.739 41.9311C46.4739 41.9311 47.1486 41.8401 47.7609 41.6591L51.4575 43.8106L52.4665 42.0735ZM43.2689 38.6114C42.6438 37.6054 42.3302 35.989 42.3302 33.7614C42.3302 29.8718 43.5133 27.9261 45.8764 27.9261C47.1129 27.9261 48.02 28.391 48.5997 29.3209C49.2249 30.3279 49.5375 31.9294 49.5375 34.1264C49.5375 38.0465 48.3544 40.0081 45.9902 40.0081C44.7557 40.0081 43.8476 39.5442 43.2689 38.6114Z" fill="#F29111"/>
<path d="M38.6443 37.4203C38.6443 38.73 38.1626 39.8053 37.2041 40.6471C36.2436 41.4849 34.9547 41.9043 33.3383 41.9043C31.8278 41.9043 30.3628 41.4206 28.9453 40.4621L29.6091 39.1356C30.8297 39.7459 31.9337 40.0506 32.9258 40.0506C33.8557 40.0506 34.5837 39.8439 35.111 39.4343C35.6362 39.0228 35.9518 38.4481 35.9518 37.7191C35.9518 36.8011 35.3118 36.0177 34.1386 35.3608C33.0544 34.7663 30.8901 33.5249 30.8901 33.5249C29.7169 32.6692 29.1293 31.7513 29.1293 30.2378C29.1293 28.9865 29.5675 27.9755 30.4439 27.2059C31.3223 26.4344 32.455 26.0496 33.8428 26.0496C35.2771 26.0496 36.5799 26.4324 37.7541 27.195L37.1576 28.5206C36.1526 28.0942 35.1614 27.8806 34.1851 27.8806C33.3927 27.8806 32.7814 28.0715 32.356 28.4543C31.9277 28.8341 31.6636 29.3228 31.6636 29.9173C31.6636 30.8323 32.3175 31.6256 33.5233 32.2953C34.6203 32.8898 36.8381 34.155 36.8381 34.155C38.0429 35.0097 38.6443 35.9197 38.6443 37.4203Z" fill="#F29111"/>
<path fill-rule="evenodd" clip-rule="evenodd" d="M64.8347 21.0819C63.341 21.0443 62.1846 21.1937 61.2142 21.6042C60.9343 21.716 60.4872 21.716 60.4486 22.0711C60.5989 22.2205 60.6167 22.4618 60.7483 22.6686C60.9719 23.0415 61.3626 23.545 61.7187 23.8061C62.1104 24.1049 62.5021 24.4026 62.9136 24.6638C63.6407 25.1138 64.4627 25.374 65.17 25.8221C65.5815 26.0832 65.991 26.4186 66.4035 26.6995C66.6083 26.8489 66.7379 27.0912 67 27.1842V27.1278C66.8684 26.9607 66.8318 26.7183 66.7022 26.5304C66.5153 26.3454 66.3283 26.1762 66.1424 25.9903C65.6013 25.2622 64.9286 24.6281 64.2026 24.1059C63.6051 23.6943 62.2974 23.1345 62.056 22.446C62.056 22.446 62.0362 22.4262 62.0184 22.4074C62.4289 22.3698 62.9156 22.2205 63.3064 22.1067C63.9404 21.9395 64.5181 21.9771 65.172 21.8099C65.4707 21.7348 65.7694 21.6408 66.0692 21.5488V21.3796C65.7319 21.0443 65.4905 20.5962 65.1354 20.2787C64.1848 19.4576 63.1382 18.6564 62.056 17.9827C61.4763 17.6098 60.7305 17.3675 60.1142 17.0499C59.8917 16.9382 59.5187 16.8828 59.3872 16.6948C59.0508 16.2843 58.8639 15.7442 58.6215 15.2575C58.0814 14.2327 57.5572 13.0942 57.0913 12.01C56.7559 11.2829 56.5502 10.5549 56.1396 9.88324C54.2167 6.70991 52.1265 4.7889 48.9176 2.9035C48.2271 2.51079 47.4061 2.34361 46.5296 2.13786C46.0627 2.11808 45.5958 2.08247 45.1299 2.06367C44.8312 1.93211 44.5315 1.57798 44.2713 1.40981C43.2069 0.739141 40.4649 -0.715961 39.6805 1.20604C39.176 2.41978 40.4273 3.61374 40.8566 4.23C41.1732 4.65832 41.5847 5.14501 41.8072 5.62872C41.9378 5.94625 41.9754 6.28258 42.107 6.61791C42.4057 7.43894 42.6846 8.35395 43.0774 9.11958C43.2821 9.5113 43.5057 9.92281 43.7668 10.2759C43.9172 10.4827 44.1783 10.5747 44.2337 10.912C43.9736 11.2839 43.9528 11.8448 43.8034 12.3117C43.1318 14.4207 43.3929 17.0331 44.3445 18.5822C44.6423 19.0491 45.3525 20.0759 46.3041 19.6832C47.1439 19.3478 46.957 18.2845 47.1993 17.3516C47.2547 17.1261 47.2181 16.9787 47.3289 16.8293V16.8669C47.5901 17.3892 47.8522 17.8917 48.0945 18.416C48.6732 19.33 49.6812 20.2816 50.521 20.9157C50.9672 21.253 51.3223 21.8307 51.8822 22.0365V21.9801H51.8456C51.7338 21.8129 51.5656 21.7377 51.4163 21.6072C51.0799 21.2708 50.708 20.8603 50.4449 20.4874C49.6614 19.4428 48.97 18.2854 48.3557 17.0905C48.056 16.5108 47.7958 15.8768 47.5525 15.2981C47.4407 15.0755 47.4407 14.7382 47.2537 14.6264C46.9728 15.0359 46.5643 15.3921 46.3585 15.8936C46.0034 16.6968 45.9668 17.686 45.8352 18.7128C45.761 18.7326 45.7986 18.7128 45.761 18.7494C45.1646 18.6 44.9588 17.9847 44.7343 17.4634C44.1744 16.1369 44.0804 14.0092 44.5661 12.4789C44.6957 12.0882 45.2575 10.8556 45.033 10.4827C44.9202 10.1266 44.5473 9.92281 44.3425 9.64188C44.1002 9.28775 43.8371 8.84063 43.6709 8.44792C43.2228 7.40333 42.9982 6.24598 42.5145 5.20139C42.29 4.7157 41.8973 4.21121 41.5817 3.76409C41.2256 3.2596 40.8349 2.90547 40.5549 2.30899C40.4619 2.10324 40.3314 1.76691 40.4797 1.54336C40.5163 1.39399 40.5925 1.3376 40.7419 1.30001C40.9832 1.09525 41.6747 1.35541 41.917 1.46818C42.6075 1.74713 43.1862 2.01025 43.7648 2.40099C44.026 2.58794 44.3059 2.94207 44.6413 3.03704H45.034C45.6305 3.16662 46.3031 3.07364 46.864 3.2418C47.8522 3.55834 48.7484 4.02524 49.5506 4.52973C51.9949 6.0788 54.0109 8.28174 55.372 10.912C55.5966 11.3403 55.6906 11.733 55.8953 12.1801C56.287 13.0961 56.7727 14.0299 57.1645 14.9242C57.5562 15.8016 57.9301 16.6958 58.491 17.4248C58.7699 17.8156 59.8907 18.0213 60.3942 18.2271C60.7661 18.3943 61.3458 18.5436 61.6821 18.7494C62.3172 19.1411 62.9502 19.5892 63.5487 20.0195C63.8455 20.2421 64.7793 20.708 64.8347 21.0819Z" fill="#00758F"/>
<path d="M66.6142 41.6997H67V39.8074H66.4194L65.9465 41.0973L65.4321 39.8074H64.8723V41.6997H65.2373V40.2594H65.258L65.7972 41.6997H66.0751L66.6132 40.2594L66.6142 41.6997ZM63.4973 41.6997H63.9068V40.1289H64.443V39.8074H62.9404V40.1289H63.4973V41.6997Z" fill="#F29111"/>
</g>
<defs>
<clipPath id="clip0_1_2110">
<rect width="67" height="46" fill="white"/>
</clipPath>
</defs>
</svg>
