<svg width="85" height="52" viewBox="0 0 85 52" fill="none" xmlns="http://www.w3.org/2000/svg">
<g clip-path="url(#clip0_1_2031)">
<path d="M42.0396 51.9999C41.7516 51.9999 41.4829 51.9232 41.2335 51.7889L38.6804 50.2725C38.2964 50.0614 38.4884 49.9845 38.6037 49.9461C39.122 49.7734 39.2179 49.7351 39.7555 49.4278C39.8131 49.3894 39.8898 49.4085 39.9475 49.4471L41.9054 50.618C41.9822 50.6563 42.0782 50.6563 42.1358 50.618L49.7948 46.1838C49.8715 46.1455 49.9099 46.0687 49.9099 45.9727V37.1238C49.9099 37.0278 49.8715 36.951 49.7948 36.9127L42.1358 32.4978C42.0591 32.4595 41.9631 32.4595 41.9054 32.4978L34.2465 36.9127C34.1697 36.951 34.1314 37.047 34.1314 37.1238V45.9727C34.1314 46.0495 34.1697 46.1455 34.2465 46.1838L36.3388 47.3931C37.4713 47.9689 38.1815 47.2971 38.1815 46.6253V37.8914C38.1815 37.7763 38.2775 37.6611 38.4119 37.6611H39.3908C39.5059 37.6611 39.6211 37.7571 39.6211 37.8914V46.6253C39.6211 48.1416 38.7957 49.0247 37.3561 49.0247C36.9146 49.0247 36.569 49.0247 35.5901 48.5449L33.5746 47.3931C33.0756 47.1051 32.7685 46.5677 32.7685 45.9918V37.1429C32.7685 36.5671 33.0756 36.0296 33.5746 35.7416L41.2336 31.3075C41.7134 31.0388 42.3662 31.0388 42.846 31.3075L50.505 35.7416C51.004 36.0296 51.3111 36.5671 51.3111 37.1429V45.9918C51.3111 46.5677 51.004 47.1051 50.505 47.3931L42.846 51.8272C42.5964 51.9425 42.3085 51.9999 42.0396 51.9999ZM44.4007 45.9151C41.0415 45.9151 40.3506 44.3795 40.3506 43.0742C40.3506 42.9591 40.4466 42.8439 40.5809 42.8439H41.5791C41.6942 42.8439 41.7902 42.9206 41.7902 43.0359C41.9438 44.0533 42.3853 44.5522 44.42 44.5522C46.0323 44.5522 46.7234 44.1875 46.7234 43.3237C46.7234 42.8246 46.5314 42.4599 44.0169 42.2104C41.9245 41.9993 40.6193 41.5386 40.6193 39.8686C40.6193 38.3138 41.9245 37.3925 44.1129 37.3925C46.5699 37.3925 47.7792 38.237 47.9328 40.0799C47.9328 40.1375 47.9135 40.195 47.8752 40.2526C47.8368 40.291 47.7792 40.3294 47.7215 40.3294H46.7234C46.6274 40.3294 46.5314 40.2526 46.5123 40.1566C46.2819 39.1008 45.6868 38.7554 44.1129 38.7554C42.3469 38.7554 42.1358 39.3696 42.1358 39.8303C42.1358 40.387 42.3853 40.5597 44.7656 40.8668C47.1266 41.1739 48.2399 41.6154 48.2399 43.2662C48.2206 44.9553 46.8385 45.9151 44.4007 45.9151Z" fill="#539E43"/>
<path d="M18.2755 17.391C18.2755 17.0455 18.0835 16.7192 17.7764 16.5465L9.63764 11.8629C9.50328 11.7861 9.34965 11.7478 9.19619 11.7285H9.11946C8.96583 11.7285 8.81237 11.7861 8.67801 11.8629L0.539212 16.5465C0.231956 16.719 0.0399628 17.0454 0.0399628 17.391L0.0592285 29.9832C0.0592285 30.1559 0.155225 30.3286 0.308687 30.4055C0.462315 30.5015 0.654142 30.5015 0.788505 30.4055L5.62571 27.6414C5.9328 27.4687 6.12479 27.1423 6.12479 26.7968V20.9038C6.12479 20.5584 6.31679 20.232 6.62388 20.0593L8.67784 18.8691C8.83147 18.7731 9.0042 18.7348 9.17692 18.7348C9.34965 18.7348 9.52238 18.7731 9.65674 18.8691L11.7107 20.0593C12.0178 20.232 12.2098 20.5584 12.2098 20.9038V26.7968C12.2098 27.1423 12.4018 27.4687 12.7089 27.6414L17.5461 30.4055C17.6997 30.5015 17.8915 30.5015 18.0452 30.4055C18.1988 30.3288 18.2946 30.1561 18.2946 29.9832L18.2755 17.391Z" fill="#333333"/>
<path d="M57.3959 0.0575482C57.2423 -0.0191827 57.0505 -0.0191827 56.9161 0.0575482C56.7625 0.153545 56.6667 0.307007 56.6667 0.479901V12.9568C56.6667 13.0719 56.609 13.1872 56.4939 13.2639C56.3788 13.3215 56.2636 13.3215 56.1485 13.2639L54.1138 12.093C53.8067 11.9203 53.442 11.9203 53.1349 12.093L44.9961 16.7959C44.689 16.9686 44.497 17.2949 44.497 17.6404V27.0268C44.497 27.3723 44.689 27.6986 44.9961 27.8714L53.1349 32.5742C53.442 32.7469 53.8067 32.7469 54.1138 32.5742L62.2526 27.8714C62.5597 27.6986 62.7517 27.3723 62.7517 27.0268V3.62786C62.7517 3.26314 62.5597 2.93679 62.2526 2.76406L57.3959 0.0575482ZM56.6474 23.9365C56.6474 24.0325 56.609 24.1092 56.5323 24.1476L53.7491 25.7599C53.6723 25.7983 53.5763 25.7983 53.4996 25.7599L50.7164 24.1476C50.6396 24.1092 50.6013 24.0132 50.6013 23.9365V20.7116C50.6013 20.6156 50.6396 20.5389 50.7164 20.5005L53.4996 18.8882C53.5763 18.8498 53.6723 18.8498 53.7491 18.8882L56.5323 20.5005C56.609 20.5389 56.6474 20.6349 56.6474 20.7116V23.9365Z" fill="#333333"/>
<path d="M84.4801 20.6352C84.7872 20.4624 84.9599 20.1361 84.9599 19.7906V17.5063C84.9599 17.1608 84.7679 16.8345 84.4801 16.6618L76.3989 11.9782C76.0919 11.8055 75.7271 11.8055 75.42 11.9782L67.2811 16.6809C66.974 16.8536 66.782 17.1799 66.782 17.5254V26.9118C66.782 27.2573 66.974 27.5836 67.2811 27.7564L75.3623 32.3632C75.6693 32.5359 76.0341 32.5359 76.3221 32.3632L81.2169 29.6374C81.3705 29.5607 81.4663 29.388 81.4663 29.2151C81.4663 29.0423 81.3704 28.8696 81.2169 28.7927L73.0397 24.0902C72.8861 23.9942 72.7903 23.8408 72.7903 23.6679V20.7312C72.7903 20.5584 72.8863 20.3857 73.0397 20.3088L75.5928 18.8499C75.7464 18.7539 75.9382 18.7539 76.0919 18.8499L78.6449 20.3088C78.7985 20.4048 78.8944 20.5583 78.8944 20.7312V23.0346C78.8944 23.2073 78.9904 23.38 79.1438 23.4569C79.2975 23.5529 79.4893 23.5529 79.6429 23.4569L84.4801 20.6352Z" fill="#333333"/>
<path d="M75.7846 20.1933C75.8422 20.155 75.919 20.155 75.9766 20.1933L77.5315 21.0955C77.5891 21.1339 77.6275 21.1915 77.6275 21.2682V23.0726C77.6275 23.1493 77.5891 23.2069 77.5315 23.2453L75.9766 24.1475C75.919 24.1858 75.8422 24.1858 75.7846 24.1475L74.2297 23.2453C74.1721 23.2069 74.1337 23.1493 74.1337 23.0726V21.2684C74.1337 21.1917 74.1721 21.134 74.2297 21.0957L75.7846 20.1933Z" fill="#539E43"/>
<path d="M31.8845 12.0163C31.5774 11.8435 31.2127 11.8435 30.9056 12.0163L22.8245 16.6807C22.5174 16.8535 22.3447 17.1798 22.3447 17.5253V26.8733C22.3447 27.2188 22.5366 27.5451 22.8245 27.7179L30.9056 32.3824C31.2127 32.5551 31.5774 32.5551 31.8845 32.3824L39.9659 27.718C40.273 27.5453 40.4457 27.219 40.4457 26.8735V17.5253C40.4457 17.1798 40.2537 16.8535 39.9659 16.6807L31.8845 12.0163Z" fill="url(#paint0_linear_1_2031)"/>
<mask id="mask0_1_2031" style="mask-type:alpha" maskUnits="userSpaceOnUse" x="22" y="11" width="19" height="22">
<path d="M31.8845 12.0163C31.5774 11.8435 31.2127 11.8435 30.9056 12.0163L22.8245 16.6807C22.5174 16.8535 22.3447 17.1798 22.3447 17.5253V26.8733C22.3447 27.2188 22.5366 27.5451 22.8245 27.7179L30.9056 32.3824C31.2127 32.5551 31.5774 32.5551 31.8845 32.3824L39.9659 27.718C40.273 27.5453 40.4457 27.219 40.4457 26.8735V17.5253C40.4457 17.1798 40.2537 16.8535 39.9659 16.6807L31.8845 12.0163Z" fill="white"/>
</mask>
<g mask="url(#mask0_1_2031)">
<path d="M39.9853 16.6809L31.8658 12.0164C31.7891 11.978 31.6931 11.9397 31.6164 11.9204L22.5176 27.5071C22.5943 27.6031 22.6903 27.6798 22.7863 27.7374L30.9058 32.4019C31.1362 32.5363 31.4049 32.5747 31.6544 32.4979L40.1963 16.8729C40.139 16.7961 40.0621 16.7385 39.9853 16.6809Z" fill="url(#paint1_linear_1_2031)"/>
</g>
<mask id="mask1_1_2031" style="mask-type:alpha" maskUnits="userSpaceOnUse" x="22" y="11" width="19" height="22">
<path d="M31.8845 12.0163C31.5774 11.8435 31.2127 11.8435 30.9056 12.0163L22.8245 16.6807C22.5174 16.8535 22.3447 17.1798 22.3447 17.5253V26.8733C22.3447 27.2188 22.5366 27.5451 22.8245 27.7179L30.9056 32.3824C31.2127 32.5551 31.5774 32.5551 31.8845 32.3824L39.9659 27.718C40.273 27.5453 40.4457 27.219 40.4457 26.8735V17.5253C40.4457 17.1798 40.2537 16.8535 39.9659 16.6807L31.8845 12.0163Z" fill="white"/>
</mask>
<g mask="url(#mask1_1_2031)">
<path fill-rule="evenodd" clip-rule="evenodd" d="M40.0042 27.7181C40.2346 27.5838 40.4073 27.3534 40.4841 27.104L31.5775 11.9013C31.3471 11.8629 31.0976 11.882 30.8864 12.0164L22.8245 16.6617L31.52 32.517C31.6351 32.4977 31.7694 32.4593 31.8847 32.4019L40.0042 27.7181Z" fill="url(#paint2_linear_1_2031)"/>
<path fill-rule="evenodd" clip-rule="evenodd" d="M40.0042 27.7184L31.9038 32.3829C31.7887 32.4405 31.6734 32.4789 31.5391 32.498L31.6927 32.786L40.676 27.584V27.4689L40.4457 27.085C40.4073 27.3537 40.2346 27.584 40.0042 27.7184Z" fill="url(#paint3_linear_1_2031)"/>
<path fill-rule="evenodd" clip-rule="evenodd" d="M40.0042 27.7184L31.9038 32.3829C31.7887 32.4405 31.6734 32.4789 31.5391 32.498L31.6927 32.786L40.676 27.584V27.4689L40.4457 27.085C40.4073 27.3537 40.2346 27.584 40.0042 27.7184Z" fill="url(#paint4_linear_1_2031)"/>
</g>
</g>
<defs>
<linearGradient id="paint0_linear_1_2031" x1="34.6847" y1="15.4908" x2="25.8257" y2="29.4092" gradientUnits="userSpaceOnUse">
<stop stop-color="#41873F"/>
<stop offset="0.3288" stop-color="#418B3D"/>
<stop offset="0.6352" stop-color="#419637"/>
<stop offset="0.9319" stop-color="#3FA92D"/>
<stop offset="1" stop-color="#3FAE2A"/>
</linearGradient>
<linearGradient id="paint1_linear_1_2031" x1="30.167" y1="23.2919" x2="52.3508" y2="11.2404" gradientUnits="userSpaceOnUse">
<stop offset="0.1376" stop-color="#41873F"/>
<stop offset="0.4032" stop-color="#54A044"/>
<stop offset="0.7136" stop-color="#66B848"/>
<stop offset="0.9081" stop-color="#6CC04A"/>
</linearGradient>
<linearGradient id="paint2_linear_1_2031" x1="22.0486" y1="22.1994" x2="40.7484" y2="22.1994" gradientUnits="userSpaceOnUse">
<stop offset="0.0919" stop-color="#6CC04A"/>
<stop offset="0.2864" stop-color="#66B848"/>
<stop offset="0.5968" stop-color="#54A044"/>
<stop offset="0.8624" stop-color="#41873F"/>
</linearGradient>
<linearGradient id="paint3_linear_1_2031" x1="22.0496" y1="29.9338" x2="40.7484" y2="29.9338" gradientUnits="userSpaceOnUse">
<stop offset="0.0919" stop-color="#6CC04A"/>
<stop offset="0.2864" stop-color="#66B848"/>
<stop offset="0.5968" stop-color="#54A044"/>
<stop offset="0.8624" stop-color="#41873F"/>
</linearGradient>
<linearGradient id="paint4_linear_1_2031" x1="43.4566" y1="15.0467" x2="38.7193" y2="39.8705" gradientUnits="userSpaceOnUse">
<stop stop-color="#41873F"/>
<stop offset="0.3288" stop-color="#418B3D"/>
<stop offset="0.6352" stop-color="#419637"/>
<stop offset="0.9319" stop-color="#3FA92D"/>
<stop offset="1" stop-color="#3FAE2A"/>
</linearGradient>
<clipPath id="clip0_1_2031">
<rect width="85" height="52" fill="white"/>
</clipPath>
</defs>
</svg>
