<svg width="129" height="15" viewBox="0 0 129 15" fill="none" xmlns="http://www.w3.org/2000/svg">
<g clip-path="url(#clip0_1_2130)">
<path d="M54.4795 9.75894H62.1041L58.0726 3.27268L50.6733 15H47.3057L56.3058 0.913032C56.697 0.343798 57.3493 0 58.0726 0C58.7721 0 59.4243 0.331975 59.8037 0.889393L68.8394 15.0002H65.4719L63.8829 12.3797H56.1634L54.4795 9.75894ZM89.4601 12.3795V0.142167H86.6023V13.577C86.6023 13.9446 86.7447 14.3004 87.0174 14.5731C87.2901 14.8458 87.6577 15 88.0608 15H101.093L102.776 12.3795H89.4601ZM42.1832 10.1858C44.9579 10.1858 47.211 7.9447 47.211 5.16999C47.211 2.39528 44.9581 0.142361 42.1832 0.142361H29.6814V15.0002H32.5381V2.76289H41.9935C43.3216 2.76289 44.3888 3.8419 44.3888 5.16999C44.3888 6.49808 43.3216 7.57708 41.9935 7.57708L33.9374 7.56527L42.4679 15.0002H46.6181L40.8789 10.186H42.1832V10.1858ZM12.0963 15C7.99466 15 4.66611 11.6799 4.66611 7.57708C4.66611 3.47429 7.99466 0.142167 12.0963 0.142167H20.7324C24.8352 0.142167 28.1613 3.47429 28.1613 7.57708C28.1613 11.6799 24.8352 15 20.7324 15H12.0963ZM20.5403 12.3795C23.1976 12.3795 25.3498 10.2333 25.3498 7.57708C25.3498 4.92091 23.1976 2.76289 20.5403 2.76289H12.2873C9.63109 2.76289 7.47776 4.92091 7.47776 7.57708C7.47776 10.2333 9.63109 12.3795 12.2873 12.3795H20.5403ZM74.8037 15C70.7009 15 67.369 11.6799 67.369 7.57708C67.369 3.47429 70.7009 0.142167 74.8037 0.142167H85.0608L83.3889 2.76271H74.9935C72.3373 2.76271 70.1793 4.92073 70.1793 7.5769C70.1793 10.2331 72.3373 12.3793 74.9935 12.3793H85.2979L83.6142 14.9998H74.8037V15ZM109.749 12.3795C107.555 12.3795 105.693 10.909 105.124 8.88136H117.338L119.021 6.26082H105.124C105.693 4.24497 107.555 2.76271 109.749 2.76271H118.132L119.828 0.142167H109.559C105.456 0.142167 102.124 3.47429 102.124 7.57708C102.124 11.6799 105.456 15 109.559 15H118.369L120.053 12.3795H109.749Z" fill="#F80000"/>
<path d="M121.358 1.71944C121.358 0.996034 121.939 0.415176 122.662 0.415176C123.397 0.415176 123.978 0.996222 123.978 1.71944C123.978 2.45466 123.397 3.03571 122.662 3.03571C121.939 3.03571 121.358 2.45466 121.358 1.71944ZM122.662 3.40332C123.587 3.40332 124.334 2.65629 124.334 1.73145C124.334 0.806607 123.587 0.0595703 122.662 0.0595703C121.749 0.0595703 121.002 0.806607 121.002 1.73145C121.002 2.65629 121.749 3.40332 122.662 3.40332ZM122.508 0.735146C122.769 0.735146 122.876 0.746958 122.994 0.79441C123.326 0.901129 123.362 1.19766 123.362 1.3162C123.362 1.33983 123.362 1.39928 123.338 1.47036C123.326 1.54145 123.279 1.68381 123.113 1.79053C123.089 1.80234 123.077 1.81416 123.03 1.83798L123.457 2.60865H123.042L122.662 1.89724H122.401V2.60865H122.034V0.735146H122.508ZM122.638 1.5889C122.757 1.57709 122.876 1.57708 122.947 1.47036C122.982 1.42291 122.994 1.37547 122.994 1.30439C122.994 1.20948 122.935 1.12657 122.852 1.07912C122.769 1.04349 122.686 1.04349 122.508 1.04349H122.401V1.5889H122.638Z" fill="#F80000"/>
</g>
<defs>
<clipPath id="clip0_1_2130">
<rect width="129" height="15" fill="white"/>
</clipPath>
</defs>
</svg>
