<svg width="82" height="41" viewBox="0 0 82 41" fill="none" xmlns="http://www.w3.org/2000/svg">
<g clip-path="url(#clip0_1_2024)">
<path d="M40.9996 41C63.3524 41 81.4729 31.8218 81.4729 20.5C81.4729 9.17816 63.3524 0 40.9996 0C18.6469 0 0.526367 9.17816 0.526367 20.5C0.526367 31.8218 18.6469 41 40.9996 41Z" fill="#6181B6"/>
<path d="M24.3741 13.9596C26.1837 13.9596 27.3793 14.2827 27.9933 14.9613C28.6072 15.6399 28.7365 16.7709 28.4133 18.3866C28.0902 20.0669 27.4439 21.2948 26.5068 22.0057C25.5697 22.7166 24.1479 23.0721 22.2414 23.0721H19.3654L21.1427 13.9596H24.3741ZM12.8057 32.3139H17.5558L18.6868 26.5297H22.7584C24.568 26.5297 26.0221 26.3358 27.1854 25.948C28.3487 25.5603 29.3828 24.9463 30.3522 24.0415C31.16 23.2983 31.8063 22.4904 32.291 21.618C32.7757 20.7455 33.1312 19.7761 33.3251 18.7097C33.8421 16.1246 33.4543 14.1211 32.1941 12.667C30.9338 11.2129 28.9304 10.502 26.1837 10.502H17.0388L12.8057 32.3139Z" fill="white"/>
<path d="M36.815 4.71777H41.5328L40.4018 10.502H44.6027C47.2524 10.502 49.062 10.9544 50.0637 11.8915C51.0655 12.8286 51.3563 14.315 50.9685 16.3831L48.9974 26.5297H44.2149L46.0891 16.8678C46.3153 15.7692 46.2184 15.0259 45.8629 14.6382C45.5075 14.2504 44.6996 14.0242 43.504 14.0242H39.7232L37.2997 26.5297H32.5819L36.815 4.71777Z" fill="white"/>
<path d="M61.4386 13.9596C63.2481 13.9596 64.4438 14.2827 65.0577 14.9613C65.6717 15.6399 65.8009 16.7709 65.4778 18.3866C65.1547 20.0669 64.5084 21.2948 63.5713 22.0057C62.6342 22.7166 61.2124 23.0721 59.3058 23.0721H56.4299L58.2072 13.9596H61.4386ZM49.8701 32.3139H54.6203L55.7513 26.5297H59.8229C61.6324 26.5297 63.0866 26.3358 64.2499 25.948C65.4132 25.5603 66.4472 24.9463 67.4166 24.0415C68.2245 23.2983 68.8708 22.4904 69.3555 21.618C69.8402 20.7455 70.1956 19.7761 70.3895 18.7097C70.9066 16.1246 70.5188 14.1211 69.2585 12.667C67.9983 11.2129 65.9948 10.502 63.2481 10.502H54.1033L49.8701 32.3139Z" fill="white"/>
</g>
<defs>
<clipPath id="clip0_1_2024">
<rect width="82" height="41" fill="white"/>
</clipPath>
</defs>
</svg>
