<svg width="81" height="59" viewBox="0 0 81 59" fill="none" xmlns="http://www.w3.org/2000/svg">
<g clip-path="url(#clip0_1_2069)">
<path d="M41.7932 0.981057C39.8571 0.714978 37.8685 0.535276 35.9355 0.927444C34.7987 1.11211 33.7612 1.62242 32.7237 2.08905C29.5148 1.0863 26.0657 0.429044 22.7209 1.10913C20.3609 1.5708 18.1529 2.95579 16.894 5.02882C15.3273 7.56054 15.0672 10.6661 15.3015 13.5691C15.7195 16.8346 16.4939 20.0454 17.4053 23.2055C18.2313 25.9418 19.1676 28.681 20.6598 31.1333C21.5196 32.4984 22.6653 33.8566 24.2836 34.2974C25.5554 34.6568 26.9255 34.2329 27.9204 33.4069C28.4356 33.9023 29.0353 34.3143 29.7134 34.5506C31.6454 35.2148 33.8138 35.2168 35.718 34.4503C35.8312 37.0823 35.7359 39.8076 36.696 42.3066C37.0852 43.502 37.7633 44.6606 38.8454 45.3486C40.017 46.129 41.5052 46.262 42.8624 46.0178C44.1035 45.7815 45.3624 45.4618 46.4456 44.7867C47.5774 44.0917 48.4411 43.0194 48.9892 41.8171C50.2153 39.1216 50.2739 36.1024 50.4427 33.1974C53.2564 33.3592 56.2438 32.7258 58.3963 30.8096C59.2421 30.0968 59.9639 28.9838 59.6432 27.8351C59.3871 26.7559 58.2503 26.1016 57.186 26.1711C56.1008 26.2426 55.0474 26.5911 53.9523 26.5911C56.3858 22.3646 58.286 17.7887 59.1637 12.9774C59.4973 10.9719 59.7177 8.86809 59.1637 6.88045C58.8539 5.7238 58.018 4.82331 57.1959 3.99827C55.3344 2.15359 52.889 0.946308 50.3176 0.482656C47.487 -0.0544644 44.5602 0.255298 41.7932 0.981057Z" fill="white"/>
<path d="M41.783 2.28373C44.7972 1.35246 48.0864 1.10425 51.1513 1.93525C53.6056 2.59449 55.8315 4.06983 57.3664 6.09521C57.9869 6.93613 58.1279 8.01633 58.1736 9.03199C58.2322 10.8459 57.9174 12.6479 57.5094 14.4102C56.3885 19.0467 54.383 23.4399 51.8334 27.4619C53.2621 28.0745 54.8645 27.7677 56.3378 27.5056C56.9514 27.3844 57.7437 27.2365 58.2083 27.7746C58.6601 28.3614 58.2262 29.108 57.7675 29.5389C55.624 31.6338 52.3794 32.1828 49.5112 31.6983C49.2212 34.2608 48.9164 36.8253 48.5163 39.3749C48.2939 40.7986 47.8194 42.2828 46.7054 43.2638C45.657 44.1801 44.277 44.5842 42.9356 44.8384C41.5685 45.0767 40.0326 44.8801 38.9554 43.9409C37.8136 42.9302 37.1633 41.433 37.0194 39.9298C36.7295 37.3644 36.7166 34.7771 36.7245 32.1967C35.4914 33.259 33.8522 33.8051 32.229 33.682C31.0832 33.5867 29.8154 33.4069 28.9556 32.571C28.479 32.1351 28.5049 31.3091 29.035 30.9298C29.9534 30.2368 31.1746 30.2905 32.2161 29.8884C32.9885 29.662 33.3886 28.9104 33.8751 28.3336C32.9776 28.2671 32.0999 28.0387 31.2917 27.6416C30.0537 28.9601 28.8603 30.3222 27.7007 31.7122C27.0305 32.5154 26.0407 33.1945 24.9456 33.0614C23.7145 32.9105 22.7991 31.9455 22.111 30.9884C20.7548 29.0395 19.9179 26.7917 19.1544 24.5589C17.9977 20.9787 17.0893 17.3082 16.5621 13.5792C16.301 10.7704 16.5234 7.71054 18.1596 5.31484C19.4542 3.39372 21.7189 2.34727 23.9736 2.11197C27.0057 1.79427 30.0696 2.4128 32.917 3.43839C35.2899 1.85384 38.3081 1.63541 41.0443 2.1914C41.2895 2.22218 41.5338 2.33337 41.783 2.28373ZM44.0109 3.06112C44.6006 3.46917 45.2628 3.75312 45.8546 4.15919C48.281 5.78346 50.1734 8.15036 51.3618 10.8092C51.6904 11.5766 52.029 12.3858 51.9615 13.2406C51.9763 14.987 51.3787 16.6897 51.5564 18.44C51.7262 20.2947 52.1263 22.1919 51.6537 24.0356C51.5206 24.6889 51.1791 25.2687 50.9438 25.8843C50.9617 25.9736 50.9954 26.1514 51.0133 26.2387C51.2367 25.9508 51.4392 25.646 51.6259 25.3313C53.5113 22.1364 55.0114 18.7061 55.9993 15.126C56.5156 13.192 56.9206 11.2043 56.8968 9.19383C56.8611 8.34992 56.7916 7.42858 56.2435 6.74154C55.0948 5.30293 53.5659 4.16713 51.8443 3.51484C49.3583 2.57761 46.5912 2.50712 44.0109 3.06112ZM36.8407 3.30337C34.9166 3.55455 33.1136 4.59405 31.952 6.15279C30.3714 8.24766 29.6804 10.8876 29.4798 13.468C31.0693 12.7263 32.8594 12.0313 34.6346 12.4781C35.7883 12.7551 36.655 13.7628 36.9072 14.9016C37.4254 17.1841 37.7054 19.5897 37.1991 21.9011C36.8089 23.7686 35.6701 25.3839 35.2928 27.2544C35.7744 27.2931 36.2757 27.3259 36.7056 27.5671C37.5912 28.0496 38.1016 29.0852 38.0469 30.08C37.9804 32.6266 37.9834 35.1742 38.1184 37.7178C38.1979 38.7712 38.2267 39.8395 38.5056 40.8641C38.8859 42.0853 39.7338 43.3372 41.0781 43.5745C42.4938 43.7919 43.9563 43.3899 45.2152 42.7505C46.4443 42.1022 46.9973 40.7191 47.2078 39.4185C47.6536 36.7031 47.9613 33.9679 48.2741 31.2346C48.4081 30.2597 48.2175 29.1884 48.7616 28.3108C49.0723 27.7468 49.6829 27.4827 50.231 27.2057C49.7723 26.618 49.2878 26.0461 48.9284 25.3899C47.5741 22.594 45.7404 19.9501 45.1755 16.8396C44.9322 15.5311 45.0722 13.9743 46.1534 13.0619C47.3458 12.0363 49.0187 12.0969 50.495 12.1485C49.6075 9.63961 47.9604 7.40673 45.8754 5.75963C43.3516 3.77397 40.0157 2.90028 36.8407 3.30337ZM23.3104 3.51782C21.5451 3.84843 19.8633 4.85913 18.9628 6.44468C17.7595 8.53955 17.6284 11.0613 17.8389 13.4134C18.2618 16.504 18.9975 19.5451 19.8682 22.5365C20.6456 25.0652 21.4965 27.6118 22.9053 29.8665C23.4265 30.634 24.0232 31.4898 24.9595 31.7598C25.7597 31.9247 26.3951 31.2654 26.8647 30.7114C27.929 29.3979 29.0936 28.1728 30.1917 26.888C28.5783 25.4216 27.7066 23.1878 27.9995 21.0154C28.2328 19.3515 28.2765 17.6666 28.1743 15.9907C27.9975 13.6109 28.3361 11.2003 29.0767 8.93569C29.6208 7.23994 30.5521 5.69112 31.7494 4.37562C29.036 3.54959 26.137 2.97375 23.3104 3.51782ZM47.0658 13.9773C46.2457 14.6186 46.2884 15.7862 46.4552 16.7105C47.045 19.6116 48.7377 22.0986 50.0463 24.7028C51.0232 22.74 50.4226 20.5141 50.2717 18.443C50.1049 16.7701 50.6172 15.1399 50.6688 13.4779C49.4665 13.4034 48.1053 13.2386 47.0658 13.9773ZM29.4351 15.0485C29.4629 16.4435 29.5612 17.8394 29.4659 19.2343C29.4242 20.4674 29.0628 21.7045 29.3398 22.9346C29.7449 25.1099 31.6889 27.0409 33.9744 27.0181C34.3099 25.921 34.6981 24.8388 35.1777 23.7964C36.5517 21.0909 36.3294 17.9129 35.6115 15.0555C35.4159 14.2503 34.6604 13.6725 33.8423 13.6367C32.2627 13.5444 30.7387 14.2056 29.4351 15.0485ZM50.0314 28.7784C49.6055 29.1735 49.6343 29.804 49.6293 30.3371C50.5705 30.6598 51.5832 30.625 52.5581 30.5089C54.0305 30.35 55.5287 29.8576 56.6099 28.8062C54.8407 29.0196 52.9066 29.4475 51.2436 28.5709C50.8515 28.2988 50.3699 28.5292 50.0314 28.7784ZM33.2774 30.8167C32.2905 31.3995 31.0942 31.3627 30.0696 31.8373C32.1446 32.8947 35.0168 32.5243 36.4525 30.5804C37.1882 29.8963 36.4763 28.4517 35.5053 28.5897C34.6118 29.1705 34.2325 30.3024 33.2774 30.8167Z" fill="white"/>
<path d="M47.4503 14.3664C48.04 13.9455 48.8581 13.9147 49.5094 14.2175C49.4856 15.0416 48.4967 15.6353 47.7759 15.2103C47.4771 15.0753 47.1028 14.6514 47.4503 14.3664Z" fill="white"/>
<path d="M33.099 14.415C33.7145 14.2502 34.4512 14.3297 34.9585 14.7407C35.313 15.0286 34.9893 15.5072 34.6815 15.6799C33.9836 16.1952 32.8736 15.6908 32.7316 14.8638C32.6909 14.6206 32.9004 14.4845 33.099 14.415Z" fill="white"/>
<path d="M51.7747 47.0195C52.7754 46.4655 53.9619 46.4278 55.0788 46.4089C56.2871 46.4238 57.6125 46.5221 58.6004 47.2995C59.2189 47.7771 59.482 48.5683 59.483 49.3279C59.0988 49.3298 58.7165 49.3279 58.3343 49.3279C58.1953 48.5822 57.8677 47.781 57.0923 47.505C55.7946 47.0126 54.3044 47.0434 52.9829 47.4286C51.9236 47.7215 51.5364 49.2544 52.3525 49.994C52.9373 50.4607 53.7166 50.5242 54.4216 50.6811C55.8661 50.9889 57.399 51.0395 58.7453 51.6987C60.181 52.4175 60.1254 54.713 58.8605 55.5747C57.8111 56.2955 56.4757 56.375 55.2416 56.3849C53.8973 56.364 52.4309 56.238 51.3378 55.3692C50.6379 54.8152 50.4214 53.8939 50.3807 53.043C50.7729 53.0232 51.1651 53.0172 51.5582 53.0152C51.6436 53.9187 52.0685 54.8589 52.969 55.2024C54.3779 55.7495 56.0081 55.7435 57.4467 55.3077C58.4524 55.0237 58.8426 53.743 58.3859 52.8653C58.1685 52.4682 57.7426 52.2527 57.3246 52.1376C55.5673 51.663 53.7057 51.6372 51.9891 51.0038C50.3688 50.41 50.3152 47.8287 51.7747 47.0195Z" fill="#326690"/>
<path d="M62.7037 47.1216C64.045 46.4375 65.5988 46.3313 67.0761 46.4524C68.479 46.5686 69.9077 47.0878 70.8568 48.1631C72.0343 49.4319 72.2448 51.3491 71.803 52.9674C71.5637 53.8748 70.9263 54.5906 70.2433 55.1992C70.7824 55.5914 71.3433 55.9528 71.8824 56.348C71.6412 56.5813 71.393 56.8066 71.1388 57.0251C70.5689 56.6587 70.0457 56.2219 69.456 55.8893C69.0012 55.8893 68.5843 56.1643 68.1305 56.2278C66.8667 56.4512 65.5531 56.4671 64.2913 56.2199C62.9162 55.9449 61.5937 55.1734 60.8521 53.9582C60.1184 52.7708 60.0231 51.2726 60.3597 49.9422C60.6714 48.7121 61.5798 47.6855 62.7037 47.1216ZM64.5365 47.34C63.2259 47.6448 62.0048 48.5582 61.5798 49.8707C61.1311 51.2835 61.287 52.9862 62.3106 54.12C63.2111 55.1407 64.598 55.6004 65.9314 55.6212C67.4058 55.6698 69.0191 55.2469 69.9891 54.0694C71.3145 52.3657 71.1616 49.5252 69.3884 48.1809C68.0481 47.0908 66.1627 46.9925 64.5365 47.34Z" fill="#326690"/>
<path d="M72.791 46.6521C73.1633 46.6441 73.5366 46.6342 73.9099 46.6233C73.9407 49.5293 73.9168 52.4353 73.9208 55.3413C76.2798 55.382 78.6397 55.3235 80.9977 55.3701C80.9957 55.6273 80.9947 55.8864 80.9927 56.1465C78.2585 56.1485 75.5222 56.1574 72.786 56.1396C72.793 52.9774 72.787 49.8142 72.791 46.6521Z" fill="#326690"/>
<path d="M44.0116 3.06092C46.592 2.50692 49.359 2.57841 51.845 3.51465C53.5666 4.16793 55.0965 5.30273 56.2443 6.74134C56.7913 7.42838 56.8618 8.34973 56.8975 9.19363C56.9214 11.2041 56.5173 13.1918 56 15.1258C55.0121 18.7059 53.512 22.1371 51.6266 25.3311C51.4399 25.6458 51.2374 25.9496 51.014 26.2385C50.9962 26.1512 50.9624 25.9725 50.9445 25.8841C51.1798 25.2685 51.5214 24.6887 51.6544 24.0354C52.127 22.1918 51.7269 20.2955 51.5571 18.4399C51.3794 16.6885 51.9771 14.9858 51.9622 13.2404C52.0307 12.3856 51.6921 11.5764 51.3625 10.809C50.1731 8.15116 48.2818 5.78426 45.8553 4.15899C45.2636 3.75193 44.6013 3.46898 44.0116 3.06092Z" fill="#326690"/>
<path d="M36.8412 3.3032C40.0163 2.90011 43.3512 3.77281 45.874 5.75946C47.9589 7.40656 49.606 9.63943 50.4936 12.1483C49.0183 12.0967 47.3444 12.0361 46.152 13.0617C45.0698 13.9741 44.9308 15.5309 45.174 16.8394C45.739 19.95 47.5727 22.5929 48.9269 25.3897C49.2863 26.0459 49.7708 26.6178 50.2295 27.2056C49.6825 27.4826 49.0709 27.7467 48.7601 28.3106C48.2161 29.1882 48.4067 30.2595 48.2727 31.2345C47.9599 33.9677 47.6521 36.703 47.2064 39.4184C46.9959 40.719 46.4439 42.103 45.2137 42.7503C43.9548 43.3897 42.4924 43.7918 41.0766 43.5743C39.7323 43.3381 38.8845 42.0861 38.5042 40.8639C38.2252 39.8403 38.1964 38.771 38.117 37.7176C37.983 35.174 37.979 32.6264 38.0455 30.0798C38.1001 29.085 37.5908 28.0505 36.7042 27.567C36.2753 27.3257 35.7729 27.2929 35.2914 27.2542C35.6687 25.3827 36.8075 23.7684 37.1976 21.9009C37.705 19.5896 37.424 17.1839 36.9058 14.9014C36.6526 13.7627 35.7868 12.7549 34.6332 12.4779C32.858 12.0312 31.0679 12.7261 29.4784 13.4678C29.6789 10.8874 30.369 8.2465 31.9505 6.15262C33.1141 4.59487 34.9171 3.55438 36.8412 3.3032Z" fill="#326690"/>
<path d="M23.3106 3.51763C26.1372 2.97356 29.0373 3.55039 31.7507 4.37742C30.5533 5.69292 29.6221 7.24173 29.078 8.93749C28.3373 11.2021 27.9988 13.6127 28.1755 15.9925C28.2778 17.6694 28.2341 19.3543 28.0008 21.0172C27.7079 23.1896 28.5786 25.4234 30.1929 26.8898C29.0949 28.1745 27.9303 29.3987 26.866 30.7132C26.3964 31.2672 25.7609 31.9265 24.9607 31.7616C24.0245 31.4916 23.4288 30.6358 22.9066 29.8683C21.4977 27.6136 20.6469 25.067 19.8695 22.5383C18.9978 19.5459 18.2621 16.5058 17.8401 13.4151C17.6297 11.0631 17.7607 8.54135 18.964 6.44648C19.8625 4.85894 21.5444 3.84824 23.3106 3.51763Z" fill="#326690"/>
<path d="M47.0661 13.9771C48.1056 13.2384 49.4667 13.4032 50.6691 13.4777C50.6174 15.1397 50.1051 16.7689 50.2719 18.4428C50.4228 20.5129 51.0235 22.7388 50.0465 24.7026C48.738 22.0974 47.0452 19.6114 46.4555 16.7103C46.2887 15.787 46.246 14.6185 47.0661 13.9771ZM47.4503 14.3663C47.1038 14.6512 47.4781 15.0762 47.7759 15.2102C48.4967 15.6341 49.4846 15.0414 49.5094 14.2174C48.8581 13.9135 48.04 13.9443 47.4503 14.3663Z" fill="#326690"/>
<path d="M29.4351 15.0483C30.7387 14.2063 32.2637 13.5451 33.8433 13.6355C34.6614 13.6712 35.4159 14.249 35.6125 15.0542C36.3303 17.9116 36.5517 21.0896 35.1786 23.7951C34.6991 24.8386 34.3099 25.9207 33.9753 27.0168C31.6898 27.0397 29.7459 25.1086 29.3408 22.9333C29.0638 21.7042 29.4252 20.4661 29.4669 19.233C29.5612 17.8391 29.4619 16.4422 29.4351 15.0483ZM33.0987 14.4148C32.8991 14.4843 32.6906 14.6204 32.7313 14.8636C32.8743 15.6916 33.9833 16.195 34.6812 15.6797C34.989 15.506 35.3127 15.0284 34.9582 14.7405C34.4519 14.3285 33.7142 14.249 33.0987 14.4148Z" fill="#326690"/>
<path d="M50.0317 28.7782C50.3702 28.529 50.8517 28.2986 51.2429 28.5707C52.9069 29.4473 54.8409 29.0194 56.6092 28.806C55.529 29.8574 54.0298 30.3498 52.5574 30.5087C51.5825 30.6248 50.5698 30.6596 49.6286 30.3369C49.6355 29.8038 49.6057 29.1733 50.0317 28.7782Z" fill="#326690"/>
<path d="M33.278 30.8165C34.2341 30.3032 34.6124 29.1704 35.505 28.5895C36.4769 28.4515 37.1878 29.8971 36.4521 30.5802C35.0165 32.5241 32.1452 32.8954 30.0692 31.8371C31.0938 31.3615 32.2912 31.3993 33.278 30.8165Z" fill="#326690"/>
<path d="M0.00794264 46.652C1.79007 46.6589 3.5722 46.6371 5.35532 46.6262C6.18136 46.6163 7.07093 46.7691 7.70932 47.3341C8.57408 48.0827 8.72499 49.4011 8.35367 50.4347C7.91484 51.5526 6.65593 52.0758 5.5251 52.1036C4.0011 52.1235 2.47512 52.0957 0.950138 52.1145C0.934253 53.4608 0.972973 54.8051 0.958081 56.1514C0.640375 56.1494 0.32267 56.1494 0.00694981 56.1514C-0.00198566 52.9843 -0.00297849 49.8191 0.00794264 46.652ZM0.964038 47.4115C0.962052 48.73 0.957088 50.0485 0.967016 51.3669C2.37485 51.364 3.78268 51.3878 5.19051 51.356C5.97584 51.3322 6.89619 51.0612 7.22482 50.2709C7.48395 49.563 7.44324 48.6833 6.96371 48.0757C6.49708 47.5167 5.71671 47.4135 5.03166 47.4095C3.67545 47.4085 2.31925 47.4085 0.964038 47.4115Z" fill="black"/>
<path d="M25.4015 47.8723C25.7272 47.8723 26.0528 47.8723 26.3795 47.8723C26.3795 48.5514 26.3775 49.2285 26.3844 49.9066C26.9404 49.9136 27.4954 49.9136 28.0514 49.9066C28.0593 50.127 28.0673 50.3455 28.0772 50.5659C27.5153 50.5768 26.9533 50.5768 26.3914 50.5639C26.3686 51.8972 26.3864 53.2286 26.3785 54.56C26.3884 54.8628 26.3586 55.2649 26.6684 55.4377C27.1013 55.6551 27.6016 55.5757 28.0643 55.5499C28.0643 55.7603 28.0663 55.9728 28.0673 56.1853C27.3524 56.2667 26.583 56.3193 25.9208 55.9907C25.5207 55.7822 25.3876 55.3036 25.3956 54.8827C25.3876 53.4411 25.3986 52.0005 25.3926 50.5589C24.9726 50.5609 24.5547 50.5589 24.1357 50.5539C24.1387 50.3385 24.1406 50.1231 24.1436 49.9096C24.5586 49.9146 24.9716 49.9116 25.3857 49.8937C25.3916 49.2196 25.3936 48.5455 25.4015 47.8723Z" fill="black"/>
<path d="M11.0899 49.7993C12.3289 49.6167 13.6832 49.6584 14.7981 50.2888C16.473 51.232 16.7083 53.7617 15.5417 55.1874C14.541 56.2984 12.9008 56.4493 11.497 56.3312C10.3562 56.2617 9.18862 55.6958 8.64952 54.6493C8.16005 53.6823 8.1541 52.479 8.6108 51.4991C9.06948 50.545 10.0722 49.9701 11.0899 49.7993ZM11.5674 50.4318C10.6521 50.539 9.75156 51.1158 9.45172 52.0173C9.11615 53.0201 9.25911 54.2711 10.0742 55.0107C10.7186 55.6024 11.6409 55.7394 12.4828 55.6987C13.2473 55.668 14.0594 55.4654 14.6045 54.8936C15.2022 54.3068 15.3015 53.4053 15.223 52.611C15.1635 51.924 14.8329 51.228 14.2272 50.8617C13.4389 50.3811 12.465 50.3275 11.5674 50.4318Z" fill="black"/>
<path d="M17.579 50.2559C18.2234 49.8449 19.0176 49.7794 19.7623 49.7277C20.8137 49.7039 21.9634 49.697 22.8738 50.3016C23.3811 50.6193 23.5638 51.22 23.6353 51.7809C23.2938 51.7938 22.9502 51.7968 22.6087 51.7968C22.5372 51.3322 22.3476 50.8397 21.881 50.6451C21.042 50.2599 20.072 50.3016 19.1775 50.4297C18.6215 50.5091 17.9434 50.8248 17.9265 51.4712C17.8779 51.9298 18.2978 52.2515 18.698 52.3508C19.8774 52.6477 21.1095 52.6179 22.297 52.872C22.8271 52.9971 23.398 53.2086 23.6998 53.6931C24.1109 54.396 23.8557 55.4057 23.1428 55.8118C22.2781 56.3241 21.2317 56.3499 20.2527 56.3549C19.3006 56.3172 18.2631 56.3013 17.45 55.7344C16.9506 55.3889 16.7798 54.7723 16.6855 54.2054C17.0399 54.2004 17.3954 54.2054 17.7498 54.2124C17.7677 54.9848 18.417 55.5328 19.1457 55.6251C20.2051 55.7771 21.3766 55.8644 22.3625 55.372C23.0465 55.0285 22.98 53.9224 22.2572 53.6663C20.7908 53.2384 19.1944 53.3794 17.7488 52.8552C16.7093 52.4402 16.6924 50.8407 17.579 50.2559Z" fill="black"/>
<path d="M31.0031 49.8808C32.0118 49.6554 33.093 49.6395 34.0888 49.9403C34.6577 50.0942 35.0538 50.548 35.4837 50.9173C35.5036 50.5857 35.5115 50.2531 35.5294 49.9225C35.8421 49.9245 36.1549 49.9205 36.4686 49.9145C36.553 51.8337 36.4795 53.7598 36.5063 55.6829C36.5302 56.4781 36.3753 57.3528 35.7548 57.9088C34.9396 58.6475 33.778 58.7676 32.7276 58.7884C31.7934 58.7686 30.8085 58.7477 29.9626 58.3039C29.3709 57.9981 29.0879 57.3498 28.9708 56.7273C29.2895 56.7204 29.6091 56.7174 29.9298 56.7075C30.1324 57.1205 30.2882 57.6209 30.733 57.8383C31.4002 58.159 32.1647 58.1689 32.8904 58.1639C33.6986 58.1361 34.6249 57.9813 35.1342 57.2793C35.6247 56.6092 35.5135 55.7325 35.5135 54.9531C34.5008 55.9787 32.9699 56.1694 31.6018 56.0045C30.743 55.9053 29.8454 55.5995 29.2855 54.9075C28.6054 54.0665 28.521 52.8791 28.7732 51.8625C29.0363 50.825 29.9924 50.1091 31.0031 49.8808ZM31.8232 50.4586C31.1182 50.5688 30.4123 50.9123 30.0202 51.5289C29.5655 52.2626 29.5585 53.2216 29.8643 54.0139C30.19 54.835 31.0756 55.255 31.9105 55.3403C32.9699 55.4922 34.2059 55.3552 34.9625 54.5193C35.8094 53.4887 35.717 51.7006 34.5832 50.9074C33.783 50.3653 32.7515 50.3325 31.8232 50.4586Z" fill="black"/>
<path d="M39.4832 49.9761C40.1931 49.6654 40.9863 49.7229 41.7429 49.7249C41.7429 49.989 41.7449 50.2531 41.7478 50.5172C40.9704 50.5063 40.1037 50.402 39.4345 50.8885C38.7813 51.3353 38.5569 52.1683 38.545 52.9218C38.534 53.9971 38.5519 55.0743 38.54 56.1515C38.2193 56.1495 37.8986 56.1485 37.5789 56.1485C37.5482 54.0735 37.5432 51.9985 37.571 49.9235C37.8917 49.9255 38.2143 49.9255 38.535 49.9205C38.542 50.2789 38.543 50.6383 38.5529 50.9957C38.7922 50.6016 39.0434 50.1707 39.4832 49.9761Z" fill="black"/>
<path d="M42.0805 51.2668C42.7338 50.2134 44.0096 49.7656 45.197 49.7279C46.4122 49.6683 47.7823 49.8331 48.6699 50.7535C49.3272 51.3919 49.5426 52.3281 49.5784 53.2137C47.2591 53.2346 44.9389 53.1978 42.6206 53.2336C42.6742 53.86 42.8639 54.5103 43.3513 54.9412C44.2518 55.7693 45.611 55.8437 46.7528 55.5876C47.5113 55.4237 48.0941 54.834 48.3731 54.1281C48.7265 54.1261 49.079 54.1281 49.4344 54.1311C49.1316 55.1845 48.2033 55.947 47.1539 56.1833C45.7312 56.5139 44.092 56.4573 42.8658 55.5836C41.5265 54.6434 41.2733 52.6299 42.0805 51.2668ZM43.8348 50.7574C43.1299 51.1218 42.7993 51.8962 42.6315 52.6319C44.6033 52.6468 46.576 52.6448 48.5488 52.6319C48.4823 52.1832 48.3512 51.7284 48.0405 51.3849C47.0437 50.1766 45.1583 50.0506 43.8348 50.7574Z" fill="black"/>
<path d="M41.7932 0.980782C44.5602 0.255023 47.487 -0.0547395 50.3186 0.483374C52.889 0.947025 55.3354 2.15331 57.1969 3.99898C58.02 4.82303 58.8559 5.72452 59.1647 6.88117C59.7187 8.86881 59.4983 10.9726 59.1647 12.9781C58.287 17.7894 56.3868 22.3653 53.9533 26.5918C55.0484 26.5918 56.1018 26.2433 57.187 26.1718C58.2513 26.1023 59.3881 26.7566 59.6442 27.8358C59.9649 28.9845 59.2421 30.0975 58.3972 30.8103C56.2448 32.7265 53.2574 33.3599 50.4437 33.1981C50.2749 36.1021 50.2173 39.1223 48.9902 41.8178C48.4431 43.0202 47.5794 44.0924 46.4466 44.7874C45.3624 45.4625 44.1045 45.7822 42.8634 46.0185C41.5062 46.2627 40.017 46.1307 38.8464 45.3493C37.7643 44.6613 37.0852 43.5027 36.697 42.3073C35.7359 39.8074 35.8322 37.083 35.719 34.451C33.8138 35.2175 31.6464 35.2155 29.7144 34.5513C29.0353 34.315 28.4366 33.903 27.9213 33.4076C26.9265 34.2336 25.5564 34.6586 24.2846 34.2982C22.6663 33.8573 21.5206 32.5001 20.6608 31.134C19.1686 28.6817 18.2323 25.9425 17.4063 23.2063C16.4939 20.0461 15.7205 16.8353 15.3025 13.5699C15.0672 10.6668 15.3283 7.56126 16.895 5.02954C18.1539 2.95651 20.3619 1.57152 22.7219 1.10985C26.0667 0.429761 29.5158 1.08701 32.7247 2.08977C33.7632 1.62314 34.7997 1.11283 35.9365 0.928162C37.8685 0.535001 39.8571 0.714703 41.7932 0.980782ZM41.7832 2.28337C41.534 2.33401 41.2888 2.22182 41.0446 2.19104C38.3083 1.63506 35.2911 1.85447 32.9173 3.43804C30.0698 2.41244 27.006 1.79391 23.9739 2.11161C21.7191 2.34692 19.4545 3.39336 18.1598 5.31448C16.5237 7.71018 16.3023 10.7701 16.5624 13.5788C17.0886 17.3079 17.998 20.9784 19.1547 24.5585C19.9172 26.7904 20.7551 29.0391 22.1113 30.9881C22.7993 31.9452 23.7147 32.9112 24.9458 33.0611C26.0409 33.1941 27.0308 32.515 27.7009 31.7118C28.8606 30.3219 30.0549 28.9597 31.292 27.6412C32.1002 28.0384 32.9778 28.2667 33.8753 28.3332C33.3899 28.9101 32.9897 29.6616 32.2163 29.888C31.1749 30.2901 29.9537 30.2365 29.0353 30.9295C28.5051 31.3087 28.4793 32.1348 28.9559 32.5706C29.8157 33.4066 31.0845 33.5863 32.2292 33.6816C33.8525 33.8047 35.4917 33.2587 36.7248 32.1963C36.7168 34.7767 36.7297 37.364 37.0196 39.9295C37.1636 41.4326 37.8129 42.9298 38.9557 43.9405C40.0329 44.8797 41.5688 45.0763 42.9359 44.838C44.2772 44.5839 45.6573 44.1808 46.7057 43.2634C47.8206 42.2815 48.2952 40.7982 48.5166 39.3745C48.9167 36.8249 49.2215 34.2604 49.5114 31.6979C52.3807 32.1824 55.6253 31.6334 57.7678 29.5385C58.2265 29.1076 58.6603 28.361 58.2086 27.7743C57.744 27.2362 56.9517 27.3841 56.3381 27.5052C54.8638 27.7673 53.2623 28.0741 51.8336 27.4615C54.3832 23.4396 56.3887 19.0463 57.5097 14.4098C57.9177 12.6475 58.2324 10.8455 58.1739 9.03164C58.1282 8.01597 57.9872 6.93577 57.3667 6.09485C55.8308 4.06947 53.6049 2.59413 51.1516 1.93489C48.0867 1.10389 44.7985 1.35111 41.7832 2.28337Z" fill="black"/>
</g>
<defs>
<clipPath id="clip0_1_2069">
<rect width="81" height="59" fill="white"/>
</clipPath>
</defs>
</svg>
