<svg width="142" height="40" viewBox="0 0 142 40" fill="none" xmlns="http://www.w3.org/2000/svg">
<g clip-path="url(#clip0_1_2320)">
<path d="M45.2752 25.9594V17.0829C45.2785 16.9833 45.32 16.8887 45.3913 16.8174C45.4843 16.7411 45.6021 16.6996 45.7232 16.7013H48.2119C48.9536 16.6681 49.6803 16.9103 50.2527 17.3815C50.7919 17.9456 51.069 18.7105 51.0159 19.4886V19.6048C51.0806 20.4078 50.7969 21.1992 50.2361 21.7783C49.6604 22.2578 48.927 22.5067 48.1787 22.4751H46.3868V25.9594C46.3918 26.0788 46.3271 26.1883 46.2209 26.2414C45.982 26.3924 45.68 26.3924 45.4411 26.2414C45.3383 26.185 45.2735 26.0772 45.2752 25.9594ZM46.3868 21.6124H48.1787C48.6516 21.6472 49.1162 21.478 49.4563 21.1478C49.7865 20.7546 49.954 20.2502 49.9209 19.7375V19.5716C49.9524 19.0639 49.7865 18.5645 49.4563 18.1779C49.1162 17.8477 48.6516 17.6785 48.1787 17.7133H46.3868V21.6124Z" fill="white"/>
<path d="M54.8818 23.5535V19.5715C54.817 18.7684 55.1008 17.977 55.6616 17.398C56.8827 16.4722 58.5717 16.4722 59.7929 17.398C60.3603 17.972 60.6457 18.7668 60.5727 19.5715V23.5535C60.649 24.3631 60.3636 25.1645 59.7929 25.7436C58.5717 26.6694 56.8827 26.6694 55.6616 25.7436C55.0991 25.1595 54.8154 24.3615 54.8818 23.5535ZM55.9934 23.5535C55.9934 24.7978 56.5741 25.4283 57.6526 25.4283C58.1304 25.4681 58.6033 25.2989 58.9467 24.9638C59.2802 24.5739 59.4411 24.0645 59.3947 23.5535V19.5715C59.4428 19.0654 59.2802 18.561 58.9467 18.1778C58.6033 17.8426 58.1304 17.6734 57.6526 17.7132C56.5077 17.7132 55.9934 18.3271 55.9934 19.5715V23.5535Z" fill="white"/>
<path d="M64.5547 24.997C64.553 24.846 64.6061 24.6983 64.704 24.5822C64.772 24.4693 64.8882 24.3963 65.0192 24.3831C65.1387 24.4046 65.2499 24.4627 65.3345 24.549L65.7161 24.914C65.8903 25.0849 66.0993 25.2143 66.33 25.2956C66.6435 25.4084 66.9754 25.4648 67.3089 25.4615C67.7933 25.4798 68.2695 25.3271 68.6528 25.0301C68.9896 24.7215 69.1671 24.2752 69.1339 23.819C69.1588 23.3809 68.9962 22.9512 68.686 22.641C68.384 22.3307 68.0157 22.0918 67.6075 21.9441L66.2138 21.4298C65.7907 21.2473 65.4207 20.9619 65.1354 20.6002C64.8185 20.1887 64.6592 19.676 64.6874 19.1567C64.6758 18.7369 64.767 18.3222 64.9529 17.9455C65.1072 17.6286 65.3494 17.3648 65.6497 17.1823C65.9318 17.0081 66.2404 16.8787 66.5622 16.8007C66.8991 16.7144 67.2442 16.6696 67.5909 16.668C68.1202 16.668 68.6478 16.7509 69.1505 16.9168C69.6483 17.0662 69.8972 17.2984 69.8972 17.5473C69.8955 17.69 69.849 17.8294 69.7644 17.9455C69.6997 18.0783 69.5637 18.1629 69.416 18.1612C69.2153 18.1015 69.0211 18.0235 68.8353 17.9289C68.4471 17.7663 68.0289 17.6817 67.6075 17.6801C67.1546 17.6552 66.7049 17.7647 66.3134 17.9953C65.9766 18.2326 65.7874 18.6291 65.8156 19.0406C65.8024 19.4205 65.96 19.7855 66.247 20.0361C66.5739 20.2982 66.9439 20.5006 67.3421 20.6334C67.7734 20.7827 68.1882 20.9652 68.6362 21.1477C69.6068 21.6189 70.2008 22.626 70.146 23.7028C70.2008 24.4693 69.9154 25.2226 69.3662 25.7602C68.7723 26.2413 68.0223 26.4885 67.2591 26.457C66.5672 26.4786 65.8837 26.306 65.2847 25.9593C64.7704 25.644 64.5547 25.3122 64.5547 24.997Z" fill="white"/>
<path d="M73.4975 17.199C73.4926 17.0729 73.534 16.9484 73.6137 16.8506C73.6767 16.756 73.7829 16.6996 73.8957 16.7012H79.2714C79.3892 16.6963 79.502 16.7527 79.5701 16.8506C79.6381 16.9534 79.6729 17.0762 79.6696 17.199C79.6696 17.3218 79.6364 17.4429 79.5701 17.5474C79.5037 17.6486 79.3925 17.7117 79.2714 17.7133H77.1643V26.0091C77.1659 26.1269 77.1012 26.2348 76.9984 26.2912C76.7594 26.4422 76.4575 26.4422 76.2186 26.2912C76.1157 26.2348 76.051 26.1269 76.0526 26.0091V17.7133H73.9123C73.7995 17.715 73.6933 17.6586 73.6303 17.564C73.5473 17.4595 73.5009 17.3317 73.4975 17.199Z" fill="white"/>
<path d="M83.4363 25.9593V17.2652C83.3865 17.0048 83.5591 16.7526 83.8212 16.7028C83.8262 16.7011 83.8312 16.7011 83.8345 16.7011H84.0004C84.3488 16.7011 84.6475 16.9334 84.8798 17.398L86.9537 21.38L89.0443 17.398C89.2931 16.9334 89.5918 16.7011 89.9236 16.7011C90.1841 16.6613 90.428 16.8388 90.4711 17.0993C90.4877 17.1425 90.4877 17.1889 90.4711 17.2321V25.9261C90.4828 26.0455 90.4247 26.1617 90.3218 26.2247C90.0796 26.3575 89.7842 26.3575 89.542 26.2247C89.4292 26.17 89.3628 26.0505 89.3761 25.9261V19.024L87.3851 22.8068C87.3154 22.9943 87.1379 23.1204 86.9371 23.1221C86.7496 23.1138 86.5887 22.9877 86.5389 22.8068L84.465 18.9576V25.9593C84.4782 26.0754 84.4185 26.1866 84.3156 26.2413C84.2012 26.3176 84.0701 26.3624 83.934 26.3741C83.798 26.3757 83.6636 26.3359 83.5524 26.2579C83.4562 26.1915 83.4097 26.0737 83.4363 25.9593Z" fill="white"/>
<path d="M94.2706 25.8929C94.264 25.8597 94.264 25.8266 94.2706 25.7934L96.9584 17.0994C97.0414 16.8339 97.2571 16.7012 97.6387 16.7012C98.0203 16.7012 98.236 16.8339 98.319 17.0994L101.057 25.8266C101.043 25.9659 100.962 26.0887 100.841 26.1584C100.695 26.243 100.529 26.2878 100.36 26.2911C100.184 26.316 100.016 26.2115 99.9615 26.0423L99.3974 24.184H95.9132L95.3325 26.1252C95.2844 26.2978 95.1118 26.4073 94.9343 26.3741C94.775 26.3708 94.6207 26.326 94.4863 26.2414C94.3536 26.1766 94.2689 26.0406 94.2706 25.8929ZM96.1786 23.2549H99.1319L97.6553 18.2774L96.1786 23.2549Z" fill="white"/>
<path d="M104.889 25.9594V17.0829C104.889 16.834 105.071 16.7013 105.436 16.7013C105.606 16.698 105.772 16.7577 105.901 16.8672C106.062 17.0165 106.191 17.1974 106.283 17.3981L109.601 23.8357V17.0829C109.599 16.9651 109.664 16.8573 109.767 16.8009C110.009 16.6681 110.304 16.6681 110.547 16.8009C110.649 16.8573 110.714 16.9651 110.713 17.0829V25.9594C110.714 26.0772 110.649 26.1851 110.547 26.2415C110.435 26.3195 110.301 26.3593 110.165 26.3576C109.846 26.341 109.568 26.1403 109.452 25.8433L106.017 19.2066V25.9594C106.03 26.0756 105.971 26.1867 105.868 26.2415C105.629 26.3925 105.327 26.3925 105.088 26.2415C104.962 26.21 104.877 26.0888 104.889 25.9594Z" fill="white"/>
<path d="M35.6686 7.83074C28.9474 -0.871563 16.4439 -2.47929 7.74163 4.24197C-0.960675 10.9632 -2.5684 23.4667 4.15286 32.169C10.8741 40.8713 23.3776 42.479 32.0799 35.7578C32.0815 35.7561 32.0832 35.7561 32.0849 35.7544C40.7838 29.0315 42.3883 16.5314 35.6686 7.83074Z" fill="#FF6C37"/>
<path d="M26.6262 12.7751L18.2308 21.2368L15.8582 18.7978C24.1209 10.5352 24.9505 11.2818 26.6262 12.7751Z" fill="white"/>
<path d="M18.2312 21.469C18.1566 21.4674 18.0852 21.4375 18.0321 21.3861L15.6429 18.9969C15.5318 18.8807 15.5318 18.6982 15.6429 18.5821C23.7894 10.4356 24.9011 10.8172 26.8257 12.5593C26.8904 12.6108 26.9286 12.6921 26.9252 12.775C26.9385 12.8563 26.907 12.9393 26.8423 12.9907L18.4469 21.3861C18.3889 21.4392 18.3109 21.469 18.2312 21.469ZM16.2734 18.7978L18.2312 20.7556L26.1952 12.7916C25.6261 12.0782 24.6107 11.9073 23.8392 12.3934C22.3957 13.0405 20.0729 15.0149 16.2734 18.7978Z" fill="#FF6C37"/>
<path d="M20.6363 23.5761L18.3467 21.2367L26.742 12.9409C28.9985 15.1476 25.647 18.8309 20.6363 23.5761Z" fill="white"/>
<path d="M20.6369 23.8748C20.5639 23.8681 20.4942 23.8399 20.4378 23.7918L18.0984 21.5022C18.0636 21.4176 18.0636 21.3213 18.0984 21.2367C18.0735 21.167 18.0735 21.0907 18.0984 21.021L26.4938 12.6257C26.6149 12.5112 26.804 12.5112 26.9251 12.6257C27.476 13.1317 27.7779 13.8534 27.7547 14.6001C27.7547 16.8399 25.1996 19.6605 20.8526 23.7752C20.7945 23.8333 20.7182 23.8681 20.6369 23.8748ZM18.7787 21.2367L20.6535 23.1116C23.9718 19.9757 27.1408 16.7404 27.1574 14.5503C27.1757 14.0857 27.0214 13.6311 26.726 13.2727L18.7787 21.2367Z" fill="#FF6C37"/>
<path d="M15.9246 18.8476L17.5838 20.5068C17.6253 20.5433 17.6286 20.6063 17.5921 20.6478C17.5888 20.6511 17.5871 20.6545 17.5838 20.6561L14.083 21.4027C13.9038 21.4409 13.7279 21.3264 13.6897 21.1472C13.6665 21.0344 13.7013 20.9183 13.7843 20.8386L15.8251 18.8145C15.8251 18.8145 15.8914 18.8145 15.9246 18.8476Z" fill="white"/>
<path d="M14 21.7344C13.7743 21.7311 13.5686 21.6117 13.4525 21.4192C13.3214 21.172 13.3678 20.8683 13.5686 20.6726L15.5928 18.6318C15.7438 18.4974 15.9727 18.4974 16.1237 18.6318L17.7829 20.291C17.8808 20.3839 17.9206 20.5249 17.8824 20.656C17.8443 20.7887 17.7364 20.8916 17.6004 20.9214L14.0995 21.6681L14 21.7344ZM15.8582 19.2125L13.9834 21.0874L17.086 20.4237L15.8582 19.2125Z" fill="#FF6C37"/>
<path d="M31.0894 8.11268C29.8102 6.87827 27.7727 6.91477 26.5383 8.19398C25.3039 9.4732 25.3404 11.5106 26.6196 12.7451C27.6665 13.7555 29.261 13.938 30.5087 13.1897L28.2522 10.9333L31.0894 8.11268Z" fill="white"/>
<path d="M28.8492 13.953C26.9063 13.9281 25.3533 12.332 25.3782 10.3891C25.3898 9.47993 25.7549 8.61053 26.3936 7.96345C27.7757 6.60626 29.989 6.60626 31.3711 7.96345C31.4906 8.063 31.5055 8.24219 31.4043 8.36165C31.3943 8.37327 31.3827 8.38488 31.3711 8.39483L28.6833 10.9334L30.724 12.9409C30.7904 13.0056 30.8219 13.0986 30.807 13.1898C30.797 13.2777 30.7489 13.3574 30.6743 13.4055C30.1267 13.749 29.4963 13.9381 28.8492 13.953ZM28.8492 7.51548C27.2365 7.52377 25.9357 8.83783 25.944 10.4505C25.9473 11.2154 26.2526 11.9504 26.7918 12.493C27.6363 13.3408 28.9139 13.5847 30.0106 13.1069L28.0528 11.149C27.9881 11.0976 27.9499 11.0163 27.9532 10.9334C27.9549 10.8554 27.9914 10.7824 28.0528 10.7343L30.6411 8.12937C30.1267 7.73449 29.4979 7.5188 28.8492 7.51548Z" fill="#FF6C37"/>
<path d="M31.1391 8.1626L28.302 10.9832L30.5584 13.2396C30.7857 13.1086 30.9965 12.9543 31.1889 12.7751C32.4184 11.4759 32.3968 9.43517 31.1391 8.1626Z" fill="white"/>
<path d="M30.5086 13.4884C30.4323 13.4917 30.3593 13.4618 30.3096 13.4054L28.0531 11.149C27.9884 11.0975 27.9502 11.0162 27.9535 10.9333C27.9552 10.8553 27.9917 10.7823 28.0531 10.7342L30.8737 7.96338C30.9649 7.82567 31.1507 7.78916 31.2885 7.87876C31.3216 7.90033 31.3498 7.92853 31.3714 7.96338C32.7452 9.31062 32.7684 11.5156 31.4212 12.8911C31.4046 12.9077 31.388 12.9243 31.3714 12.9409C31.1756 13.1483 30.9533 13.3274 30.7077 13.4718C30.6464 13.5033 30.575 13.5083 30.5086 13.4884ZM28.6836 10.9333L30.5584 12.8081C30.6878 12.7185 30.809 12.6173 30.9234 12.5095C31.4743 11.9603 31.7845 11.2137 31.7862 10.4355C31.7879 9.73868 31.534 9.06672 31.0728 8.54408L28.6836 10.9333Z" fill="#FF6C37"/>
<path d="M26.975 13.1234C26.5087 12.6854 25.782 12.6854 25.3158 13.1234L17.7998 20.6228L19.0442 21.8838L26.9916 14.9153C27.4827 14.4474 27.5009 13.6693 27.0314 13.1798C27.0131 13.1599 26.9949 13.1417 26.975 13.1234Z" fill="white"/>
<path d="M18.977 22.1824C18.9024 22.1807 18.831 22.1509 18.7779 22.0994L17.517 20.8385C17.4058 20.7223 17.4058 20.5398 17.517 20.4237L25.033 12.9409C25.6286 12.3452 26.5942 12.3452 27.1899 12.9409C27.4885 13.2395 27.6511 13.6477 27.6379 14.0691C27.6213 14.4889 27.4354 14.8837 27.1235 15.1641L19.1761 22.1326C19.1181 22.1741 19.0467 22.1907 18.977 22.1824ZM18.0977 20.6228L18.9273 21.469L26.7253 14.683C26.9194 14.5154 27.0339 14.2748 27.0406 14.0193C27.0505 13.7622 26.9476 13.5133 26.7585 13.3391C26.3968 12.979 25.8095 12.979 25.4478 13.3391L18.0977 20.6228Z" fill="#FF6C37"/>
<path d="M11.9758 29.1675C11.931 29.2272 11.931 29.3069 11.9758 29.3666L12.3076 30.8101C12.3442 31.0357 12.1915 31.2497 11.9659 31.2863C11.8447 31.3062 11.7203 31.2713 11.6274 31.1917L9.35434 29.0016L16.439 21.8672H18.8945L20.5537 23.5263C17.9654 25.7894 15.0784 27.6875 11.9758 29.1675Z" fill="white"/>
<path d="M11.8265 31.6066C11.639 31.6033 11.4598 31.5253 11.3287 31.3909L9.15523 29.2174C9.09052 29.166 9.05236 29.0847 9.05568 29.0017C9.05734 28.9238 9.09384 28.8508 9.15523 28.8026L16.2896 21.6516C16.3294 21.6085 16.3825 21.5803 16.439 21.5687H18.9111C18.9758 21.5455 19.0455 21.5455 19.1102 21.5687L20.7694 23.2279C20.8341 23.2876 20.8639 23.3739 20.8523 23.4601C20.8556 23.5431 20.8175 23.6244 20.7528 23.6758L20.62 23.792C18.0218 25.9588 15.1614 27.7922 12.1085 29.2506L12.4238 30.5945C12.515 30.9778 12.2794 31.3627 11.8962 31.454C11.8464 31.4656 11.795 31.4722 11.7435 31.4739L11.8265 31.6066ZM9.80231 29.0017L11.7601 30.9761C11.7983 31.0093 11.8547 31.0093 11.8928 30.9761C11.9177 30.9413 11.9177 30.8948 11.8928 30.86L11.561 29.4165C11.5079 29.2025 11.6108 28.9818 11.8099 28.8856C14.7814 27.4471 17.5672 25.6535 20.1057 23.5431L18.7452 22.1826H16.5219L9.80231 29.0017Z" fill="#FF6C37"/>
<path d="M7.64581 30.7107L9.30497 29.0515L11.8601 31.6066L7.79513 31.3246C7.61263 31.3113 7.47492 31.152 7.48819 30.9695C7.49648 30.8633 7.55455 30.7671 7.64581 30.7107Z" fill="white"/>
<path d="M11.9092 31.8555L7.8608 31.5734C7.51404 31.5403 7.26018 31.2333 7.29171 30.8865C7.30498 30.7455 7.36471 30.6144 7.4626 30.5116L9.12176 28.8524C9.23791 28.7413 9.42041 28.7413 9.53655 28.8524L12.0751 31.3909C12.1464 31.4905 12.1464 31.6232 12.0751 31.7228C12.0369 31.7842 11.9788 31.8323 11.9092 31.8555ZM7.8608 30.9264L11.1791 31.1421L9.35405 29.4331L7.8608 30.9264Z" fill="#FF6C37"/>
<path d="M19.1268 22.0663L15.7753 22.5806L17.7165 20.656L19.1268 22.0663Z" fill="white"/>
<path d="M15.775 22.8959C15.6605 22.8992 15.556 22.8345 15.5096 22.73C15.4382 22.6305 15.4382 22.4977 15.5096 22.3982L17.4342 20.457C17.5553 20.3425 17.7445 20.3425 17.8656 20.457L19.2759 21.8672C19.3323 21.9585 19.3323 22.0746 19.2759 22.1659C19.2493 22.2787 19.1581 22.3633 19.0436 22.3816L15.7253 22.8959H15.775ZM17.7162 21.0874L16.6378 22.1659L18.4961 21.8838L17.7162 21.0874Z" fill="#FF6C37"/>
<path d="M19.1271 22.0663L16.7877 22.3649C16.6267 22.4014 16.4674 22.3002 16.4309 22.141C16.4094 22.0431 16.4376 21.9402 16.5056 21.8672L17.7168 20.656L19.1271 22.0663Z" fill="white"/>
<path d="M16.7206 22.6802C16.4999 22.6786 16.2975 22.5574 16.1896 22.365C16.0602 22.131 16.1 21.8407 16.2892 21.6515L17.5004 20.4404C17.6215 20.3259 17.8106 20.3259 17.9318 20.4404L19.342 21.8506C19.4615 21.9635 19.4665 22.1526 19.3537 22.2721C19.3022 22.3252 19.2342 22.3583 19.1595 22.365L16.8367 22.6636L16.7206 22.6802ZM16.7206 22.0663L18.4793 21.8506L17.6995 21.0708L16.704 22.0663H16.7206Z" fill="#FF6C37"/>
<path d="M31.1557 10.0706C31.091 9.96279 30.955 9.91965 30.8405 9.97109C30.726 10.0292 30.6812 10.1702 30.7393 10.283C30.7393 10.2847 30.7409 10.2847 30.7409 10.2863C30.8571 10.5302 30.8255 10.8206 30.658 11.0329C30.5717 11.1142 30.5667 11.2503 30.648 11.3382C30.6513 11.3416 30.6547 11.3449 30.658 11.3482C30.7011 11.3648 30.7476 11.3648 30.7907 11.3482C30.8687 11.3681 30.9533 11.3432 31.0064 11.2818C31.2851 10.94 31.3432 10.4688 31.1557 10.0706Z" fill="#FF6C37"/>
<path d="M110.95 16.941C110.237 18.4268 109.642 19.7938 108.989 21.1608C108.81 21.5174 108.691 21.9928 108.335 21.9928C107.859 21.9928 107.8 21.5174 107.622 21.1013C107.087 19.9127 106.552 18.724 106.017 17.5948C105.898 17.4165 105.898 17.0599 105.66 17.1193C105.363 17.1787 105.423 17.5353 105.423 17.7731C105.423 20.1504 105.423 22.5277 105.423 24.9645C105.423 25.3211 105.423 25.6777 105.363 26.0343C105.304 26.3909 105.066 26.6286 104.709 26.6286C104.353 26.5692 104.234 26.3315 104.175 26.0343C104.175 25.7966 104.175 25.5588 104.175 25.3211C104.175 21.8145 104.175 18.3674 104.175 14.8608C104.175 14.3853 104.056 13.7316 104.591 13.5533C105.185 13.375 105.542 13.8504 105.779 14.3853C106.433 15.7523 106.968 17.1193 107.622 18.4268C107.8 18.7834 107.859 19.4372 108.335 19.4966C108.87 19.4966 108.929 18.7834 109.108 18.4268C109.761 17.1193 110.296 15.8118 110.95 14.5042C111.188 13.9693 111.485 13.4344 112.139 13.5533C112.792 13.7316 112.614 14.3853 112.614 14.9202C112.614 18.3674 112.614 21.8145 112.614 25.2617C112.614 25.7966 112.792 26.6286 112.02 26.6286C111.188 26.6286 111.366 25.7966 111.366 25.2022C111.366 22.9438 111.366 20.6853 111.366 18.3674C111.307 17.8919 111.425 17.4165 110.95 16.941Z" fill="#FF6C37"/>
<path d="M136.446 17.2382C136.09 17.5948 136.209 18.0703 136.209 18.4863C136.209 20.8637 136.209 23.1816 136.209 25.5589C136.209 25.9749 136.328 26.6287 135.733 26.6287C135.08 26.6881 135.08 26.0344 135.08 25.5589C135.08 21.9335 135.08 18.308 135.08 14.6231C135.08 14.2071 135.02 13.6722 135.496 13.5533C136.03 13.375 136.328 13.7911 136.565 14.2665C137.516 16.4061 138.527 18.5457 139.478 20.7448C139.656 21.2203 139.894 21.6363 140.072 22.1118C140.191 22.3495 140.191 22.7061 140.547 22.5872C140.845 22.4684 140.785 22.1118 140.785 21.874C140.785 19.5561 140.785 17.2382 140.785 14.9203C140.785 14.6231 140.785 14.3854 140.845 14.0882C140.904 13.6722 141.142 13.4939 141.498 13.4939C141.855 13.5533 141.974 13.8505 141.974 14.2071C141.974 15.0986 141.974 15.9901 141.974 16.8816C141.974 19.675 141.974 22.4089 141.974 25.2023C141.974 25.6778 142.152 26.3315 141.558 26.5098C140.904 26.7476 140.666 26.0938 140.429 25.5589C139.299 23.1221 138.229 20.6259 137.1 18.1891C136.922 17.8325 136.863 17.4165 136.446 17.2382Z" fill="#FF6C37"/>
<path d="M68.9902 20.0317C68.9308 21.3392 69.0497 22.5873 68.8714 23.8948C68.5742 25.7373 67.5638 26.6288 65.7214 26.6288C63.7601 26.6288 62.6309 25.7967 62.3931 23.9543C62.096 21.2798 62.0365 18.5458 62.3931 15.8713C62.6309 14.1477 63.8195 13.3157 65.6025 13.3157C67.3855 13.3157 68.5148 14.2072 68.8119 15.8713C69.1091 17.2977 68.9308 18.6647 68.9902 20.0317ZM67.8016 20.0317C67.8016 19.0213 67.861 18.0109 67.8016 17.0005C67.7421 15.4553 66.9101 14.5638 65.5431 14.6232C64.2356 14.6232 63.4629 15.4553 63.4035 17.0005C63.3441 19.0213 63.3441 21.1015 63.4035 23.1222C63.4629 24.6675 64.2356 25.4995 65.5431 25.559C66.9101 25.559 67.7421 24.7269 67.8016 23.1222C67.861 22.1118 67.8016 21.1015 67.8016 20.0317Z" fill="#FF6C37"/>
<path d="M127.71 25.7966C127.71 26.2127 127.651 26.5098 127.294 26.5693C126.997 26.6287 126.759 26.5693 126.64 26.2127C126.581 25.9749 126.462 25.6778 126.403 25.44C125.868 23.5976 125.868 23.5976 124.263 23.5976C124.085 23.5976 123.906 23.5976 123.728 23.5976C121.707 23.5976 121.707 23.5976 120.994 25.7372C120.875 26.1532 120.816 26.7476 120.222 26.5693C119.627 26.3315 119.806 25.7372 119.924 25.2617C120.875 21.6957 121.826 18.0703 122.837 14.5043C123.015 13.9694 123.074 13.1967 123.847 13.2562C124.501 13.3156 124.62 13.9694 124.739 14.5043C125.63 17.892 126.581 21.2797 127.472 24.7268C127.591 25.0834 127.651 25.44 127.71 25.7966ZM123.728 22.4684C123.906 22.4684 124.144 22.4684 124.323 22.4684C125.63 22.4684 125.689 22.4089 125.273 20.9231C124.917 19.4967 124.56 18.0703 124.144 16.7033C124.085 16.4061 124.144 15.9901 123.788 15.9901C123.431 15.9901 123.372 16.4061 123.312 16.7627C123.015 17.9514 122.718 19.1401 122.361 20.3288C121.767 22.4684 121.826 22.4684 123.728 22.4684Z" fill="#FF6C37"/>
<path d="M48.0693 20.0317C48.0693 18.1892 48.0693 16.3468 48.0693 14.5043C48.0693 13.6128 48.3665 13.3157 49.0797 13.3157C49.7335 13.3157 50.4467 13.3157 51.1004 13.3157C53.8344 13.3751 54.8448 14.6232 54.7853 17.7732C54.7259 19.9128 53.6561 21.1609 51.8136 21.2798C51.2787 21.2798 50.8033 21.3392 50.2684 21.2798C49.4363 21.2203 49.1391 21.6364 49.1986 22.5279C49.258 23.5977 49.1986 24.6675 49.1986 25.6778C49.1986 26.0939 49.1391 26.5693 48.6042 26.5693C48.0693 26.5693 48.0693 26.0939 48.0693 25.6184C48.0693 23.776 48.0693 21.8741 48.0693 20.0317ZM50.8627 20.21C52.5863 20.21 53.2401 19.7939 53.5372 18.5458C53.8344 17.2977 53.8344 16.109 52.9429 15.1581C51.9919 14.2072 50.7438 14.6232 49.6146 14.6826C49.1986 14.6826 49.1986 15.2175 49.1986 15.6336C49.1986 16.5251 49.1986 17.4166 49.1986 18.3081C49.1986 20.21 49.1986 20.21 50.8627 20.21Z" fill="#FF6C37"/>
<path d="M79.5688 26.7475C78.3207 26.7475 77.3104 26.5098 76.5377 25.5589C76.3 25.2617 76.0028 24.8457 76.3594 24.4296C76.6566 24.073 77.0132 24.3108 77.2509 24.6079C77.9641 25.3806 78.7368 25.6183 79.6877 25.5589C80.5792 25.4994 81.233 25.0834 81.5896 24.073C81.9462 23.0627 81.7084 22.1117 81.0547 21.3985C80.4009 20.6853 79.5688 20.3882 78.7368 19.9721C77.5481 19.4372 76.6566 18.6646 76.5377 17.0599C76.3594 14.9203 77.3104 13.7316 79.3905 13.3156C80.282 13.1373 81.1141 13.375 81.8867 13.6722C82.3028 13.791 82.6594 14.1476 82.4811 14.6825C82.3028 15.2769 81.8867 15.0391 81.5301 14.8608C80.7575 14.4448 79.9254 14.4448 79.1528 14.5637C78.499 14.6825 77.9047 15.0986 77.7858 15.9306C77.667 16.7627 77.7858 17.4759 78.3802 18.0108C79.1528 18.6646 80.0443 18.9023 80.8764 19.3184C82.1839 19.9721 82.8971 21.1014 82.8971 22.7655C82.8971 24.3108 82.5405 25.4994 81.233 26.2721C80.6386 26.6881 79.9849 26.6287 79.5688 26.7475Z" fill="#FF6C37"/>
<path d="M92.585 20.5071C92.585 18.9619 92.5256 17.476 92.585 15.9307C92.6445 14.8015 92.2284 14.4449 91.3369 14.5638C90.9803 14.6232 90.5643 14.5638 90.2077 14.5638C89.8511 14.5638 89.6133 14.3855 89.6133 13.91C89.6133 13.5534 89.8511 13.3157 90.1482 13.3157C92.169 13.3157 94.1897 13.3157 96.2105 13.3157C96.5076 13.3157 96.7454 13.494 96.7454 13.8506C96.7454 14.2666 96.5076 14.5043 96.151 14.5043C95.735 14.5043 95.2595 14.5638 94.8435 14.5043C94.0114 14.4449 93.7737 14.8609 93.7737 15.7524C93.7737 18.6647 93.7737 21.6364 93.7737 24.5486C93.7737 24.8458 93.7737 25.2024 93.7737 25.4995C93.7737 25.975 93.7143 26.5099 93.1794 26.5099C92.585 26.5099 92.585 25.975 92.585 25.4995C92.585 24.0731 92.585 22.7062 92.585 21.2798C92.585 21.042 92.585 20.8043 92.585 20.5071Z" fill="#FF6C37"/>
</g>
<defs>
<clipPath id="clip0_1_2320">
<rect width="142" height="40" fill="white"/>
</clipPath>
</defs>
</svg>
