<svg width="54" height="49" viewBox="0 0 54 49" fill="none" xmlns="http://www.w3.org/2000/svg">
<g clip-path="url(#clip0_1_2135)">
<path d="M44.4 16.0001C43.8 15.8001 43.3 15.6001 42.7 15.5001C42.8 15.1001 42.9 14.7001 43 14.3001C44.3 7.90009 43.5 2.80009 40.5 1.10009C37.6 -0.499907 33 1.20009 28.4 5.20009C27.9 5.60009 27.5 6.00009 27 6.40009C26.7 6.10009 26.4 5.80009 26.1 5.60009C21.2 1.30009 16.3 -0.599907 13.4 1.10009C10.6 2.80009 9.8 7.60009 11 13.7001C11.1 14.3001 11.2 14.9001 11.4 15.5001C10.7 15.7001 10 15.9001 9.4 16.1001C3.7 18.1001 0 21.2001 0 24.5001C0 27.8001 3.9 31.2001 9.9 33.2001C10.4 33.4001 10.9 33.5001 11.4 33.7001C11.2 34.4001 11.1 35.0001 11 35.6001C9.9 41.5001 10.8 46.3001 13.6 47.9001C16.5 49.6001 21.4 47.9001 26.1 43.7001C26.5 43.4001 26.9 43.0001 27.2 42.7001C27.7 43.2001 28.2 43.6001 28.7 44.0001C33.3 47.9001 37.8 49.5001 40.6 47.9001C43.5 46.2001 44.4 41.1001 43.2 35.0001C43.1 34.5001 43 34.0001 42.9 33.6001C43.2 33.5001 43.6 33.4001 43.9 33.3001C50 31.2001 54 27.8001 54 24.5001C54 21.2001 50.2 18.1001 44.4 16.0001ZM29.9 6.90009C33.9 3.40009 37.6 2.10009 39.3 3.00009C41.1 4.00009 41.8 8.20009 40.7 13.8001C40.6 14.2001 40.5 14.5001 40.5 14.9001C38.3 14.4001 35.8 14.0001 33.3 13.8001C31.8 11.7001 30.3 9.80009 28.7 8.10009C29.1 7.70009 29.5 7.30009 29.9 6.90009ZM17.2 24.5001C17.9 23.0001 18.7 21.6001 19.5 20.1001C20.3 18.7001 21.2 17.3001 22.1 15.9001C23.7 15.8001 25.4 15.7001 27 15.7001C28.7 15.7001 30.3 15.8001 31.9 15.9001C32.8 17.2001 33.7 18.6001 34.5 20.1001C35.3 21.6001 36.1 23.0001 36.8 24.4001C36.1 25.8001 35.3 27.3001 34.5 28.8001C33.7 30.3001 32.8 31.7001 31.9 33.0001C30.3 33.1001 28.6 33.2001 27 33.2001C25.3 33.2001 23.7 33.1001 22.1 33.0001C21.2 31.7001 20.3 30.3001 19.5 28.8001C18.6 27.4001 17.9 26.0001 17.2 24.5001ZM15.9 27.2001C16.4 28.1001 16.9 29.1001 17.4 30.0001C17.9 30.9001 18.5 31.9001 19.1 32.8001C17.3 32.6001 15.7 32.3001 14.1 32.0001C14.7 30.4001 15.3 28.8001 15.9 27.2001ZM15.9 21.8001C15.2 20.2001 14.7 18.6001 14.2 17.1001C15.7 16.8001 17.4 16.5001 19.1 16.3001C18.5 17.2001 18 18.1001 17.4 19.0001C16.9 19.9001 16.4 20.9001 15.9 21.8001ZM36.5 30.0001C37.1 29.0001 37.6 28.1001 38.1 27.1001C38.8 28.7001 39.4 30.3001 39.9 31.9001C38.3 32.3001 36.6 32.5001 34.9 32.8001C35.4 31.9001 36 30.9001 36.5 30.0001ZM38.1 21.8001C37.6 20.9001 37.1 19.9001 36.5 19.0001C36 18.1001 35.4 17.2001 34.9 16.3001C36.6 16.5001 38.3 16.8001 39.8 17.2001C39.3 18.6001 38.8 20.2001 38.1 21.8001ZM27 9.70009C28.1 10.9001 29.1 12.1001 30.2 13.5001C29.1 13.5001 28.1 13.4001 27 13.4001C25.9 13.4001 24.9 13.4001 23.8 13.5001C24.9 12.2001 25.9 10.9001 27 9.70009ZM14.6 3.20009C16.4 2.20009 20.4 3.60009 24.6 7.40009C24.9 7.60009 25.1 7.90009 25.4 8.10009C23.8 9.80009 22.3 11.7001 20.8 13.8001C18.3 14.0001 15.8 14.4001 13.6 14.9001C13.5 14.3001 13.3 13.8001 13.2 13.2001C12.2 8.10009 12.9 4.10009 14.6 3.20009ZM12 31.4001C11.5 31.3001 11.1 31.1001 10.7 31.0001C8.1 30.1001 5.9 28.9001 4.4 27.7001C3.1 26.6001 2.4 25.4001 2.4 24.5001C2.4 22.5001 5.3 20.0001 10.2 18.3001C10.8 18.1001 11.4 17.9001 12.1 17.7001C12.8 19.9001 13.7 22.2001 14.7 24.5001C13.5 26.9001 12.6 29.2001 12 31.4001ZM24.5 41.9001C22.4 43.7001 20.3 45.0001 18.5 45.7001C16.8 46.3001 15.5 46.3001 14.7 45.8001C13 44.8001 12.3 41.0001 13.3 35.9001C13.4 35.3001 13.5 34.7001 13.7 34.1001C15.9 34.6001 18.4 34.9001 21 35.2001C22.5 37.3001 24.1 39.2001 25.6 40.9001C25.1 41.3001 24.8 41.6001 24.5 41.9001ZM27.1 39.3001C26 38.1001 24.9 36.8001 23.9 35.4001C24.9 35.4001 26 35.5001 27.1 35.5001C28.2 35.5001 29.3 35.5001 30.4 35.4001C29.2 36.9001 28.1 38.2001 27.1 39.3001ZM41.1 42.5001C40.8 44.2001 40.1 45.4001 39.3 45.9001C37.6 46.9001 34 45.6001 30 42.2001C29.5 41.8001 29.1 41.4001 28.6 41.0001C30.1 39.3001 31.6 37.4001 33.1 35.3001C35.7 35.1001 38.2 34.7001 40.4 34.2001C40.5 34.6001 40.6 35.1001 40.7 35.5001C41.4 38.1001 41.5 40.6001 41.1 42.5001ZM43.1 31.0001C42.8 31.1001 42.5 31.2001 42.2 31.3001C41.5 29.1001 40.6 26.8001 39.5 24.5001C40.6 22.2001 41.5 19.9001 42.1 17.8001C42.7 18.0001 43.2 18.1001 43.7 18.3001C48.7 20.0001 51.7 22.6001 51.7 24.5001C51.7 26.5001 48.4 29.3001 43.1 31.0001Z" fill="#01D8F8"/>
<path d="M27 19.6001C29.7 19.6001 31.8 21.8001 31.8 24.4001C31.8 27.1001 29.6 29.2001 27 29.2001C24.4 29.2001 22.2 27.0001 22.2 24.4001C22.2 21.8001 24.3 19.6001 27 19.6001Z" fill="#01D8F8"/>
</g>
<defs>
<clipPath id="clip0_1_2135">
<rect width="54" height="49" fill="white"/>
</clipPath>
</defs>
</svg>
