<svg width="105" height="36" viewBox="0 0 105 36" fill="none" xmlns="http://www.w3.org/2000/svg">
<g clip-path="url(#clip0_1_1923)">
<path d="M33.2 11.6999C32.8 11.5999 32.3 11.3999 31.9 11.2999C32 10.9999 32 10.6999 32.1 10.3999C33.1 5.5999 32.4 1.7999 30.2 0.499902C28.1 -0.700098 24.6 0.599902 21.2 3.5999C20.9 3.8999 20.5 4.1999 20.2 4.4999C20 4.2999 19.8 4.0999 19.5 3.8999C15.9 0.699903 12.2 -0.700098 10 0.599902C7.9 1.6999 7.3 5.3999 8.2 9.8999C8.3 10.2999 8.4 10.7999 8.5 11.1999C8 11.2999 7.5 11.4999 7 11.6999C2.7 13.1999 0 15.4999 0 17.9999C0 20.4999 2.9 22.9999 7.4 24.4999C7.8 24.5999 8.1 24.6999 8.5 24.7999C8.4 25.2999 8.3 25.7999 8.2 26.1999C7.4 30.6999 8 34.1999 10.1 35.3999C12.3 36.6999 15.9 35.3999 19.5 32.2999C19.8 32.0999 20.1 31.7999 20.3 31.4999C20.7 31.8999 21 32.1999 21.4 32.4999C24.8 35.4999 28.2 36.5999 30.3 35.3999C32.5 34.0999 33.2 30.2999 32.3 25.6999C32.2 25.2999 32.1 24.9999 32.1 24.5999C32.4 24.4999 32.6 24.3999 32.9 24.3999C37.5 22.8999 40.5 20.3999 40.5 17.7999C40.4 15.4999 37.6 13.1999 33.2 11.6999ZM22.4 4.8999C25.4 2.2999 28.2 1.2999 29.4 1.9999C30.8 2.7999 31.3 5.8999 30.4 10.0999C30.3 10.3999 30.3 10.5999 30.2 10.8999C28.5 10.4999 26.7 10.1999 24.8 9.9999C23.7 8.3999 22.5 6.9999 21.4 5.6999C21.7 5.3999 22.1 5.0999 22.4 4.8999ZM12.8 17.9999C13.3 16.8999 13.9 15.7999 14.5 14.6999C15.1 13.5999 15.8 12.5999 16.5 11.5999C17.7 11.4999 18.9 11.4999 20.2 11.4999C21.5 11.4999 22.7 11.4999 23.9 11.5999C24.6 12.5999 25.2 13.5999 25.8 14.6999C26.4 15.7999 27 16.8999 27.5 17.8999C27 18.9999 26.4 20.0999 25.8 21.1999C25.2 22.2999 24.5 23.2999 23.9 24.2999C22.7 24.3999 21.5 24.3999 20.2 24.3999C18.9 24.3999 17.7 24.3999 16.5 24.2999C15.8 23.2999 15.2 22.2999 14.5 21.1999C13.9 20.1999 13.4 19.0999 12.8 17.9999ZM11.9 19.9999C12.3 20.6999 12.6 21.3999 13 22.0999C13.4 22.7999 13.8 23.4999 14.3 24.1999C13 24.0999 11.7 23.8999 10.6 23.5999C11 22.4999 11.4 21.2999 11.9 19.9999ZM11.9 15.9999C11.4 14.7999 11 13.5999 10.6 12.4999C11.8 12.1999 13 11.9999 14.3 11.8999C13.9 12.5999 13.5 13.1999 13.1 13.8999C12.7 14.5999 12.3 15.2999 11.9 15.9999ZM27.3 22.0999C27.7 21.3999 28.1 20.6999 28.5 19.9999C29 21.1999 29.5 22.3999 29.9 23.5999C28.7 23.8999 27.5 24.0999 26.1 24.1999C26.5 23.4999 26.9 22.7999 27.3 22.0999ZM28.5 15.9999C28.1 15.2999 27.7 14.5999 27.3 13.8999C26.9 13.1999 26.5 12.4999 26.1 11.8999C27.4 12.0999 28.6 12.2999 29.8 12.4999C29.4 13.5999 29 14.7999 28.5 15.9999ZM20.2 6.9999C21 7.8999 21.8 8.7999 22.6 9.8999C21.8 9.8999 21 9.7999 20.2 9.7999C19.4 9.7999 18.6 9.7999 17.8 9.8999C18.6 8.7999 19.4 7.7999 20.2 6.9999ZM10.9 1.9999C12.3 1.1999 15.2 2.2999 18.4 5.0999C18.6 5.2999 18.8 5.4999 19 5.6999C17.8 6.9999 16.7 8.3999 15.6 9.9999C13.7 10.1999 11.9 10.4999 10.2 10.7999C10.1 10.3999 10 9.9999 9.9 9.5999C9.1 5.6999 9.6 2.7999 10.9 1.9999ZM8.9 23.1999C8.6 23.0999 8.2 22.9999 7.9 22.8999C5.9 22.1999 4.3 21.3999 3.2 20.3999C2.2 19.4999 1.7 18.6999 1.7 17.9999C1.7 16.4999 3.9 14.6999 7.6 13.3999C8 13.1999 8.5 12.9999 9 12.8999C9.5 14.4999 10.2 16.2999 11 17.9999C10.1 19.7999 9.5 21.4999 8.9 23.1999ZM18.3 31.0999C16.7 32.4999 15.2 33.3999 13.8 33.8999C12.6 34.2999 11.6 34.3999 11 33.9999C9.7 33.2999 9.2 30.3999 9.9 26.5999C10 26.1999 10.1 25.6999 10.2 25.2999C11.9 25.6999 13.7 25.8999 15.6 26.0999C16.7 27.6999 17.9 29.0999 19.1 30.3999C18.8 30.5999 18.6 30.7999 18.3 31.0999ZM20.3 29.0999C19.5 28.1999 18.7 27.1999 17.9 26.1999C18.7 26.1999 19.5 26.1999 20.3 26.1999C21.1 26.1999 21.9 26.1999 22.7 26.0999C21.9 27.2999 21.1 28.1999 20.3 29.0999ZM30.8 31.4999C30.6 32.7999 30.1 33.6999 29.5 33.9999C28.2 34.6999 25.5 33.7999 22.6 31.2999C22.3 30.9999 21.9 30.6999 21.6 30.3999C22.7 29.1999 23.9 27.6999 25 26.0999C27 25.8999 28.8 25.5999 30.5 25.2999C30.6 25.5999 30.7 25.9999 30.7 26.2999C31 28.1999 31 30.0999 30.8 31.4999ZM32.2 22.8999C32 22.9999 31.8 22.9999 31.5 23.0999C31 21.4999 30.3 19.7999 29.5 17.9999C30.3 16.2999 31 14.5999 31.5 12.9999C31.9 13.0999 32.3 13.1999 32.7 13.3999C36.4 14.6999 38.7 16.5999 38.7 18.0999C38.7 19.4999 36.2 21.5999 32.2 22.8999Z" fill="#01D8F8"/>
<path d="M20.1996 14.3999C22.1996 14.3999 23.7996 15.9999 23.7996 17.9999C23.7996 19.9999 22.1996 21.5999 20.1996 21.5999C18.1996 21.5999 16.5996 19.9999 16.5996 17.9999C16.5996 15.9999 18.1996 14.3999 20.1996 14.3999Z" fill="#01D8F8"/>
<path d="M47.0996 19.3002V26.5002H45.0996V9.2002H49.7996C51.8996 9.2002 53.4996 9.6002 54.4996 10.4002C55.4996 11.2002 55.9996 12.4002 55.9996 14.1002C55.9996 16.4002 54.7996 17.9002 52.4996 18.7002L57.1996 26.5002H54.7996L50.5996 19.3002H47.0996ZM47.0996 17.6002H49.8996C51.2996 17.6002 52.3996 17.3002 52.9996 16.8002C53.6996 16.2002 53.9996 15.4002 53.9996 14.3002C53.9996 13.2002 53.6996 12.3002 52.9996 11.8002C52.2996 11.3002 51.1996 11.0002 49.7996 11.0002H47.1996L47.0996 17.6002Z" fill="#01D8F8"/>
<path d="M65.2 26.8003C63.3 26.8003 61.8 26.2003 60.7 25.0003C59.6 23.8003 59 22.2003 59 20.1003C59 18.0003 59.5 16.3003 60.5 15.1003C61.5 13.9003 62.9 13.3003 64.6 13.3003C66.2 13.3003 67.5 13.8003 68.5 14.9003C69.4 16.0003 69.9 17.4003 69.9 19.1003V20.3003H61C61 21.8003 61.4 23.0003 62.2 23.8003C62.9 24.6003 64 25.0003 65.3 25.0003C66.7 25.0003 68.1 24.7003 69.4 24.1003V25.9003C68.7 26.2003 68 26.4003 67.4 26.5003C66.8 26.7003 66.1 26.8003 65.2 26.8003ZM64.7 15.0003C63.7 15.0003 62.8 15.3003 62.2 16.0003C61.6 16.7003 61.2 17.6003 61.1 18.8003H67.9C67.9 17.6003 67.6 16.6003 67.1 16.0003C66.5 15.3003 65.7 15.0003 64.7 15.0003Z" fill="#01D8F8"/>
<path d="M81.2996 26.5004L80.8996 24.7004H80.7996C80.1996 25.5004 79.4996 26.1004 78.8996 26.4004C78.2996 26.7004 77.4996 26.8004 76.4996 26.8004C75.1996 26.8004 74.1996 26.5004 73.4996 25.8004C72.7996 25.1004 72.3996 24.2004 72.3996 23.0004C72.3996 20.4004 74.4996 19.0004 78.6996 18.9004L80.8996 18.8004V18.0004C80.8996 17.0004 80.6996 16.2004 80.1996 15.7004C79.7996 15.2004 79.0996 15.0004 78.0996 15.0004C76.9996 15.0004 75.7996 15.3004 74.3996 16.0004L73.7996 14.5004C74.3996 14.2004 75.0996 13.9004 75.8996 13.7004C76.6996 13.5004 77.3996 13.4004 78.1996 13.4004C79.6996 13.4004 80.8996 13.7004 81.5996 14.4004C82.2996 15.1004 82.6996 16.2004 82.6996 17.7004V26.6004L81.2996 26.5004ZM76.8996 25.1004C78.0996 25.1004 79.0996 24.8004 79.7996 24.1004C80.4996 23.4004 80.7996 22.5004 80.7996 21.3004V20.1004L78.7996 20.2004C77.1996 20.3004 76.0996 20.5004 75.3996 20.9004C74.6996 21.3004 74.3996 22.0004 74.3996 22.9004C74.3996 23.6004 74.5996 24.2004 74.9996 24.5004C75.4996 25.0004 76.0996 25.1004 76.8996 25.1004Z" fill="#01D8F8"/>
<path d="M91.9996 26.8004C90.0996 26.8004 88.6996 26.2004 87.5996 25.1004C86.5996 23.9004 86.0996 22.3004 86.0996 20.2004C86.0996 18.0004 86.5996 16.4004 87.6996 15.2004C88.6996 14.0004 90.1996 13.4004 92.1996 13.4004C92.7996 13.4004 93.3996 13.5004 94.0996 13.6004C94.6996 13.7004 95.1996 13.9004 95.5996 14.1004L94.9996 15.8004C94.5996 15.6004 94.0996 15.5004 93.5996 15.4004C93.0996 15.3004 92.5996 15.2004 92.1996 15.2004C89.5996 15.2004 88.1996 16.9004 88.1996 20.2004C88.1996 21.8004 88.4996 23.0004 89.1996 23.9004C89.7996 24.8004 90.7996 25.2004 92.0996 25.2004C93.1996 25.2004 94.2996 25.0004 95.3996 24.5004V26.2004C94.3996 26.5004 93.2996 26.8004 91.9996 26.8004Z" fill="#01D8F8"/>
<path d="M102.5 25.1C102.8 25.1 103.2 25.1 103.5 25C103.8 24.9 104.1 24.9 104.3 24.8V26.3C104.1 26.4 103.8 26.5 103.4 26.6C103 26.7 102.6 26.7 102.3 26.7C99.7996 26.7 98.4996 25.4 98.4996 22.7V15H96.5996V14.1L98.4996 13.3L99.2996 10.5H100.4V13.5H104.2V15H100.4V22.6C100.4 23.4 100.6 24 101 24.4C101.4 24.9 101.9 25.1 102.5 25.1Z" fill="#01D8F8"/>
</g>
<defs>
<clipPath id="clip0_1_1923">
<rect width="105" height="36" fill="white"/>
</clipPath>
</defs>
</svg>
