<svg width="87" height="33" viewBox="0 0 87 33" fill="none" xmlns="http://www.w3.org/2000/svg">
<g clip-path="url(#clip0_1_1911)">
<path d="M27.9901 1.41162H34.9876L17.4938 31.5884L0 1.41162H6.91006H13.3828L17.4938 8.40915L21.5174 1.41162H27.9901Z" fill="#41B883"/>
<path d="M0 1.41162L17.4938 31.5884L34.9876 1.41162H27.9901L17.4938 19.5177L6.91006 1.41162H0Z" fill="#41B883"/>
<path d="M6.91006 1.41162L17.4938 19.6052L27.9901 1.41162H21.5174L17.4938 8.40915L13.3828 1.41162H6.91006Z" fill="#35495E"/>
<path d="M47.0517 9.99316H48.6637L44.0214 22.8716H42.5416L37.9258 9.99316H39.5114L42.4712 18.3262C42.8116 19.2836 43.0819 20.2143 43.2816 21.1187C43.493 20.1673 43.769 19.2191 44.1097 18.2735L47.0517 9.99316Z" fill="#35495E"/>
<path d="M51.5883 13.2168V19.4799C51.5883 20.2669 51.7675 20.8541 52.1257 21.2417C52.4838 21.6293 53.0448 21.8231 53.8083 21.8231C54.8182 21.8231 55.5568 21.5471 56.0237 20.995C56.4905 20.4431 56.724 19.5415 56.724 18.2907V13.2168H58.1862V22.8712H56.9794L56.768 21.5762H56.6887C56.3893 22.0519 55.9738 22.4162 55.4423 22.6685C54.9106 22.9211 54.3045 23.0472 53.6232 23.0472C52.4485 23.0472 51.5693 22.7684 50.9849 22.2104C50.4005 21.6526 50.1084 20.76 50.1084 19.5325V13.2168H51.5883Z" fill="#35495E"/>
<path d="M65.3649 23.0477C63.938 23.0477 62.8117 22.6133 61.9867 21.744C61.1616 20.8751 60.749 19.6683 60.749 18.1237C60.749 16.5675 61.1322 15.3313 61.8986 14.4152C62.6649 13.4991 63.6941 13.041 64.9861 13.041C66.1959 13.041 67.153 13.439 67.8578 14.2346C68.5625 15.0304 68.9148 16.08 68.9148 17.3837V18.3087H62.2642C62.2935 19.4422 62.5799 20.3026 63.123 20.8897C63.6661 21.4771 64.4311 21.7706 65.4177 21.7706C66.4571 21.7706 67.4847 21.5534 68.5008 21.1186V22.4223C67.9841 22.6457 67.4952 22.8056 67.0342 22.9025C66.5731 22.9992 66.0168 23.0477 65.3649 23.0477ZM64.9686 14.2653C64.1934 14.2653 63.5754 14.5179 63.1144 15.0229C62.6532 15.528 62.3818 16.2268 62.2995 17.1193H67.3471C67.3471 16.1974 67.1414 15.4912 66.7304 15.0009C66.3193 14.5106 65.7319 14.2653 64.9686 14.2653Z" fill="#35495E"/>
<path d="M71.1963 21.9373C71.1963 21.544 71.2857 21.2458 71.465 21.0432C71.6442 20.8407 71.901 20.7393 72.2358 20.7393C72.5762 20.7393 72.8422 20.8405 73.033 21.0432C73.2238 21.2458 73.3193 21.544 73.3193 21.9373C73.3193 22.3192 73.2224 22.6127 73.0286 22.8182C72.8348 23.0237 72.5705 23.1265 72.2358 23.1265C71.9364 23.1265 71.6882 23.034 71.4915 22.849C71.2946 22.6641 71.1963 22.3602 71.1963 21.9373Z" fill="#35495E"/>
<path d="M75.0374 27.2053C74.4795 27.2053 74.0274 27.1318 73.6808 26.9851V25.796C74.086 25.9134 74.4855 25.9721 74.8789 25.9721C75.337 25.9721 75.6731 25.8474 75.8875 25.5978C76.1018 25.3481 76.2091 24.968 76.2091 24.457V13.217H77.6713V24.3512C77.6713 26.2541 76.7933 27.2053 75.0374 27.2053ZM76.0857 10.6008C76.0857 10.2661 76.1679 10.0209 76.3324 9.86527C76.4966 9.70974 76.7023 9.63184 76.949 9.63184C77.1838 9.63184 77.3864 9.71111 77.5568 9.86964C77.7271 10.0282 77.8122 10.272 77.8122 10.6008C77.8122 10.9298 77.7271 11.175 77.5568 11.3364C77.3864 11.4979 77.1838 11.5786 76.949 11.5786C76.7023 11.5786 76.4966 11.4979 76.3324 11.3364C76.1679 11.1748 76.0857 10.9298 76.0857 10.6008Z" fill="#35495E"/>
<path d="M86.9997 20.2378C86.9997 21.1363 86.665 21.8295 85.9955 22.3167C85.3261 22.8042 84.3865 23.0479 83.1767 23.0479C81.8963 23.0479 80.8981 22.8453 80.1817 22.4401V21.0835C80.6455 21.3186 81.1431 21.5035 81.6748 21.6385C82.2063 21.7737 82.7187 21.8411 83.2119 21.8411C83.9752 21.8411 84.5626 21.7193 84.9737 21.4755C85.3847 21.2319 85.5904 20.8605 85.5904 20.3612C85.5904 19.9855 85.4275 19.6639 85.1015 19.3966C84.7756 19.1295 84.1399 18.8138 83.1944 18.4496C82.296 18.1149 81.6573 17.8228 81.2784 17.5731C80.8997 17.3237 80.6178 17.0403 80.4327 16.7231C80.2477 16.406 80.1553 16.0273 80.1553 15.5868C80.1553 14.8 80.4754 14.1789 81.1154 13.7237C81.7554 13.2686 82.6334 13.041 83.7492 13.041C84.7886 13.041 85.8046 13.2524 86.7971 13.6753L86.2773 14.8645C85.3083 14.4653 84.4303 14.2654 83.6435 14.2654C82.9506 14.2654 82.4279 14.3741 82.0755 14.5914C81.7232 14.8087 81.547 15.1083 81.547 15.4899C81.547 15.7483 81.613 15.9685 81.7452 16.1505C81.8773 16.3327 82.09 16.5059 82.3838 16.6702C82.6774 16.8347 83.2412 17.0725 84.0751 17.3837C85.2203 17.8008 85.994 18.2206 86.3962 18.6434C86.7986 19.0663 86.9997 19.5978 86.9997 20.2378Z" fill="#35495E"/>
</g>
<defs>
<clipPath id="clip0_1_1911">
<rect width="87" height="33" fill="white"/>
</clipPath>
</defs>
</svg>
