<svg width="64" height="64" viewBox="0 0 64 64" fill="none" xmlns="http://www.w3.org/2000/svg">
<path d="M60.2318 0L55.0907 57.5933L31.9813 64L8.93546 57.6023L3.7998 0H60.2318Z" fill="#264DE4"/>
<path d="M32.0156 59.103L50.6892 53.926L55.0826 4.70984H32.0156V59.103Z" fill="#2965F1"/>
<path d="M32.0159 26.0737H15.5732L16.2064 33.1383H32.0159V26.0737Z" fill="#EBEBEB"/>
<path d="M32.0157 11.7747H31.9913H14.3008L14.943 18.8394H32.0157V11.7747Z" fill="#EBEBEB"/>
<path d="M16.5225 36.6709L17.5122 47.7635L31.9837 51.7809L32.0162 51.7718V44.4216L31.9853 44.4298L24.1173 42.3053L23.6143 36.6709H19.7911H16.5225Z" fill="#EBEBEB"/>
<path d="M40.6906 33.1384L39.8706 42.3008L31.9912 44.4274V51.7774L46.4742 47.7634L46.5805 46.5699L48.2406 27.9708L48.413 26.0738L49.6884 11.7747H31.9912V18.8394H41.9461L41.3033 26.0738H31.9912V33.1384H40.6906Z" fill="white"/>
</svg>
