<svg width="64" height="64" viewBox="0 0 64 64" fill="none" xmlns="http://www.w3.org/2000/svg">
<g clip-path="url(#clip0_1_303)">
<path d="M23.2438 49.48C23.2438 49.48 20.7838 50.976 24.9538 51.404C29.9738 52.044 32.6478 51.938 38.2038 50.87C39.3205 51.5538 40.5015 52.1265 41.7298 52.58C29.2298 57.924 13.4098 52.26 23.2418 49.48H23.2438ZM21.6438 42.534C21.6438 42.534 18.9718 44.564 23.1398 44.994C28.5898 45.528 32.8638 45.634 40.2398 44.14C40.9572 44.8675 41.8355 45.4163 42.8038 45.742C27.7358 50.23 10.8518 46.17 21.6438 42.536V42.534ZM51.1378 54.714C51.1378 54.714 52.9538 56.21 49.1078 57.386C41.9478 59.526 19.0798 60.166 12.6678 57.386C10.4238 56.426 14.6978 55.036 16.0678 54.822C17.4578 54.502 18.2078 54.502 18.2078 54.502C15.7478 52.792 1.85784 58.028 11.1558 59.522C36.6958 63.69 57.7478 57.706 51.1218 54.714H51.1378ZM24.3998 35.266C24.3998 35.266 12.7518 38.046 20.2318 39.006C23.4378 39.434 29.7418 39.326 35.6198 38.9C40.4278 38.472 45.2398 37.62 45.2398 37.62C45.2398 37.62 43.5298 38.368 42.3538 39.116C30.4938 42.216 7.72984 40.826 14.2498 37.62C19.8058 34.948 24.4018 35.27 24.4018 35.27L24.3998 35.266ZM45.2398 46.914C57.2078 40.714 51.6518 34.734 47.8038 35.48C46.8438 35.694 46.4138 35.908 46.4138 35.908C46.4138 35.908 46.7338 35.268 47.4818 35.054C55.0698 32.382 61.0538 43.068 45.0218 47.234C45.0218 47.234 45.1278 47.128 45.2358 46.914H45.2398ZM25.5798 63.798C37.1198 64.546 54.7538 63.37 55.1798 57.918C55.1798 57.918 54.3258 60.058 45.6698 61.658C35.8378 63.474 23.6558 63.258 16.4958 62.086C16.4958 62.086 17.9918 63.366 25.5798 63.796V63.798Z" fill="#4E7896"/>
<path d="M37.9918 0.00195312C37.9918 0.00195312 44.6178 6.73395 31.6878 16.886C21.3218 25.114 29.3378 29.816 31.6878 35.16C25.5958 29.71 21.2158 24.9 24.2078 20.414C28.5878 13.786 40.6638 10.6 37.9918 0.00195312ZM34.5918 30.672C37.6918 34.198 33.7378 37.404 33.7378 37.404C33.7378 37.404 41.6458 33.344 38.0118 28.32C34.6998 23.512 32.1318 21.16 46.0258 13.146C46.0258 13.146 24.1198 18.596 34.5918 30.672Z" fill="#F58219"/>
</g>
<defs>
<clipPath id="clip0_1_303">
<rect width="64" height="64" fill="white"/>
</clipPath>
</defs>
</svg>
