<svg width="64" height="64" viewBox="0 0 64 64" fill="none" xmlns="http://www.w3.org/2000/svg">
<path d="M30.5004 63.6C31.4004 64.1 32.6004 64.1 33.5004 63.6L58.6004 49.1C59.5004 48.6 60.1004 47.6 60.1004 46.5V17.5C60.1004 16.4 59.5004 15.4 58.6004 14.9L33.5004 0.400024C32.6004 -0.0999756 31.4004 -0.0999756 30.5004 0.400024L5.40039 14.9C4.50039 15.4 3.90039 16.4 3.90039 17.5V46.5C3.90039 47.6 4.50039 48.6 5.40039 49.1L30.5004 63.6Z" fill="#76D04B"/>
<path d="M48.2 25.1L47.1 24.5C48.8 22 49.8 18.1 48.6 12.4C48.6 12.4 45.7 20.5 39.9 20.3L33 16.3C32.7 16.1 32.5 16.1 32.2 16.1H32C31.7 16.1 31.4 16.2 31.2 16.3L24.4 20.2C18.6 20.5 15.7 12.3 15.7 12.3C14.4 18 15.4 21.8 17.2 24.4L16.1 25C15.4 25.4 15 26 15 26.7V50.3C15 50.6 15.2 50.9 15.5 51.1C15.8 51.3 16.1 51.3 16.4 51.1L25.5 45.9001C26.1 45.6001 26.4 45 26.4 44.3V33.3C26.4 32.6 26.7 32 27.3 31.7001L31.2 29.5C31.5 29.3 31.8 29.3 32.1 29.3C32.4 29.3 32.7 29.4 33 29.5L36.9 31.7001C37.5 32 37.8 32.6 37.8 33.3V44.3C37.8 45 38.2 45.6001 38.7 45.9001L47.7 51.1C48 51.3 48.3 51.3 48.6 51.1C48.9 50.9 49.1 50.6 49.1 50.3V26.7C49.2 26 48.8 25.4 48.2 25.1Z" fill="#4F4D3F"/>
</svg>
