<svg width="102" height="53" viewBox="0 0 102 53" fill="none" xmlns="http://www.w3.org/2000/svg">
<path d="M8.79297 26.5001C8.79297 38.6962 27.7625 48.5835 51.1618 48.5835C74.561 48.5835 93.5305 38.6962 93.5305 26.5001C93.5305 14.3039 74.561 4.41662 51.1618 4.41662C27.7625 4.41662 8.79297 14.3041 8.79297 26.5001Z" fill="url(#paint0_radial_1_350)"/>
<path d="M51.162 46.9436C73.6474 46.9436 91.8757 37.7908 91.8757 26.5C91.8757 15.2093 73.6474 6.05644 51.162 6.05644C28.6766 6.05644 10.4482 15.2093 10.4482 26.5C10.4482 37.7908 28.6766 46.9436 51.162 46.9436Z" fill="#777BB3"/>
<path d="M31.8122 29.0348C33.6611 29.0348 35.0414 28.6969 35.9145 28.0311C36.7785 27.3721 37.3753 26.23 37.688 24.6371C37.9796 23.1481 37.8685 22.1085 37.3579 21.5474C36.8358 20.9744 35.707 20.6838 34.003 20.6838H31.0484L29.4103 29.0349H31.8121L31.8122 29.0348ZM22.1481 39.3218C22.0109 39.3218 21.8806 39.2611 21.7935 39.156C21.7503 39.1042 21.7193 39.0436 21.7026 38.9785C21.6859 38.9134 21.684 38.8454 21.6969 38.7795L26.038 16.649C26.0584 16.5452 26.1145 16.4517 26.1969 16.3844C26.2792 16.3172 26.3826 16.2804 26.4893 16.2805H35.8454C38.7859 16.2805 40.9745 17.07 42.3502 18.632C43.7332 20.2005 44.1603 22.3933 43.6195 25.1489C43.3994 26.2716 43.0209 27.3141 42.4947 28.2479C41.9675 29.1825 41.2712 30.0472 40.4243 30.8186C39.4105 31.7587 38.263 32.4405 37.0168 32.8417C35.7904 33.2375 34.2155 33.4384 32.3355 33.4384H28.547L27.4651 38.9535C27.4448 39.0573 27.3887 39.1508 27.3064 39.218C27.224 39.2853 27.1207 39.3221 27.014 39.3221H22.1481V39.3218Z" fill="black"/>
<path d="M31.428 21.1391H34.0037C36.0603 21.1391 36.7748 21.5863 37.0176 21.8527C37.4203 22.2952 37.4963 23.2281 37.2375 24.5505C36.9466 26.0309 36.4075 27.0806 35.6349 27.67C34.8438 28.2734 33.5578 28.5792 31.813 28.5792H29.9685L31.4279 21.1391H31.428ZM35.846 15.8247H26.4899C26.2765 15.8248 26.0698 15.8983 25.9051 16.0328C25.7405 16.1673 25.6282 16.3544 25.5874 16.5619L21.2464 38.6927C21.2205 38.8246 21.2244 38.9605 21.2578 39.0907C21.2912 39.221 21.3532 39.3422 21.4395 39.4459C21.5257 39.5496 21.634 39.6331 21.7567 39.6904C21.8793 39.7477 22.0132 39.7774 22.1488 39.7775H27.0143C27.2277 39.7775 27.4345 39.7039 27.5992 39.5694C27.7638 39.4349 27.8762 39.2479 27.9169 39.0403L28.9265 33.8937H32.3361C34.2642 33.8937 35.8874 33.6854 37.1602 33.2747C38.4689 32.8533 39.6734 32.1389 40.7391 31.1514C41.6206 30.3478 42.3482 29.4459 42.8968 28.4703C43.4454 27.4948 43.8423 26.4062 44.0718 25.2359C44.6411 22.3351 44.1786 20.0123 42.6972 18.3324C41.2304 16.6685 38.9253 15.8249 35.8463 15.8249M28.8534 29.4904H31.813C33.7745 29.4904 35.2358 29.1245 36.1957 28.392C37.1556 27.6595 37.8036 26.4371 38.1401 24.724C38.4619 23.0793 38.3154 21.9186 37.7003 21.2423C37.0852 20.5661 35.8522 20.2281 34.004 20.2281H30.6704L28.8535 29.4902M35.8465 16.7358C38.6611 16.7358 40.7144 17.4676 42.005 18.9314C43.2957 20.3951 43.6841 22.4385 43.1692 25.0619C42.9573 26.1425 42.5989 27.1305 42.0942 28.0257C41.5896 28.921 40.9293 29.7405 40.114 30.4831C39.1425 31.384 38.0632 32.0258 36.8755 32.4084C35.6879 32.7918 34.1754 32.9827 32.3364 32.9827H28.1688L27.0149 38.8664H22.1494L26.4899 16.7358H35.8462" fill="white"/>
<path d="M54.7758 33.4381C54.6385 33.4381 54.5084 33.3773 54.4212 33.2723C54.334 33.1672 54.2983 33.0293 54.3246 32.8957L56.2448 23.1036C56.4275 22.1724 56.3824 21.504 56.1181 21.2216C55.9562 21.0489 55.4701 20.7594 54.0329 20.7594H50.5539L48.1396 33.0693C48.1192 33.1731 48.0631 33.2666 47.9807 33.3339C47.8984 33.4011 47.795 33.4379 47.6883 33.4379H42.8611C42.7933 33.4379 42.7263 33.4231 42.665 33.3944C42.6037 33.3658 42.5495 33.324 42.5064 33.2722C42.4632 33.2203 42.4322 33.1597 42.4155 33.0946C42.3988 33.0295 42.3969 32.9615 42.4098 32.8956L46.7509 10.7651C46.7713 10.6613 46.8274 10.5678 46.9098 10.5005C46.9921 10.4333 47.0955 10.3965 47.2022 10.3965H52.0294C52.0972 10.3965 52.1641 10.4114 52.2255 10.4401C52.2868 10.4687 52.341 10.5104 52.3841 10.5623C52.4272 10.6141 52.4582 10.6748 52.4749 10.7399C52.4916 10.805 52.4936 10.873 52.4807 10.9389L51.4331 16.2803H55.1756C58.0267 16.2803 59.9599 16.7783 61.0862 17.8029C62.2355 18.8482 62.5921 20.5193 62.1508 22.7711L60.131 33.0696C60.1107 33.1734 60.0545 33.2669 59.9722 33.3342C59.8899 33.4014 59.7865 33.4382 59.6797 33.4382H54.7759L54.7758 33.4381Z" fill="black"/>
<path d="M52.0291 9.94101H47.202C46.9885 9.941 46.7818 10.0145 46.6171 10.149C46.4524 10.2835 46.3401 10.4706 46.2994 10.6782L41.9583 32.8087C41.9324 32.9406 41.9363 33.0765 41.9697 33.2068C42.0031 33.337 42.0652 33.4583 42.1514 33.5619C42.2377 33.6656 42.346 33.7491 42.4687 33.8064C42.5913 33.8637 42.7253 33.8934 42.8609 33.8934H47.6881C47.9015 33.8934 48.1082 33.8199 48.2729 33.6854C48.4376 33.5509 48.5499 33.3638 48.5907 33.1563L50.9327 21.2149H54.0328C55.4676 21.2149 55.7687 21.5186 55.7808 21.5316C55.8679 21.6242 55.9824 22.054 55.7934 23.0166L53.8733 32.8087C53.8474 32.9406 53.8513 33.0765 53.8847 33.2068C53.9181 33.337 53.9802 33.4583 54.0664 33.5619C54.1527 33.6656 54.261 33.7491 54.3837 33.8064C54.5063 33.8637 54.6403 33.8934 54.7759 33.8934H59.6797C59.8931 33.8934 60.0999 33.8199 60.2645 33.6854C60.4292 33.5509 60.5415 33.3638 60.5823 33.1563L62.602 22.8578C63.076 20.4405 62.6705 18.6269 61.3975 17.4675C60.1826 16.3621 58.1475 15.8246 55.1758 15.8246H51.9908L52.9322 11.0257C52.9581 10.8938 52.9542 10.7579 52.9208 10.6276C52.8874 10.4974 52.8254 10.3761 52.7391 10.2724C52.6528 10.1687 52.5445 10.0852 52.4218 10.0279C52.2992 9.97057 52.1652 9.94085 52.0296 9.94086M52.0296 10.8519L50.8757 16.7356H55.176C57.8818 16.7356 59.7482 17.2036 60.7755 18.1383C61.8029 19.0731 62.1103 20.589 61.6999 22.6841L59.6801 32.9824H54.7763L56.6965 23.1906C56.915 22.0767 56.8347 21.3169 56.4553 20.9118C56.0758 20.5067 55.2682 20.3039 54.0333 20.3039H50.1749L47.6884 32.9824H42.8612L47.2023 10.8519H52.0294" fill="white"/>
<path d="M69.7886 29.0348C71.6375 29.0348 73.0177 28.6969 73.8909 28.0311C74.7549 27.3721 75.3516 26.2303 75.6646 24.6371C75.9562 23.1481 75.8451 22.1085 75.3343 21.5474C74.8122 20.9744 73.6834 20.6838 71.9794 20.6838H69.0248L67.3867 29.0349H69.7884L69.7886 29.0348ZM60.1247 39.3218C59.9876 39.3218 59.8573 39.2611 59.7701 39.156C59.727 39.1042 59.696 39.0436 59.6792 38.9785C59.6625 38.9134 59.6605 38.8454 59.6734 38.7795L64.0145 16.649C64.0349 16.5452 64.0911 16.4516 64.1735 16.3844C64.2558 16.3172 64.3593 16.2804 64.466 16.2805H73.822C76.7627 16.2805 78.951 17.07 80.3268 18.632C81.7099 20.2005 82.1367 22.393 81.5962 25.1489C81.3758 26.2716 80.9974 27.3141 80.471 28.2479C79.9439 29.1825 79.2475 30.0472 78.4007 30.8186C77.3869 31.7587 76.2394 32.4405 74.9932 32.8417C73.7668 33.2375 72.1919 33.4384 70.3119 33.4384H66.523L65.4415 38.9535C65.4212 39.0573 65.365 39.1509 65.2826 39.2181C65.2002 39.2854 65.0968 39.3222 64.9901 39.3221H60.1246L60.1247 39.3218Z" fill="black"/>
<path d="M69.4044 21.1391H71.9801C74.0367 21.1391 74.7512 21.5863 74.994 21.8527C75.397 22.2952 75.4729 23.2281 75.2139 24.5503C74.923 26.0307 74.3838 27.0806 73.6113 27.67C72.8202 28.2734 71.5342 28.5792 69.7894 28.5792H67.9454L69.4046 21.1391H69.4044ZM73.8224 15.8247H64.4663C64.2529 15.8248 64.0462 15.8983 63.8815 16.0328C63.7169 16.1673 63.6046 16.3544 63.5639 16.5619L59.2229 38.6927C59.1971 38.8246 59.201 38.9605 59.2344 39.0907C59.2677 39.221 59.3298 39.3422 59.416 39.4459C59.5023 39.5496 59.6106 39.6331 59.7332 39.6904C59.8559 39.7477 59.9898 39.7774 60.1254 39.7775H64.9909C65.2043 39.7775 65.411 39.7039 65.5757 39.5694C65.7404 39.4349 65.8527 39.2479 65.8935 39.0403L66.9029 33.8937H70.3125C72.2407 33.8937 73.8638 33.6854 75.1367 33.2747C76.4454 32.8533 77.6498 32.1389 78.7158 31.151C79.5973 30.3478 80.323 29.4459 80.8732 28.4703C81.4233 27.4948 81.8187 26.4062 82.0482 25.2359C82.6175 22.335 82.1551 20.0121 80.6736 18.3322C79.2068 16.6685 76.9019 15.8249 73.8227 15.8249M66.8299 29.4904H69.7894C71.7509 29.4904 73.2122 29.1245 74.1721 28.392C75.1321 27.6595 75.78 26.4371 76.1165 24.724C76.4386 23.0793 76.292 21.9186 75.6767 21.2423C75.0614 20.5661 73.8286 20.2281 71.9804 20.2281H68.6468L66.8301 29.4902M73.8229 16.7358C76.6375 16.7358 78.6908 17.4676 79.9814 18.9314C81.2721 20.3951 81.6605 22.4385 81.1456 25.0619C80.9337 26.1425 80.5753 27.1305 80.0706 28.0257C79.566 28.921 78.9057 29.7405 78.0904 30.4831C77.1189 31.384 76.0396 32.0258 74.8519 32.4084C73.6643 32.7918 72.1518 32.9827 70.3128 32.9827H66.1452L64.9913 38.8664H60.1258L64.4669 16.7359H73.823" fill="white"/>
<defs>
<radialGradient id="paint0_radial_1_350" cx="0" cy="0" r="1" gradientUnits="userSpaceOnUse" gradientTransform="translate(34.2314 12.1806) scale(55.6363 55.1263)">
<stop stop-color="#AEB2D5"/>
<stop offset="0.3" stop-color="#AEB2D5"/>
<stop offset="0.75" stop-color="#484C89"/>
<stop offset="1" stop-color="#484C89"/>
</radialGradient>
</defs>
</svg>
