<svg width="64" height="64" viewBox="0 0 64 64" fill="none" xmlns="http://www.w3.org/2000/svg">
<path d="M32.0002 37.6621C35.1565 37.6621 37.7152 35.1034 37.7152 31.9471C37.7152 28.7908 35.1565 26.2321 32.0002 26.2321C28.8439 26.2321 26.2852 28.7908 26.2852 31.9471C26.2852 35.1034 28.8439 37.6621 32.0002 37.6621Z" fill="#00D8FF"/>
<path fill-rule="evenodd" clip-rule="evenodd" d="M32.0004 20.3273C39.6736 20.3273 46.8018 21.4283 52.1765 23.2786C58.6521 25.508 62.6336 28.8872 62.6336 31.9471C62.6336 35.1357 58.414 38.7257 51.46 41.0297C46.2026 42.7716 39.2843 43.6809 32.0004 43.6809C24.5325 43.6809 17.4608 42.8274 12.1442 41.0106C5.41766 38.7114 1.36621 35.075 1.36621 31.9471C1.36621 28.9121 5.16772 25.5589 11.5524 23.3329C16.947 21.4521 24.2513 20.3273 31.9994 20.3273H32.0004Z" stroke="#00D8FF" stroke-width="2.73408"/>
<path fill-rule="evenodd" clip-rule="evenodd" d="M21.8847 26.1706C25.7181 19.5236 30.2327 13.8987 34.5207 10.1672C39.6869 5.67119 44.6034 3.91044 47.254 5.43891C50.0163 7.03185 51.0181 12.4808 49.54 19.6557C48.4236 25.0803 45.754 31.5275 42.1151 37.8373C38.3843 44.3066 34.1123 50.0062 29.8827 53.7032C24.5308 58.3816 19.3565 60.0747 16.647 58.5121C14.0177 56.9969 13.0122 52.0277 14.2735 45.3847C15.3393 39.7719 18.0138 32.8826 21.8834 26.1705L21.8847 26.1706Z" stroke="#00D8FF" stroke-width="2.73408"/>
<path fill-rule="evenodd" clip-rule="evenodd" d="M21.8948 37.8543C18.0506 31.2148 15.4333 24.4929 14.3408 18.9145C13.0257 12.1932 13.9555 7.05428 16.6037 5.52137C19.3633 3.92375 24.5844 5.777 30.0622 10.6409C34.2039 14.3183 38.4567 19.8499 42.1062 26.1538C45.8478 32.6168 48.652 39.1646 49.7429 44.6751C51.1233 51.6485 50.0061 56.9766 47.299 58.5437C44.6723 60.0643 39.8657 58.4544 34.7404 54.0439C30.41 50.3176 25.777 44.5597 21.8948 37.8541V37.8543Z" stroke="#00D8FF" stroke-width="2.73408"/>
</svg>
